<svg width="932" height="840" viewBox="0 0 932 840" fill="none" xmlns="http://www.w3.org/2000/svg">
<path d="M752.835 778.972C732.492 775.974 646.697 758.811 639.241 806.707C661.184 830.988 768.437 846.488 757.757 821.939C808.611 793.297 844.851 821.939 844.851 791.544C830.467 769.933 752.835 778.972 752.835 778.972Z" fill="#E8EFEF"/>
<path d="M804.497 779.56C804.293 785.244 804.089 790.928 803.885 796.612C803.734 800.955 797.713 805.112 785.674 808.183C759.668 814.817 715.422 813.894 686.831 806.124C671.488 801.951 663.778 796.649 663.954 791.614L664.566 774.562C664.38 779.622 672.092 784.899 687.444 789.073C716.026 796.842 760.281 797.765 786.287 791.131C798.325 788.06 804.34 783.878 804.497 779.56Z" fill="#FFAB01"/>
<path d="M781.619 765.05C810.202 772.819 812.318 784.499 786.287 791.131C760.255 797.764 716.025 796.842 687.443 789.073C658.861 781.304 656.745 769.624 682.776 762.992C708.808 756.359 753.03 757.272 781.619 765.05ZM695.56 787.016C719.234 793.451 755.908 794.214 777.45 788.722C798.993 783.231 797.254 773.548 773.579 767.113C749.904 760.678 713.23 759.915 691.688 765.406C670.146 770.898 671.876 780.58 695.551 787.015" fill="#FFCF50"/>
<path d="M773.529 767.109C797.203 773.545 798.935 783.218 777.4 788.719C755.866 794.219 719.201 793.448 695.509 787.012C671.818 780.575 670.103 770.903 691.646 765.403C713.189 759.903 749.862 760.675 773.529 767.109Z" fill="#FFAB01"/>
<path d="M691.507 767.524C713.05 762.024 749.707 762.794 773.398 769.231C785.186 772.432 791.529 776.433 792.274 780.327C793.816 775.806 787.489 770.902 773.554 767.111C749.888 760.677 713.206 759.913 691.663 765.404C680.849 768.168 675.901 771.981 676.66 775.909C677.73 772.75 682.641 769.78 691.507 767.524Z" fill="#FBA319"/>
<path d="M424.426 522.451L406.51 504.968C405.72 504.197 403.888 503.592 402.394 503.592H321.108C319.614 503.592 317.782 504.197 316.992 504.968L299.076 522.451C296.748 524.778 296.096 526.117 296.096 533.023C296.096 539.929 308.583 530.181 308.704 527.322C308.734 526.613 308.154 525.956 307.269 525.369H416.232C415.347 525.956 414.768 526.613 414.798 527.322C414.919 530.181 427.405 539.929 427.405 533.023C427.405 526.117 426.754 524.778 424.426 522.451Z" fill="#1B4E6F" fill-opacity="0.2"/>
<path d="M538.647 576.079C538.647 582.632 530.485 574.953 530.485 574.953C530.485 574.953 528.556 571.335 527.631 568.923H423.866C422.137 568.923 419.363 567.516 417.674 565.787L406.337 553.968C404.648 552.239 404.688 550.832 406.457 550.832H518.063C519.832 550.832 522.565 552.239 524.254 553.968L535.631 565.787C537.24 567.646 538.647 569.807 538.647 576.079Z" fill="#1B4E6F" fill-opacity="0.2"/>
<path d="M184.855 576.079C184.855 582.632 193.017 574.953 193.017 574.953C193.017 574.953 194.946 571.335 195.871 568.923H299.637C301.365 568.923 304.139 567.516 305.828 565.787L317.166 553.968C318.854 552.239 318.814 550.832 317.045 550.832H205.44C203.671 550.832 200.937 552.239 199.249 553.968L187.871 565.787C186.262 567.646 184.855 569.807 184.855 576.079Z" fill="#1B4E6F" fill-opacity="0.2"/>
<path d="M530.606 686.853H428.757C424.316 686.853 420.716 683.253 420.716 678.812V576.964C420.716 572.523 424.316 568.923 428.757 568.923H530.606C535.047 568.923 538.647 572.523 538.647 576.964V678.813C538.647 683.253 535.047 686.853 530.606 686.853Z" fill="#194866" fill-opacity="0.7"/>
<path d="M294.745 686.853H192.896C188.455 686.853 184.855 683.253 184.855 678.812V576.964C184.855 572.523 188.455 568.923 192.896 568.923H294.745C299.186 568.923 302.786 572.523 302.786 576.964V678.813C302.786 683.253 299.186 686.853 294.745 686.853Z" fill="#194866" fill-opacity="0.7"/>
<path d="M419.376 695.564H304.126C299.685 695.564 296.085 691.964 296.085 687.523V533.41C296.085 528.969 299.685 525.369 304.126 525.369H419.376C423.817 525.369 427.417 528.969 427.417 533.41V687.523C427.416 691.964 423.816 695.564 419.376 695.564Z" fill="#194866"/>
<path d="M356.263 161.069C372.24 161.069 385.192 148.118 385.192 132.141C385.192 116.164 372.24 103.212 356.263 103.212C340.286 103.212 327.335 116.164 327.335 132.141C327.335 148.118 340.286 161.069 356.263 161.069Z" fill="#FFCF50"/>
<path d="M356.434 155.913C369.563 155.913 380.206 145.27 380.206 132.141C380.206 119.012 369.563 108.368 356.434 108.368C343.305 108.368 332.661 119.012 332.661 132.141C332.661 145.27 343.305 155.913 356.434 155.913Z" fill="#FFAB01"/>
<path d="M333.369 496.403C333.369 496.403 334.224 502.069 332.808 504.045C331.393 506.022 347.678 504.725 347.678 504.725C347.678 504.725 342.318 496.667 344 492.789C345.682 488.909 333.369 496.403 333.369 496.403Z" fill="#E9D6B8"/>
<path d="M317.116 518.147L348.572 512.949C350.303 509.286 349.551 505.869 346.869 502.643C341.751 503.853 336.842 504.156 332.308 502.843C328.761 506.911 323.073 510.577 316.441 514.067C314.343 515.382 314.996 516.75 317.116 518.147Z" fill="#2A425B"/>
<rect x="317.093" y="518.145" width="31.9332" height="1.36746" transform="rotate(-9.38131 317.093 518.145)" fill="#F5F5F5"/>
<path d="M332.015 334.893L331.336 341.329L327.02 381.843L324.049 409.827L331.519 496.541L333.76 496.793L344.588 498.029L345.631 498.154L347.886 419.54L369.138 356.809L370.264 353.455L370.604 352.469L360.964 348.086L352.29 344.116L332.015 334.893Z" fill="#0C6D6A"/>
<path d="M390.924 496.403C390.924 496.403 390.069 502.069 391.484 504.046C392.9 506.022 376.615 504.725 376.615 504.725C376.615 504.725 381.974 496.667 380.292 492.789C378.61 488.91 390.924 496.403 390.924 496.403Z" fill="#E9D6B8"/>
<path d="M407.178 518.147L375.721 512.949C373.991 509.287 374.742 505.869 377.424 502.643C382.543 503.853 387.451 504.157 391.985 502.843C395.531 506.911 401.22 510.577 407.852 514.068C409.95 515.382 409.297 516.751 407.178 518.147Z" fill="#2A425B"/>
<rect x="406.954" y="519.52" width="31.9332" height="1.36746" transform="rotate(-170.619 406.954 519.52)" fill="#F5F5F5"/>
<path d="M392.277 334.892L392.956 341.328L397.273 381.842L400.244 409.827L392.772 496.54L390.532 496.792L379.705 498.029L378.661 498.153L376.406 419.539L355.154 356.808L354.027 353.455L353.687 352.468L363.328 348.086L372.002 344.115L392.277 334.892Z" fill="#0C6D6A"/>
<path d="M396.631 340.525C396.854 341.417 395.33 342.346 392.617 343.238C388.193 344.725 378.348 346.385 369.948 347.537C363.629 348.43 356.827 349.136 350.619 349.619C348.947 349.73 347.311 349.805 345.75 349.916C345.75 349.916 345.713 349.879 345.676 349.916C337.87 350.288 329.591 349.947 327.212 349.017C326.469 348.72 326.134 348.385 326.171 347.94C328.684 293.896 332.595 303.867 321.217 268.969C319.374 263.318 321.548 246.647 322.255 242.261C322.366 241.592 334.822 236.444 340.881 233.433C347.311 230.125 356.686 233.764 364.492 231.646C367.317 230.865 384.646 231.317 386.505 234.662C389.664 240.35 391.768 257.222 392.065 262.426C392.214 265.252 392.288 268.076 392.288 270.939C392.288 272.649 392.251 274.359 392.214 276.069C392.214 276.069 392.214 276.105 392.214 276.143C392.102 281.644 391.767 281.782 391.396 287.246C390.095 307.43 393.601 325.563 396.631 340.525Z" fill="#79CCCA"/>
<path d="M342.594 234.996C346.621 241.303 370.248 235.635 365.777 229.664C362.087 227.717 359.651 222.848 357.328 217.717L341.728 218.787C344.447 224.582 346.052 229.825 342.594 234.996Z" fill="#DFCAA8"/>
<path d="M345.723 222.068C344.802 224.364 360.355 226.222 361.008 225.091C365.274 222.27 365.657 200.516 362.766 193.149L337.464 192.222L333.639 210.133L345.723 222.068Z" fill="#E9D6B8"/>
<path d="M372.685 161.641L390.777 209.788L387.576 221.262C391.871 221.913 399.365 222.714 404.755 226.081C405.985 221.377 406.196 216.844 405.74 212.446C405.403 205.768 391.232 180.005 382.235 161.069L372.685 161.641Z" fill="#E9D6B8"/>
<path d="M379.295 243.788C386.699 246.671 382.99 260.984 391.796 261.136C393.361 253.604 405.266 227.745 406.921 221.415C401.531 218.048 392.321 216.88 388.025 216.229C384.608 224.965 378.742 239.987 379.295 243.788Z" fill="#79CCCA"/>
<path d="M374.885 164.044C371.305 163.239 367.743 160.624 365.84 156.368C365.534 154.392 366.158 154.364 367.838 154.639C369.231 155.211 368.817 155.159 370.117 156.331C370.353 153.908 369.675 151.113 369.212 147.977C369.172 146.273 374.75 147.51 376.31 148.083C378.68 149.2 380.617 149.501 382.078 152.469C383.05 156.543 383.18 160.345 382.076 163.748L374.885 164.044Z" fill="#E9D6B8"/>
<path d="M339.235 162.39L321.143 210.537L324.345 222.011C320.049 222.662 312.555 223.463 307.165 226.829C305.935 222.125 305.725 217.592 306.181 213.194C306.518 206.517 320.688 180.755 329.685 161.818L339.235 162.39Z" fill="#E9D6B8"/>
<path d="M332.625 244.538C325.221 247.421 329.301 264.234 320.495 264.386C318.931 256.854 306.655 228.494 305 222.164C310.39 218.797 319.6 217.63 323.896 216.978C327.312 225.715 333.178 240.736 332.625 244.538Z" fill="#79CCCA"/>
<path d="M337.035 164.793C340.615 163.988 344.176 161.372 346.08 157.116C346.385 155.141 345.761 155.113 344.082 155.388C342.689 155.959 343.102 155.907 341.802 157.08C341.566 154.657 342.244 151.862 342.708 148.726C342.748 147.021 337.169 148.259 335.609 148.832C333.239 149.949 331.302 150.249 329.842 153.218C328.87 157.292 328.739 161.094 329.843 164.497L337.035 164.793Z" fill="#E9D6B8"/>
<path d="M345.389 203.524C345.389 203.524 360.788 204.316 366.01 197.782C371.232 191.248 368.288 184.409 362.387 184.884C356.486 185.36 356.78 190.355 350.373 187.579C343.967 184.802 331.959 194.411 332.258 201.337C332.872 215.531 338.906 222.773 343.584 223.154C346.346 223.379 346.699 217.308 343.343 215.442C340.847 214.053 339.94 209.075 342.205 209.042C345.479 208.994 344.16 214.049 345.58 211.184C346.616 209.091 345.389 203.524 345.389 203.524Z" fill="#393768"/>
<path d="M345.941 208.305C348.365 215.49 353.062 218.384 358.183 221.688C358.957 220.875 360.054 220.389 361.383 220.141C362.249 220.305 362.849 220.722 363.037 221.527C363.121 223.394 361.983 225.569 360.294 226.849C357.36 226.86 351.425 225.183 349.861 222.63L344.83 211.986L345.941 208.305Z" fill="#393768"/>
<path opacity="0.05" d="M392.795 277.977C392.795 277.977 392.583 277.907 392.16 277.907C392.195 277.307 392.23 276.742 392.23 276.141L392.795 277.977Z" fill="black"/>
<path d="M147.744 715.056C174.197 711.429 323.103 727.895 293.771 765.05C264.438 802.205 133.176 835.914 147.936 797.722C162.696 759.529 -3.4092 781.144 16.0352 747.795C35.4795 714.446 147.744 715.056 147.744 715.056Z" fill="#E8EFEF"/>
<path d="M222.237 720.295C222.355 724.996 222.473 729.703 222.591 734.415C222.679 738.012 217.912 741.748 208.114 744.89C186.945 751.683 150.321 753.139 126.303 748.143C113.404 745.462 106.766 741.47 106.661 737.294L106.307 723.166C106.412 727.358 113.05 731.342 125.949 734.014C149.967 739.01 186.591 737.555 207.76 730.77C217.557 727.628 222.333 723.892 222.237 720.295Z" fill="#FFAB01"/>
<path d="M202.596 709.438C226.614 714.434 228.93 723.977 207.761 730.77C186.592 737.563 149.968 739.01 125.95 734.014C101.932 729.019 99.6247 719.484 120.785 712.691C141.946 705.897 178.578 704.451 202.596 709.438ZM132.541 731.912C152.429 736.041 182.797 734.832 200.304 729.216C217.812 723.599 215.919 715.687 196.022 711.558C176.126 707.428 145.767 708.629 128.259 714.254C110.751 719.879 112.644 727.782 132.541 731.912Z" fill="#FFCF50"/>
<path d="M111.77 729.389L111.591 743.226C114.92 745.105 119.793 746.794 126.305 748.144C133.397 749.551 140.583 750.434 147.805 750.785L147.987 736.688C140.585 736.349 133.22 735.455 125.951 734.015C119.773 732.736 115.041 731.15 111.77 729.389Z" fill="#F9AF38"/>
<path d="M228.689 705.039L229.035 719.167C229.131 722.764 224.364 726.5 214.566 729.643C193.397 736.436 156.773 737.891 132.747 732.895C119.856 730.214 113.218 726.222 113.113 722.047L112.759 707.918C112.864 712.11 119.502 716.085 132.401 718.766C156.419 723.762 193.043 722.307 214.212 715.514C224.009 712.38 228.777 708.644 228.689 705.039Z" fill="#FFAB01"/>
<path d="M209.046 694.19C233.063 699.186 235.38 708.73 214.211 715.514C193.042 722.299 156.417 723.762 132.4 718.767C108.382 713.771 106.066 704.236 127.235 697.443C148.404 690.65 185.061 689.203 209.046 694.19ZM138.973 716.664C158.87 720.802 189.229 719.593 206.745 713.968C224.261 708.343 222.36 700.439 202.463 696.31C182.567 692.18 152.208 693.381 134.708 699.006C117.209 704.631 119.085 712.535 138.973 716.664Z" fill="#FFCF50"/>
<path d="M202.463 696.301C222.36 700.439 224.27 708.318 206.745 713.959C189.22 719.601 158.878 720.793 138.973 716.655C119.068 712.518 117.167 704.639 134.708 698.998C152.25 693.356 182.575 692.172 202.463 696.301Z" fill="#FFAB01"/>
<path d="M118.219 714.142L118.041 727.978C121.327 729.857 126.234 731.546 132.747 732.896C139.842 734.303 147.03 735.186 154.255 735.537L154.437 721.449C147.035 721.103 139.67 720.206 132.401 718.767C126.223 717.489 121.491 715.902 118.219 714.142Z" fill="#F9AF38"/>
<path d="M223.913 686.603L224.259 700.723C224.355 704.329 219.588 708.056 209.782 711.199C188.621 717.992 151.997 719.447 127.979 714.46C115.08 711.779 108.434 707.778 108.337 703.602L107.983 689.482C108.088 693.675 114.726 697.65 127.625 700.331C151.643 705.318 188.267 703.863 209.436 697.078C219.233 693.936 224.001 690.2 223.913 686.603Z" fill="#FFAB01"/>
<path d="M204.271 675.746C228.289 680.741 230.605 690.285 209.436 697.078C188.267 703.871 151.643 705.318 127.625 700.331C103.607 695.343 101.291 685.791 122.46 678.998C143.629 672.205 180.27 670.759 204.271 675.746ZM134.199 698.219C154.095 702.349 184.454 701.148 201.971 695.523C219.487 689.899 217.585 681.995 197.689 677.865C177.792 673.736 147.433 674.937 129.925 680.562C112.418 686.186 114.311 694.09 134.199 698.219Z" fill="#FFCF50"/>
<path d="M207.391 627.931C230.658 633.479 232.884 644.163 212.355 651.812C191.825 659.461 156.328 661.152 133.06 655.613C109.793 650.075 107.567 639.382 128.096 631.733C148.626 624.084 184.139 622.392 207.391 627.931ZM139.435 653.236C158.71 657.822 188.136 656.418 205.123 650.085C222.11 643.751 220.282 634.903 201.007 630.317C181.732 625.731 152.307 627.135 135.328 633.469C118.349 639.802 120.169 648.65 139.435 653.236Z" fill="#FFCF50"/>
<path d="M197.689 677.857C217.586 681.995 219.496 689.874 201.971 695.516C184.446 701.157 154.104 702.341 134.199 698.212C114.294 694.082 112.393 686.195 129.926 680.554C147.459 674.912 177.801 673.728 197.689 677.857Z" fill="#FFAB01"/>
<path d="M113.444 695.705L113.265 709.534C116.552 711.412 121.467 713.101 127.98 714.46C135.073 715.859 142.259 716.741 149.48 717.101L149.662 703.004C142.26 702.661 134.894 701.767 127.626 700.331C121.448 699.044 116.715 697.491 113.444 695.705Z" fill="#F9AF38"/>
<path d="M223.023 659.559C223.141 664.272 223.259 668.981 223.377 673.688C223.465 677.285 218.697 681.02 208.9 684.163C187.731 690.948 151.107 692.403 127.089 687.416C114.19 684.735 107.552 680.743 107.447 676.567L107.092 662.438C107.198 666.631 113.835 670.606 126.735 673.287C150.752 678.283 187.377 676.819 208.546 670.035C218.343 666.892 223.119 663.156 223.023 659.559Z" fill="#FFAB01"/>
<path d="M203.379 648.71C227.397 653.698 229.713 663.25 208.544 670.034C187.375 676.819 150.751 678.283 126.733 673.287C102.716 668.291 100.408 658.748 121.569 651.963C142.729 645.178 179.362 643.715 203.379 648.71ZM133.324 671.176C153.212 675.314 183.58 674.105 201.087 668.48C218.595 662.855 216.702 654.951 196.806 650.822C176.909 646.692 146.55 647.893 129.042 653.51C111.535 659.126 113.427 667.046 133.324 671.168" fill="#FFCF50"/>
<path d="M112.553 668.661L112.374 682.498C115.703 684.368 120.577 686.057 127.089 687.416C134.182 688.819 141.367 689.702 148.589 690.057L148.771 675.96C141.369 675.617 134.004 674.723 126.735 673.287C120.557 672 115.824 670.422 112.553 668.661Z" fill="#F9AF38"/>
<path d="M229.473 644.311L229.818 658.44C229.914 662.037 225.147 665.772 215.349 668.915C194.18 675.7 157.556 677.155 133.53 672.168C120.639 669.487 114.002 665.486 113.896 661.319L113.517 647.157C113.623 651.349 120.26 655.324 133.16 658.005C157.177 663.001 193.801 661.546 214.971 654.753C224.793 651.644 229.56 647.908 229.473 644.311Z" fill="#FFAB01"/>
<path d="M209.831 633.462C233.849 638.45 236.165 648.002 214.996 654.786C193.827 661.571 157.203 663.035 133.185 658.039C109.167 653.043 106.851 643.5 128.02 636.715C149.189 629.93 185.847 628.467 209.831 633.462ZM139.759 655.928C159.655 660.065 190.015 658.856 207.531 653.24C225.047 647.624 223.146 639.703 203.249 635.582C183.352 631.461 152.993 632.653 135.494 638.278C117.995 643.903 119.871 651.807 139.759 655.936" fill="#FFCF50"/>
<path d="M119.003 653.413L118.824 667.25C122.111 669.128 127.018 670.81 133.53 672.168C140.626 673.571 147.815 674.454 155.039 674.809L155.221 660.713C147.819 660.369 140.454 659.475 133.185 658.039C127.007 656.761 122.274 655.174 119.003 653.413Z" fill="#F9AF38"/>
<path d="M224.698 625.867L225.044 639.996C225.14 643.593 220.372 647.329 210.566 650.471C189.406 657.264 152.782 658.711 128.764 653.724C115.865 651.043 109.219 647.051 109.122 642.875L108.768 628.746C108.873 632.939 115.511 636.914 128.41 639.595C152.428 644.591 189.052 643.136 210.221 636.343C220.018 633.2 224.786 629.473 224.698 625.867Z" fill="#FFAB01"/>
<path d="M205.056 615.019C229.074 620.014 231.39 629.558 210.221 636.343C189.052 643.127 152.428 644.591 128.41 639.595C104.392 634.6 102.076 625.056 123.245 618.271C144.414 611.486 181.055 610.031 205.056 615.019ZM134.984 637.492C154.88 641.622 185.239 640.412 202.755 634.796C220.271 629.18 218.37 621.267 198.474 617.138C178.577 613.009 148.218 614.209 130.71 619.834C113.202 625.459 115.095 633.363 134.984 637.492Z" fill="#FFCF50"/>
<path d="M198.473 617.13C218.37 621.268 220.28 629.146 202.755 634.788C185.23 640.429 154.888 641.613 134.983 637.484C115.078 633.354 113.177 625.467 130.71 619.826C148.243 614.185 178.585 612.992 198.473 617.13Z" fill="#FFAB01"/>
<path d="M114.227 634.969L114.048 648.839C117.334 650.718 122.25 652.407 128.762 653.757C135.855 655.16 143.04 656.043 150.262 656.398L150.444 642.268C143.042 641.929 135.677 641.035 128.408 639.595C122.23 638.316 117.498 636.73 114.227 634.969Z" fill="#F9AF38"/>
<path d="M687.05 615.647C700.604 614.093 743.369 630.38 728.3 646.013C713.232 661.646 654.966 672.367 616.008 657.471C594.955 649.421 559.602 629.671 569.601 615.647C579.6 601.624 687.05 615.647 687.05 615.647Z" fill="#E8EFEF"/>
<path d="M594.185 616.096L593.954 625.527C593.89 627.928 597.072 630.421 603.612 632.519C617.742 637.053 642.187 638.024 658.224 634.69C666.829 632.9 671.259 630.236 671.33 627.449L671.566 618.018C671.496 620.816 667.065 623.47 658.455 625.259C642.424 628.594 617.978 627.623 603.848 623.088C597.308 620.996 594.126 618.503 594.185 616.096Z" fill="#FFAB01"/>
<path d="M607.296 608.855C591.265 612.19 589.719 618.56 603.849 623.089C617.978 627.617 642.424 628.594 658.456 625.26C674.487 621.925 676.033 615.561 661.903 611.026C647.773 606.492 623.305 605.527 607.296 608.855ZM654.068 623.856C640.788 626.618 620.523 625.811 608.832 622.057C597.14 618.302 598.409 613.026 611.69 610.27C624.97 607.514 645.234 608.315 656.915 612.07C668.595 615.824 667.343 621.1 654.068 623.856Z" fill="#FFCF50"/>
<path d="M611.69 610.264C598.409 613.026 597.134 618.285 608.832 622.051C620.529 625.816 640.782 626.612 654.068 623.85C667.354 621.089 668.624 615.83 656.915 612.064C645.207 608.299 624.965 607.508 611.69 610.264Z" fill="#FFAB01"/>
<path d="M667.921 622.172L668.04 631.408C665.846 632.662 662.571 633.79 658.224 634.691C653.489 635.63 648.69 636.219 643.868 636.454L643.747 627.05C648.687 626.819 653.603 626.221 658.455 625.26C662.579 624.407 665.737 623.348 667.921 622.172Z" fill="#F9AF38"/>
<path d="M597.372 603.791L597.141 613.216C597.077 615.622 600.259 618.11 606.805 620.208C620.929 624.742 645.375 625.714 661.406 622.385C670.016 620.595 674.452 617.925 674.517 615.138L674.754 605.713C674.683 608.511 670.253 611.164 661.643 612.954C645.611 616.283 621.165 615.312 607.035 610.783C600.496 608.685 597.313 606.192 597.372 603.791Z" fill="#FFAB01"/>
<path d="M610.483 596.544C594.451 599.879 592.905 606.249 607.035 610.783C621.165 615.317 645.611 616.283 661.643 612.954C677.674 609.625 679.22 603.249 665.09 598.715C650.96 594.181 626.503 593.215 610.483 596.544ZM657.255 611.545C643.974 614.301 623.71 613.5 612.018 609.745C600.327 605.991 601.596 600.715 614.876 597.959C628.157 595.203 648.421 596.004 660.107 599.759C671.793 603.513 670.53 608.789 657.255 611.545Z" fill="#FFCF50"/>
<path d="M608.401 564.628C592.87 568.331 591.384 575.463 605.087 580.568C618.79 585.674 642.484 586.803 658.015 583.106C673.546 579.409 675.031 572.272 661.328 567.166C647.625 562.06 623.92 560.931 608.401 564.628ZM653.76 581.519C640.894 584.58 621.253 583.643 609.914 579.416C598.576 575.188 599.796 569.282 612.661 566.221C625.527 563.16 645.168 564.097 656.501 568.325C667.834 572.552 666.62 578.458 653.76 581.519Z" fill="#FFCF50"/>
<path d="M614.876 597.953C601.596 600.715 600.321 605.974 612.018 609.74C623.716 613.505 643.969 614.296 657.255 611.539C670.541 608.783 671.81 603.518 660.107 599.753C648.404 595.987 628.151 595.197 614.876 597.953Z" fill="#FFAB01"/>
<path d="M671.109 609.866L671.228 619.097C669.034 620.35 665.753 621.478 661.406 622.385C656.672 623.319 651.875 623.908 647.055 624.148L646.934 614.738C651.874 614.509 656.791 613.913 661.643 612.954C665.766 612.095 668.925 611.058 671.109 609.866Z" fill="#F9AF38"/>
<path d="M597.967 585.739C597.888 588.885 597.81 592.028 597.731 595.17C597.672 597.571 600.855 600.065 607.394 602.162C621.524 606.691 645.97 607.662 662.002 604.333C670.612 602.544 675.042 599.879 675.112 597.092L675.349 587.661C675.279 590.46 670.848 593.113 662.238 594.903C646.206 598.237 621.76 597.26 607.631 592.732C601.091 590.634 597.903 588.141 597.967 585.739Z" fill="#FFAB01"/>
<path d="M611.078 578.498C595.047 581.827 593.501 588.203 607.631 592.732C621.761 597.26 646.207 598.237 662.238 594.902C678.269 591.568 679.81 585.198 665.685 580.669C651.561 576.14 627.11 575.163 611.078 578.498ZM657.839 593.493C644.564 596.255 624.294 595.448 612.608 591.694C600.922 587.939 602.185 582.664 615.466 579.907C628.747 577.151 649.011 577.953 660.697 581.701C672.383 585.45 671.119 590.737 657.839 593.488" fill="#FFCF50"/>
<path d="M671.703 591.815L671.823 601.051C669.601 602.299 666.348 603.427 662.001 604.333C657.267 605.27 652.47 605.859 647.65 606.096L647.529 596.687C652.469 596.458 657.385 595.861 662.237 594.903C666.361 594.044 669.52 592.99 671.703 591.815Z" fill="#F9AF38"/>
<path d="M593.661 575.562L593.431 584.992C593.366 587.393 596.549 589.887 603.088 591.984C617.218 596.513 641.664 597.484 657.701 594.155C666.306 592.366 670.736 589.696 670.806 586.914L671.059 577.461C670.989 580.259 666.559 582.912 657.949 584.702C641.917 588.037 617.471 587.065 603.341 582.531C596.785 580.456 593.603 577.963 593.661 575.562Z" fill="#FFAB01"/>
<path d="M606.773 568.32C590.741 571.649 589.195 578.025 603.325 582.554C617.455 587.082 641.901 588.059 657.933 584.725C673.964 581.39 675.51 575.02 661.38 570.491C647.25 565.963 622.782 564.986 606.773 568.32ZM653.545 583.316C640.264 586.077 620 585.27 608.308 581.522C596.617 577.773 597.886 572.486 611.166 569.735C624.447 566.984 644.711 567.78 656.392 571.535C668.072 575.289 666.82 580.565 653.545 583.321" fill="#FFCF50"/>
<path d="M667.398 581.637L667.518 590.873C665.324 592.127 662.048 593.249 657.702 594.156C652.965 595.092 648.167 595.681 643.345 595.919L643.224 586.509C648.164 586.28 653.081 585.684 657.932 584.725C662.056 583.872 665.215 582.812 667.398 581.637Z" fill="#F9AF38"/>
<path d="M596.848 563.251L596.618 572.681C596.554 575.082 599.736 577.576 606.281 579.673C620.405 584.208 644.851 585.173 660.883 581.845C669.493 580.055 673.929 577.39 673.994 574.603L674.23 565.173C674.16 567.971 669.729 570.624 661.119 572.414C645.088 575.748 620.642 574.777 606.512 570.243C599.972 568.145 596.79 565.657 596.848 563.251Z" fill="#FFAB01"/>
<path d="M609.959 556.01C593.928 559.344 592.382 565.714 606.512 570.243C620.642 574.772 645.088 575.749 661.119 572.414C677.15 569.079 678.696 562.709 664.566 558.18C650.437 553.652 625.979 552.681 609.959 556.01ZM656.731 571.01C643.451 573.767 623.186 572.959 611.495 569.211C599.803 565.462 601.072 560.181 614.353 557.424C627.633 554.668 647.898 555.469 659.584 559.224C671.27 562.978 670.006 568.254 656.731 571.01Z" fill="#FFCF50"/>
<path d="M614.353 557.419C601.072 560.181 599.797 565.44 611.495 569.205C623.192 572.971 643.445 573.761 656.731 571.005C670.017 568.248 671.287 562.984 659.584 559.218C647.881 555.453 627.628 554.657 614.353 557.419Z" fill="#FFAB01"/>
<path d="M670.586 569.326L670.705 578.584C668.512 579.838 665.231 580.966 660.884 581.867C656.15 582.803 651.353 583.393 646.533 583.63L646.411 574.198C651.352 573.972 656.268 573.375 661.12 572.414C665.244 571.56 668.402 570.501 670.586 569.326Z" fill="#F9AF38"/>
<path d="M52.9801 366.802C56.6786 365.308 60.3773 363.814 64.0758 362.321C66.9005 361.176 71.2836 363.844 76.6911 370.676C88.3728 385.436 100.428 414.037 103.624 434.568C105.336 445.587 104.144 452.041 100.869 453.367L89.7733 457.848C93.0669 456.521 94.2426 450.074 92.528 439.049C89.3343 418.524 77.2771 389.917 65.5954 375.157C60.1879 368.325 55.7901 365.669 52.9801 366.802Z" fill="#FFAB01"/>
<path d="M50.2272 385.601C47.0335 365.075 53.9092 360.381 65.5969 375.157C77.2847 389.934 89.3359 418.523 92.5295 439.049C95.7232 459.575 88.8474 464.269 77.1596 449.492C65.4718 434.716 53.4173 406.134 50.2272 385.601ZM88.8919 434.439C86.2468 417.438 76.2537 393.732 66.5796 381.505C56.9055 369.278 51.2016 373.159 53.8467 390.161C56.4919 407.162 66.4849 430.868 76.159 443.095C85.8331 455.322 91.5391 451.446 88.894 434.445" fill="#FFCF50"/>
<path d="M53.8585 390.193C51.2133 373.192 56.9137 369.318 66.5914 381.538C76.269 393.757 86.2545 417.459 88.9037 434.472C91.5528 451.485 85.8484 455.347 76.1688 443.122C66.4891 430.897 56.5016 407.189 53.8585 390.193Z" fill="#FFAB01"/>
<path d="M77.5661 442.605C67.8865 430.38 57.903 406.684 55.2538 389.671C53.935 381.207 54.6846 376.001 56.9653 374.411C53.6298 374.715 52.297 380.169 53.852 390.177C56.4951 407.173 66.4902 430.884 76.1643 443.111C81.0253 449.248 84.8813 451.327 87.1802 449.718C84.8509 449.936 81.5452 447.639 77.5661 442.605Z" fill="#FBA319"/>
<path d="M868.587 193.125H482.337C480.203 193.125 478.156 192.278 476.647 190.769C475.138 189.259 474.29 187.213 474.29 185.079V136.797C474.285 135.153 474.783 133.547 475.718 132.194C476.653 130.842 477.98 129.809 479.521 129.233L672.646 56.8113C674.468 56.1671 676.456 56.1671 678.278 56.8113L871.403 129.233C872.944 129.809 874.27 130.842 875.206 132.194C876.141 133.547 876.639 135.153 876.634 136.797V185.079C876.634 187.213 875.786 189.259 874.277 190.769C872.768 192.278 870.721 193.125 868.587 193.125Z" fill="#F5F5F5"/>
<path d="M852.493 225.312H498.431C496.297 225.312 494.25 224.465 492.741 222.956C491.232 221.447 490.384 219.4 490.384 217.266V185.078C490.384 182.944 491.232 180.897 492.741 179.388C494.25 177.879 496.297 177.031 498.431 177.031H852.493C854.627 177.031 856.674 177.879 858.183 179.388C859.692 180.897 860.54 182.944 860.54 185.078V217.266C860.54 219.4 859.692 221.447 858.183 222.956C856.674 224.465 854.627 225.312 852.493 225.312ZM506.478 209.219H844.446V193.125H506.478V209.219Z" fill="#F5F5F5"/>
<path d="M868.587 458.672H482.337C480.203 458.672 478.156 457.824 476.647 456.315C475.138 454.806 474.29 452.759 474.29 450.625V410.391C474.29 408.256 475.138 406.21 476.647 404.701C478.156 403.192 480.203 402.344 482.337 402.344H868.587C870.721 402.344 872.768 403.192 874.277 404.701C875.786 406.21 876.634 408.256 876.634 410.391V450.625C876.634 452.759 875.786 454.806 874.277 456.315C872.768 457.824 870.721 458.672 868.587 458.672ZM490.384 442.578H860.54V418.438H490.384V442.578Z" fill="#F5F5F5"/>
<path d="M852.493 418.438H498.431C496.297 418.438 494.25 417.59 492.741 416.081C491.232 414.572 490.384 412.525 490.384 410.391V378.203C490.384 376.069 491.232 374.022 492.741 372.513C494.25 371.004 496.297 370.156 498.431 370.156H852.493C854.627 370.156 856.674 371.004 858.183 372.513C859.692 374.022 860.54 376.069 860.54 378.203V410.391C860.54 412.525 859.692 414.572 858.183 416.081C856.674 417.59 854.627 418.438 852.493 418.438ZM506.478 402.344H844.446V386.25H506.478V402.344Z" fill="#F5F5F5"/>
<path d="M578.899 257.5H530.618C524.216 257.5 518.075 254.957 513.548 250.429C509.021 245.902 506.478 239.762 506.478 233.359V217.266C506.478 215.131 507.325 213.085 508.834 211.576C510.343 210.067 512.39 209.219 514.524 209.219H594.993C597.127 209.219 599.174 210.067 600.683 211.576C602.192 213.085 603.04 215.131 603.04 217.266V233.359C603.04 239.762 600.497 245.902 595.969 250.429C591.442 254.957 585.302 257.5 578.899 257.5ZM522.571 225.312V233.359C522.571 235.494 523.419 237.54 524.928 239.049C526.437 240.558 528.484 241.406 530.618 241.406H578.899C581.034 241.406 583.08 240.558 584.589 239.049C586.099 237.54 586.946 235.494 586.946 233.359V225.312H522.571Z" fill="#F5F5F5"/>
<path d="M594.993 386.25H514.524C512.39 386.25 510.343 385.402 508.834 383.893C507.325 382.384 506.478 380.337 506.478 378.203V362.109C506.478 355.707 509.021 349.567 513.548 345.039C518.075 340.512 524.216 337.969 530.618 337.969H578.899C585.302 337.969 591.442 340.512 595.969 345.039C600.497 349.567 603.04 355.707 603.04 362.109V378.203C603.04 380.337 602.192 382.384 600.683 383.893C599.174 385.402 597.127 386.25 594.993 386.25ZM522.571 370.156H586.946V362.109C586.946 359.975 586.099 357.928 584.589 356.419C583.08 354.91 581.034 354.062 578.899 354.062H530.618C528.484 354.062 526.437 354.91 524.928 356.419C523.419 357.928 522.571 359.975 522.571 362.109V370.156Z" fill="#F5F5F5"/>
<path d="M578.899 354.062H530.618C528.484 354.062 526.437 353.215 524.928 351.706C523.419 350.197 522.571 348.15 522.571 346.016V249.453C522.571 247.319 523.419 245.272 524.928 243.763C526.437 242.254 528.484 241.406 530.618 241.406H578.899C581.034 241.406 583.08 242.254 584.589 243.763C586.099 245.272 586.946 247.319 586.946 249.453V346.016C586.946 348.15 586.099 350.197 584.589 351.706C583.08 353.215 581.034 354.062 578.899 354.062ZM538.665 337.969H570.853V257.5H538.665V337.969Z" fill="#F5F5F5"/>
<path d="M820.306 257.5H772.024C765.622 257.5 759.482 254.957 754.954 250.429C750.427 245.902 747.884 239.762 747.884 233.359V217.266C747.884 215.131 748.732 213.085 750.241 211.576C751.75 210.067 753.797 209.219 755.931 209.219H836.399C838.534 209.219 840.58 210.067 842.089 211.576C843.599 213.085 844.446 215.131 844.446 217.266V233.359C844.446 239.762 841.903 245.902 837.376 250.429C832.848 254.957 826.708 257.5 820.306 257.5ZM763.978 225.312V233.359C763.978 235.494 764.825 237.54 766.334 239.049C767.843 240.558 769.89 241.406 772.024 241.406H820.306C822.44 241.406 824.487 240.558 825.996 239.049C827.505 237.54 828.353 235.494 828.353 233.359V225.312H763.978Z" fill="#F5F5F5"/>
<path d="M836.399 386.25H755.931C753.797 386.25 751.75 385.402 750.241 383.893C748.732 382.384 747.884 380.337 747.884 378.203V362.109C747.884 355.707 750.427 349.567 754.954 345.039C759.482 340.512 765.622 337.969 772.024 337.969H820.306C826.708 337.969 832.848 340.512 837.376 345.039C841.903 349.567 844.446 355.707 844.446 362.109V378.203C844.446 380.337 843.599 382.384 842.089 383.893C840.58 385.402 838.534 386.25 836.399 386.25ZM763.978 370.156H828.353V362.109C828.353 359.975 827.505 357.928 825.996 356.419C824.487 354.91 822.44 354.062 820.306 354.062H772.024C769.89 354.062 767.843 354.91 766.334 356.419C764.825 357.928 763.978 359.975 763.978 362.109V370.156Z" fill="#F5F5F5"/>
<path d="M820.306 354.062H772.024C769.89 354.062 767.843 353.215 766.334 351.706C764.825 350.197 763.978 348.15 763.978 346.016V249.453C763.978 247.319 764.825 245.272 766.334 243.763C767.843 242.254 769.89 241.406 772.024 241.406H820.306C822.44 241.406 824.487 242.254 825.996 243.763C827.505 245.272 828.353 247.319 828.353 249.453V346.016C828.353 348.15 827.505 350.197 825.996 351.706C824.487 353.215 822.44 354.062 820.306 354.062ZM780.071 337.969H812.259V257.5H780.071V337.969Z" fill="#F5F5F5"/>
<path d="M723.743 386.25H627.181C625.047 386.25 623 385.402 621.491 383.893C619.982 382.384 619.134 380.337 619.134 378.203V305.781C619.134 290.842 625.068 276.515 635.632 265.951C646.195 255.388 660.523 249.453 675.462 249.453C690.401 249.453 704.728 255.388 715.292 265.951C725.855 276.515 731.79 290.842 731.79 305.781V378.203C731.79 380.337 730.942 382.384 729.433 383.893C727.924 385.402 725.877 386.25 723.743 386.25ZM635.228 370.156H715.696V305.781C715.696 295.11 711.457 284.877 703.912 277.331C696.367 269.786 686.133 265.547 675.462 265.547C664.791 265.547 654.557 269.786 647.012 277.331C639.467 284.877 635.228 295.11 635.228 305.781V370.156Z" fill="#F5F5F5"/>
<path d="M675.462 168.984C667.504 168.984 659.725 166.625 653.109 162.204C646.492 157.783 641.335 151.499 638.29 144.147C635.245 136.795 634.448 128.705 636.001 120.901C637.553 113.096 641.385 105.927 647.012 100.3C652.639 94.6731 659.808 90.8412 667.613 89.2887C675.417 87.7363 683.507 88.5331 690.859 91.5783C698.211 94.6235 704.495 99.7805 708.916 106.397C713.337 113.014 715.696 120.792 715.696 128.75C715.696 139.421 711.457 149.655 703.912 157.2C696.367 164.745 686.133 168.984 675.462 168.984ZM675.462 104.609C670.687 104.609 666.02 106.025 662.05 108.678C658.08 111.33 654.986 115.101 653.159 119.512C651.332 123.923 650.854 128.777 651.785 133.46C652.717 138.142 655.016 142.444 658.392 145.82C661.768 149.196 666.07 151.495 670.752 152.427C675.435 153.358 680.289 152.88 684.7 151.053C689.111 149.226 692.882 146.132 695.534 142.162C698.187 138.192 699.603 133.525 699.603 128.75C699.603 122.348 697.059 116.207 692.532 111.68C688.005 107.153 681.864 104.609 675.462 104.609Z" fill="white"/>
</svg>
