<svg width="515" height="515" viewBox="0 0 515 515" fill="none" xmlns="http://www.w3.org/2000/svg">
<path d="M451.587 193.125H65.337C63.2028 193.125 61.156 192.278 59.647 190.769C58.1379 189.259 57.2901 187.213 57.2901 185.079V136.797C57.2847 135.153 57.7832 133.547 58.7183 132.194C59.6534 130.842 60.9804 129.809 62.5206 129.233L255.646 56.8113C257.468 56.1671 259.456 56.1671 261.278 56.8113L454.403 129.233C455.944 129.809 457.27 130.842 458.206 132.194C459.141 133.547 459.639 135.153 459.634 136.797V185.079C459.634 187.213 458.786 189.259 457.277 190.769C455.768 192.278 453.721 193.125 451.587 193.125Z" fill="#F5F5F5"/>
<path d="M435.493 225.312H81.4307C79.2965 225.312 77.2497 224.465 75.7407 222.956C74.2316 221.447 73.3838 219.4 73.3838 217.266V185.078C73.3838 182.944 74.2316 180.897 75.7407 179.388C77.2497 177.879 79.2965 177.031 81.4307 177.031H435.493C437.627 177.031 439.674 177.879 441.183 179.388C442.692 180.897 443.54 182.944 443.54 185.078V217.266C443.54 219.4 442.692 221.447 441.183 222.956C439.674 224.465 437.627 225.312 435.493 225.312ZM89.4775 209.219H427.446V193.125H89.4775V209.219Z" fill="#F5F5F5"/>
<path d="M451.587 458.672H65.3369C63.2028 458.672 61.156 457.824 59.6469 456.315C58.1378 454.806 57.29 452.759 57.29 450.625V410.391C57.29 408.256 58.1378 406.21 59.6469 404.701C61.156 403.192 63.2028 402.344 65.3369 402.344H451.587C453.721 402.344 455.768 403.192 457.277 404.701C458.786 406.21 459.634 408.256 459.634 410.391V450.625C459.634 452.759 458.786 454.806 457.277 456.315C455.768 457.824 453.721 458.672 451.587 458.672ZM73.3838 442.578H443.54V418.438H73.3838V442.578Z" fill="#F5F5F5"/>
<path d="M435.493 418.438H81.4307C79.2965 418.438 77.2497 417.59 75.7407 416.081C74.2316 414.572 73.3838 412.525 73.3838 410.391V378.203C73.3838 376.069 74.2316 374.022 75.7407 372.513C77.2497 371.004 79.2965 370.156 81.4307 370.156H435.493C437.627 370.156 439.674 371.004 441.183 372.513C442.692 374.022 443.54 376.069 443.54 378.203V410.391C443.54 412.525 442.692 414.572 441.183 416.081C439.674 417.59 437.627 418.438 435.493 418.438ZM89.4775 402.344H427.446V386.25H89.4775V402.344Z" fill="#F5F5F5"/>
<path d="M161.899 257.5H113.618C107.216 257.5 101.075 254.957 96.5482 250.429C92.0209 245.902 89.4775 239.762 89.4775 233.359V217.266C89.4775 215.131 90.3253 213.085 91.8344 211.576C93.3435 210.067 95.3903 209.219 97.5244 209.219H177.993C180.127 209.219 182.174 210.067 183.683 211.576C185.192 213.085 186.04 215.131 186.04 217.266V233.359C186.04 239.762 183.497 245.902 178.969 250.429C174.442 254.957 168.302 257.5 161.899 257.5ZM105.571 225.312V233.359C105.571 235.494 106.419 237.54 107.928 239.049C109.437 240.558 111.484 241.406 113.618 241.406H161.899C164.034 241.406 166.08 240.558 167.589 239.049C169.099 237.54 169.946 235.494 169.946 233.359V225.312H105.571Z" fill="#F5F5F5"/>
<path d="M177.993 386.25H97.5244C95.3903 386.25 93.3435 385.402 91.8344 383.893C90.3253 382.384 89.4775 380.337 89.4775 378.203V362.109C89.4775 355.707 92.0209 349.567 96.5482 345.039C101.075 340.512 107.216 337.969 113.618 337.969H161.899C168.302 337.969 174.442 340.512 178.969 345.039C183.497 349.567 186.04 355.707 186.04 362.109V378.203C186.04 380.337 185.192 382.384 183.683 383.893C182.174 385.402 180.127 386.25 177.993 386.25ZM105.571 370.156H169.946V362.109C169.946 359.975 169.099 357.928 167.589 356.419C166.08 354.91 164.034 354.062 161.899 354.062H113.618C111.484 354.062 109.437 354.91 107.928 356.419C106.419 357.928 105.571 359.975 105.571 362.109V370.156Z" fill="#F5F5F5"/>
<path d="M161.899 354.062H113.618C111.484 354.062 109.437 353.215 107.928 351.706C106.419 350.197 105.571 348.15 105.571 346.016V249.453C105.571 247.319 106.419 245.272 107.928 243.763C109.437 242.254 111.484 241.406 113.618 241.406H161.899C164.034 241.406 166.08 242.254 167.589 243.763C169.099 245.272 169.946 247.319 169.946 249.453V346.016C169.946 348.15 169.099 350.197 167.589 351.706C166.08 353.215 164.034 354.062 161.899 354.062ZM121.665 337.969H153.853V257.5H121.665V337.969Z" fill="#F5F5F5"/>
<path d="M403.306 257.5H355.024C348.622 257.5 342.482 254.957 337.954 250.429C333.427 245.902 330.884 239.762 330.884 233.359V217.266C330.884 215.131 331.732 213.085 333.241 211.576C334.75 210.067 336.797 209.219 338.931 209.219H419.399C421.534 209.219 423.58 210.067 425.089 211.576C426.599 213.085 427.446 215.131 427.446 217.266V233.359C427.446 239.762 424.903 245.902 420.376 250.429C415.848 254.957 409.708 257.5 403.306 257.5ZM346.978 225.312V233.359C346.978 235.494 347.825 237.54 349.334 239.049C350.843 240.558 352.89 241.406 355.024 241.406H403.306C405.44 241.406 407.487 240.558 408.996 239.049C410.505 237.54 411.353 235.494 411.353 233.359V225.312H346.978Z" fill="#F5F5F5"/>
<path d="M419.399 386.25H338.931C336.797 386.25 334.75 385.402 333.241 383.893C331.732 382.384 330.884 380.337 330.884 378.203V362.109C330.884 355.707 333.427 349.567 337.954 345.039C342.482 340.512 348.622 337.969 355.024 337.969H403.306C409.708 337.969 415.848 340.512 420.376 345.039C424.903 349.567 427.446 355.707 427.446 362.109V378.203C427.446 380.337 426.599 382.384 425.089 383.893C423.58 385.402 421.534 386.25 419.399 386.25ZM346.978 370.156H411.353V362.109C411.353 359.975 410.505 357.928 408.996 356.419C407.487 354.91 405.44 354.062 403.306 354.062H355.024C352.89 354.062 350.843 354.91 349.334 356.419C347.825 357.928 346.978 359.975 346.978 362.109V370.156Z" fill="#F5F5F5"/>
<path d="M403.306 354.062H355.024C352.89 354.062 350.843 353.215 349.334 351.706C347.825 350.197 346.978 348.15 346.978 346.016V249.453C346.978 247.319 347.825 245.272 349.334 243.763C350.843 242.254 352.89 241.406 355.024 241.406H403.306C405.44 241.406 407.487 242.254 408.996 243.763C410.505 245.272 411.353 247.319 411.353 249.453V346.016C411.353 348.15 410.505 350.197 408.996 351.706C407.487 353.215 405.44 354.062 403.306 354.062ZM363.071 337.969H395.259V257.5H363.071V337.969Z" fill="#F5F5F5"/>
<path d="M306.743 386.25H210.181C208.047 386.25 206 385.402 204.491 383.893C202.982 382.384 202.134 380.337 202.134 378.203V305.781C202.134 290.842 208.068 276.515 218.632 265.951C229.195 255.388 243.523 249.453 258.462 249.453C273.401 249.453 287.728 255.388 298.292 265.951C308.855 276.515 314.79 290.842 314.79 305.781V378.203C314.79 380.337 313.942 382.384 312.433 383.893C310.924 385.402 308.877 386.25 306.743 386.25ZM218.228 370.156H298.696V305.781C298.696 295.11 294.457 284.877 286.912 277.331C279.367 269.786 269.133 265.547 258.462 265.547C247.791 265.547 237.557 269.786 230.012 277.331C222.467 284.877 218.228 295.11 218.228 305.781V370.156Z" fill="#F5F5F5"/>
<path d="M258.462 168.984C250.504 168.984 242.725 166.625 236.109 162.204C229.492 157.783 224.335 151.499 221.29 144.147C218.245 136.795 217.448 128.705 219.001 120.901C220.553 113.096 224.385 105.927 230.012 100.3C235.639 94.6731 242.808 90.8412 250.613 89.2887C258.417 87.7363 266.507 88.5331 273.859 91.5783C281.211 94.6235 287.495 99.7805 291.916 106.397C296.337 113.014 298.696 120.792 298.696 128.75C298.696 139.421 294.457 149.655 286.912 157.2C279.367 164.745 269.133 168.984 258.462 168.984ZM258.462 104.609C253.687 104.609 249.02 106.025 245.05 108.678C241.08 111.33 237.986 115.101 236.159 119.512C234.332 123.923 233.854 128.777 234.785 133.46C235.717 138.142 238.016 142.444 241.392 145.82C244.768 149.196 249.07 151.495 253.752 152.427C258.435 153.358 263.289 152.88 267.7 151.053C272.111 149.226 275.882 146.132 278.534 142.162C281.187 138.192 282.603 133.525 282.603 128.75C282.603 122.348 280.059 116.207 275.532 111.68C271.005 107.153 264.864 104.609 258.462 104.609Z" fill="white"/>
</svg>
