<svg width="151" height="218" viewBox="0 0 151 218" fill="none" xmlns="http://www.w3.org/2000/svg">
<path d="M190.75 81.7502H27.25C26.3466 81.7502 25.4802 81.3913 24.8414 80.7525C24.2026 80.1137 23.8438 79.2473 23.8438 78.3439V57.9064C23.8415 57.2104 24.0525 56.5305 24.4483 55.958C24.8442 55.3856 25.4059 54.9481 26.0578 54.7045L107.808 24.0483C108.579 23.7756 109.421 23.7756 110.192 24.0483L191.942 54.7045C192.594 54.9481 193.156 55.3856 193.552 55.958C193.948 56.5305 194.158 57.2104 194.156 57.9064V78.3439C194.156 79.2473 193.797 80.1137 193.159 80.7525C192.52 81.3913 191.653 81.7502 190.75 81.7502Z" fill="#F5F5F5"/>
<path d="M183.937 95.375H34.0625C33.1591 95.375 32.2927 95.0161 31.6539 94.3773C31.0151 93.7385 30.6562 92.8722 30.6562 91.9688V78.3438C30.6562 77.4404 31.0151 76.574 31.6539 75.9352C32.2927 75.2964 33.1591 74.9375 34.0625 74.9375H183.937C184.841 74.9375 185.707 75.2964 186.346 75.9352C186.985 76.574 187.344 77.4404 187.344 78.3438V91.9688C187.344 92.8722 186.985 93.7385 186.346 94.3773C185.707 95.0161 184.841 95.375 183.937 95.375ZM37.4687 88.5625H180.531V81.75H37.4687V88.5625Z" fill="#F5F5F5"/>
<path d="M190.75 194.156H27.25C26.3466 194.156 25.4802 193.797 24.8414 193.159C24.2026 192.52 23.8438 191.653 23.8438 190.75V173.719C23.8438 172.815 24.2026 171.949 24.8414 171.31C25.4802 170.671 26.3466 170.312 27.25 170.312H190.75C191.653 170.312 192.52 170.671 193.159 171.31C193.797 171.949 194.156 172.815 194.156 173.719V190.75C194.156 191.653 193.797 192.52 193.159 193.159C192.52 193.797 191.653 194.156 190.75 194.156ZM30.6562 187.344H187.344V177.125H30.6562V187.344Z" fill="#F5F5F5"/>
<path d="M183.937 177.125H34.0625C33.1591 177.125 32.2927 176.766 31.6539 176.127C31.0151 175.489 30.6562 174.622 30.6562 173.719V160.094C30.6562 159.19 31.0151 158.324 31.6539 157.685C32.2927 157.046 33.1591 156.688 34.0625 156.688H183.937C184.841 156.688 185.707 157.046 186.346 157.685C186.985 158.324 187.344 159.19 187.344 160.094V173.719C187.344 174.622 186.985 175.489 186.346 176.127C185.707 176.766 184.841 177.125 183.937 177.125ZM37.4687 170.312H180.531V163.5H37.4687V170.312Z" fill="#F5F5F5"/>
<path d="M68.125 109H47.6875C44.9773 109 42.3781 107.923 40.4618 106.007C38.5454 104.091 37.4688 101.491 37.4688 98.7812V91.9687C37.4688 91.0654 37.8276 90.199 38.4664 89.5602C39.1052 88.9214 39.9716 88.5625 40.875 88.5625H74.9375C75.8409 88.5625 76.7073 88.9214 77.3461 89.5602C77.9849 90.199 78.3438 91.0654 78.3438 91.9687V98.7812C78.3438 101.491 77.2671 104.091 75.3507 106.007C73.4344 107.923 70.8352 109 68.125 109ZM44.2812 95.375V98.7812C44.2812 99.6846 44.6401 100.551 45.2789 101.19C45.9177 101.829 46.7841 102.187 47.6875 102.187H68.125C69.0284 102.187 69.8948 101.829 70.5336 101.19C71.1724 100.551 71.5312 99.6846 71.5312 98.7812V95.375H44.2812Z" fill="#F5F5F5"/>
<path d="M74.9375 163.5H40.875C39.9716 163.5 39.1052 163.141 38.4664 162.502C37.8276 161.864 37.4688 160.997 37.4688 160.094V153.281C37.4688 150.571 38.5454 147.972 40.4618 146.056C42.3781 144.139 44.9773 143.062 47.6875 143.062H68.125C70.8352 143.062 73.4344 144.139 75.3507 146.056C77.2671 147.972 78.3438 150.571 78.3438 153.281V160.094C78.3438 160.997 77.9849 161.864 77.3461 162.502C76.7073 163.141 75.8409 163.5 74.9375 163.5ZM44.2812 156.687H71.5312V153.281C71.5312 152.378 71.1724 151.511 70.5336 150.873C69.8948 150.234 69.0284 149.875 68.125 149.875H47.6875C46.7841 149.875 45.9177 150.234 45.2789 150.873C44.6401 151.511 44.2812 152.378 44.2812 153.281V156.687Z" fill="#F5F5F5"/>
<path d="M68.125 149.875H47.6875C46.7841 149.875 45.9177 149.516 45.2789 148.877C44.6401 148.239 44.2812 147.372 44.2812 146.469V105.594C44.2812 104.69 44.6401 103.824 45.2789 103.185C45.9177 102.546 46.7841 102.188 47.6875 102.188H68.125C69.0284 102.188 69.8948 102.546 70.5336 103.185C71.1724 103.824 71.5313 104.69 71.5313 105.594V146.469C71.5313 147.372 71.1724 148.239 70.5336 148.877C69.8948 149.516 69.0284 149.875 68.125 149.875ZM51.0938 143.062H64.7188V109H51.0938V143.062Z" fill="#F5F5F5"/>
<path d="M170.312 109H149.875C147.165 109 144.566 107.923 142.649 106.007C140.733 104.091 139.656 101.491 139.656 98.7812V91.9687C139.656 91.0654 140.015 90.199 140.654 89.5602C141.293 88.9214 142.159 88.5625 143.062 88.5625H177.125C178.028 88.5625 178.895 88.9214 179.534 89.5602C180.172 90.199 180.531 91.0654 180.531 91.9687V98.7812C180.531 101.491 179.455 104.091 177.538 106.007C175.622 107.923 173.023 109 170.312 109ZM146.469 95.375V98.7812C146.469 99.6846 146.828 100.551 147.466 101.19C148.105 101.829 148.972 102.187 149.875 102.187H170.312C171.216 102.187 172.082 101.829 172.721 101.19C173.36 100.551 173.719 99.6846 173.719 98.7812V95.375H146.469Z" fill="#F5F5F5"/>
<path d="M177.125 163.5H143.062C142.159 163.5 141.293 163.141 140.654 162.502C140.015 161.864 139.656 160.997 139.656 160.094V153.281C139.656 150.571 140.733 147.972 142.649 146.056C144.566 144.139 147.165 143.062 149.875 143.062H170.312C173.023 143.062 175.622 144.139 177.538 146.056C179.455 147.972 180.531 150.571 180.531 153.281V160.094C180.531 160.997 180.172 161.864 179.534 162.502C178.895 163.141 178.028 163.5 177.125 163.5ZM146.469 156.687H173.719V153.281C173.719 152.378 173.36 151.511 172.721 150.873C172.082 150.234 171.216 149.875 170.312 149.875H149.875C148.972 149.875 148.105 150.234 147.466 150.873C146.828 151.511 146.469 152.378 146.469 153.281V156.687Z" fill="#F5F5F5"/>
<path d="M170.312 149.875H149.875C148.972 149.875 148.105 149.516 147.466 148.877C146.828 148.239 146.469 147.372 146.469 146.469V105.594C146.469 104.69 146.828 103.824 147.466 103.185C148.105 102.546 148.972 102.188 149.875 102.188H170.312C171.216 102.188 172.082 102.546 172.721 103.185C173.36 103.824 173.719 104.69 173.719 105.594V146.469C173.719 147.372 173.36 148.239 172.721 148.877C172.082 149.516 171.216 149.875 170.312 149.875ZM153.281 143.062H166.906V109H153.281V143.062Z" fill="#F5F5F5"/>
<path d="M129.437 163.5H88.5625C87.6591 163.5 86.7927 163.141 86.1539 162.502C85.5151 161.864 85.1562 160.997 85.1562 160.094V129.438C85.1562 123.114 87.6684 117.049 92.1399 112.577C96.6115 108.106 102.676 105.594 109 105.594C115.324 105.594 121.389 108.106 125.86 112.577C130.332 117.049 132.844 123.114 132.844 129.438V160.094C132.844 160.997 132.485 161.864 131.846 162.502C131.207 163.141 130.341 163.5 129.437 163.5ZM91.9687 156.688H126.031V129.438C126.031 124.921 124.237 120.589 121.043 117.395C117.849 114.201 113.517 112.406 109 112.406C104.483 112.406 100.151 114.201 96.9571 117.395C93.7631 120.589 91.9687 124.921 91.9687 129.438V156.688Z" fill="#F5F5F5"/>
<path d="M109 71.5313C105.632 71.5313 102.339 70.5324 99.538 68.661C96.7372 66.7896 94.5542 64.1297 93.2652 61.0176C91.9761 57.9055 91.6389 54.4811 92.296 51.1774C92.9532 47.8736 94.5752 44.839 96.9571 42.4571C99.339 40.0752 102.374 38.4532 105.677 37.796C108.981 37.1389 112.406 37.4761 115.518 38.7652C118.63 40.0542 121.29 42.2372 123.161 45.038C125.032 47.8387 126.031 51.1316 126.031 54.5C126.031 59.017 124.237 63.3489 121.043 66.5429C117.849 69.7369 113.517 71.5313 109 71.5313ZM109 44.2813C106.979 44.2813 105.003 44.8806 103.323 46.0034C101.642 47.1263 100.333 48.7222 99.5591 50.5895C98.7857 52.4567 98.5833 54.5114 98.9776 56.4936C99.3719 58.4758 100.345 60.2966 101.774 61.7258C103.203 63.1549 105.024 64.1281 107.006 64.5224C108.989 64.9167 111.043 64.7143 112.911 63.9409C114.778 63.1675 116.374 61.8577 117.497 60.1772C118.619 58.4968 119.219 56.5211 119.219 54.5C119.219 51.7898 118.142 49.1907 116.226 47.2743C114.309 45.3579 111.71 44.2813 109 44.2813Z" fill="white"/>
</svg>
