<svg width="403" height="403" viewBox="0 0 403 403" fill="none" xmlns="http://www.w3.org/2000/svg">
<path d="M394.587 137.125H8.33696C6.20279 137.125 4.15604 136.278 2.64696 134.769C1.13788 133.259 0.290082 131.213 0.290082 129.079V80.7973C0.284741 79.1531 0.783176 77.5468 1.7183 76.1945C2.65343 74.8421 3.98037 73.8087 5.52055 73.2332L198.646 0.811344C200.468 0.167052 202.456 0.167052 204.278 0.811344L397.403 73.2332C398.944 73.8087 400.27 74.8421 401.206 76.1945C402.141 77.5468 402.639 79.1531 402.634 80.7973V129.079C402.634 131.213 401.786 133.259 400.277 134.769C398.768 136.278 396.721 137.125 394.587 137.125Z" fill="#F5F5F5"/>
<path d="M378.493 169.312H24.4307C22.2965 169.312 20.2497 168.465 18.7407 166.956C17.2316 165.447 16.3838 163.4 16.3838 161.266V129.078C16.3838 126.944 17.2316 124.897 18.7407 123.388C20.2497 121.879 22.2965 121.031 24.4307 121.031H378.493C380.627 121.031 382.674 121.879 384.183 123.388C385.692 124.897 386.54 126.944 386.54 129.078V161.266C386.54 163.4 385.692 165.447 384.183 166.956C382.674 168.465 380.627 169.312 378.493 169.312ZM32.4775 153.219H370.446V137.125H32.4775V153.219Z" fill="#F5F5F5"/>
<path d="M394.587 402.672H8.33691C6.20275 402.672 4.156 401.824 2.64692 400.315C1.13783 398.806 0.290039 396.759 0.290039 394.625V354.391C0.290039 352.256 1.13783 350.21 2.64692 348.701C4.156 347.192 6.20275 346.344 8.33691 346.344H394.587C396.721 346.344 398.768 347.192 400.277 348.701C401.786 350.21 402.634 352.256 402.634 354.391V394.625C402.634 396.759 401.786 398.806 400.277 400.315C398.768 401.824 396.721 402.672 394.587 402.672ZM16.3838 386.578H386.54V362.438H16.3838V386.578Z" fill="#F5F5F5"/>
<path d="M378.493 362.438H24.4307C22.2965 362.438 20.2497 361.59 18.7407 360.081C17.2316 358.572 16.3838 356.525 16.3838 354.391V322.203C16.3838 320.069 17.2316 318.022 18.7407 316.513C20.2497 315.004 22.2965 314.156 24.4307 314.156H378.493C380.627 314.156 382.674 315.004 384.183 316.513C385.692 318.022 386.54 320.069 386.54 322.203V354.391C386.54 356.525 385.692 358.572 384.183 360.081C382.674 361.59 380.627 362.438 378.493 362.438ZM32.4775 346.344H370.446V330.25H32.4775V346.344Z" fill="#F5F5F5"/>
<path d="M104.899 201.5H56.6182C50.2157 201.5 44.0754 198.957 39.5482 194.429C35.0209 189.902 32.4775 183.762 32.4775 177.359V161.266C32.4775 159.131 33.3253 157.085 34.8344 155.576C36.3435 154.067 38.3903 153.219 40.5244 153.219H120.993C123.127 153.219 125.174 154.067 126.683 155.576C128.192 157.085 129.04 159.131 129.04 161.266V177.359C129.04 183.762 126.497 189.902 121.969 194.429C117.442 198.957 111.302 201.5 104.899 201.5ZM48.5713 169.312V177.359C48.5713 179.494 49.4191 181.54 50.9282 183.049C52.4372 184.558 54.484 185.406 56.6182 185.406H104.899C107.034 185.406 109.08 184.558 110.589 183.049C112.099 181.54 112.946 179.494 112.946 177.359V169.312H48.5713Z" fill="#F5F5F5"/>
<path d="M120.993 330.25H40.5244C38.3903 330.25 36.3435 329.402 34.8344 327.893C33.3253 326.384 32.4775 324.337 32.4775 322.203V306.109C32.4775 299.707 35.0209 293.567 39.5482 289.039C44.0754 284.512 50.2157 281.969 56.6182 281.969H104.899C111.302 281.969 117.442 284.512 121.969 289.039C126.497 293.567 129.04 299.707 129.04 306.109V322.203C129.04 324.337 128.192 326.384 126.683 327.893C125.174 329.402 123.127 330.25 120.993 330.25ZM48.5713 314.156H112.946V306.109C112.946 303.975 112.099 301.928 110.589 300.419C109.08 298.91 107.034 298.062 104.899 298.062H56.6182C54.484 298.062 52.4372 298.91 50.9282 300.419C49.4191 301.928 48.5713 303.975 48.5713 306.109V314.156Z" fill="#F5F5F5"/>
<path d="M104.899 298.062H56.6182C54.484 298.062 52.4372 297.215 50.9282 295.706C49.4191 294.197 48.5713 292.15 48.5713 290.016V193.453C48.5713 191.319 49.4191 189.272 50.9282 187.763C52.4372 186.254 54.484 185.406 56.6182 185.406H104.899C107.034 185.406 109.08 186.254 110.589 187.763C112.099 189.272 112.946 191.319 112.946 193.453V290.016C112.946 292.15 112.099 294.197 110.589 295.706C109.08 297.215 107.034 298.062 104.899 298.062ZM64.665 281.969H96.8525V201.5H64.665V281.969Z" fill="#F5F5F5"/>
<path d="M346.306 201.5H298.024C291.622 201.5 285.482 198.957 280.954 194.429C276.427 189.902 273.884 183.762 273.884 177.359V161.266C273.884 159.131 274.732 157.085 276.241 155.576C277.75 154.067 279.797 153.219 281.931 153.219H362.399C364.534 153.219 366.58 154.067 368.089 155.576C369.599 157.085 370.446 159.131 370.446 161.266V177.359C370.446 183.762 367.903 189.902 363.376 194.429C358.848 198.957 352.708 201.5 346.306 201.5ZM289.978 169.312V177.359C289.978 179.494 290.825 181.54 292.334 183.049C293.843 184.558 295.89 185.406 298.024 185.406H346.306C348.44 185.406 350.487 184.558 351.996 183.049C353.505 181.54 354.353 179.494 354.353 177.359V169.312H289.978Z" fill="#F5F5F5"/>
<path d="M362.399 330.25H281.931C279.797 330.25 277.75 329.402 276.241 327.893C274.732 326.384 273.884 324.337 273.884 322.203V306.109C273.884 299.707 276.427 293.567 280.954 289.039C285.482 284.512 291.622 281.969 298.024 281.969H346.306C352.708 281.969 358.848 284.512 363.376 289.039C367.903 293.567 370.446 299.707 370.446 306.109V322.203C370.446 324.337 369.599 326.384 368.089 327.893C366.58 329.402 364.534 330.25 362.399 330.25ZM289.978 314.156H354.353V306.109C354.353 303.975 353.505 301.928 351.996 300.419C350.487 298.91 348.44 298.062 346.306 298.062H298.024C295.89 298.062 293.843 298.91 292.334 300.419C290.825 301.928 289.978 303.975 289.978 306.109V314.156Z" fill="#F5F5F5"/>
<path d="M346.306 298.062H298.024C295.89 298.062 293.843 297.215 292.334 295.706C290.825 294.197 289.978 292.15 289.978 290.016V193.453C289.978 191.319 290.825 189.272 292.334 187.763C293.843 186.254 295.89 185.406 298.024 185.406H346.306C348.44 185.406 350.487 186.254 351.996 187.763C353.505 189.272 354.353 191.319 354.353 193.453V290.016C354.353 292.15 353.505 294.197 351.996 295.706C350.487 297.215 348.44 298.062 346.306 298.062ZM306.071 281.969H338.259V201.5H306.071V281.969Z" fill="#F5F5F5"/>
<path d="M249.743 330.25H153.181C151.047 330.25 149 329.402 147.491 327.893C145.982 326.384 145.134 324.337 145.134 322.203V249.781C145.134 234.842 151.068 220.515 161.632 209.951C172.195 199.388 186.523 193.453 201.462 193.453C216.401 193.453 230.728 199.388 241.292 209.951C251.855 220.515 257.79 234.842 257.79 249.781V322.203C257.79 324.337 256.942 326.384 255.433 327.893C253.924 329.402 251.877 330.25 249.743 330.25ZM161.228 314.156H241.696V249.781C241.696 239.11 237.457 228.877 229.912 221.331C222.367 213.786 212.133 209.547 201.462 209.547C190.791 209.547 180.557 213.786 173.012 221.331C165.467 228.877 161.228 239.11 161.228 249.781V314.156Z" fill="#F5F5F5"/>
<path d="M201.462 112.984C193.504 112.984 185.725 110.625 179.109 106.204C172.492 101.783 167.335 95.4989 164.29 88.1471C161.245 80.7952 160.448 72.7054 162.001 64.9007C163.553 57.096 167.385 49.9269 173.012 44.3C178.639 38.6731 185.808 34.8412 193.613 33.2887C201.417 31.7363 209.507 32.5331 216.859 35.5783C224.211 38.6235 230.495 43.7805 234.916 50.397C239.337 57.0135 241.696 64.7924 241.696 72.75C241.696 83.4208 237.457 93.6546 229.912 101.2C222.367 108.745 212.133 112.984 201.462 112.984ZM201.462 48.6094C196.687 48.6094 192.02 50.0252 188.05 52.6778C184.08 55.3304 180.986 59.1007 179.159 63.5118C177.332 67.9229 176.854 72.7768 177.785 77.4596C178.717 82.1425 181.016 86.4439 184.392 89.82C187.768 93.1962 192.07 95.4953 196.752 96.4268C201.435 97.3583 206.289 96.8802 210.7 95.0531C215.111 93.2259 218.882 90.1317 221.534 86.1618C224.187 82.1919 225.603 77.5246 225.603 72.75C225.603 66.3475 223.059 60.2073 218.532 55.68C214.005 51.1528 207.864 48.6094 201.462 48.6094Z" fill="white"/>
</svg>
