<svg width="230" height="383" viewBox="0 0 230 383" fill="none" xmlns="http://www.w3.org/2000/svg">
<path d="M9.55371 216.203H11.2412V229H9.55371V219.139L3.25195 229H1.55566V216.203H3.25195V226.064L9.55371 216.203ZM19.292 222.092C19.292 221.646 19.1221 221.295 18.7822 221.037C18.4424 220.773 17.9766 220.642 17.3848 220.642C16.8105 220.642 16.3301 220.791 15.9434 221.09C15.5625 221.389 15.3721 221.74 15.3721 222.145H13.7549C13.7549 221.318 14.1006 220.642 14.792 220.114C15.4834 219.587 16.3477 219.323 17.3848 219.323C18.498 219.323 19.3652 219.563 19.9863 220.044C20.6074 220.519 20.918 221.198 20.918 222.083C20.918 222.511 20.7891 222.903 20.5312 223.261C20.2734 223.618 19.9072 223.902 19.4326 224.113C20.54 224.488 21.0938 225.227 21.0938 226.328C21.0938 227.201 20.7568 227.893 20.083 228.402C19.4092 228.912 18.5098 229.167 17.3848 229.167C16.2891 229.167 15.3838 228.9 14.6689 228.367C13.96 227.828 13.6055 227.102 13.6055 226.188H15.2227C15.2227 226.65 15.4277 227.049 15.8379 227.383C16.2539 227.711 16.7695 227.875 17.3848 227.875C18.0059 227.875 18.5068 227.731 18.8877 227.444C19.2686 227.157 19.459 226.785 19.459 226.328C19.459 225.795 19.2979 225.414 18.9756 225.186C18.6592 224.951 18.1641 224.834 17.4902 224.834H15.8643V223.463H17.6309C18.7383 223.434 19.292 222.977 19.292 222.092ZM26.3145 226.618L28.5293 219.49H30.2695L26.4463 230.468C25.8545 232.05 24.9141 232.841 23.625 232.841L23.3174 232.814L22.7109 232.7V231.382L23.1504 231.417C23.7012 231.417 24.1289 231.306 24.4336 231.083C24.7441 230.86 24.999 230.453 25.1982 229.861L25.5586 228.895L22.166 219.49H23.9414L26.3145 226.618ZM38.9092 229H37.2744V225.555C36.5596 225.742 35.8271 225.836 35.0771 225.836C33.8877 225.836 32.9795 225.531 32.3525 224.922C31.7314 224.312 31.415 223.445 31.4033 222.32V219.481H33.0293V222.373C33.0586 223.791 33.7412 224.5 35.0771 224.5C35.8271 224.5 36.5596 224.406 37.2744 224.219V219.49H38.9092V229ZM47.3906 229C47.2969 228.812 47.2207 228.479 47.1621 227.998C46.4062 228.783 45.5039 229.176 44.4551 229.176C43.5176 229.176 42.7471 228.912 42.1436 228.385C41.5459 227.852 41.2471 227.178 41.2471 226.363C41.2471 225.373 41.6221 224.605 42.3721 224.061C43.1279 223.51 44.1885 223.234 45.5537 223.234H47.1357V222.487C47.1357 221.919 46.9658 221.468 46.626 221.134C46.2861 220.794 45.7852 220.624 45.123 220.624C44.543 220.624 44.0566 220.771 43.6641 221.063C43.2715 221.356 43.0752 221.711 43.0752 222.127H41.4404C41.4404 221.652 41.6074 221.195 41.9414 220.756C42.2812 220.311 42.7383 219.959 43.3125 219.701C43.8926 219.443 44.5283 219.314 45.2197 219.314C46.3154 219.314 47.1738 219.59 47.7949 220.141C48.416 220.686 48.7383 221.438 48.7617 222.399V226.776C48.7617 227.649 48.873 228.344 49.0957 228.859V229H47.3906ZM44.6924 227.761C45.2021 227.761 45.6855 227.629 46.1426 227.365C46.5996 227.102 46.9307 226.759 47.1357 226.337V224.386H45.8613C43.8691 224.386 42.873 224.969 42.873 226.135C42.873 226.645 43.043 227.043 43.3828 227.33C43.7227 227.617 44.1592 227.761 44.6924 227.761ZM57.4629 219.49H59.0889V229H57.4629V222.065L53.0771 229H51.4512V219.49H53.0771V226.434L57.4629 219.49ZM57.9023 216.027C57.9023 216.736 57.6592 217.308 57.1729 217.741C56.6924 218.169 56.0596 218.383 55.2744 218.383C54.4893 218.383 53.8535 218.166 53.3672 217.732C52.8809 217.299 52.6377 216.73 52.6377 216.027H53.9648C53.9648 216.438 54.0762 216.76 54.2988 216.994C54.5215 217.223 54.8467 217.337 55.2744 217.337C55.6846 217.337 56.0039 217.223 56.2324 216.994C56.4668 216.766 56.584 216.443 56.584 216.027H57.9023ZM71.6396 226.847L74.874 219.49H76.9043V229H75.2783V222.083L72.2021 229H71.0771L67.9395 221.934V229H66.3135V219.49H68.4229L71.6396 226.847ZM85.3945 229C85.3008 228.812 85.2246 228.479 85.166 227.998C84.4102 228.783 83.5078 229.176 82.459 229.176C81.5215 229.176 80.751 228.912 80.1475 228.385C79.5498 227.852 79.251 227.178 79.251 226.363C79.251 225.373 79.626 224.605 80.376 224.061C81.1318 223.51 82.1924 223.234 83.5576 223.234H85.1396V222.487C85.1396 221.919 84.9697 221.468 84.6299 221.134C84.29 220.794 83.7891 220.624 83.127 220.624C82.5469 220.624 82.0605 220.771 81.668 221.063C81.2754 221.356 81.0791 221.711 81.0791 222.127H79.4443C79.4443 221.652 79.6113 221.195 79.9453 220.756C80.2852 220.311 80.7422 219.959 81.3164 219.701C81.8965 219.443 82.5322 219.314 83.2236 219.314C84.3193 219.314 85.1777 219.59 85.7988 220.141C86.4199 220.686 86.7422 221.438 86.7656 222.399V226.776C86.7656 227.649 86.877 228.344 87.0996 228.859V229H85.3945ZM82.6963 227.761C83.2061 227.761 83.6895 227.629 84.1465 227.365C84.6035 227.102 84.9346 226.759 85.1396 226.337V224.386H83.8652C81.873 224.386 80.877 224.969 80.877 226.135C80.877 226.645 81.0469 227.043 81.3867 227.33C81.7266 227.617 82.1631 227.761 82.6963 227.761ZM96.2402 220.809H93.0498V229H91.4238V220.809H88.2949V219.49H96.2402V220.809ZM101.065 229.176C99.7764 229.176 98.7275 228.754 97.9189 227.91C97.1104 227.061 96.7061 225.927 96.7061 224.509V224.21C96.7061 223.267 96.8848 222.426 97.2422 221.688C97.6055 220.943 98.1094 220.363 98.7539 219.947C99.4043 219.525 100.107 219.314 100.863 219.314C102.1 219.314 103.061 219.722 103.746 220.536C104.432 221.351 104.774 222.517 104.774 224.034V224.711H98.332C98.3555 225.648 98.6279 226.407 99.1494 226.987C99.6768 227.562 100.345 227.849 101.153 227.849C101.728 227.849 102.214 227.731 102.612 227.497C103.011 227.263 103.359 226.952 103.658 226.565L104.651 227.339C103.854 228.563 102.659 229.176 101.065 229.176ZM100.863 220.65C100.207 220.65 99.6562 220.891 99.2109 221.371C98.7656 221.846 98.4902 222.514 98.3848 223.375H103.148V223.252C103.102 222.426 102.879 221.787 102.48 221.336C102.082 220.879 101.543 220.65 100.863 220.65ZM114.697 224.351C114.697 225.798 114.366 226.964 113.704 227.849C113.042 228.733 112.146 229.176 111.015 229.176C109.86 229.176 108.952 228.81 108.29 228.077V232.656H106.664V219.49H108.149L108.229 220.545C108.891 219.725 109.811 219.314 110.988 219.314C112.131 219.314 113.033 219.745 113.695 220.606C114.363 221.468 114.697 222.666 114.697 224.201V224.351ZM113.071 224.166C113.071 223.094 112.843 222.247 112.386 221.626C111.929 221.005 111.302 220.694 110.505 220.694C109.521 220.694 108.782 221.131 108.29 222.004V226.548C108.776 227.415 109.521 227.849 110.522 227.849C111.302 227.849 111.92 227.541 112.377 226.926C112.84 226.305 113.071 225.385 113.071 224.166ZM122.924 219.49H124.55V229H122.924V222.065L118.538 229H116.912V219.49H118.538V226.434L122.924 219.49ZM133.031 229C132.938 228.812 132.861 228.479 132.803 227.998C132.047 228.783 131.145 229.176 130.096 229.176C129.158 229.176 128.388 228.912 127.784 228.385C127.187 227.852 126.888 227.178 126.888 226.363C126.888 225.373 127.263 224.605 128.013 224.061C128.769 223.51 129.829 223.234 131.194 223.234H132.776V222.487C132.776 221.919 132.606 221.468 132.267 221.134C131.927 220.794 131.426 220.624 130.764 220.624C130.184 220.624 129.697 220.771 129.305 221.063C128.912 221.356 128.716 221.711 128.716 222.127H127.081C127.081 221.652 127.248 221.195 127.582 220.756C127.922 220.311 128.379 219.959 128.953 219.701C129.533 219.443 130.169 219.314 130.86 219.314C131.956 219.314 132.814 219.59 133.436 220.141C134.057 220.686 134.379 221.438 134.402 222.399V226.776C134.402 227.649 134.514 228.344 134.736 228.859V229H133.031ZM130.333 227.761C130.843 227.761 131.326 227.629 131.783 227.365C132.24 227.102 132.571 226.759 132.776 226.337V224.386H131.502C129.51 224.386 128.514 224.969 128.514 226.135C128.514 226.645 128.684 227.043 129.023 227.33C129.363 227.617 129.8 227.761 130.333 227.761ZM144.747 219.49V229H143.112V220.835H139.878L139.685 224.395C139.579 226.029 139.304 227.198 138.858 227.901C138.419 228.604 137.719 228.971 136.758 229H136.107V227.567L136.573 227.532C137.101 227.474 137.479 227.169 137.707 226.618C137.936 226.067 138.082 225.048 138.146 223.56L138.322 219.49H144.747ZM149.133 222.769H151.603C152.681 222.78 153.533 223.062 154.16 223.612C154.787 224.163 155.101 224.91 155.101 225.854C155.101 226.803 154.778 227.564 154.134 228.139C153.489 228.713 152.622 229 151.532 229H147.507V219.49H149.133V222.769ZM158.493 229H156.858V219.49H158.493V229ZM149.133 224.096V227.673H151.55C152.159 227.673 152.631 227.518 152.965 227.207C153.299 226.891 153.466 226.46 153.466 225.915C153.466 225.388 153.302 224.957 152.974 224.623C152.651 224.283 152.197 224.107 151.611 224.096H149.133ZM161.279 231.549L160.356 230.916C160.907 230.148 161.194 229.357 161.218 228.543V227.075H162.809V228.35C162.809 228.941 162.662 229.533 162.369 230.125C162.082 230.717 161.719 231.191 161.279 231.549ZM9.00879 254H7.38281V245.835H3.00586V254H1.37109V244.49H9.00879V254ZM19.6523 249.351C19.6523 250.798 19.3213 251.964 18.6592 252.849C17.9971 253.733 17.1006 254.176 15.9697 254.176C14.8154 254.176 13.9072 253.81 13.2451 253.077V257.656H11.6191V244.49H13.1045L13.1836 245.545C13.8457 244.725 14.7656 244.314 15.9434 244.314C17.0859 244.314 17.9883 244.745 18.6504 245.606C19.3184 246.468 19.6523 247.666 19.6523 249.201V249.351ZM18.0264 249.166C18.0264 248.094 17.7979 247.247 17.3408 246.626C16.8838 246.005 16.2568 245.694 15.46 245.694C14.4756 245.694 13.7373 246.131 13.2451 247.004V251.548C13.7314 252.415 14.4756 252.849 15.4775 252.849C16.2568 252.849 16.875 252.541 17.332 251.926C17.7949 251.305 18.0264 250.385 18.0264 249.166ZM27.8789 244.49H29.5049V254H27.8789V247.065L23.4932 254H21.8672V244.49H23.4932V251.434L27.8789 244.49ZM37.5908 251.847L40.8252 244.49H42.8555V254H41.2295V247.083L38.1533 254H37.0283L33.8906 246.934V254H32.2646V244.49H34.374L37.5908 251.847ZM49.4209 254.176C48.1318 254.176 47.083 253.754 46.2744 252.91C45.4658 252.061 45.0615 250.927 45.0615 249.509V249.21C45.0615 248.267 45.2402 247.426 45.5977 246.688C45.9609 245.943 46.4648 245.363 47.1094 244.947C47.7598 244.525 48.4629 244.314 49.2188 244.314C50.4551 244.314 51.416 244.722 52.1016 245.536C52.7871 246.351 53.1299 247.517 53.1299 249.034V249.711H46.6875C46.7109 250.648 46.9834 251.407 47.5049 251.987C48.0322 252.562 48.7002 252.849 49.5088 252.849C50.083 252.849 50.5693 252.731 50.9678 252.497C51.3662 252.263 51.7148 251.952 52.0137 251.565L53.0068 252.339C52.21 253.563 51.0146 254.176 49.4209 254.176ZM49.2188 245.65C48.5625 245.65 48.0117 245.891 47.5664 246.371C47.1211 246.846 46.8457 247.514 46.7402 248.375H51.5039V248.252C51.457 247.426 51.2344 246.787 50.8359 246.336C50.4375 245.879 49.8984 245.65 49.2188 245.65ZM62.7891 254H61.1631V249.939H56.7949V254H55.1602V244.49H56.7949V248.612H61.1631V244.49H62.7891V254ZM72.6768 244.49V254H71.042V250.3H68.5898L66.3486 254H64.5908L66.9814 250.054C66.3721 249.831 65.9033 249.488 65.5752 249.025C65.2529 248.557 65.0918 248.012 65.0918 247.391C65.0918 246.523 65.417 245.826 66.0674 245.299C66.7178 244.766 67.5879 244.496 68.6777 244.49H72.6768ZM66.7266 247.408C66.7266 247.871 66.8848 248.246 67.2012 248.533C67.5176 248.814 67.9365 248.958 68.458 248.964H71.042V245.809H68.7041C68.1006 245.809 67.6201 245.958 67.2627 246.257C66.9053 246.55 66.7266 246.934 66.7266 247.408ZM81.4395 244.49H83.0654V254H81.4395V247.065L77.0537 254H75.4277V244.49H77.0537V251.434L81.4395 244.49ZM81.8789 241.027C81.8789 241.736 81.6357 242.308 81.1494 242.741C80.6689 243.169 80.0361 243.383 79.251 243.383C78.4658 243.383 77.8301 243.166 77.3438 242.732C76.8574 242.299 76.6143 241.73 76.6143 241.027H77.9414C77.9414 241.438 78.0527 241.76 78.2754 241.994C78.498 242.223 78.8232 242.337 79.251 242.337C79.6611 242.337 79.9805 242.223 80.209 241.994C80.4434 241.766 80.5605 241.443 80.5605 241.027H81.8789ZM97.9189 254H96.293V245.835H91.916V254H90.2812V244.49H97.9189V254ZM100.099 249.157C100.099 248.226 100.28 247.388 100.644 246.644C101.013 245.899 101.522 245.325 102.173 244.921C102.829 244.517 103.576 244.314 104.414 244.314C105.709 244.314 106.755 244.763 107.552 245.659C108.354 246.556 108.756 247.748 108.756 249.236V249.351C108.756 250.276 108.577 251.108 108.22 251.847C107.868 252.579 107.361 253.15 106.699 253.561C106.043 253.971 105.287 254.176 104.432 254.176C103.143 254.176 102.097 253.728 101.294 252.831C100.497 251.935 100.099 250.748 100.099 249.271V249.157ZM101.733 249.351C101.733 250.405 101.977 251.252 102.463 251.891C102.955 252.529 103.611 252.849 104.432 252.849C105.258 252.849 105.914 252.526 106.4 251.882C106.887 251.231 107.13 250.323 107.13 249.157C107.13 248.114 106.881 247.271 106.383 246.626C105.891 245.976 105.234 245.65 104.414 245.65C103.611 245.65 102.964 245.97 102.472 246.608C101.979 247.247 101.733 248.161 101.733 249.351ZM118.45 244.49V254H116.815V245.835H113.581L113.388 249.395C113.282 251.029 113.007 252.198 112.562 252.901C112.122 253.604 111.422 253.971 110.461 254H109.811V252.567L110.276 252.532C110.804 252.474 111.182 252.169 111.41 251.618C111.639 251.067 111.785 250.048 111.85 248.56L112.025 244.49H118.45ZM124.172 251.618L126.387 244.49H128.127L124.304 255.468C123.712 257.05 122.771 257.841 121.482 257.841L121.175 257.814L120.568 257.7V256.382L121.008 256.417C121.559 256.417 121.986 256.306 122.291 256.083C122.602 255.86 122.856 255.453 123.056 254.861L123.416 253.895L120.023 244.49H121.799L124.172 251.618ZM136.767 254H135.132V250.555C134.417 250.742 133.685 250.836 132.935 250.836C131.745 250.836 130.837 250.531 130.21 249.922C129.589 249.312 129.272 248.445 129.261 247.32V244.481H130.887V247.373C130.916 248.791 131.599 249.5 132.935 249.5C133.685 249.5 134.417 249.406 135.132 249.219V244.49H136.767V254ZM143.323 254.176C142.034 254.176 140.985 253.754 140.177 252.91C139.368 252.061 138.964 250.927 138.964 249.509V249.21C138.964 248.267 139.143 247.426 139.5 246.688C139.863 245.943 140.367 245.363 141.012 244.947C141.662 244.525 142.365 244.314 143.121 244.314C144.357 244.314 145.318 244.722 146.004 245.536C146.689 246.351 147.032 247.517 147.032 249.034V249.711H140.59C140.613 250.648 140.886 251.407 141.407 251.987C141.935 252.562 142.603 252.849 143.411 252.849C143.985 252.849 144.472 252.731 144.87 252.497C145.269 252.263 145.617 251.952 145.916 251.565L146.909 252.339C146.112 253.563 144.917 254.176 143.323 254.176ZM143.121 245.65C142.465 245.65 141.914 245.891 141.469 246.371C141.023 246.846 140.748 247.514 140.643 248.375H145.406V248.252C145.359 247.426 145.137 246.787 144.738 246.336C144.34 245.879 143.801 245.65 143.121 245.65ZM156.691 254H155.065V249.939H150.697V254H149.062V244.49H150.697V248.612H155.065V244.49H156.691V254ZM167.08 254H165.454V249.939H161.086V254H159.451V244.49H161.086V248.612H165.454V244.49H167.08V254ZM171.475 247.769H173.944C175.022 247.78 175.875 248.062 176.502 248.612C177.129 249.163 177.442 249.91 177.442 250.854C177.442 251.803 177.12 252.564 176.476 253.139C175.831 253.713 174.964 254 173.874 254H169.849V244.49H171.475V247.769ZM180.835 254H179.2V244.49H180.835V254ZM171.475 249.096V252.673H173.892C174.501 252.673 174.973 252.518 175.307 252.207C175.641 251.891 175.808 251.46 175.808 250.915C175.808 250.388 175.644 249.957 175.315 249.623C174.993 249.283 174.539 249.107 173.953 249.096H171.475ZM187.62 254.176C186.331 254.176 185.282 253.754 184.474 252.91C183.665 252.061 183.261 250.927 183.261 249.509V249.21C183.261 248.267 183.439 247.426 183.797 246.688C184.16 245.943 184.664 245.363 185.309 244.947C185.959 244.525 186.662 244.314 187.418 244.314C188.654 244.314 189.615 244.722 190.301 245.536C190.986 246.351 191.329 247.517 191.329 249.034V249.711H184.887C184.91 250.648 185.183 251.407 185.704 251.987C186.231 252.562 186.899 252.849 187.708 252.849C188.282 252.849 188.769 252.731 189.167 252.497C189.565 252.263 189.914 251.952 190.213 251.565L191.206 252.339C190.409 253.563 189.214 254.176 187.62 254.176ZM187.418 245.65C186.762 245.65 186.211 245.891 185.766 246.371C185.32 246.846 185.045 247.514 184.939 248.375H189.703V248.252C189.656 247.426 189.434 246.787 189.035 246.336C188.637 245.879 188.098 245.65 187.418 245.65ZM6.45996 272.092C6.45996 271.646 6.29004 271.295 5.9502 271.037C5.61035 270.773 5.14453 270.642 4.55273 270.642C3.97852 270.642 3.49805 270.791 3.11133 271.09C2.73047 271.389 2.54004 271.74 2.54004 272.145H0.922852C0.922852 271.318 1.26855 270.642 1.95996 270.114C2.65137 269.587 3.51562 269.323 4.55273 269.323C5.66602 269.323 6.5332 269.563 7.1543 270.044C7.77539 270.519 8.08594 271.198 8.08594 272.083C8.08594 272.511 7.95703 272.903 7.69922 273.261C7.44141 273.618 7.0752 273.902 6.60059 274.113C7.70801 274.488 8.26172 275.227 8.26172 276.328C8.26172 277.201 7.9248 277.893 7.25098 278.402C6.57715 278.912 5.67773 279.167 4.55273 279.167C3.45703 279.167 2.55176 278.9 1.83691 278.367C1.12793 277.828 0.773438 277.102 0.773438 276.188H2.39062C2.39062 276.65 2.5957 277.049 3.00586 277.383C3.42188 277.711 3.9375 277.875 4.55273 277.875C5.17383 277.875 5.6748 277.731 6.05566 277.444C6.43652 277.157 6.62695 276.785 6.62695 276.328C6.62695 275.795 6.46582 275.414 6.14355 275.186C5.82715 274.951 5.33203 274.834 4.6582 274.834H3.03223V273.463H4.79883C5.90625 273.434 6.45996 272.977 6.45996 272.092ZM18.1406 279H16.5146V274.939H12.1465V279H10.5117V269.49H12.1465V273.612H16.5146V269.49H18.1406V279ZM26.6309 279C26.5371 278.812 26.4609 278.479 26.4023 277.998C25.6465 278.783 24.7441 279.176 23.6953 279.176C22.7578 279.176 21.9873 278.912 21.3838 278.385C20.7861 277.852 20.4873 277.178 20.4873 276.363C20.4873 275.373 20.8623 274.605 21.6123 274.061C22.3682 273.51 23.4287 273.234 24.7939 273.234H26.376V272.487C26.376 271.919 26.2061 271.468 25.8662 271.134C25.5264 270.794 25.0254 270.624 24.3633 270.624C23.7832 270.624 23.2969 270.771 22.9043 271.063C22.5117 271.356 22.3154 271.711 22.3154 272.127H20.6807C20.6807 271.652 20.8477 271.195 21.1816 270.756C21.5215 270.311 21.9785 269.959 22.5527 269.701C23.1328 269.443 23.7686 269.314 24.46 269.314C25.5557 269.314 26.4141 269.59 27.0352 270.141C27.6562 270.686 27.9785 271.438 28.002 272.399V276.776C28.002 277.649 28.1133 278.344 28.3359 278.859V279H26.6309ZM23.9326 277.761C24.4424 277.761 24.9258 277.629 25.3828 277.365C25.8398 277.102 26.1709 276.759 26.376 276.337V274.386H25.1016C23.1094 274.386 22.1133 274.969 22.1133 276.135C22.1133 276.645 22.2832 277.043 22.623 277.33C22.9629 277.617 23.3994 277.761 23.9326 277.761ZM38.3203 279H36.6943V274.939H32.3262V279H30.6914V269.49H32.3262V273.612H36.6943V269.49H38.3203V279ZM47.0918 269.49H48.7178V279H47.0918V272.065L42.7061 279H41.0801V269.49H42.7061V276.434L47.0918 269.49ZM58.5967 269.49V279H56.9619V275.3H54.5098L52.2686 279H50.5107L52.9014 275.054C52.292 274.831 51.8232 274.488 51.4951 274.025C51.1729 273.557 51.0117 273.012 51.0117 272.391C51.0117 271.523 51.3369 270.826 51.9873 270.299C52.6377 269.766 53.5078 269.496 54.5977 269.49H58.5967ZM52.6465 272.408C52.6465 272.871 52.8047 273.246 53.1211 273.533C53.4375 273.814 53.8564 273.958 54.3779 273.964H56.9619V270.809H54.624C54.0205 270.809 53.54 270.958 53.1826 271.257C52.8252 271.55 52.6465 271.934 52.6465 272.408ZM73.4414 279H71.8154V274.939H67.4473V279H65.8125V269.49H67.4473V273.612H71.8154V269.49H73.4414V279ZM81.9316 279C81.8379 278.812 81.7617 278.479 81.7031 277.998C80.9473 278.783 80.0449 279.176 78.9961 279.176C78.0586 279.176 77.2881 278.912 76.6846 278.385C76.0869 277.852 75.7881 277.178 75.7881 276.363C75.7881 275.373 76.1631 274.605 76.9131 274.061C77.6689 273.51 78.7295 273.234 80.0947 273.234H81.6768V272.487C81.6768 271.919 81.5068 271.468 81.167 271.134C80.8271 270.794 80.3262 270.624 79.6641 270.624C79.084 270.624 78.5977 270.771 78.2051 271.063C77.8125 271.356 77.6162 271.711 77.6162 272.127H75.9814C75.9814 271.652 76.1484 271.195 76.4824 270.756C76.8223 270.311 77.2793 269.959 77.8535 269.701C78.4336 269.443 79.0693 269.314 79.7607 269.314C80.8564 269.314 81.7148 269.59 82.3359 270.141C82.957 270.686 83.2793 271.438 83.3027 272.399V276.776C83.3027 277.649 83.4141 278.344 83.6367 278.859V279H81.9316ZM79.2334 277.761C79.7432 277.761 80.2266 277.629 80.6836 277.365C81.1406 277.102 81.4717 276.759 81.6768 276.337V274.386H80.4023C78.4102 274.386 77.4141 274.969 77.4141 276.135C77.4141 276.645 77.584 277.043 77.9238 277.33C78.2637 277.617 78.7002 277.761 79.2334 277.761ZM98.0947 279H96.4688V270.835H92.0918V279H90.457V269.49H98.0947V279ZM108.738 274.351C108.738 275.798 108.407 276.964 107.745 277.849C107.083 278.733 106.187 279.176 105.056 279.176C103.901 279.176 102.993 278.81 102.331 278.077V282.656H100.705V269.49H102.19L102.27 270.545C102.932 269.725 103.852 269.314 105.029 269.314C106.172 269.314 107.074 269.745 107.736 270.606C108.404 271.468 108.738 272.666 108.738 274.201V274.351ZM107.112 274.166C107.112 273.094 106.884 272.247 106.427 271.626C105.97 271.005 105.343 270.694 104.546 270.694C103.562 270.694 102.823 271.131 102.331 272.004V276.548C102.817 277.415 103.562 277.849 104.563 277.849C105.343 277.849 105.961 277.541 106.418 276.926C106.881 276.305 107.112 275.385 107.112 274.166ZM116.684 279C116.59 278.812 116.514 278.479 116.455 277.998C115.699 278.783 114.797 279.176 113.748 279.176C112.811 279.176 112.04 278.912 111.437 278.385C110.839 277.852 110.54 277.178 110.54 276.363C110.54 275.373 110.915 274.605 111.665 274.061C112.421 273.51 113.481 273.234 114.847 273.234H116.429V272.487C116.429 271.919 116.259 271.468 115.919 271.134C115.579 270.794 115.078 270.624 114.416 270.624C113.836 270.624 113.35 270.771 112.957 271.063C112.564 271.356 112.368 271.711 112.368 272.127H110.733C110.733 271.652 110.9 271.195 111.234 270.756C111.574 270.311 112.031 269.959 112.605 269.701C113.186 269.443 113.821 269.314 114.513 269.314C115.608 269.314 116.467 269.59 117.088 270.141C117.709 270.686 118.031 271.438 118.055 272.399V276.776C118.055 277.649 118.166 278.344 118.389 278.859V279H116.684ZM113.985 277.761C114.495 277.761 114.979 277.629 115.436 277.365C115.893 277.102 116.224 276.759 116.429 276.337V274.386H115.154C113.162 274.386 112.166 274.969 112.166 276.135C112.166 276.645 112.336 277.043 112.676 277.33C113.016 277.617 113.452 277.761 113.985 277.761ZM123.565 274.948H122.379V279H120.744V269.49H122.379V273.516H123.442L126.642 269.49H128.61L124.849 274.061L128.927 279H126.861L123.565 274.948ZM137.391 270.809H134.2V279H132.574V270.809H129.445V269.49H137.391V270.809ZM145.125 269.49H146.751V279H145.125V272.065L140.739 279H139.113V269.49H140.739V276.434L145.125 269.49ZM152.323 274.948H151.137V279H149.502V269.49H151.137V273.516H152.2L155.399 269.49H157.368L153.606 274.061L157.685 279H155.619L152.323 274.948ZM162.888 279.176C161.599 279.176 160.55 278.754 159.741 277.91C158.933 277.061 158.528 275.927 158.528 274.509V274.21C158.528 273.267 158.707 272.426 159.064 271.688C159.428 270.943 159.932 270.363 160.576 269.947C161.227 269.525 161.93 269.314 162.686 269.314C163.922 269.314 164.883 269.722 165.568 270.536C166.254 271.351 166.597 272.517 166.597 274.034V274.711H160.154C160.178 275.648 160.45 276.407 160.972 276.987C161.499 277.562 162.167 277.849 162.976 277.849C163.55 277.849 164.036 277.731 164.435 277.497C164.833 277.263 165.182 276.952 165.48 276.565L166.474 277.339C165.677 278.563 164.481 279.176 162.888 279.176ZM162.686 270.65C162.029 270.65 161.479 270.891 161.033 271.371C160.588 271.846 160.312 272.514 160.207 273.375H164.971V273.252C164.924 272.426 164.701 271.787 164.303 271.336C163.904 270.879 163.365 270.65 162.686 270.65ZM7.38281 294.49H9.00879V304H7.38281V297.065L2.99707 304H1.37109V294.49H2.99707V301.434L7.38281 294.49ZM23.1504 295.809H19.96V304H18.334V295.809H15.2051V294.49H23.1504V295.809ZM24.8818 304V294.49H28.5908C29.8564 294.49 30.8262 294.713 31.5 295.158C32.1797 295.598 32.5195 296.245 32.5195 297.101C32.5195 297.54 32.3877 297.938 32.124 298.296C31.8604 298.647 31.4707 298.917 30.9551 299.104C31.5293 299.239 31.9893 299.503 32.335 299.896C32.6865 300.288 32.8623 300.757 32.8623 301.302C32.8623 302.175 32.54 302.843 31.8955 303.306C31.2568 303.769 30.3516 304 29.1797 304H24.8818ZM26.5078 299.825V302.69H29.1973C29.877 302.69 30.3838 302.564 30.7178 302.312C31.0576 302.061 31.2275 301.706 31.2275 301.249C31.2275 300.3 30.5303 299.825 29.1357 299.825H26.5078ZM26.5078 298.524H28.6084C30.1318 298.524 30.8936 298.079 30.8936 297.188C30.8936 296.298 30.1729 295.838 28.7314 295.809H26.5078V298.524ZM34.585 299.157C34.585 298.226 34.7666 297.388 35.1299 296.644C35.499 295.899 36.0088 295.325 36.6592 294.921C37.3154 294.517 38.0625 294.314 38.9004 294.314C40.1953 294.314 41.2412 294.763 42.0381 295.659C42.8408 296.556 43.2422 297.748 43.2422 299.236V299.351C43.2422 300.276 43.0635 301.108 42.7061 301.847C42.3545 302.579 41.8477 303.15 41.1855 303.561C40.5293 303.971 39.7734 304.176 38.918 304.176C37.6289 304.176 36.583 303.728 35.7803 302.831C34.9834 301.935 34.585 300.748 34.585 299.271V299.157ZM36.2197 299.351C36.2197 300.405 36.4629 301.252 36.9492 301.891C37.4414 302.529 38.0977 302.849 38.918 302.849C39.7441 302.849 40.4004 302.526 40.8867 301.882C41.373 301.231 41.6162 300.323 41.6162 299.157C41.6162 298.114 41.3672 297.271 40.8691 296.626C40.377 295.976 39.7207 295.65 38.9004 295.65C38.0977 295.65 37.4502 295.97 36.958 296.608C36.4658 297.247 36.2197 298.161 36.2197 299.351ZM52.5498 294.49V304H50.915V300.3H48.4629L46.2217 304H44.4639L46.8545 300.054C46.2451 299.831 45.7764 299.488 45.4482 299.025C45.126 298.557 44.9648 298.012 44.9648 297.391C44.9648 296.523 45.29 295.826 45.9404 295.299C46.5908 294.766 47.4609 294.496 48.5508 294.49H52.5498ZM46.5996 297.408C46.5996 297.871 46.7578 298.246 47.0742 298.533C47.3906 298.814 47.8096 298.958 48.3311 298.964H50.915V295.809H48.5771C47.9736 295.809 47.4932 295.958 47.1357 296.257C46.7783 296.55 46.5996 296.934 46.5996 297.408ZM67.21 299.869H66.0674V304H64.4414V299.869H63.2988L60.6357 304H58.5791L61.9805 299.078L58.9043 294.49H60.873L63.3252 298.428H64.4414V294.49H66.0674V298.428H67.1748L69.6445 294.49H71.6133L68.5283 299.087L71.9297 304H69.873L67.21 299.869ZM79.5586 294.49H81.1846V304H79.5586V297.065L75.1729 304H73.5469V294.49H75.1729V301.434L79.5586 294.49ZM89.0244 297.092C89.0244 296.646 88.8545 296.295 88.5146 296.037C88.1748 295.773 87.709 295.642 87.1172 295.642C86.543 295.642 86.0625 295.791 85.6758 296.09C85.2949 296.389 85.1045 296.74 85.1045 297.145H83.4873C83.4873 296.318 83.833 295.642 84.5244 295.114C85.2158 294.587 86.0801 294.323 87.1172 294.323C88.2305 294.323 89.0977 294.563 89.7188 295.044C90.3398 295.519 90.6504 296.198 90.6504 297.083C90.6504 297.511 90.5215 297.903 90.2637 298.261C90.0059 298.618 89.6396 298.902 89.165 299.113C90.2725 299.488 90.8262 300.227 90.8262 301.328C90.8262 302.201 90.4893 302.893 89.8154 303.402C89.1416 303.912 88.2422 304.167 87.1172 304.167C86.0215 304.167 85.1162 303.9 84.4014 303.367C83.6924 302.828 83.3379 302.102 83.3379 301.188H84.9551C84.9551 301.65 85.1602 302.049 85.5703 302.383C85.9863 302.711 86.502 302.875 87.1172 302.875C87.7383 302.875 88.2393 302.731 88.6201 302.444C89.001 302.157 89.1914 301.785 89.1914 301.328C89.1914 300.795 89.0303 300.414 88.708 300.186C88.3916 299.951 87.8965 299.834 87.2227 299.834H85.5967V298.463H87.3633C88.4707 298.434 89.0244 297.977 89.0244 297.092ZM100.705 304H99.0791V299.939H94.7109V304H93.0762V294.49H94.7109V298.612H99.0791V294.49H100.705V304ZM105.1 297.769H107.569C108.647 297.78 109.5 298.062 110.127 298.612C110.754 299.163 111.067 299.91 111.067 300.854C111.067 301.803 110.745 302.564 110.101 303.139C109.456 303.713 108.589 304 107.499 304H103.474V294.49H105.1V297.769ZM105.1 299.096V302.673H107.517C108.126 302.673 108.598 302.518 108.932 302.207C109.266 301.891 109.433 301.46 109.433 300.915C109.433 300.388 109.269 299.957 108.94 299.623C108.618 299.283 108.164 299.107 107.578 299.096H105.1ZM125.332 304H123.706V299.939H119.338V304H117.703V294.49H119.338V298.612H123.706V294.49H125.332V304ZM131.897 304.176C130.608 304.176 129.56 303.754 128.751 302.91C127.942 302.061 127.538 300.927 127.538 299.509V299.21C127.538 298.267 127.717 297.426 128.074 296.688C128.438 295.943 128.941 295.363 129.586 294.947C130.236 294.525 130.939 294.314 131.695 294.314C132.932 294.314 133.893 294.722 134.578 295.536C135.264 296.351 135.606 297.517 135.606 299.034V299.711H129.164C129.188 300.648 129.46 301.407 129.981 301.987C130.509 302.562 131.177 302.849 131.985 302.849C132.56 302.849 133.046 302.731 133.444 302.497C133.843 302.263 134.191 301.952 134.49 301.565L135.483 302.339C134.687 303.563 133.491 304.176 131.897 304.176ZM131.695 295.65C131.039 295.65 130.488 295.891 130.043 296.371C129.598 296.846 129.322 297.514 129.217 298.375H133.98V298.252C133.934 297.426 133.711 296.787 133.312 296.336C132.914 295.879 132.375 295.65 131.695 295.65ZM145.274 304H143.648V295.835H139.271V304H137.637V294.49H145.274V304ZM155.918 299.351C155.918 300.798 155.587 301.964 154.925 302.849C154.263 303.733 153.366 304.176 152.235 304.176C151.081 304.176 150.173 303.81 149.511 303.077V307.656H147.885V294.49H149.37L149.449 295.545C150.111 294.725 151.031 294.314 152.209 294.314C153.352 294.314 154.254 294.745 154.916 295.606C155.584 296.468 155.918 297.666 155.918 299.201V299.351ZM154.292 299.166C154.292 298.094 154.063 297.247 153.606 296.626C153.149 296.005 152.522 295.694 151.726 295.694C150.741 295.694 150.003 296.131 149.511 297.004V301.548C149.997 302.415 150.741 302.849 151.743 302.849C152.522 302.849 153.141 302.541 153.598 301.926C154.061 301.305 154.292 300.385 154.292 299.166ZM161.938 304.176C160.649 304.176 159.601 303.754 158.792 302.91C157.983 302.061 157.579 300.927 157.579 299.509V299.21C157.579 298.267 157.758 297.426 158.115 296.688C158.479 295.943 158.982 295.363 159.627 294.947C160.277 294.525 160.98 294.314 161.736 294.314C162.973 294.314 163.934 294.722 164.619 295.536C165.305 296.351 165.647 297.517 165.647 299.034V299.711H159.205C159.229 300.648 159.501 301.407 160.022 301.987C160.55 302.562 161.218 302.849 162.026 302.849C162.601 302.849 163.087 302.731 163.485 302.497C163.884 302.263 164.232 301.952 164.531 301.565L165.524 302.339C164.728 303.563 163.532 304.176 161.938 304.176ZM161.736 295.65C161.08 295.65 160.529 295.891 160.084 296.371C159.639 296.846 159.363 297.514 159.258 298.375H164.021V298.252C163.975 297.426 163.752 296.787 163.354 296.336C162.955 295.879 162.416 295.65 161.736 295.65ZM173.013 301.847L176.247 294.49H178.277V304H176.651V297.083L173.575 304H172.45L169.312 296.934V304H167.687V294.49H169.796L173.013 301.847ZM184.843 304.176C183.554 304.176 182.505 303.754 181.696 302.91C180.888 302.061 180.483 300.927 180.483 299.509V299.21C180.483 298.267 180.662 297.426 181.02 296.688C181.383 295.943 181.887 295.363 182.531 294.947C183.182 294.525 183.885 294.314 184.641 294.314C185.877 294.314 186.838 294.722 187.523 295.536C188.209 296.351 188.552 297.517 188.552 299.034V299.711H182.109C182.133 300.648 182.405 301.407 182.927 301.987C183.454 302.562 184.122 302.849 184.931 302.849C185.505 302.849 185.991 302.731 186.39 302.497C186.788 302.263 187.137 301.952 187.436 301.565L188.429 302.339C187.632 303.563 186.437 304.176 184.843 304.176ZM184.641 295.65C183.984 295.65 183.434 295.891 182.988 296.371C182.543 296.846 182.268 297.514 182.162 298.375H186.926V298.252C186.879 297.426 186.656 296.787 186.258 296.336C185.859 295.879 185.32 295.65 184.641 295.65ZM198.211 304H196.585V299.939H192.217V304H190.582V294.49H192.217V298.612H196.585V294.49H198.211V304ZM208.6 304H206.974V299.939H202.605V304H200.971V294.49H202.605V298.612H206.974V294.49H208.6V304ZM210.788 299.157C210.788 298.226 210.97 297.388 211.333 296.644C211.702 295.899 212.212 295.325 212.862 294.921C213.519 294.517 214.266 294.314 215.104 294.314C216.398 294.314 217.444 294.763 218.241 295.659C219.044 296.556 219.445 297.748 219.445 299.236V299.351C219.445 300.276 219.267 301.108 218.909 301.847C218.558 302.579 218.051 303.15 217.389 303.561C216.732 303.971 215.977 304.176 215.121 304.176C213.832 304.176 212.786 303.728 211.983 302.831C211.187 301.935 210.788 300.748 210.788 299.271V299.157ZM212.423 299.351C212.423 300.405 212.666 301.252 213.152 301.891C213.645 302.529 214.301 302.849 215.121 302.849C215.947 302.849 216.604 302.526 217.09 301.882C217.576 301.231 217.819 300.323 217.819 299.157C217.819 298.114 217.57 297.271 217.072 296.626C216.58 295.976 215.924 295.65 215.104 295.65C214.301 295.65 213.653 295.97 213.161 296.608C212.669 297.247 212.423 298.161 212.423 299.351ZM7.38281 319.49H9.00879V329H7.38281V322.065L2.99707 329H1.37109V319.49H2.99707V326.434L7.38281 319.49ZM16.8486 322.092C16.8486 321.646 16.6787 321.295 16.3389 321.037C15.999 320.773 15.5332 320.642 14.9414 320.642C14.3672 320.642 13.8867 320.791 13.5 321.09C13.1191 321.389 12.9287 321.74 12.9287 322.145H11.3115C11.3115 321.318 11.6572 320.642 12.3486 320.114C13.04 319.587 13.9043 319.323 14.9414 319.323C16.0547 319.323 16.9219 319.563 17.543 320.044C18.1641 320.519 18.4746 321.198 18.4746 322.083C18.4746 322.511 18.3457 322.903 18.0879 323.261C17.8301 323.618 17.4639 323.902 16.9893 324.113C18.0967 324.488 18.6504 325.227 18.6504 326.328C18.6504 327.201 18.3135 327.893 17.6396 328.402C16.9658 328.912 16.0664 329.167 14.9414 329.167C13.8457 329.167 12.9404 328.9 12.2256 328.367C11.5166 327.828 11.1621 327.102 11.1621 326.188H12.7793C12.7793 326.65 12.9844 327.049 13.3945 327.383C13.8105 327.711 14.3262 327.875 14.9414 327.875C15.5625 327.875 16.0635 327.731 16.4443 327.444C16.8252 327.157 17.0156 326.785 17.0156 326.328C17.0156 325.795 16.8545 325.414 16.5322 325.186C16.2158 324.951 15.7207 324.834 15.0469 324.834H13.4209V323.463H15.1875C16.2949 323.434 16.8486 322.977 16.8486 322.092ZM26.2354 326.847L29.4697 319.49H31.5V329H29.874V322.083L26.7979 329H25.6729L22.5352 321.934V329H20.9092V319.49H23.0186L26.2354 326.847ZM38.0654 329.176C36.7764 329.176 35.7275 328.754 34.9189 327.91C34.1104 327.061 33.7061 325.927 33.7061 324.509V324.21C33.7061 323.267 33.8848 322.426 34.2422 321.688C34.6055 320.943 35.1094 320.363 35.7539 319.947C36.4043 319.525 37.1074 319.314 37.8633 319.314C39.0996 319.314 40.0605 319.722 40.7461 320.536C41.4316 321.351 41.7744 322.517 41.7744 324.034V324.711H35.332C35.3555 325.648 35.6279 326.407 36.1494 326.987C36.6768 327.562 37.3447 327.849 38.1533 327.849C38.7275 327.849 39.2139 327.731 39.6123 327.497C40.0107 327.263 40.3594 326.952 40.6582 326.565L41.6514 327.339C40.8545 328.563 39.6592 329.176 38.0654 329.176ZM37.8633 320.65C37.207 320.65 36.6562 320.891 36.2109 321.371C35.7656 321.846 35.4902 322.514 35.3848 323.375H40.1484V323.252C40.1016 322.426 39.8789 321.787 39.4805 321.336C39.082 320.879 38.543 320.65 37.8633 320.65ZM51.4336 329H49.8076V324.939H45.4395V329H43.8047V319.49H45.4395V323.612H49.8076V319.49H51.4336V329ZM60.2051 319.49H61.8311V329H60.2051V322.065L55.8193 329H54.1934V319.49H55.8193V326.434L60.2051 319.49ZM71.5078 320.809H68.3174V329H66.6914V320.809H63.5625V319.49H71.5078V320.809ZM76.2012 327.849C76.7812 327.849 77.2881 327.673 77.7217 327.321C78.1553 326.97 78.3955 326.53 78.4424 326.003H79.9805C79.9512 326.548 79.7637 327.066 79.418 327.559C79.0723 328.051 78.6094 328.443 78.0293 328.736C77.4551 329.029 76.8457 329.176 76.2012 329.176C74.9062 329.176 73.875 328.745 73.1074 327.884C72.3457 327.017 71.9648 325.833 71.9648 324.333V324.061C71.9648 323.135 72.1348 322.312 72.4746 321.591C72.8145 320.87 73.3008 320.311 73.9336 319.912C74.5723 319.514 75.3252 319.314 76.1924 319.314C77.2588 319.314 78.1436 319.634 78.8467 320.272C79.5557 320.911 79.9336 321.74 79.9805 322.76H78.4424C78.3955 322.145 78.1611 321.641 77.7393 321.248C77.3232 320.85 76.8076 320.65 76.1924 320.65C75.3662 320.65 74.7246 320.949 74.2676 321.547C73.8164 322.139 73.5908 322.997 73.5908 324.122V324.43C73.5908 325.525 73.8164 326.369 74.2676 326.961C74.7188 327.553 75.3633 327.849 76.2012 327.849ZM89.0771 319.49V329H87.4424V325.3H84.9902L82.749 329H80.9912L83.3818 325.054C82.7725 324.831 82.3037 324.488 81.9756 324.025C81.6533 323.557 81.4922 323.012 81.4922 322.391C81.4922 321.523 81.8174 320.826 82.4678 320.299C83.1182 319.766 83.9883 319.496 85.0781 319.49H89.0771ZM83.127 322.408C83.127 322.871 83.2852 323.246 83.6016 323.533C83.918 323.814 84.3369 323.958 84.8584 323.964H87.4424V320.809H85.1045C84.501 320.809 84.0205 320.958 83.6631 321.257C83.3057 321.55 83.127 321.934 83.127 322.408ZM99.1143 324.948H97.9277V329H96.293V319.49H97.9277V323.516H98.9912L102.19 319.49H104.159L100.397 324.061L104.476 329H102.41L99.1143 324.948ZM118.134 319.49V329H116.499V320.835H113.265L113.071 324.395C112.966 326.029 112.69 327.198 112.245 327.901C111.806 328.604 111.105 328.971 110.145 329H109.494V327.567L109.96 327.532C110.487 327.474 110.865 327.169 111.094 326.618C111.322 326.067 111.469 325.048 111.533 323.56L111.709 319.49H118.134ZM123.855 326.618L126.07 319.49H127.811L123.987 330.468C123.396 332.05 122.455 332.841 121.166 332.841L120.858 332.814L120.252 332.7V331.382L120.691 331.417C121.242 331.417 121.67 331.306 121.975 331.083C122.285 330.86 122.54 330.453 122.739 329.861L123.1 328.895L119.707 319.49H121.482L123.855 326.618ZM136.45 329H134.815V325.555C134.101 325.742 133.368 325.836 132.618 325.836C131.429 325.836 130.521 325.531 129.894 324.922C129.272 324.312 128.956 323.445 128.944 322.32V319.481H130.57V322.373C130.6 323.791 131.282 324.5 132.618 324.5C133.368 324.5 134.101 324.406 134.815 324.219V319.49H136.45V329ZM140.836 319.49V327.673H144.316V319.49H145.942V327.673H149.414V319.49H151.049V329H139.201V319.49H140.836ZM157.562 329.176C156.272 329.176 155.224 328.754 154.415 327.91C153.606 327.061 153.202 325.927 153.202 324.509V324.21C153.202 323.267 153.381 322.426 153.738 321.688C154.102 320.943 154.605 320.363 155.25 319.947C155.9 319.525 156.604 319.314 157.359 319.314C158.596 319.314 159.557 319.722 160.242 320.536C160.928 321.351 161.271 322.517 161.271 324.034V324.711H154.828C154.852 325.648 155.124 326.407 155.646 326.987C156.173 327.562 156.841 327.849 157.649 327.849C158.224 327.849 158.71 327.731 159.108 327.497C159.507 327.263 159.855 326.952 160.154 326.565L161.147 327.339C160.351 328.563 159.155 329.176 157.562 329.176ZM157.359 320.65C156.703 320.65 156.152 320.891 155.707 321.371C155.262 321.846 154.986 322.514 154.881 323.375H159.645V323.252C159.598 322.426 159.375 321.787 158.977 321.336C158.578 320.879 158.039 320.65 157.359 320.65ZM168.636 326.847L171.87 319.49H173.9V329H172.274V322.083L169.198 329H168.073L164.936 321.934V329H163.31V319.49H165.419L168.636 326.847Z" fill="#1B404E"/>
<rect x="1" y="47" width="140" height="140" rx="25" fill="#EEEEEE"/>
<path d="M67.2 47.75C64.7 51.05 61.2167 52.7 56.75 52.7C52.2833 52.7 48.7833 51.05 46.25 47.75C43.75 44.4167 42.5 40 42.5 34.5C42.5 29 43.75 24.6 46.25 21.3C48.7833 17.9667 52.2833 16.3 56.75 16.3C61.2167 16.3 64.7 17.9667 67.2 21.3C69.7333 24.6 71 29 71 34.5C71 40 69.7333 44.4167 67.2 47.75ZM50.5 34.5C50.5 41.4333 52.5833 44.9 56.75 44.9C60.9167 44.9 63 41.4333 63 34.5C63 27.5667 60.9167 24.1 56.75 24.1C52.5833 24.1 50.5 27.5667 50.5 34.5ZM72.6176 52L72.6176 46.2L84.3676 34C86.7342 31.5667 87.9176 29.5 87.9176 27.8C87.9176 26.7 87.5842 25.8167 86.9176 25.15C86.2509 24.45 85.3342 24.1 84.1676 24.1C81.8342 24.1 80.1176 25.3667 79.0176 27.9L72.2676 23.95C73.3342 21.45 74.9342 19.55 77.0676 18.25C79.2009 16.95 81.5342 16.3 84.0676 16.3C87.3342 16.3 90.1176 17.3167 92.4176 19.35C94.7509 21.35 95.9176 24.05 95.9176 27.45C95.9176 31.15 94.1009 34.8167 90.4676 38.45L84.6676 44.3L96.4176 44.3L96.4176 52L72.6176 52Z" fill="#EEEEEE"/>
<path fill-rule="evenodd" clip-rule="evenodd" d="M57.7988 105.72L58.4169 108.192C60.1895 115.28 65.7226 120.81 72.8082 122.583L75.2805 123.201L90.5939 107.888C98.7723 99.7094 103.826 88.9227 104.871 77.4018L105 76L103.598 76.1286C92.0773 77.1768 81.2906 82.2277 73.1098 90.4086L57.7988 105.72Z" stroke="#1B404E" stroke-width="3" stroke-linecap="round" stroke-linejoin="round"/>
<path d="M85.5637 81.3481C86.2535 83.8204 87.8135 86.7872 91.0151 89.9864C94.1105 93.0842 96.9882 94.6442 99.416 95.3686" stroke="#1B404E" stroke-width="3" stroke-linecap="round" stroke-linejoin="round"/>
<path d="M69.3128 111.688L51.532 129.468" stroke="#1B404E" stroke-width="3" stroke-linecap="round" stroke-linejoin="round"/>
<path fill-rule="evenodd" clip-rule="evenodd" d="M68.1575 95.3609L60.9087 94.4881C55.6353 93.8527 50.3618 95.6748 46.6039 99.4327L35.0731 110.966C35.0731 110.966 49.0589 107.468 57.7985 105.72L68.1575 95.3609Z" stroke="#1B404E" stroke-width="3" stroke-linecap="round" stroke-linejoin="round"/>
<path fill-rule="evenodd" clip-rule="evenodd" d="M85.6386 112.843L86.5138 120.092C87.1467 125.365 85.3246 130.638 81.5692 134.396L70.0359 145.927C70.0359 145.927 73.5342 131.941 75.2821 123.202L85.6386 112.843Z" stroke="#1B404E" stroke-width="3" stroke-linecap="round" stroke-linejoin="round"/>
<path fill-rule="evenodd" clip-rule="evenodd" d="M84.0211 103.972C82.0927 105.903 78.9603 105.903 77.0294 103.972C75.0986 102.041 75.0986 98.9109 77.0294 96.9775C78.9603 95.0492 82.0927 95.0492 84.0211 96.9775C85.952 98.9109 85.952 102.041 84.0211 103.972Z" stroke="#1B404E" stroke-width="3" stroke-linecap="round" stroke-linejoin="round"/>
<path d="M67.1399 128.695C67.1399 128.695 59.723 146.001 35 146.001C35 121.278 52.3061 113.861 52.3061 113.861" stroke="#FFC40E" stroke-width="3" stroke-linecap="round" stroke-linejoin="round"/>
</svg>
