<svg width="132" height="224" viewBox="0 0 132 224" fill="none" xmlns="http://www.w3.org/2000/svg">
<path d="M1.15527 174V164.047H4.40918C5.48926 164.047 6.30046 164.27 6.84277 164.717C7.38965 165.163 7.66309 165.824 7.66309 166.699C7.66309 167.164 7.53092 167.576 7.2666 167.937C7.00228 168.292 6.64225 168.568 6.18652 168.764C6.72428 168.914 7.14811 169.201 7.45801 169.625C7.77246 170.044 7.92969 170.546 7.92969 171.129C7.92969 172.022 7.6403 172.724 7.06152 173.234C6.48275 173.745 5.66471 174 4.60742 174H1.15527ZM2.46777 169.345V172.927H4.63477C5.24544 172.927 5.72624 172.77 6.07715 172.455C6.43262 172.136 6.61035 171.699 6.61035 171.143C6.61035 169.944 5.95866 169.345 4.65527 169.345H2.46777ZM2.46777 168.292H4.4502C5.02441 168.292 5.48242 168.148 5.82422 167.861C6.17057 167.574 6.34375 167.185 6.34375 166.692C6.34375 166.146 6.18424 165.749 5.86523 165.503C5.54622 165.252 5.06087 165.127 4.40918 165.127H2.46777V168.292ZM11.0605 169.153H12.9814C13.82 169.162 14.4831 169.381 14.9707 169.81C15.4583 170.238 15.7021 170.819 15.7021 171.553C15.7021 172.291 15.4515 172.883 14.9502 173.33C14.4489 173.777 13.7744 174 12.9268 174H9.7959V166.604H11.0605V169.153ZM18.3408 174H17.0693V166.604H18.3408V174ZM11.0605 170.186V172.968H12.9404C13.4144 172.968 13.7812 172.847 14.041 172.605C14.3008 172.359 14.4307 172.024 14.4307 171.601C14.4307 171.19 14.3031 170.855 14.0479 170.596C13.7972 170.331 13.444 170.195 12.9883 170.186H11.0605ZM23.7959 167.027C24.7256 167.027 25.4684 167.34 26.0244 167.964C26.585 168.584 26.8652 169.402 26.8652 170.418V170.534C26.8652 171.231 26.7308 171.856 26.4619 172.407C26.193 172.954 25.8057 173.38 25.2998 173.686C24.7985 173.986 24.2197 174.137 23.5635 174.137C22.57 174.137 21.7702 173.806 21.1641 173.146C20.5579 172.48 20.2549 171.589 20.2549 170.473V169.857C20.2549 168.303 20.542 167.068 21.1162 166.152C21.695 165.236 22.5472 164.678 23.6729 164.478C24.3109 164.364 24.7415 164.225 24.9648 164.061C25.1882 163.896 25.2998 163.671 25.2998 163.384H26.3389C26.3389 163.953 26.209 164.398 25.9492 164.717C25.694 165.036 25.2839 165.261 24.7188 165.394L23.7754 165.605C23.0234 165.783 22.4583 166.084 22.0801 166.508C21.7064 166.927 21.4626 167.488 21.3486 168.189C22.0186 167.415 22.8343 167.027 23.7959 167.027ZM23.5498 168.066C22.93 168.066 22.4378 168.276 22.0732 168.695C21.7087 169.11 21.5264 169.687 21.5264 170.425V170.534C21.5264 171.327 21.7087 171.956 22.0732 172.421C22.4424 172.881 22.9391 173.111 23.5635 173.111C24.1924 173.111 24.6891 172.879 25.0537 172.414C25.4183 171.949 25.6006 171.27 25.6006 170.377C25.6006 169.68 25.416 169.121 25.0469 168.702C24.6823 168.278 24.1833 168.066 23.5498 168.066ZM31.3564 174.137C30.3538 174.137 29.5381 173.809 28.9092 173.152C28.2803 172.492 27.9658 171.61 27.9658 170.507V170.274C27.9658 169.541 28.1048 168.887 28.3828 168.312C28.6654 167.734 29.0573 167.283 29.5586 166.959C30.0645 166.631 30.6113 166.467 31.1992 166.467C32.1608 166.467 32.9082 166.784 33.4414 167.417C33.9746 168.05 34.2412 168.957 34.2412 170.138V170.664H29.2305C29.2487 171.393 29.4606 171.983 29.8662 172.435C30.2764 172.881 30.7959 173.104 31.4248 173.104C31.8714 173.104 32.2497 173.013 32.5596 172.831C32.8695 172.649 33.1406 172.407 33.373 172.106L34.1455 172.708C33.5257 173.66 32.596 174.137 31.3564 174.137ZM31.1992 167.506C30.6888 167.506 30.2604 167.693 29.9141 168.066C29.5677 168.436 29.3535 168.955 29.2715 169.625H32.9766V169.529C32.9401 168.887 32.7669 168.39 32.457 168.039C32.1471 167.684 31.7279 167.506 31.1992 167.506ZM41.959 170.384C41.959 171.509 41.7015 172.416 41.1865 173.104C40.6715 173.793 39.9743 174.137 39.0947 174.137C38.1969 174.137 37.4906 173.852 36.9756 173.282V176.844H35.7109V166.604H36.8662L36.9277 167.424C37.4427 166.786 38.1582 166.467 39.0742 166.467C39.9629 166.467 40.6647 166.802 41.1797 167.472C41.6992 168.142 41.959 169.074 41.959 170.268V170.384ZM40.6943 170.24C40.6943 169.406 40.5166 168.748 40.1611 168.265C39.8057 167.782 39.318 167.54 38.6982 167.54C37.9326 167.54 37.3584 167.88 36.9756 168.559V172.093C37.3538 172.767 37.9326 173.104 38.7119 173.104C39.318 173.104 39.7988 172.865 40.1543 172.387C40.5143 171.904 40.6943 171.188 40.6943 170.24ZM48.3574 166.604H49.6221V174H48.3574V168.606L44.9463 174H43.6816V166.604H44.9463V172.004L48.3574 166.604ZM7.00684 194H5.74219V187.649H2.33789V194H1.06641V186.604H7.00684V194ZM8.70215 190.233C8.70215 189.509 8.84342 188.857 9.12598 188.278C9.41309 187.7 9.80957 187.253 10.3154 186.938C10.8258 186.624 11.4069 186.467 12.0586 186.467C13.0658 186.467 13.8792 186.815 14.499 187.513C15.1234 188.21 15.4355 189.137 15.4355 190.295V190.384C15.4355 191.104 15.2965 191.751 15.0186 192.325C14.7451 192.895 14.3509 193.339 13.8359 193.658C13.3255 193.977 12.7376 194.137 12.0723 194.137C11.0697 194.137 10.2562 193.788 9.63184 193.091C9.01204 192.394 8.70215 191.471 8.70215 190.322V190.233ZM9.97363 190.384C9.97363 191.204 10.1628 191.863 10.541 192.359C10.9238 192.856 11.4342 193.104 12.0723 193.104C12.7148 193.104 13.2253 192.854 13.6035 192.353C13.9818 191.847 14.1709 191.14 14.1709 190.233C14.1709 189.422 13.9772 188.766 13.5898 188.265C13.207 187.759 12.6966 187.506 12.0586 187.506C11.4342 187.506 10.9307 187.754 10.5479 188.251C10.165 188.748 9.97363 189.459 9.97363 190.384ZM16.4678 192.968L16.9053 192.428C17.3975 191.79 17.6777 190.833 17.7461 189.557L17.8623 186.604H22.627V192.968H23.5771V196.174H22.3125V194H17.1514V196.174H15.8867L15.8936 192.968H16.4678ZM17.9648 192.968H21.3623V187.772H19.0859L19.0107 189.536C18.9333 191.008 18.5846 192.152 17.9648 192.968ZM27.46 189.304L29.1006 186.604H30.5771L28.1572 190.261L30.6523 194H29.1895L27.4805 191.231L25.7715 194H24.3018L26.7969 190.261L24.377 186.604H25.8398L27.46 189.304ZM31.4521 190.233C31.4521 189.509 31.5934 188.857 31.876 188.278C32.1631 187.7 32.5596 187.253 33.0654 186.938C33.5758 186.624 34.1569 186.467 34.8086 186.467C35.8158 186.467 36.6292 186.815 37.249 187.513C37.8734 188.21 38.1855 189.137 38.1855 190.295V190.384C38.1855 191.104 38.0465 191.751 37.7686 192.325C37.4951 192.895 37.1009 193.339 36.5859 193.658C36.0755 193.977 35.4876 194.137 34.8223 194.137C33.8197 194.137 33.0062 193.788 32.3818 193.091C31.762 192.394 31.4521 191.471 31.4521 190.322V190.233ZM32.7236 190.384C32.7236 191.204 32.9128 191.863 33.291 192.359C33.6738 192.856 34.1842 193.104 34.8223 193.104C35.4648 193.104 35.9753 192.854 36.3535 192.353C36.7318 191.847 36.9209 191.14 36.9209 190.233C36.9209 189.422 36.7272 188.766 36.3398 188.265C35.957 187.759 35.4466 187.506 34.8086 187.506C34.1842 187.506 33.6807 187.754 33.2979 188.251C32.915 188.748 32.7236 189.459 32.7236 190.384ZM39.2178 192.968L39.6553 192.428C40.1475 191.79 40.4277 190.833 40.4961 189.557L40.6123 186.604H45.377V192.968H46.3271V196.174H45.0625V194H39.9014V196.174H38.6367L38.6436 192.968H39.2178ZM40.7148 192.968H44.1123V187.772H41.8359L41.7607 189.536C41.6833 191.008 41.3346 192.152 40.7148 192.968ZM53.3818 186.604V194H52.1104V191.122H50.2031L48.46 194H47.0928L48.9521 190.931C48.4782 190.757 48.1136 190.491 47.8584 190.131C47.6077 189.766 47.4824 189.342 47.4824 188.859C47.4824 188.185 47.7354 187.643 48.2412 187.232C48.7471 186.818 49.4238 186.608 50.2715 186.604H53.3818ZM48.7539 188.873C48.7539 189.233 48.877 189.525 49.123 189.748C49.3691 189.967 49.695 190.078 50.1006 190.083H52.1104V187.629H50.292C49.8226 187.629 49.4489 187.745 49.1709 187.978C48.8929 188.205 48.7539 188.504 48.7539 188.873ZM56.7178 186.604V192.968H59.4248V186.604H60.6895V192.968H63.3896V186.604H64.6611V192.968H65.7002L65.5771 196.194H64.4424V194H55.4463V186.604H56.7178ZM69.4121 192.147L71.1348 186.604H72.4883L69.5146 195.142C69.0544 196.372 68.3229 196.987 67.3203 196.987L67.0811 196.967L66.6094 196.878V195.853L66.9512 195.88C67.3796 195.88 67.7122 195.793 67.9492 195.62C68.1908 195.447 68.389 195.13 68.5439 194.67L68.8242 193.918L66.1855 186.604H67.5664L69.4121 192.147ZM75.0039 189.741H76.7812C76.877 188.757 77.2256 187.966 77.8271 187.369C78.4333 186.768 79.1966 186.467 80.1172 186.467C81.0833 186.467 81.874 186.793 82.4893 187.444C83.1045 188.096 83.4372 188.944 83.4873 189.987L83.4941 190.384C83.4941 191.104 83.3529 191.753 83.0703 192.332C82.7878 192.911 82.3913 193.357 81.8809 193.672C81.3704 193.982 80.7871 194.137 80.1309 194.137C79.1784 194.137 78.3991 193.827 77.793 193.207C77.1868 192.583 76.8473 191.774 76.7744 190.78H75.0039V194H73.7393V186.604H75.0039V189.741ZM78.0254 190.384C78.0254 191.204 78.2145 191.863 78.5928 192.359C78.9756 192.856 79.4883 193.104 80.1309 193.104C80.7734 193.104 81.2816 192.852 81.6553 192.346C82.0335 191.84 82.2227 191.136 82.2227 190.233C82.2227 189.427 82.0312 188.771 81.6484 188.265C81.2656 187.759 80.7552 187.506 80.1172 187.506C79.4883 187.506 78.9824 187.754 78.5996 188.251C78.2168 188.748 78.0254 189.459 78.0254 190.384ZM7.00684 213H5.74219V206.649H2.33789V213H1.06641V205.604H7.00684V213ZM8.70215 209.233C8.70215 208.509 8.84342 207.857 9.12598 207.278C9.41309 206.7 9.80957 206.253 10.3154 205.938C10.8258 205.624 11.4069 205.467 12.0586 205.467C13.0658 205.467 13.8792 205.815 14.499 206.513C15.1234 207.21 15.4355 208.137 15.4355 209.295V209.384C15.4355 210.104 15.2965 210.751 15.0186 211.325C14.7451 211.895 14.3509 212.339 13.8359 212.658C13.3255 212.977 12.7376 213.137 12.0723 213.137C11.0697 213.137 10.2562 212.788 9.63184 212.091C9.01204 211.394 8.70215 210.471 8.70215 209.322V209.233ZM9.97363 209.384C9.97363 210.204 10.1628 210.863 10.541 211.359C10.9238 211.856 11.4342 212.104 12.0723 212.104C12.7148 212.104 13.2253 211.854 13.6035 211.353C13.9818 210.847 14.1709 210.14 14.1709 209.233C14.1709 208.422 13.9772 207.766 13.5898 207.265C13.207 206.759 12.6966 206.506 12.0586 206.506C11.4342 206.506 10.9307 206.754 10.5479 207.251C10.165 207.748 9.97363 208.459 9.97363 209.384ZM16.4678 211.968L16.9053 211.428C17.3975 210.79 17.6777 209.833 17.7461 208.557L17.8623 205.604H22.627V211.968H23.5771V215.174H22.3125V213H17.1514V215.174H15.8867L15.8936 211.968H16.4678ZM17.9648 211.968H21.3623V206.772H19.0859L19.0107 208.536C18.9333 210.008 18.5846 211.152 17.9648 211.968ZM31.0283 213H29.7637V206.649H26.3594V213H25.0879V205.604H31.0283V213ZM37.8438 205.604H39.1084V213H37.8438V207.606L34.4326 213H33.168V205.604H34.4326V211.004L37.8438 205.604ZM44.1055 212.104C44.5566 212.104 44.9508 211.968 45.2881 211.694C45.6253 211.421 45.8122 211.079 45.8486 210.669H47.0449C47.0221 211.093 46.8763 211.496 46.6074 211.879C46.3385 212.262 45.9785 212.567 45.5273 212.795C45.0807 213.023 44.6068 213.137 44.1055 213.137C43.0983 213.137 42.2962 212.802 41.6992 212.132C41.1068 211.457 40.8105 210.537 40.8105 209.37V209.158C40.8105 208.438 40.9427 207.798 41.207 207.237C41.4714 206.677 41.8496 206.242 42.3418 205.932C42.8385 205.622 43.4242 205.467 44.0986 205.467C44.9281 205.467 45.6162 205.715 46.1631 206.212C46.7145 206.709 47.0085 207.354 47.0449 208.146H45.8486C45.8122 207.668 45.6299 207.276 45.3018 206.971C44.9782 206.661 44.5771 206.506 44.0986 206.506C43.4561 206.506 42.957 206.738 42.6016 207.203C42.2507 207.663 42.0752 208.331 42.0752 209.206V209.445C42.0752 210.298 42.2507 210.954 42.6016 211.414C42.9525 211.874 43.4538 212.104 44.1055 212.104ZM50.7705 209.849H49.8477V213H48.5762V205.604H49.8477V208.734H50.6748L53.1631 205.604H54.6943L51.7686 209.158L54.9404 213H53.334L50.7705 209.849ZM58.4473 211.147L60.1699 205.604H61.5234L58.5498 214.142C58.0895 215.372 57.3581 215.987 56.3555 215.987L56.1162 215.967L55.6445 215.878V214.853L55.9863 214.88C56.4147 214.88 56.7474 214.793 56.9844 214.62C57.2259 214.447 57.4242 214.13 57.5791 213.67L57.8594 212.918L55.2207 205.604H56.6016L58.4473 211.147Z" fill="#1E253A"/>
<rect y="41" width="100" height="100" rx="15" fill="#EEEEEE"/>
<path fill-rule="evenodd" clip-rule="evenodd" d="M25 111.714H75V106.357H25V111.714Z" stroke="#1E253A" stroke-width="3" stroke-linecap="round" stroke-linejoin="round"/>
<path fill-rule="evenodd" clip-rule="evenodd" d="M26.7856 106.357H73.2142V72.4286H26.7856V106.357Z" stroke="#1E253A" stroke-width="3" stroke-linecap="round" stroke-linejoin="round"/>
<path fill-rule="evenodd" clip-rule="evenodd" d="M51.7859 65.2857H48.2144C47.2287 65.2857 46.4287 66.0857 46.4287 67.0714V72.4286H53.5716V67.0714C53.5716 66.0857 52.7734 65.2857 51.7859 65.2857Z" stroke="#1E253A" stroke-width="3" stroke-linecap="round" stroke-linejoin="round"/>
<path d="M49.9998 111.714V115.286" stroke="#1E253A" stroke-width="3" stroke-linecap="round" stroke-linejoin="round"/>
<path fill-rule="evenodd" clip-rule="evenodd" d="M51.7859 90.2857C51.7859 95.2143 47.7859 99.2143 42.8573 99.2143C37.9287 99.2143 33.9287 95.2143 33.9287 90.2857C33.9287 85.3571 37.9287 81.3571 42.8573 81.3571V90.2857H51.7859Z" stroke="#1E253A" stroke-width="3" stroke-linecap="round" stroke-linejoin="round"/>
<path fill-rule="evenodd" clip-rule="evenodd" d="M51.7855 90.2857H42.8569V81.3571C47.7855 81.3571 51.7855 85.3571 51.7855 90.2857Z" stroke="#FFC40E" stroke-width="3" stroke-linecap="round" stroke-linejoin="round"/>
<path d="M57.1431 86.7143H66.0716" stroke="#1E253A" stroke-width="3" stroke-linecap="round" stroke-linejoin="round"/>
<path d="M57.1431 93.8571H62.5002" stroke="#1E253A" stroke-width="3" stroke-linecap="round" stroke-linejoin="round"/>
<path d="M46.96 38.6C44.96 41.24 42.1733 42.56 38.6 42.56C35.0267 42.56 32.2267 41.24 30.2 38.6C28.2 35.9333 27.2 32.4 27.2 28C27.2 23.6 28.2 20.08 30.2 17.44C32.2267 14.7733 35.0267 13.44 38.6 13.44C42.1733 13.44 44.96 14.7733 46.96 17.44C48.9867 20.08 50 23.6 50 28C50 32.4 48.9867 35.9333 46.96 38.6ZM33.6 28C33.6 33.5467 35.2667 36.32 38.6 36.32C41.9333 36.32 43.6 33.5467 43.6 28C43.6 22.4533 41.9333 19.68 38.6 19.68C35.2667 19.68 33.6 22.4533 33.6 28ZM58.1341 14L63.7341 14L63.7341 42L57.3341 42L57.3341 20.76L52.3741 22.12L50.8141 16.64L58.1341 14Z" fill="#EEEEEE"/>
</svg>
