<svg width="155" height="359" viewBox="0 0 155 359" fill="none" xmlns="http://www.w3.org/2000/svg">
<path d="M10.8984 225.939C10.7402 227.293 10.2393 228.339 9.39551 229.077C8.55762 229.81 7.44141 230.176 6.04688 230.176C4.53516 230.176 3.32227 229.634 2.4082 228.55C1.5 227.466 1.0459 226.016 1.0459 224.199V222.969C1.0459 221.779 1.25684 220.733 1.67871 219.831C2.10645 218.929 2.70996 218.237 3.48926 217.757C4.26855 217.271 5.1709 217.027 6.19629 217.027C7.55566 217.027 8.64551 217.408 9.46582 218.17C10.2861 218.926 10.7637 219.975 10.8984 221.316H9.20215C9.05566 220.297 8.73633 219.559 8.24414 219.102C7.75781 218.645 7.0752 218.416 6.19629 218.416C5.11816 218.416 4.27148 218.814 3.65625 219.611C3.04688 220.408 2.74219 221.542 2.74219 223.013V224.252C2.74219 225.641 3.03223 226.745 3.6123 227.565C4.19238 228.386 5.00391 228.796 6.04688 228.796C6.98438 228.796 7.70215 228.585 8.2002 228.163C8.7041 227.735 9.03809 226.994 9.20215 225.939H10.8984ZM12.5244 225.157C12.5244 224.226 12.7061 223.388 13.0693 222.644C13.4385 221.899 13.9482 221.325 14.5986 220.921C15.2549 220.517 16.002 220.314 16.8398 220.314C18.1348 220.314 19.1807 220.763 19.9775 221.659C20.7803 222.556 21.1816 223.748 21.1816 225.236V225.351C21.1816 226.276 21.0029 227.108 20.6455 227.847C20.2939 228.579 19.7871 229.15 19.125 229.561C18.4688 229.971 17.7129 230.176 16.8574 230.176C15.5684 230.176 14.5225 229.728 13.7197 228.831C12.9229 227.935 12.5244 226.748 12.5244 225.271V225.157ZM14.1592 225.351C14.1592 226.405 14.4023 227.252 14.8887 227.891C15.3809 228.529 16.0371 228.849 16.8574 228.849C17.6836 228.849 18.3398 228.526 18.8262 227.882C19.3125 227.231 19.5557 226.323 19.5557 225.157C19.5557 224.114 19.3066 223.271 18.8086 222.626C18.3164 221.976 17.6602 221.65 16.8398 221.65C16.0371 221.65 15.3896 221.97 14.8975 222.608C14.4053 223.247 14.1592 224.161 14.1592 225.351ZM23.3701 230V220.49H27.0791C28.3447 220.49 29.3145 220.713 29.9883 221.158C30.668 221.598 31.0078 222.245 31.0078 223.101C31.0078 223.54 30.876 223.938 30.6123 224.296C30.3486 224.647 29.959 224.917 29.4434 225.104C30.0176 225.239 30.4775 225.503 30.8232 225.896C31.1748 226.288 31.3506 226.757 31.3506 227.302C31.3506 228.175 31.0283 228.843 30.3838 229.306C29.7451 229.769 28.8398 230 27.668 230H23.3701ZM24.9961 225.825V228.69H27.6855C28.3652 228.69 28.8721 228.564 29.2061 228.312C29.5459 228.061 29.7158 227.706 29.7158 227.249C29.7158 226.3 29.0186 225.825 27.624 225.825H24.9961ZM24.9961 224.524H27.0967C28.6201 224.524 29.3818 224.079 29.3818 223.188C29.3818 222.298 28.6611 221.838 27.2197 221.809H24.9961V224.524ZM37.4502 230.176C36.1611 230.176 35.1123 229.754 34.3037 228.91C33.4951 228.061 33.0908 226.927 33.0908 225.509V225.21C33.0908 224.267 33.2695 223.426 33.627 222.688C33.9902 221.943 34.4941 221.363 35.1387 220.947C35.7891 220.525 36.4922 220.314 37.248 220.314C38.4844 220.314 39.4453 220.722 40.1309 221.536C40.8164 222.351 41.1592 223.517 41.1592 225.034V225.711H34.7168C34.7402 226.648 35.0127 227.407 35.5342 227.987C36.0615 228.562 36.7295 228.849 37.5381 228.849C38.1123 228.849 38.5986 228.731 38.9971 228.497C39.3955 228.263 39.7441 227.952 40.043 227.565L41.0361 228.339C40.2393 229.563 39.0439 230.176 37.4502 230.176ZM37.248 221.65C36.5918 221.65 36.041 221.891 35.5957 222.371C35.1504 222.846 34.875 223.514 34.7695 224.375H39.5332V224.252C39.4863 223.426 39.2637 222.787 38.8652 222.336C38.4668 221.879 37.9277 221.65 37.248 221.65ZM51.082 225.351C51.082 226.798 50.751 227.964 50.0889 228.849C49.4268 229.733 48.5303 230.176 47.3994 230.176C46.2451 230.176 45.3369 229.81 44.6748 229.077V233.656H43.0488V220.49H44.5342L44.6133 221.545C45.2754 220.725 46.1953 220.314 47.373 220.314C48.5156 220.314 49.418 220.745 50.0801 221.606C50.748 222.468 51.082 223.666 51.082 225.201V225.351ZM49.4561 225.166C49.4561 224.094 49.2275 223.247 48.7705 222.626C48.3135 222.005 47.6865 221.694 46.8896 221.694C45.9053 221.694 45.167 222.131 44.6748 223.004V227.548C45.1611 228.415 45.9053 228.849 46.9072 228.849C47.6865 228.849 48.3047 228.541 48.7617 227.926C49.2246 227.305 49.4561 226.385 49.4561 225.166ZM54.9316 220.49V228.673H58.4121V220.49H60.0381V228.673H63.5098V220.49H65.1445V230H53.2969V220.49H54.9316ZM71.6572 230.176C70.3682 230.176 69.3193 229.754 68.5107 228.91C67.7021 228.061 67.2979 226.927 67.2979 225.509V225.21C67.2979 224.267 67.4766 223.426 67.834 222.688C68.1973 221.943 68.7012 221.363 69.3457 220.947C69.9961 220.525 70.6992 220.314 71.4551 220.314C72.6914 220.314 73.6523 220.722 74.3379 221.536C75.0234 222.351 75.3662 223.517 75.3662 225.034V225.711H68.9238C68.9473 226.648 69.2197 227.407 69.7412 227.987C70.2686 228.562 70.9365 228.849 71.7451 228.849C72.3193 228.849 72.8057 228.731 73.2041 228.497C73.6025 228.263 73.9512 227.952 74.25 227.565L75.2432 228.339C74.4463 229.563 73.251 230.176 71.6572 230.176ZM71.4551 221.65C70.7988 221.65 70.248 221.891 69.8027 222.371C69.3574 222.846 69.082 223.514 68.9766 224.375H73.7402V224.252C73.6934 223.426 73.4707 222.787 73.0723 222.336C72.6738 221.879 72.1348 221.65 71.4551 221.65ZM85.0254 230H83.3994V225.939H79.0312V230H77.3965V220.49H79.0312V224.612H83.3994V220.49H85.0254V230ZM95.4141 230H93.7881V225.939H89.4199V230H87.7852V220.49H89.4199V224.612H93.7881V220.49H95.4141V230ZM97.6025 225.157C97.6025 224.226 97.7842 223.388 98.1475 222.644C98.5166 221.899 99.0264 221.325 99.6768 220.921C100.333 220.517 101.08 220.314 101.918 220.314C103.213 220.314 104.259 220.763 105.056 221.659C105.858 222.556 106.26 223.748 106.26 225.236V225.351C106.26 226.276 106.081 227.108 105.724 227.847C105.372 228.579 104.865 229.15 104.203 229.561C103.547 229.971 102.791 230.176 101.936 230.176C100.646 230.176 99.6006 229.728 98.7979 228.831C98.001 227.935 97.6025 226.748 97.6025 225.271V225.157ZM99.2373 225.351C99.2373 226.405 99.4805 227.252 99.9668 227.891C100.459 228.529 101.115 228.849 101.936 228.849C102.762 228.849 103.418 228.526 103.904 227.882C104.391 227.231 104.634 226.323 104.634 225.157C104.634 224.114 104.385 223.271 103.887 222.626C103.395 221.976 102.738 221.65 101.918 221.65C101.115 221.65 100.468 221.97 99.9756 222.608C99.4834 223.247 99.2373 224.161 99.2373 225.351ZM5.40527 246.035C6.60059 246.035 7.55566 246.437 8.27051 247.239C8.99121 248.036 9.35156 249.088 9.35156 250.395V250.544C9.35156 251.44 9.17871 252.243 8.83301 252.952C8.4873 253.655 7.98926 254.203 7.33887 254.596C6.69434 254.982 5.9502 255.176 5.10645 255.176C3.8291 255.176 2.80078 254.751 2.02148 253.901C1.24219 253.046 0.852539 251.9 0.852539 250.465V249.674C0.852539 247.676 1.22168 246.088 1.95996 244.91C2.7041 243.732 3.7998 243.015 5.24707 242.757C6.06738 242.61 6.62109 242.432 6.9082 242.221C7.19531 242.01 7.33887 241.72 7.33887 241.351H8.6748C8.6748 242.083 8.50781 242.654 8.17383 243.064C7.8457 243.475 7.31836 243.765 6.5918 243.935L5.37891 244.207C4.41211 244.436 3.68555 244.822 3.19922 245.367C2.71875 245.906 2.40527 246.627 2.25879 247.529C3.12012 246.533 4.16895 246.035 5.40527 246.035ZM5.08887 247.371C4.29199 247.371 3.65918 247.641 3.19043 248.18C2.72168 248.713 2.4873 249.454 2.4873 250.403V250.544C2.4873 251.563 2.72168 252.372 3.19043 252.97C3.66504 253.562 4.30371 253.857 5.10645 253.857C5.91504 253.857 6.55371 253.559 7.02246 252.961C7.49121 252.363 7.72559 251.49 7.72559 250.342C7.72559 249.445 7.48828 248.728 7.01367 248.188C6.54492 247.644 5.90332 247.371 5.08887 247.371ZM15.126 255.176C13.8369 255.176 12.7881 254.754 11.9795 253.91C11.1709 253.061 10.7666 251.927 10.7666 250.509V250.21C10.7666 249.267 10.9453 248.426 11.3027 247.688C11.666 246.943 12.1699 246.363 12.8145 245.947C13.4648 245.525 14.168 245.314 14.9238 245.314C16.1602 245.314 17.1211 245.722 17.8066 246.536C18.4922 247.351 18.835 248.517 18.835 250.034V250.711H12.3926C12.416 251.648 12.6885 252.407 13.21 252.987C13.7373 253.562 14.4053 253.849 15.2139 253.849C15.7881 253.849 16.2744 253.731 16.6729 253.497C17.0713 253.263 17.4199 252.952 17.7188 252.565L18.7119 253.339C17.915 254.563 16.7197 255.176 15.126 255.176ZM14.9238 246.65C14.2676 246.65 13.7168 246.891 13.2715 247.371C12.8262 247.846 12.5508 248.514 12.4453 249.375H17.209V249.252C17.1621 248.426 16.9395 247.787 16.541 247.336C16.1426 246.879 15.6035 246.65 14.9238 246.65ZM24.5391 253.849C25.1191 253.849 25.626 253.673 26.0596 253.321C26.4932 252.97 26.7334 252.53 26.7803 252.003H28.3184C28.2891 252.548 28.1016 253.066 27.7559 253.559C27.4102 254.051 26.9473 254.443 26.3672 254.736C25.793 255.029 25.1836 255.176 24.5391 255.176C23.2441 255.176 22.2129 254.745 21.4453 253.884C20.6836 253.017 20.3027 251.833 20.3027 250.333V250.061C20.3027 249.135 20.4727 248.312 20.8125 247.591C21.1523 246.87 21.6387 246.311 22.2715 245.912C22.9102 245.514 23.6631 245.314 24.5303 245.314C25.5967 245.314 26.4814 245.634 27.1846 246.272C27.8936 246.911 28.2715 247.74 28.3184 248.76H26.7803C26.7334 248.145 26.499 247.641 26.0771 247.248C25.6611 246.85 25.1455 246.65 24.5303 246.65C23.7041 246.65 23.0625 246.949 22.6055 247.547C22.1543 248.139 21.9287 248.997 21.9287 250.122V250.43C21.9287 251.525 22.1543 252.369 22.6055 252.961C23.0566 253.553 23.7012 253.849 24.5391 253.849ZM37.9248 255H36.2988V246.835H31.9219V255H30.2871V245.49H37.9248V255ZM48.3311 245.49V255H46.6963V246.835H43.4619L43.2686 250.395C43.1631 252.029 42.8877 253.198 42.4424 253.901C42.0029 254.604 41.3027 254.971 40.3418 255H39.6914V253.567L40.1572 253.532C40.6846 253.474 41.0625 253.169 41.291 252.618C41.5195 252.067 41.666 251.048 41.7305 249.56L41.9062 245.49H48.3311ZM56.8125 255C56.7188 254.812 56.6426 254.479 56.584 253.998C55.8281 254.783 54.9258 255.176 53.877 255.176C52.9395 255.176 52.1689 254.912 51.5654 254.385C50.9678 253.852 50.6689 253.178 50.6689 252.363C50.6689 251.373 51.0439 250.605 51.7939 250.061C52.5498 249.51 53.6104 249.234 54.9756 249.234H56.5576V248.487C56.5576 247.919 56.3877 247.468 56.0479 247.134C55.708 246.794 55.207 246.624 54.5449 246.624C53.9648 246.624 53.4785 246.771 53.0859 247.063C52.6934 247.356 52.4971 247.711 52.4971 248.127H50.8623C50.8623 247.652 51.0293 247.195 51.3633 246.756C51.7031 246.311 52.1602 245.959 52.7344 245.701C53.3145 245.443 53.9502 245.314 54.6416 245.314C55.7373 245.314 56.5957 245.59 57.2168 246.141C57.8379 246.686 58.1602 247.438 58.1836 248.399V252.776C58.1836 253.649 58.2949 254.344 58.5176 254.859V255H56.8125ZM54.1143 253.761C54.624 253.761 55.1074 253.629 55.5645 253.365C56.0215 253.102 56.3525 252.759 56.5576 252.337V250.386H55.2832C53.291 250.386 52.2949 250.969 52.2949 252.135C52.2949 252.645 52.4648 253.043 52.8047 253.33C53.1445 253.617 53.5811 253.761 54.1143 253.761ZM67.6582 246.809H64.4678V255H62.8418V246.809H59.7129V245.49H67.6582V246.809ZM77.0098 255H75.3838V250.939H71.0156V255H69.3809V245.49H71.0156V249.612H75.3838V245.49H77.0098V255ZM79.1982 250.157C79.1982 249.226 79.3799 248.388 79.7432 247.644C80.1123 246.899 80.6221 246.325 81.2725 245.921C81.9287 245.517 82.6758 245.314 83.5137 245.314C84.8086 245.314 85.8545 245.763 86.6514 246.659C87.4541 247.556 87.8555 248.748 87.8555 250.236V250.351C87.8555 251.276 87.6768 252.108 87.3193 252.847C86.9678 253.579 86.4609 254.15 85.7988 254.561C85.1426 254.971 84.3867 255.176 83.5312 255.176C82.2422 255.176 81.1963 254.728 80.3936 253.831C79.5967 252.935 79.1982 251.748 79.1982 250.271V250.157ZM80.833 250.351C80.833 251.405 81.0762 252.252 81.5625 252.891C82.0547 253.529 82.7109 253.849 83.5312 253.849C84.3574 253.849 85.0137 253.526 85.5 252.882C85.9863 252.231 86.2295 251.323 86.2295 250.157C86.2295 249.114 85.9805 248.271 85.4824 247.626C84.9902 246.976 84.334 246.65 83.5137 246.65C82.7109 246.65 82.0635 246.97 81.5713 247.608C81.0791 248.247 80.833 249.161 80.833 250.351ZM102.138 255H100.512V246.835H96.1348V255H94.5V245.49H102.138V255ZM104.317 250.157C104.317 249.226 104.499 248.388 104.862 247.644C105.231 246.899 105.741 246.325 106.392 245.921C107.048 245.517 107.795 245.314 108.633 245.314C109.928 245.314 110.974 245.763 111.771 246.659C112.573 247.556 112.975 248.748 112.975 250.236V250.351C112.975 251.276 112.796 252.108 112.438 252.847C112.087 253.579 111.58 254.15 110.918 254.561C110.262 254.971 109.506 255.176 108.65 255.176C107.361 255.176 106.315 254.728 105.513 253.831C104.716 252.935 104.317 251.748 104.317 250.271V250.157ZM105.952 250.351C105.952 251.405 106.195 252.252 106.682 252.891C107.174 253.529 107.83 253.849 108.65 253.849C109.477 253.849 110.133 253.526 110.619 252.882C111.105 252.231 111.349 251.323 111.349 250.157C111.349 249.114 111.1 248.271 110.602 247.626C110.109 246.976 109.453 246.65 108.633 246.65C107.83 246.65 107.183 246.97 106.69 247.608C106.198 248.247 105.952 249.161 105.952 250.351ZM122.669 245.49V255H121.034V246.835H117.8L117.606 250.395C117.501 252.029 117.226 253.198 116.78 253.901C116.341 254.604 115.641 254.971 114.68 255H114.029V253.567L114.495 253.532C115.022 253.474 115.4 253.169 115.629 252.618C115.857 252.067 116.004 251.048 116.068 249.56L116.244 245.49H122.669ZM128.391 252.618L130.605 245.49H132.346L128.522 256.468C127.931 258.05 126.99 258.841 125.701 258.841L125.394 258.814L124.787 258.7V257.382L125.227 257.417C125.777 257.417 126.205 257.306 126.51 257.083C126.82 256.86 127.075 256.453 127.274 255.861L127.635 254.895L124.242 245.49H126.018L128.391 252.618ZM140.985 255H139.351V251.555C138.636 251.742 137.903 251.836 137.153 251.836C135.964 251.836 135.056 251.531 134.429 250.922C133.808 250.312 133.491 249.445 133.479 248.32V245.481H135.105V248.373C135.135 249.791 135.817 250.5 137.153 250.5C137.903 250.5 138.636 250.406 139.351 250.219V245.49H140.985V255ZM149.748 245.49H151.374V255H149.748V248.065L145.362 255H143.736V245.49H145.362V252.434L149.748 245.49ZM3.00586 270.49V278.673H6.48633V270.49H8.1123V278.673H11.584V270.49H13.2188V280H1.37109V270.49H3.00586ZM21.6562 280C21.5625 279.812 21.4863 279.479 21.4277 278.998C20.6719 279.783 19.7695 280.176 18.7207 280.176C17.7832 280.176 17.0127 279.912 16.4092 279.385C15.8115 278.852 15.5127 278.178 15.5127 277.363C15.5127 276.373 15.8877 275.605 16.6377 275.061C17.3936 274.51 18.4541 274.234 19.8193 274.234H21.4014V273.487C21.4014 272.919 21.2314 272.468 20.8916 272.134C20.5518 271.794 20.0508 271.624 19.3887 271.624C18.8086 271.624 18.3223 271.771 17.9297 272.063C17.5371 272.356 17.3408 272.711 17.3408 273.127H15.7061C15.7061 272.652 15.873 272.195 16.207 271.756C16.5469 271.311 17.0039 270.959 17.5781 270.701C18.1582 270.443 18.7939 270.314 19.4854 270.314C20.5811 270.314 21.4395 270.59 22.0605 271.141C22.6816 271.686 23.0039 272.438 23.0273 273.399V277.776C23.0273 278.649 23.1387 279.344 23.3613 279.859V280H21.6562ZM18.958 278.761C19.4678 278.761 19.9512 278.629 20.4082 278.365C20.8652 278.102 21.1963 277.759 21.4014 277.337V275.386H20.127C18.1348 275.386 17.1387 275.969 17.1387 277.135C17.1387 277.645 17.3086 278.043 17.6484 278.33C17.9883 278.617 18.4248 278.761 18.958 278.761ZM33.3457 280H31.7197V275.939H27.3516V280H25.7168V270.49H27.3516V274.612H31.7197V270.49H33.3457V280ZM39.7793 278.849C40.3594 278.849 40.8662 278.673 41.2998 278.321C41.7334 277.97 41.9736 277.53 42.0205 277.003H43.5586C43.5293 277.548 43.3418 278.066 42.9961 278.559C42.6504 279.051 42.1875 279.443 41.6074 279.736C41.0332 280.029 40.4238 280.176 39.7793 280.176C38.4844 280.176 37.4531 279.745 36.6855 278.884C35.9238 278.017 35.543 276.833 35.543 275.333V275.061C35.543 274.135 35.7129 273.312 36.0527 272.591C36.3926 271.87 36.8789 271.311 37.5117 270.912C38.1504 270.514 38.9033 270.314 39.7705 270.314C40.8369 270.314 41.7217 270.634 42.4248 271.272C43.1338 271.911 43.5117 272.74 43.5586 273.76H42.0205C41.9736 273.145 41.7393 272.641 41.3174 272.248C40.9014 271.85 40.3857 271.65 39.7705 271.65C38.9443 271.65 38.3027 271.949 37.8457 272.547C37.3945 273.139 37.1689 273.997 37.1689 275.122V275.43C37.1689 276.525 37.3945 277.369 37.8457 277.961C38.2969 278.553 38.9414 278.849 39.7793 278.849ZM57.8848 275.351C57.8848 276.798 57.5537 277.964 56.8916 278.849C56.2295 279.733 55.333 280.176 54.2021 280.176C53.0479 280.176 52.1396 279.81 51.4775 279.077V283.656H49.8516V270.49H51.3369L51.416 271.545C52.0781 270.725 52.998 270.314 54.1758 270.314C55.3184 270.314 56.2207 270.745 56.8828 271.606C57.5508 272.468 57.8848 273.666 57.8848 275.201V275.351ZM56.2588 275.166C56.2588 274.094 56.0303 273.247 55.5732 272.626C55.1162 272.005 54.4893 271.694 53.6924 271.694C52.708 271.694 51.9697 272.131 51.4775 273.004V277.548C51.9639 278.415 52.708 278.849 53.71 278.849C54.4893 278.849 55.1074 278.541 55.5645 277.926C56.0273 277.305 56.2588 276.385 56.2588 275.166ZM63.9053 280.176C62.6162 280.176 61.5674 279.754 60.7588 278.91C59.9502 278.061 59.5459 276.927 59.5459 275.509V275.21C59.5459 274.267 59.7246 273.426 60.082 272.688C60.4453 271.943 60.9492 271.363 61.5938 270.947C62.2441 270.525 62.9473 270.314 63.7031 270.314C64.9395 270.314 65.9004 270.722 66.5859 271.536C67.2715 272.351 67.6143 273.517 67.6143 275.034V275.711H61.1719C61.1953 276.648 61.4678 277.407 61.9893 277.987C62.5166 278.562 63.1846 278.849 63.9932 278.849C64.5674 278.849 65.0537 278.731 65.4521 278.497C65.8506 278.263 66.1992 277.952 66.498 277.565L67.4912 278.339C66.6943 279.563 65.499 280.176 63.9053 280.176ZM63.7031 271.65C63.0469 271.65 62.4961 271.891 62.0508 272.371C61.6055 272.846 61.3301 273.514 61.2246 274.375H65.9883V274.252C65.9414 273.426 65.7188 272.787 65.3203 272.336C64.9219 271.879 64.3828 271.65 63.7031 271.65ZM71.2793 270.49V278.673H74.7598V270.49H76.3857V278.673H79.8574V270.49H81.4922V280H69.6445V270.49H71.2793ZM90.2109 270.49H91.8369V280H90.2109V273.065L85.8252 280H84.1992V270.49H85.8252V277.434L90.2109 270.49ZM101.514 271.809H98.3232V280H96.6973V271.809H93.5684V270.49H101.514V271.809ZM104.871 273.769H107.341C108.419 273.78 109.271 274.062 109.898 274.612C110.525 275.163 110.839 275.91 110.839 276.854C110.839 277.803 110.517 278.564 109.872 279.139C109.228 279.713 108.36 280 107.271 280H103.245V270.49H104.871V273.769ZM104.871 275.096V278.673H107.288C107.897 278.673 108.369 278.518 108.703 278.207C109.037 277.891 109.204 277.46 109.204 276.915C109.204 276.388 109.04 275.957 108.712 275.623C108.39 275.283 107.936 275.107 107.35 275.096H104.871ZM5.04492 303.849C5.625 303.849 6.13184 303.673 6.56543 303.321C6.99902 302.97 7.23926 302.53 7.28613 302.003H8.82422C8.79492 302.548 8.60742 303.066 8.26172 303.559C7.91602 304.051 7.45312 304.443 6.87305 304.736C6.29883 305.029 5.68945 305.176 5.04492 305.176C3.75 305.176 2.71875 304.745 1.95117 303.884C1.18945 303.017 0.808594 301.833 0.808594 300.333V300.061C0.808594 299.135 0.978516 298.312 1.31836 297.591C1.6582 296.87 2.14453 296.311 2.77734 295.912C3.41602 295.514 4.16895 295.314 5.03613 295.314C6.10254 295.314 6.9873 295.634 7.69043 296.272C8.39941 296.911 8.77734 297.74 8.82422 298.76H7.28613C7.23926 298.145 7.00488 297.641 6.58301 297.248C6.16699 296.85 5.65137 296.65 5.03613 296.65C4.20996 296.65 3.56836 296.949 3.11133 297.547C2.66016 298.139 2.43457 298.997 2.43457 300.122V300.43C2.43457 301.525 2.66016 302.369 3.11133 302.961C3.5625 303.553 4.20703 303.849 5.04492 303.849ZM10.8018 305V295.49H14.5107C15.7764 295.49 16.7461 295.713 17.4199 296.158C18.0996 296.598 18.4395 297.245 18.4395 298.101C18.4395 298.54 18.3076 298.938 18.0439 299.296C17.7803 299.647 17.3906 299.917 16.875 300.104C17.4492 300.239 17.9092 300.503 18.2549 300.896C18.6064 301.288 18.7822 301.757 18.7822 302.302C18.7822 303.175 18.46 303.843 17.8154 304.306C17.1768 304.769 16.2715 305 15.0996 305H10.8018ZM12.4277 300.825V303.69H15.1172C15.7969 303.69 16.3037 303.564 16.6377 303.312C16.9775 303.061 17.1475 302.706 17.1475 302.249C17.1475 301.3 16.4502 300.825 15.0557 300.825H12.4277ZM12.4277 299.524H14.5283C16.0518 299.524 16.8135 299.079 16.8135 298.188C16.8135 297.298 16.0928 296.838 14.6514 296.809H12.4277V299.524ZM20.5049 300.157C20.5049 299.226 20.6865 298.388 21.0498 297.644C21.4189 296.899 21.9287 296.325 22.5791 295.921C23.2354 295.517 23.9824 295.314 24.8203 295.314C26.1152 295.314 27.1611 295.763 27.958 296.659C28.7607 297.556 29.1621 298.748 29.1621 300.236V300.351C29.1621 301.276 28.9834 302.108 28.626 302.847C28.2744 303.579 27.7676 304.15 27.1055 304.561C26.4492 304.971 25.6934 305.176 24.8379 305.176C23.5488 305.176 22.5029 304.728 21.7002 303.831C20.9033 302.935 20.5049 301.748 20.5049 300.271V300.157ZM22.1396 300.351C22.1396 301.405 22.3828 302.252 22.8691 302.891C23.3613 303.529 24.0176 303.849 24.8379 303.849C25.6641 303.849 26.3203 303.526 26.8066 302.882C27.293 302.231 27.5361 301.323 27.5361 300.157C27.5361 299.114 27.2871 298.271 26.7891 297.626C26.2969 296.976 25.6406 296.65 24.8203 296.65C24.0176 296.65 23.3701 296.97 22.8779 297.608C22.3857 298.247 22.1396 299.161 22.1396 300.351ZM37.3535 295.49H38.9795V305H37.3535V298.065L32.9678 305H31.3418V295.49H32.9678V302.434L37.3535 295.49ZM45.7031 300.421C45.7031 298.833 46.0107 297.585 46.626 296.677C47.2412 295.769 48.085 295.314 49.1572 295.314C49.6553 295.314 50.0918 295.399 50.4668 295.569V291.5H52.0928V295.622C52.5029 295.417 52.9834 295.314 53.5342 295.314C54.6123 295.314 55.459 295.769 56.0742 296.677C56.6895 297.585 56.9971 298.895 56.9971 300.605C56.9971 302.006 56.6895 303.119 56.0742 303.945C55.4648 304.771 54.624 305.185 53.5518 305.185C52.9834 305.185 52.4971 305.091 52.0928 304.903V308.656H50.4668V304.93C50.0801 305.1 49.6377 305.185 49.1396 305.185C48.0732 305.185 47.2324 304.771 46.6172 303.945C46.0078 303.119 45.7031 301.988 45.7031 300.553V300.421ZM55.3711 300.421C55.3711 299.226 55.166 298.3 54.7559 297.644C54.3457 296.981 53.7803 296.65 53.0596 296.65C52.6904 296.65 52.3682 296.709 52.0928 296.826V303.708C52.3564 303.808 52.6846 303.857 53.0771 303.857C53.8037 303.857 54.3662 303.576 54.7646 303.014C55.1689 302.451 55.3711 301.587 55.3711 300.421ZM47.3291 300.605C47.3291 301.672 47.5195 302.48 47.9004 303.031C48.2812 303.582 48.8291 303.857 49.5439 303.857C49.8838 303.857 50.1914 303.805 50.4668 303.699V296.8C50.2207 296.7 49.9189 296.65 49.5615 296.65C48.8467 296.65 48.2959 296.97 47.9092 297.608C47.5225 298.247 47.3291 299.246 47.3291 300.605ZM65.2676 295.49H66.8936V305H65.2676V298.065L60.8818 305H59.2559V295.49H60.8818V302.434L65.2676 295.49ZM77.2734 305H75.6475V300.939H71.2793V305H69.6445V295.49H71.2793V299.612H75.6475V295.49H77.2734V305ZM85.7637 305C85.6699 304.812 85.5938 304.479 85.5352 303.998C84.7793 304.783 83.877 305.176 82.8281 305.176C81.8906 305.176 81.1201 304.912 80.5166 304.385C79.9189 303.852 79.6201 303.178 79.6201 302.363C79.6201 301.373 79.9951 300.605 80.7451 300.061C81.501 299.51 82.5615 299.234 83.9268 299.234H85.5088V298.487C85.5088 297.919 85.3389 297.468 84.999 297.134C84.6592 296.794 84.1582 296.624 83.4961 296.624C82.916 296.624 82.4297 296.771 82.0371 297.063C81.6445 297.356 81.4482 297.711 81.4482 298.127H79.8135C79.8135 297.652 79.9805 297.195 80.3145 296.756C80.6543 296.311 81.1113 295.959 81.6855 295.701C82.2656 295.443 82.9014 295.314 83.5928 295.314C84.6885 295.314 85.5469 295.59 86.168 296.141C86.7891 296.686 87.1113 297.438 87.1348 298.399V302.776C87.1348 303.649 87.2461 304.344 87.4688 304.859V305H85.7637ZM83.0654 303.761C83.5752 303.761 84.0586 303.629 84.5156 303.365C84.9727 303.102 85.3037 302.759 85.5088 302.337V300.386H84.2344C82.2422 300.386 81.2461 300.969 81.2461 302.135C81.2461 302.645 81.416 303.043 81.7559 303.33C82.0957 303.617 82.5322 303.761 83.0654 303.761ZM97.4531 305H95.8271V300.939H91.459V305H89.8242V295.49H91.459V299.612H95.8271V295.49H97.4531V305ZM103.887 303.849C104.467 303.849 104.974 303.673 105.407 303.321C105.841 302.97 106.081 302.53 106.128 302.003H107.666C107.637 302.548 107.449 303.066 107.104 303.559C106.758 304.051 106.295 304.443 105.715 304.736C105.141 305.029 104.531 305.176 103.887 305.176C102.592 305.176 101.561 304.745 100.793 303.884C100.031 303.017 99.6504 301.833 99.6504 300.333V300.061C99.6504 299.135 99.8203 298.312 100.16 297.591C100.5 296.87 100.986 296.311 101.619 295.912C102.258 295.514 103.011 295.314 103.878 295.314C104.944 295.314 105.829 295.634 106.532 296.272C107.241 296.911 107.619 297.74 107.666 298.76H106.128C106.081 298.145 105.847 297.641 105.425 297.248C105.009 296.85 104.493 296.65 103.878 296.65C103.052 296.65 102.41 296.949 101.953 297.547C101.502 298.139 101.276 298.997 101.276 300.122V300.43C101.276 301.525 101.502 302.369 101.953 302.961C102.404 303.553 103.049 303.849 103.887 303.849ZM109.063 300.157C109.063 299.226 109.245 298.388 109.608 297.644C109.978 296.899 110.487 296.325 111.138 295.921C111.794 295.517 112.541 295.314 113.379 295.314C114.674 295.314 115.72 295.763 116.517 296.659C117.319 297.556 117.721 298.748 117.721 300.236V300.351C117.721 301.276 117.542 302.108 117.185 302.847C116.833 303.579 116.326 304.15 115.664 304.561C115.008 304.971 114.252 305.176 113.396 305.176C112.107 305.176 111.062 304.728 110.259 303.831C109.462 302.935 109.063 301.748 109.063 300.271V300.157ZM110.698 300.351C110.698 301.405 110.941 302.252 111.428 302.891C111.92 303.529 112.576 303.849 113.396 303.849C114.223 303.849 114.879 303.526 115.365 302.882C115.852 302.231 116.095 301.323 116.095 300.157C116.095 299.114 115.846 298.271 115.348 297.626C114.855 296.976 114.199 296.65 113.379 296.65C112.576 296.65 111.929 296.97 111.437 297.608C110.944 298.247 110.698 299.161 110.698 300.351ZM119.909 305V295.49H123.618C124.884 295.49 125.854 295.713 126.527 296.158C127.207 296.598 127.547 297.245 127.547 298.101C127.547 298.54 127.415 298.938 127.151 299.296C126.888 299.647 126.498 299.917 125.982 300.104C126.557 300.239 127.017 300.503 127.362 300.896C127.714 301.288 127.89 301.757 127.89 302.302C127.89 303.175 127.567 303.843 126.923 304.306C126.284 304.769 125.379 305 124.207 305H119.909ZM121.535 300.825V303.69H124.225C124.904 303.69 125.411 303.564 125.745 303.312C126.085 303.061 126.255 302.706 126.255 302.249C126.255 301.3 125.558 300.825 124.163 300.825H121.535ZM121.535 299.524H123.636C125.159 299.524 125.921 299.079 125.921 298.188C125.921 297.298 125.2 296.838 123.759 296.809H121.535V299.524ZM131.818 298.769H134.288C135.366 298.78 136.219 299.062 136.846 299.612C137.473 300.163 137.786 300.91 137.786 301.854C137.786 302.803 137.464 303.564 136.819 304.139C136.175 304.713 135.308 305 134.218 305H130.192V295.49H131.818V298.769ZM141.179 305H139.544V295.49H141.179V305ZM131.818 300.096V303.673H134.235C134.845 303.673 135.316 303.518 135.65 303.207C135.984 302.891 136.151 302.46 136.151 301.915C136.151 301.388 135.987 300.957 135.659 300.623C135.337 300.283 134.883 300.107 134.297 300.096H131.818ZM147.964 305.176C146.675 305.176 145.626 304.754 144.817 303.91C144.009 303.061 143.604 301.927 143.604 300.509V300.21C143.604 299.267 143.783 298.426 144.141 297.688C144.504 296.943 145.008 296.363 145.652 295.947C146.303 295.525 147.006 295.314 147.762 295.314C148.998 295.314 149.959 295.722 150.645 296.536C151.33 297.351 151.673 298.517 151.673 300.034V300.711H145.23C145.254 301.648 145.526 302.407 146.048 302.987C146.575 303.562 147.243 303.849 148.052 303.849C148.626 303.849 149.112 303.731 149.511 303.497C149.909 303.263 150.258 302.952 150.557 302.565L151.55 303.339C150.753 304.563 149.558 305.176 147.964 305.176ZM147.762 296.65C147.105 296.65 146.555 296.891 146.109 297.371C145.664 297.846 145.389 298.514 145.283 299.375H150.047V299.252C150 298.426 149.777 297.787 149.379 297.336C148.98 296.879 148.441 296.65 147.762 296.65ZM9.00879 330H7.38281V321.835H3.00586V330H1.37109V320.49H9.00879V330ZM19.6523 325.351C19.6523 326.798 19.3213 327.964 18.6592 328.849C17.9971 329.733 17.1006 330.176 15.9697 330.176C14.8154 330.176 13.9072 329.81 13.2451 329.077V333.656H11.6191V320.49H13.1045L13.1836 321.545C13.8457 320.725 14.7656 320.314 15.9434 320.314C17.0859 320.314 17.9883 320.745 18.6504 321.606C19.3184 322.468 19.6523 323.666 19.6523 325.201V325.351ZM18.0264 325.166C18.0264 324.094 17.7979 323.247 17.3408 322.626C16.8838 322.005 16.2568 321.694 15.46 321.694C14.4756 321.694 13.7373 322.131 13.2451 323.004V327.548C13.7314 328.415 14.4756 328.849 15.4775 328.849C16.2568 328.849 16.875 328.541 17.332 327.926C17.7949 327.305 18.0264 326.385 18.0264 325.166ZM21.2959 325.157C21.2959 324.226 21.4775 323.388 21.8408 322.644C22.21 321.899 22.7197 321.325 23.3701 320.921C24.0264 320.517 24.7734 320.314 25.6113 320.314C26.9062 320.314 27.9521 320.763 28.749 321.659C29.5518 322.556 29.9531 323.748 29.9531 325.236V325.351C29.9531 326.276 29.7744 327.108 29.417 327.847C29.0654 328.579 28.5586 329.15 27.8965 329.561C27.2402 329.971 26.4844 330.176 25.6289 330.176C24.3398 330.176 23.2939 329.728 22.4912 328.831C21.6943 327.935 21.2959 326.748 21.2959 325.271V325.157ZM22.9307 325.351C22.9307 326.405 23.1738 327.252 23.6602 327.891C24.1523 328.529 24.8086 328.849 25.6289 328.849C26.4551 328.849 27.1113 328.526 27.5977 327.882C28.084 327.231 28.3271 326.323 28.3271 325.157C28.3271 324.114 28.0781 323.271 27.5801 322.626C27.0879 321.976 26.4316 321.65 25.6113 321.65C24.8086 321.65 24.1611 321.97 23.6689 322.608C23.1768 323.247 22.9307 324.161 22.9307 325.351ZM36.167 321.035C37.3623 321.035 38.3174 321.437 39.0322 322.239C39.7529 323.036 40.1133 324.088 40.1133 325.395V325.544C40.1133 326.44 39.9404 327.243 39.5947 327.952C39.249 328.655 38.751 329.203 38.1006 329.596C37.4561 329.982 36.7119 330.176 35.8682 330.176C34.5908 330.176 33.5625 329.751 32.7832 328.901C32.0039 328.046 31.6143 326.9 31.6143 325.465V324.674C31.6143 322.676 31.9834 321.088 32.7217 319.91C33.4658 318.732 34.5615 318.015 36.0088 317.757C36.8291 317.61 37.3828 317.432 37.6699 317.221C37.957 317.01 38.1006 316.72 38.1006 316.351H39.4365C39.4365 317.083 39.2695 317.654 38.9355 318.064C38.6074 318.475 38.0801 318.765 37.3535 318.935L36.1406 319.207C35.1738 319.436 34.4473 319.822 33.9609 320.367C33.4805 320.906 33.167 321.627 33.0205 322.529C33.8818 321.533 34.9307 321.035 36.167 321.035ZM35.8506 322.371C35.0537 322.371 34.4209 322.641 33.9521 323.18C33.4834 323.713 33.249 324.454 33.249 325.403V325.544C33.249 326.563 33.4834 327.372 33.9521 327.97C34.4268 328.562 35.0654 328.857 35.8682 328.857C36.6768 328.857 37.3154 328.559 37.7842 327.961C38.2529 327.363 38.4873 326.49 38.4873 325.342C38.4873 324.445 38.25 323.728 37.7754 323.188C37.3066 322.644 36.665 322.371 35.8506 322.371ZM49.7373 320.49V330H48.1025V321.835H44.8682L44.6748 325.395C44.5693 327.029 44.2939 328.198 43.8486 328.901C43.4092 329.604 42.709 329.971 41.748 330H41.0977V328.567L41.5635 328.532C42.0908 328.474 42.4688 328.169 42.6973 327.618C42.9258 327.067 43.0723 326.048 43.1367 324.56L43.3125 320.49H49.7373ZM56.2939 330.176C55.0049 330.176 53.9561 329.754 53.1475 328.91C52.3389 328.061 51.9346 326.927 51.9346 325.509V325.21C51.9346 324.267 52.1133 323.426 52.4707 322.688C52.834 321.943 53.3379 321.363 53.9824 320.947C54.6328 320.525 55.3359 320.314 56.0918 320.314C57.3281 320.314 58.2891 320.722 58.9746 321.536C59.6602 322.351 60.0029 323.517 60.0029 325.034V325.711H53.5605C53.584 326.648 53.8564 327.407 54.3779 327.987C54.9053 328.562 55.5732 328.849 56.3818 328.849C56.9561 328.849 57.4424 328.731 57.8408 328.497C58.2393 328.263 58.5879 327.952 58.8867 327.565L59.8799 328.339C59.083 329.563 57.8877 330.176 56.2939 330.176ZM56.0918 321.65C55.4355 321.65 54.8848 321.891 54.4395 322.371C53.9941 322.846 53.7188 323.514 53.6133 324.375H58.377V324.252C58.3301 323.426 58.1074 322.787 57.709 322.336C57.3105 321.879 56.7715 321.65 56.0918 321.65ZM67.3682 327.847L70.6025 320.49H72.6328V330H71.0068V323.083L67.9307 330H66.8057L63.668 322.934V330H62.042V320.49H64.1514L67.3682 327.847ZM77.0273 323.769H79.4971C80.5752 323.78 81.4277 324.062 82.0547 324.612C82.6816 325.163 82.9951 325.91 82.9951 326.854C82.9951 327.803 82.6729 328.564 82.0283 329.139C81.3838 329.713 80.5166 330 79.4268 330H75.4014V320.49H77.0273V323.769ZM86.3877 330H84.7529V320.49H86.3877V330ZM77.0273 325.096V328.673H79.4443C80.0537 328.673 80.5254 328.518 80.8594 328.207C81.1934 327.891 81.3604 327.46 81.3604 326.915C81.3604 326.388 81.1963 325.957 80.8682 325.623C80.5459 325.283 80.0918 325.107 79.5059 325.096H77.0273ZM97.8662 321.035C99.0615 321.035 100.017 321.437 100.731 322.239C101.452 323.036 101.812 324.088 101.812 325.395V325.544C101.812 326.44 101.64 327.243 101.294 327.952C100.948 328.655 100.45 329.203 99.7998 329.596C99.1553 329.982 98.4111 330.176 97.5674 330.176C96.29 330.176 95.2617 329.751 94.4824 328.901C93.7031 328.046 93.3135 326.9 93.3135 325.465V324.674C93.3135 322.676 93.6826 321.088 94.4209 319.91C95.165 318.732 96.2607 318.015 97.708 317.757C98.5283 317.61 99.082 317.432 99.3691 317.221C99.6562 317.01 99.7998 316.72 99.7998 316.351H101.136C101.136 317.083 100.969 317.654 100.635 318.064C100.307 318.475 99.7793 318.765 99.0527 318.935L97.8398 319.207C96.873 319.436 96.1465 319.822 95.6602 320.367C95.1797 320.906 94.8662 321.627 94.7197 322.529C95.5811 321.533 96.6299 321.035 97.8662 321.035ZM97.5498 322.371C96.7529 322.371 96.1201 322.641 95.6514 323.18C95.1826 323.713 94.9482 324.454 94.9482 325.403V325.544C94.9482 326.563 95.1826 327.372 95.6514 327.97C96.126 328.562 96.7646 328.857 97.5674 328.857C98.376 328.857 99.0146 328.559 99.4834 327.961C99.9521 327.363 100.187 326.49 100.187 325.342C100.187 324.445 99.9492 323.728 99.4746 323.188C99.0059 322.644 98.3643 322.371 97.5498 322.371ZM105.416 323.769H107.886C108.964 323.78 109.816 324.062 110.443 324.612C111.07 325.163 111.384 325.91 111.384 326.854C111.384 327.803 111.062 328.564 110.417 329.139C109.772 329.713 108.905 330 107.815 330H103.79V320.49H105.416V323.769ZM114.776 330H113.142V320.49H114.776V330ZM105.416 325.096V328.673H107.833C108.442 328.673 108.914 328.518 109.248 328.207C109.582 327.891 109.749 327.46 109.749 326.915C109.749 326.388 109.585 325.957 109.257 325.623C108.935 325.283 108.48 325.107 107.895 325.096H105.416ZM121.43 328.849C122.01 328.849 122.517 328.673 122.95 328.321C123.384 327.97 123.624 327.53 123.671 327.003H125.209C125.18 327.548 124.992 328.066 124.646 328.559C124.301 329.051 123.838 329.443 123.258 329.736C122.684 330.029 122.074 330.176 121.43 330.176C120.135 330.176 119.104 329.745 118.336 328.884C117.574 328.017 117.193 326.833 117.193 325.333V325.061C117.193 324.135 117.363 323.312 117.703 322.591C118.043 321.87 118.529 321.311 119.162 320.912C119.801 320.514 120.554 320.314 121.421 320.314C122.487 320.314 123.372 320.634 124.075 321.272C124.784 321.911 125.162 322.74 125.209 323.76H123.671C123.624 323.145 123.39 322.641 122.968 322.248C122.552 321.85 122.036 321.65 121.421 321.65C120.595 321.65 119.953 321.949 119.496 322.547C119.045 323.139 118.819 323.997 118.819 325.122V325.43C118.819 326.525 119.045 327.369 119.496 327.961C119.947 328.553 120.592 328.849 121.43 328.849ZM134.104 321.809H130.913V330H129.287V321.809H126.158V320.49H134.104V321.809ZM143.719 325.351C143.719 326.798 143.388 327.964 142.726 328.849C142.063 329.733 141.167 330.176 140.036 330.176C138.882 330.176 137.974 329.81 137.312 329.077V333.656H135.686V320.49H137.171L137.25 321.545C137.912 320.725 138.832 320.314 140.01 320.314C141.152 320.314 142.055 320.745 142.717 321.606C143.385 322.468 143.719 323.666 143.719 325.201V325.351ZM142.093 325.166C142.093 324.094 141.864 323.247 141.407 322.626C140.95 322.005 140.323 321.694 139.526 321.694C138.542 321.694 137.804 322.131 137.312 323.004V327.548C137.798 328.415 138.542 328.849 139.544 328.849C140.323 328.849 140.941 328.541 141.398 327.926C141.861 327.305 142.093 326.385 142.093 325.166ZM145.362 325.157C145.362 324.226 145.544 323.388 145.907 322.644C146.276 321.899 146.786 321.325 147.437 320.921C148.093 320.517 148.84 320.314 149.678 320.314C150.973 320.314 152.019 320.763 152.815 321.659C153.618 322.556 154.02 323.748 154.02 325.236V325.351C154.02 326.276 153.841 327.108 153.483 327.847C153.132 328.579 152.625 329.15 151.963 329.561C151.307 329.971 150.551 330.176 149.695 330.176C148.406 330.176 147.36 329.728 146.558 328.831C145.761 327.935 145.362 326.748 145.362 325.271V325.157ZM146.997 325.351C146.997 326.405 147.24 327.252 147.727 327.891C148.219 328.529 148.875 328.849 149.695 328.849C150.521 328.849 151.178 328.526 151.664 327.882C152.15 327.231 152.394 326.323 152.394 325.157C152.394 324.114 152.145 323.271 151.646 322.626C151.154 321.976 150.498 321.65 149.678 321.65C148.875 321.65 148.228 321.97 147.735 322.608C147.243 323.247 146.997 324.161 146.997 325.351ZM7.38281 346.49H9.00879V356H7.38281V349.065L2.99707 356H1.37109V346.49H2.99707V353.434L7.38281 346.49ZM23.8799 346.49V356H22.2451V347.835H19.0107L18.8174 351.395C18.7119 353.029 18.4365 354.198 17.9912 354.901C17.5518 355.604 16.8516 355.971 15.8906 356H15.2402V354.567L15.7061 354.532C16.2334 354.474 16.6113 354.169 16.8398 353.618C17.0684 353.067 17.2148 352.048 17.2793 350.56L17.4551 346.49H23.8799ZM30.4365 356.176C29.1475 356.176 28.0986 355.754 27.29 354.91C26.4814 354.061 26.0771 352.927 26.0771 351.509V351.21C26.0771 350.267 26.2559 349.426 26.6133 348.688C26.9766 347.943 27.4805 347.363 28.125 346.947C28.7754 346.525 29.4785 346.314 30.2344 346.314C31.4707 346.314 32.4316 346.722 33.1172 347.536C33.8027 348.351 34.1455 349.517 34.1455 351.034V351.711H27.7031C27.7266 352.648 27.999 353.407 28.5205 353.987C29.0479 354.562 29.7158 354.849 30.5244 354.849C31.0986 354.849 31.585 354.731 31.9834 354.497C32.3818 354.263 32.7305 353.952 33.0293 353.565L34.0225 354.339C33.2256 355.563 32.0303 356.176 30.4365 356.176ZM30.2344 347.65C29.5781 347.65 29.0273 347.891 28.582 348.371C28.1367 348.846 27.8613 349.514 27.7559 350.375H32.5195V350.252C32.4727 349.426 32.25 348.787 31.8516 348.336C31.4531 347.879 30.9141 347.65 30.2344 347.65ZM42.1787 347.835H37.793V356H36.1582V346.49H42.1787V347.835ZM46.5557 351.948H45.3691V356H43.7344V346.49H45.3691V350.516H46.4326L49.6318 346.49H51.6006L47.8389 351.061L51.917 356H49.8516L46.5557 351.948ZM52.6904 351.157C52.6904 350.226 52.8721 349.388 53.2354 348.644C53.6045 347.899 54.1143 347.325 54.7646 346.921C55.4209 346.517 56.168 346.314 57.0059 346.314C58.3008 346.314 59.3467 346.763 60.1436 347.659C60.9463 348.556 61.3477 349.748 61.3477 351.236V351.351C61.3477 352.276 61.1689 353.108 60.8115 353.847C60.46 354.579 59.9531 355.15 59.291 355.561C58.6348 355.971 57.8789 356.176 57.0234 356.176C55.7344 356.176 54.6885 355.728 53.8857 354.831C53.0889 353.935 52.6904 352.748 52.6904 351.271V351.157ZM54.3252 351.351C54.3252 352.405 54.5684 353.252 55.0547 353.891C55.5469 354.529 56.2031 354.849 57.0234 354.849C57.8496 354.849 58.5059 354.526 58.9922 353.882C59.4785 353.231 59.7217 352.323 59.7217 351.157C59.7217 350.114 59.4727 349.271 58.9746 348.626C58.4824 347.976 57.8262 347.65 57.0059 347.65C56.2031 347.65 55.5557 347.97 55.0635 348.608C54.5713 349.247 54.3252 350.161 54.3252 351.351Z" fill="#1E253A"/>
<rect y="48" width="140" height="140" rx="25" fill="#EEEEEE"/>
<path d="M65.2 47.75C62.7 51.05 59.2167 52.7 54.75 52.7C50.2833 52.7 46.7833 51.05 44.25 47.75C41.75 44.4167 40.5 40 40.5 34.5C40.5 29 41.75 24.6 44.25 21.3C46.7833 17.9667 50.2833 16.3 54.75 16.3C59.2167 16.3 62.7 17.9667 65.2 21.3C67.7333 24.6 69 29 69 34.5C69 40 67.7333 44.4167 65.2 47.75ZM48.5 34.5C48.5 41.4333 50.5833 44.9 54.75 44.9C58.9167 44.9 61 41.4333 61 34.5C61 27.5667 58.9167 24.1 54.75 24.1C50.5833 24.1 48.5 27.5667 48.5 34.5ZM87.5305 31.2C89.7638 31.9667 91.5638 33.2167 92.9305 34.95C94.2971 36.65 94.9805 38.6667 94.9805 41C94.9805 44.6667 93.7471 47.5333 91.2805 49.6C88.8138 51.6667 85.7971 52.7 82.2305 52.7C79.4638 52.7 76.9805 52.0667 74.7805 50.8C72.6138 49.5333 71.0138 47.6667 69.9805 45.2L76.8805 41.2C77.7471 43.6667 79.5305 44.9 82.2305 44.9C83.7971 44.9 84.9805 44.5333 85.7805 43.8C86.5805 43.0667 86.9805 42.1333 86.9805 41C86.9805 39.8667 86.5805 38.9333 85.7805 38.2C84.9805 37.4667 83.7971 37.1 82.2305 37.1L80.5805 37.1L77.5305 32.55L83.8805 24.5L71.0805 24.5L71.0805 17L93.5805 17L93.5805 23.5L87.5305 31.2Z" fill="#EEEEEE"/>
<path fill-rule="evenodd" clip-rule="evenodd" d="M91.5 97.5C91.5 107.165 83.665 115 74 115C64.335 115 56.5 107.165 56.5 97.5C56.5 87.835 64.335 80 74 80C83.665 80 91.5 87.835 91.5 97.5Z" stroke="#1E253A" stroke-width="3" stroke-linecap="round" stroke-linejoin="round"/>
<path d="M78.795 92.235C78.265 90.645 76.765 89.5 75 89.5H73C70.7925 89.5 69 91.29 69 93.5C69 95.71 70.7925 97.5 73 97.5H75C77.2075 97.5 79 99.29 79 101.5C79 103.71 77.2075 105.5 75 105.5H73C71.185 105.5 69.6525 104.29 69.1625 102.632" stroke="#FFC40E" stroke-width="3" stroke-linecap="round" stroke-linejoin="round"/>
<path d="M73.9999 106.25L73.9999 108.75" stroke="#FFC40E" stroke-width="3" stroke-linecap="round" stroke-linejoin="round"/>
<path d="M73.9999 86.2993L73.9999 88.7993" stroke="#FFC40E" stroke-width="3" stroke-linecap="round" stroke-linejoin="round"/>
<path d="M65.86 137.5H74C76.76 137.5 79 135.26 79 132.5C79 129.74 76.76 127.5 74 127.5H61.5C61.5 127.5 54 122.5 49 122.5C44 122.5 39 127.5 39 127.5V150H79L109 132.5C109 128.932 105.37 126.513 102.075 127.885L79 137.5H59" stroke="#1E253A" stroke-width="3" stroke-linecap="round" stroke-linejoin="round"/>
</svg>
