<svg width="981" height="713" viewBox="0 0 981 713" fill="none" xmlns="http://www.w3.org/2000/svg">
<path d="M541.218 599.339C480.05 595.376 136.835 617.551 205.648 661.899C274.461 706.248 528.376 735.813 493.17 689.987C457.962 644.16 892.078 676.682 846.203 636.769C800.328 596.856 541.218 599.339 541.218 599.339Z" fill="#E8F4F4"/>
<path d="M376.807 339.656C376.807 339.656 386.88 320.289 388.446 313.181C390.011 306.072 395.42 270.263 394.951 267.975C394.482 265.687 385.939 260.121 386.993 258.162C388.046 256.203 396.201 256.199 398.071 256.367C399.94 256.535 403.673 257.62 405.294 258.946C406.915 260.271 403.487 303.175 402.468 312.415C401.45 321.654 388.932 350.102 388.932 350.102L376.807 339.656Z" fill="#E9D6B8"/>
<path d="M394.993 258.13C394.769 258.27 393.922 258.519 393.726 258.701L392.175 259.187C392.175 259.187 396.156 259.085 398.505 261.608C397.623 260.19 396.42 258.999 394.993 258.13Z" fill="#F47257"/>
<path d="M585.424 265.907C586.986 264.717 587.78 261.733 588.116 259.806L588.904 257.269C588.306 256.993 576.461 254.747 572.868 254.488C572.466 255.611 572.245 256.563 572.329 257.182C572.728 260.142 575.603 279.383 575.603 279.383L585.862 280.058C585.862 280.058 584.164 268.65 585.424 265.907Z" fill="#E9D6B8"/>
<path d="M585.683 257.829C585.683 257.829 583.582 258.788 581.215 261.622C581.215 261.622 575.581 257.637 575.837 256.468C576.187 254.919 581.982 258.092 581.982 258.092L585.683 257.829Z" fill="#F47458"/>
<path d="M626.148 137.465H323.366V259.19H626.148V137.465Z" fill="#137F7F"/>
<path d="M621.645 254.692V141.967L327.872 141.967V254.692H621.645Z" fill="#79CCCA"/>
<path d="M626.148 137.465H323.366V170.552H626.148V137.465Z" fill="#137F7F"/>
<path d="M635.724 539.186C635.724 539.186 649.53 549.131 651.701 552.098C654.852 556.369 628.315 564.342 631.207 559.357C631.876 558.206 633.784 554.337 633.865 553.956C634.31 551.916 628.687 546.431 628.687 546.431L635.724 539.186Z" fill="#E9D6B8"/>
<path d="M624.037 567.718L633.41 554.484C633.41 554.484 639.264 553.126 645.269 546.375C645.269 546.375 650.668 548.432 653.991 552.895C649.018 558.044 643.69 562.837 638.046 567.239C633.992 570.613 629.367 573.237 624.39 574.988C616.47 577.678 624.037 567.718 624.037 567.718Z" fill="#2A425B"/>
<path d="M748.439 293.863C748.439 293.863 744.871 299.743 744.472 299.387C744.168 299.11 746.3 296.011 747.812 292.257C748.205 291.291 748.583 290.336 748.926 289.458C749.829 287.149 748.716 285.96 747.399 288.223C746.788 289.248 746.249 290.314 745.785 291.414C745.358 292.533 744.616 293.429 744.115 294.317C743.124 296.067 742.424 297.375 742.364 297.295C742.305 297.214 741.867 297.403 742.252 296.367C742.711 295.119 744.255 292.68 744.794 290.795C745.102 289.724 745.873 287.531 745.873 287.531C745.873 287.531 746.436 284.001 746.247 283.903C745.218 283.368 744.175 285.68 743.943 287.184C743.317 288.076 742.567 290.406 742.567 290.406C742.567 290.406 740.033 294.8 739.416 294.454C739.161 294.31 740.407 291.431 741.198 288.423C741.934 285.624 742.249 282.692 741.72 282.475C740.848 282.101 739.71 285.12 739.71 285.12C739.71 285.12 739.01 287.279 738.744 287.978C738.411 288.797 737.242 291.179 737.242 291.179C737.242 291.179 732.69 299.226 732.13 298.876C731.57 298.526 730.705 297.001 730.813 296.406C730.922 295.811 731.675 294.811 731.783 294.213C731.892 293.614 731.531 292.754 730.831 292.579C730.131 292.404 728.534 295.105 728.534 295.105C728.534 295.105 727.256 297.309 727.225 299.072C727.106 305.173 728.103 304.932 728.068 305.719C728.026 306.642 720.954 316.833 720.954 316.833L720.817 316.99L729.22 323.092C732.021 318.544 734.199 314.979 734.822 313.863C734.822 313.863 739.024 310.267 741.608 307.916C744.192 305.565 745.628 302.189 746.258 301.416C747.718 299.312 748.923 297.042 749.847 294.653C751.216 291.211 748.439 293.863 748.439 293.863Z" fill="#E9D6B8"/>
<path d="M656.819 437.313L654.634 448.105L599.747 497.988L639.039 537.719L628.426 548.564C628.426 548.564 570.395 505.986 568.305 500.409C565.084 491.807 609.901 434.906 609.901 434.906L656.819 437.313Z" fill="#137F7F"/>
<path d="M697.257 569.02C697.257 569.02 711.059 578.965 713.233 581.932C716.384 586.203 689.848 594.197 692.74 589.195C693.409 588.044 695.317 584.171 695.397 583.79C695.842 581.754 690.219 576.265 690.219 576.265L697.257 569.02Z" fill="#E9D6B8"/>
<path d="M685.562 597.605L694.939 584.37C694.939 584.37 701.164 583.251 707.172 576.499C707.172 576.499 712.197 578.318 715.52 582.779C710.548 587.934 705.219 592.733 699.575 597.143C695.52 600.515 690.896 603.138 685.919 604.888C677.992 607.561 685.562 597.605 685.562 597.605Z" fill="#2A425B"/>
<path d="M654.957 441.987L655.815 512.888L699.414 567.54L689.155 578.934C689.155 578.934 635.161 534.081 629.247 521.211C625.578 513.228 612.213 437.719 612.213 437.719L654.957 441.987Z" fill="#137F7F"/>
<path d="M610.682 436.4C615.147 426.332 614.628 354.161 632.006 337.253C638.119 338.302 642.478 338.862 643.497 339.132C644.404 346.566 645.402 373.849 646.014 398.852C646.424 415.511 646.014 432.979 648.056 442.19C649.327 447.896 606.603 445.594 610.682 436.4Z" fill="#FFCF50"/>
<path d="M627.976 341.479C627.976 341.479 620.924 361.531 615.119 358.642C609.314 355.752 576.706 322.549 576.383 320.933C576.061 319.317 573.803 278.557 573.803 278.557L586.702 275.986L594.118 309.374C594.118 309.374 617.979 332.17 622.829 334.416C624.219 335.056 625.422 336.041 626.323 337.277C627.224 338.514 627.793 339.96 627.976 341.479Z" fill="#36506B"/>
<path d="M608.935 441.224C605.031 441.224 603.589 440.685 600.991 439.902C600.991 439.902 603.792 399.461 612.104 356.508C615.255 340.314 616.04 333.38 622.815 334.566C624.772 334.916 630.076 336.927 632.006 337.253C614.986 385.369 614.926 422.403 612.517 433.143C611.306 438.53 610.252 441.259 608.935 441.224Z" fill="#2A425B"/>
<path d="M633.798 329.983L632.016 337.242C632.016 337.242 631.61 343.571 634.551 344.141C638.094 344.841 643.364 339.527 643.364 339.527L646.417 319.026L633.798 329.983Z" fill="#E9D6B8"/>
<path d="M634.023 330.206L632.241 337.465C632.241 337.465 631.835 343.794 634.776 344.364C638.32 345.064 643.589 339.75 643.589 339.75L646.642 319.25L634.023 330.206Z" fill="#E9D6B8"/>
<path d="M646.386 319.128L633.799 329.973L632.468 335.406C637.279 334.258 644.138 328.969 646.386 319.128Z" fill="#DFCAA8"/>
<path d="M633.742 300.268C630.7 300.268 627.962 302.367 626.89 305.404C625.679 308.827 624.761 312.348 624.145 315.927C622.811 323.812 627.297 331.029 631.214 331.603C635.132 332.177 644.439 329.591 646.498 318.425C647.38 313.639 648.543 307.359 644.6 304.06C641.55 301.493 637.244 300.279 633.742 300.268Z" fill="#E9D6B8"/>
<path d="M645.241 326.936C645.241 326.936 659.022 314.664 659.624 305.075C660.226 295.486 651.365 290.354 643.788 290.084C640.688 289.966 637.584 290.126 634.513 290.563C626.922 291.519 622.002 294.884 623.732 301.097C626.057 309.441 641.813 302.402 645.038 304.991C647.695 307.128 643.385 312.267 645.969 314.23C648.395 316.074 647.159 315.447 646.354 318.953C645.811 321.587 645.439 324.254 645.241 326.936Z" fill="#2A425B"/>
<path d="M650.549 315.818C650.199 318.113 648.798 319.81 647.398 319.607C645.997 319.404 645.153 317.372 645.496 315.059C645.839 312.747 647.247 311.068 648.647 311.274C650.048 311.48 650.899 313.52 650.549 315.818Z" fill="#E9D6B8"/>
<path d="M587.798 253.96C586.558 251.798 584.717 254.02 585.911 256.829C585.941 256.936 585.941 257.05 585.911 257.158C585.599 257.896 582.735 260.18 582.735 260.18C582.735 260.18 585.032 266.6 586.324 264.914C587.616 263.227 588.596 257.756 588.596 257.756L587.798 253.96Z" fill="#E9D6B8"/>
<path d="M733.076 319.621L723.688 310.34C723.688 310.34 705.856 335.909 696.812 340.345C688.02 344.659 658.742 343.092 657.713 342.857C654.211 342.056 643.413 339.107 643.413 339.107C643.413 339.107 634.366 416.701 646.151 443.68C650.003 452.478 673.913 446.643 673.913 446.643C673.913 446.643 666.533 414.336 666.141 410.106C665.762 406.062 663.711 374.021 664.04 373.692C664.901 372.831 697.548 365.719 706.497 358.929C715.947 351.753 733.076 319.621 733.076 319.621Z" fill="#2A425B"/>
<path d="M393.235 262.402L392.577 259.785C390.968 259.789 389.369 259.536 387.84 259.036L385.081 257.004C384.499 256.752 383.68 257.385 383.68 258.018C383.68 258.652 384.461 259.841 384.853 260.152C384.853 260.152 389.787 264.214 391.506 265.445C392.367 266.058 395.07 267.705 395.07 267.705L396.642 264.763L393.235 262.402Z" fill="#E9D6B8"/>
<path d="M573.803 199.347L579.167 195.132L582.171 201.254L588.838 199.785L588.883 206.603L595.529 208.167L592.609 214.331L597.917 218.62L592.609 222.909L595.529 229.073L588.883 230.637L588.838 237.459L582.171 235.986L579.167 242.111L573.803 237.896L568.435 242.111L565.431 235.986L558.768 237.459L558.719 230.637L552.077 229.073L554.994 222.909L549.689 218.62L554.994 214.331L552.077 208.167L558.719 206.603L558.768 199.785L565.431 201.254L568.435 195.132L573.803 199.347Z" fill="#137F7F"/>
<path d="M573.803 205.274L577.518 202.356L579.598 206.596L584.212 205.578L584.244 210.301L588.845 211.382L586.824 215.65L590.497 218.62L586.824 221.59L588.845 225.858L584.244 226.942L584.212 231.665L579.598 230.644L577.518 234.884L573.803 231.966L570.088 234.884L568.008 230.644L563.393 231.665L563.358 226.942L558.761 225.858L560.781 221.59L557.105 218.62L560.781 215.65L558.761 211.382L563.358 210.301L563.393 205.578L568.008 206.596L570.088 202.356L573.803 205.274Z" fill="white"/>
<path d="M585.672 146.512H356.527V163.111H585.672V146.512Z" fill="white"/>
<path d="M383.456 221.975V200.089L379.125 202.426L378.232 198.91L384.184 195.73H387.675V221.975H383.456Z" fill="#137F7F"/>
<path d="M414.51 222.401C409.135 222.401 405.756 217.241 405.669 208.932C405.669 204.759 406.555 201.289 408.228 198.892C409.902 196.496 412.195 195.299 414.94 195.299C416.255 195.273 417.554 195.591 418.708 196.221C419.862 196.851 420.831 197.772 421.519 198.892C423.018 201.201 423.781 204.458 423.781 208.579C423.781 217.364 420.402 222.401 414.51 222.401ZM414.744 198.85C411.821 198.85 410.003 202.726 410.003 208.967C410.003 215.065 411.807 218.85 414.706 218.85C418.83 218.85 419.446 212.511 419.446 208.733C419.46 205.042 418.834 198.85 414.744 198.85Z" fill="#137F7F"/>
<path d="M434.516 222.401C429.138 222.401 425.763 217.241 425.675 208.933C425.675 204.759 426.558 201.289 428.235 198.892C429.912 196.496 432.198 195.299 434.943 195.299C436.258 195.272 437.558 195.589 438.712 196.22C439.866 196.85 440.835 197.772 441.522 198.892C443.024 201.201 443.784 204.458 443.784 208.579C443.798 217.364 440.419 222.401 434.516 222.401ZM434.751 198.85C431.827 198.85 430.01 202.727 430.01 208.968C430.01 215.065 431.81 218.85 434.709 218.85C438.833 218.85 439.45 212.511 439.45 208.733C439.464 205.042 438.854 198.85 434.765 198.85H434.751Z" fill="#137F7F"/>
<path d="M454.547 222.401C449.173 222.401 445.794 217.241 445.707 208.933C445.707 204.759 446.592 201.289 448.266 198.892C449.94 196.496 452.233 195.299 454.978 195.299C456.293 195.273 457.592 195.59 458.746 196.221C459.9 196.851 460.869 197.772 461.557 198.892C463.056 201.201 463.819 204.458 463.819 208.579C463.819 217.364 460.426 222.401 454.547 222.401ZM454.782 198.85C451.858 198.85 450.041 202.726 450.041 208.968C450.041 215.065 451.844 218.85 454.743 218.85C458.868 218.85 459.484 212.511 459.484 208.733C459.484 205.042 458.872 198.85 454.782 198.85Z" fill="#137F7F"/>
<path d="M482.835 222.401C477.457 222.401 474.081 217.241 473.994 208.932C473.994 204.759 474.876 201.289 476.55 198.892C478.224 196.496 480.517 195.299 483.262 195.299C484.576 195.273 485.875 195.591 487.028 196.221C488.182 196.852 489.15 197.772 489.837 198.892C491.34 201.201 492.099 204.458 492.099 208.579C492.11 217.364 488.731 222.401 482.835 222.401ZM483.066 198.85C480.142 198.85 478.329 202.726 478.329 208.967C478.329 215.065 480.128 218.85 483.027 218.85C487.152 218.85 487.768 212.511 487.768 208.733C487.775 205.042 487.166 198.85 483.073 198.85H483.066Z" fill="#137F7F"/>
<path d="M502.859 222.401C497.484 222.401 494.106 217.241 494.018 208.933C494.018 204.759 494.904 201.289 496.578 198.892C498.251 196.496 500.541 195.299 503.29 195.299C504.604 195.273 505.903 195.59 507.056 196.221C508.21 196.851 509.178 197.772 509.865 198.892C511.367 201.201 512.131 204.458 512.131 208.579C512.131 217.364 508.745 222.401 502.859 222.401ZM503.094 198.85C500.17 198.85 498.353 202.726 498.353 208.968C498.353 215.065 500.156 218.85 503.055 218.85C507.18 218.85 507.796 212.511 507.796 208.733C507.796 205.042 507.183 198.85 503.094 198.85Z" fill="#137F7F"/>
<path d="M522.879 222.401C517.501 222.401 514.126 217.241 514.039 208.933C514.039 204.759 514.921 201.289 516.598 198.892C518.275 196.496 520.562 195.299 523.307 195.299C524.622 195.273 525.921 195.59 527.075 196.221C528.229 196.851 529.198 197.772 529.886 198.892C531.388 201.201 532.147 204.458 532.147 208.579C532.147 217.364 528.769 222.401 522.879 222.401ZM523.114 198.85C520.187 198.85 518.373 202.726 518.373 208.968C518.373 215.065 520.173 218.85 523.072 218.85C527.197 218.85 527.813 212.511 527.813 208.733C527.813 205.042 527.204 198.85 523.1 198.85H523.114Z" fill="#137F7F"/>
<path d="M289.48 390.036C305.586 406.797 319.714 391.946 319.014 392.195C319.567 391.96 323.097 391.978 325.397 391.887C334.987 391.509 343.716 384.649 347.529 375.546C361.884 373.667 371.261 360.419 367.059 348.958C373.4 341.07 371.447 328.475 365.445 320.408C364.045 307.191 346.766 304.953 334.868 309.584C328.835 311.932 323.702 317.004 321.059 323.158C309.592 322.882 299.802 331.309 297.25 343.043C279.407 348.01 273.052 372.926 289.48 390.036Z" fill="#2A425B"/>
<path d="M392.892 552.451C391.742 558.559 390.096 564.564 387.969 570.405C387.78 570.853 385.984 572.504 385.778 572.962C386.744 583.999 393.782 590.552 400.392 595.229C398.957 589.66 395.767 583.275 396.191 582.037C398.508 574.405 401.401 566.959 404.842 559.763C399.328 559.144 397.371 555.803 392.892 552.451Z" fill="#E9D6B8"/>
<path d="M372.767 421.126L334.578 447.182C334.578 447.182 353.177 459.251 359.553 465.324C365.929 471.397 400.056 498.94 400.609 500.329C401.023 501.378 397.458 514.424 389.237 556.243C392.868 559.952 400.858 563.59 405.592 564.779C415.515 542.47 426.722 496.05 425.462 490.943C423.512 483.019 372.767 421.126 372.767 421.126Z" fill="#2A425B"/>
<path d="M276.063 473.563C277.187 474.658 284.641 489.163 287.477 496.929C291.626 494.316 294.13 491.206 298.776 489.449C295.117 484.156 287.982 471.426 287.393 468.396C285.993 461.207 284.368 460.147 284.368 460.147C284.368 460.147 260.251 468.302 258.644 470.586C257.037 472.871 271.557 469.173 276.063 473.563Z" fill="#E9D6B8"/>
<path d="M287.677 469.991C289.547 469.991 287.513 461.546 287.085 459.598C286.602 457.408 285.335 456.754 285.016 456.677C284.162 456.463 257.356 465.524 252.825 468.781C252.465 469.095 252.15 469.456 251.886 469.855C249.404 474.476 271.494 475.358 274.684 473.353C277.513 471.538 279.26 469.967 287.677 469.991Z" fill="#79CCCA"/>
<path d="M379.706 429.277C379.706 429.277 347.35 416.547 346.93 417.901C343.583 428.683 333.156 425.205 326.972 444.194C324.381 452.146 322.34 473.14 320.593 488.708C319.392 499.406 317.715 507.98 317.715 507.98C317.715 507.98 310.226 496.911 296.126 481.043C295.033 479.815 283.65 490.628 283.65 490.628C306.104 535.117 322.484 541.407 326.062 540.196C342.287 534.718 363.8 460.143 363.765 460.15C366.398 455.011 379.706 429.277 379.706 429.277Z" fill="#2A425B"/>
<path d="M329.774 353.902C329.774 353.902 291.147 353.853 282.877 353.377C275.394 352.943 245.707 353.699 244.548 353.566C243.389 353.433 235.714 340.447 234.439 341.839C233.165 343.232 238.707 348.28 236.992 349.588C235.276 350.897 216.855 347.965 217.101 349.326C217.556 351.873 228.305 351.547 228.305 352.779C228.305 354.01 217.055 352.079 216.292 354.129C215.528 356.179 227.104 354.962 227.566 355.878C228.028 356.795 216.831 358.457 217.979 360.353C218.599 361.402 227.899 358.631 227.853 360.038C227.808 361.444 221.022 364.638 221.855 365.758C222.689 366.877 227.177 362.322 231.116 362.259C235.055 362.196 237.871 360.16 244.152 361.874C247.254 362.725 270.937 365.618 290.951 367.325C311.465 369.074 328.282 369.634 328.282 369.634L329.774 353.902Z" fill="#E9D6B8"/>
<path d="M387.045 388.207C387.556 382.011 386.345 370.215 386.058 368.161C387.934 361.724 391.926 347.993 393.358 345.296C393.358 345.296 386.635 332.383 379.752 332.471C379.752 332.471 372.721 348.304 367.283 351.138C367.206 351.117 365.361 351.957 364.549 351.953C359.297 351.915 340.964 351.358 337.54 351.299L339.465 377.295C346.692 396.442 345.376 413.391 344.101 419.276C343.401 422.557 375.238 432.415 380.133 429.27C380.326 429.162 386.009 400.734 387.045 388.207Z" fill="#137F7F"/>
<path d="M346.86 352.286C343.474 350.669 318.996 351.477 318.996 351.477C318.996 351.477 315.576 368.511 318.338 372.604C318.338 372.604 340.229 375.858 339.605 377.652L346.86 352.286Z" fill="#137F7F"/>
<path d="M351.125 340.366C351.125 340.366 353.67 349.312 354.129 353.177C354.588 357.043 360.487 369.088 368.512 367.367C376.538 365.645 368.162 354.398 366.594 350.854C365.025 347.31 360.774 333.013 360.774 333.013L351.125 340.366Z" fill="#E9D6B8"/>
<path d="M362.557 338.869C361.548 335.605 360.774 332.999 360.774 332.999L351.125 340.367C351.125 340.367 351.594 342.011 352.175 344.194C357.263 344.886 360.753 342.448 362.557 338.869Z" fill="#DFCAA8"/>
<path d="M344.129 313.576C341.398 315.329 339.383 317.999 338.446 321.105C336.969 326.223 338.93 339.342 349.931 342.357C360.932 345.373 365.526 334.892 363.148 326.782C360.771 318.673 355.715 308.44 344.129 313.576Z" fill="#E9D6B8"/>
<path d="M364.489 323.599C364.307 325.789 363.127 327.475 361.849 327.37C360.571 327.265 359.685 325.404 359.867 323.214C360.05 321.024 361.233 319.334 362.511 319.442C363.789 319.551 364.657 321.419 364.489 323.599Z" fill="#E9D6B8"/>
<path d="M387.885 570.674C387.185 568.925 380.203 574.473 378.558 575.596C376.702 576.859 376.565 578.28 376.611 578.601C376.73 579.452 394.51 601.341 399.72 604.356C400.296 604.604 400.935 604.665 401.548 604.531C404.436 603.419 399.737 585.518 395.945 581.981C393.484 579.696 390.998 578.486 387.885 570.674Z" fill="#79CCCA"/>
<path d="M345.404 312.89C345.404 312.89 343.632 327.583 338.926 330.302C334.22 333.02 336.3 339.495 336.3 339.495C336.3 339.495 331.773 324.452 335.456 319.555C339.14 314.657 345.404 312.89 345.404 312.89Z" fill="#2A425B"/>
<path d="M341.766 332.369C343.082 334.258 343.11 336.515 341.829 337.4C340.547 338.285 338.446 337.477 337.13 335.584C335.813 333.692 335.789 331.439 337.067 330.55C338.345 329.661 340.453 330.477 341.766 332.369Z" fill="#E9D6B8"/>
<path d="M411.404 251.292L420.693 254.419C420.693 254.419 426.384 266.526 415.058 270.827C403.732 275.128 412.5 284.806 412.5 284.806L402.087 288.57C402.087 288.57 392.786 273.395 403 268.318C416.702 261.508 411.404 251.292 411.404 251.292Z" fill="#0C6D6A"/>
<path d="M216.625 144.099H226.914C226.914 144.099 225.227 152.82 229.163 155.851C233.099 158.882 229.163 170.863 229.163 170.863H221.01C221.01 170.863 224.985 159.204 221.01 156.573C215.715 153.066 216.625 144.099 216.625 144.099Z" fill="#79CCCA"/>
<path d="M513.926 72.6537L519.937 68.3013C519.937 68.3013 523.396 75.029 527.87 74.9982C532.345 74.9674 535.925 85.0581 535.925 85.0581L530.025 89.3297C530.025 89.3297 526.646 79.4346 522.358 79.7534C516.645 80.1783 513.926 72.6537 513.926 72.6537Z" fill="#FFCF50"/>
<path d="M482.274 371.023L488.257 366.495C488.257 366.495 491.698 373.495 496.151 373.463C500.604 373.431 504.167 383.929 504.167 383.929L498.296 388.373C498.296 388.373 494.933 378.078 490.665 378.41C484.98 378.852 482.274 371.023 482.274 371.023Z" fill="#FFCF50"/>
<path d="M367.056 47.4137L365.47 42.6234C365.47 42.6234 370.678 41.9534 371.624 39.1128C372.571 36.2721 380.034 36.2851 380.034 36.2851L381.591 40.9867C381.591 40.9867 374.301 40.8908 373.585 43.6784C372.632 47.3925 367.056 47.4137 367.056 47.4137Z" fill="#FFCF50"/>
<path d="M733.238 53.3086L742.209 56.3307C742.209 56.3307 747.706 68.0309 736.767 72.1875C725.828 76.3442 734.297 85.6973 734.297 85.6973L724.24 89.3344C724.24 89.3344 715.257 74.6693 725.122 69.7625C738.355 63.1812 733.238 53.3086 733.238 53.3086Z" fill="#0C6D6A"/>
</svg>
