<svg width="167" height="278" viewBox="0 0 167 278" fill="none" xmlns="http://www.w3.org/2000/svg">
<path d="M7.43066 164.047H8.74316V174H7.43066V166.33L2.5293 174H1.20996V164.047H2.5293V171.717L7.43066 164.047ZM15.0049 168.627C15.0049 168.281 14.8727 168.007 14.6084 167.807C14.3441 167.602 13.9818 167.499 13.5215 167.499C13.0749 167.499 12.7012 167.615 12.4004 167.848C12.1042 168.08 11.9561 168.354 11.9561 168.668H10.6982C10.6982 168.025 10.9671 167.499 11.5049 167.089C12.0426 166.679 12.7148 166.474 13.5215 166.474C14.3874 166.474 15.0618 166.66 15.5449 167.034C16.028 167.403 16.2695 167.932 16.2695 168.62C16.2695 168.953 16.1693 169.258 15.9688 169.536C15.7682 169.814 15.4834 170.035 15.1143 170.199C15.9756 170.491 16.4062 171.065 16.4062 171.922C16.4062 172.601 16.1442 173.139 15.6201 173.535C15.096 173.932 14.3965 174.13 13.5215 174.13C12.6693 174.13 11.9652 173.923 11.4092 173.508C10.8577 173.089 10.582 172.523 10.582 171.812H11.8398C11.8398 172.173 11.9993 172.482 12.3184 172.742C12.6419 172.997 13.043 173.125 13.5215 173.125C14.0046 173.125 14.3942 173.013 14.6904 172.79C14.9867 172.567 15.1348 172.277 15.1348 171.922C15.1348 171.507 15.0094 171.211 14.7588 171.033C14.5127 170.851 14.1276 170.76 13.6035 170.76H12.3389V169.693H13.7129C14.5742 169.671 15.0049 169.315 15.0049 168.627ZM20.4668 172.147L22.1895 166.604H23.543L20.5693 175.142C20.109 176.372 19.3776 176.987 18.375 176.987L18.1357 176.967L17.6641 176.878V175.853L18.0059 175.88C18.4342 175.88 18.7669 175.793 19.0039 175.62C19.2454 175.447 19.4437 175.13 19.5986 174.67L19.8789 173.918L17.2402 166.604H18.6211L20.4668 172.147ZM30.2627 174H28.9912V171.32C28.4352 171.466 27.8656 171.539 27.2822 171.539C26.3571 171.539 25.6507 171.302 25.1631 170.828C24.68 170.354 24.4339 169.68 24.4248 168.805V166.597H25.6895V168.846C25.7122 169.949 26.2432 170.5 27.2822 170.5C27.8656 170.5 28.4352 170.427 28.9912 170.281V166.604H30.2627V174ZM36.8594 174C36.7865 173.854 36.7272 173.594 36.6816 173.221C36.0938 173.831 35.3919 174.137 34.5762 174.137C33.847 174.137 33.2477 173.932 32.7783 173.521C32.3135 173.107 32.0811 172.583 32.0811 171.949C32.0811 171.179 32.3727 170.582 32.9561 170.158C33.5439 169.73 34.3688 169.516 35.4307 169.516H36.6611V168.935C36.6611 168.493 36.529 168.142 36.2646 167.882C36.0003 167.618 35.6107 167.485 35.0957 167.485C34.6445 167.485 34.2663 167.599 33.9609 167.827C33.6556 168.055 33.5029 168.331 33.5029 168.654H32.2314C32.2314 168.285 32.3613 167.93 32.6211 167.588C32.8854 167.242 33.2409 166.968 33.6875 166.768C34.1387 166.567 34.6331 166.467 35.1709 166.467C36.0231 166.467 36.6908 166.681 37.1738 167.109C37.6569 167.533 37.9076 168.119 37.9258 168.866V172.271C37.9258 172.95 38.0124 173.49 38.1855 173.891V174H36.8594ZM34.7607 173.036C35.1572 173.036 35.5332 172.934 35.8887 172.729C36.2441 172.523 36.5016 172.257 36.6611 171.929V170.411H35.6699C34.1204 170.411 33.3457 170.865 33.3457 171.771C33.3457 172.168 33.4779 172.478 33.7422 172.701C34.0065 172.924 34.346 173.036 34.7607 173.036ZM44.6934 166.604H45.958V174H44.6934V168.606L41.2822 174H40.0176V166.604H41.2822V172.004L44.6934 166.604ZM45.0352 163.91C45.0352 164.462 44.846 164.906 44.4678 165.243C44.0941 165.576 43.6019 165.742 42.9912 165.742C42.3805 165.742 41.8861 165.574 41.5078 165.236C41.1296 164.899 40.9404 164.457 40.9404 163.91H41.9727C41.9727 164.229 42.0592 164.48 42.2324 164.662C42.4056 164.84 42.6585 164.929 42.9912 164.929C43.3102 164.929 43.5586 164.84 43.7363 164.662C43.9186 164.484 44.0098 164.234 44.0098 163.91H45.0352ZM55.7197 172.325L58.2354 166.604H59.8145V174H58.5498V168.62L56.1572 174H55.2822L52.8418 168.504V174H51.5771V166.604H53.2178L55.7197 172.325ZM66.418 174C66.3451 173.854 66.2858 173.594 66.2402 173.221C65.6523 173.831 64.9505 174.137 64.1348 174.137C63.4056 174.137 62.8063 173.932 62.3369 173.521C61.8721 173.107 61.6396 172.583 61.6396 171.949C61.6396 171.179 61.9313 170.582 62.5146 170.158C63.1025 169.73 63.9274 169.516 64.9893 169.516H66.2197V168.935C66.2197 168.493 66.0876 168.142 65.8232 167.882C65.5589 167.618 65.1693 167.485 64.6543 167.485C64.2031 167.485 63.8249 167.599 63.5195 167.827C63.2142 168.055 63.0615 168.331 63.0615 168.654H61.79C61.79 168.285 61.9199 167.93 62.1797 167.588C62.444 167.242 62.7995 166.968 63.2461 166.768C63.6973 166.567 64.1917 166.467 64.7295 166.467C65.5817 166.467 66.2493 166.681 66.7324 167.109C67.2155 167.533 67.4661 168.119 67.4844 168.866V172.271C67.4844 172.95 67.571 173.49 67.7441 173.891V174H66.418ZM64.3193 173.036C64.7158 173.036 65.0918 172.934 65.4473 172.729C65.8027 172.523 66.0602 172.257 66.2197 171.929V170.411H65.2285C63.679 170.411 62.9043 170.865 62.9043 171.771C62.9043 172.168 63.0365 172.478 63.3008 172.701C63.5651 172.924 63.9046 173.036 64.3193 173.036ZM74.8535 167.629H72.3721V174H71.1074V167.629H68.6738V166.604H74.8535V167.629ZM78.6064 174.137C77.6038 174.137 76.7881 173.809 76.1592 173.152C75.5303 172.492 75.2158 171.61 75.2158 170.507V170.274C75.2158 169.541 75.3548 168.887 75.6328 168.312C75.9154 167.734 76.3073 167.283 76.8086 166.959C77.3145 166.631 77.8613 166.467 78.4492 166.467C79.4108 166.467 80.1582 166.784 80.6914 167.417C81.2246 168.05 81.4912 168.957 81.4912 170.138V170.664H76.4805C76.4987 171.393 76.7106 171.983 77.1162 172.435C77.5264 172.881 78.0459 173.104 78.6748 173.104C79.1214 173.104 79.4997 173.013 79.8096 172.831C80.1195 172.649 80.3906 172.407 80.623 172.106L81.3955 172.708C80.7757 173.66 79.846 174.137 78.6064 174.137ZM78.4492 167.506C77.9388 167.506 77.5104 167.693 77.1641 168.066C76.8177 168.436 76.6035 168.955 76.5215 169.625H80.2266V169.529C80.1901 168.887 80.0169 168.39 79.707 168.039C79.3971 167.684 78.9779 167.506 78.4492 167.506ZM89.209 170.384C89.209 171.509 88.9515 172.416 88.4365 173.104C87.9215 173.793 87.2243 174.137 86.3447 174.137C85.4469 174.137 84.7406 173.852 84.2256 173.282V176.844H82.9609V166.604H84.1162L84.1777 167.424C84.6927 166.786 85.4082 166.467 86.3242 166.467C87.2129 166.467 87.9147 166.802 88.4297 167.472C88.9492 168.142 89.209 169.074 89.209 170.268V170.384ZM87.9443 170.24C87.9443 169.406 87.7666 168.748 87.4111 168.265C87.0557 167.782 86.568 167.54 85.9482 167.54C85.1826 167.54 84.6084 167.88 84.2256 168.559V172.093C84.6038 172.767 85.1826 173.104 85.9619 173.104C86.568 173.104 87.0488 172.865 87.4043 172.387C87.7643 171.904 87.9443 171.188 87.9443 170.24ZM95.6074 166.604H96.8721V174H95.6074V168.606L92.1963 174H90.9316V166.604H92.1963V172.004L95.6074 166.604ZM103.469 174C103.396 173.854 103.337 173.594 103.291 173.221C102.703 173.831 102.001 174.137 101.186 174.137C100.456 174.137 99.8571 173.932 99.3877 173.521C98.9229 173.107 98.6904 172.583 98.6904 171.949C98.6904 171.179 98.9821 170.582 99.5654 170.158C100.153 169.73 100.978 169.516 102.04 169.516H103.271V168.935C103.271 168.493 103.138 168.142 102.874 167.882C102.61 167.618 102.22 167.485 101.705 167.485C101.254 167.485 100.876 167.599 100.57 167.827C100.265 168.055 100.112 168.331 100.112 168.654H98.8408C98.8408 168.285 98.9707 167.93 99.2305 167.588C99.4948 167.242 99.8503 166.968 100.297 166.768C100.748 166.567 101.243 166.467 101.78 166.467C102.632 166.467 103.3 166.681 103.783 167.109C104.266 167.533 104.517 168.119 104.535 168.866V172.271C104.535 172.95 104.622 173.49 104.795 173.891V174H103.469ZM101.37 173.036C101.767 173.036 102.143 172.934 102.498 172.729C102.854 172.523 103.111 172.257 103.271 171.929V170.411H102.279C100.73 170.411 99.9551 170.865 99.9551 171.771C99.9551 172.168 100.087 172.478 100.352 172.701C100.616 172.924 100.955 173.036 101.37 173.036ZM112.581 166.604V174H111.31V167.649H108.794L108.644 170.418C108.562 171.689 108.347 172.599 108.001 173.146C107.659 173.692 107.115 173.977 106.367 174H105.861V172.886L106.224 172.858C106.634 172.813 106.928 172.576 107.105 172.147C107.283 171.719 107.397 170.926 107.447 169.769L107.584 166.604H112.581ZM115.992 169.153H117.913C118.752 169.162 119.415 169.381 119.902 169.81C120.39 170.238 120.634 170.819 120.634 171.553C120.634 172.291 120.383 172.883 119.882 173.33C119.381 173.777 118.706 174 117.858 174H114.728V166.604H115.992V169.153ZM123.272 174H122.001V166.604H123.272V174ZM115.992 170.186V172.968H117.872C118.346 172.968 118.713 172.847 118.973 172.605C119.232 172.359 119.362 172.024 119.362 171.601C119.362 171.19 119.235 170.855 118.979 170.596C118.729 170.331 118.376 170.195 117.92 170.186H115.992ZM125.439 175.982L124.722 175.49C125.15 174.893 125.373 174.278 125.392 173.645V172.503H126.629V173.494C126.629 173.954 126.515 174.415 126.287 174.875C126.064 175.335 125.781 175.704 125.439 175.982ZM7.00684 194H5.74219V187.649H2.33789V194H1.06641V186.604H7.00684V194ZM15.2852 190.384C15.2852 191.509 15.0277 192.416 14.5127 193.104C13.9977 193.793 13.3005 194.137 12.4209 194.137C11.5231 194.137 10.8167 193.852 10.3018 193.282V196.844H9.03711V186.604H10.1924L10.2539 187.424C10.7689 186.786 11.4844 186.467 12.4004 186.467C13.2891 186.467 13.9909 186.802 14.5059 187.472C15.0254 188.142 15.2852 189.074 15.2852 190.268V190.384ZM14.0205 190.24C14.0205 189.406 13.8428 188.748 13.4873 188.265C13.1318 187.782 12.6442 187.54 12.0244 187.54C11.2588 187.54 10.6846 187.88 10.3018 188.559V192.093C10.68 192.767 11.2588 193.104 12.0381 193.104C12.6442 193.104 13.125 192.865 13.4805 192.387C13.8405 191.904 14.0205 191.188 14.0205 190.24ZM21.6836 186.604H22.9482V194H21.6836V188.606L18.2725 194H17.0078V186.604H18.2725V192.004L21.6836 186.604ZM29.2373 192.325L31.7529 186.604H33.332V194H32.0674V188.62L29.6748 194H28.7998L26.3594 188.504V194H25.0947V186.604H26.7354L29.2373 192.325ZM38.4385 194.137C37.4359 194.137 36.6201 193.809 35.9912 193.152C35.3623 192.492 35.0479 191.61 35.0479 190.507V190.274C35.0479 189.541 35.1868 188.887 35.4648 188.312C35.7474 187.734 36.1393 187.283 36.6406 186.959C37.1465 186.631 37.6934 186.467 38.2812 186.467C39.2428 186.467 39.9902 186.784 40.5234 187.417C41.0566 188.05 41.3232 188.957 41.3232 190.138V190.664H36.3125C36.3307 191.393 36.5426 191.983 36.9482 192.435C37.3584 192.881 37.8779 193.104 38.5068 193.104C38.9535 193.104 39.3317 193.013 39.6416 192.831C39.9515 192.649 40.2227 192.407 40.4551 192.106L41.2275 192.708C40.6077 193.66 39.6781 194.137 38.4385 194.137ZM38.2812 187.506C37.7708 187.506 37.3424 187.693 36.9961 188.066C36.6497 188.436 36.4355 188.955 36.3535 189.625H40.0586V189.529C40.0221 188.887 39.849 188.39 39.5391 188.039C39.2292 187.684 38.8099 187.506 38.2812 187.506ZM48.8359 194H47.5713V190.842H44.1738V194H42.9023V186.604H44.1738V189.81H47.5713V186.604H48.8359V194ZM56.5264 186.604V194H55.2549V191.122H53.3477L51.6045 194H50.2373L52.0967 190.931C51.6227 190.757 51.2581 190.491 51.0029 190.131C50.7523 189.766 50.627 189.342 50.627 188.859C50.627 188.185 50.8799 187.643 51.3857 187.232C51.8916 186.818 52.5684 186.608 53.416 186.604H56.5264ZM51.8984 188.873C51.8984 189.233 52.0215 189.525 52.2676 189.748C52.5137 189.967 52.8395 190.078 53.2451 190.083H55.2549V187.629H53.4365C52.9671 187.629 52.5934 187.745 52.3154 187.978C52.0374 188.205 51.8984 188.504 51.8984 188.873ZM63.3418 186.604H64.6064V194H63.3418V188.606L59.9307 194H58.666V186.604H59.9307V192.004L63.3418 186.604ZM63.6836 183.91C63.6836 184.462 63.4945 184.906 63.1162 185.243C62.7425 185.576 62.2503 185.742 61.6396 185.742C61.029 185.742 60.5345 185.574 60.1562 185.236C59.778 184.899 59.5889 184.457 59.5889 183.91H60.6211C60.6211 184.229 60.7077 184.48 60.8809 184.662C61.054 184.84 61.307 184.929 61.6396 184.929C61.9587 184.929 62.207 184.84 62.3848 184.662C62.5671 184.484 62.6582 184.234 62.6582 183.91H63.6836ZM76.1592 194H74.8945V187.649H71.4902V194H70.2188V186.604H76.1592V194ZM77.8545 190.233C77.8545 189.509 77.9958 188.857 78.2783 188.278C78.5654 187.7 78.9619 187.253 79.4678 186.938C79.9782 186.624 80.5592 186.467 81.2109 186.467C82.2181 186.467 83.0316 186.815 83.6514 187.513C84.2757 188.21 84.5879 189.137 84.5879 190.295V190.384C84.5879 191.104 84.4489 191.751 84.1709 192.325C83.8975 192.895 83.5033 193.339 82.9883 193.658C82.4779 193.977 81.89 194.137 81.2246 194.137C80.222 194.137 79.4085 193.788 78.7842 193.091C78.1644 192.394 77.8545 191.471 77.8545 190.322V190.233ZM79.126 190.384C79.126 191.204 79.3151 191.863 79.6934 192.359C80.0762 192.856 80.5866 193.104 81.2246 193.104C81.8672 193.104 82.3776 192.854 82.7559 192.353C83.1341 191.847 83.3232 191.14 83.3232 190.233C83.3232 189.422 83.1296 188.766 82.7422 188.265C82.3594 187.759 81.849 187.506 81.2109 187.506C80.5866 187.506 80.083 187.754 79.7002 188.251C79.3174 188.748 79.126 189.459 79.126 190.384ZM92.1279 186.604V194H90.8564V187.649H88.3408L88.1904 190.418C88.1084 191.689 87.8942 192.599 87.5479 193.146C87.2061 193.692 86.6615 193.977 85.9141 194H85.4082V192.886L85.7705 192.858C86.1807 192.813 86.4746 192.576 86.6523 192.147C86.8301 191.719 86.944 190.926 86.9941 189.769L87.1309 186.604H92.1279ZM96.5781 192.147L98.3008 186.604H99.6543L96.6807 195.142C96.2204 196.372 95.4889 196.987 94.4863 196.987L94.2471 196.967L93.7754 196.878V195.853L94.1172 195.88C94.5456 195.88 94.8783 195.793 95.1152 195.62C95.3568 195.447 95.555 195.13 95.71 194.67L95.9902 193.918L93.3516 186.604H94.7324L96.5781 192.147ZM106.374 194H105.103V191.32C104.547 191.466 103.977 191.539 103.394 191.539C102.468 191.539 101.762 191.302 101.274 190.828C100.791 190.354 100.545 189.68 100.536 188.805V186.597H101.801V188.846C101.824 189.949 102.354 190.5 103.394 190.5C103.977 190.5 104.547 190.427 105.103 190.281V186.604H106.374V194ZM111.474 194.137C110.471 194.137 109.655 193.809 109.026 193.152C108.397 192.492 108.083 191.61 108.083 190.507V190.274C108.083 189.541 108.222 188.887 108.5 188.312C108.783 187.734 109.174 187.283 109.676 186.959C110.182 186.631 110.729 186.467 111.316 186.467C112.278 186.467 113.025 186.784 113.559 187.417C114.092 188.05 114.358 188.957 114.358 190.138V190.664H109.348C109.366 191.393 109.578 191.983 109.983 192.435C110.394 192.881 110.913 193.104 111.542 193.104C111.989 193.104 112.367 193.013 112.677 192.831C112.987 192.649 113.258 192.407 113.49 192.106L114.263 192.708C113.643 193.66 112.713 194.137 111.474 194.137ZM111.316 187.506C110.806 187.506 110.378 187.693 110.031 188.066C109.685 188.436 109.471 188.955 109.389 189.625H113.094V189.529C113.057 188.887 112.884 188.39 112.574 188.039C112.264 187.684 111.845 187.506 111.316 187.506ZM121.871 194H120.606V190.842H117.209V194H115.938V186.604H117.209V189.81H120.606V186.604H121.871V194ZM129.951 194H128.687V190.842H125.289V194H124.018V186.604H125.289V189.81H128.687V186.604H129.951V194ZM133.369 189.153H135.29C136.129 189.162 136.792 189.381 137.279 189.81C137.767 190.238 138.011 190.819 138.011 191.553C138.011 192.291 137.76 192.883 137.259 193.33C136.757 193.777 136.083 194 135.235 194H132.104V186.604H133.369V189.153ZM140.649 194H139.378V186.604H140.649V194ZM133.369 190.186V192.968H135.249C135.723 192.968 136.09 192.847 136.35 192.605C136.609 192.359 136.739 192.024 136.739 191.601C136.739 191.19 136.612 190.855 136.356 190.596C136.106 190.331 135.753 190.195 135.297 190.186H133.369ZM145.927 194.137C144.924 194.137 144.108 193.809 143.479 193.152C142.851 192.492 142.536 191.61 142.536 190.507V190.274C142.536 189.541 142.675 188.887 142.953 188.312C143.236 187.734 143.628 187.283 144.129 186.959C144.635 186.631 145.182 186.467 145.77 186.467C146.731 186.467 147.479 186.784 148.012 187.417C148.545 188.05 148.812 188.957 148.812 190.138V190.664H143.801C143.819 191.393 144.031 191.983 144.437 192.435C144.847 192.881 145.366 193.104 145.995 193.104C146.442 193.104 146.82 193.013 147.13 192.831C147.44 192.649 147.711 192.407 147.943 192.106L148.716 192.708C148.096 193.66 147.166 194.137 145.927 194.137ZM145.77 187.506C145.259 187.506 144.831 187.693 144.484 188.066C144.138 188.436 143.924 188.955 143.842 189.625H147.547V189.529C147.51 188.887 147.337 188.39 147.027 188.039C146.717 187.684 146.298 187.506 145.77 187.506ZM5.02441 207.627C5.02441 207.281 4.89225 207.007 4.62793 206.807C4.36361 206.602 4.0013 206.499 3.54102 206.499C3.0944 206.499 2.7207 206.615 2.41992 206.848C2.1237 207.08 1.97559 207.354 1.97559 207.668H0.717773C0.717773 207.025 0.986654 206.499 1.52441 206.089C2.06217 205.679 2.73438 205.474 3.54102 205.474C4.4069 205.474 5.08138 205.66 5.56445 206.034C6.04753 206.403 6.28906 206.932 6.28906 207.62C6.28906 207.953 6.1888 208.258 5.98828 208.536C5.78776 208.814 5.50293 209.035 5.13379 209.199C5.99512 209.491 6.42578 210.065 6.42578 210.922C6.42578 211.601 6.16374 212.139 5.63965 212.535C5.11556 212.932 4.41602 213.13 3.54102 213.13C2.6888 213.13 1.9847 212.923 1.42871 212.508C0.877279 212.089 0.601562 211.523 0.601562 210.812H1.85938C1.85938 211.173 2.01888 211.482 2.33789 211.742C2.66146 211.997 3.0625 212.125 3.54102 212.125C4.02409 212.125 4.41374 212.013 4.70996 211.79C5.00618 211.567 5.1543 211.277 5.1543 210.922C5.1543 210.507 5.02897 210.211 4.77832 210.033C4.53223 209.851 4.14714 209.76 3.62305 209.76H2.3584V208.693H3.73242C4.59375 208.671 5.02441 208.315 5.02441 207.627ZM14.1094 213H12.8447V209.842H9.44727V213H8.17578V205.604H9.44727V208.81H12.8447V205.604H14.1094V213ZM20.7129 213C20.64 212.854 20.5807 212.594 20.5352 212.221C19.9473 212.831 19.2454 213.137 18.4297 213.137C17.7005 213.137 17.1012 212.932 16.6318 212.521C16.167 212.107 15.9346 211.583 15.9346 210.949C15.9346 210.179 16.2262 209.582 16.8096 209.158C17.3975 208.73 18.2223 208.516 19.2842 208.516H20.5146V207.935C20.5146 207.493 20.3825 207.142 20.1182 206.882C19.8538 206.618 19.4642 206.485 18.9492 206.485C18.498 206.485 18.1198 206.599 17.8145 206.827C17.5091 207.055 17.3564 207.331 17.3564 207.654H16.085C16.085 207.285 16.2148 206.93 16.4746 206.588C16.7389 206.242 17.0944 205.968 17.541 205.768C17.9922 205.567 18.4867 205.467 19.0244 205.467C19.8766 205.467 20.5443 205.681 21.0273 206.109C21.5104 206.533 21.7611 207.119 21.7793 207.866V211.271C21.7793 211.95 21.8659 212.49 22.0391 212.891V213H20.7129ZM18.6143 212.036C19.0107 212.036 19.3867 211.934 19.7422 211.729C20.0977 211.523 20.3551 211.257 20.5146 210.929V209.411H19.5234C17.974 209.411 17.1992 209.865 17.1992 210.771C17.1992 211.168 17.3314 211.478 17.5957 211.701C17.86 211.924 18.1995 212.036 18.6143 212.036ZM29.8047 213H28.54V209.842H25.1426V213H23.8711V205.604H25.1426V208.81H28.54V205.604H29.8047V213ZM36.627 205.604H37.8916V213H36.627V207.606L33.2158 213H31.9512V205.604H33.2158V211.004L36.627 205.604ZM45.5752 205.604V213H44.3037V210.122H42.3965L40.6533 213H39.2861L41.1455 209.931C40.6715 209.757 40.307 209.491 40.0518 209.131C39.8011 208.766 39.6758 208.342 39.6758 207.859C39.6758 207.185 39.9287 206.643 40.4346 206.232C40.9404 205.818 41.6172 205.608 42.4648 205.604H45.5752ZM40.9473 207.873C40.9473 208.233 41.0703 208.525 41.3164 208.748C41.5625 208.967 41.8883 209.078 42.2939 209.083H44.3037V206.629H42.4854C42.016 206.629 41.6423 206.745 41.3643 206.978C41.0863 207.205 40.9473 207.504 40.9473 207.873ZM57.1211 213H55.8564V209.842H52.459V213H51.1875V205.604H52.459V208.81H55.8564V205.604H57.1211V213ZM63.7246 213C63.6517 212.854 63.5924 212.594 63.5469 212.221C62.959 212.831 62.2572 213.137 61.4414 213.137C60.7122 213.137 60.113 212.932 59.6436 212.521C59.1787 212.107 58.9463 211.583 58.9463 210.949C58.9463 210.179 59.238 209.582 59.8213 209.158C60.4092 208.73 61.234 208.516 62.2959 208.516H63.5264V207.935C63.5264 207.493 63.3942 207.142 63.1299 206.882C62.8656 206.618 62.4759 206.485 61.9609 206.485C61.5098 206.485 61.1315 206.599 60.8262 206.827C60.5208 207.055 60.3682 207.331 60.3682 207.654H59.0967C59.0967 207.285 59.2266 206.93 59.4863 206.588C59.7507 206.242 60.1061 205.968 60.5527 205.768C61.0039 205.567 61.4984 205.467 62.0361 205.467C62.8883 205.467 63.556 205.681 64.0391 206.109C64.5221 206.533 64.7728 207.119 64.791 207.866V211.271C64.791 211.95 64.8776 212.49 65.0508 212.891V213H63.7246ZM61.626 212.036C62.0225 212.036 62.3984 211.934 62.7539 211.729C63.1094 211.523 63.3669 211.257 63.5264 210.929V209.411H62.5352C60.9857 209.411 60.2109 209.865 60.2109 210.771C60.2109 211.168 60.3431 211.478 60.6074 211.701C60.8717 211.924 61.2113 212.036 61.626 212.036ZM76.2959 213H75.0312V206.649H71.627V213H70.3555V205.604H76.2959V213ZM84.5742 209.384C84.5742 210.509 84.3167 211.416 83.8018 212.104C83.2868 212.793 82.5895 213.137 81.71 213.137C80.8122 213.137 80.1058 212.852 79.5908 212.282V215.844H78.3262V205.604H79.4814L79.543 206.424C80.0579 205.786 80.7734 205.467 81.6895 205.467C82.5781 205.467 83.2799 205.802 83.7949 206.472C84.3145 207.142 84.5742 208.074 84.5742 209.268V209.384ZM83.3096 209.24C83.3096 208.406 83.1318 207.748 82.7764 207.265C82.4209 206.782 81.9333 206.54 81.3135 206.54C80.5479 206.54 79.9736 206.88 79.5908 207.559V211.093C79.9691 211.767 80.5479 212.104 81.3271 212.104C81.9333 212.104 82.4141 211.865 82.7695 211.387C83.1296 210.904 83.3096 210.188 83.3096 209.24ZM90.7539 213C90.681 212.854 90.6217 212.594 90.5762 212.221C89.9883 212.831 89.2865 213.137 88.4707 213.137C87.7415 213.137 87.1423 212.932 86.6729 212.521C86.208 212.107 85.9756 211.583 85.9756 210.949C85.9756 210.179 86.2673 209.582 86.8506 209.158C87.4385 208.73 88.2633 208.516 89.3252 208.516H90.5557V207.935C90.5557 207.493 90.4235 207.142 90.1592 206.882C89.8949 206.618 89.5052 206.485 88.9902 206.485C88.5391 206.485 88.1608 206.599 87.8555 206.827C87.5501 207.055 87.3975 207.331 87.3975 207.654H86.126C86.126 207.285 86.2559 206.93 86.5156 206.588C86.7799 206.242 87.1354 205.968 87.582 205.768C88.0332 205.567 88.5277 205.467 89.0654 205.467C89.9176 205.467 90.5853 205.681 91.0684 206.109C91.5514 206.533 91.8021 207.119 91.8203 207.866V211.271C91.8203 211.95 91.9069 212.49 92.0801 212.891V213H90.7539ZM88.6553 212.036C89.0518 212.036 89.4277 211.934 89.7832 211.729C90.1387 211.523 90.3962 211.257 90.5557 210.929V209.411H89.5645C88.015 209.411 87.2402 209.865 87.2402 210.771C87.2402 211.168 87.3724 211.478 87.6367 211.701C87.901 211.924 88.2406 212.036 88.6553 212.036ZM96.1064 209.849H95.1836V213H93.9121V205.604H95.1836V208.734H96.0107L98.499 205.604H100.03L97.1045 209.158L100.276 213H98.6699L96.1064 209.849ZM106.859 206.629H104.378V213H103.113V206.629H100.68V205.604H106.859V206.629ZM112.875 205.604H114.14V213H112.875V207.606L109.464 213H108.199V205.604H109.464V211.004L112.875 205.604ZM118.474 209.849H117.551V213H116.279V205.604H117.551V208.734H118.378L120.866 205.604H122.397L119.472 209.158L122.644 213H121.037L118.474 209.849ZM126.69 213.137C125.688 213.137 124.872 212.809 124.243 212.152C123.614 211.492 123.3 210.61 123.3 209.507V209.274C123.3 208.541 123.439 207.887 123.717 207.312C123.999 206.734 124.391 206.283 124.893 205.959C125.398 205.631 125.945 205.467 126.533 205.467C127.495 205.467 128.242 205.784 128.775 206.417C129.309 207.05 129.575 207.957 129.575 209.138V209.664H124.564C124.583 210.393 124.795 210.983 125.2 211.435C125.61 211.881 126.13 212.104 126.759 212.104C127.205 212.104 127.584 212.013 127.894 211.831C128.203 211.649 128.475 211.407 128.707 211.106L129.479 211.708C128.86 212.66 127.93 213.137 126.69 213.137ZM126.533 206.506C126.023 206.506 125.594 206.693 125.248 207.066C124.902 207.436 124.688 207.955 124.605 208.625H128.311V208.529C128.274 207.887 128.101 207.39 127.791 207.039C127.481 206.684 127.062 206.506 126.533 206.506ZM5.74219 225.604H7.00684V233H5.74219V227.606L2.33105 233H1.06641V225.604H2.33105V231.004L5.74219 225.604ZM18.0059 226.629H15.5244V233H14.2598V226.629H11.8262V225.604H18.0059V226.629ZM19.3525 233V225.604H22.2373C23.2217 225.604 23.9759 225.777 24.5 226.123C25.0286 226.465 25.293 226.968 25.293 227.634C25.293 227.976 25.1904 228.285 24.9854 228.563C24.7803 228.837 24.4772 229.047 24.0762 229.192C24.5228 229.297 24.8805 229.502 25.1494 229.808C25.4229 230.113 25.5596 230.478 25.5596 230.901C25.5596 231.58 25.3089 232.1 24.8076 232.46C24.3109 232.82 23.6068 233 22.6953 233H19.3525ZM20.6172 229.753V231.981H22.709C23.2376 231.981 23.6318 231.883 23.8916 231.688C24.1559 231.492 24.2881 231.216 24.2881 230.86C24.2881 230.122 23.7458 229.753 22.6611 229.753H20.6172ZM20.6172 228.741H22.251C23.4359 228.741 24.0283 228.395 24.0283 227.702C24.0283 227.009 23.4678 226.652 22.3467 226.629H20.6172V228.741ZM26.8994 229.233C26.8994 228.509 27.0407 227.857 27.3232 227.278C27.6104 226.7 28.0068 226.253 28.5127 225.938C29.0231 225.624 29.6042 225.467 30.2559 225.467C31.263 225.467 32.0765 225.815 32.6963 226.513C33.3206 227.21 33.6328 228.137 33.6328 229.295V229.384C33.6328 230.104 33.4938 230.751 33.2158 231.325C32.9424 231.895 32.5482 232.339 32.0332 232.658C31.5228 232.977 30.9349 233.137 30.2695 233.137C29.2669 233.137 28.4535 232.788 27.8291 232.091C27.2093 231.394 26.8994 230.471 26.8994 229.322V229.233ZM28.1709 229.384C28.1709 230.204 28.36 230.863 28.7383 231.359C29.1211 231.856 29.6315 232.104 30.2695 232.104C30.9121 232.104 31.4225 231.854 31.8008 231.353C32.179 230.847 32.3682 230.14 32.3682 229.233C32.3682 228.422 32.1745 227.766 31.7871 227.265C31.4043 226.759 30.8939 226.506 30.2559 226.506C29.6315 226.506 29.1279 226.754 28.7451 227.251C28.3623 227.748 28.1709 228.459 28.1709 229.384ZM40.8721 225.604V233H39.6006V230.122H37.6934L35.9502 233H34.583L36.4424 229.931C35.9684 229.757 35.6038 229.491 35.3486 229.131C35.098 228.766 34.9727 228.342 34.9727 227.859C34.9727 227.185 35.2256 226.643 35.7314 226.232C36.2373 225.818 36.9141 225.608 37.7617 225.604H40.8721ZM36.2441 227.873C36.2441 228.233 36.3672 228.525 36.6133 228.748C36.8594 228.967 37.1852 229.078 37.5908 229.083H39.6006V226.629H37.7822C37.3128 226.629 36.9391 226.745 36.6611 226.978C36.3831 227.205 36.2441 227.504 36.2441 227.873ZM52.2744 229.787H51.3857V233H50.1211V229.787H49.2324L47.1611 233H45.5615L48.207 229.172L45.8145 225.604H47.3457L49.2529 228.666H50.1211V225.604H51.3857V228.666H52.2471L54.168 225.604H55.6992L53.2998 229.179L55.9453 233H54.3457L52.2744 229.787ZM61.8789 225.604H63.1436V233H61.8789V227.606L58.4678 233H57.2031V225.604H58.4678V231.004L61.8789 225.604ZM69.2412 227.627C69.2412 227.281 69.109 227.007 68.8447 226.807C68.5804 226.602 68.2181 226.499 67.7578 226.499C67.3112 226.499 66.9375 226.615 66.6367 226.848C66.3405 227.08 66.1924 227.354 66.1924 227.668H64.9346C64.9346 227.025 65.2035 226.499 65.7412 226.089C66.279 225.679 66.9512 225.474 67.7578 225.474C68.6237 225.474 69.2982 225.66 69.7812 226.034C70.2643 226.403 70.5059 226.932 70.5059 227.62C70.5059 227.953 70.4056 228.258 70.2051 228.536C70.0046 228.814 69.7197 229.035 69.3506 229.199C70.2119 229.491 70.6426 230.065 70.6426 230.922C70.6426 231.601 70.3805 232.139 69.8564 232.535C69.3324 232.932 68.6328 233.13 67.7578 233.13C66.9056 233.13 66.2015 232.923 65.6455 232.508C65.0941 232.089 64.8184 231.523 64.8184 230.812H66.0762C66.0762 231.173 66.2357 231.482 66.5547 231.742C66.8783 231.997 67.2793 232.125 67.7578 232.125C68.2409 232.125 68.6305 232.013 68.9268 231.79C69.223 231.567 69.3711 231.277 69.3711 230.922C69.3711 230.507 69.2458 230.211 68.9951 230.033C68.749 229.851 68.3639 229.76 67.8398 229.76H66.5752V228.693H67.9492C68.8105 228.671 69.2412 228.315 69.2412 227.627ZM78.3262 233H77.0615V229.842H73.6641V233H72.3926V225.604H73.6641V228.81H77.0615V225.604H78.3262V233ZM81.7441 228.153H83.665C84.5036 228.162 85.1667 228.381 85.6543 228.81C86.1419 229.238 86.3857 229.819 86.3857 230.553C86.3857 231.291 86.1351 231.883 85.6338 232.33C85.1325 232.777 84.458 233 83.6104 233H80.4795V225.604H81.7441V228.153ZM81.7441 229.186V231.968H83.624C84.098 231.968 84.4648 231.847 84.7246 231.605C84.9844 231.359 85.1143 231.024 85.1143 230.601C85.1143 230.19 84.9867 229.855 84.7314 229.596C84.4808 229.331 84.1276 229.195 83.6719 229.186H81.7441ZM7 252H5.73535V248.842H2.33789V252H1.06641V244.604H2.33789V247.81H5.73535V244.604H7V252ZM12.1064 252.137C11.1038 252.137 10.2881 251.809 9.65918 251.152C9.03027 250.492 8.71582 249.61 8.71582 248.507V248.274C8.71582 247.541 8.85482 246.887 9.13281 246.312C9.41536 245.734 9.80729 245.283 10.3086 244.959C10.8145 244.631 11.3613 244.467 11.9492 244.467C12.9108 244.467 13.6582 244.784 14.1914 245.417C14.7246 246.05 14.9912 246.957 14.9912 248.138V248.664H9.98047C9.9987 249.393 10.2106 249.983 10.6162 250.435C11.0264 250.881 11.5459 251.104 12.1748 251.104C12.6214 251.104 12.9997 251.013 13.3096 250.831C13.6195 250.649 13.8906 250.407 14.123 250.106L14.8955 250.708C14.2757 251.66 13.346 252.137 12.1064 252.137ZM11.9492 245.506C11.4388 245.506 11.0104 245.693 10.6641 246.066C10.3177 246.436 10.1035 246.955 10.0215 247.625H13.7266V247.529C13.6901 246.887 13.5169 246.39 13.207 246.039C12.8971 245.684 12.4779 245.506 11.9492 245.506ZM22.5107 252H21.2461V245.649H17.8418V252H16.5703V244.604H22.5107V252ZM30.7891 248.384C30.7891 249.509 30.5316 250.416 30.0166 251.104C29.5016 251.793 28.8044 252.137 27.9248 252.137C27.027 252.137 26.3206 251.852 25.8057 251.282V254.844H24.541V244.604H25.6963L25.7578 245.424C26.2728 244.786 26.9883 244.467 27.9043 244.467C28.793 244.467 29.4948 244.802 30.0098 245.472C30.5293 246.142 30.7891 247.074 30.7891 248.268V248.384ZM29.5244 248.24C29.5244 247.406 29.3467 246.748 28.9912 246.265C28.6357 245.782 28.1481 245.54 27.5283 245.54C26.7627 245.54 26.1885 245.88 25.8057 246.559V250.093C26.1839 250.767 26.7627 251.104 27.542 251.104C28.1481 251.104 28.6289 250.865 28.9844 250.387C29.3444 249.904 29.5244 249.188 29.5244 248.24ZM35.4717 252.137C34.4691 252.137 33.6533 251.809 33.0244 251.152C32.3955 250.492 32.0811 249.61 32.0811 248.507V248.274C32.0811 247.541 32.2201 246.887 32.498 246.312C32.7806 245.734 33.1725 245.283 33.6738 244.959C34.1797 244.631 34.7266 244.467 35.3145 244.467C36.276 244.467 37.0234 244.784 37.5566 245.417C38.0898 246.05 38.3564 246.957 38.3564 248.138V248.664H33.3457C33.3639 249.393 33.5758 249.983 33.9814 250.435C34.3916 250.881 34.9111 251.104 35.54 251.104C35.9867 251.104 36.3649 251.013 36.6748 250.831C36.9847 250.649 37.2559 250.407 37.4883 250.106L38.2607 250.708C37.641 251.66 36.7113 252.137 35.4717 252.137ZM35.3145 245.506C34.804 245.506 34.3757 245.693 34.0293 246.066C33.6829 246.436 33.4688 246.955 33.3867 247.625H37.0918V247.529C37.0553 246.887 36.8822 246.39 36.5723 246.039C36.2624 245.684 35.8431 245.506 35.3145 245.506ZM44.085 250.325L46.6006 244.604H48.1797V252H46.915V246.62L44.5225 252H43.6475L41.207 246.504V252H39.9424V244.604H41.583L44.085 250.325ZM53.2861 252.137C52.2835 252.137 51.4678 251.809 50.8389 251.152C50.21 250.492 49.8955 249.61 49.8955 248.507V248.274C49.8955 247.541 50.0345 246.887 50.3125 246.312C50.5951 245.734 50.987 245.283 51.4883 244.959C51.9941 244.631 52.541 244.467 53.1289 244.467C54.0905 244.467 54.8379 244.784 55.3711 245.417C55.9043 246.05 56.1709 246.957 56.1709 248.138V248.664H51.1602C51.1784 249.393 51.3903 249.983 51.7959 250.435C52.2061 250.881 52.7256 251.104 53.3545 251.104C53.8011 251.104 54.1794 251.013 54.4893 250.831C54.7992 250.649 55.0703 250.407 55.3027 250.106L56.0752 250.708C55.4554 251.66 54.5257 252.137 53.2861 252.137ZM53.1289 245.506C52.6185 245.506 52.1901 245.693 51.8438 246.066C51.4974 246.436 51.2832 246.955 51.2012 247.625H54.9062V247.529C54.8698 246.887 54.6966 246.39 54.3867 246.039C54.0768 245.684 53.6576 245.506 53.1289 245.506ZM63.6836 252H62.4189V248.842H59.0215V252H57.75V244.604H59.0215V247.81H62.4189V244.604H63.6836V252ZM71.7637 252H70.499V248.842H67.1016V252H65.8301V244.604H67.1016V247.81H70.499V244.604H71.7637V252ZM73.4658 248.233C73.4658 247.509 73.6071 246.857 73.8896 246.278C74.1768 245.7 74.5732 245.253 75.0791 244.938C75.5895 244.624 76.1706 244.467 76.8223 244.467C77.8294 244.467 78.6429 244.815 79.2627 245.513C79.887 246.21 80.1992 247.137 80.1992 248.295V248.384C80.1992 249.104 80.0602 249.751 79.7822 250.325C79.5088 250.895 79.1146 251.339 78.5996 251.658C78.0892 251.977 77.5013 252.137 76.8359 252.137C75.8333 252.137 75.0199 251.788 74.3955 251.091C73.7757 250.394 73.4658 249.471 73.4658 248.322V248.233ZM74.7373 248.384C74.7373 249.204 74.9264 249.863 75.3047 250.359C75.6875 250.856 76.1979 251.104 76.8359 251.104C77.4785 251.104 77.9889 250.854 78.3672 250.353C78.7454 249.847 78.9346 249.14 78.9346 248.233C78.9346 247.422 78.7409 246.766 78.3535 246.265C77.9707 245.759 77.4603 245.506 76.8223 245.506C76.1979 245.506 75.6943 245.754 75.3115 246.251C74.9287 246.748 74.7373 247.459 74.7373 248.384ZM90.043 244.604H91.3076V252H90.043V246.606L86.6318 252H85.3672V244.604H86.6318V250.004L90.043 244.604ZM97.4053 246.627C97.4053 246.281 97.2731 246.007 97.0088 245.807C96.7445 245.602 96.3822 245.499 95.9219 245.499C95.4753 245.499 95.1016 245.615 94.8008 245.848C94.5046 246.08 94.3564 246.354 94.3564 246.668H93.0986C93.0986 246.025 93.3675 245.499 93.9053 245.089C94.443 244.679 95.1152 244.474 95.9219 244.474C96.7878 244.474 97.4622 244.66 97.9453 245.034C98.4284 245.403 98.6699 245.932 98.6699 246.62C98.6699 246.953 98.5697 247.258 98.3691 247.536C98.1686 247.814 97.8838 248.035 97.5146 248.199C98.376 248.491 98.8066 249.065 98.8066 249.922C98.8066 250.601 98.5446 251.139 98.0205 251.535C97.4964 251.932 96.7969 252.13 95.9219 252.13C95.0697 252.13 94.3656 251.923 93.8096 251.508C93.2581 251.089 92.9824 250.523 92.9824 249.812H94.2402C94.2402 250.173 94.3997 250.482 94.7188 250.742C95.0423 250.997 95.4434 251.125 95.9219 251.125C96.4049 251.125 96.7946 251.013 97.0908 250.79C97.387 250.567 97.5352 250.277 97.5352 249.922C97.5352 249.507 97.4098 249.211 97.1592 249.033C96.9131 248.851 96.528 248.76 96.0039 248.76H94.7393V247.693H96.1133C96.9746 247.671 97.4053 247.315 97.4053 246.627ZM104.706 250.325L107.222 244.604H108.801V252H107.536V246.62L105.144 252H104.269L101.828 246.504V252H100.563V244.604H102.204L104.706 250.325ZM113.907 252.137C112.905 252.137 112.089 251.809 111.46 251.152C110.831 250.492 110.517 249.61 110.517 248.507V248.274C110.517 247.541 110.656 246.887 110.934 246.312C111.216 245.734 111.608 245.283 112.109 244.959C112.615 244.631 113.162 244.467 113.75 244.467C114.712 244.467 115.459 244.784 115.992 245.417C116.525 246.05 116.792 246.957 116.792 248.138V248.664H111.781C111.799 249.393 112.011 249.983 112.417 250.435C112.827 250.881 113.347 251.104 113.976 251.104C114.422 251.104 114.8 251.013 115.11 250.831C115.42 250.649 115.691 250.407 115.924 250.106L116.696 250.708C116.076 251.66 115.147 252.137 113.907 252.137ZM113.75 245.506C113.24 245.506 112.811 245.693 112.465 246.066C112.118 246.436 111.904 246.955 111.822 247.625H115.527V247.529C115.491 246.887 115.318 246.39 115.008 246.039C114.698 245.684 114.279 245.506 113.75 245.506ZM124.305 252H123.04V248.842H119.643V252H118.371V244.604H119.643V247.81H123.04V244.604H124.305V252ZM131.127 244.604H132.392V252H131.127V246.606L127.716 252H126.451V244.604H127.716V250.004L131.127 244.604ZM139.918 245.629H137.437V252H136.172V245.629H133.738V244.604H139.918V245.629ZM143.568 251.104C144.02 251.104 144.414 250.968 144.751 250.694C145.088 250.421 145.275 250.079 145.312 249.669H146.508C146.485 250.093 146.339 250.496 146.07 250.879C145.801 251.262 145.441 251.567 144.99 251.795C144.544 252.023 144.07 252.137 143.568 252.137C142.561 252.137 141.759 251.802 141.162 251.132C140.57 250.457 140.273 249.537 140.273 248.37V248.158C140.273 247.438 140.406 246.798 140.67 246.237C140.934 245.677 141.312 245.242 141.805 244.932C142.301 244.622 142.887 244.467 143.562 244.467C144.391 244.467 145.079 244.715 145.626 245.212C146.177 245.709 146.471 246.354 146.508 247.146H145.312C145.275 246.668 145.093 246.276 144.765 245.971C144.441 245.661 144.04 245.506 143.562 245.506C142.919 245.506 142.42 245.738 142.064 246.203C141.714 246.663 141.538 247.331 141.538 248.206V248.445C141.538 249.298 141.714 249.954 142.064 250.414C142.415 250.874 142.917 251.104 143.568 251.104ZM153.583 244.604V252H152.312V249.122H150.404L148.661 252H147.294L149.153 248.931C148.679 248.757 148.315 248.491 148.06 248.131C147.809 247.766 147.684 247.342 147.684 246.859C147.684 246.185 147.937 245.643 148.442 245.232C148.948 244.818 149.625 244.608 150.473 244.604H153.583ZM148.955 246.873C148.955 247.233 149.078 247.525 149.324 247.748C149.57 247.967 149.896 248.078 150.302 248.083H152.312V245.629H150.493C150.024 245.629 149.65 245.745 149.372 245.978C149.094 246.205 148.955 246.504 148.955 246.873ZM3.26074 268.849H2.33789V272H1.06641V264.604H2.33789V267.734H3.16504L5.65332 264.604H7.18457L4.25879 268.158L7.43066 272H5.82422L3.26074 268.849ZM18.0537 264.604V272H16.7822V265.649H14.2666L14.1162 268.418C14.0342 269.689 13.82 270.599 13.4736 271.146C13.1318 271.692 12.5872 271.977 11.8398 272H11.334V270.886L11.6963 270.858C12.1064 270.813 12.4004 270.576 12.5781 270.147C12.7559 269.719 12.8698 268.926 12.9199 267.769L13.0566 264.604H18.0537ZM22.5039 270.147L24.2266 264.604H25.5801L22.6064 273.142C22.1462 274.372 21.4147 274.987 20.4121 274.987L20.1729 274.967L19.7012 274.878V273.853L20.043 273.88C20.4714 273.88 20.804 273.793 21.041 273.62C21.2826 273.447 21.4808 273.13 21.6357 272.67L21.916 271.918L19.2773 264.604H20.6582L22.5039 270.147ZM32.2998 272H31.0283V269.32C30.4723 269.466 29.9027 269.539 29.3193 269.539C28.3942 269.539 27.6878 269.302 27.2002 268.828C26.7171 268.354 26.471 267.68 26.4619 266.805V264.597H27.7266V266.846C27.7493 267.949 28.2803 268.5 29.3193 268.5C29.9027 268.5 30.4723 268.427 31.0283 268.281V264.604H32.2998V272ZM35.7109 264.604V270.968H38.418V264.604H39.6826V270.968H42.3828V264.604H43.6543V272H34.4395V264.604H35.7109ZM48.7197 272.137C47.7171 272.137 46.9014 271.809 46.2725 271.152C45.6436 270.492 45.3291 269.61 45.3291 268.507V268.274C45.3291 267.541 45.4681 266.887 45.7461 266.312C46.0286 265.734 46.4206 265.283 46.9219 264.959C47.4277 264.631 47.9746 264.467 48.5625 264.467C49.5241 264.467 50.2715 264.784 50.8047 265.417C51.3379 266.05 51.6045 266.957 51.6045 268.138V268.664H46.5938C46.612 269.393 46.8239 269.983 47.2295 270.435C47.6396 270.881 48.1592 271.104 48.7881 271.104C49.2347 271.104 49.613 271.013 49.9229 270.831C50.2327 270.649 50.5039 270.407 50.7363 270.106L51.5088 270.708C50.889 271.66 49.9593 272.137 48.7197 272.137ZM48.5625 265.506C48.0521 265.506 47.6237 265.693 47.2773 266.066C46.931 266.436 46.7168 266.955 46.6348 267.625H50.3398V267.529C50.3034 266.887 50.1302 266.39 49.8203 266.039C49.5104 265.684 49.0911 265.506 48.5625 265.506ZM57.333 270.325L59.8486 264.604H61.4277V272H60.1631V266.62L57.7705 272H56.8955L54.4551 266.504V272H53.1904V264.604H54.8311L57.333 270.325Z" fill="#1B404E"/>
<rect y="41" width="100" height="100" rx="15" fill="#EEEEEE"/>
<path fill-rule="evenodd" clip-rule="evenodd" d="M40.5703 82.9425L41.0118 84.7085C42.278 89.7714 46.2301 93.7218 51.2913 94.9879L53.0572 95.4294L63.9954 84.4913C69.8371 78.6496 73.4466 70.9448 74.1936 62.7156L74.2854 61.7143L73.2842 61.8061C65.0549 62.5549 57.3502 66.1627 51.5067 72.0061L40.5703 82.9425Z" stroke="#1B404E" stroke-width="3" stroke-linecap="round" stroke-linejoin="round"/>
<path d="M60.4023 65.5344C60.895 67.3003 62.0093 69.4194 64.2962 71.7046C66.5072 73.9173 68.5627 75.0316 70.2968 75.549" stroke="#1B404E" stroke-width="3" stroke-linecap="round" stroke-linejoin="round"/>
<path d="M48.7948 87.2055L36.0942 99.906" stroke="#1B404E" stroke-width="3" stroke-linecap="round" stroke-linejoin="round"/>
<path fill-rule="evenodd" clip-rule="evenodd" d="M47.9696 75.5434L42.7919 74.92C39.0251 74.4662 35.2584 75.7677 32.5742 78.4519L24.3379 86.6899C24.3379 86.6899 34.3278 84.1911 40.5703 82.9426L47.9696 75.5434Z" stroke="#1B404E" stroke-width="3" stroke-linecap="round" stroke-linejoin="round"/>
<path fill-rule="evenodd" clip-rule="evenodd" d="M60.4563 88.0307L61.0814 93.2084C61.5335 96.9751 60.232 100.742 57.5496 103.426L49.3115 111.662C49.3115 111.662 51.8103 101.672 53.0588 95.4299L60.4563 88.0307Z" stroke="#1B404E" stroke-width="3" stroke-linecap="round" stroke-linejoin="round"/>
<path fill-rule="evenodd" clip-rule="evenodd" d="M59.3009 81.6942C57.9235 83.0734 55.686 83.0734 54.3069 81.6942C52.9277 80.315 52.9277 78.0793 54.3069 76.6984C55.686 75.321 57.9235 75.321 59.3009 76.6984C60.6801 78.0793 60.6801 80.315 59.3009 81.6942Z" stroke="#1B404E" stroke-width="3" stroke-linecap="round" stroke-linejoin="round"/>
<path d="M47.2427 99.3532C47.2427 99.3532 41.9449 111.715 24.2856 111.715C24.2856 94.0554 36.6472 88.7577 36.6472 88.7577" stroke="#FFC40E" stroke-width="3" stroke-linecap="round" stroke-linejoin="round"/>
<path d="M47.96 38.6C45.96 41.24 43.1733 42.56 39.6 42.56C36.0267 42.56 33.2267 41.24 31.2 38.6C29.2 35.9333 28.2 32.4 28.2 28C28.2 23.6 29.2 20.08 31.2 17.44C33.2267 14.7733 36.0267 13.44 39.6 13.44C43.1733 13.44 45.96 14.7733 47.96 17.44C49.9867 20.08 51 23.6 51 28C51 32.4 49.9867 35.9333 47.96 38.6ZM34.6 28C34.6 33.5467 36.2667 36.32 39.6 36.32C42.9333 36.32 44.6 33.5467 44.6 28C44.6 22.4533 42.9333 19.68 39.6 19.68C36.2667 19.68 34.6 22.4533 34.6 28ZM52.2941 42L52.2941 37.36L61.6941 27.6C63.5874 25.6533 64.5341 24 64.5341 22.64C64.5341 21.76 64.2674 21.0533 63.7341 20.52C63.2007 19.96 62.4674 19.68 61.5341 19.68C59.6674 19.68 58.2941 20.6933 57.4141 22.72L52.0141 19.56C52.8674 17.56 54.1474 16.04 55.8541 15C57.5607 13.96 59.4274 13.44 61.4541 13.44C64.0674 13.44 66.2941 14.2533 68.1341 15.88C70.0007 17.48 70.9341 19.64 70.9341 22.36C70.9341 25.32 69.4807 28.2533 66.5741 31.16L61.9341 35.84L71.3341 35.84L71.3341 42L52.2941 42Z" fill="#EEEEEE"/>
</svg>
