<svg width="156" height="307" viewBox="0 0 156 307" fill="none" xmlns="http://www.w3.org/2000/svg">
<path d="M9.47656 170.842C9.35352 171.895 8.96387 172.708 8.30762 173.282C7.65592 173.852 6.78776 174.137 5.70312 174.137C4.52734 174.137 3.58398 173.715 2.87305 172.872C2.16667 172.029 1.81348 170.901 1.81348 169.488V168.531C1.81348 167.606 1.97754 166.793 2.30566 166.091C2.63835 165.389 3.10775 164.851 3.71387 164.478C4.31999 164.099 5.02181 163.91 5.81934 163.91C6.87663 163.91 7.72428 164.206 8.3623 164.799C9.00033 165.387 9.37174 166.202 9.47656 167.246H8.15723C8.04329 166.453 7.79492 165.879 7.41211 165.523C7.03385 165.168 6.50293 164.99 5.81934 164.99C4.98079 164.99 4.32227 165.3 3.84375 165.92C3.36979 166.54 3.13281 167.422 3.13281 168.565V169.529C3.13281 170.609 3.3584 171.468 3.80957 172.106C4.26074 172.744 4.89193 173.063 5.70312 173.063C6.43229 173.063 6.99056 172.899 7.37793 172.571C7.76986 172.239 8.02962 171.662 8.15723 170.842H9.47656ZM10.7412 170.233C10.7412 169.509 10.8825 168.857 11.165 168.278C11.4521 167.7 11.8486 167.253 12.3545 166.938C12.8649 166.624 13.446 166.467 14.0977 166.467C15.1048 166.467 15.9183 166.815 16.5381 167.513C17.1624 168.21 17.4746 169.137 17.4746 170.295V170.384C17.4746 171.104 17.3356 171.751 17.0576 172.325C16.7842 172.895 16.39 173.339 15.875 173.658C15.3646 173.977 14.7767 174.137 14.1113 174.137C13.1087 174.137 12.2952 173.788 11.6709 173.091C11.0511 172.394 10.7412 171.471 10.7412 170.322V170.233ZM12.0127 170.384C12.0127 171.204 12.2018 171.863 12.5801 172.359C12.9629 172.856 13.4733 173.104 14.1113 173.104C14.7539 173.104 15.2643 172.854 15.6426 172.353C16.0208 171.847 16.21 171.14 16.21 170.233C16.21 169.422 16.0163 168.766 15.6289 168.265C15.2461 167.759 14.7357 167.506 14.0977 167.506C13.4733 167.506 12.9697 167.754 12.5869 168.251C12.2041 168.748 12.0127 169.459 12.0127 170.384ZM19.1768 174V166.604H22.0615C23.0459 166.604 23.8001 166.777 24.3242 167.123C24.8529 167.465 25.1172 167.968 25.1172 168.634C25.1172 168.976 25.0146 169.285 24.8096 169.563C24.6045 169.837 24.3014 170.047 23.9004 170.192C24.347 170.297 24.7048 170.502 24.9736 170.808C25.2471 171.113 25.3838 171.478 25.3838 171.901C25.3838 172.58 25.1331 173.1 24.6318 173.46C24.1351 173.82 23.431 174 22.5195 174H19.1768ZM20.4414 170.753V172.981H22.5332C23.0618 172.981 23.4561 172.883 23.7158 172.688C23.9801 172.492 24.1123 172.216 24.1123 171.86C24.1123 171.122 23.57 170.753 22.4854 170.753H20.4414ZM20.4414 169.741H22.0752C23.2601 169.741 23.8525 169.395 23.8525 168.702C23.8525 168.009 23.292 167.652 22.1709 167.629H20.4414V169.741ZM30.1279 174.137C29.1253 174.137 28.3096 173.809 27.6807 173.152C27.0518 172.492 26.7373 171.61 26.7373 170.507V170.274C26.7373 169.541 26.8763 168.887 27.1543 168.312C27.4368 167.734 27.8288 167.283 28.3301 166.959C28.8359 166.631 29.3828 166.467 29.9707 166.467C30.9323 166.467 31.6797 166.784 32.2129 167.417C32.7461 168.05 33.0127 168.957 33.0127 170.138V170.664H28.002C28.0202 171.393 28.2321 171.983 28.6377 172.435C29.0479 172.881 29.5674 173.104 30.1963 173.104C30.6429 173.104 31.0212 173.013 31.3311 172.831C31.641 172.649 31.9121 172.407 32.1445 172.106L32.917 172.708C32.2972 173.66 31.3675 174.137 30.1279 174.137ZM29.9707 167.506C29.4603 167.506 29.0319 167.693 28.6855 168.066C28.3392 168.436 28.125 168.955 28.043 169.625H31.748V169.529C31.7116 168.887 31.5384 168.39 31.2285 168.039C30.9186 167.684 30.4993 167.506 29.9707 167.506ZM40.7305 170.384C40.7305 171.509 40.473 172.416 39.958 173.104C39.443 173.793 38.7458 174.137 37.8662 174.137C36.9684 174.137 36.262 173.852 35.7471 173.282V176.844H34.4824V166.604H35.6377L35.6992 167.424C36.2142 166.786 36.9297 166.467 37.8457 166.467C38.7344 166.467 39.4362 166.802 39.9512 167.472C40.4707 168.142 40.7305 169.074 40.7305 170.268V170.384ZM39.4658 170.24C39.4658 169.406 39.2881 168.748 38.9326 168.265C38.5771 167.782 38.0895 167.54 37.4697 167.54C36.7041 167.54 36.1299 167.88 35.7471 168.559V172.093C36.1253 172.767 36.7041 173.104 37.4834 173.104C38.0895 173.104 38.5703 172.865 38.9258 172.387C39.2858 171.904 39.4658 171.188 39.4658 170.24ZM43.7246 166.604V172.968H46.4316V166.604H47.6963V172.968H50.3965V166.604H51.668V174H42.4531V166.604H43.7246ZM56.7334 174.137C55.7308 174.137 54.915 173.809 54.2861 173.152C53.6572 172.492 53.3428 171.61 53.3428 170.507V170.274C53.3428 169.541 53.4818 168.887 53.7598 168.312C54.0423 167.734 54.4342 167.283 54.9355 166.959C55.4414 166.631 55.9883 166.467 56.5762 166.467C57.5378 166.467 58.2852 166.784 58.8184 167.417C59.3516 168.05 59.6182 168.957 59.6182 170.138V170.664H54.6074C54.6257 171.393 54.8376 171.983 55.2432 172.435C55.6533 172.881 56.1729 173.104 56.8018 173.104C57.2484 173.104 57.6266 173.013 57.9365 172.831C58.2464 172.649 58.5176 172.407 58.75 172.106L59.5225 172.708C58.9027 173.66 57.973 174.137 56.7334 174.137ZM56.5762 167.506C56.0658 167.506 55.6374 167.693 55.291 168.066C54.9447 168.436 54.7305 168.955 54.6484 169.625H58.3535V169.529C58.3171 168.887 58.1439 168.39 57.834 168.039C57.5241 167.684 57.1048 167.506 56.5762 167.506ZM67.1309 174H65.8662V170.842H62.4688V174H61.1973V166.604H62.4688V169.81H65.8662V166.604H67.1309V174ZM75.2109 174H73.9463V170.842H70.5488V174H69.2773V166.604H70.5488V169.81H73.9463V166.604H75.2109V174ZM76.9131 170.233C76.9131 169.509 77.0544 168.857 77.3369 168.278C77.624 167.7 78.0205 167.253 78.5264 166.938C79.0368 166.624 79.6178 166.467 80.2695 166.467C81.2767 166.467 82.0902 166.815 82.71 167.513C83.3343 168.21 83.6465 169.137 83.6465 170.295V170.384C83.6465 171.104 83.5075 171.751 83.2295 172.325C82.9561 172.895 82.5618 173.339 82.0469 173.658C81.5365 173.977 80.9486 174.137 80.2832 174.137C79.2806 174.137 78.4671 173.788 77.8428 173.091C77.223 172.394 76.9131 171.471 76.9131 170.322V170.233ZM78.1846 170.384C78.1846 171.204 78.3737 171.863 78.752 172.359C79.1348 172.856 79.6452 173.104 80.2832 173.104C80.9258 173.104 81.4362 172.854 81.8145 172.353C82.1927 171.847 82.3818 171.14 82.3818 170.233C82.3818 169.422 82.1882 168.766 81.8008 168.265C81.418 167.759 80.9076 167.506 80.2695 167.506C79.6452 167.506 79.1416 167.754 78.7588 168.251C78.376 168.748 78.1846 169.459 78.1846 170.384ZM5.2041 187.027C6.13379 187.027 6.87663 187.34 7.43262 187.964C7.99316 188.584 8.27344 189.402 8.27344 190.418V190.534C8.27344 191.231 8.139 191.856 7.87012 192.407C7.60124 192.954 7.21387 193.38 6.70801 193.686C6.20671 193.986 5.62793 194.137 4.97168 194.137C3.97819 194.137 3.17839 193.806 2.57227 193.146C1.96615 192.48 1.66309 191.589 1.66309 190.473V189.857C1.66309 188.303 1.9502 187.068 2.52441 186.152C3.10319 185.236 3.9554 184.678 5.08105 184.478C5.71908 184.364 6.14974 184.225 6.37305 184.061C6.59635 183.896 6.70801 183.671 6.70801 183.384H7.74707C7.74707 183.953 7.61719 184.398 7.35742 184.717C7.10221 185.036 6.69206 185.261 6.12695 185.394L5.18359 185.605C4.43164 185.783 3.86654 186.084 3.48828 186.508C3.11458 186.927 2.87077 187.488 2.75684 188.189C3.42676 187.415 4.24251 187.027 5.2041 187.027ZM4.95801 188.066C4.33822 188.066 3.84603 188.276 3.48145 188.695C3.11686 189.11 2.93457 189.687 2.93457 190.425V190.534C2.93457 191.327 3.11686 191.956 3.48145 192.421C3.85059 192.881 4.34733 193.111 4.97168 193.111C5.60059 193.111 6.09733 192.879 6.46191 192.414C6.8265 191.949 7.00879 191.27 7.00879 190.377C7.00879 189.68 6.82422 189.121 6.45508 188.702C6.09049 188.278 5.59147 188.066 4.95801 188.066ZM12.7646 194.137C11.762 194.137 10.9463 193.809 10.3174 193.152C9.68848 192.492 9.37402 191.61 9.37402 190.507V190.274C9.37402 189.541 9.51302 188.887 9.79102 188.312C10.0736 187.734 10.4655 187.283 10.9668 186.959C11.4727 186.631 12.0195 186.467 12.6074 186.467C13.569 186.467 14.3164 186.784 14.8496 187.417C15.3828 188.05 15.6494 188.957 15.6494 190.138V190.664H10.6387C10.6569 191.393 10.8688 191.983 11.2744 192.435C11.6846 192.881 12.2041 193.104 12.833 193.104C13.2796 193.104 13.6579 193.013 13.9678 192.831C14.2777 192.649 14.5488 192.407 14.7812 192.106L15.5537 192.708C14.9339 193.66 14.0042 194.137 12.7646 194.137ZM12.6074 187.506C12.097 187.506 11.6686 187.693 11.3223 188.066C10.9759 188.436 10.7617 188.955 10.6797 189.625H14.3848V189.529C14.3483 188.887 14.1751 188.39 13.8652 188.039C13.5553 187.684 13.1361 187.506 12.6074 187.506ZM20.0859 193.104C20.5371 193.104 20.9313 192.968 21.2686 192.694C21.6058 192.421 21.7926 192.079 21.8291 191.669H23.0254C23.0026 192.093 22.8568 192.496 22.5879 192.879C22.319 193.262 21.959 193.567 21.5078 193.795C21.0612 194.023 20.5872 194.137 20.0859 194.137C19.0788 194.137 18.2767 193.802 17.6797 193.132C17.0872 192.457 16.791 191.537 16.791 190.37V190.158C16.791 189.438 16.9232 188.798 17.1875 188.237C17.4518 187.677 17.8301 187.242 18.3223 186.932C18.819 186.622 19.4046 186.467 20.0791 186.467C20.9085 186.467 21.5967 186.715 22.1436 187.212C22.695 187.709 22.9889 188.354 23.0254 189.146H21.8291C21.7926 188.668 21.6104 188.276 21.2822 187.971C20.9587 187.661 20.5576 187.506 20.0791 187.506C19.4365 187.506 18.9375 187.738 18.582 188.203C18.2311 188.663 18.0557 189.331 18.0557 190.206V190.445C18.0557 191.298 18.2311 191.954 18.582 192.414C18.9329 192.874 19.4342 193.104 20.0859 193.104ZM30.4971 194H29.2324V187.649H25.8281V194H24.5566V186.604H30.4971V194ZM38.5908 186.604V194H37.3193V187.649H34.8037L34.6533 190.418C34.5713 191.689 34.3571 192.599 34.0107 193.146C33.6689 193.692 33.1243 193.977 32.377 194H31.8711V192.886L32.2334 192.858C32.6436 192.813 32.9375 192.576 33.1152 192.147C33.293 191.719 33.4069 190.926 33.457 189.769L33.5938 186.604H38.5908ZM45.1875 194C45.1146 193.854 45.0553 193.594 45.0098 193.221C44.4219 193.831 43.7201 194.137 42.9043 194.137C42.1751 194.137 41.5758 193.932 41.1064 193.521C40.6416 193.107 40.4092 192.583 40.4092 191.949C40.4092 191.179 40.7008 190.582 41.2842 190.158C41.8721 189.73 42.6969 189.516 43.7588 189.516H44.9893V188.935C44.9893 188.493 44.8571 188.142 44.5928 187.882C44.3285 187.618 43.9388 187.485 43.4238 187.485C42.9727 187.485 42.5944 187.599 42.2891 187.827C41.9837 188.055 41.8311 188.331 41.8311 188.654H40.5596C40.5596 188.285 40.6895 187.93 40.9492 187.588C41.2135 187.242 41.569 186.968 42.0156 186.768C42.4668 186.567 42.9613 186.467 43.499 186.467C44.3512 186.467 45.0189 186.681 45.502 187.109C45.985 187.533 46.2357 188.119 46.2539 188.866V192.271C46.2539 192.95 46.3405 193.49 46.5137 193.891V194H45.1875ZM43.0889 193.036C43.4854 193.036 43.8613 192.934 44.2168 192.729C44.5723 192.523 44.8298 192.257 44.9893 191.929V190.411H43.998C42.4486 190.411 41.6738 190.865 41.6738 191.771C41.6738 192.168 41.806 192.478 42.0703 192.701C42.3346 192.924 42.6742 193.036 43.0889 193.036ZM53.623 187.629H51.1416V194H49.877V187.629H47.4434V186.604H53.623V187.629ZM60.8965 194H59.6318V190.842H56.2344V194H54.9629V186.604H56.2344V189.81H59.6318V186.604H60.8965V194ZM62.5986 190.233C62.5986 189.509 62.7399 188.857 63.0225 188.278C63.3096 187.7 63.7061 187.253 64.2119 186.938C64.7223 186.624 65.3034 186.467 65.9551 186.467C66.9622 186.467 67.7757 186.815 68.3955 187.513C69.0199 188.21 69.332 189.137 69.332 190.295V190.384C69.332 191.104 69.193 191.751 68.915 192.325C68.6416 192.895 68.2474 193.339 67.7324 193.658C67.222 193.977 66.6341 194.137 65.9688 194.137C64.9661 194.137 64.1527 193.788 63.5283 193.091C62.9085 192.394 62.5986 191.471 62.5986 190.322V190.233ZM63.8701 190.384C63.8701 191.204 64.0592 191.863 64.4375 192.359C64.8203 192.856 65.3307 193.104 65.9688 193.104C66.6113 193.104 67.1217 192.854 67.5 192.353C67.8783 191.847 68.0674 191.14 68.0674 190.233C68.0674 189.422 67.8737 188.766 67.4863 188.265C67.1035 187.759 66.5931 187.506 65.9551 187.506C65.3307 187.506 64.8271 187.754 64.4443 188.251C64.0615 188.748 63.8701 189.459 63.8701 190.384ZM80.4404 194H79.1758V187.649H75.7715V194H74.5V186.604H80.4404V194ZM82.1357 190.233C82.1357 189.509 82.277 188.857 82.5596 188.278C82.8467 187.7 83.2432 187.253 83.749 186.938C84.2594 186.624 84.8405 186.467 85.4922 186.467C86.4993 186.467 87.3128 186.815 87.9326 187.513C88.557 188.21 88.8691 189.137 88.8691 190.295V190.384C88.8691 191.104 88.7301 191.751 88.4521 192.325C88.1787 192.895 87.7845 193.339 87.2695 193.658C86.7591 193.977 86.1712 194.137 85.5059 194.137C84.5033 194.137 83.6898 193.788 83.0654 193.091C82.4456 192.394 82.1357 191.471 82.1357 190.322V190.233ZM83.4072 190.384C83.4072 191.204 83.5964 191.863 83.9746 192.359C84.3574 192.856 84.8678 193.104 85.5059 193.104C86.1484 193.104 86.6589 192.854 87.0371 192.353C87.4154 191.847 87.6045 191.14 87.6045 190.233C87.6045 189.422 87.4108 188.766 87.0234 188.265C86.6406 187.759 86.1302 187.506 85.4922 187.506C84.8678 187.506 84.3643 187.754 83.9814 188.251C83.5986 188.748 83.4072 189.459 83.4072 190.384ZM96.4092 186.604V194H95.1377V187.649H92.6221L92.4717 190.418C92.3896 191.689 92.1755 192.599 91.8291 193.146C91.4873 193.692 90.9427 193.977 90.1953 194H89.6895V192.886L90.0518 192.858C90.4619 192.813 90.7559 192.576 90.9336 192.147C91.1113 191.719 91.2253 190.926 91.2754 189.769L91.4121 186.604H96.4092ZM100.859 192.147L102.582 186.604H103.936L100.962 195.142C100.502 196.372 99.7702 196.987 98.7676 196.987L98.5283 196.967L98.0566 196.878V195.853L98.3984 195.88C98.8268 195.88 99.1595 195.793 99.3965 195.62C99.638 195.447 99.8363 195.13 99.9912 194.67L100.271 193.918L97.6328 186.604H99.0137L100.859 192.147ZM110.655 194H109.384V191.32C108.828 191.466 108.258 191.539 107.675 191.539C106.75 191.539 106.043 191.302 105.556 190.828C105.073 190.354 104.826 189.68 104.817 188.805V186.597H106.082V188.846C106.105 189.949 106.636 190.5 107.675 190.5C108.258 190.5 108.828 190.427 109.384 190.281V186.604H110.655V194ZM117.471 186.604H118.735V194H117.471V188.606L114.06 194H112.795V186.604H114.06V192.004L117.471 186.604ZM3.33789 205.604V211.968H6.04492V205.604H7.30957V211.968H10.0098V205.604H11.2812V213H2.06641V205.604H3.33789ZM17.8438 213C17.7708 212.854 17.7116 212.594 17.666 212.221C17.0781 212.831 16.3763 213.137 15.5605 213.137C14.8314 213.137 14.2321 212.932 13.7627 212.521C13.2979 212.107 13.0654 211.583 13.0654 210.949C13.0654 210.179 13.3571 209.582 13.9404 209.158C14.5283 208.73 15.3532 208.516 16.415 208.516H17.6455V207.935C17.6455 207.493 17.5133 207.142 17.249 206.882C16.9847 206.618 16.5951 206.485 16.0801 206.485C15.6289 206.485 15.2507 206.599 14.9453 206.827C14.64 207.055 14.4873 207.331 14.4873 207.654H13.2158C13.2158 207.285 13.3457 206.93 13.6055 206.588C13.8698 206.242 14.2253 205.968 14.6719 205.768C15.123 205.567 15.6175 205.467 16.1553 205.467C17.0075 205.467 17.6751 205.681 18.1582 206.109C18.6413 206.533 18.8919 207.119 18.9102 207.866V211.271C18.9102 211.95 18.9967 212.49 19.1699 212.891V213H17.8438ZM15.7451 212.036C16.1416 212.036 16.5176 211.934 16.873 211.729C17.2285 211.523 17.486 211.257 17.6455 210.929V209.411H16.6543C15.1048 209.411 14.3301 209.865 14.3301 210.771C14.3301 211.168 14.4622 211.478 14.7266 211.701C14.9909 211.924 15.3304 212.036 15.7451 212.036ZM26.9355 213H25.6709V209.842H22.2734V213H21.002V205.604H22.2734V208.81H25.6709V205.604H26.9355V213ZM31.9395 212.104C32.3906 212.104 32.7848 211.968 33.1221 211.694C33.4593 211.421 33.6462 211.079 33.6826 210.669H34.8789C34.8561 211.093 34.7103 211.496 34.4414 211.879C34.1725 212.262 33.8125 212.567 33.3613 212.795C32.9147 213.023 32.4408 213.137 31.9395 213.137C30.9323 213.137 30.1302 212.802 29.5332 212.132C28.9408 211.457 28.6445 210.537 28.6445 209.37V209.158C28.6445 208.438 28.7767 207.798 29.041 207.237C29.3053 206.677 29.6836 206.242 30.1758 205.932C30.6725 205.622 31.2581 205.467 31.9326 205.467C32.762 205.467 33.4502 205.715 33.9971 206.212C34.5485 206.709 34.8424 207.354 34.8789 208.146H33.6826C33.6462 207.668 33.4639 207.276 33.1357 206.971C32.8122 206.661 32.4111 206.506 31.9326 206.506C31.29 206.506 30.791 206.738 30.4355 207.203C30.0846 207.663 29.9092 208.331 29.9092 209.206V209.445C29.9092 210.298 30.0846 210.954 30.4355 211.414C30.7865 211.874 31.2878 212.104 31.9395 212.104ZM46.0215 209.384C46.0215 210.509 45.764 211.416 45.249 212.104C44.734 212.793 44.0368 213.137 43.1572 213.137C42.2594 213.137 41.5531 212.852 41.0381 212.282V215.844H39.7734V205.604H40.9287L40.9902 206.424C41.5052 205.786 42.2207 205.467 43.1367 205.467C44.0254 205.467 44.7272 205.802 45.2422 206.472C45.7617 207.142 46.0215 208.074 46.0215 209.268V209.384ZM44.7568 209.24C44.7568 208.406 44.5791 207.748 44.2236 207.265C43.8682 206.782 43.3805 206.54 42.7607 206.54C41.9951 206.54 41.4209 206.88 41.0381 207.559V211.093C41.4163 211.767 41.9951 212.104 42.7744 212.104C43.3805 212.104 43.8613 211.865 44.2168 211.387C44.5768 210.904 44.7568 210.188 44.7568 209.24ZM50.7041 213.137C49.7015 213.137 48.8857 212.809 48.2568 212.152C47.6279 211.492 47.3135 210.61 47.3135 209.507V209.274C47.3135 208.541 47.4525 207.887 47.7305 207.312C48.013 206.734 48.4049 206.283 48.9062 205.959C49.4121 205.631 49.959 205.467 50.5469 205.467C51.5085 205.467 52.2559 205.784 52.7891 206.417C53.3223 207.05 53.5889 207.957 53.5889 209.138V209.664H48.5781C48.5964 210.393 48.8083 210.983 49.2139 211.435C49.624 211.881 50.1436 212.104 50.7725 212.104C51.2191 212.104 51.5973 212.013 51.9072 211.831C52.2171 211.649 52.4883 211.407 52.7207 211.106L53.4932 211.708C52.8734 212.66 51.9437 213.137 50.7041 213.137ZM50.5469 206.506C50.0365 206.506 49.6081 206.693 49.2617 207.066C48.9154 207.436 48.7012 207.955 48.6191 208.625H52.3242V208.529C52.2878 207.887 52.1146 207.39 51.8047 207.039C51.4948 206.684 51.0755 206.506 50.5469 206.506ZM56.4395 205.604V211.968H59.1465V205.604H60.4111V211.968H63.1113V205.604H64.3828V213H55.168V205.604H56.4395ZM71.1641 205.604H72.4287V213H71.1641V207.606L67.7529 213H66.4883V205.604H67.7529V211.004L71.1641 205.604ZM79.9551 206.629H77.4736V213H76.209V206.629H73.7754V205.604H79.9551V206.629ZM82.5664 208.153H84.4873C85.3258 208.162 85.9889 208.381 86.4766 208.81C86.9642 209.238 87.208 209.819 87.208 210.553C87.208 211.291 86.9574 211.883 86.4561 212.33C85.9548 212.777 85.2803 213 84.4326 213H81.3018V205.604H82.5664V208.153ZM82.5664 209.186V211.968H84.4463C84.9202 211.968 85.2871 211.847 85.5469 211.605C85.8066 211.359 85.9365 211.024 85.9365 210.601C85.9365 210.19 85.8089 209.855 85.5537 209.596C85.3031 209.331 84.9499 209.195 84.4941 209.186H82.5664ZM95.2266 212.104C95.6777 212.104 96.0719 211.968 96.4092 211.694C96.7464 211.421 96.9333 211.079 96.9697 210.669H98.166C98.1432 211.093 97.9974 211.496 97.7285 211.879C97.4596 212.262 97.0996 212.567 96.6484 212.795C96.2018 213.023 95.7279 213.137 95.2266 213.137C94.2194 213.137 93.4173 212.802 92.8203 212.132C92.2279 211.457 91.9316 210.537 91.9316 209.37V209.158C91.9316 208.438 92.0638 207.798 92.3281 207.237C92.5924 206.677 92.9707 206.242 93.4629 205.932C93.9596 205.622 94.5452 205.467 95.2197 205.467C96.0492 205.467 96.7373 205.715 97.2842 206.212C97.8356 206.709 98.1296 207.354 98.166 208.146H96.9697C96.9333 207.668 96.751 207.276 96.4229 206.971C96.0993 206.661 95.6982 206.506 95.2197 206.506C94.5771 206.506 94.0781 206.738 93.7227 207.203C93.3717 207.663 93.1963 208.331 93.1963 209.206V209.445C93.1963 210.298 93.3717 210.954 93.7227 211.414C94.0736 211.874 94.5749 212.104 95.2266 212.104ZM99.7041 213V205.604H102.589C103.573 205.604 104.327 205.777 104.852 206.123C105.38 206.465 105.645 206.968 105.645 207.634C105.645 207.976 105.542 208.285 105.337 208.563C105.132 208.837 104.829 209.047 104.428 209.192C104.874 209.297 105.232 209.502 105.501 209.808C105.774 210.113 105.911 210.478 105.911 210.901C105.911 211.58 105.66 212.1 105.159 212.46C104.662 212.82 103.958 213 103.047 213H99.7041ZM100.969 209.753V211.981H103.061C103.589 211.981 103.983 211.883 104.243 211.688C104.507 211.492 104.64 211.216 104.64 210.86C104.64 210.122 104.097 209.753 103.013 209.753H100.969ZM100.969 208.741H102.603C103.787 208.741 104.38 208.395 104.38 207.702C104.38 207.009 103.819 206.652 102.698 206.629H100.969V208.741ZM107.251 209.233C107.251 208.509 107.392 207.857 107.675 207.278C107.962 206.7 108.358 206.253 108.864 205.938C109.375 205.624 109.956 205.467 110.607 205.467C111.615 205.467 112.428 205.815 113.048 206.513C113.672 207.21 113.984 208.137 113.984 209.295V209.384C113.984 210.104 113.845 210.751 113.567 211.325C113.294 211.895 112.9 212.339 112.385 212.658C111.874 212.977 111.286 213.137 110.621 213.137C109.618 213.137 108.805 212.788 108.181 212.091C107.561 211.394 107.251 210.471 107.251 209.322V209.233ZM108.522 209.384C108.522 210.204 108.712 210.863 109.09 211.359C109.473 211.856 109.983 212.104 110.621 212.104C111.264 212.104 111.774 211.854 112.152 211.353C112.531 210.847 112.72 210.14 112.72 209.233C112.72 208.422 112.526 207.766 112.139 207.265C111.756 206.759 111.245 206.506 110.607 206.506C109.983 206.506 109.479 206.754 109.097 207.251C108.714 207.748 108.522 208.459 108.522 209.384ZM120.355 205.604H121.62V213H120.355V207.606L116.944 213H115.68V205.604H116.944V211.004L120.355 205.604ZM1.68359 229.438C1.68359 228.203 1.92285 227.233 2.40137 226.526C2.87988 225.82 3.53613 225.467 4.37012 225.467C4.75749 225.467 5.09701 225.533 5.38867 225.665V222.5H6.65332V225.706C6.97233 225.547 7.34603 225.467 7.77441 225.467C8.61296 225.467 9.27148 225.82 9.75 226.526C10.2285 227.233 10.4678 228.251 10.4678 229.582C10.4678 230.671 10.2285 231.537 9.75 232.18C9.27604 232.822 8.62207 233.144 7.78809 233.144C7.34603 233.144 6.96777 233.071 6.65332 232.925V235.844H5.38867V232.945C5.08789 233.077 4.74382 233.144 4.35645 233.144C3.52702 233.144 2.87305 232.822 2.39453 232.18C1.92057 231.537 1.68359 230.658 1.68359 229.541V229.438ZM9.20312 229.438C9.20312 228.509 9.04362 227.789 8.72461 227.278C8.4056 226.763 7.96582 226.506 7.40527 226.506C7.11816 226.506 6.86751 226.551 6.65332 226.643V231.995C6.8584 232.073 7.11361 232.111 7.41895 232.111C7.98405 232.111 8.42155 231.893 8.73145 231.455C9.0459 231.018 9.20312 230.345 9.20312 229.438ZM2.94824 229.582C2.94824 230.411 3.09635 231.04 3.39258 231.469C3.6888 231.897 4.11491 232.111 4.6709 232.111C4.93522 232.111 5.17448 232.07 5.38867 231.988V226.622C5.19727 226.545 4.96257 226.506 4.68457 226.506C4.12858 226.506 3.7002 226.754 3.39941 227.251C3.09863 227.748 2.94824 228.525 2.94824 229.582ZM16.9004 225.604H18.165V233H16.9004V227.606L13.4893 233H12.2246V225.604H13.4893V231.004L16.9004 225.604ZM26.2383 233H24.9736V229.842H21.5762V233H20.3047V225.604H21.5762V228.81H24.9736V225.604H26.2383V233ZM32.8418 233C32.7689 232.854 32.7096 232.594 32.6641 232.221C32.0762 232.831 31.3743 233.137 30.5586 233.137C29.8294 233.137 29.2301 232.932 28.7607 232.521C28.2959 232.107 28.0635 231.583 28.0635 230.949C28.0635 230.179 28.3551 229.582 28.9385 229.158C29.5264 228.73 30.3512 228.516 31.4131 228.516H32.6436V227.935C32.6436 227.493 32.5114 227.142 32.2471 226.882C31.9827 226.618 31.5931 226.485 31.0781 226.485C30.627 226.485 30.2487 226.599 29.9434 226.827C29.638 227.055 29.4854 227.331 29.4854 227.654H28.2139C28.2139 227.285 28.3438 226.93 28.6035 226.588C28.8678 226.242 29.2233 225.968 29.6699 225.768C30.1211 225.567 30.6156 225.467 31.1533 225.467C32.0055 225.467 32.6732 225.681 33.1562 226.109C33.6393 226.533 33.89 227.119 33.9082 227.866V231.271C33.9082 231.95 33.9948 232.49 34.168 232.891V233H32.8418ZM30.7432 232.036C31.1396 232.036 31.5156 231.934 31.8711 231.729C32.2266 231.523 32.484 231.257 32.6436 230.929V229.411H31.6523C30.1029 229.411 29.3281 229.865 29.3281 230.771C29.3281 231.168 29.4603 231.478 29.7246 231.701C29.9889 231.924 30.3285 232.036 30.7432 232.036ZM41.9336 233H40.6689V229.842H37.2715V233H36V225.604H37.2715V228.81H40.6689V225.604H41.9336V233ZM46.9375 232.104C47.3887 232.104 47.7829 231.968 48.1201 231.694C48.4574 231.421 48.6442 231.079 48.6807 230.669H49.877C49.8542 231.093 49.7083 231.496 49.4395 231.879C49.1706 232.262 48.8105 232.567 48.3594 232.795C47.9128 233.023 47.4388 233.137 46.9375 233.137C45.9303 233.137 45.1283 232.802 44.5312 232.132C43.9388 231.457 43.6426 230.537 43.6426 229.37V229.158C43.6426 228.438 43.7747 227.798 44.0391 227.237C44.3034 226.677 44.6816 226.242 45.1738 225.932C45.6706 225.622 46.2562 225.467 46.9307 225.467C47.7601 225.467 48.4482 225.715 48.9951 226.212C49.5465 226.709 49.8405 227.354 49.877 228.146H48.6807C48.6442 227.668 48.4619 227.276 48.1338 226.971C47.8102 226.661 47.4092 226.506 46.9307 226.506C46.2881 226.506 45.7891 226.738 45.4336 227.203C45.0827 227.663 44.9072 228.331 44.9072 229.206V229.445C44.9072 230.298 45.0827 230.954 45.4336 231.414C45.7845 231.874 46.2858 232.104 46.9375 232.104ZM50.9639 229.233C50.9639 228.509 51.1051 227.857 51.3877 227.278C51.6748 226.7 52.0713 226.253 52.5771 225.938C53.0876 225.624 53.6686 225.467 54.3203 225.467C55.3275 225.467 56.141 225.815 56.7607 226.513C57.3851 227.21 57.6973 228.137 57.6973 229.295V229.384C57.6973 230.104 57.5583 230.751 57.2803 231.325C57.0068 231.895 56.6126 232.339 56.0977 232.658C55.5872 232.977 54.9993 233.137 54.334 233.137C53.3314 233.137 52.5179 232.788 51.8936 232.091C51.2738 231.394 50.9639 230.471 50.9639 229.322V229.233ZM52.2354 229.384C52.2354 230.204 52.4245 230.863 52.8027 231.359C53.1855 231.856 53.696 232.104 54.334 232.104C54.9766 232.104 55.487 231.854 55.8652 231.353C56.2435 230.847 56.4326 230.14 56.4326 229.233C56.4326 228.422 56.2389 227.766 55.8516 227.265C55.4688 226.759 54.9583 226.506 54.3203 226.506C53.696 226.506 53.1924 226.754 52.8096 227.251C52.4268 227.748 52.2354 228.459 52.2354 229.384ZM59.3994 233V225.604H62.2842C63.2686 225.604 64.0228 225.777 64.5469 226.123C65.0755 226.465 65.3398 226.968 65.3398 227.634C65.3398 227.976 65.2373 228.285 65.0322 228.563C64.8271 228.837 64.5241 229.047 64.123 229.192C64.5697 229.297 64.9274 229.502 65.1963 229.808C65.4697 230.113 65.6064 230.478 65.6064 230.901C65.6064 231.58 65.3558 232.1 64.8545 232.46C64.3577 232.82 63.6536 233 62.7422 233H59.3994ZM60.6641 229.753V231.981H62.7559C63.2845 231.981 63.6787 231.883 63.9385 231.688C64.2028 231.492 64.335 231.216 64.335 230.86C64.335 230.122 63.7926 229.753 62.708 229.753H60.6641ZM60.6641 228.741H62.2979C63.4827 228.741 64.0752 228.395 64.0752 227.702C64.0752 227.009 63.5146 226.652 62.3936 226.629H60.6641V228.741ZM68.6621 228.153H70.583C71.4215 228.162 72.0846 228.381 72.5723 228.81C73.0599 229.238 73.3037 229.819 73.3037 230.553C73.3037 231.291 73.0531 231.883 72.5518 232.33C72.0505 232.777 71.376 233 70.5283 233H67.3975V225.604H68.6621V228.153ZM75.9424 233H74.6709V225.604H75.9424V233ZM68.6621 229.186V231.968H70.542C71.016 231.968 71.3828 231.847 71.6426 231.605C71.9023 231.359 72.0322 231.024 72.0322 230.601C72.0322 230.19 71.9046 229.855 71.6494 229.596C71.3988 229.331 71.0456 229.195 70.5898 229.186H68.6621ZM81.2197 233.137C80.2171 233.137 79.4014 232.809 78.7725 232.152C78.1436 231.492 77.8291 230.61 77.8291 229.507V229.274C77.8291 228.541 77.9681 227.887 78.2461 227.312C78.5286 226.734 78.9206 226.283 79.4219 225.959C79.9277 225.631 80.4746 225.467 81.0625 225.467C82.0241 225.467 82.7715 225.784 83.3047 226.417C83.8379 227.05 84.1045 227.957 84.1045 229.138V229.664H79.0938C79.112 230.393 79.3239 230.983 79.7295 231.435C80.1396 231.881 80.6592 232.104 81.2881 232.104C81.7347 232.104 82.113 232.013 82.4229 231.831C82.7327 231.649 83.0039 231.407 83.2363 231.106L84.0088 231.708C83.389 232.66 82.4593 233.137 81.2197 233.137ZM81.0625 226.506C80.5521 226.506 80.1237 226.693 79.7773 227.066C79.431 227.436 79.2168 227.955 79.1348 228.625H82.8398V228.529C82.8034 227.887 82.6302 227.39 82.3203 227.039C82.0104 226.684 81.5911 226.506 81.0625 226.506ZM8.00684 252H6.74219V245.649H3.33789V252H2.06641V244.604H8.00684V252ZM16.2852 248.384C16.2852 249.509 16.0277 250.416 15.5127 251.104C14.9977 251.793 14.3005 252.137 13.4209 252.137C12.5231 252.137 11.8167 251.852 11.3018 251.282V254.844H10.0371V244.604H11.1924L11.2539 245.424C11.7689 244.786 12.4844 244.467 13.4004 244.467C14.2891 244.467 14.9909 244.802 15.5059 245.472C16.0254 246.142 16.2852 247.074 16.2852 248.268V248.384ZM15.0205 248.24C15.0205 247.406 14.8428 246.748 14.4873 246.265C14.1318 245.782 13.6442 245.54 13.0244 245.54C12.2588 245.54 11.6846 245.88 11.3018 246.559V250.093C11.68 250.767 12.2588 251.104 13.0381 251.104C13.6442 251.104 14.125 250.865 14.4805 250.387C14.8405 249.904 15.0205 249.188 15.0205 248.24ZM17.5635 248.233C17.5635 247.509 17.7048 246.857 17.9873 246.278C18.2744 245.7 18.6709 245.253 19.1768 244.938C19.6872 244.624 20.2682 244.467 20.9199 244.467C21.9271 244.467 22.7406 244.815 23.3604 245.513C23.9847 246.21 24.2969 247.137 24.2969 248.295V248.384C24.2969 249.104 24.1579 249.751 23.8799 250.325C23.6064 250.895 23.2122 251.339 22.6973 251.658C22.1868 251.977 21.599 252.137 20.9336 252.137C19.931 252.137 19.1175 251.788 18.4932 251.091C17.8734 250.394 17.5635 249.471 17.5635 248.322V248.233ZM18.835 248.384C18.835 249.204 19.0241 249.863 19.4023 250.359C19.7852 250.856 20.2956 251.104 20.9336 251.104C21.5762 251.104 22.0866 250.854 22.4648 250.353C22.8431 249.847 23.0322 249.14 23.0322 248.233C23.0322 247.422 22.8385 246.766 22.4512 246.265C22.0684 245.759 21.5579 245.506 20.9199 245.506C20.2956 245.506 19.792 245.754 19.4092 246.251C19.0264 246.748 18.835 247.459 18.835 248.384ZM29.1299 245.027C30.0596 245.027 30.8024 245.34 31.3584 245.964C31.9189 246.584 32.1992 247.402 32.1992 248.418V248.534C32.1992 249.231 32.0648 249.856 31.7959 250.407C31.527 250.954 31.1396 251.38 30.6338 251.686C30.1325 251.986 29.5537 252.137 28.8975 252.137C27.904 252.137 27.1042 251.806 26.498 251.146C25.8919 250.48 25.5889 249.589 25.5889 248.473V247.857C25.5889 246.303 25.876 245.068 26.4502 244.152C27.029 243.236 27.8812 242.678 29.0068 242.478C29.6449 242.364 30.0755 242.225 30.2988 242.061C30.5221 241.896 30.6338 241.671 30.6338 241.384H31.6729C31.6729 241.953 31.543 242.398 31.2832 242.717C31.028 243.036 30.6178 243.261 30.0527 243.394L29.1094 243.605C28.3574 243.783 27.7923 244.084 27.4141 244.508C27.0404 244.927 26.7965 245.488 26.6826 246.189C27.3525 245.415 28.1683 245.027 29.1299 245.027ZM28.8838 246.066C28.264 246.066 27.7718 246.276 27.4072 246.695C27.0426 247.11 26.8604 247.687 26.8604 248.425V248.534C26.8604 249.327 27.0426 249.956 27.4072 250.421C27.7764 250.881 28.2731 251.111 28.8975 251.111C29.5264 251.111 30.0231 250.879 30.3877 250.414C30.7523 249.949 30.9346 249.27 30.9346 248.377C30.9346 247.68 30.75 247.121 30.3809 246.702C30.0163 246.278 29.5173 246.066 28.8838 246.066ZM39.6846 244.604V252H38.4131V245.649H35.8975L35.7471 248.418C35.665 249.689 35.4508 250.599 35.1045 251.146C34.7627 251.692 34.2181 251.977 33.4707 252H32.9648V250.886L33.3271 250.858C33.7373 250.813 34.0312 250.576 34.209 250.147C34.3867 249.719 34.5007 248.926 34.5508 247.769L34.6875 244.604H39.6846ZM44.7842 252.137C43.7816 252.137 42.9658 251.809 42.3369 251.152C41.708 250.492 41.3936 249.61 41.3936 248.507V248.274C41.3936 247.541 41.5326 246.887 41.8105 246.312C42.0931 245.734 42.485 245.283 42.9863 244.959C43.4922 244.631 44.0391 244.467 44.627 244.467C45.5885 244.467 46.3359 244.784 46.8691 245.417C47.4023 246.05 47.6689 246.957 47.6689 248.138V248.664H42.6582C42.6764 249.393 42.8883 249.983 43.2939 250.435C43.7041 250.881 44.2236 251.104 44.8525 251.104C45.2992 251.104 45.6774 251.013 45.9873 250.831C46.2972 250.649 46.5684 250.407 46.8008 250.106L47.5732 250.708C46.9535 251.66 46.0238 252.137 44.7842 252.137ZM44.627 245.506C44.1165 245.506 43.6882 245.693 43.3418 246.066C42.9954 246.436 42.7812 246.955 42.6992 247.625H46.4043V247.529C46.3678 246.887 46.1947 246.39 45.8848 246.039C45.5749 245.684 45.1556 245.506 44.627 245.506ZM53.3975 250.325L55.9131 244.604H57.4922V252H56.2275V246.62L53.835 252H52.96L50.5195 246.504V252H49.2549V244.604H50.8955L53.3975 250.325ZM60.9102 247.153H62.8311C63.6696 247.162 64.3327 247.381 64.8203 247.81C65.3079 248.238 65.5518 248.819 65.5518 249.553C65.5518 250.291 65.3011 250.883 64.7998 251.33C64.2985 251.777 63.624 252 62.7764 252H59.6455V244.604H60.9102V247.153ZM68.1904 252H66.9189V244.604H68.1904V252ZM60.9102 248.186V250.968H62.79C63.264 250.968 63.6309 250.847 63.8906 250.605C64.1504 250.359 64.2803 250.024 64.2803 249.601C64.2803 249.19 64.1527 248.855 63.8975 248.596C63.6468 248.331 63.2936 248.195 62.8379 248.186H60.9102ZM77.1182 245.027C78.0479 245.027 78.7907 245.34 79.3467 245.964C79.9072 246.584 80.1875 247.402 80.1875 248.418V248.534C80.1875 249.231 80.0531 249.856 79.7842 250.407C79.5153 250.954 79.1279 251.38 78.6221 251.686C78.1208 251.986 77.542 252.137 76.8857 252.137C75.8923 252.137 75.0924 251.806 74.4863 251.146C73.8802 250.48 73.5771 249.589 73.5771 248.473V247.857C73.5771 246.303 73.8643 245.068 74.4385 244.152C75.0173 243.236 75.8695 242.678 76.9951 242.478C77.6331 242.364 78.0638 242.225 78.2871 242.061C78.5104 241.896 78.6221 241.671 78.6221 241.384H79.6611C79.6611 241.953 79.5312 242.398 79.2715 242.717C79.0163 243.036 78.6061 243.261 78.041 243.394L77.0977 243.605C76.3457 243.783 75.7806 244.084 75.4023 244.508C75.0286 244.927 74.7848 245.488 74.6709 246.189C75.3408 245.415 76.1566 245.027 77.1182 245.027ZM76.8721 246.066C76.2523 246.066 75.7601 246.276 75.3955 246.695C75.0309 247.11 74.8486 247.687 74.8486 248.425V248.534C74.8486 249.327 75.0309 249.956 75.3955 250.421C75.7646 250.881 76.2614 251.111 76.8857 251.111C77.5146 251.111 78.0114 250.879 78.376 250.414C78.7406 249.949 78.9229 249.27 78.9229 248.377C78.9229 247.68 78.7383 247.121 78.3691 246.702C78.0046 246.278 77.5055 246.066 76.8721 246.066ZM82.9902 247.153H84.9111C85.7497 247.162 86.4128 247.381 86.9004 247.81C87.388 248.238 87.6318 248.819 87.6318 249.553C87.6318 250.291 87.3812 250.883 86.8799 251.33C86.3786 251.777 85.7041 252 84.8564 252H81.7256V244.604H82.9902V247.153ZM90.2705 252H88.999V244.604H90.2705V252ZM82.9902 248.186V250.968H84.8701C85.3441 250.968 85.7109 250.847 85.9707 250.605C86.2305 250.359 86.3604 250.024 86.3604 249.601C86.3604 249.19 86.2327 248.855 85.9775 248.596C85.7269 248.331 85.3737 248.195 84.918 248.186H82.9902ZM95.4453 251.104C95.8965 251.104 96.2907 250.968 96.6279 250.694C96.9652 250.421 97.152 250.079 97.1885 249.669H98.3848C98.362 250.093 98.2161 250.496 97.9473 250.879C97.6784 251.262 97.3184 251.567 96.8672 251.795C96.4206 252.023 95.9466 252.137 95.4453 252.137C94.4382 252.137 93.6361 251.802 93.0391 251.132C92.4466 250.457 92.1504 249.537 92.1504 248.37V248.158C92.1504 247.438 92.2826 246.798 92.5469 246.237C92.8112 245.677 93.1895 245.242 93.6816 244.932C94.1784 244.622 94.764 244.467 95.4385 244.467C96.2679 244.467 96.9561 244.715 97.5029 245.212C98.0544 245.709 98.3483 246.354 98.3848 247.146H97.1885C97.152 246.668 96.9697 246.276 96.6416 245.971C96.318 245.661 95.917 245.506 95.4385 245.506C94.7959 245.506 94.2969 245.738 93.9414 246.203C93.5905 246.663 93.415 247.331 93.415 248.206V248.445C93.415 249.298 93.5905 249.954 93.9414 250.414C94.2923 250.874 94.7936 251.104 95.4453 251.104ZM105.303 245.629H102.821V252H101.557V245.629H99.123V244.604H105.303V245.629ZM112.781 248.384C112.781 249.509 112.524 250.416 112.009 251.104C111.494 251.793 110.797 252.137 109.917 252.137C109.019 252.137 108.313 251.852 107.798 251.282V254.844H106.533V244.604H107.688L107.75 245.424C108.265 244.786 108.98 244.467 109.896 244.467C110.785 244.467 111.487 244.802 112.002 245.472C112.521 246.142 112.781 247.074 112.781 248.268V248.384ZM111.517 248.24C111.517 247.406 111.339 246.748 110.983 246.265C110.628 245.782 110.14 245.54 109.521 245.54C108.755 245.54 108.181 245.88 107.798 246.559V250.093C108.176 250.767 108.755 251.104 109.534 251.104C110.14 251.104 110.621 250.865 110.977 250.387C111.337 249.904 111.517 249.188 111.517 248.24ZM114.06 248.233C114.06 247.509 114.201 246.857 114.483 246.278C114.771 245.7 115.167 245.253 115.673 244.938C116.183 244.624 116.764 244.467 117.416 244.467C118.423 244.467 119.237 244.815 119.856 245.513C120.481 246.21 120.793 247.137 120.793 248.295V248.384C120.793 249.104 120.654 249.751 120.376 250.325C120.103 250.895 119.708 251.339 119.193 251.658C118.683 251.977 118.095 252.137 117.43 252.137C116.427 252.137 115.614 251.788 114.989 251.091C114.369 250.394 114.06 249.471 114.06 248.322V248.233ZM115.331 248.384C115.331 249.204 115.52 249.863 115.898 250.359C116.281 250.856 116.792 251.104 117.43 251.104C118.072 251.104 118.583 250.854 118.961 250.353C119.339 249.847 119.528 249.14 119.528 248.233C119.528 247.422 119.335 246.766 118.947 246.265C118.564 245.759 118.054 245.506 117.416 245.506C116.792 245.506 116.288 245.754 115.905 246.251C115.522 246.748 115.331 247.459 115.331 248.384ZM6.74219 264.604H8.00684V272H6.74219V266.606L3.33105 272H2.06641V264.604H3.33105V270.004L6.74219 264.604ZM19.5732 264.604V272H18.3018V265.649H15.7861L15.6357 268.418C15.5537 269.689 15.3395 270.599 14.9932 271.146C14.6514 271.692 14.1068 271.977 13.3594 272H12.8535V270.886L13.2158 270.858C13.626 270.813 13.9199 270.576 14.0977 270.147C14.2754 269.719 14.3893 268.926 14.4395 267.769L14.5762 264.604H19.5732ZM24.6729 272.137C23.6702 272.137 22.8545 271.809 22.2256 271.152C21.5967 270.492 21.2822 269.61 21.2822 268.507V268.274C21.2822 267.541 21.4212 266.887 21.6992 266.312C21.9818 265.734 22.3737 265.283 22.875 264.959C23.3809 264.631 23.9277 264.467 24.5156 264.467C25.4772 264.467 26.2246 264.784 26.7578 265.417C27.291 266.05 27.5576 266.957 27.5576 268.138V268.664H22.5469C22.5651 269.393 22.777 269.983 23.1826 270.435C23.5928 270.881 24.1123 271.104 24.7412 271.104C25.1878 271.104 25.5661 271.013 25.876 270.831C26.1859 270.649 26.457 270.407 26.6895 270.106L27.4619 270.708C26.8421 271.66 25.9124 272.137 24.6729 272.137ZM24.5156 265.506C24.0052 265.506 23.5768 265.693 23.2305 266.066C22.8841 266.436 22.6699 266.955 22.5879 267.625H26.293V267.529C26.2565 266.887 26.0833 266.39 25.7734 266.039C25.4635 265.684 25.0443 265.506 24.5156 265.506ZM33.8057 265.649H30.3945V272H29.123V264.604H33.8057V265.649ZM37.21 268.849H36.2871V272H35.0156V264.604H36.2871V267.734H37.1143L39.6025 264.604H41.1338L38.208 268.158L41.3799 272H39.7734L37.21 268.849ZM41.9814 268.233C41.9814 267.509 42.1227 266.857 42.4053 266.278C42.6924 265.7 43.0889 265.253 43.5947 264.938C44.1051 264.624 44.6862 264.467 45.3379 264.467C46.3451 264.467 47.1585 264.815 47.7783 265.513C48.4027 266.21 48.7148 267.137 48.7148 268.295V268.384C48.7148 269.104 48.5758 269.751 48.2979 270.325C48.0244 270.895 47.6302 271.339 47.1152 271.658C46.6048 271.977 46.0169 272.137 45.3516 272.137C44.349 272.137 43.5355 271.788 42.9111 271.091C42.2913 270.394 41.9814 269.471 41.9814 268.322V268.233ZM43.2529 268.384C43.2529 269.204 43.4421 269.863 43.8203 270.359C44.2031 270.856 44.7135 271.104 45.3516 271.104C45.9941 271.104 46.5046 270.854 46.8828 270.353C47.2611 269.847 47.4502 269.14 47.4502 268.233C47.4502 267.422 47.2565 266.766 46.8691 266.265C46.4863 265.759 45.9759 265.506 45.3379 265.506C44.7135 265.506 44.21 265.754 43.8271 266.251C43.4443 266.748 43.2529 267.459 43.2529 268.384Z" fill="#1E253A"/>
<rect y="41" width="100" height="100" rx="15" fill="#EEEEEE"/>
<path fill-rule="evenodd" clip-rule="evenodd" d="M65.3569 76.3571C65.3569 83.2607 59.7605 88.8571 52.8569 88.8571C45.9534 88.8571 40.3569 83.2607 40.3569 76.3571C40.3569 69.4535 45.9534 63.8571 52.8569 63.8571C59.7605 63.8571 65.3569 69.4535 65.3569 76.3571Z" stroke="#1E253A" stroke-width="3" stroke-linecap="round" stroke-linejoin="round"/>
<path d="M56.2821 72.5965C55.9035 71.4608 54.8321 70.6429 53.5714 70.6429H52.1428C50.566 70.6429 49.2856 71.9215 49.2856 73.5001C49.2856 75.0786 50.566 76.3572 52.1428 76.3572H53.5714C55.1481 76.3572 56.4285 77.6358 56.4285 79.2143C56.4285 80.7929 55.1481 82.0715 53.5714 82.0715H52.1428C50.8464 82.0715 49.7517 81.2072 49.4017 80.0233" stroke="#FFC40E" stroke-width="3" stroke-linecap="round" stroke-linejoin="round"/>
<path d="M52.8565 82.6071L52.8565 84.3928" stroke="#FFC40E" stroke-width="3" stroke-linecap="round" stroke-linejoin="round"/>
<path d="M52.8565 68.3567L52.8565 70.1424" stroke="#FFC40E" stroke-width="3" stroke-linecap="round" stroke-linejoin="round"/>
<path d="M47.0426 104.929H52.8569C54.8284 104.929 56.4284 103.329 56.4284 101.357C56.4284 99.3857 54.8284 97.7857 52.8569 97.7857H43.9284C43.9284 97.7857 38.5712 94.2143 34.9998 94.2143C31.4284 94.2143 27.8569 97.7857 27.8569 97.7857V113.857H56.4284L77.8569 101.357C77.8569 98.8089 75.2641 97.0803 72.9105 98.0607L56.4284 104.929H42.1426" stroke="#1E253A" stroke-width="3" stroke-linecap="round" stroke-linejoin="round"/>
<path d="M47.96 38.6C45.96 41.24 43.1733 42.56 39.6 42.56C36.0267 42.56 33.2267 41.24 31.2 38.6C29.2 35.9333 28.2 32.4 28.2 28C28.2 23.6 29.2 20.08 31.2 17.44C33.2267 14.7733 36.0267 13.44 39.6 13.44C43.1733 13.44 45.96 14.7733 47.96 17.44C49.9867 20.08 51 23.6 51 28C51 32.4 49.9867 35.9333 47.96 38.6ZM34.6 28C34.6 33.5467 36.2667 36.32 39.6 36.32C42.9333 36.32 44.6 33.5467 44.6 28C44.6 22.4533 42.9333 19.68 39.6 19.68C36.2667 19.68 34.6 22.4533 34.6 28ZM65.8244 25.36C67.611 25.9733 69.051 26.9733 70.1444 28.36C71.2377 29.72 71.7844 31.3333 71.7844 33.2C71.7844 36.1333 70.7977 38.4267 68.8244 40.08C66.851 41.7333 64.4377 42.56 61.5844 42.56C59.371 42.56 57.3844 42.0533 55.6244 41.04C53.891 40.0267 52.611 38.5333 51.7844 36.56L57.3044 33.36C57.9977 35.3333 59.4244 36.32 61.5844 36.32C62.8377 36.32 63.7844 36.0267 64.4244 35.44C65.0644 34.8533 65.3844 34.1067 65.3844 33.2C65.3844 32.2933 65.0644 31.5467 64.4244 30.96C63.7844 30.3733 62.8377 30.08 61.5844 30.08L60.2644 30.08L57.8244 26.44L62.9044 20L52.6644 20L52.6644 14L70.6644 14L70.6644 19.2L65.8244 25.36Z" fill="#EEEEEE"/>
</svg>
