<svg width="144" height="285" viewBox="0 0 144 285" fill="none" xmlns="http://www.w3.org/2000/svg">
<path d="M1.48535 229V216.203H5.66895C7.05762 216.203 8.10059 216.49 8.79785 217.064C9.50098 217.639 9.85254 218.488 9.85254 219.613C9.85254 220.211 9.68262 220.741 9.34277 221.204C9.00293 221.661 8.54004 222.016 7.9541 222.268C8.64551 222.461 9.19043 222.83 9.58887 223.375C9.99316 223.914 10.1953 224.559 10.1953 225.309C10.1953 226.457 9.82324 227.359 9.0791 228.016C8.33496 228.672 7.2832 229 5.92383 229H1.48535ZM3.17285 223.015V227.62H5.95898C6.74414 227.62 7.3623 227.418 7.81348 227.014C8.27051 226.604 8.49902 226.041 8.49902 225.326C8.49902 223.785 7.66113 223.015 5.98535 223.015H3.17285ZM3.17285 221.661H5.72168C6.45996 221.661 7.04883 221.477 7.48828 221.107C7.93359 220.738 8.15625 220.237 8.15625 219.604C8.15625 218.901 7.95117 218.392 7.54102 218.075C7.13086 217.753 6.50684 217.592 5.66895 217.592H3.17285V221.661ZM14.2207 222.769H16.6904C17.7686 222.78 18.6211 223.062 19.248 223.612C19.875 224.163 20.1885 224.91 20.1885 225.854C20.1885 226.803 19.8662 227.564 19.2217 228.139C18.5771 228.713 17.71 229 16.6201 229H12.5947V219.49H14.2207V222.769ZM23.5811 229H21.9463V219.49H23.5811V229ZM14.2207 224.096V227.673H16.6377C17.2471 227.673 17.7188 227.518 18.0527 227.207C18.3867 226.891 18.5537 226.46 18.5537 225.915C18.5537 225.388 18.3896 224.957 18.0615 224.623C17.7393 224.283 17.2852 224.107 16.6992 224.096H14.2207ZM30.5947 220.035C31.79 220.035 32.7451 220.437 33.46 221.239C34.1807 222.036 34.541 223.088 34.541 224.395V224.544C34.541 225.44 34.3682 226.243 34.0225 226.952C33.6768 227.655 33.1787 228.203 32.5283 228.596C31.8838 228.982 31.1396 229.176 30.2959 229.176C29.0186 229.176 27.9902 228.751 27.2109 227.901C26.4316 227.046 26.042 225.9 26.042 224.465V223.674C26.042 221.676 26.4111 220.088 27.1494 218.91C27.8936 217.732 28.9893 217.015 30.4365 216.757C31.2568 216.61 31.8105 216.432 32.0977 216.221C32.3848 216.01 32.5283 215.72 32.5283 215.351H33.8643C33.8643 216.083 33.6973 216.654 33.3633 217.064C33.0352 217.475 32.5078 217.765 31.7812 217.935L30.5684 218.207C29.6016 218.436 28.875 218.822 28.3887 219.367C27.9082 219.906 27.5947 220.627 27.4482 221.529C28.3096 220.533 29.3584 220.035 30.5947 220.035ZM30.2783 221.371C29.4814 221.371 28.8486 221.641 28.3799 222.18C27.9111 222.713 27.6768 223.454 27.6768 224.403V224.544C27.6768 225.563 27.9111 226.372 28.3799 226.97C28.8545 227.562 29.4932 227.857 30.2959 227.857C31.1045 227.857 31.7432 227.559 32.2119 226.961C32.6807 226.363 32.915 225.49 32.915 224.342C32.915 223.445 32.6777 222.728 32.2031 222.188C31.7344 221.644 31.0928 221.371 30.2783 221.371ZM40.3154 229.176C39.0264 229.176 37.9775 228.754 37.1689 227.91C36.3604 227.061 35.9561 225.927 35.9561 224.509V224.21C35.9561 223.267 36.1348 222.426 36.4922 221.688C36.8555 220.943 37.3594 220.363 38.0039 219.947C38.6543 219.525 39.3574 219.314 40.1133 219.314C41.3496 219.314 42.3105 219.722 42.9961 220.536C43.6816 221.351 44.0244 222.517 44.0244 224.034V224.711H37.582C37.6055 225.648 37.8779 226.407 38.3994 226.987C38.9268 227.562 39.5947 227.849 40.4033 227.849C40.9775 227.849 41.4639 227.731 41.8623 227.497C42.2607 227.263 42.6094 226.952 42.9082 226.565L43.9014 227.339C43.1045 228.563 41.9092 229.176 40.3154 229.176ZM40.1133 220.65C39.457 220.65 38.9062 220.891 38.4609 221.371C38.0156 221.846 37.7402 222.514 37.6348 223.375H42.3984V223.252C42.3516 222.426 42.1289 221.787 41.7305 221.336C41.332 220.879 40.793 220.65 40.1133 220.65ZM53.9473 224.351C53.9473 225.798 53.6162 226.964 52.9541 227.849C52.292 228.733 51.3955 229.176 50.2646 229.176C49.1104 229.176 48.2021 228.81 47.54 228.077V232.656H45.9141V219.49H47.3994L47.4785 220.545C48.1406 219.725 49.0605 219.314 50.2383 219.314C51.3809 219.314 52.2832 219.745 52.9453 220.606C53.6133 221.468 53.9473 222.666 53.9473 224.201V224.351ZM52.3213 224.166C52.3213 223.094 52.0928 222.247 51.6357 221.626C51.1787 221.005 50.5518 220.694 49.7549 220.694C48.7705 220.694 48.0322 221.131 47.54 222.004V226.548C48.0264 227.415 48.7705 227.849 49.7725 227.849C50.5518 227.849 51.1699 227.541 51.627 226.926C52.0898 226.305 52.3213 225.385 52.3213 224.166ZM62.1738 219.49H63.7998V229H62.1738V222.065L57.7881 229H56.1621V219.49H57.7881V226.434L62.1738 219.49ZM9.00879 254H7.38281V245.835H3.00586V254H1.37109V244.49H9.00879V254ZM11.1885 249.157C11.1885 248.226 11.3701 247.388 11.7334 246.644C12.1025 245.899 12.6123 245.325 13.2627 244.921C13.9189 244.517 14.666 244.314 15.5039 244.314C16.7988 244.314 17.8447 244.763 18.6416 245.659C19.4443 246.556 19.8457 247.748 19.8457 249.236V249.351C19.8457 250.276 19.667 251.108 19.3096 251.847C18.958 252.579 18.4512 253.15 17.7891 253.561C17.1328 253.971 16.377 254.176 15.5215 254.176C14.2324 254.176 13.1865 253.728 12.3838 252.831C11.5869 251.935 11.1885 250.748 11.1885 249.271V249.157ZM12.8232 249.351C12.8232 250.405 13.0664 251.252 13.5527 251.891C14.0449 252.529 14.7012 252.849 15.5215 252.849C16.3477 252.849 17.0039 252.526 17.4902 251.882C17.9766 251.231 18.2197 250.323 18.2197 249.157C18.2197 248.114 17.9707 247.271 17.4727 246.626C16.9805 245.976 16.3242 245.65 15.5039 245.65C14.7012 245.65 14.0537 245.97 13.5615 246.608C13.0693 247.247 12.8232 248.161 12.8232 249.351ZM21.1729 252.673L21.7354 251.979C22.3682 251.158 22.7285 249.928 22.8164 248.287L22.9658 244.49H29.0918V252.673H30.3135V256.795H28.6875V254H22.0518V256.795H20.4258L20.4346 252.673H21.1729ZM23.0977 252.673H27.4658V245.993H24.5391L24.4424 248.261C24.3428 250.153 23.8945 251.624 23.0977 252.673ZM35.3057 247.962L37.415 244.49H39.3135L36.2021 249.192L39.4102 254H37.5293L35.332 250.44L33.1348 254H31.2451L34.4531 249.192L31.3418 244.49H33.2227L35.3057 247.962ZM40.4385 249.157C40.4385 248.226 40.6201 247.388 40.9834 246.644C41.3525 245.899 41.8623 245.325 42.5127 244.921C43.1689 244.517 43.916 244.314 44.7539 244.314C46.0488 244.314 47.0947 244.763 47.8916 245.659C48.6943 246.556 49.0957 247.748 49.0957 249.236V249.351C49.0957 250.276 48.917 251.108 48.5596 251.847C48.208 252.579 47.7012 253.15 47.0391 253.561C46.3828 253.971 45.627 254.176 44.7715 254.176C43.4824 254.176 42.4365 253.728 41.6338 252.831C40.8369 251.935 40.4385 250.748 40.4385 249.271V249.157ZM42.0732 249.351C42.0732 250.405 42.3164 251.252 42.8027 251.891C43.2949 252.529 43.9512 252.849 44.7715 252.849C45.5977 252.849 46.2539 252.526 46.7402 251.882C47.2266 251.231 47.4697 250.323 47.4697 249.157C47.4697 248.114 47.2207 247.271 46.7227 246.626C46.2305 245.976 45.5742 245.65 44.7539 245.65C43.9512 245.65 43.3037 245.97 42.8115 246.608C42.3193 247.247 42.0732 248.161 42.0732 249.351ZM50.4229 252.673L50.9854 251.979C51.6182 251.158 51.9785 249.928 52.0664 248.287L52.2158 244.49H58.3418V252.673H59.5635V256.795H57.9375V254H51.3018V256.795H49.6758L49.6846 252.673H50.4229ZM52.3477 252.673H56.7158V245.993H53.7891L53.6924 248.261C53.5928 250.153 53.1445 251.624 52.3477 252.673ZM68.6338 244.49V254H66.999V250.3H64.5469L62.3057 254H60.5479L62.9385 250.054C62.3291 249.831 61.8604 249.488 61.5322 249.025C61.21 248.557 61.0488 248.012 61.0488 247.391C61.0488 246.523 61.374 245.826 62.0244 245.299C62.6748 244.766 63.5449 244.496 64.6348 244.49H68.6338ZM62.6836 247.408C62.6836 247.871 62.8418 248.246 63.1582 248.533C63.4746 248.814 63.8936 248.958 64.415 248.964H66.999V245.809H64.6611C64.0576 245.809 63.5771 245.958 63.2197 246.257C62.8623 246.55 62.6836 246.934 62.6836 247.408ZM72.9229 244.49V252.673H76.4033V244.49H78.0293V252.673H81.501V244.49H83.1357V252.673H84.4717L84.3135 256.821H82.8545V254H71.2881V244.49H72.9229ZM89.2441 251.618L91.459 244.49H93.1992L89.376 255.468C88.7842 257.05 87.8438 257.841 86.5547 257.841L86.2471 257.814L85.6406 257.7V256.382L86.0801 256.417C86.6309 256.417 87.0586 256.306 87.3633 256.083C87.6738 255.86 87.9287 255.453 88.1279 254.861L88.4883 253.895L85.0957 244.49H86.8711L89.2441 251.618ZM96.4336 248.524H98.7188C98.8418 247.259 99.29 246.242 100.063 245.475C100.843 244.701 101.824 244.314 103.008 244.314C104.25 244.314 105.267 244.733 106.058 245.571C106.849 246.409 107.276 247.499 107.341 248.841L107.35 249.351C107.35 250.276 107.168 251.111 106.805 251.855C106.441 252.6 105.932 253.174 105.275 253.578C104.619 253.977 103.869 254.176 103.025 254.176C101.801 254.176 100.799 253.777 100.02 252.98C99.2402 252.178 98.8037 251.138 98.71 249.86H96.4336V254H94.8076V244.49H96.4336V248.524ZM100.318 249.351C100.318 250.405 100.562 251.252 101.048 251.891C101.54 252.529 102.199 252.849 103.025 252.849C103.852 252.849 104.505 252.523 104.985 251.873C105.472 251.223 105.715 250.317 105.715 249.157C105.715 248.12 105.469 247.276 104.977 246.626C104.484 245.976 103.828 245.65 103.008 245.65C102.199 245.65 101.549 245.97 101.057 246.608C100.564 247.247 100.318 248.161 100.318 249.351ZM9.00879 279H7.38281V270.835H3.00586V279H1.37109V269.49H9.00879V279ZM11.1885 274.157C11.1885 273.226 11.3701 272.388 11.7334 271.644C12.1025 270.899 12.6123 270.325 13.2627 269.921C13.9189 269.517 14.666 269.314 15.5039 269.314C16.7988 269.314 17.8447 269.763 18.6416 270.659C19.4443 271.556 19.8457 272.748 19.8457 274.236V274.351C19.8457 275.276 19.667 276.108 19.3096 276.847C18.958 277.579 18.4512 278.15 17.7891 278.561C17.1328 278.971 16.377 279.176 15.5215 279.176C14.2324 279.176 13.1865 278.728 12.3838 277.831C11.5869 276.935 11.1885 275.748 11.1885 274.271V274.157ZM12.8232 274.351C12.8232 275.405 13.0664 276.252 13.5527 276.891C14.0449 277.529 14.7012 277.849 15.5215 277.849C16.3477 277.849 17.0039 277.526 17.4902 276.882C17.9766 276.231 18.2197 275.323 18.2197 274.157C18.2197 273.114 17.9707 272.271 17.4727 271.626C16.9805 270.976 16.3242 270.65 15.5039 270.65C14.7012 270.65 14.0537 270.97 13.5615 271.608C13.0693 272.247 12.8232 273.161 12.8232 274.351ZM21.1729 277.673L21.7354 276.979C22.3682 276.158 22.7285 274.928 22.8164 273.287L22.9658 269.49H29.0918V277.673H30.3135V281.795H28.6875V279H22.0518V281.795H20.4258L20.4346 277.673H21.1729ZM23.0977 277.673H27.4658V270.993H24.5391L24.4424 273.261C24.3428 275.153 23.8945 276.624 23.0977 277.673ZM39.8936 279H38.2676V270.835H33.8906V279H32.2559V269.49H39.8936V279ZM48.6562 269.49H50.2822V279H48.6562V272.065L44.2705 279H42.6445V269.49H44.2705V276.434L48.6562 269.49ZM56.707 277.849C57.2871 277.849 57.7939 277.673 58.2275 277.321C58.6611 276.97 58.9014 276.53 58.9482 276.003H60.4863C60.457 276.548 60.2695 277.066 59.9238 277.559C59.5781 278.051 59.1152 278.443 58.5352 278.736C57.9609 279.029 57.3516 279.176 56.707 279.176C55.4121 279.176 54.3809 278.745 53.6133 277.884C52.8516 277.017 52.4707 275.833 52.4707 274.333V274.061C52.4707 273.135 52.6406 272.312 52.9805 271.591C53.3203 270.87 53.8066 270.311 54.4395 269.912C55.0781 269.514 55.8311 269.314 56.6982 269.314C57.7646 269.314 58.6494 269.634 59.3525 270.272C60.0615 270.911 60.4395 271.74 60.4863 272.76H58.9482C58.9014 272.145 58.667 271.641 58.2451 271.248C57.8291 270.85 57.3135 270.65 56.6982 270.65C55.8721 270.65 55.2305 270.949 54.7734 271.547C54.3223 272.139 54.0967 272.997 54.0967 274.122V274.43C54.0967 275.525 54.3223 276.369 54.7734 276.961C55.2246 277.553 55.8691 277.849 56.707 277.849ZM65.2764 274.948H64.0898V279H62.4551V269.49H64.0898V273.516H65.1533L68.3525 269.49H70.3213L66.5596 274.061L70.6377 279H68.5723L65.2764 274.948ZM75.1465 276.618L77.3613 269.49H79.1016L75.2783 280.468C74.6865 282.05 73.7461 282.841 72.457 282.841L72.1494 282.814L71.543 282.7V281.382L71.9824 281.417C72.5332 281.417 72.9609 281.306 73.2656 281.083C73.5762 280.86 73.8311 280.453 74.0303 279.861L74.3906 278.895L70.998 269.49H72.7734L75.1465 276.618Z" fill="#1E253A"/>
<rect y="47" width="140" height="140" rx="25" fill="#EEEEEE"/>
<path d="M70.2 47.75C67.7 51.05 64.2167 52.7 59.75 52.7C55.2833 52.7 51.7833 51.05 49.25 47.75C46.75 44.4167 45.5 40 45.5 34.5C45.5 29 46.75 24.6 49.25 21.3C51.7833 17.9667 55.2833 16.3 59.75 16.3C64.2167 16.3 67.7 17.9667 70.2 21.3C72.7333 24.6 74 29 74 34.5C74 40 72.7333 44.4167 70.2 47.75ZM53.5 34.5C53.5 41.4333 55.5833 44.9 59.75 44.9C63.9167 44.9 66 41.4333 66 34.5C66 27.5667 63.9167 24.1 59.75 24.1C55.5833 24.1 53.5 27.5667 53.5 34.5ZM84.1676 17L91.1676 17L91.1676 52L83.1676 52L83.1676 25.45L76.9676 27.15L75.0176 20.3L84.1676 17Z" fill="#EEEEEE"/>
<path fill-rule="evenodd" clip-rule="evenodd" d="M35 146H105V138.5H35V146Z" stroke="#1E253A" stroke-width="3" stroke-linecap="round" stroke-linejoin="round"/>
<path fill-rule="evenodd" clip-rule="evenodd" d="M37.5 138.5H102.5V91H37.5V138.5Z" stroke="#1E253A" stroke-width="3" stroke-linecap="round" stroke-linejoin="round"/>
<path fill-rule="evenodd" clip-rule="evenodd" d="M72.5 81H67.5C66.12 81 65 82.12 65 83.5V91H75V83.5C75 82.12 73.8825 81 72.5 81Z" stroke="#1E253A" stroke-width="3" stroke-linecap="round" stroke-linejoin="round"/>
<path d="M70 146V151" stroke="#1E253A" stroke-width="3" stroke-linecap="round" stroke-linejoin="round"/>
<path fill-rule="evenodd" clip-rule="evenodd" d="M72.5 116C72.5 122.9 66.9 128.5 60 128.5C53.1 128.5 47.5 122.9 47.5 116C47.5 109.1 53.1 103.5 60 103.5V116H72.5Z" stroke="#1E253A" stroke-width="3" stroke-linecap="round" stroke-linejoin="round"/>
<path fill-rule="evenodd" clip-rule="evenodd" d="M72.5 116H60V103.5C66.9 103.5 72.5 109.1 72.5 116Z" stroke="#FFC40E" stroke-width="3" stroke-linecap="round" stroke-linejoin="round"/>
<path d="M80 111H92.5" stroke="#1E253A" stroke-width="3" stroke-linecap="round" stroke-linejoin="round"/>
<path d="M80 121H87.5" stroke="#1E253A" stroke-width="3" stroke-linecap="round" stroke-linejoin="round"/>
</svg>
