<svg width="321" height="366" viewBox="0 0 321 366" fill="none" xmlns="http://www.w3.org/2000/svg">
<path d="M169.18 309.269C139.153 307.324 -29.3251 318.209 4.45394 339.979C38.233 361.749 162.876 376.262 145.594 353.767C128.311 331.271 341.411 347.235 318.892 327.643C296.372 308.05 169.18 309.269 169.18 309.269Z" fill="#E8F4F4"/>
<g clip-path="url(#clip0)">
<path d="M208.037 120.23C209.035 119.471 209.542 117.565 209.757 116.334L210.26 114.715C209.877 114.538 202.314 113.104 200.02 112.939C199.763 113.656 199.622 114.264 199.675 114.659C199.93 116.549 201.766 128.835 201.766 128.835L208.317 129.267C208.317 129.267 207.233 121.982 208.037 120.23Z" fill="#E9D6B8"/>
<path d="M208.203 115.072C208.203 115.072 206.861 115.684 205.35 117.494C205.35 117.494 201.752 114.949 201.916 114.203C202.139 113.214 205.839 115.24 205.839 115.24L208.203 115.072Z" fill="#F47458"/>
<path d="M240.157 294.735C240.157 294.735 248.973 301.086 250.359 302.981C252.371 305.708 235.426 310.799 237.273 307.616C237.7 306.881 238.918 304.41 238.97 304.167C239.254 302.864 235.663 299.362 235.663 299.362L240.157 294.735Z" fill="#E9D6B8"/>
<path d="M232.694 312.955L238.68 304.504C238.68 304.504 242.418 303.637 246.252 299.326C246.252 299.326 249.7 300.639 251.822 303.49C248.647 306.777 245.244 309.838 241.64 312.649C239.051 314.804 236.098 316.479 232.92 317.597C227.863 319.315 232.694 312.955 232.694 312.955Z" fill="#2A425B"/>
<path d="M312.133 138.082C312.133 138.082 309.855 141.837 309.6 141.609C309.405 141.432 310.767 139.453 311.733 137.056C311.983 136.44 312.225 135.83 312.444 135.269C313.021 133.795 312.31 133.035 311.469 134.48C311.079 135.135 310.734 135.816 310.438 136.518C310.166 137.233 309.692 137.805 309.372 138.372C308.739 139.489 308.292 140.324 308.254 140.273C308.216 140.222 307.936 140.342 308.182 139.681C308.475 138.884 309.461 137.327 309.806 136.122C310.002 135.439 310.494 134.038 310.494 134.038C310.494 134.038 310.854 131.784 310.733 131.722C310.076 131.38 309.41 132.856 309.262 133.817C308.862 134.387 308.384 135.874 308.384 135.874C308.384 135.874 306.765 138.68 306.371 138.459C306.208 138.368 307.004 136.529 307.509 134.608C307.979 132.821 308.18 130.949 307.843 130.81C307.286 130.571 306.559 132.499 306.559 132.499C306.559 132.499 306.112 133.877 305.942 134.324C305.73 134.847 304.983 136.368 304.983 136.368C304.983 136.368 302.076 141.506 301.719 141.283C301.361 141.059 300.809 140.085 300.878 139.706C300.947 139.326 301.428 138.687 301.497 138.305C301.567 137.923 301.336 137.373 300.889 137.262C300.442 137.15 299.422 138.875 299.422 138.875C299.422 138.875 298.606 140.282 298.586 141.408C298.51 145.304 299.147 145.15 299.125 145.652C299.098 146.242 294.582 152.749 294.582 152.749L294.495 152.85L299.861 156.746C301.649 153.842 303.04 151.565 303.438 150.853C303.438 150.853 306.121 148.556 307.771 147.055C309.421 145.554 310.338 143.398 310.74 142.905C311.673 141.561 312.442 140.112 313.032 138.586C313.906 136.388 312.133 138.082 312.133 138.082Z" fill="#E9D6B8"/>
<path d="M253.627 229.683L252.232 236.575L217.183 268.428L242.274 293.799L235.497 300.724C235.497 300.724 198.441 273.535 197.106 269.974C195.049 264.481 223.667 228.146 223.667 228.146L253.627 229.683Z" fill="#137F7F"/>
<path d="M279.45 313.786C279.45 313.786 288.264 320.137 289.652 322.031C291.664 324.759 274.719 329.863 276.566 326.669C276.993 325.934 278.211 323.461 278.263 323.218C278.547 321.917 274.956 318.412 274.956 318.412L279.45 313.786Z" fill="#E9D6B8"/>
<path d="M271.982 332.039L277.969 323.588C277.969 323.588 281.945 322.874 285.781 318.562C285.781 318.562 288.99 319.724 291.111 322.572C287.936 325.864 284.534 328.929 280.93 331.744C278.34 333.898 275.388 335.573 272.21 336.69C267.148 338.397 271.982 332.039 271.982 332.039Z" fill="#2A425B"/>
<path d="M252.438 232.668L252.986 277.943L280.827 312.841L274.276 320.117C274.276 320.117 239.797 291.476 236.021 283.257C233.678 278.159 225.144 229.942 225.144 229.942L252.438 232.668Z" fill="#137F7F"/>
<path d="M224.167 229.1C227.017 222.671 226.686 176.585 237.783 165.789C241.686 166.459 244.47 166.817 245.121 166.989C245.7 171.736 246.337 189.158 246.728 205.124C246.99 215.762 246.728 226.916 248.032 232.797C248.843 236.441 221.562 234.971 224.167 229.1Z" fill="#FFCF50"/>
<path d="M235.209 168.488C235.209 168.488 230.706 181.292 226.999 179.447C223.292 177.602 202.47 156.4 202.264 155.368C202.059 154.336 200.617 128.308 200.617 128.308L208.853 126.666L213.589 147.987C213.589 147.987 228.826 162.543 231.922 163.977C232.81 164.386 233.578 165.015 234.154 165.805C234.729 166.594 235.092 167.518 235.209 168.488Z" fill="#36506B"/>
<path d="M223.051 232.181C220.558 232.181 219.637 231.837 217.978 231.336C217.978 231.336 219.767 205.512 225.075 178.084C227.087 167.744 227.588 163.316 231.914 164.073C233.164 164.297 236.551 165.581 237.783 165.789C226.915 196.514 226.877 220.162 225.338 227.021C224.565 230.461 223.892 232.203 223.051 232.181Z" fill="#2A425B"/>
<path d="M238.928 161.147L237.789 165.782C237.789 165.782 237.53 169.823 239.408 170.187C241.671 170.634 245.036 167.241 245.036 167.241L246.985 154.15L238.928 161.147Z" fill="#E9D6B8"/>
<path d="M239.071 161.289L237.933 165.925C237.933 165.925 237.674 169.966 239.552 170.33C241.814 170.777 245.179 167.383 245.179 167.383L247.129 154.293L239.071 161.289Z" fill="#E9D6B8"/>
<path d="M246.965 154.215L238.927 161.14L238.078 164.609C241.15 163.877 245.53 160.499 246.965 154.215Z" fill="#DFCAA8"/>
<path d="M238.892 142.172C236.949 142.172 235.201 143.512 234.517 145.451C233.743 147.637 233.157 149.885 232.764 152.171C231.912 157.206 234.776 161.815 237.278 162.181C239.78 162.547 245.722 160.897 247.037 153.766C247.601 150.71 248.343 146.7 245.825 144.593C243.878 142.954 241.128 142.178 238.892 142.172Z" fill="#E9D6B8"/>
<path d="M246.234 159.201C246.234 159.201 255.034 151.365 255.419 145.241C255.803 139.118 250.144 135.841 245.306 135.669C243.327 135.593 241.344 135.696 239.383 135.975C234.536 136.585 231.395 138.734 232.499 142.701C233.984 148.029 244.045 143.535 246.104 145.188C247.801 146.553 245.049 149.834 246.699 151.088C248.248 152.265 247.459 151.865 246.945 154.103C246.598 155.785 246.36 157.488 246.234 159.201Z" fill="#2A425B"/>
<path d="M249.623 152.102C249.4 153.567 248.505 154.651 247.611 154.521C246.717 154.392 246.178 153.094 246.397 151.617C246.616 150.14 247.515 149.068 248.409 149.2C249.303 149.332 249.847 150.634 249.623 152.102Z" fill="#E9D6B8"/>
<path d="M209.553 112.602C208.762 111.221 207.586 112.64 208.348 114.433C208.368 114.502 208.368 114.575 208.348 114.643C208.149 115.115 206.32 116.573 206.32 116.573C206.32 116.573 207.787 120.673 208.612 119.596C209.437 118.519 210.063 115.025 210.063 115.025L209.553 112.602Z" fill="#E9D6B8"/>
<path d="M302.322 154.53L296.328 148.603C296.328 148.603 284.941 164.931 279.166 167.764C273.552 170.518 254.856 169.517 254.198 169.368C251.963 168.856 245.067 166.973 245.067 166.973C245.067 166.973 239.29 216.521 246.816 233.749C249.275 239.367 264.544 235.641 264.544 235.641C264.544 235.641 259.83 215.011 259.58 212.31C259.339 209.728 258.028 189.267 258.239 189.057C258.789 188.508 279.635 183.966 285.35 179.63C291.385 175.048 302.322 154.53 302.322 154.53Z" fill="#2A425B"/>
<path d="M299 50.648H146V112.158H299V50.648Z" fill="#137F7F"/>
<path d="M296.725 109.884V52.923L148.277 52.923V109.884H296.725Z" fill="#79CCCA"/>
<path d="M299 50.648H146V67.3676H299V50.648Z" fill="#137F7F"/>
<path d="M272.549 81.9181L275.26 79.7879L276.778 82.8815L280.147 82.139L280.17 85.5844L283.528 86.3746L282.052 89.4894L284.734 91.6567L282.052 93.824L283.528 96.9388L280.17 97.729L280.147 101.176L276.778 100.432L275.26 103.527L272.549 101.397L269.837 103.527L268.319 100.432L264.952 101.176L264.927 97.729L261.571 96.9388L263.045 93.824L260.364 91.6567L263.045 89.4894L261.571 86.3746L264.927 85.5844L264.952 82.139L268.319 82.8815L269.837 79.7879L272.549 81.9181Z" fill="#137F7F"/>
<path d="M272.549 84.9126L274.427 83.4383L275.478 85.5808L277.809 85.0664L277.825 87.4529L280.15 87.9991L279.129 90.1558L280.985 91.6567L279.129 93.1575L280.15 95.3142L277.825 95.8622L277.809 98.2487L275.478 97.7325L274.427 99.875L272.549 98.4007L270.672 99.875L269.621 97.7325L267.289 98.2487L267.272 95.8622L264.949 95.3142L265.97 93.1575L264.112 91.6567L265.97 90.1558L264.949 87.9991L267.272 87.4529L267.289 85.0664L269.621 85.5808L270.672 83.4383L272.549 84.9126Z" fill="white"/>
<path d="M278.548 55.2193H162.757V63.6074H278.548V55.2193Z" fill="white"/>
<path d="M176.364 93.3521V82.2929L174.176 83.4738L173.725 81.6972L176.732 80.0902H178.496V93.3521H176.364Z" fill="#137F7F"/>
<path d="M192.056 93.5677C189.34 93.5677 187.633 90.9602 187.588 86.7617C187.588 84.6528 188.036 82.8992 188.882 81.6882C189.727 80.4773 190.886 79.8727 192.273 79.8727C192.938 79.8594 193.594 80.02 194.177 80.3385C194.761 80.6569 195.25 81.1223 195.598 81.6882C196.355 82.855 196.741 84.5008 196.741 86.5832C196.741 91.0221 195.034 93.5677 192.056 93.5677ZM192.174 81.667C190.697 81.667 189.779 83.6257 189.779 86.7794C189.779 89.8606 190.69 91.7734 192.155 91.7734C194.239 91.7734 194.551 88.5702 194.551 86.661C194.558 84.796 194.241 81.667 192.174 81.667Z" fill="#137F7F"/>
<path d="M202.166 93.5677C199.448 93.5677 197.742 90.9602 197.698 86.7618C197.698 84.6528 198.144 82.8992 198.992 81.6883C199.839 80.4774 200.994 79.8728 202.382 79.8728C203.046 79.859 203.703 80.0193 204.286 80.3378C204.869 80.6563 205.359 81.122 205.706 81.6883C206.465 82.855 206.849 84.5008 206.849 86.5832C206.856 91.0221 205.149 93.5677 202.166 93.5677ZM202.284 81.6671C200.807 81.6671 199.889 83.6258 199.889 86.7795C199.889 89.8607 200.798 91.7734 202.263 91.7734C204.347 91.7734 204.659 88.5702 204.659 86.661C204.666 84.796 204.358 81.6671 202.291 81.6671H202.284Z" fill="#137F7F"/>
<path d="M212.288 93.5677C209.572 93.5677 207.865 90.9602 207.82 86.7618C207.82 84.6528 208.268 82.8992 209.114 81.6883C209.959 80.4773 211.118 79.8728 212.505 79.8728C213.17 79.8593 213.826 80.0198 214.41 80.3383C214.993 80.6567 215.482 81.1222 215.83 81.6883C216.587 82.855 216.973 84.5008 216.973 86.5832C216.973 91.0221 215.258 93.5677 212.288 93.5677ZM212.406 81.667C210.929 81.667 210.011 83.6257 210.011 86.7794C210.011 89.8607 210.922 91.7734 212.387 91.7734C214.471 91.7734 214.782 88.5702 214.782 86.661C214.782 84.796 214.473 81.667 212.406 81.667Z" fill="#137F7F"/>
<path d="M226.582 93.5677C223.865 93.5677 222.159 90.9602 222.115 86.7617C222.115 84.6528 222.561 82.8991 223.406 81.6882C224.252 80.4773 225.411 79.8727 226.798 79.8727C227.462 79.8596 228.118 80.0202 228.701 80.3387C229.284 80.6571 229.773 81.1224 230.121 81.6882C230.88 82.855 231.264 84.5007 231.264 86.5832C231.269 91.0221 229.562 93.5677 226.582 93.5677ZM226.699 81.667C225.222 81.667 224.305 83.6257 224.305 86.7794C224.305 89.8606 225.215 91.7734 226.679 91.7734C228.764 91.7734 229.075 88.5702 229.075 86.661C229.079 84.796 228.771 81.667 226.702 81.667H226.699Z" fill="#137F7F"/>
<path d="M236.7 93.5677C233.984 93.5677 232.277 90.9602 232.232 86.7618C232.232 84.6528 232.68 82.8992 233.526 81.6883C234.371 80.4773 235.529 79.8728 236.918 79.8728C237.582 79.8593 238.238 80.0197 238.821 80.3382C239.404 80.6568 239.893 81.1222 240.24 81.6883C240.999 82.855 241.385 84.5008 241.385 86.5832C241.385 91.0221 239.674 93.5677 236.7 93.5677ZM236.818 81.667C235.341 81.667 234.423 83.6257 234.423 86.7794C234.423 89.8607 235.334 91.7734 236.799 91.7734C238.883 91.7734 239.195 88.5702 239.195 86.661C239.195 84.796 238.885 81.667 236.818 81.667Z" fill="#137F7F"/>
<path d="M246.817 93.5677C244.099 93.5677 242.394 90.9602 242.35 86.7618C242.35 84.6528 242.795 82.8992 243.643 81.6883C244.49 80.4773 245.646 79.8728 247.033 79.8728C247.697 79.8593 248.354 80.0198 248.937 80.3383C249.52 80.6567 250.01 81.1222 250.357 81.6883C251.116 82.855 251.5 84.5008 251.5 86.5832C251.5 91.0221 249.793 93.5677 246.817 93.5677ZM246.936 81.667C245.456 81.667 244.54 83.6257 244.54 86.7794C244.54 89.8607 245.449 91.7734 246.914 91.7734C248.999 91.7734 249.31 88.5702 249.31 86.661C249.31 84.796 249.002 81.667 246.929 81.667H246.936Z" fill="#137F7F"/>
<path d="M60.3379 54.783H65.3886C65.3886 54.783 64.5605 59.0638 66.4926 60.5518C68.4246 62.0397 66.4926 67.9207 66.4926 67.9207H62.4904C62.4904 67.9207 64.4414 62.1978 62.4904 60.906C59.8909 59.1849 60.3379 54.783 60.3379 54.783Z" fill="#79CCCA"/>
<path d="M206.278 19.7116L209.229 17.5751C209.229 17.5751 210.926 20.8776 213.123 20.8625C215.319 20.8474 217.077 25.8007 217.077 25.8007L214.181 27.8976C214.181 27.8976 212.522 23.0402 210.417 23.1967C207.612 23.4053 206.278 19.7116 206.278 19.7116Z" fill="#FFCF50"/>
<path d="M190.741 166.176L193.677 163.954C193.677 163.954 195.367 167.39 197.553 167.374C199.739 167.358 201.487 172.512 201.487 172.512L198.605 174.693C198.605 174.693 196.954 169.64 194.86 169.802C192.069 170.019 190.741 166.176 190.741 166.176Z" fill="#FFCF50"/>
<path d="M134.182 7.3216L133.403 4.97011C133.403 4.97011 135.96 4.64122 136.424 3.24684C136.889 1.85236 140.553 1.85876 140.553 1.85876L141.317 4.16669C141.317 4.16669 137.738 4.1196 137.387 5.48799C136.919 7.31119 134.182 7.3216 134.182 7.3216Z" fill="#FFCF50"/>
<path d="M313.934 10.2153L318.338 11.6988C318.338 11.6988 321.036 17.4422 315.667 19.4826C310.297 21.523 314.454 26.1143 314.454 26.1143L309.517 27.8997C309.517 27.8997 305.108 20.7009 309.95 18.2922C316.446 15.0616 313.934 10.2153 313.934 10.2153Z" fill="#0C6D6A"/>
</g>
<defs>
<clipPath id="clip0">
<rect width="260" height="337.047" fill="white" transform="translate(60)"/>
</clipPath>
</defs>
</svg>
