<svg width="725" height="383" viewBox="0 0 725 383" fill="none" xmlns="http://www.w3.org/2000/svg">
<path d="M580.898 225.939C580.74 227.293 580.239 228.339 579.396 229.077C578.558 229.81 577.441 230.176 576.047 230.176C574.535 230.176 573.322 229.634 572.408 228.55C571.5 227.466 571.046 226.016 571.046 224.199V222.969C571.046 221.779 571.257 220.733 571.679 219.831C572.106 218.929 572.71 218.237 573.489 217.757C574.269 217.271 575.171 217.027 576.196 217.027C577.556 217.027 578.646 217.408 579.466 218.17C580.286 218.926 580.764 219.975 580.898 221.316H579.202C579.056 220.297 578.736 219.559 578.244 219.102C577.758 218.645 577.075 218.416 576.196 218.416C575.118 218.416 574.271 218.814 573.656 219.611C573.047 220.408 572.742 221.542 572.742 223.013V224.252C572.742 225.641 573.032 226.745 573.612 227.565C574.192 228.386 575.004 228.796 576.047 228.796C576.984 228.796 577.702 228.585 578.2 228.163C578.704 227.735 579.038 226.994 579.202 225.939H580.898ZM582.524 225.157C582.524 224.226 582.706 223.388 583.069 222.644C583.438 221.899 583.948 221.325 584.599 220.921C585.255 220.517 586.002 220.314 586.84 220.314C588.135 220.314 589.181 220.763 589.978 221.659C590.78 222.556 591.182 223.748 591.182 225.236V225.351C591.182 226.276 591.003 227.108 590.646 227.847C590.294 228.579 589.787 229.15 589.125 229.561C588.469 229.971 587.713 230.176 586.857 230.176C585.568 230.176 584.522 229.728 583.72 228.831C582.923 227.935 582.524 226.748 582.524 225.271V225.157ZM584.159 225.351C584.159 226.405 584.402 227.252 584.889 227.891C585.381 228.529 586.037 228.849 586.857 228.849C587.684 228.849 588.34 228.526 588.826 227.882C589.312 227.231 589.556 226.323 589.556 225.157C589.556 224.114 589.307 223.271 588.809 222.626C588.316 221.976 587.66 221.65 586.84 221.65C586.037 221.65 585.39 221.97 584.897 222.608C584.405 223.247 584.159 224.161 584.159 225.351ZM593.37 230V220.49H597.079C598.345 220.49 599.314 220.713 599.988 221.158C600.668 221.598 601.008 222.245 601.008 223.101C601.008 223.54 600.876 223.938 600.612 224.296C600.349 224.647 599.959 224.917 599.443 225.104C600.018 225.239 600.478 225.503 600.823 225.896C601.175 226.288 601.351 226.757 601.351 227.302C601.351 228.175 601.028 228.843 600.384 229.306C599.745 229.769 598.84 230 597.668 230H593.37ZM594.996 225.825V228.69H597.686C598.365 228.69 598.872 228.564 599.206 228.312C599.546 228.061 599.716 227.706 599.716 227.249C599.716 226.3 599.019 225.825 597.624 225.825H594.996ZM594.996 224.524H597.097C598.62 224.524 599.382 224.079 599.382 223.188C599.382 222.298 598.661 221.838 597.22 221.809H594.996V224.524ZM607.45 230.176C606.161 230.176 605.112 229.754 604.304 228.91C603.495 228.061 603.091 226.927 603.091 225.509V225.21C603.091 224.267 603.27 223.426 603.627 222.688C603.99 221.943 604.494 221.363 605.139 220.947C605.789 220.525 606.492 220.314 607.248 220.314C608.484 220.314 609.445 220.722 610.131 221.536C610.816 222.351 611.159 223.517 611.159 225.034V225.711H604.717C604.74 226.648 605.013 227.407 605.534 227.987C606.062 228.562 606.729 228.849 607.538 228.849C608.112 228.849 608.599 228.731 608.997 228.497C609.396 228.263 609.744 227.952 610.043 227.565L611.036 228.339C610.239 229.563 609.044 230.176 607.45 230.176ZM607.248 221.65C606.592 221.65 606.041 221.891 605.596 222.371C605.15 222.846 604.875 223.514 604.77 224.375H609.533V224.252C609.486 223.426 609.264 222.787 608.865 222.336C608.467 221.879 607.928 221.65 607.248 221.65ZM621.082 225.351C621.082 226.798 620.751 227.964 620.089 228.849C619.427 229.733 618.53 230.176 617.399 230.176C616.245 230.176 615.337 229.81 614.675 229.077V233.656H613.049V220.49H614.534L614.613 221.545C615.275 220.725 616.195 220.314 617.373 220.314C618.516 220.314 619.418 220.745 620.08 221.606C620.748 222.468 621.082 223.666 621.082 225.201V225.351ZM619.456 225.166C619.456 224.094 619.228 223.247 618.771 222.626C618.313 222.005 617.687 221.694 616.89 221.694C615.905 221.694 615.167 222.131 614.675 223.004V227.548C615.161 228.415 615.905 228.849 616.907 228.849C617.687 228.849 618.305 228.541 618.762 227.926C619.225 227.305 619.456 226.385 619.456 225.166ZM624.932 220.49V228.673H628.412V220.49H630.038V228.673H633.51V220.49H635.145V230H623.297V220.49H624.932ZM641.657 230.176C640.368 230.176 639.319 229.754 638.511 228.91C637.702 228.061 637.298 226.927 637.298 225.509V225.21C637.298 224.267 637.477 223.426 637.834 222.688C638.197 221.943 638.701 221.363 639.346 220.947C639.996 220.525 640.699 220.314 641.455 220.314C642.691 220.314 643.652 220.722 644.338 221.536C645.023 222.351 645.366 223.517 645.366 225.034V225.711H638.924C638.947 226.648 639.22 227.407 639.741 227.987C640.269 228.562 640.937 228.849 641.745 228.849C642.319 228.849 642.806 228.731 643.204 228.497C643.603 228.263 643.951 227.952 644.25 227.565L645.243 228.339C644.446 229.563 643.251 230.176 641.657 230.176ZM641.455 221.65C640.799 221.65 640.248 221.891 639.803 222.371C639.357 222.846 639.082 223.514 638.977 224.375H643.74V224.252C643.693 223.426 643.471 222.787 643.072 222.336C642.674 221.879 642.135 221.65 641.455 221.65ZM655.025 230H653.399V225.939H649.031V230H647.396V220.49H649.031V224.612H653.399V220.49H655.025V230ZM665.414 230H663.788V225.939H659.42V230H657.785V220.49H659.42V224.612H663.788V220.49H665.414V230ZM667.603 225.157C667.603 224.226 667.784 223.388 668.147 222.644C668.517 221.899 669.026 221.325 669.677 220.921C670.333 220.517 671.08 220.314 671.918 220.314C673.213 220.314 674.259 220.763 675.056 221.659C675.858 222.556 676.26 223.748 676.26 225.236V225.351C676.26 226.276 676.081 227.108 675.724 227.847C675.372 228.579 674.865 229.15 674.203 229.561C673.547 229.971 672.791 230.176 671.936 230.176C670.646 230.176 669.601 229.728 668.798 228.831C668.001 227.935 667.603 226.748 667.603 225.271V225.157ZM669.237 225.351C669.237 226.405 669.48 227.252 669.967 227.891C670.459 228.529 671.115 228.849 671.936 228.849C672.762 228.849 673.418 228.526 673.904 227.882C674.391 227.231 674.634 226.323 674.634 225.157C674.634 224.114 674.385 223.271 673.887 222.626C673.395 221.976 672.738 221.65 671.918 221.65C671.115 221.65 670.468 221.97 669.976 222.608C669.483 223.247 669.237 224.161 669.237 225.351ZM575.405 246.035C576.601 246.035 577.556 246.437 578.271 247.239C578.991 248.036 579.352 249.088 579.352 250.395V250.544C579.352 251.44 579.179 252.243 578.833 252.952C578.487 253.655 577.989 254.203 577.339 254.596C576.694 254.982 575.95 255.176 575.106 255.176C573.829 255.176 572.801 254.751 572.021 253.901C571.242 253.046 570.853 251.9 570.853 250.465V249.674C570.853 247.676 571.222 246.088 571.96 244.91C572.704 243.732 573.8 243.015 575.247 242.757C576.067 242.61 576.621 242.432 576.908 242.221C577.195 242.01 577.339 241.72 577.339 241.351H578.675C578.675 242.083 578.508 242.654 578.174 243.064C577.846 243.475 577.318 243.765 576.592 243.935L575.379 244.207C574.412 244.436 573.686 244.822 573.199 245.367C572.719 245.906 572.405 246.627 572.259 247.529C573.12 246.533 574.169 246.035 575.405 246.035ZM575.089 247.371C574.292 247.371 573.659 247.641 573.19 248.18C572.722 248.713 572.487 249.454 572.487 250.403V250.544C572.487 251.563 572.722 252.372 573.19 252.97C573.665 253.562 574.304 253.857 575.106 253.857C575.915 253.857 576.554 253.559 577.022 252.961C577.491 252.363 577.726 251.49 577.726 250.342C577.726 249.445 577.488 248.728 577.014 248.188C576.545 247.644 575.903 247.371 575.089 247.371ZM585.126 255.176C583.837 255.176 582.788 254.754 581.979 253.91C581.171 253.061 580.767 251.927 580.767 250.509V250.21C580.767 249.267 580.945 248.426 581.303 247.688C581.666 246.943 582.17 246.363 582.814 245.947C583.465 245.525 584.168 245.314 584.924 245.314C586.16 245.314 587.121 245.722 587.807 246.536C588.492 247.351 588.835 248.517 588.835 250.034V250.711H582.393C582.416 251.648 582.688 252.407 583.21 252.987C583.737 253.562 584.405 253.849 585.214 253.849C585.788 253.849 586.274 253.731 586.673 253.497C587.071 253.263 587.42 252.952 587.719 252.565L588.712 253.339C587.915 254.563 586.72 255.176 585.126 255.176ZM584.924 246.65C584.268 246.65 583.717 246.891 583.271 247.371C582.826 247.846 582.551 248.514 582.445 249.375H587.209V249.252C587.162 248.426 586.939 247.787 586.541 247.336C586.143 246.879 585.604 246.65 584.924 246.65ZM594.539 253.849C595.119 253.849 595.626 253.673 596.06 253.321C596.493 252.97 596.733 252.53 596.78 252.003H598.318C598.289 252.548 598.102 253.066 597.756 253.559C597.41 254.051 596.947 254.443 596.367 254.736C595.793 255.029 595.184 255.176 594.539 255.176C593.244 255.176 592.213 254.745 591.445 253.884C590.684 253.017 590.303 251.833 590.303 250.333V250.061C590.303 249.135 590.473 248.312 590.812 247.591C591.152 246.87 591.639 246.311 592.271 245.912C592.91 245.514 593.663 245.314 594.53 245.314C595.597 245.314 596.481 245.634 597.185 246.272C597.894 246.911 598.271 247.74 598.318 248.76H596.78C596.733 248.145 596.499 247.641 596.077 247.248C595.661 246.85 595.146 246.65 594.53 246.65C593.704 246.65 593.062 246.949 592.605 247.547C592.154 248.139 591.929 248.997 591.929 250.122V250.43C591.929 251.525 592.154 252.369 592.605 252.961C593.057 253.553 593.701 253.849 594.539 253.849ZM607.925 255H606.299V246.835H601.922V255H600.287V245.49H607.925V255ZM618.331 245.49V255H616.696V246.835H613.462L613.269 250.395C613.163 252.029 612.888 253.198 612.442 253.901C612.003 254.604 611.303 254.971 610.342 255H609.691V253.567L610.157 253.532C610.685 253.474 611.062 253.169 611.291 252.618C611.52 252.067 611.666 251.048 611.73 249.56L611.906 245.49H618.331ZM626.812 255C626.719 254.812 626.643 254.479 626.584 253.998C625.828 254.783 624.926 255.176 623.877 255.176C622.939 255.176 622.169 254.912 621.565 254.385C620.968 253.852 620.669 253.178 620.669 252.363C620.669 251.373 621.044 250.605 621.794 250.061C622.55 249.51 623.61 249.234 624.976 249.234H626.558V248.487C626.558 247.919 626.388 247.468 626.048 247.134C625.708 246.794 625.207 246.624 624.545 246.624C623.965 246.624 623.479 246.771 623.086 247.063C622.693 247.356 622.497 247.711 622.497 248.127H620.862C620.862 247.652 621.029 247.195 621.363 246.756C621.703 246.311 622.16 245.959 622.734 245.701C623.314 245.443 623.95 245.314 624.642 245.314C625.737 245.314 626.596 245.59 627.217 246.141C627.838 246.686 628.16 247.438 628.184 248.399V252.776C628.184 253.649 628.295 254.344 628.518 254.859V255H626.812ZM624.114 253.761C624.624 253.761 625.107 253.629 625.564 253.365C626.021 253.102 626.353 252.759 626.558 252.337V250.386H625.283C623.291 250.386 622.295 250.969 622.295 252.135C622.295 252.645 622.465 253.043 622.805 253.33C623.145 253.617 623.581 253.761 624.114 253.761ZM637.658 246.809H634.468V255H632.842V246.809H629.713V245.49H637.658V246.809ZM647.01 255H645.384V250.939H641.016V255H639.381V245.49H641.016V249.612H645.384V245.49H647.01V255ZM649.198 250.157C649.198 249.226 649.38 248.388 649.743 247.644C650.112 246.899 650.622 246.325 651.272 245.921C651.929 245.517 652.676 245.314 653.514 245.314C654.809 245.314 655.854 245.763 656.651 246.659C657.454 247.556 657.855 248.748 657.855 250.236V250.351C657.855 251.276 657.677 252.108 657.319 252.847C656.968 253.579 656.461 254.15 655.799 254.561C655.143 254.971 654.387 255.176 653.531 255.176C652.242 255.176 651.196 254.728 650.394 253.831C649.597 252.935 649.198 251.748 649.198 250.271V250.157ZM650.833 250.351C650.833 251.405 651.076 252.252 651.562 252.891C652.055 253.529 652.711 253.849 653.531 253.849C654.357 253.849 655.014 253.526 655.5 252.882C655.986 252.231 656.229 251.323 656.229 250.157C656.229 249.114 655.98 248.271 655.482 247.626C654.99 246.976 654.334 246.65 653.514 246.65C652.711 246.65 652.063 246.97 651.571 247.608C651.079 248.247 650.833 249.161 650.833 250.351ZM672.138 255H670.512V246.835H666.135V255H664.5V245.49H672.138V255ZM674.317 250.157C674.317 249.226 674.499 248.388 674.862 247.644C675.231 246.899 675.741 246.325 676.392 245.921C677.048 245.517 677.795 245.314 678.633 245.314C679.928 245.314 680.974 245.763 681.771 246.659C682.573 247.556 682.975 248.748 682.975 250.236V250.351C682.975 251.276 682.796 252.108 682.438 252.847C682.087 253.579 681.58 254.15 680.918 254.561C680.262 254.971 679.506 255.176 678.65 255.176C677.361 255.176 676.315 254.728 675.513 253.831C674.716 252.935 674.317 251.748 674.317 250.271V250.157ZM675.952 250.351C675.952 251.405 676.195 252.252 676.682 252.891C677.174 253.529 677.83 253.849 678.65 253.849C679.477 253.849 680.133 253.526 680.619 252.882C681.105 252.231 681.349 251.323 681.349 250.157C681.349 249.114 681.1 248.271 680.602 247.626C680.109 246.976 679.453 246.65 678.633 246.65C677.83 246.65 677.183 246.97 676.69 247.608C676.198 248.247 675.952 249.161 675.952 250.351ZM692.669 245.49V255H691.034V246.835H687.8L687.606 250.395C687.501 252.029 687.226 253.198 686.78 253.901C686.341 254.604 685.641 254.971 684.68 255H684.029V253.567L684.495 253.532C685.022 253.474 685.4 253.169 685.629 252.618C685.857 252.067 686.004 251.048 686.068 249.56L686.244 245.49H692.669ZM698.391 252.618L700.605 245.49H702.346L698.522 256.468C697.931 258.05 696.99 258.841 695.701 258.841L695.394 258.814L694.787 258.7V257.382L695.227 257.417C695.777 257.417 696.205 257.306 696.51 257.083C696.82 256.86 697.075 256.453 697.274 255.861L697.635 254.895L694.242 245.49H696.018L698.391 252.618ZM710.985 255H709.351V251.555C708.636 251.742 707.903 251.836 707.153 251.836C705.964 251.836 705.056 251.531 704.429 250.922C703.808 250.312 703.491 249.445 703.479 248.32V245.481H705.105V248.373C705.135 249.791 705.817 250.5 707.153 250.5C707.903 250.5 708.636 250.406 709.351 250.219V245.49H710.985V255ZM719.748 245.49H721.374V255H719.748V248.065L715.362 255H713.736V245.49H715.362V252.434L719.748 245.49ZM573.006 270.49V278.673H576.486V270.49H578.112V278.673H581.584V270.49H583.219V280H571.371V270.49H573.006ZM591.656 280C591.562 279.812 591.486 279.479 591.428 278.998C590.672 279.783 589.77 280.176 588.721 280.176C587.783 280.176 587.013 279.912 586.409 279.385C585.812 278.852 585.513 278.178 585.513 277.363C585.513 276.373 585.888 275.605 586.638 275.061C587.394 274.51 588.454 274.234 589.819 274.234H591.401V273.487C591.401 272.919 591.231 272.468 590.892 272.134C590.552 271.794 590.051 271.624 589.389 271.624C588.809 271.624 588.322 271.771 587.93 272.063C587.537 272.356 587.341 272.711 587.341 273.127H585.706C585.706 272.652 585.873 272.195 586.207 271.756C586.547 271.311 587.004 270.959 587.578 270.701C588.158 270.443 588.794 270.314 589.485 270.314C590.581 270.314 591.439 270.59 592.061 271.141C592.682 271.686 593.004 272.438 593.027 273.399V277.776C593.027 278.649 593.139 279.344 593.361 279.859V280H591.656ZM588.958 278.761C589.468 278.761 589.951 278.629 590.408 278.365C590.865 278.102 591.196 277.759 591.401 277.337V275.386H590.127C588.135 275.386 587.139 275.969 587.139 277.135C587.139 277.645 587.309 278.043 587.648 278.33C587.988 278.617 588.425 278.761 588.958 278.761ZM603.346 280H601.72V275.939H597.352V280H595.717V270.49H597.352V274.612H601.72V270.49H603.346V280ZM609.779 278.849C610.359 278.849 610.866 278.673 611.3 278.321C611.733 277.97 611.974 277.53 612.021 277.003H613.559C613.529 277.548 613.342 278.066 612.996 278.559C612.65 279.051 612.188 279.443 611.607 279.736C611.033 280.029 610.424 280.176 609.779 280.176C608.484 280.176 607.453 279.745 606.686 278.884C605.924 278.017 605.543 276.833 605.543 275.333V275.061C605.543 274.135 605.713 273.312 606.053 272.591C606.393 271.87 606.879 271.311 607.512 270.912C608.15 270.514 608.903 270.314 609.771 270.314C610.837 270.314 611.722 270.634 612.425 271.272C613.134 271.911 613.512 272.74 613.559 273.76H612.021C611.974 273.145 611.739 272.641 611.317 272.248C610.901 271.85 610.386 271.65 609.771 271.65C608.944 271.65 608.303 271.949 607.846 272.547C607.395 273.139 607.169 273.997 607.169 275.122V275.43C607.169 276.525 607.395 277.369 607.846 277.961C608.297 278.553 608.941 278.849 609.779 278.849ZM627.885 275.351C627.885 276.798 627.554 277.964 626.892 278.849C626.229 279.733 625.333 280.176 624.202 280.176C623.048 280.176 622.14 279.81 621.478 279.077V283.656H619.852V270.49H621.337L621.416 271.545C622.078 270.725 622.998 270.314 624.176 270.314C625.318 270.314 626.221 270.745 626.883 271.606C627.551 272.468 627.885 273.666 627.885 275.201V275.351ZM626.259 275.166C626.259 274.094 626.03 273.247 625.573 272.626C625.116 272.005 624.489 271.694 623.692 271.694C622.708 271.694 621.97 272.131 621.478 273.004V277.548C621.964 278.415 622.708 278.849 623.71 278.849C624.489 278.849 625.107 278.541 625.564 277.926C626.027 277.305 626.259 276.385 626.259 275.166ZM633.905 280.176C632.616 280.176 631.567 279.754 630.759 278.91C629.95 278.061 629.546 276.927 629.546 275.509V275.21C629.546 274.267 629.725 273.426 630.082 272.688C630.445 271.943 630.949 271.363 631.594 270.947C632.244 270.525 632.947 270.314 633.703 270.314C634.939 270.314 635.9 270.722 636.586 271.536C637.271 272.351 637.614 273.517 637.614 275.034V275.711H631.172C631.195 276.648 631.468 277.407 631.989 277.987C632.517 278.562 633.185 278.849 633.993 278.849C634.567 278.849 635.054 278.731 635.452 278.497C635.851 278.263 636.199 277.952 636.498 277.565L637.491 278.339C636.694 279.563 635.499 280.176 633.905 280.176ZM633.703 271.65C633.047 271.65 632.496 271.891 632.051 272.371C631.605 272.846 631.33 273.514 631.225 274.375H635.988V274.252C635.941 273.426 635.719 272.787 635.32 272.336C634.922 271.879 634.383 271.65 633.703 271.65ZM641.279 270.49V278.673H644.76V270.49H646.386V278.673H649.857V270.49H651.492V280H639.645V270.49H641.279ZM660.211 270.49H661.837V280H660.211V273.065L655.825 280H654.199V270.49H655.825V277.434L660.211 270.49ZM671.514 271.809H668.323V280H666.697V271.809H663.568V270.49H671.514V271.809ZM674.871 273.769H677.341C678.419 273.78 679.271 274.062 679.898 274.612C680.525 275.163 680.839 275.91 680.839 276.854C680.839 277.803 680.517 278.564 679.872 279.139C679.228 279.713 678.36 280 677.271 280H673.245V270.49H674.871V273.769ZM674.871 275.096V278.673H677.288C677.897 278.673 678.369 278.518 678.703 278.207C679.037 277.891 679.204 277.46 679.204 276.915C679.204 276.388 679.04 275.957 678.712 275.623C678.39 275.283 677.936 275.107 677.35 275.096H674.871ZM575.045 303.849C575.625 303.849 576.132 303.673 576.565 303.321C576.999 302.97 577.239 302.53 577.286 302.003H578.824C578.795 302.548 578.607 303.066 578.262 303.559C577.916 304.051 577.453 304.443 576.873 304.736C576.299 305.029 575.689 305.176 575.045 305.176C573.75 305.176 572.719 304.745 571.951 303.884C571.189 303.017 570.809 301.833 570.809 300.333V300.061C570.809 299.135 570.979 298.312 571.318 297.591C571.658 296.87 572.145 296.311 572.777 295.912C573.416 295.514 574.169 295.314 575.036 295.314C576.103 295.314 576.987 295.634 577.69 296.272C578.399 296.911 578.777 297.74 578.824 298.76H577.286C577.239 298.145 577.005 297.641 576.583 297.248C576.167 296.85 575.651 296.65 575.036 296.65C574.21 296.65 573.568 296.949 573.111 297.547C572.66 298.139 572.435 298.997 572.435 300.122V300.43C572.435 301.525 572.66 302.369 573.111 302.961C573.562 303.553 574.207 303.849 575.045 303.849ZM580.802 305V295.49H584.511C585.776 295.49 586.746 295.713 587.42 296.158C588.1 296.598 588.439 297.245 588.439 298.101C588.439 298.54 588.308 298.938 588.044 299.296C587.78 299.647 587.391 299.917 586.875 300.104C587.449 300.239 587.909 300.503 588.255 300.896C588.606 301.288 588.782 301.757 588.782 302.302C588.782 303.175 588.46 303.843 587.815 304.306C587.177 304.769 586.271 305 585.1 305H580.802ZM582.428 300.825V303.69H585.117C585.797 303.69 586.304 303.564 586.638 303.312C586.978 303.061 587.147 302.706 587.147 302.249C587.147 301.3 586.45 300.825 585.056 300.825H582.428ZM582.428 299.524H584.528C586.052 299.524 586.813 299.079 586.813 298.188C586.813 297.298 586.093 296.838 584.651 296.809H582.428V299.524ZM590.505 300.157C590.505 299.226 590.687 298.388 591.05 297.644C591.419 296.899 591.929 296.325 592.579 295.921C593.235 295.517 593.982 295.314 594.82 295.314C596.115 295.314 597.161 295.763 597.958 296.659C598.761 297.556 599.162 298.748 599.162 300.236V300.351C599.162 301.276 598.983 302.108 598.626 302.847C598.274 303.579 597.768 304.15 597.105 304.561C596.449 304.971 595.693 305.176 594.838 305.176C593.549 305.176 592.503 304.728 591.7 303.831C590.903 302.935 590.505 301.748 590.505 300.271V300.157ZM592.14 300.351C592.14 301.405 592.383 302.252 592.869 302.891C593.361 303.529 594.018 303.849 594.838 303.849C595.664 303.849 596.32 303.526 596.807 302.882C597.293 302.231 597.536 301.323 597.536 300.157C597.536 299.114 597.287 298.271 596.789 297.626C596.297 296.976 595.641 296.65 594.82 296.65C594.018 296.65 593.37 296.97 592.878 297.608C592.386 298.247 592.14 299.161 592.14 300.351ZM607.354 295.49H608.979V305H607.354V298.065L602.968 305H601.342V295.49H602.968V302.434L607.354 295.49ZM615.703 300.421C615.703 298.833 616.011 297.585 616.626 296.677C617.241 295.769 618.085 295.314 619.157 295.314C619.655 295.314 620.092 295.399 620.467 295.569V291.5H622.093V295.622C622.503 295.417 622.983 295.314 623.534 295.314C624.612 295.314 625.459 295.769 626.074 296.677C626.689 297.585 626.997 298.895 626.997 300.605C626.997 302.006 626.689 303.119 626.074 303.945C625.465 304.771 624.624 305.185 623.552 305.185C622.983 305.185 622.497 305.091 622.093 304.903V308.656H620.467V304.93C620.08 305.1 619.638 305.185 619.14 305.185C618.073 305.185 617.232 304.771 616.617 303.945C616.008 303.119 615.703 301.988 615.703 300.553V300.421ZM625.371 300.421C625.371 299.226 625.166 298.3 624.756 297.644C624.346 296.981 623.78 296.65 623.06 296.65C622.69 296.65 622.368 296.709 622.093 296.826V303.708C622.356 303.808 622.685 303.857 623.077 303.857C623.804 303.857 624.366 303.576 624.765 303.014C625.169 302.451 625.371 301.587 625.371 300.421ZM617.329 300.605C617.329 301.672 617.52 302.48 617.9 303.031C618.281 303.582 618.829 303.857 619.544 303.857C619.884 303.857 620.191 303.805 620.467 303.699V296.8C620.221 296.7 619.919 296.65 619.562 296.65C618.847 296.65 618.296 296.97 617.909 297.608C617.522 298.247 617.329 299.246 617.329 300.605ZM635.268 295.49H636.894V305H635.268V298.065L630.882 305H629.256V295.49H630.882V302.434L635.268 295.49ZM647.273 305H645.647V300.939H641.279V305H639.645V295.49H641.279V299.612H645.647V295.49H647.273V305ZM655.764 305C655.67 304.812 655.594 304.479 655.535 303.998C654.779 304.783 653.877 305.176 652.828 305.176C651.891 305.176 651.12 304.912 650.517 304.385C649.919 303.852 649.62 303.178 649.62 302.363C649.62 301.373 649.995 300.605 650.745 300.061C651.501 299.51 652.562 299.234 653.927 299.234H655.509V298.487C655.509 297.919 655.339 297.468 654.999 297.134C654.659 296.794 654.158 296.624 653.496 296.624C652.916 296.624 652.43 296.771 652.037 297.063C651.645 297.356 651.448 297.711 651.448 298.127H649.813C649.813 297.652 649.98 297.195 650.314 296.756C650.654 296.311 651.111 295.959 651.686 295.701C652.266 295.443 652.901 295.314 653.593 295.314C654.688 295.314 655.547 295.59 656.168 296.141C656.789 296.686 657.111 297.438 657.135 298.399V302.776C657.135 303.649 657.246 304.344 657.469 304.859V305H655.764ZM653.065 303.761C653.575 303.761 654.059 303.629 654.516 303.365C654.973 303.102 655.304 302.759 655.509 302.337V300.386H654.234C652.242 300.386 651.246 300.969 651.246 302.135C651.246 302.645 651.416 303.043 651.756 303.33C652.096 303.617 652.532 303.761 653.065 303.761ZM667.453 305H665.827V300.939H661.459V305H659.824V295.49H661.459V299.612H665.827V295.49H667.453V305ZM673.887 303.849C674.467 303.849 674.974 303.673 675.407 303.321C675.841 302.97 676.081 302.53 676.128 302.003H677.666C677.637 302.548 677.449 303.066 677.104 303.559C676.758 304.051 676.295 304.443 675.715 304.736C675.141 305.029 674.531 305.176 673.887 305.176C672.592 305.176 671.561 304.745 670.793 303.884C670.031 303.017 669.65 301.833 669.65 300.333V300.061C669.65 299.135 669.82 298.312 670.16 297.591C670.5 296.87 670.986 296.311 671.619 295.912C672.258 295.514 673.011 295.314 673.878 295.314C674.944 295.314 675.829 295.634 676.532 296.272C677.241 296.911 677.619 297.74 677.666 298.76H676.128C676.081 298.145 675.847 297.641 675.425 297.248C675.009 296.85 674.493 296.65 673.878 296.65C673.052 296.65 672.41 296.949 671.953 297.547C671.502 298.139 671.276 298.997 671.276 300.122V300.43C671.276 301.525 671.502 302.369 671.953 302.961C672.404 303.553 673.049 303.849 673.887 303.849ZM679.063 300.157C679.063 299.226 679.245 298.388 679.608 297.644C679.978 296.899 680.487 296.325 681.138 295.921C681.794 295.517 682.541 295.314 683.379 295.314C684.674 295.314 685.72 295.763 686.517 296.659C687.319 297.556 687.721 298.748 687.721 300.236V300.351C687.721 301.276 687.542 302.108 687.185 302.847C686.833 303.579 686.326 304.15 685.664 304.561C685.008 304.971 684.252 305.176 683.396 305.176C682.107 305.176 681.062 304.728 680.259 303.831C679.462 302.935 679.063 301.748 679.063 300.271V300.157ZM680.698 300.351C680.698 301.405 680.941 302.252 681.428 302.891C681.92 303.529 682.576 303.849 683.396 303.849C684.223 303.849 684.879 303.526 685.365 302.882C685.852 302.231 686.095 301.323 686.095 300.157C686.095 299.114 685.846 298.271 685.348 297.626C684.855 296.976 684.199 296.65 683.379 296.65C682.576 296.65 681.929 296.97 681.437 297.608C680.944 298.247 680.698 299.161 680.698 300.351ZM689.909 305V295.49H693.618C694.884 295.49 695.854 295.713 696.527 296.158C697.207 296.598 697.547 297.245 697.547 298.101C697.547 298.54 697.415 298.938 697.151 299.296C696.888 299.647 696.498 299.917 695.982 300.104C696.557 300.239 697.017 300.503 697.362 300.896C697.714 301.288 697.89 301.757 697.89 302.302C697.89 303.175 697.567 303.843 696.923 304.306C696.284 304.769 695.379 305 694.207 305H689.909ZM691.535 300.825V303.69H694.225C694.904 303.69 695.411 303.564 695.745 303.312C696.085 303.061 696.255 302.706 696.255 302.249C696.255 301.3 695.558 300.825 694.163 300.825H691.535ZM691.535 299.524H693.636C695.159 299.524 695.921 299.079 695.921 298.188C695.921 297.298 695.2 296.838 693.759 296.809H691.535V299.524ZM701.818 298.769H704.288C705.366 298.78 706.219 299.062 706.846 299.612C707.473 300.163 707.786 300.91 707.786 301.854C707.786 302.803 707.464 303.564 706.819 304.139C706.175 304.713 705.308 305 704.218 305H700.192V295.49H701.818V298.769ZM711.179 305H709.544V295.49H711.179V305ZM701.818 300.096V303.673H704.235C704.845 303.673 705.316 303.518 705.65 303.207C705.984 302.891 706.151 302.46 706.151 301.915C706.151 301.388 705.987 300.957 705.659 300.623C705.337 300.283 704.883 300.107 704.297 300.096H701.818ZM717.964 305.176C716.675 305.176 715.626 304.754 714.817 303.91C714.009 303.061 713.604 301.927 713.604 300.509V300.21C713.604 299.267 713.783 298.426 714.141 297.688C714.504 296.943 715.008 296.363 715.652 295.947C716.303 295.525 717.006 295.314 717.762 295.314C718.998 295.314 719.959 295.722 720.645 296.536C721.33 297.351 721.673 298.517 721.673 300.034V300.711H715.23C715.254 301.648 715.526 302.407 716.048 302.987C716.575 303.562 717.243 303.849 718.052 303.849C718.626 303.849 719.112 303.731 719.511 303.497C719.909 303.263 720.258 302.952 720.557 302.565L721.55 303.339C720.753 304.563 719.558 305.176 717.964 305.176ZM717.762 296.65C717.105 296.65 716.555 296.891 716.109 297.371C715.664 297.846 715.389 298.514 715.283 299.375H720.047V299.252C720 298.426 719.777 297.787 719.379 297.336C718.98 296.879 718.441 296.65 717.762 296.65ZM579.009 330H577.383V321.835H573.006V330H571.371V320.49H579.009V330ZM589.652 325.351C589.652 326.798 589.321 327.964 588.659 328.849C587.997 329.733 587.101 330.176 585.97 330.176C584.815 330.176 583.907 329.81 583.245 329.077V333.656H581.619V320.49H583.104L583.184 321.545C583.846 320.725 584.766 320.314 585.943 320.314C587.086 320.314 587.988 320.745 588.65 321.606C589.318 322.468 589.652 323.666 589.652 325.201V325.351ZM588.026 325.166C588.026 324.094 587.798 323.247 587.341 322.626C586.884 322.005 586.257 321.694 585.46 321.694C584.476 321.694 583.737 322.131 583.245 323.004V327.548C583.731 328.415 584.476 328.849 585.478 328.849C586.257 328.849 586.875 328.541 587.332 327.926C587.795 327.305 588.026 326.385 588.026 325.166ZM591.296 325.157C591.296 324.226 591.478 323.388 591.841 322.644C592.21 321.899 592.72 321.325 593.37 320.921C594.026 320.517 594.773 320.314 595.611 320.314C596.906 320.314 597.952 320.763 598.749 321.659C599.552 322.556 599.953 323.748 599.953 325.236V325.351C599.953 326.276 599.774 327.108 599.417 327.847C599.065 328.579 598.559 329.15 597.896 329.561C597.24 329.971 596.484 330.176 595.629 330.176C594.34 330.176 593.294 329.728 592.491 328.831C591.694 327.935 591.296 326.748 591.296 325.271V325.157ZM592.931 325.351C592.931 326.405 593.174 327.252 593.66 327.891C594.152 328.529 594.809 328.849 595.629 328.849C596.455 328.849 597.111 328.526 597.598 327.882C598.084 327.231 598.327 326.323 598.327 325.157C598.327 324.114 598.078 323.271 597.58 322.626C597.088 321.976 596.432 321.65 595.611 321.65C594.809 321.65 594.161 321.97 593.669 322.608C593.177 323.247 592.931 324.161 592.931 325.351ZM606.167 321.035C607.362 321.035 608.317 321.437 609.032 322.239C609.753 323.036 610.113 324.088 610.113 325.395V325.544C610.113 326.44 609.94 327.243 609.595 327.952C609.249 328.655 608.751 329.203 608.101 329.596C607.456 329.982 606.712 330.176 605.868 330.176C604.591 330.176 603.562 329.751 602.783 328.901C602.004 328.046 601.614 326.9 601.614 325.465V324.674C601.614 322.676 601.983 321.088 602.722 319.91C603.466 318.732 604.562 318.015 606.009 317.757C606.829 317.61 607.383 317.432 607.67 317.221C607.957 317.01 608.101 316.72 608.101 316.351H609.437C609.437 317.083 609.27 317.654 608.936 318.064C608.607 318.475 608.08 318.765 607.354 318.935L606.141 319.207C605.174 319.436 604.447 319.822 603.961 320.367C603.48 320.906 603.167 321.627 603.021 322.529C603.882 321.533 604.931 321.035 606.167 321.035ZM605.851 322.371C605.054 322.371 604.421 322.641 603.952 323.18C603.483 323.713 603.249 324.454 603.249 325.403V325.544C603.249 326.563 603.483 327.372 603.952 327.97C604.427 328.562 605.065 328.857 605.868 328.857C606.677 328.857 607.315 328.559 607.784 327.961C608.253 327.363 608.487 326.49 608.487 325.342C608.487 324.445 608.25 323.728 607.775 323.188C607.307 322.644 606.665 322.371 605.851 322.371ZM619.737 320.49V330H618.103V321.835H614.868L614.675 325.395C614.569 327.029 614.294 328.198 613.849 328.901C613.409 329.604 612.709 329.971 611.748 330H611.098V328.567L611.563 328.532C612.091 328.474 612.469 328.169 612.697 327.618C612.926 327.067 613.072 326.048 613.137 324.56L613.312 320.49H619.737ZM626.294 330.176C625.005 330.176 623.956 329.754 623.147 328.91C622.339 328.061 621.935 326.927 621.935 325.509V325.21C621.935 324.267 622.113 323.426 622.471 322.688C622.834 321.943 623.338 321.363 623.982 320.947C624.633 320.525 625.336 320.314 626.092 320.314C627.328 320.314 628.289 320.722 628.975 321.536C629.66 322.351 630.003 323.517 630.003 325.034V325.711H623.561C623.584 326.648 623.856 327.407 624.378 327.987C624.905 328.562 625.573 328.849 626.382 328.849C626.956 328.849 627.442 328.731 627.841 328.497C628.239 328.263 628.588 327.952 628.887 327.565L629.88 328.339C629.083 329.563 627.888 330.176 626.294 330.176ZM626.092 321.65C625.436 321.65 624.885 321.891 624.439 322.371C623.994 322.846 623.719 323.514 623.613 324.375H628.377V324.252C628.33 323.426 628.107 322.787 627.709 322.336C627.311 321.879 626.771 321.65 626.092 321.65ZM637.368 327.847L640.603 320.49H642.633V330H641.007V323.083L637.931 330H636.806L633.668 322.934V330H632.042V320.49H634.151L637.368 327.847ZM647.027 323.769H649.497C650.575 323.78 651.428 324.062 652.055 324.612C652.682 325.163 652.995 325.91 652.995 326.854C652.995 327.803 652.673 328.564 652.028 329.139C651.384 329.713 650.517 330 649.427 330H645.401V320.49H647.027V323.769ZM656.388 330H654.753V320.49H656.388V330ZM647.027 325.096V328.673H649.444C650.054 328.673 650.525 328.518 650.859 328.207C651.193 327.891 651.36 327.46 651.36 326.915C651.36 326.388 651.196 325.957 650.868 325.623C650.546 325.283 650.092 325.107 649.506 325.096H647.027ZM667.866 321.035C669.062 321.035 670.017 321.437 670.731 322.239C671.452 323.036 671.812 324.088 671.812 325.395V325.544C671.812 326.44 671.64 327.243 671.294 327.952C670.948 328.655 670.45 329.203 669.8 329.596C669.155 329.982 668.411 330.176 667.567 330.176C666.29 330.176 665.262 329.751 664.482 328.901C663.703 328.046 663.313 326.9 663.313 325.465V324.674C663.313 322.676 663.683 321.088 664.421 319.91C665.165 318.732 666.261 318.015 667.708 317.757C668.528 317.61 669.082 317.432 669.369 317.221C669.656 317.01 669.8 316.72 669.8 316.351H671.136C671.136 317.083 670.969 317.654 670.635 318.064C670.307 318.475 669.779 318.765 669.053 318.935L667.84 319.207C666.873 319.436 666.146 319.822 665.66 320.367C665.18 320.906 664.866 321.627 664.72 322.529C665.581 321.533 666.63 321.035 667.866 321.035ZM667.55 322.371C666.753 322.371 666.12 322.641 665.651 323.18C665.183 323.713 664.948 324.454 664.948 325.403V325.544C664.948 326.563 665.183 327.372 665.651 327.97C666.126 328.562 666.765 328.857 667.567 328.857C668.376 328.857 669.015 328.559 669.483 327.961C669.952 327.363 670.187 326.49 670.187 325.342C670.187 324.445 669.949 323.728 669.475 323.188C669.006 322.644 668.364 322.371 667.55 322.371ZM675.416 323.769H677.886C678.964 323.78 679.816 324.062 680.443 324.612C681.07 325.163 681.384 325.91 681.384 326.854C681.384 327.803 681.062 328.564 680.417 329.139C679.772 329.713 678.905 330 677.815 330H673.79V320.49H675.416V323.769ZM684.776 330H683.142V320.49H684.776V330ZM675.416 325.096V328.673H677.833C678.442 328.673 678.914 328.518 679.248 328.207C679.582 327.891 679.749 327.46 679.749 326.915C679.749 326.388 679.585 325.957 679.257 325.623C678.935 325.283 678.48 325.107 677.895 325.096H675.416ZM691.43 328.849C692.01 328.849 692.517 328.673 692.95 328.321C693.384 327.97 693.624 327.53 693.671 327.003H695.209C695.18 327.548 694.992 328.066 694.646 328.559C694.301 329.051 693.838 329.443 693.258 329.736C692.684 330.029 692.074 330.176 691.43 330.176C690.135 330.176 689.104 329.745 688.336 328.884C687.574 328.017 687.193 326.833 687.193 325.333V325.061C687.193 324.135 687.363 323.312 687.703 322.591C688.043 321.87 688.529 321.311 689.162 320.912C689.801 320.514 690.554 320.314 691.421 320.314C692.487 320.314 693.372 320.634 694.075 321.272C694.784 321.911 695.162 322.74 695.209 323.76H693.671C693.624 323.145 693.39 322.641 692.968 322.248C692.552 321.85 692.036 321.65 691.421 321.65C690.595 321.65 689.953 321.949 689.496 322.547C689.045 323.139 688.819 323.997 688.819 325.122V325.43C688.819 326.525 689.045 327.369 689.496 327.961C689.947 328.553 690.592 328.849 691.43 328.849ZM704.104 321.809H700.913V330H699.287V321.809H696.158V320.49H704.104V321.809ZM713.719 325.351C713.719 326.798 713.388 327.964 712.726 328.849C712.063 329.733 711.167 330.176 710.036 330.176C708.882 330.176 707.974 329.81 707.312 329.077V333.656H705.686V320.49H707.171L707.25 321.545C707.912 320.725 708.832 320.314 710.01 320.314C711.152 320.314 712.055 320.745 712.717 321.606C713.385 322.468 713.719 323.666 713.719 325.201V325.351ZM712.093 325.166C712.093 324.094 711.864 323.247 711.407 322.626C710.95 322.005 710.323 321.694 709.526 321.694C708.542 321.694 707.804 322.131 707.312 323.004V327.548C707.798 328.415 708.542 328.849 709.544 328.849C710.323 328.849 710.941 328.541 711.398 327.926C711.861 327.305 712.093 326.385 712.093 325.166ZM715.362 325.157C715.362 324.226 715.544 323.388 715.907 322.644C716.276 321.899 716.786 321.325 717.437 320.921C718.093 320.517 718.84 320.314 719.678 320.314C720.973 320.314 722.019 320.763 722.815 321.659C723.618 322.556 724.02 323.748 724.02 325.236V325.351C724.02 326.276 723.841 327.108 723.483 327.847C723.132 328.579 722.625 329.15 721.963 329.561C721.307 329.971 720.551 330.176 719.695 330.176C718.406 330.176 717.36 329.728 716.558 328.831C715.761 327.935 715.362 326.748 715.362 325.271V325.157ZM716.997 325.351C716.997 326.405 717.24 327.252 717.727 327.891C718.219 328.529 718.875 328.849 719.695 328.849C720.521 328.849 721.178 328.526 721.664 327.882C722.15 327.231 722.394 326.323 722.394 325.157C722.394 324.114 722.145 323.271 721.646 322.626C721.154 321.976 720.498 321.65 719.678 321.65C718.875 321.65 718.228 321.97 717.735 322.608C717.243 323.247 716.997 324.161 716.997 325.351ZM577.383 346.49H579.009V356H577.383V349.065L572.997 356H571.371V346.49H572.997V353.434L577.383 346.49ZM593.88 346.49V356H592.245V347.835H589.011L588.817 351.395C588.712 353.029 588.437 354.198 587.991 354.901C587.552 355.604 586.852 355.971 585.891 356H585.24V354.567L585.706 354.532C586.233 354.474 586.611 354.169 586.84 353.618C587.068 353.067 587.215 352.048 587.279 350.56L587.455 346.49H593.88ZM600.437 356.176C599.147 356.176 598.099 355.754 597.29 354.91C596.481 354.061 596.077 352.927 596.077 351.509V351.21C596.077 350.267 596.256 349.426 596.613 348.688C596.977 347.943 597.48 347.363 598.125 346.947C598.775 346.525 599.479 346.314 600.234 346.314C601.471 346.314 602.432 346.722 603.117 347.536C603.803 348.351 604.146 349.517 604.146 351.034V351.711H597.703C597.727 352.648 597.999 353.407 598.521 353.987C599.048 354.562 599.716 354.849 600.524 354.849C601.099 354.849 601.585 354.731 601.983 354.497C602.382 354.263 602.73 353.952 603.029 353.565L604.022 354.339C603.226 355.563 602.03 356.176 600.437 356.176ZM600.234 347.65C599.578 347.65 599.027 347.891 598.582 348.371C598.137 348.846 597.861 349.514 597.756 350.375H602.52V350.252C602.473 349.426 602.25 348.787 601.852 348.336C601.453 347.879 600.914 347.65 600.234 347.65ZM612.179 347.835H607.793V356H606.158V346.49H612.179V347.835ZM616.556 351.948H615.369V356H613.734V346.49H615.369V350.516H616.433L619.632 346.49H621.601L617.839 351.061L621.917 356H619.852L616.556 351.948ZM622.69 351.157C622.69 350.226 622.872 349.388 623.235 348.644C623.604 347.899 624.114 347.325 624.765 346.921C625.421 346.517 626.168 346.314 627.006 346.314C628.301 346.314 629.347 346.763 630.144 347.659C630.946 348.556 631.348 349.748 631.348 351.236V351.351C631.348 352.276 631.169 353.108 630.812 353.847C630.46 354.579 629.953 355.15 629.291 355.561C628.635 355.971 627.879 356.176 627.023 356.176C625.734 356.176 624.688 355.728 623.886 354.831C623.089 353.935 622.69 352.748 622.69 351.271V351.157ZM624.325 351.351C624.325 352.405 624.568 353.252 625.055 353.891C625.547 354.529 626.203 354.849 627.023 354.849C627.85 354.849 628.506 354.526 628.992 353.882C629.479 353.231 629.722 352.323 629.722 351.157C629.722 350.114 629.473 349.271 628.975 348.626C628.482 347.976 627.826 347.65 627.006 347.65C626.203 347.65 625.556 347.97 625.063 348.608C624.571 349.247 624.325 350.161 624.325 351.351Z" fill="#1E253A"/>
<rect x="570" y="48" width="140" height="140" rx="25" fill="#EEEEEE"/>
<path d="M635.2 47.75C632.7 51.05 629.217 52.7 624.75 52.7C620.283 52.7 616.783 51.05 614.25 47.75C611.75 44.4167 610.5 40 610.5 34.5C610.5 29 611.75 24.6 614.25 21.3C616.783 17.9667 620.283 16.3 624.75 16.3C629.217 16.3 632.7 17.9667 635.2 21.3C637.733 24.6 639 29 639 34.5C639 40 637.733 44.4167 635.2 47.75ZM618.5 34.5C618.5 41.4333 620.583 44.9 624.75 44.9C628.917 44.9 631 41.4333 631 34.5C631 27.5667 628.917 24.1 624.75 24.1C620.583 24.1 618.5 27.5667 618.5 34.5ZM657.53 31.2C659.764 31.9667 661.564 33.2167 662.93 34.95C664.297 36.65 664.98 38.6667 664.98 41C664.98 44.6667 663.747 47.5333 661.28 49.6C658.814 51.6667 655.797 52.7 652.23 52.7C649.464 52.7 646.98 52.0667 644.78 50.8C642.614 49.5333 641.014 47.6667 639.98 45.2L646.88 41.2C647.747 43.6667 649.53 44.9 652.23 44.9C653.797 44.9 654.98 44.5333 655.78 43.8C656.58 43.0667 656.98 42.1333 656.98 41C656.98 39.8667 656.58 38.9333 655.78 38.2C654.98 37.4667 653.797 37.1 652.23 37.1L650.58 37.1L647.53 32.55L653.88 24.5L641.08 24.5L641.08 17L663.58 17L663.58 23.5L657.53 31.2Z" fill="#EEEEEE"/>
<path fill-rule="evenodd" clip-rule="evenodd" d="M661.5 97.5C661.5 107.165 653.665 115 644 115C634.335 115 626.5 107.165 626.5 97.5C626.5 87.835 634.335 80 644 80C653.665 80 661.5 87.835 661.5 97.5Z" stroke="#1E253A" stroke-width="3" stroke-linecap="round" stroke-linejoin="round"/>
<path d="M648.795 92.235C648.265 90.645 646.765 89.5 645 89.5H643C640.793 89.5 639 91.29 639 93.5C639 95.71 640.793 97.5 643 97.5H645C647.208 97.5 649 99.29 649 101.5C649 103.71 647.208 105.5 645 105.5H643C641.185 105.5 639.652 104.29 639.162 102.632" stroke="#FFC40E" stroke-width="3" stroke-linecap="round" stroke-linejoin="round"/>
<path d="M644 106.25L644 108.75" stroke="#FFC40E" stroke-width="3" stroke-linecap="round" stroke-linejoin="round"/>
<path d="M644 86.2993L644 88.7993" stroke="#FFC40E" stroke-width="3" stroke-linecap="round" stroke-linejoin="round"/>
<path d="M635.86 137.5H644C646.76 137.5 649 135.26 649 132.5C649 129.74 646.76 127.5 644 127.5H631.5C631.5 127.5 624 122.5 619 122.5C614 122.5 609 127.5 609 127.5V150H649L679 132.5C679 128.932 675.37 126.513 672.075 127.885L649 137.5H629" stroke="#1E253A" stroke-width="3" stroke-linecap="round" stroke-linejoin="round"/>
<path d="M271.554 216.203H273.241V229H271.554V219.139L265.252 229H263.556V216.203H265.252V226.064L271.554 216.203ZM281.292 222.092C281.292 221.646 281.122 221.295 280.782 221.037C280.442 220.773 279.977 220.642 279.385 220.642C278.811 220.642 278.33 220.791 277.943 221.09C277.562 221.389 277.372 221.74 277.372 222.145H275.755C275.755 221.318 276.101 220.642 276.792 220.114C277.483 219.587 278.348 219.323 279.385 219.323C280.498 219.323 281.365 219.563 281.986 220.044C282.607 220.519 282.918 221.198 282.918 222.083C282.918 222.511 282.789 222.903 282.531 223.261C282.273 223.618 281.907 223.902 281.433 224.113C282.54 224.488 283.094 225.227 283.094 226.328C283.094 227.201 282.757 227.893 282.083 228.402C281.409 228.912 280.51 229.167 279.385 229.167C278.289 229.167 277.384 228.9 276.669 228.367C275.96 227.828 275.605 227.102 275.605 226.188H277.223C277.223 226.65 277.428 227.049 277.838 227.383C278.254 227.711 278.77 227.875 279.385 227.875C280.006 227.875 280.507 227.731 280.888 227.444C281.269 227.157 281.459 226.785 281.459 226.328C281.459 225.795 281.298 225.414 280.976 225.186C280.659 224.951 280.164 224.834 279.49 224.834H277.864V223.463H279.631C280.738 223.434 281.292 222.977 281.292 222.092ZM288.314 226.618L290.529 219.49H292.27L288.446 230.468C287.854 232.05 286.914 232.841 285.625 232.841L285.317 232.814L284.711 232.7V231.382L285.15 231.417C285.701 231.417 286.129 231.306 286.434 231.083C286.744 230.86 286.999 230.453 287.198 229.861L287.559 228.895L284.166 219.49H285.941L288.314 226.618ZM300.909 229H299.274V225.555C298.56 225.742 297.827 225.836 297.077 225.836C295.888 225.836 294.979 225.531 294.353 224.922C293.731 224.312 293.415 223.445 293.403 222.32V219.481H295.029V222.373C295.059 223.791 295.741 224.5 297.077 224.5C297.827 224.5 298.56 224.406 299.274 224.219V219.49H300.909V229ZM309.391 229C309.297 228.812 309.221 228.479 309.162 227.998C308.406 228.783 307.504 229.176 306.455 229.176C305.518 229.176 304.747 228.912 304.144 228.385C303.546 227.852 303.247 227.178 303.247 226.363C303.247 225.373 303.622 224.605 304.372 224.061C305.128 223.51 306.188 223.234 307.554 223.234H309.136V222.487C309.136 221.919 308.966 221.468 308.626 221.134C308.286 220.794 307.785 220.624 307.123 220.624C306.543 220.624 306.057 220.771 305.664 221.063C305.271 221.356 305.075 221.711 305.075 222.127H303.44C303.44 221.652 303.607 221.195 303.941 220.756C304.281 220.311 304.738 219.959 305.312 219.701C305.893 219.443 306.528 219.314 307.22 219.314C308.315 219.314 309.174 219.59 309.795 220.141C310.416 220.686 310.738 221.438 310.762 222.399V226.776C310.762 227.649 310.873 228.344 311.096 228.859V229H309.391ZM306.692 227.761C307.202 227.761 307.686 227.629 308.143 227.365C308.6 227.102 308.931 226.759 309.136 226.337V224.386H307.861C305.869 224.386 304.873 224.969 304.873 226.135C304.873 226.645 305.043 227.043 305.383 227.33C305.723 227.617 306.159 227.761 306.692 227.761ZM319.463 219.49H321.089V229H319.463V222.065L315.077 229H313.451V219.49H315.077V226.434L319.463 219.49ZM319.902 216.027C319.902 216.736 319.659 217.308 319.173 217.741C318.692 218.169 318.06 218.383 317.274 218.383C316.489 218.383 315.854 218.166 315.367 217.732C314.881 217.299 314.638 216.73 314.638 216.027H315.965C315.965 216.438 316.076 216.76 316.299 216.994C316.521 217.223 316.847 217.337 317.274 217.337C317.685 217.337 318.004 217.223 318.232 216.994C318.467 216.766 318.584 216.443 318.584 216.027H319.902ZM333.64 226.847L336.874 219.49H338.904V229H337.278V222.083L334.202 229H333.077L329.939 221.934V229H328.313V219.49H330.423L333.64 226.847ZM347.395 229C347.301 228.812 347.225 228.479 347.166 227.998C346.41 228.783 345.508 229.176 344.459 229.176C343.521 229.176 342.751 228.912 342.147 228.385C341.55 227.852 341.251 227.178 341.251 226.363C341.251 225.373 341.626 224.605 342.376 224.061C343.132 223.51 344.192 223.234 345.558 223.234H347.14V222.487C347.14 221.919 346.97 221.468 346.63 221.134C346.29 220.794 345.789 220.624 345.127 220.624C344.547 220.624 344.061 220.771 343.668 221.063C343.275 221.356 343.079 221.711 343.079 222.127H341.444C341.444 221.652 341.611 221.195 341.945 220.756C342.285 220.311 342.742 219.959 343.316 219.701C343.896 219.443 344.532 219.314 345.224 219.314C346.319 219.314 347.178 219.59 347.799 220.141C348.42 220.686 348.742 221.438 348.766 222.399V226.776C348.766 227.649 348.877 228.344 349.1 228.859V229H347.395ZM344.696 227.761C345.206 227.761 345.689 227.629 346.146 227.365C346.604 227.102 346.935 226.759 347.14 226.337V224.386H345.865C343.873 224.386 342.877 224.969 342.877 226.135C342.877 226.645 343.047 227.043 343.387 227.33C343.727 227.617 344.163 227.761 344.696 227.761ZM358.24 220.809H355.05V229H353.424V220.809H350.295V219.49H358.24V220.809ZM363.065 229.176C361.776 229.176 360.728 228.754 359.919 227.91C359.11 227.061 358.706 225.927 358.706 224.509V224.21C358.706 223.267 358.885 222.426 359.242 221.688C359.605 220.943 360.109 220.363 360.754 219.947C361.404 219.525 362.107 219.314 362.863 219.314C364.1 219.314 365.061 219.722 365.746 220.536C366.432 221.351 366.774 222.517 366.774 224.034V224.711H360.332C360.355 225.648 360.628 226.407 361.149 226.987C361.677 227.562 362.345 227.849 363.153 227.849C363.728 227.849 364.214 227.731 364.612 227.497C365.011 227.263 365.359 226.952 365.658 226.565L366.651 227.339C365.854 228.563 364.659 229.176 363.065 229.176ZM362.863 220.65C362.207 220.65 361.656 220.891 361.211 221.371C360.766 221.846 360.49 222.514 360.385 223.375H365.148V223.252C365.102 222.426 364.879 221.787 364.48 221.336C364.082 220.879 363.543 220.65 362.863 220.65ZM376.697 224.351C376.697 225.798 376.366 226.964 375.704 227.849C375.042 228.733 374.146 229.176 373.015 229.176C371.86 229.176 370.952 228.81 370.29 228.077V232.656H368.664V219.49H370.149L370.229 220.545C370.891 219.725 371.811 219.314 372.988 219.314C374.131 219.314 375.033 219.745 375.695 220.606C376.363 221.468 376.697 222.666 376.697 224.201V224.351ZM375.071 224.166C375.071 223.094 374.843 222.247 374.386 221.626C373.929 221.005 373.302 220.694 372.505 220.694C371.521 220.694 370.782 221.131 370.29 222.004V226.548C370.776 227.415 371.521 227.849 372.522 227.849C373.302 227.849 373.92 227.541 374.377 226.926C374.84 226.305 375.071 225.385 375.071 224.166ZM384.924 219.49H386.55V229H384.924V222.065L380.538 229H378.912V219.49H380.538V226.434L384.924 219.49ZM395.031 229C394.938 228.812 394.861 228.479 394.803 227.998C394.047 228.783 393.145 229.176 392.096 229.176C391.158 229.176 390.388 228.912 389.784 228.385C389.187 227.852 388.888 227.178 388.888 226.363C388.888 225.373 389.263 224.605 390.013 224.061C390.769 223.51 391.829 223.234 393.194 223.234H394.776V222.487C394.776 221.919 394.606 221.468 394.267 221.134C393.927 220.794 393.426 220.624 392.764 220.624C392.184 220.624 391.697 220.771 391.305 221.063C390.912 221.356 390.716 221.711 390.716 222.127H389.081C389.081 221.652 389.248 221.195 389.582 220.756C389.922 220.311 390.379 219.959 390.953 219.701C391.533 219.443 392.169 219.314 392.86 219.314C393.956 219.314 394.814 219.59 395.436 220.141C396.057 220.686 396.379 221.438 396.402 222.399V226.776C396.402 227.649 396.514 228.344 396.736 228.859V229H395.031ZM392.333 227.761C392.843 227.761 393.326 227.629 393.783 227.365C394.24 227.102 394.571 226.759 394.776 226.337V224.386H393.502C391.51 224.386 390.514 224.969 390.514 226.135C390.514 226.645 390.684 227.043 391.023 227.33C391.363 227.617 391.8 227.761 392.333 227.761ZM406.747 219.49V229H405.112V220.835H401.878L401.685 224.395C401.579 226.029 401.304 227.198 400.858 227.901C400.419 228.604 399.719 228.971 398.758 229H398.107V227.567L398.573 227.532C399.101 227.474 399.479 227.169 399.707 226.618C399.936 226.067 400.082 225.048 400.146 223.56L400.322 219.49H406.747ZM411.133 222.769H413.603C414.681 222.78 415.533 223.062 416.16 223.612C416.787 224.163 417.101 224.91 417.101 225.854C417.101 226.803 416.778 227.564 416.134 228.139C415.489 228.713 414.622 229 413.532 229H409.507V219.49H411.133V222.769ZM420.493 229H418.858V219.49H420.493V229ZM411.133 224.096V227.673H413.55C414.159 227.673 414.631 227.518 414.965 227.207C415.299 226.891 415.466 226.46 415.466 225.915C415.466 225.388 415.302 224.957 414.974 224.623C414.651 224.283 414.197 224.107 413.611 224.096H411.133ZM423.279 231.549L422.356 230.916C422.907 230.148 423.194 229.357 423.218 228.543V227.075H424.809V228.35C424.809 228.941 424.662 229.533 424.369 230.125C424.082 230.717 423.719 231.191 423.279 231.549ZM271.009 254H269.383V245.835H265.006V254H263.371V244.49H271.009V254ZM281.652 249.351C281.652 250.798 281.321 251.964 280.659 252.849C279.997 253.733 279.101 254.176 277.97 254.176C276.815 254.176 275.907 253.81 275.245 253.077V257.656H273.619V244.49H275.104L275.184 245.545C275.846 244.725 276.766 244.314 277.943 244.314C279.086 244.314 279.988 244.745 280.65 245.606C281.318 246.468 281.652 247.666 281.652 249.201V249.351ZM280.026 249.166C280.026 248.094 279.798 247.247 279.341 246.626C278.884 246.005 278.257 245.694 277.46 245.694C276.476 245.694 275.737 246.131 275.245 247.004V251.548C275.731 252.415 276.476 252.849 277.478 252.849C278.257 252.849 278.875 252.541 279.332 251.926C279.795 251.305 280.026 250.385 280.026 249.166ZM289.879 244.49H291.505V254H289.879V247.065L285.493 254H283.867V244.49H285.493V251.434L289.879 244.49ZM299.591 251.847L302.825 244.49H304.855V254H303.229V247.083L300.153 254H299.028L295.891 246.934V254H294.265V244.49H296.374L299.591 251.847ZM311.421 254.176C310.132 254.176 309.083 253.754 308.274 252.91C307.466 252.061 307.062 250.927 307.062 249.509V249.21C307.062 248.267 307.24 247.426 307.598 246.688C307.961 245.943 308.465 245.363 309.109 244.947C309.76 244.525 310.463 244.314 311.219 244.314C312.455 244.314 313.416 244.722 314.102 245.536C314.787 246.351 315.13 247.517 315.13 249.034V249.711H308.688C308.711 250.648 308.983 251.407 309.505 251.987C310.032 252.562 310.7 252.849 311.509 252.849C312.083 252.849 312.569 252.731 312.968 252.497C313.366 252.263 313.715 251.952 314.014 251.565L315.007 252.339C314.21 253.563 313.015 254.176 311.421 254.176ZM311.219 245.65C310.562 245.65 310.012 245.891 309.566 246.371C309.121 246.846 308.846 247.514 308.74 248.375H313.504V248.252C313.457 247.426 313.234 246.787 312.836 246.336C312.438 245.879 311.898 245.65 311.219 245.65ZM324.789 254H323.163V249.939H318.795V254H317.16V244.49H318.795V248.612H323.163V244.49H324.789V254ZM334.677 244.49V254H333.042V250.3H330.59L328.349 254H326.591L328.981 250.054C328.372 249.831 327.903 249.488 327.575 249.025C327.253 248.557 327.092 248.012 327.092 247.391C327.092 246.523 327.417 245.826 328.067 245.299C328.718 244.766 329.588 244.496 330.678 244.49H334.677ZM328.727 247.408C328.727 247.871 328.885 248.246 329.201 248.533C329.518 248.814 329.937 248.958 330.458 248.964H333.042V245.809H330.704C330.101 245.809 329.62 245.958 329.263 246.257C328.905 246.55 328.727 246.934 328.727 247.408ZM343.439 244.49H345.065V254H343.439V247.065L339.054 254H337.428V244.49H339.054V251.434L343.439 244.49ZM343.879 241.027C343.879 241.736 343.636 242.308 343.149 242.741C342.669 243.169 342.036 243.383 341.251 243.383C340.466 243.383 339.83 243.166 339.344 242.732C338.857 242.299 338.614 241.73 338.614 241.027H339.941C339.941 241.438 340.053 241.76 340.275 241.994C340.498 242.223 340.823 242.337 341.251 242.337C341.661 242.337 341.98 242.223 342.209 241.994C342.443 241.766 342.561 241.443 342.561 241.027H343.879ZM359.919 254H358.293V245.835H353.916V254H352.281V244.49H359.919V254ZM362.099 249.157C362.099 248.226 362.28 247.388 362.644 246.644C363.013 245.899 363.522 245.325 364.173 244.921C364.829 244.517 365.576 244.314 366.414 244.314C367.709 244.314 368.755 244.763 369.552 245.659C370.354 246.556 370.756 247.748 370.756 249.236V249.351C370.756 250.276 370.577 251.108 370.22 251.847C369.868 252.579 369.361 253.15 368.699 253.561C368.043 253.971 367.287 254.176 366.432 254.176C365.143 254.176 364.097 253.728 363.294 252.831C362.497 251.935 362.099 250.748 362.099 249.271V249.157ZM363.733 249.351C363.733 250.405 363.977 251.252 364.463 251.891C364.955 252.529 365.611 252.849 366.432 252.849C367.258 252.849 367.914 252.526 368.4 251.882C368.887 251.231 369.13 250.323 369.13 249.157C369.13 248.114 368.881 247.271 368.383 246.626C367.891 245.976 367.234 245.65 366.414 245.65C365.611 245.65 364.964 245.97 364.472 246.608C363.979 247.247 363.733 248.161 363.733 249.351ZM380.45 244.49V254H378.815V245.835H375.581L375.388 249.395C375.282 251.029 375.007 252.198 374.562 252.901C374.122 253.604 373.422 253.971 372.461 254H371.811V252.567L372.276 252.532C372.804 252.474 373.182 252.169 373.41 251.618C373.639 251.067 373.785 250.048 373.85 248.56L374.025 244.49H380.45ZM386.172 251.618L388.387 244.49H390.127L386.304 255.468C385.712 257.05 384.771 257.841 383.482 257.841L383.175 257.814L382.568 257.7V256.382L383.008 256.417C383.559 256.417 383.986 256.306 384.291 256.083C384.602 255.86 384.856 255.453 385.056 254.861L385.416 253.895L382.023 244.49H383.799L386.172 251.618ZM398.767 254H397.132V250.555C396.417 250.742 395.685 250.836 394.935 250.836C393.745 250.836 392.837 250.531 392.21 249.922C391.589 249.312 391.272 248.445 391.261 247.32V244.481H392.887V247.373C392.916 248.791 393.599 249.5 394.935 249.5C395.685 249.5 396.417 249.406 397.132 249.219V244.49H398.767V254ZM405.323 254.176C404.034 254.176 402.985 253.754 402.177 252.91C401.368 252.061 400.964 250.927 400.964 249.509V249.21C400.964 248.267 401.143 247.426 401.5 246.688C401.863 245.943 402.367 245.363 403.012 244.947C403.662 244.525 404.365 244.314 405.121 244.314C406.357 244.314 407.318 244.722 408.004 245.536C408.689 246.351 409.032 247.517 409.032 249.034V249.711H402.59C402.613 250.648 402.886 251.407 403.407 251.987C403.935 252.562 404.603 252.849 405.411 252.849C405.985 252.849 406.472 252.731 406.87 252.497C407.269 252.263 407.617 251.952 407.916 251.565L408.909 252.339C408.112 253.563 406.917 254.176 405.323 254.176ZM405.121 245.65C404.465 245.65 403.914 245.891 403.469 246.371C403.023 246.846 402.748 247.514 402.643 248.375H407.406V248.252C407.359 247.426 407.137 246.787 406.738 246.336C406.34 245.879 405.801 245.65 405.121 245.65ZM418.691 254H417.065V249.939H412.697V254H411.062V244.49H412.697V248.612H417.065V244.49H418.691V254ZM429.08 254H427.454V249.939H423.086V254H421.451V244.49H423.086V248.612H427.454V244.49H429.08V254ZM433.475 247.769H435.944C437.022 247.78 437.875 248.062 438.502 248.612C439.129 249.163 439.442 249.91 439.442 250.854C439.442 251.803 439.12 252.564 438.476 253.139C437.831 253.713 436.964 254 435.874 254H431.849V244.49H433.475V247.769ZM442.835 254H441.2V244.49H442.835V254ZM433.475 249.096V252.673H435.892C436.501 252.673 436.973 252.518 437.307 252.207C437.641 251.891 437.808 251.46 437.808 250.915C437.808 250.388 437.644 249.957 437.315 249.623C436.993 249.283 436.539 249.107 435.953 249.096H433.475ZM449.62 254.176C448.331 254.176 447.282 253.754 446.474 252.91C445.665 252.061 445.261 250.927 445.261 249.509V249.21C445.261 248.267 445.439 247.426 445.797 246.688C446.16 245.943 446.664 245.363 447.309 244.947C447.959 244.525 448.662 244.314 449.418 244.314C450.654 244.314 451.615 244.722 452.301 245.536C452.986 246.351 453.329 247.517 453.329 249.034V249.711H446.887C446.91 250.648 447.183 251.407 447.704 251.987C448.231 252.562 448.899 252.849 449.708 252.849C450.282 252.849 450.769 252.731 451.167 252.497C451.565 252.263 451.914 251.952 452.213 251.565L453.206 252.339C452.409 253.563 451.214 254.176 449.62 254.176ZM449.418 245.65C448.762 245.65 448.211 245.891 447.766 246.371C447.32 246.846 447.045 247.514 446.939 248.375H451.703V248.252C451.656 247.426 451.434 246.787 451.035 246.336C450.637 245.879 450.098 245.65 449.418 245.65ZM268.46 272.092C268.46 271.646 268.29 271.295 267.95 271.037C267.61 270.773 267.145 270.642 266.553 270.642C265.979 270.642 265.498 270.791 265.111 271.09C264.73 271.389 264.54 271.74 264.54 272.145H262.923C262.923 271.318 263.269 270.642 263.96 270.114C264.651 269.587 265.516 269.323 266.553 269.323C267.666 269.323 268.533 269.563 269.154 270.044C269.775 270.519 270.086 271.198 270.086 272.083C270.086 272.511 269.957 272.903 269.699 273.261C269.441 273.618 269.075 273.902 268.601 274.113C269.708 274.488 270.262 275.227 270.262 276.328C270.262 277.201 269.925 277.893 269.251 278.402C268.577 278.912 267.678 279.167 266.553 279.167C265.457 279.167 264.552 278.9 263.837 278.367C263.128 277.828 262.773 277.102 262.773 276.188H264.391C264.391 276.65 264.596 277.049 265.006 277.383C265.422 277.711 265.938 277.875 266.553 277.875C267.174 277.875 267.675 277.731 268.056 277.444C268.437 277.157 268.627 276.785 268.627 276.328C268.627 275.795 268.466 275.414 268.144 275.186C267.827 274.951 267.332 274.834 266.658 274.834H265.032V273.463H266.799C267.906 273.434 268.46 272.977 268.46 272.092ZM280.141 279H278.515V274.939H274.146V279H272.512V269.49H274.146V273.612H278.515V269.49H280.141V279ZM288.631 279C288.537 278.812 288.461 278.479 288.402 277.998C287.646 278.783 286.744 279.176 285.695 279.176C284.758 279.176 283.987 278.912 283.384 278.385C282.786 277.852 282.487 277.178 282.487 276.363C282.487 275.373 282.862 274.605 283.612 274.061C284.368 273.51 285.429 273.234 286.794 273.234H288.376V272.487C288.376 271.919 288.206 271.468 287.866 271.134C287.526 270.794 287.025 270.624 286.363 270.624C285.783 270.624 285.297 270.771 284.904 271.063C284.512 271.356 284.315 271.711 284.315 272.127H282.681C282.681 271.652 282.848 271.195 283.182 270.756C283.521 270.311 283.979 269.959 284.553 269.701C285.133 269.443 285.769 269.314 286.46 269.314C287.556 269.314 288.414 269.59 289.035 270.141C289.656 270.686 289.979 271.438 290.002 272.399V276.776C290.002 277.649 290.113 278.344 290.336 278.859V279H288.631ZM285.933 277.761C286.442 277.761 286.926 277.629 287.383 277.365C287.84 277.102 288.171 276.759 288.376 276.337V274.386H287.102C285.109 274.386 284.113 274.969 284.113 276.135C284.113 276.645 284.283 277.043 284.623 277.33C284.963 277.617 285.399 277.761 285.933 277.761ZM300.32 279H298.694V274.939H294.326V279H292.691V269.49H294.326V273.612H298.694V269.49H300.32V279ZM309.092 269.49H310.718V279H309.092V272.065L304.706 279H303.08V269.49H304.706V276.434L309.092 269.49ZM320.597 269.49V279H318.962V275.3H316.51L314.269 279H312.511L314.901 275.054C314.292 274.831 313.823 274.488 313.495 274.025C313.173 273.557 313.012 273.012 313.012 272.391C313.012 271.523 313.337 270.826 313.987 270.299C314.638 269.766 315.508 269.496 316.598 269.49H320.597ZM314.646 272.408C314.646 272.871 314.805 273.246 315.121 273.533C315.438 273.814 315.856 273.958 316.378 273.964H318.962V270.809H316.624C316.021 270.809 315.54 270.958 315.183 271.257C314.825 271.55 314.646 271.934 314.646 272.408ZM335.441 279H333.815V274.939H329.447V279H327.812V269.49H329.447V273.612H333.815V269.49H335.441V279ZM343.932 279C343.838 278.812 343.762 278.479 343.703 277.998C342.947 278.783 342.045 279.176 340.996 279.176C340.059 279.176 339.288 278.912 338.685 278.385C338.087 277.852 337.788 277.178 337.788 276.363C337.788 275.373 338.163 274.605 338.913 274.061C339.669 273.51 340.729 273.234 342.095 273.234H343.677V272.487C343.677 271.919 343.507 271.468 343.167 271.134C342.827 270.794 342.326 270.624 341.664 270.624C341.084 270.624 340.598 270.771 340.205 271.063C339.812 271.356 339.616 271.711 339.616 272.127H337.981C337.981 271.652 338.148 271.195 338.482 270.756C338.822 270.311 339.279 269.959 339.854 269.701C340.434 269.443 341.069 269.314 341.761 269.314C342.856 269.314 343.715 269.59 344.336 270.141C344.957 270.686 345.279 271.438 345.303 272.399V276.776C345.303 277.649 345.414 278.344 345.637 278.859V279H343.932ZM341.233 277.761C341.743 277.761 342.227 277.629 342.684 277.365C343.141 277.102 343.472 276.759 343.677 276.337V274.386H342.402C340.41 274.386 339.414 274.969 339.414 276.135C339.414 276.645 339.584 277.043 339.924 277.33C340.264 277.617 340.7 277.761 341.233 277.761ZM360.095 279H358.469V270.835H354.092V279H352.457V269.49H360.095V279ZM370.738 274.351C370.738 275.798 370.407 276.964 369.745 277.849C369.083 278.733 368.187 279.176 367.056 279.176C365.901 279.176 364.993 278.81 364.331 278.077V282.656H362.705V269.49H364.19L364.27 270.545C364.932 269.725 365.852 269.314 367.029 269.314C368.172 269.314 369.074 269.745 369.736 270.606C370.404 271.468 370.738 272.666 370.738 274.201V274.351ZM369.112 274.166C369.112 273.094 368.884 272.247 368.427 271.626C367.97 271.005 367.343 270.694 366.546 270.694C365.562 270.694 364.823 271.131 364.331 272.004V276.548C364.817 277.415 365.562 277.849 366.563 277.849C367.343 277.849 367.961 277.541 368.418 276.926C368.881 276.305 369.112 275.385 369.112 274.166ZM378.684 279C378.59 278.812 378.514 278.479 378.455 277.998C377.699 278.783 376.797 279.176 375.748 279.176C374.811 279.176 374.04 278.912 373.437 278.385C372.839 277.852 372.54 277.178 372.54 276.363C372.54 275.373 372.915 274.605 373.665 274.061C374.421 273.51 375.481 273.234 376.847 273.234H378.429V272.487C378.429 271.919 378.259 271.468 377.919 271.134C377.579 270.794 377.078 270.624 376.416 270.624C375.836 270.624 375.35 270.771 374.957 271.063C374.564 271.356 374.368 271.711 374.368 272.127H372.733C372.733 271.652 372.9 271.195 373.234 270.756C373.574 270.311 374.031 269.959 374.605 269.701C375.186 269.443 375.821 269.314 376.513 269.314C377.608 269.314 378.467 269.59 379.088 270.141C379.709 270.686 380.031 271.438 380.055 272.399V276.776C380.055 277.649 380.166 278.344 380.389 278.859V279H378.684ZM375.985 277.761C376.495 277.761 376.979 277.629 377.436 277.365C377.893 277.102 378.224 276.759 378.429 276.337V274.386H377.154C375.162 274.386 374.166 274.969 374.166 276.135C374.166 276.645 374.336 277.043 374.676 277.33C375.016 277.617 375.452 277.761 375.985 277.761ZM385.565 274.948H384.379V279H382.744V269.49H384.379V273.516H385.442L388.642 269.49H390.61L386.849 274.061L390.927 279H388.861L385.565 274.948ZM399.391 270.809H396.2V279H394.574V270.809H391.445V269.49H399.391V270.809ZM407.125 269.49H408.751V279H407.125V272.065L402.739 279H401.113V269.49H402.739V276.434L407.125 269.49ZM414.323 274.948H413.137V279H411.502V269.49H413.137V273.516H414.2L417.399 269.49H419.368L415.606 274.061L419.685 279H417.619L414.323 274.948ZM424.888 279.176C423.599 279.176 422.55 278.754 421.741 277.91C420.933 277.061 420.528 275.927 420.528 274.509V274.21C420.528 273.267 420.707 272.426 421.064 271.688C421.428 270.943 421.932 270.363 422.576 269.947C423.227 269.525 423.93 269.314 424.686 269.314C425.922 269.314 426.883 269.722 427.568 270.536C428.254 271.351 428.597 272.517 428.597 274.034V274.711H422.154C422.178 275.648 422.45 276.407 422.972 276.987C423.499 277.562 424.167 277.849 424.976 277.849C425.55 277.849 426.036 277.731 426.435 277.497C426.833 277.263 427.182 276.952 427.48 276.565L428.474 277.339C427.677 278.563 426.481 279.176 424.888 279.176ZM424.686 270.65C424.029 270.65 423.479 270.891 423.033 271.371C422.588 271.846 422.312 272.514 422.207 273.375H426.971V273.252C426.924 272.426 426.701 271.787 426.303 271.336C425.904 270.879 425.365 270.65 424.686 270.65ZM269.383 294.49H271.009V304H269.383V297.065L264.997 304H263.371V294.49H264.997V301.434L269.383 294.49ZM285.15 295.809H281.96V304H280.334V295.809H277.205V294.49H285.15V295.809ZM286.882 304V294.49H290.591C291.856 294.49 292.826 294.713 293.5 295.158C294.18 295.598 294.52 296.245 294.52 297.101C294.52 297.54 294.388 297.938 294.124 298.296C293.86 298.647 293.471 298.917 292.955 299.104C293.529 299.239 293.989 299.503 294.335 299.896C294.687 300.288 294.862 300.757 294.862 301.302C294.862 302.175 294.54 302.843 293.896 303.306C293.257 303.769 292.352 304 291.18 304H286.882ZM288.508 299.825V302.69H291.197C291.877 302.69 292.384 302.564 292.718 302.312C293.058 302.061 293.228 301.706 293.228 301.249C293.228 300.3 292.53 299.825 291.136 299.825H288.508ZM288.508 298.524H290.608C292.132 298.524 292.894 298.079 292.894 297.188C292.894 296.298 292.173 295.838 290.731 295.809H288.508V298.524ZM296.585 299.157C296.585 298.226 296.767 297.388 297.13 296.644C297.499 295.899 298.009 295.325 298.659 294.921C299.315 294.517 300.062 294.314 300.9 294.314C302.195 294.314 303.241 294.763 304.038 295.659C304.841 296.556 305.242 297.748 305.242 299.236V299.351C305.242 300.276 305.063 301.108 304.706 301.847C304.354 302.579 303.848 303.15 303.186 303.561C302.529 303.971 301.773 304.176 300.918 304.176C299.629 304.176 298.583 303.728 297.78 302.831C296.983 301.935 296.585 300.748 296.585 299.271V299.157ZM298.22 299.351C298.22 300.405 298.463 301.252 298.949 301.891C299.441 302.529 300.098 302.849 300.918 302.849C301.744 302.849 302.4 302.526 302.887 301.882C303.373 301.231 303.616 300.323 303.616 299.157C303.616 298.114 303.367 297.271 302.869 296.626C302.377 295.976 301.721 295.65 300.9 295.65C300.098 295.65 299.45 295.97 298.958 296.608C298.466 297.247 298.22 298.161 298.22 299.351ZM314.55 294.49V304H312.915V300.3H310.463L308.222 304H306.464L308.854 300.054C308.245 299.831 307.776 299.488 307.448 299.025C307.126 298.557 306.965 298.012 306.965 297.391C306.965 296.523 307.29 295.826 307.94 295.299C308.591 294.766 309.461 294.496 310.551 294.49H314.55ZM308.6 297.408C308.6 297.871 308.758 298.246 309.074 298.533C309.391 298.814 309.81 298.958 310.331 298.964H312.915V295.809H310.577C309.974 295.809 309.493 295.958 309.136 296.257C308.778 296.55 308.6 296.934 308.6 297.408ZM329.21 299.869H328.067V304H326.441V299.869H325.299L322.636 304H320.579L323.98 299.078L320.904 294.49H322.873L325.325 298.428H326.441V294.49H328.067V298.428H329.175L331.645 294.49H333.613L330.528 299.087L333.93 304H331.873L329.21 299.869ZM341.559 294.49H343.185V304H341.559V297.065L337.173 304H335.547V294.49H337.173V301.434L341.559 294.49ZM351.024 297.092C351.024 296.646 350.854 296.295 350.515 296.037C350.175 295.773 349.709 295.642 349.117 295.642C348.543 295.642 348.062 295.791 347.676 296.09C347.295 296.389 347.104 296.74 347.104 297.145H345.487C345.487 296.318 345.833 295.642 346.524 295.114C347.216 294.587 348.08 294.323 349.117 294.323C350.23 294.323 351.098 294.563 351.719 295.044C352.34 295.519 352.65 296.198 352.65 297.083C352.65 297.511 352.521 297.903 352.264 298.261C352.006 298.618 351.64 298.902 351.165 299.113C352.272 299.488 352.826 300.227 352.826 301.328C352.826 302.201 352.489 302.893 351.815 303.402C351.142 303.912 350.242 304.167 349.117 304.167C348.021 304.167 347.116 303.9 346.401 303.367C345.692 302.828 345.338 302.102 345.338 301.188H346.955C346.955 301.65 347.16 302.049 347.57 302.383C347.986 302.711 348.502 302.875 349.117 302.875C349.738 302.875 350.239 302.731 350.62 302.444C351.001 302.157 351.191 301.785 351.191 301.328C351.191 300.795 351.03 300.414 350.708 300.186C350.392 299.951 349.896 299.834 349.223 299.834H347.597V298.463H349.363C350.471 298.434 351.024 297.977 351.024 297.092ZM362.705 304H361.079V299.939H356.711V304H355.076V294.49H356.711V298.612H361.079V294.49H362.705V304ZM367.1 297.769H369.569C370.647 297.78 371.5 298.062 372.127 298.612C372.754 299.163 373.067 299.91 373.067 300.854C373.067 301.803 372.745 302.564 372.101 303.139C371.456 303.713 370.589 304 369.499 304H365.474V294.49H367.1V297.769ZM367.1 299.096V302.673H369.517C370.126 302.673 370.598 302.518 370.932 302.207C371.266 301.891 371.433 301.46 371.433 300.915C371.433 300.388 371.269 299.957 370.94 299.623C370.618 299.283 370.164 299.107 369.578 299.096H367.1ZM387.332 304H385.706V299.939H381.338V304H379.703V294.49H381.338V298.612H385.706V294.49H387.332V304ZM393.897 304.176C392.608 304.176 391.56 303.754 390.751 302.91C389.942 302.061 389.538 300.927 389.538 299.509V299.21C389.538 298.267 389.717 297.426 390.074 296.688C390.438 295.943 390.941 295.363 391.586 294.947C392.236 294.525 392.939 294.314 393.695 294.314C394.932 294.314 395.893 294.722 396.578 295.536C397.264 296.351 397.606 297.517 397.606 299.034V299.711H391.164C391.188 300.648 391.46 301.407 391.981 301.987C392.509 302.562 393.177 302.849 393.985 302.849C394.56 302.849 395.046 302.731 395.444 302.497C395.843 302.263 396.191 301.952 396.49 301.565L397.483 302.339C396.687 303.563 395.491 304.176 393.897 304.176ZM393.695 295.65C393.039 295.65 392.488 295.891 392.043 296.371C391.598 296.846 391.322 297.514 391.217 298.375H395.98V298.252C395.934 297.426 395.711 296.787 395.312 296.336C394.914 295.879 394.375 295.65 393.695 295.65ZM407.274 304H405.648V295.835H401.271V304H399.637V294.49H407.274V304ZM417.918 299.351C417.918 300.798 417.587 301.964 416.925 302.849C416.263 303.733 415.366 304.176 414.235 304.176C413.081 304.176 412.173 303.81 411.511 303.077V307.656H409.885V294.49H411.37L411.449 295.545C412.111 294.725 413.031 294.314 414.209 294.314C415.352 294.314 416.254 294.745 416.916 295.606C417.584 296.468 417.918 297.666 417.918 299.201V299.351ZM416.292 299.166C416.292 298.094 416.063 297.247 415.606 296.626C415.149 296.005 414.522 295.694 413.726 295.694C412.741 295.694 412.003 296.131 411.511 297.004V301.548C411.997 302.415 412.741 302.849 413.743 302.849C414.522 302.849 415.141 302.541 415.598 301.926C416.061 301.305 416.292 300.385 416.292 299.166ZM423.938 304.176C422.649 304.176 421.601 303.754 420.792 302.91C419.983 302.061 419.579 300.927 419.579 299.509V299.21C419.579 298.267 419.758 297.426 420.115 296.688C420.479 295.943 420.982 295.363 421.627 294.947C422.277 294.525 422.98 294.314 423.736 294.314C424.973 294.314 425.934 294.722 426.619 295.536C427.305 296.351 427.647 297.517 427.647 299.034V299.711H421.205C421.229 300.648 421.501 301.407 422.022 301.987C422.55 302.562 423.218 302.849 424.026 302.849C424.601 302.849 425.087 302.731 425.485 302.497C425.884 302.263 426.232 301.952 426.531 301.565L427.524 302.339C426.728 303.563 425.532 304.176 423.938 304.176ZM423.736 295.65C423.08 295.65 422.529 295.891 422.084 296.371C421.639 296.846 421.363 297.514 421.258 298.375H426.021V298.252C425.975 297.426 425.752 296.787 425.354 296.336C424.955 295.879 424.416 295.65 423.736 295.65ZM435.013 301.847L438.247 294.49H440.277V304H438.651V297.083L435.575 304H434.45L431.312 296.934V304H429.687V294.49H431.796L435.013 301.847ZM446.843 304.176C445.554 304.176 444.505 303.754 443.696 302.91C442.888 302.061 442.483 300.927 442.483 299.509V299.21C442.483 298.267 442.662 297.426 443.02 296.688C443.383 295.943 443.887 295.363 444.531 294.947C445.182 294.525 445.885 294.314 446.641 294.314C447.877 294.314 448.838 294.722 449.523 295.536C450.209 296.351 450.552 297.517 450.552 299.034V299.711H444.109C444.133 300.648 444.405 301.407 444.927 301.987C445.454 302.562 446.122 302.849 446.931 302.849C447.505 302.849 447.991 302.731 448.39 302.497C448.788 302.263 449.137 301.952 449.436 301.565L450.429 302.339C449.632 303.563 448.437 304.176 446.843 304.176ZM446.641 295.65C445.984 295.65 445.434 295.891 444.988 296.371C444.543 296.846 444.268 297.514 444.162 298.375H448.926V298.252C448.879 297.426 448.656 296.787 448.258 296.336C447.859 295.879 447.32 295.65 446.641 295.65ZM460.211 304H458.585V299.939H454.217V304H452.582V294.49H454.217V298.612H458.585V294.49H460.211V304ZM470.6 304H468.974V299.939H464.605V304H462.971V294.49H464.605V298.612H468.974V294.49H470.6V304ZM472.788 299.157C472.788 298.226 472.97 297.388 473.333 296.644C473.702 295.899 474.212 295.325 474.862 294.921C475.519 294.517 476.266 294.314 477.104 294.314C478.398 294.314 479.444 294.763 480.241 295.659C481.044 296.556 481.445 297.748 481.445 299.236V299.351C481.445 300.276 481.267 301.108 480.909 301.847C480.558 302.579 480.051 303.15 479.389 303.561C478.732 303.971 477.977 304.176 477.121 304.176C475.832 304.176 474.786 303.728 473.983 302.831C473.187 301.935 472.788 300.748 472.788 299.271V299.157ZM474.423 299.351C474.423 300.405 474.666 301.252 475.152 301.891C475.645 302.529 476.301 302.849 477.121 302.849C477.947 302.849 478.604 302.526 479.09 301.882C479.576 301.231 479.819 300.323 479.819 299.157C479.819 298.114 479.57 297.271 479.072 296.626C478.58 295.976 477.924 295.65 477.104 295.65C476.301 295.65 475.653 295.97 475.161 296.608C474.669 297.247 474.423 298.161 474.423 299.351ZM269.383 319.49H271.009V329H269.383V322.065L264.997 329H263.371V319.49H264.997V326.434L269.383 319.49ZM278.849 322.092C278.849 321.646 278.679 321.295 278.339 321.037C277.999 320.773 277.533 320.642 276.941 320.642C276.367 320.642 275.887 320.791 275.5 321.09C275.119 321.389 274.929 321.74 274.929 322.145H273.312C273.312 321.318 273.657 320.642 274.349 320.114C275.04 319.587 275.904 319.323 276.941 319.323C278.055 319.323 278.922 319.563 279.543 320.044C280.164 320.519 280.475 321.198 280.475 322.083C280.475 322.511 280.346 322.903 280.088 323.261C279.83 323.618 279.464 323.902 278.989 324.113C280.097 324.488 280.65 325.227 280.65 326.328C280.65 327.201 280.313 327.893 279.64 328.402C278.966 328.912 278.066 329.167 276.941 329.167C275.846 329.167 274.94 328.9 274.226 328.367C273.517 327.828 273.162 327.102 273.162 326.188H274.779C274.779 326.65 274.984 327.049 275.395 327.383C275.811 327.711 276.326 327.875 276.941 327.875C277.562 327.875 278.063 327.731 278.444 327.444C278.825 327.157 279.016 326.785 279.016 326.328C279.016 325.795 278.854 325.414 278.532 325.186C278.216 324.951 277.721 324.834 277.047 324.834H275.421V323.463H277.188C278.295 323.434 278.849 322.977 278.849 322.092ZM288.235 326.847L291.47 319.49H293.5V329H291.874V322.083L288.798 329H287.673L284.535 321.934V329H282.909V319.49H285.019L288.235 326.847ZM300.065 329.176C298.776 329.176 297.728 328.754 296.919 327.91C296.11 327.061 295.706 325.927 295.706 324.509V324.21C295.706 323.267 295.885 322.426 296.242 321.688C296.605 320.943 297.109 320.363 297.754 319.947C298.404 319.525 299.107 319.314 299.863 319.314C301.1 319.314 302.061 319.722 302.746 320.536C303.432 321.351 303.774 322.517 303.774 324.034V324.711H297.332C297.355 325.648 297.628 326.407 298.149 326.987C298.677 327.562 299.345 327.849 300.153 327.849C300.728 327.849 301.214 327.731 301.612 327.497C302.011 327.263 302.359 326.952 302.658 326.565L303.651 327.339C302.854 328.563 301.659 329.176 300.065 329.176ZM299.863 320.65C299.207 320.65 298.656 320.891 298.211 321.371C297.766 321.846 297.49 322.514 297.385 323.375H302.148V323.252C302.102 322.426 301.879 321.787 301.48 321.336C301.082 320.879 300.543 320.65 299.863 320.65ZM313.434 329H311.808V324.939H307.439V329H305.805V319.49H307.439V323.612H311.808V319.49H313.434V329ZM322.205 319.49H323.831V329H322.205V322.065L317.819 329H316.193V319.49H317.819V326.434L322.205 319.49ZM333.508 320.809H330.317V329H328.691V320.809H325.562V319.49H333.508V320.809ZM338.201 327.849C338.781 327.849 339.288 327.673 339.722 327.321C340.155 326.97 340.396 326.53 340.442 326.003H341.98C341.951 326.548 341.764 327.066 341.418 327.559C341.072 328.051 340.609 328.443 340.029 328.736C339.455 329.029 338.846 329.176 338.201 329.176C336.906 329.176 335.875 328.745 335.107 327.884C334.346 327.017 333.965 325.833 333.965 324.333V324.061C333.965 323.135 334.135 322.312 334.475 321.591C334.814 320.87 335.301 320.311 335.934 319.912C336.572 319.514 337.325 319.314 338.192 319.314C339.259 319.314 340.144 319.634 340.847 320.272C341.556 320.911 341.934 321.74 341.98 322.76H340.442C340.396 322.145 340.161 321.641 339.739 321.248C339.323 320.85 338.808 320.65 338.192 320.65C337.366 320.65 336.725 320.949 336.268 321.547C335.816 322.139 335.591 322.997 335.591 324.122V324.43C335.591 325.525 335.816 326.369 336.268 326.961C336.719 327.553 337.363 327.849 338.201 327.849ZM351.077 319.49V329H349.442V325.3H346.99L344.749 329H342.991L345.382 325.054C344.772 324.831 344.304 324.488 343.976 324.025C343.653 323.557 343.492 323.012 343.492 322.391C343.492 321.523 343.817 320.826 344.468 320.299C345.118 319.766 345.988 319.496 347.078 319.49H351.077ZM345.127 322.408C345.127 322.871 345.285 323.246 345.602 323.533C345.918 323.814 346.337 323.958 346.858 323.964H349.442V320.809H347.104C346.501 320.809 346.021 320.958 345.663 321.257C345.306 321.55 345.127 321.934 345.127 322.408ZM361.114 324.948H359.928V329H358.293V319.49H359.928V323.516H360.991L364.19 319.49H366.159L362.397 324.061L366.476 329H364.41L361.114 324.948ZM380.134 319.49V329H378.499V320.835H375.265L375.071 324.395C374.966 326.029 374.69 327.198 374.245 327.901C373.806 328.604 373.105 328.971 372.145 329H371.494V327.567L371.96 327.532C372.487 327.474 372.865 327.169 373.094 326.618C373.322 326.067 373.469 325.048 373.533 323.56L373.709 319.49H380.134ZM385.855 326.618L388.07 319.49H389.811L385.987 330.468C385.396 332.05 384.455 332.841 383.166 332.841L382.858 332.814L382.252 332.7V331.382L382.691 331.417C383.242 331.417 383.67 331.306 383.975 331.083C384.285 330.86 384.54 330.453 384.739 329.861L385.1 328.895L381.707 319.49H383.482L385.855 326.618ZM398.45 329H396.815V325.555C396.101 325.742 395.368 325.836 394.618 325.836C393.429 325.836 392.521 325.531 391.894 324.922C391.272 324.312 390.956 323.445 390.944 322.32V319.481H392.57V322.373C392.6 323.791 393.282 324.5 394.618 324.5C395.368 324.5 396.101 324.406 396.815 324.219V319.49H398.45V329ZM402.836 319.49V327.673H406.316V319.49H407.942V327.673H411.414V319.49H413.049V329H401.201V319.49H402.836ZM419.562 329.176C418.272 329.176 417.224 328.754 416.415 327.91C415.606 327.061 415.202 325.927 415.202 324.509V324.21C415.202 323.267 415.381 322.426 415.738 321.688C416.102 320.943 416.605 320.363 417.25 319.947C417.9 319.525 418.604 319.314 419.359 319.314C420.596 319.314 421.557 319.722 422.242 320.536C422.928 321.351 423.271 322.517 423.271 324.034V324.711H416.828C416.852 325.648 417.124 326.407 417.646 326.987C418.173 327.562 418.841 327.849 419.649 327.849C420.224 327.849 420.71 327.731 421.108 327.497C421.507 327.263 421.855 326.952 422.154 326.565L423.147 327.339C422.351 328.563 421.155 329.176 419.562 329.176ZM419.359 320.65C418.703 320.65 418.152 320.891 417.707 321.371C417.262 321.846 416.986 322.514 416.881 323.375H421.645V323.252C421.598 322.426 421.375 321.787 420.977 321.336C420.578 320.879 420.039 320.65 419.359 320.65ZM430.636 326.847L433.87 319.49H435.9V329H434.274V322.083L431.198 329H430.073L426.936 321.934V329H425.31V319.49H427.419L430.636 326.847Z" fill="#1B404E"/>
<rect x="263" y="47" width="140" height="140" rx="25" fill="#EEEEEE"/>
<path d="M329.2 47.75C326.7 51.05 323.217 52.7 318.75 52.7C314.283 52.7 310.783 51.05 308.25 47.75C305.75 44.4167 304.5 40 304.5 34.5C304.5 29 305.75 24.6 308.25 21.3C310.783 17.9667 314.283 16.3 318.75 16.3C323.217 16.3 326.7 17.9667 329.2 21.3C331.733 24.6 333 29 333 34.5C333 40 331.733 44.4167 329.2 47.75ZM312.5 34.5C312.5 41.4333 314.583 44.9 318.75 44.9C322.917 44.9 325 41.4333 325 34.5C325 27.5667 322.917 24.1 318.75 24.1C314.583 24.1 312.5 27.5667 312.5 34.5ZM334.618 52L334.618 46.2L346.368 34C348.734 31.5667 349.918 29.5 349.918 27.8C349.918 26.7 349.584 25.8167 348.918 25.15C348.251 24.45 347.334 24.1 346.168 24.1C343.834 24.1 342.118 25.3667 341.018 27.9L334.268 23.95C335.334 21.45 336.934 19.55 339.068 18.25C341.201 16.95 343.534 16.3 346.068 16.3C349.334 16.3 352.118 17.3167 354.418 19.35C356.751 21.35 357.918 24.05 357.918 27.45C357.918 31.15 356.101 34.8167 352.468 38.45L346.668 44.3L358.418 44.3L358.418 52L334.618 52Z" fill="#EEEEEE"/>
<path fill-rule="evenodd" clip-rule="evenodd" d="M319.799 105.72L320.417 108.192C322.19 115.28 327.723 120.81 334.808 122.583L337.28 123.201L352.594 107.888C360.772 99.7094 365.826 88.9227 366.871 77.4018L367 76L365.598 76.1286C354.077 77.1768 343.291 82.2277 335.11 90.4086L319.799 105.72Z" stroke="#1B404E" stroke-width="3" stroke-linecap="round" stroke-linejoin="round"/>
<path d="M347.564 81.3481C348.253 83.8204 349.814 86.7872 353.015 89.9864C356.11 93.0842 358.988 94.6442 361.416 95.3686" stroke="#1B404E" stroke-width="3" stroke-linecap="round" stroke-linejoin="round"/>
<path d="M331.313 111.688L313.532 129.468" stroke="#1B404E" stroke-width="3" stroke-linecap="round" stroke-linejoin="round"/>
<path fill-rule="evenodd" clip-rule="evenodd" d="M330.157 95.3609L322.909 94.4881C317.635 93.8527 312.362 95.6748 308.604 99.4327L297.073 110.966C297.073 110.966 311.059 107.468 319.799 105.72L330.157 95.3609Z" stroke="#1B404E" stroke-width="3" stroke-linecap="round" stroke-linejoin="round"/>
<path fill-rule="evenodd" clip-rule="evenodd" d="M347.639 112.843L348.514 120.092C349.147 125.365 347.325 130.638 343.569 134.396L332.036 145.927C332.036 145.927 335.534 131.941 337.282 123.202L347.639 112.843Z" stroke="#1B404E" stroke-width="3" stroke-linecap="round" stroke-linejoin="round"/>
<path fill-rule="evenodd" clip-rule="evenodd" d="M346.021 103.972C344.093 105.903 340.96 105.903 339.029 103.972C337.099 102.041 337.099 98.9109 339.029 96.9775C340.96 95.0492 344.093 95.0492 346.021 96.9775C347.952 98.9109 347.952 102.041 346.021 103.972Z" stroke="#1B404E" stroke-width="3" stroke-linecap="round" stroke-linejoin="round"/>
<path d="M329.14 128.695C329.14 128.695 321.723 146.001 297 146.001C297 121.278 314.306 113.861 314.306 113.861" stroke="#FFC40E" stroke-width="3" stroke-linecap="round" stroke-linejoin="round"/>
<path d="M1.48535 229V216.203H5.66895C7.05762 216.203 8.10059 216.49 8.79785 217.064C9.50098 217.639 9.85254 218.488 9.85254 219.613C9.85254 220.211 9.68262 220.741 9.34277 221.204C9.00293 221.661 8.54004 222.016 7.9541 222.268C8.64551 222.461 9.19043 222.83 9.58887 223.375C9.99316 223.914 10.1953 224.559 10.1953 225.309C10.1953 226.457 9.82324 227.359 9.0791 228.016C8.33496 228.672 7.2832 229 5.92383 229H1.48535ZM3.17285 223.015V227.62H5.95898C6.74414 227.62 7.3623 227.418 7.81348 227.014C8.27051 226.604 8.49902 226.041 8.49902 225.326C8.49902 223.785 7.66113 223.015 5.98535 223.015H3.17285ZM3.17285 221.661H5.72168C6.45996 221.661 7.04883 221.477 7.48828 221.107C7.93359 220.738 8.15625 220.237 8.15625 219.604C8.15625 218.901 7.95117 218.392 7.54102 218.075C7.13086 217.753 6.50684 217.592 5.66895 217.592H3.17285V221.661ZM14.2207 222.769H16.6904C17.7686 222.78 18.6211 223.062 19.248 223.612C19.875 224.163 20.1885 224.91 20.1885 225.854C20.1885 226.803 19.8662 227.564 19.2217 228.139C18.5771 228.713 17.71 229 16.6201 229H12.5947V219.49H14.2207V222.769ZM23.5811 229H21.9463V219.49H23.5811V229ZM14.2207 224.096V227.673H16.6377C17.2471 227.673 17.7188 227.518 18.0527 227.207C18.3867 226.891 18.5537 226.46 18.5537 225.915C18.5537 225.388 18.3896 224.957 18.0615 224.623C17.7393 224.283 17.2852 224.107 16.6992 224.096H14.2207ZM30.5947 220.035C31.79 220.035 32.7451 220.437 33.46 221.239C34.1807 222.036 34.541 223.088 34.541 224.395V224.544C34.541 225.44 34.3682 226.243 34.0225 226.952C33.6768 227.655 33.1787 228.203 32.5283 228.596C31.8838 228.982 31.1396 229.176 30.2959 229.176C29.0186 229.176 27.9902 228.751 27.2109 227.901C26.4316 227.046 26.042 225.9 26.042 224.465V223.674C26.042 221.676 26.4111 220.088 27.1494 218.91C27.8936 217.732 28.9893 217.015 30.4365 216.757C31.2568 216.61 31.8105 216.432 32.0977 216.221C32.3848 216.01 32.5283 215.72 32.5283 215.351H33.8643C33.8643 216.083 33.6973 216.654 33.3633 217.064C33.0352 217.475 32.5078 217.765 31.7812 217.935L30.5684 218.207C29.6016 218.436 28.875 218.822 28.3887 219.367C27.9082 219.906 27.5947 220.627 27.4482 221.529C28.3096 220.533 29.3584 220.035 30.5947 220.035ZM30.2783 221.371C29.4814 221.371 28.8486 221.641 28.3799 222.18C27.9111 222.713 27.6768 223.454 27.6768 224.403V224.544C27.6768 225.563 27.9111 226.372 28.3799 226.97C28.8545 227.562 29.4932 227.857 30.2959 227.857C31.1045 227.857 31.7432 227.559 32.2119 226.961C32.6807 226.363 32.915 225.49 32.915 224.342C32.915 223.445 32.6777 222.728 32.2031 222.188C31.7344 221.644 31.0928 221.371 30.2783 221.371ZM40.3154 229.176C39.0264 229.176 37.9775 228.754 37.1689 227.91C36.3604 227.061 35.9561 225.927 35.9561 224.509V224.21C35.9561 223.267 36.1348 222.426 36.4922 221.688C36.8555 220.943 37.3594 220.363 38.0039 219.947C38.6543 219.525 39.3574 219.314 40.1133 219.314C41.3496 219.314 42.3105 219.722 42.9961 220.536C43.6816 221.351 44.0244 222.517 44.0244 224.034V224.711H37.582C37.6055 225.648 37.8779 226.407 38.3994 226.987C38.9268 227.562 39.5947 227.849 40.4033 227.849C40.9775 227.849 41.4639 227.731 41.8623 227.497C42.2607 227.263 42.6094 226.952 42.9082 226.565L43.9014 227.339C43.1045 228.563 41.9092 229.176 40.3154 229.176ZM40.1133 220.65C39.457 220.65 38.9062 220.891 38.4609 221.371C38.0156 221.846 37.7402 222.514 37.6348 223.375H42.3984V223.252C42.3516 222.426 42.1289 221.787 41.7305 221.336C41.332 220.879 40.793 220.65 40.1133 220.65ZM53.9473 224.351C53.9473 225.798 53.6162 226.964 52.9541 227.849C52.292 228.733 51.3955 229.176 50.2646 229.176C49.1104 229.176 48.2021 228.81 47.54 228.077V232.656H45.9141V219.49H47.3994L47.4785 220.545C48.1406 219.725 49.0605 219.314 50.2383 219.314C51.3809 219.314 52.2832 219.745 52.9453 220.606C53.6133 221.468 53.9473 222.666 53.9473 224.201V224.351ZM52.3213 224.166C52.3213 223.094 52.0928 222.247 51.6357 221.626C51.1787 221.005 50.5518 220.694 49.7549 220.694C48.7705 220.694 48.0322 221.131 47.54 222.004V226.548C48.0264 227.415 48.7705 227.849 49.7725 227.849C50.5518 227.849 51.1699 227.541 51.627 226.926C52.0898 226.305 52.3213 225.385 52.3213 224.166ZM62.1738 219.49H63.7998V229H62.1738V222.065L57.7881 229H56.1621V219.49H57.7881V226.434L62.1738 219.49ZM9.00879 254H7.38281V245.835H3.00586V254H1.37109V244.49H9.00879V254ZM11.1885 249.157C11.1885 248.226 11.3701 247.388 11.7334 246.644C12.1025 245.899 12.6123 245.325 13.2627 244.921C13.9189 244.517 14.666 244.314 15.5039 244.314C16.7988 244.314 17.8447 244.763 18.6416 245.659C19.4443 246.556 19.8457 247.748 19.8457 249.236V249.351C19.8457 250.276 19.667 251.108 19.3096 251.847C18.958 252.579 18.4512 253.15 17.7891 253.561C17.1328 253.971 16.377 254.176 15.5215 254.176C14.2324 254.176 13.1865 253.728 12.3838 252.831C11.5869 251.935 11.1885 250.748 11.1885 249.271V249.157ZM12.8232 249.351C12.8232 250.405 13.0664 251.252 13.5527 251.891C14.0449 252.529 14.7012 252.849 15.5215 252.849C16.3477 252.849 17.0039 252.526 17.4902 251.882C17.9766 251.231 18.2197 250.323 18.2197 249.157C18.2197 248.114 17.9707 247.271 17.4727 246.626C16.9805 245.976 16.3242 245.65 15.5039 245.65C14.7012 245.65 14.0537 245.97 13.5615 246.608C13.0693 247.247 12.8232 248.161 12.8232 249.351ZM21.1729 252.673L21.7354 251.979C22.3682 251.158 22.7285 249.928 22.8164 248.287L22.9658 244.49H29.0918V252.673H30.3135V256.795H28.6875V254H22.0518V256.795H20.4258L20.4346 252.673H21.1729ZM23.0977 252.673H27.4658V245.993H24.5391L24.4424 248.261C24.3428 250.153 23.8945 251.624 23.0977 252.673ZM35.3057 247.962L37.415 244.49H39.3135L36.2021 249.192L39.4102 254H37.5293L35.332 250.44L33.1348 254H31.2451L34.4531 249.192L31.3418 244.49H33.2227L35.3057 247.962ZM40.4385 249.157C40.4385 248.226 40.6201 247.388 40.9834 246.644C41.3525 245.899 41.8623 245.325 42.5127 244.921C43.1689 244.517 43.916 244.314 44.7539 244.314C46.0488 244.314 47.0947 244.763 47.8916 245.659C48.6943 246.556 49.0957 247.748 49.0957 249.236V249.351C49.0957 250.276 48.917 251.108 48.5596 251.847C48.208 252.579 47.7012 253.15 47.0391 253.561C46.3828 253.971 45.627 254.176 44.7715 254.176C43.4824 254.176 42.4365 253.728 41.6338 252.831C40.8369 251.935 40.4385 250.748 40.4385 249.271V249.157ZM42.0732 249.351C42.0732 250.405 42.3164 251.252 42.8027 251.891C43.2949 252.529 43.9512 252.849 44.7715 252.849C45.5977 252.849 46.2539 252.526 46.7402 251.882C47.2266 251.231 47.4697 250.323 47.4697 249.157C47.4697 248.114 47.2207 247.271 46.7227 246.626C46.2305 245.976 45.5742 245.65 44.7539 245.65C43.9512 245.65 43.3037 245.97 42.8115 246.608C42.3193 247.247 42.0732 248.161 42.0732 249.351ZM50.4229 252.673L50.9854 251.979C51.6182 251.158 51.9785 249.928 52.0664 248.287L52.2158 244.49H58.3418V252.673H59.5635V256.795H57.9375V254H51.3018V256.795H49.6758L49.6846 252.673H50.4229ZM52.3477 252.673H56.7158V245.993H53.7891L53.6924 248.261C53.5928 250.153 53.1445 251.624 52.3477 252.673ZM68.6338 244.49V254H66.999V250.3H64.5469L62.3057 254H60.5479L62.9385 250.054C62.3291 249.831 61.8604 249.488 61.5322 249.025C61.21 248.557 61.0488 248.012 61.0488 247.391C61.0488 246.523 61.374 245.826 62.0244 245.299C62.6748 244.766 63.5449 244.496 64.6348 244.49H68.6338ZM62.6836 247.408C62.6836 247.871 62.8418 248.246 63.1582 248.533C63.4746 248.814 63.8936 248.958 64.415 248.964H66.999V245.809H64.6611C64.0576 245.809 63.5771 245.958 63.2197 246.257C62.8623 246.55 62.6836 246.934 62.6836 247.408ZM72.9229 244.49V252.673H76.4033V244.49H78.0293V252.673H81.501V244.49H83.1357V252.673H84.4717L84.3135 256.821H82.8545V254H71.2881V244.49H72.9229ZM89.2441 251.618L91.459 244.49H93.1992L89.376 255.468C88.7842 257.05 87.8438 257.841 86.5547 257.841L86.2471 257.814L85.6406 257.7V256.382L86.0801 256.417C86.6309 256.417 87.0586 256.306 87.3633 256.083C87.6738 255.86 87.9287 255.453 88.1279 254.861L88.4883 253.895L85.0957 244.49H86.8711L89.2441 251.618ZM96.4336 248.524H98.7188C98.8418 247.259 99.29 246.242 100.063 245.475C100.843 244.701 101.824 244.314 103.008 244.314C104.25 244.314 105.267 244.733 106.058 245.571C106.849 246.409 107.276 247.499 107.341 248.841L107.35 249.351C107.35 250.276 107.168 251.111 106.805 251.855C106.441 252.6 105.932 253.174 105.275 253.578C104.619 253.977 103.869 254.176 103.025 254.176C101.801 254.176 100.799 253.777 100.02 252.98C99.2402 252.178 98.8037 251.138 98.71 249.86H96.4336V254H94.8076V244.49H96.4336V248.524ZM100.318 249.351C100.318 250.405 100.562 251.252 101.048 251.891C101.54 252.529 102.199 252.849 103.025 252.849C103.852 252.849 104.505 252.523 104.985 251.873C105.472 251.223 105.715 250.317 105.715 249.157C105.715 248.12 105.469 247.276 104.977 246.626C104.484 245.976 103.828 245.65 103.008 245.65C102.199 245.65 101.549 245.97 101.057 246.608C100.564 247.247 100.318 248.161 100.318 249.351ZM9.00879 279H7.38281V270.835H3.00586V279H1.37109V269.49H9.00879V279ZM11.1885 274.157C11.1885 273.226 11.3701 272.388 11.7334 271.644C12.1025 270.899 12.6123 270.325 13.2627 269.921C13.9189 269.517 14.666 269.314 15.5039 269.314C16.7988 269.314 17.8447 269.763 18.6416 270.659C19.4443 271.556 19.8457 272.748 19.8457 274.236V274.351C19.8457 275.276 19.667 276.108 19.3096 276.847C18.958 277.579 18.4512 278.15 17.7891 278.561C17.1328 278.971 16.377 279.176 15.5215 279.176C14.2324 279.176 13.1865 278.728 12.3838 277.831C11.5869 276.935 11.1885 275.748 11.1885 274.271V274.157ZM12.8232 274.351C12.8232 275.405 13.0664 276.252 13.5527 276.891C14.0449 277.529 14.7012 277.849 15.5215 277.849C16.3477 277.849 17.0039 277.526 17.4902 276.882C17.9766 276.231 18.2197 275.323 18.2197 274.157C18.2197 273.114 17.9707 272.271 17.4727 271.626C16.9805 270.976 16.3242 270.65 15.5039 270.65C14.7012 270.65 14.0537 270.97 13.5615 271.608C13.0693 272.247 12.8232 273.161 12.8232 274.351ZM21.1729 277.673L21.7354 276.979C22.3682 276.158 22.7285 274.928 22.8164 273.287L22.9658 269.49H29.0918V277.673H30.3135V281.795H28.6875V279H22.0518V281.795H20.4258L20.4346 277.673H21.1729ZM23.0977 277.673H27.4658V270.993H24.5391L24.4424 273.261C24.3428 275.153 23.8945 276.624 23.0977 277.673ZM39.8936 279H38.2676V270.835H33.8906V279H32.2559V269.49H39.8936V279ZM48.6562 269.49H50.2822V279H48.6562V272.065L44.2705 279H42.6445V269.49H44.2705V276.434L48.6562 269.49ZM56.707 277.849C57.2871 277.849 57.7939 277.673 58.2275 277.321C58.6611 276.97 58.9014 276.53 58.9482 276.003H60.4863C60.457 276.548 60.2695 277.066 59.9238 277.559C59.5781 278.051 59.1152 278.443 58.5352 278.736C57.9609 279.029 57.3516 279.176 56.707 279.176C55.4121 279.176 54.3809 278.745 53.6133 277.884C52.8516 277.017 52.4707 275.833 52.4707 274.333V274.061C52.4707 273.135 52.6406 272.312 52.9805 271.591C53.3203 270.87 53.8066 270.311 54.4395 269.912C55.0781 269.514 55.8311 269.314 56.6982 269.314C57.7646 269.314 58.6494 269.634 59.3525 270.272C60.0615 270.911 60.4395 271.74 60.4863 272.76H58.9482C58.9014 272.145 58.667 271.641 58.2451 271.248C57.8291 270.85 57.3135 270.65 56.6982 270.65C55.8721 270.65 55.2305 270.949 54.7734 271.547C54.3223 272.139 54.0967 272.997 54.0967 274.122V274.43C54.0967 275.525 54.3223 276.369 54.7734 276.961C55.2246 277.553 55.8691 277.849 56.707 277.849ZM65.2764 274.948H64.0898V279H62.4551V269.49H64.0898V273.516H65.1533L68.3525 269.49H70.3213L66.5596 274.061L70.6377 279H68.5723L65.2764 274.948ZM75.1465 276.618L77.3613 269.49H79.1016L75.2783 280.468C74.6865 282.05 73.7461 282.841 72.457 282.841L72.1494 282.814L71.543 282.7V281.382L71.9824 281.417C72.5332 281.417 72.9609 281.306 73.2656 281.083C73.5762 280.86 73.8311 280.453 74.0303 279.861L74.3906 278.895L70.998 269.49H72.7734L75.1465 276.618Z" fill="#1E253A"/>
<rect y="47" width="140" height="140" rx="25" fill="#EEEEEE"/>
<path d="M70.2 47.75C67.7 51.05 64.2167 52.7 59.75 52.7C55.2833 52.7 51.7833 51.05 49.25 47.75C46.75 44.4167 45.5 40 45.5 34.5C45.5 29 46.75 24.6 49.25 21.3C51.7833 17.9667 55.2833 16.3 59.75 16.3C64.2167 16.3 67.7 17.9667 70.2 21.3C72.7333 24.6 74 29 74 34.5C74 40 72.7333 44.4167 70.2 47.75ZM53.5 34.5C53.5 41.4333 55.5833 44.9 59.75 44.9C63.9167 44.9 66 41.4333 66 34.5C66 27.5667 63.9167 24.1 59.75 24.1C55.5833 24.1 53.5 27.5667 53.5 34.5ZM84.1676 17L91.1676 17L91.1676 52L83.1676 52L83.1676 25.45L76.9676 27.15L75.0176 20.3L84.1676 17Z" fill="#EEEEEE"/>
<path fill-rule="evenodd" clip-rule="evenodd" d="M35 146H105V138.5H35V146Z" stroke="#1E253A" stroke-width="3" stroke-linecap="round" stroke-linejoin="round"/>
<path fill-rule="evenodd" clip-rule="evenodd" d="M37.5 138.5H102.5V91H37.5V138.5Z" stroke="#1E253A" stroke-width="3" stroke-linecap="round" stroke-linejoin="round"/>
<path fill-rule="evenodd" clip-rule="evenodd" d="M72.5 81H67.5C66.12 81 65 82.12 65 83.5V91H75V83.5C75 82.12 73.8825 81 72.5 81Z" stroke="#1E253A" stroke-width="3" stroke-linecap="round" stroke-linejoin="round"/>
<path d="M70 146V151" stroke="#1E253A" stroke-width="3" stroke-linecap="round" stroke-linejoin="round"/>
<path fill-rule="evenodd" clip-rule="evenodd" d="M72.5 116C72.5 122.9 66.9 128.5 60 128.5C53.1 128.5 47.5 122.9 47.5 116C47.5 109.1 53.1 103.5 60 103.5V116H72.5Z" stroke="#1E253A" stroke-width="3" stroke-linecap="round" stroke-linejoin="round"/>
<path fill-rule="evenodd" clip-rule="evenodd" d="M72.5 116H60V103.5C66.9 103.5 72.5 109.1 72.5 116Z" stroke="#FFC40E" stroke-width="3" stroke-linecap="round" stroke-linejoin="round"/>
<path d="M80 111H92.5" stroke="#1E253A" stroke-width="3" stroke-linecap="round" stroke-linejoin="round"/>
<path d="M80 121H87.5" stroke="#1E253A" stroke-width="3" stroke-linecap="round" stroke-linejoin="round"/>
<path d="M125.5 111.5L142.496 105.431C187.385 89.3996 236.774 91.6342 280.033 111.653V111.653" stroke="#EEEEEE" stroke-width="3" stroke-dasharray="3 3"/>
<path d="M361.048 113.769V113.769C430.103 131.662 502.519 132.136 571.802 115.149L585.943 111.682C586.837 111.463 587.749 111.321 588.667 111.257L616.946 109.294" stroke="#EEEEEE" stroke-width="3" stroke-dasharray="3 3"/>
</svg>
