<svg width="360" height="346" viewBox="0 0 360 346" fill="none" xmlns="http://www.w3.org/2000/svg">
<path d="M364.708 290.972C330.68 290.067 225.237 286.776 161.305 280.907C42.7598 269.99 -54.3944 283.606 9.02485 301.796C26.7384 306.881 -25.0038 334.962 100.534 343.385C210.726 350.778 323.324 340.234 377.812 335.801C432.3 331.368 457.523 322.418 469.26 318.386C479.567 314.838 483.66 294.127 364.708 290.972Z" fill="#E8EFEF"/>
<path d="M185.904 255.429C186.041 254.893 186.065 254.334 185.974 253.788C185.186 250.469 185.913 250.492 183.741 244.204C181.611 238.097 177.555 229.073 170.279 218.682C169.608 217.671 168.8 216.758 167.878 215.969C162.75 215.722 157.856 217.405 152.705 218.179C150.974 219.898 149.671 221.999 148.901 224.313C144.939 235.254 143.093 241.561 142.431 246.856C141.722 251.984 142.203 256.077 141.862 258.808C158.187 269.805 169.803 255.545 185.904 255.429Z" fill="#163F59"/>
<path d="M106.465 222.763C105.616 222.241 102.712 225.476 101.477 228.357C99.0577 233.951 98.4378 237.074 97.4961 243.274C96.0091 253.091 93.4919 268.683 92.6621 275.321C91.9117 281.302 89.5018 288.373 93.1004 287.376C93.0445 279.167 96.8295 266.786 99.0111 260.284C106.488 238.053 109.085 224.362 106.465 222.763Z" fill="#E9D6B8"/>
<path d="M85.0315 227.695C85.3422 226.117 85.6669 224.563 86.0057 223.034C87.1197 220.81 88.0894 219.64 88.8305 219.813C91.6274 220.475 94.1773 233.163 85.3624 263.299C84.9196 264.814 79.0042 291.086 79.0461 290.443C80.067 273.564 80.3094 251.049 85.0315 227.695Z" fill="#E9D6B8"/>
<path d="M79.2819 290.954C77.7576 294.035 75.8651 296.203 75.0494 295.802C74.2336 295.401 74.8116 292.576 76.3359 289.5C77.8602 286.423 79.7481 284.251 80.5638 284.652C81.3796 285.053 80.8015 287.877 79.2819 290.954Z" fill="#FEC12F"/>
<path d="M79.7441 289.128C78.9656 291.542 77.3108 293.281 76.481 292.88C75.6513 292.479 75.9683 290.414 77.1896 288.195C78.7372 285.398 79.3246 284.583 79.4598 282.574C79.595 280.686 82.6808 280.052 79.7441 289.128Z" fill="#E9D6B8"/>
<path d="M99.2747 287.568C98.2787 287.215 97.2518 286.956 96.2074 286.795C94.8929 286.543 93.8767 286.552 93.4106 286.058C92.6274 285.242 93.061 283.261 92.6788 283.359C90.8142 283.783 90.1709 288.137 91.257 288.682C92.3432 289.228 98.4823 288.501 98.9904 288.463C99.4985 288.426 99.4099 287.452 99.2747 287.568Z" fill="#E9D6B8"/>
<path d="M98.0117 287.172C98.3613 288.64 93.863 288.048 92.6977 287.666C92.1017 287.468 91.4926 287.313 90.875 287.2H90.7351C90.7328 287.235 90.7328 287.271 90.7351 287.307C90.7351 288.109 90.3808 289.171 91.6674 289.171H99.7318C106.295 289.157 97.9837 287.139 98.0117 287.172Z" fill="#FEC12F"/>
<path d="M143.13 318.265C144.282 317.931 145.461 317.703 146.654 317.584C148.165 317.388 149.293 317.458 149.861 316.931C150.794 316.055 150.747 312.792 150.947 312.843C153.045 313.389 153.143 320.064 152.127 320.045C150.728 320.045 143.951 319.369 143.382 319.295C142.813 319.22 142.962 318.125 143.13 318.265Z" fill="#E9D6B8"/>
<path d="M153.232 262.328C153.931 263.185 156.583 265.558 157.119 268.276C158.173 273.608 158.424 276.359 157.688 281.794C156.522 290.427 154.383 304.192 153.404 309.986C152.518 315.207 153.143 321.766 149.479 320.018C151.88 313.124 151.003 301.778 150.724 295.736C148.826 254.52 151.996 260.794 153.232 262.328Z" fill="#E9D6B8"/>
<path d="M144.608 317.897C144.118 319.542 149.269 319.16 150.598 318.801C151.286 318.61 151.987 318.468 152.695 318.377H152.849C152.851 318.417 152.851 318.458 152.849 318.498C152.798 319.407 153.129 320.647 151.67 320.563L142.529 320.041C135.07 319.621 144.617 317.859 144.608 317.897Z" fill="#194866"/>
<path d="M154.303 206.614C156.056 206.147 156.093 207.686 157.356 211.503C159.832 218.999 161.235 230.089 160.377 241.91C159.365 255.759 157.244 269.646 154.396 277.244C152.066 271.762 150.154 266.812 148.844 254.701C145.94 227.879 148.914 208.035 154.303 206.614Z" fill="#E9D6B8"/>
<path d="M153.726 208.562C155.325 208.222 155.32 209.494 156.365 212.734C158.416 219.064 159.404 228.383 158.327 238.246C157.064 249.807 154.556 262.607 151.47 262.724C150.286 262.77 149.792 254.123 149.335 246.875C147.904 224.337 148.818 209.611 153.726 208.562Z" fill="#E9D6B8"/>
<path d="M174.604 321.019C174.604 321.019 175.621 320.735 177.914 320.208C179.522 319.84 180.324 319.598 180.711 318.95C181.331 317.882 181.046 314.806 181.48 314.801C183.568 314.778 184.179 320.306 183.675 321.182C183.018 322.339 176.217 322.847 175.178 322.301C174.67 322.049 174.413 320.94 174.604 321.019Z" fill="#E9D6B8"/>
<path d="M172.894 266.015C173.868 265.581 172.894 261.577 174.758 264.216C177.756 268.513 180.282 278.275 180.711 283.551C181.396 291.942 182.65 305.222 182.925 310.881C183.172 316.009 185.112 322.027 181.303 321.137C181.49 313.958 179.215 303.568 177.457 298.006C171.416 279.03 169.897 267.343 172.894 266.015Z" fill="#E9D6B8"/>
<path d="M174.614 321.019C176.646 323.145 180.581 321.606 181.853 321.103C184.035 320.231 183.899 319.532 183.909 319.569C184.119 320.427 184.45 321.676 183.196 322.315C182.058 322.898 180.79 322.86 179.383 323.061C178.119 323.238 170.74 323.918 170.503 322.986C170.162 321.662 174.586 320.977 174.614 321.019Z" fill="#194866"/>
<path d="M169.164 210.827C170.843 210.329 170.922 211.806 172.25 215.447C174.87 222.593 176.553 233.244 176.082 244.66C175.523 258.039 173.621 269.753 171.104 277.165C168.67 271.948 166.983 268.97 165.351 257.339C161.706 231.576 163.99 212.356 169.164 210.827Z" fill="#E9D6B8"/>
<path d="M170.965 260.211C171.855 259.693 173.538 261.949 174.792 264.164C177.243 268.499 178.199 273.901 179.453 281.369C180.935 290.109 181.42 297.926 180.982 303.031C179.057 299.232 177.463 294.319 175.239 289.242C161.795 258.556 168.233 261.791 170.965 260.211Z" fill="#E9D6B8"/>
<path d="M168.735 209.2C170.404 208.79 170.437 210.133 171.644 213.498C174.007 220.085 175.373 229.841 174.543 240.246C173.788 249.979 172.213 258.719 170.236 265.259C169.737 266.909 167.906 266.961 167.57 265.46C166.554 260.728 165.924 255.386 165.374 249.611C163.128 225.968 163.603 210.459 168.735 209.2Z" fill="#E9D6B8"/>
<path d="M145.728 119.864C123.04 122.602 85.2985 124.382 69.4191 121.602C53.3788 118.739 45.8734 86.6303 54.8371 77.3988C63.9509 68.271 92.7075 63.0142 107.091 60.9397C142.946 55.7659 175.686 54.8489 173.933 80.2201C172.11 106.566 170.314 116.901 145.728 119.864Z" fill="#0C6D6A"/>
<path d="M72.9287 115.222C72.9287 115.222 73.7258 126.321 88.7777 132.661C88.7777 132.661 80.9744 117.241 87.9853 109.675C92.1992 105.135 72.9287 115.222 72.9287 115.222Z" fill="#0C6D6A"/>
<path d="M78.2383 86.0161C77.4571 86.7842 76.5092 87.167 75.3945 87.1643C74.2798 87.1616 73.3358 86.7743 72.5623 86.0025C71.7888 85.2306 71.4049 84.28 71.4105 83.1507C71.4161 82.0214 71.8096 81.0727 72.5907 80.3045C73.3719 79.5364 74.3198 79.1537 75.4345 79.1564C76.5492 79.1591 77.4932 79.5463 78.2667 80.3182C79.0402 81.0901 79.4241 82.0407 79.4185 83.17C79.4128 84.2993 79.0194 85.248 78.2383 86.0161ZM73.8003 84.8065C74.2308 85.2328 74.7651 85.4468 75.4031 85.4483C76.0411 85.4498 76.5738 85.2385 77.0012 84.8142C77.436 84.3899 77.6551 83.8404 77.6585 83.1657C77.6619 82.4911 77.4483 81.9406 77.0177 81.5142C76.5945 81.0878 76.0639 80.8739 75.4259 80.8724C74.7879 80.8708 74.2515 81.0822 73.8167 81.5065C73.3893 81.9308 73.1739 82.4803 73.1705 83.1549C73.1671 83.8296 73.377 84.3801 73.8003 84.8065ZM85.5326 81.5347L85.5052 87.0346L83.8552 87.0306L83.875 83.0707L82.005 83.0662L81.9852 87.0261L80.3352 87.0222L80.3627 81.5222L85.5326 81.5347ZM91.3085 81.5486L91.281 87.0485L89.675 87.0446L89.6829 85.4607L89.3419 85.4598L88.201 87.0411L86.331 87.0366L87.6271 85.2247C87.2979 85.0553 87.0388 84.8126 86.8497 84.4968C86.6606 84.1811 86.567 83.8472 86.5687 83.4952C86.5713 82.9745 86.7569 82.5203 87.1255 82.1325C87.4942 81.7374 87.9938 81.5406 88.6245 81.5421L91.3085 81.5486ZM88.7602 82.9944C88.5842 82.994 88.441 83.045 88.3305 83.1474C88.2273 83.2425 88.1753 83.378 88.1744 83.554C88.1736 83.7227 88.2243 83.8548 88.3265 83.9504C88.436 84.046 88.5788 84.094 88.7548 84.0944L89.6897 84.0967L89.6952 82.9967L88.7602 82.9944ZM96.9778 81.5622L96.9699 83.1462L95.3309 83.1423L95.3113 87.0582L93.6613 87.0542L93.6809 83.1383L92.0199 83.1343L92.0278 81.5503L96.9778 81.5622ZM100.256 83.2201C100.916 83.2217 101.439 83.3989 101.826 83.7519C102.213 84.1048 102.405 84.5709 102.402 85.1503C102.399 85.7296 102.202 86.1948 101.812 86.5458C101.421 86.8969 100.896 87.0716 100.236 87.0701L97.6623 87.0639L97.6898 81.5639L99.3398 81.5679L99.3315 83.2179L100.256 83.2201ZM100.254 85.6401C100.416 85.6405 100.544 85.5968 100.64 85.509C100.743 85.4139 100.795 85.2931 100.796 85.1464C100.797 84.9997 100.746 84.8823 100.644 84.794C100.549 84.6985 100.421 84.6505 100.259 84.6501L99.3244 84.6479L99.3194 85.6378L100.254 85.6401ZM111.163 81.5963L111.136 87.0963L109.486 87.0923L109.506 83.1324L107.636 83.1279L107.616 87.0878L105.966 87.0838L105.993 81.5839L111.163 81.5963ZM115.664 81.4532C116.39 81.4549 117.008 81.7387 117.519 82.3046C118.029 82.8632 118.283 83.5495 118.279 84.3635C118.274 85.1774 118.014 85.8662 117.498 86.4296C116.982 86.9857 116.361 87.2628 115.635 87.2611C114.931 87.2594 114.386 87.0344 113.999 86.5862L113.986 89.3031L112.336 89.2992L112.374 81.5993L114.024 81.6032L114.022 82.1202C114.413 81.6738 114.96 81.4515 115.664 81.4532ZM114.369 85.3331C114.617 85.5756 114.932 85.6974 115.313 85.6983C115.694 85.6992 116.006 85.579 116.25 85.3376C116.5 85.0962 116.626 84.7701 116.629 84.3595C116.631 83.9488 116.508 83.6222 116.259 83.3796C116.019 83.137 115.708 83.0153 115.326 83.0144C114.945 83.0134 114.629 83.1337 114.378 83.3751C114.135 83.6165 114.013 83.9425 114.011 84.3532C114.008 84.7639 114.128 85.0905 114.369 85.3331ZM123.912 86.445C123.344 87.001 122.654 87.278 121.84 87.276C121.026 87.2741 120.338 86.9937 119.776 86.4351C119.214 85.869 118.935 85.179 118.939 84.365C118.943 83.5511 119.229 82.8661 119.796 82.3101C120.364 81.7468 121.055 81.4661 121.869 81.4681C122.683 81.4701 123.37 81.754 123.932 82.3201C124.494 82.8787 124.773 83.5651 124.769 84.3791C124.765 85.1931 124.479 85.8817 123.912 86.445ZM120.947 85.3049C121.188 85.5475 121.488 85.6692 121.848 85.67C122.207 85.6709 122.508 85.5506 122.751 85.3092C122.995 85.0678 123.117 84.7564 123.119 84.3751C123.121 83.9938 123.001 83.6818 122.761 83.4392C122.52 83.1967 122.22 83.0749 121.861 83.0741C121.501 83.0732 121.2 83.1935 120.957 83.4349C120.714 83.6763 120.591 83.9877 120.589 84.369C120.587 84.7503 120.707 85.0623 120.947 85.3049ZM128.328 87.2916C127.492 87.2896 126.797 87.0093 126.242 86.4506C125.695 85.892 125.423 85.202 125.427 84.3807C125.431 83.5593 125.71 82.8707 126.263 82.3147C126.823 81.7587 127.521 81.4817 128.357 81.4837C128.885 81.485 129.368 81.6145 129.807 81.8722C130.253 82.1299 130.596 82.4718 130.836 82.8977L129.391 83.7302C129.195 83.3191 128.84 83.1129 128.327 83.1116C127.967 83.1108 127.67 83.231 127.434 83.4725C127.198 83.7066 127.079 84.0106 127.077 84.3846C127.075 84.7586 127.191 85.0669 127.425 85.3095C127.658 85.5447 127.955 85.6627 128.314 85.6636C128.835 85.6649 129.191 85.4604 129.384 85.0502L130.821 85.8786C130.577 86.3107 130.234 86.6546 129.793 86.9102C129.351 87.1658 128.863 87.2929 128.328 87.2916ZM134.85 81.4993C135.576 81.5011 136.194 81.7849 136.704 82.3508C137.215 82.9093 137.468 83.5956 137.464 84.4096C137.46 85.2236 137.2 85.9123 136.684 86.4757C136.168 87.0318 135.547 87.309 134.821 87.3073C134.117 87.3056 133.571 87.0806 133.185 86.6323L133.171 89.3493L131.521 89.3453L131.56 81.6454L133.21 81.6494L133.207 82.1664C133.598 81.72 134.146 81.4976 134.85 81.4993ZM133.554 85.3792C133.802 85.6218 134.117 85.7436 134.498 85.7445C134.88 85.7454 135.192 85.6251 135.435 85.3837C135.686 85.1423 135.812 84.8163 135.814 84.4056C135.816 83.995 135.693 83.6684 135.445 83.4258C135.204 83.1832 134.893 83.0614 134.512 83.0605C134.13 83.0596 133.814 83.1798 133.564 83.4212C133.321 83.6626 133.198 83.9887 133.196 84.3993C133.194 84.81 133.313 85.1366 133.554 85.3792ZM143.097 86.4912C142.53 87.0471 141.839 87.3241 141.025 87.3222C140.211 87.3202 139.523 87.0399 138.961 86.4812C138.399 85.9152 138.12 85.2252 138.125 84.4112C138.129 83.5972 138.414 82.9122 138.982 82.3563C139.549 81.793 140.24 81.5123 141.054 81.5143C141.868 81.5162 142.556 81.8002 143.118 82.3662C143.68 82.9249 143.959 83.6112 143.955 84.4252C143.95 85.2392 143.665 85.9279 143.097 86.4912ZM140.133 85.351C140.374 85.5936 140.674 85.7153 141.033 85.7162C141.392 85.7171 141.694 85.5968 141.937 85.3554C142.18 85.114 142.303 84.8026 142.305 84.4213C142.306 84.0399 142.187 83.728 141.946 83.4854C141.705 83.2428 141.405 83.1211 141.046 83.1202C140.687 83.1194 140.385 83.2396 140.142 83.4811C139.899 83.7225 139.776 84.0338 139.775 84.4152C139.773 84.7965 139.892 85.1085 140.133 85.351ZM147.929 81.6848L149.579 81.6888L149.552 87.1887L147.902 87.1847L147.91 85.5347C147.513 85.6511 147.11 85.7088 146.699 85.7078C146.046 85.7063 145.516 85.5363 145.107 85.198C144.705 84.8524 144.506 84.3569 144.509 83.7116L144.519 81.6766L146.169 81.6806L146.16 83.4955C146.158 83.9429 146.45 84.1672 147.037 84.1686C147.374 84.1695 147.668 84.1115 147.918 83.9948L147.929 81.6848ZM156.041 87.2043L154.171 87.1998L152.423 84.7646L152.411 87.1956L150.761 87.1916L150.788 81.6917L152.438 81.6956L152.426 84.1046L154.088 81.6996L156.013 81.7042L153.997 84.4494L156.041 87.2043ZM160.335 81.7146L161.985 81.7186L161.957 87.2185L160.307 87.2146L160.31 86.6976C159.919 87.144 159.372 87.3663 158.668 87.3646C157.942 87.3629 157.323 87.0827 156.813 86.5242C156.302 85.9583 156.049 85.2683 156.053 84.4543C156.057 83.6403 156.317 82.9553 156.833 82.3992C157.35 81.8358 157.971 81.5549 158.697 81.5567C159.401 81.5584 159.946 81.7834 160.332 82.2316L160.335 81.7146ZM158.061 85.4382C158.302 85.6807 158.617 85.8025 159.005 85.8034C159.394 85.8044 159.71 85.6841 159.953 85.4427C160.197 85.2013 160.319 84.8753 160.321 84.4646C160.323 84.0539 160.204 83.7273 159.963 83.4847C159.722 83.2422 159.408 83.1204 159.019 83.1195C158.63 83.1185 158.314 83.2388 158.071 83.4802C157.828 83.7216 157.705 84.0476 157.703 84.4583C157.701 84.869 157.821 85.1956 158.061 85.4382ZM76.7888 96.5136L76.7614 102.014L75.1114 102.01L75.1311 98.0496L73.2611 98.0452L73.2414 102.005L71.5914 102.001L71.6188 96.5012L76.7888 96.5136ZM82.6836 101.346C82.1161 101.902 81.4254 102.179 80.6114 102.177C79.7974 102.175 79.1095 101.895 78.5476 101.336C77.9858 100.77 77.7069 100.08 77.7109 99.2659C77.715 98.4519 78.0008 97.7669 78.5682 97.2109C79.1357 96.6476 79.8264 96.3669 80.6404 96.3689C81.4544 96.3709 82.1424 96.6549 82.7042 97.2209C83.2661 97.7796 83.545 98.4659 83.5409 99.2799C83.5369 100.094 83.2511 100.783 82.6836 101.346ZM79.7193 100.206C79.9601 100.448 80.2601 100.57 80.6194 100.571C80.9788 100.572 81.2801 100.451 81.5233 100.21C81.7665 99.9686 81.889 99.6572 81.8909 99.2759C81.8928 98.8946 81.7734 98.5826 81.5326 98.34C81.2918 98.0975 80.9917 97.9757 80.6324 97.9749C80.2731 97.974 79.9718 98.0943 79.7286 98.3357C79.4854 98.5771 79.3628 98.8885 79.3609 99.2698C79.359 99.6512 79.4785 99.9631 79.7193 100.206ZM92.4904 102.051L90.6205 102.047L88.8726 99.6117L88.8605 102.043L87.2105 102.039L87.2379 96.5388L88.8879 96.5427L88.8759 98.9517L90.5379 96.5467L92.4629 96.5513L90.4472 99.2965L92.4904 102.051ZM96.4144 96.4069C97.1404 96.4086 97.7586 96.6924 98.2692 97.2583C98.7797 97.8169 99.0329 98.5032 99.0289 99.3171C99.0248 100.131 98.7647 100.82 98.2486 101.383C97.7324 101.939 97.1114 102.217 96.3854 102.215C95.6814 102.213 95.1362 101.988 94.7497 101.54L94.7362 104.257L93.0862 104.253L93.1246 96.5529L94.7746 96.5569L94.772 97.0739C95.1629 96.6275 95.7104 96.4052 96.4144 96.4069ZM95.119 100.287C95.3671 100.529 95.6819 100.651 96.0632 100.652C96.4445 100.653 96.7568 100.533 97 100.291C97.2505 100.05 97.3768 99.7238 97.3789 99.3132C97.3809 98.9025 97.2579 98.5759 97.0098 98.3333C96.769 98.0907 96.4579 97.969 96.0766 97.968C95.6953 97.9671 95.3793 98.0874 95.1288 98.3288C94.8856 98.5702 94.7629 98.8962 94.7609 99.3069C94.7588 99.7175 94.8782 100.044 95.119 100.287ZM101.435 99.9829C101.623 100.497 102.062 100.754 102.751 100.756C103.199 100.757 103.551 100.619 103.809 100.341L105.126 101.103C104.579 101.857 103.778 102.233 102.722 102.23C101.798 102.228 101.059 101.951 100.504 101.4C99.9568 100.848 99.6852 100.155 99.6894 99.3187C99.6935 98.4901 99.9683 97.8014 100.514 97.2527C101.066 96.6967 101.772 96.4197 102.63 96.4218C103.429 96.4237 104.091 96.704 104.617 97.2626C105.149 97.8139 105.414 98.5038 105.409 99.3325C105.408 99.5672 105.385 99.7871 105.34 99.9923L101.435 99.9829ZM101.408 98.7509L103.773 98.7566C103.615 98.1768 103.228 97.8862 102.612 97.8848C101.974 97.8832 101.572 98.1719 101.408 98.7509ZM111.184 100.556L111.899 100.558L111.884 103.572L110.278 103.568L110.286 102.094L107.228 102.087L107.22 103.561L105.614 103.557L105.629 100.543L106.311 100.545C106.607 100.091 106.757 99.4567 106.761 98.6427L106.771 96.5858L111.204 96.5964L111.184 100.556ZM108.038 100.549L109.578 100.553L109.591 98.0665L108.37 98.0636L108.367 98.6466C108.363 99.4093 108.254 100.043 108.038 100.549ZM116.7 96.6097L117.91 96.6126L117.882 102.112L116.276 102.109L116.29 99.3587L113.922 102.103L112.712 102.1L112.74 96.6001L114.346 96.604L114.332 99.354L116.7 96.6097ZM123.576 96.6262L123.568 98.2102L121.929 98.2062L121.909 102.122L120.259 102.118L120.279 98.2023L118.618 98.1983L118.626 96.6143L123.576 96.6262ZM127.86 96.6365L129.62 96.6407L127.712 101.971C127.117 103.627 126.069 104.413 124.566 104.329L124.573 102.789C124.947 102.789 125.234 102.735 125.432 102.626C125.631 102.516 125.793 102.319 125.919 102.033L123.79 96.6267L125.55 96.6309L126.809 100.011L127.86 96.6365Z" fill="white" fill-opacity="0.9"/>
<path d="M32.0637 5.98362C56.7283 1.38465 103.032 -3.70913 118.348 3.89026C133.798 11.6419 126.464 59.6297 112.705 70.9083C98.8317 82.0283 44.4245 84.2294 28.3712 83.982C-11.5967 83.3286 3.35079 11.3311 32.0637 5.98362Z" fill="#D0D0D0"/>
<path d="M20.5996 77.2861C20.5996 77.2861 21.3921 88.3803 36.4486 94.7199C36.4486 94.7199 28.6453 79.2998 35.6562 71.739C39.8655 67.18 20.5996 77.2861 20.5996 77.2861Z" fill="#D0D0D0"/>
<path d="M116.491 127.956L114.761 116C112.566 113.669 109.755 112.457 106.897 112.872C101.378 113.669 97.7749 120.279 98.8377 127.639C99.9005 135 105.238 140.314 110.752 139.517C114.612 138.957 117.535 135.55 118.579 131.038C118.025 130.71 117.551 130.264 117.19 129.731C116.829 129.198 116.59 128.592 116.491 127.956Z" fill="#163F59"/>
<path d="M94.5804 134.86C94.3707 136.771 96.3844 138.561 99.0787 138.855L105.223 139.536C107.917 139.829 110.276 138.524 110.481 136.613L112.401 119.179C112.616 117.268 110.597 115.482 107.908 115.184L101.759 114.508C99.0647 114.21 96.7108 115.52 96.501 117.431L94.5804 134.86Z" fill="#163F59"/>
<path d="M110.612 142.342C114.257 143.922 116.08 143.428 113.297 144.603C111.959 146.244 94.8518 143.96 93.9195 141.839C93.7657 141.48 100.711 140.44 100.749 140.198C101.177 137.117 101.34 134.515 100.483 131.071C100.492 130.95 100.545 130.837 100.63 130.752C100.715 130.666 100.828 130.614 100.949 130.604C102.245 130.642 103.55 130.651 104.855 130.688C105.07 130.688 107.615 131.262 107.051 132.483C106.762 135.825 106.757 140.673 110.612 142.342Z" fill="#E9D6B8"/>
<path d="M111.772 132.231C111.833 132.11 111.889 131.984 111.945 131.863C111.945 131.825 111.978 131.788 111.996 131.746C112.066 131.592 112.131 131.439 112.197 131.28C112.209 131.236 112.225 131.192 112.243 131.15C112.285 131.028 112.332 130.902 112.374 130.777C112.416 130.651 112.425 130.641 112.444 130.571C112.462 130.502 112.514 130.357 112.546 130.245C112.579 130.133 112.593 130.096 112.611 130.026C112.653 129.882 112.691 129.737 112.728 129.593C112.765 129.448 112.784 129.374 112.807 129.262C112.831 129.15 112.859 129.061 112.877 128.963C112.896 128.865 112.919 128.758 112.942 128.656C112.966 128.553 112.975 128.479 112.994 128.385C113.012 128.292 113.022 128.241 113.036 128.171C113.245 126.931 112.826 121.09 111.842 118.303C111.766 118.112 111.627 117.954 111.448 117.855C111.268 117.756 111.06 117.721 110.859 117.757C107.852 118.088 98.6923 117.664 101.07 126.013C101.07 126.013 101.205 126.749 101.28 127.08C101.277 127.108 101.277 127.136 101.28 127.164C101.354 127.495 101.433 127.821 101.522 128.138V128.203C101.615 128.525 101.708 128.842 101.811 129.136C101.811 129.136 101.811 129.136 101.811 129.168C103.125 133.103 105.419 135.694 107.871 135.531C109.269 135.433 110.532 134.408 111.469 132.762C111.471 132.748 111.471 132.734 111.469 132.72C111.539 132.599 111.609 132.469 111.679 132.338L111.772 132.231Z" fill="#E9D6B8"/>
<path d="M61.6802 139.222C61.6802 139.222 61.0462 139.525 60.7759 139.045C60.3377 138.244 60.1792 136.421 60.1512 135.782C60.1186 135.055 60.5428 131.61 60.5428 131.61C60.9795 132.354 61.1673 133.218 61.0788 134.076C60.8411 136.104 61.6802 139.222 61.6802 139.222Z" fill="#E9D6B8"/>
<path d="M61.6199 138.757C61.0372 137.582 61.3402 136.095 62.114 134.431C62.8506 132.851 62.3145 131.862 62.3145 131.862C61.7177 132.994 61.2262 134.179 60.846 135.4C60.5538 136.124 60.3959 136.895 60.3799 137.675C60.4918 139.964 63.1116 141.787 61.6199 138.757Z" fill="#E9D6B8"/>
<path d="M130.33 170.297C136.515 175.345 163.225 182.295 163.225 182.295C163.225 182.295 168.982 180.845 135.15 166.707C133.457 165.999 128.801 169.057 130.33 170.297Z" fill="#E9D6B8"/>
<path d="M164.839 183.624C164.839 183.624 166.974 184.421 167.636 185.362C168.102 186.02 169.678 189.46 169.678 189.46C168.846 189.018 168.176 188.324 167.762 187.479C167.001 186.045 166.015 184.743 164.839 183.624Z" fill="#E9D6B8"/>
<path d="M166.637 185.488C168.036 185.851 169.033 187.166 169.849 188.993C170.628 190.727 171.826 191.002 171.826 191.002C171.318 189.705 170.694 188.457 169.961 187.273C169.541 186.551 169.085 185.837 168.619 185.157C167.08 182.891 163.076 184.56 166.637 185.488Z" fill="#E9D6B8"/>
<path d="M162.723 182.738C162.956 183.712 164.499 184.826 164.452 185.451C164.406 186.407 164.158 187.343 163.725 188.196C165.818 187.949 165.776 184.933 166.573 183.936C167.37 182.938 162.126 180.211 162.723 182.738Z" fill="#E9D6B8"/>
<path d="M152.02 177.768C155.661 178.701 159.861 179.698 161.604 181.031C164.089 182.896 164.55 184.966 166.638 185.506C166.864 185.579 167.085 185.664 167.3 185.763C167.883 186 168.587 186.159 168.82 186.289C169.053 186.42 169.752 186.933 169.57 186.625C167.85 183.875 165.65 180.971 164.96 180.598C163.562 179.833 155.521 175.936 152.244 175.093C148.547 174.137 147.102 176.514 152.02 177.768Z" fill="#E9D6B8"/>
<path d="M166.698 185.18C166.698 185.18 166.899 184.43 167.491 184.556C168.46 184.77 170.078 185.954 170.637 186.388C171.197 186.821 173.802 189.697 173.802 189.697C172.875 189.524 172.026 189.06 171.378 188.373C169.882 186.723 166.698 185.18 166.698 185.18Z" fill="#E9D6B8"/>
<path d="M147.176 172.479C144.78 173.448 137.807 171.546 137.788 172.921C144.193 176.753 163.627 179.914 163.627 179.914L147.176 172.479Z" fill="#E9D6B8"/>
<path d="M86.1259 153.207C82.7976 155.663 79.8562 164.306 77.5674 169.783C76.2808 172.869 76.7563 175.195 76.7563 175.195C76.7563 175.195 77.8843 182.429 86.5034 162.711C88.6616 157.77 87.3752 152.274 86.1259 153.207Z" fill="#E9D6B8"/>
<path d="M79.4877 174.864C79.4458 167.578 66.4076 148.387 66.4076 148.387C66.4076 148.387 59.5552 142.602 72.0573 170.804C75.8144 179.274 79.5017 176.659 79.4877 174.864Z" fill="#E9D6B8"/>
<path d="M61.6381 137.33L61.0833 137.684L60.7104 139.912C60.7104 139.912 61.7173 143.861 62.6309 145.217C63.5446 146.574 64.929 152.675 65.2973 153.342C65.6655 154.009 69.2688 153.985 69.2688 153.985C69.2688 153.985 66.3787 148.196 65.4278 145.804C64.4769 143.413 64.2904 139.535 63.9548 138.584C63.3768 136.957 63.1763 136.104 63.1763 136.104C63.1763 136.104 62.3512 136.533 63.1064 139.134C63.3068 139.819 62.4352 139.675 62.4352 139.675L61.6381 137.33Z" fill="#E9D6B8"/>
<path d="M92.362 165.662L115.194 165.471L117.986 139.357L90.8936 141.931L92.362 165.662Z" fill="#FEC12F"/>
<path d="M116.49 243.454C105.26 245.211 103.233 243.719 90.3296 241.878C89.1129 241.878 83.8828 229.339 87.5607 196.196C88.3205 189.371 93.4808 183.89 92.3015 165.36L115.32 164.894C112.294 181.778 130.521 184.393 116.49 243.454Z" fill="#FEC12F"/>
<path d="M129.98 169.754L117.096 150.554L113.791 141.902C114.029 141.182 114.504 140.565 115.138 140.149L115.576 139.865C117.268 138.779 119.617 139.511 120.825 141.506L135.583 165.839L129.98 169.754Z" fill="#FEC12F"/>
<path d="M83.2539 172.039L91.1085 155.323L94.2689 143.67C93.8478 143.067 93.2525 142.606 92.5628 142.351L92.0966 142.164C91.1929 141.826 90.1919 141.86 89.3134 142.26C88.435 142.659 87.751 143.391 87.412 144.294L77.9585 167.322L83.2539 172.039Z" fill="#FEC12F"/>
<path d="M61.485 140.155C61.485 140.155 60.8558 138.169 61.1727 137.171C61.3965 136.477 62.9813 133.386 62.9813 133.386C63.1336 134.236 63.0128 135.112 62.6364 135.889C62.0252 137.24 61.6364 138.68 61.485 140.155Z" fill="#E9D6B8"/>
<path d="M62.4173 139.689C62.4173 139.689 62.9953 139.824 63.1864 139.642C63.1841 139.825 63.1654 140.008 63.1306 140.187C63.0933 140.532 63.2844 142.868 63.2844 142.868C63.0903 142.151 62.8553 141.446 62.5805 140.756C62.3812 140.248 62.2252 139.724 62.1144 139.19C62.1077 139.077 62.1077 138.963 62.1144 138.85L62.4173 139.689Z" fill="#E9D6B8"/>
<path d="M63.1079 139.134C62.5998 137.386 62.8049 136.622 62.996 136.3C63.1126 136.715 63.3177 137.377 63.6394 138.295C63.801 138.907 63.9132 139.53 63.975 140.16C64.003 140.323 63.383 140.477 63.1452 141.885C63.0986 142.136 62.6325 140.612 62.5532 139.685C62.7863 139.689 63.2617 139.661 63.1079 139.134Z" fill="#E9D6B8"/>
<path d="M106.122 129.9C105.568 129.572 105.093 129.125 104.732 128.592C104.371 128.058 104.133 127.451 104.034 126.814L102.305 114.858C102.197 114.751 102.086 114.653 101.978 114.55H101.768C99.0741 114.252 96.7201 115.562 96.5103 117.473L94.5898 134.902C94.4267 136.38 95.5967 137.769 97.3867 138.468C97.6987 138.466 98.0102 138.443 98.319 138.398C102.155 137.797 105.078 134.389 106.122 129.9Z" fill="#163F59"/>
<path d="M263.64 66.4023C287.814 53.5833 311.998 52.362 333.534 58.0117C355.07 63.6614 363.311 68.9568 360.258 94.6554C357.205 120.354 348.674 134.986 336.484 134.506C301.668 133.108 292.844 132.334 274.557 133.868L280.398 147.181L265.668 134.595C247.357 135.28 244.579 126.889 243.423 120.275C243.414 120.27 239.447 79.226 263.64 66.4023Z" fill="#79CCCA"/>
<path d="M207.657 5.61906C187.029 8.73653 169.1 17.8948 157.419 27.6618C145.646 37.5758 140.113 48.0775 142.072 57.6137C144.051 67.2442 153.018 74.8805 164.952 81.7557C176.968 88.4735 191.95 94.446 207.813 97.0019C238.745 102.822 267.217 86.6681 273.553 55.2624C279.957 24.0142 249.798 -1.68128 207.657 5.61906Z" fill="#FEC12F"/>
<path d="M194.908 92.0642C194.908 92.0642 195.406 103.177 181.184 111.223C181.184 111.223 187.151 95.0009 179.32 88.2977C174.602 84.2749 194.908 92.0642 194.908 92.0642Z" fill="#FEC12F"/>
<path d="M152.305 141.875C152.305 143.139 152.554 144.391 153.037 145.558C153.521 146.726 154.23 147.787 155.124 148.68C156.018 149.574 157.079 150.282 158.247 150.765C159.415 151.249 160.667 151.497 161.931 151.496L164.336 146.928C169.65 146.928 173.962 138.915 173.962 133.601V129.993C173.961 127.44 172.946 124.993 171.141 123.188C169.336 121.383 166.888 120.368 164.336 120.367H161.931C159.378 120.367 156.929 121.381 155.124 123.187C153.319 124.992 152.305 127.44 152.305 129.993V141.875Z" fill="#137F7F"/>
<path d="M150.845 149.217C144.002 157.995 143.335 177.652 143.335 177.652C143.335 177.652 146.543 181.353 147.997 179.983C149.861 178.253 153.87 167.956 157.786 153.487C160.205 144.542 151.987 147.749 150.845 149.217Z" fill="#163F59"/>
<path d="M147.722 174.925C152.719 180.397 150.416 189.841 150.416 189.841C150.416 189.841 148.551 190.2 147.442 189.263C146.044 188.075 145.111 184.905 143.373 177.563C142.286 173.037 146.869 174.006 147.722 174.925Z" fill="#163F59"/>
<path d="M147.722 183.227C147.722 183.227 149.158 182.966 151.125 188.886C153.092 194.806 152.654 201.994 152.654 201.994L148.24 190.508C148.24 190.508 146.226 185.32 147.722 183.227Z" fill="#E9D6B8"/>
<path d="M172.04 129.704C172.7 129.612 173.365 129.559 174.031 129.545C174.009 130.382 174.054 131.219 174.166 132.049C175.332 140.178 182.524 145.977 190.7 145.777C190.597 149.641 189.126 153.343 186.548 156.224C183.969 159.104 180.452 160.976 176.623 161.504C167.654 162.791 159.375 156.712 158.103 147.935C156.83 139.157 163.067 130.99 172.04 129.704Z" fill="#137F7F"/>
<path d="M156.15 124.021C156.164 124.93 156.242 125.837 156.383 126.734C157.353 132.911 161.11 137.605 165.24 138.183C165.366 140.98 166.359 143.409 166.601 145.641C167.137 150.489 172.512 151.007 172.512 151.007C173.206 155.323 156.234 161.304 156.579 160.609C156.924 159.915 160.546 154.829 161.73 150.163C162.058 148.836 162.097 147.454 161.842 146.111C161.586 144.769 161.044 143.497 160.252 142.383C159.545 141.581 158.682 140.931 157.715 140.473C156.749 140.016 155.699 139.76 154.63 139.721C154.478 139.722 154.327 139.691 154.187 139.63C154.048 139.569 153.922 139.479 153.819 139.367C153.618 138.716 153.516 138.039 153.516 137.358V129.433C153.511 128.39 153.746 127.359 154.203 126.421C154.659 125.482 155.326 124.661 156.15 124.021Z" fill="#E9D6B8"/>
<path d="M176.963 175.349L184.16 161.341C186.304 157.178 184.752 153.146 180.72 152.377L157.902 148.051C155.38 147.813 151.544 152.06 152.649 156.838L158.126 172.375L176.963 175.349Z" fill="#E9D6B8"/>
<path d="M180.25 153.501C175.756 167.486 190.374 186.723 190.374 186.723C190.374 186.723 194.952 186.789 195.39 184.686C195.945 182.02 191.959 176.459 186.883 160.447C183.741 150.509 180.87 151.557 180.25 153.501Z" fill="#163F59"/>
<path d="M157.782 191.958C157.782 195.123 157.955 198.95 159.344 198.88L168.881 197.505C170.279 197.44 174.838 197.901 174.829 194.708L177.509 181.586C177.509 178.416 176.372 175.904 174.983 175.992L157.628 169.047C156.23 169.112 155.116 171.737 155.125 174.902L157.782 191.958Z" fill="#7DCCD0"/>
<path d="M154.08 154.313C154.268 153.48 154.552 152.673 154.929 151.907C166.275 160.764 174.25 157.072 180.007 155.613C180.063 155.986 180.105 156.373 180.129 156.774C180.362 161.146 180.105 165.519 180.292 169.891C180.464 173.369 176.017 176.385 173.878 176.468C165.897 176.804 164.088 176.273 156.388 173.956C154.327 173.331 150.486 169.63 151.26 166.442C152.22 162.411 153.16 158.368 154.08 154.313Z" fill="#7DCCD0"/>
<path d="M173.425 150.671C173.425 150.671 182.589 150.391 184.193 154.782C185.797 159.173 181.9 165.564 181.9 165.564C181.9 165.564 179.569 173.703 178.93 178.117C178.292 182.532 181.098 186.722 180.231 185.86C180.058 185.683 177.984 185.86 174.679 184.336C171.374 182.811 173.206 176.77 173.532 174.826C173.859 172.882 175.471 163.345 175.112 161.774C174.754 160.203 173.425 150.671 173.425 150.671Z" fill="#194866"/>
<path d="M151.549 154.457C152.482 151.511 155.213 146.873 156.947 147.385C158.681 147.898 160.677 148.346 160.677 148.346C160.677 148.346 154.617 150.984 154.859 163.542C154.901 165.691 154.603 169.979 155.325 173.331C156.048 176.683 156.304 183.195 156.304 183.195C156.304 183.195 152.677 183.941 152.514 184.472C152.351 185.003 152.98 180.999 151.414 175.447C147.913 163.108 149.853 159.841 151.549 154.457Z" fill="#194866"/>
<path d="M195.986 151.647H194.588V150.654H185.153V159.002C185.121 159.513 185.291 160.017 185.627 160.403C185.963 160.789 186.437 161.028 186.948 161.068H192.793C193.304 161.028 193.778 160.789 194.114 160.403C194.45 160.017 194.62 159.513 194.588 159.002V158.369H195.986C196.345 158.34 196.678 158.171 196.914 157.899C197.149 157.627 197.268 157.273 197.245 156.914V153.096C197.268 152.738 197.149 152.385 196.913 152.113C196.678 151.842 196.345 151.674 195.986 151.647ZM196.182 156.914C196.185 156.942 196.182 156.97 196.173 156.997C196.165 157.024 196.151 157.048 196.133 157.07C196.114 157.091 196.092 157.108 196.067 157.121C196.042 157.133 196.014 157.141 195.986 157.143H194.588V152.868H195.986C196.043 152.873 196.095 152.899 196.131 152.942C196.168 152.985 196.186 153.04 196.182 153.096V156.914Z" fill="#FFC40E"/>
<path d="M195.446 171.196C196.29 168.003 197.716 164.707 197.45 162.805C197.077 160.097 195.698 158.866 196.168 157.03C196.212 156.827 196.242 156.621 196.257 156.414C196.327 155.864 196.504 155.258 196.504 155.016C196.504 154.773 196.416 154.009 196.569 154.289C197.94 156.787 199.226 159.71 199.217 160.4C199.217 161.798 198.751 169.634 197.996 172.52C197.133 175.759 194.336 175.508 195.446 171.196Z" fill="#E9D6B8"/>
<path d="M197.972 162.25C197.972 162.25 198.592 162.525 198.829 162.05C199.226 161.271 199.319 159.518 199.323 158.894C199.323 158.195 198.815 154.908 198.815 154.908C198.42 155.636 198.267 156.47 198.377 157.29C198.676 159.225 197.972 162.25 197.972 162.25Z" fill="#E9D6B8"/>
<path d="M197.543 177.675C196.45 177.241 195.384 176.743 194.35 176.184C196.625 167.83 198.928 160.852 198.928 160.852L197.543 177.675Z" fill="#E9D6B8"/>
<path d="M198.583 158.175L197.767 153.514L195.954 153.076L195.325 153.388L195.25 153.887C195.25 153.887 195.483 154.195 195.437 154.195C195.18 154.195 195.259 154.992 195.483 154.992C195.404 155.349 195.351 155.712 195.325 156.078C195.483 156.46 196.201 156.39 196.518 157.206C196.835 158.022 196.392 158.958 196.83 159.019C197.268 159.08 198.583 158.175 198.583 158.175Z" fill="#E9D6B8"/>
<path d="M197.954 175.583C197.847 174.893 193.945 174.651 193.493 175.886L193.027 176.79C193.027 176.79 189.452 184.715 193.708 186.174C193.722 186.155 198.318 185.838 197.954 175.583Z" fill="#163F59"/>
<path d="M214.545 318.475C214.927 318.009 214.652 316.802 214.652 316.802C214.652 316.802 208.009 316.061 205.874 316.564C205.041 316.843 204.243 317.219 203.497 317.683C203.352 317.767 203.087 318.275 202.942 318.363C202.676 318.522 202.532 318.251 202.308 318.396C201.953 318.604 201.613 318.838 201.292 319.095C200.709 322.144 201.483 323.37 201.483 323.37C201.483 323.37 206.951 325.071 208.196 323.938C211.365 321.076 213.715 319.482 214.545 318.475Z" fill="#161711"/>
<path d="M235.548 320.987L236.481 325.933H241.524C241.524 325.933 241.804 325.233 242.228 325.233C242.652 325.233 243.053 325.933 243.543 325.933H256.376C256.376 325.933 256.604 324.893 256.325 324.534C255.851 324.225 255.327 324.001 254.777 323.872C252.166 323.141 244.713 320.852 243.417 318.362C241.855 315.333 235.548 320.987 235.548 320.987Z" fill="#161711"/>
<path d="M239.552 154.242L240.76 148.247C240.76 148.247 245.02 148.578 245.845 146.28C247.514 141.684 246.12 134.338 245.109 132.296C242.237 126.436 241.025 116.172 227.596 124.334C222.491 127.439 230.393 142.514 230.966 145.777C231.539 149.04 229.805 152.769 229.805 152.769L232.947 155.128L239.552 154.242Z" fill="#E9D6B8"/>
<path d="M215.691 210.977L215.225 229.879C215.225 229.879 208.107 222.02 207.417 213.098C206.727 204.176 215.239 210.278 215.691 210.977Z" fill="#E2C59C"/>
<path d="M223.704 249.923C223.704 249.923 225.671 250.781 219.882 278.26C215.686 298.048 212.139 312.522 210.475 319.076C209.827 321.621 209.104 321.16 209.104 321.16L203.585 321.775L200.956 319.5L208.843 274.662L223.704 249.923Z" fill="#163F59"/>
<path d="M259.798 198.66L248.503 220.332C248.503 220.332 270.058 204.744 268.701 196.162C267.345 187.58 259.798 198.66 259.798 198.66Z" fill="#E9D6B8"/>
<path d="M215.565 160.088C215.565 160.088 210.987 162.885 207.687 185.628C204.387 208.371 206.494 207.504 206.494 207.504L207.095 212.683L215.653 213.616L220.278 193.981L215.565 160.088Z" fill="#F8C44F"/>
<path d="M236.598 219.148C236.598 219.148 223.965 271.473 214.046 294.924C208.233 308.662 208.182 282.292 208.182 282.292L217.211 206.31L243.585 205.033C243.585 205.033 240.593 205.96 236.598 219.148Z" fill="#163F59"/>
<path d="M227.4 205.187C227.4 205.187 236.947 272.923 237.949 275.981C241.347 286.325 246.577 272.765 247.775 269.32C248.973 265.875 250.973 240.353 250.572 221.736L250.171 203.118L227.4 205.187Z" fill="#163F59"/>
<path d="M236.988 259.022C236.988 259.022 235.548 267.1 234.345 277.421C233.464 285 233.441 306.648 234.84 321.705C234.923 322.637 244.484 319.84 244.484 319.84C244.484 319.84 247.971 277.757 248.773 268.331C249.574 258.906 242.983 252.305 236.988 259.022Z" fill="#163F59"/>
<path d="M215.285 160.13L226.561 155.002L229.67 152.061L241.655 151.771L243.757 155.226L253.071 159.267C253.071 159.267 255.36 162.87 253.369 176.253C251.16 191.077 250.694 213.485 250.694 213.485L215.56 215.181C215.56 215.181 218.576 167.327 215.285 160.13Z" fill="#F4DA80"/>
<path d="M250.056 159.295C250.056 159.295 252.149 156.964 257.239 163.299C265.928 174.09 270.128 187.478 271.028 190.07C271.927 192.662 273.083 196.325 269.527 200.633C266.814 203.928 265.933 205.038 265.933 205.038L258.139 200.181L259.365 197.85L260.241 196.694C260.241 196.694 256.046 187.483 251.547 179.129C247.049 170.776 250.056 159.295 250.056 159.295Z" fill="#F4DA80"/>
<path d="M241.334 134.002C241.334 134.002 239.814 133.07 239.581 134.235C239.348 135.401 240.168 137.964 240.863 138.202C241.557 138.44 241.795 141.586 241.795 141.586L239.93 145.087H230.477C230.477 145.087 227.559 143.805 227.321 141.703C227.083 139.601 224.757 124.782 224.757 124.782L231.409 121.276C233.331 120.315 235.32 119.495 237.362 118.824C241.124 117.752 241.912 119.757 241.795 120.81C241.678 121.864 242.848 121.976 244.363 121.976C245.878 121.976 247.752 123.146 246.932 123.84C246.592 124.129 248.102 125.052 247.505 126.171C246.648 127.765 243.776 128.282 243.548 130.832C243.445 132.012 242.965 135.867 241.334 134.002Z" fill="#194866"/>
<path d="M334.097 305.506C333.822 305.874 334.027 306.844 334.027 306.844C334.027 306.844 338.866 307.45 340.418 307.054C341.028 306.834 341.607 306.538 342.143 306.173C342.255 306.103 342.441 305.707 342.548 305.627C342.744 305.501 342.847 305.716 343.014 305.599C343.275 305.435 343.521 305.25 343.751 305.045C344.166 302.616 343.602 301.632 343.602 301.632C343.602 301.632 339.481 300.117 338.712 301.166C336.899 303.618 334.703 304.704 334.097 305.506Z" fill="#163F59"/>
<path d="M308.636 302.374L307.918 306.304H306.053C306.053 306.304 305.839 305.749 305.517 305.749C305.196 305.749 304.893 306.304 304.52 306.304H294.801C294.801 306.304 294.624 305.479 294.838 305.194C295.194 304.948 295.592 304.77 296.013 304.667C297.984 304.085 303.634 302.267 304.618 300.286C305.797 297.857 308.636 302.374 308.636 302.374Z" fill="#163F59"/>
<path d="M334.945 215.768L338.972 213.531L339.448 213.027L338.888 212.132L338.007 212.24L338.161 209.62L333.938 208.865L331.775 207.858L333.775 214.971L334.945 215.768Z" fill="#E9D6B8"/>
<path d="M316.267 151.771C316.267 151.771 320.783 156.745 306.878 169.877C292.973 183.008 290.442 179.162 290.442 179.162L286.247 176.365L283.133 161.752L289.841 160.195L290.572 161.057C290.572 161.057 292.013 161.197 292.74 160.171C293.467 159.146 298.068 155.687 304.706 147.157C307.764 143.227 315.404 150.806 316.267 151.771Z" fill="#E2E3E4"/>
<path d="M284.238 162.591C284.238 162.591 270.216 162.335 269.098 147.74C268.767 143.4 267.657 147.6 266.893 151.739C266.128 155.878 268.687 167.588 276.183 172.25C283.679 176.911 286.872 178.09 289.767 176.179C292.661 174.268 284.238 162.591 284.238 162.591Z" fill="#E9D6B8"/>
<path d="M304.92 302.373C304.92 302.373 307.097 305.529 308.696 302.574C312.388 295.773 317.875 278.968 318.056 271.319C318.322 260.35 316.462 252.724 316.462 252.724L304.776 248.911L304.92 302.373Z" fill="#163F59"/>
<path d="M305.307 198.647L304.776 248.907L315.399 254.771C319.559 246.231 321.997 236.956 322.573 227.474C322.914 220.976 323.077 206.399 319.441 201.444C314.518 194.727 305.307 198.647 305.307 198.647Z" fill="#163F59"/>
<path d="M309.181 198.646L310.919 216.043L315.641 234.913L320.666 252.552L338.613 301.497L343.839 301.921C343.839 301.921 343.177 265.17 336.804 254.458C333.429 248.785 333.434 236.199 331.877 222.648C331.593 220.206 332.977 214.691 332.754 212.463C332.141 207.001 330.295 201.749 327.356 197.104L309.181 198.646Z" fill="#194866"/>
<path d="M305.135 199.412L328.154 198.904L337.98 165.989C337.98 165.989 344.357 146.089 332.139 145.833C319.921 145.576 305.839 145.581 305.839 145.581C305.839 145.581 295.747 164.143 305.135 199.412Z" fill="#E2E3E4"/>
<path d="M346.435 189.795L331.85 207.536C331.85 207.536 332.372 210.124 333.546 208.748C333.686 208.585 332.978 208.063 333.868 207.578C337.448 205.625 345.862 202.614 348.971 199.607C351.603 196.995 353.947 194.109 355.963 190.998L346.435 189.795Z" fill="#E9D6B8"/>
<path d="M317.642 150.2C317.642 150.2 306.921 168.669 309.974 189.105C310.212 190.713 312.127 191.864 312.127 191.864L314.766 189.566C314.766 189.566 314.551 166.436 317.642 150.2Z" fill="#0C6D6A"/>
<path d="M318.024 149.711L318.607 153.79L325.603 147.161V146.145L318.024 149.711Z" fill="#D0D0D0"/>
<path d="M315.819 147.082L314.593 152.387L317.698 149.711L315.819 147.082Z" fill="#D0D0D0"/>
<path d="M295.062 165.089L293.239 161.788L292.432 160.511C291.898 160.915 291.236 161.11 290.568 161.061L292.386 163.262L294.05 166.25L294.982 170.808L295.062 165.089Z" fill="#D0D0D0"/>
<path d="M336.87 165.407L344.874 188.463L346.608 189.153L345.643 190.686L355.516 192.402L359.856 184.869L348.323 153.576C348.323 153.576 343.867 146.999 333.938 145.908C326.722 145.116 336.292 163.491 336.87 165.407Z" fill="#E2E3E4"/>
<path d="M356.118 187.054C356.118 187.054 349.387 188.317 345.863 188.849L346.618 189.152L345.653 190.685L349.074 191.25L354.053 191.361L354.827 189.52L353.372 189.157L356.118 187.054Z" fill="#D0D0D0"/>
<path d="M326.47 141.213C326.183 142.702 325.768 144.163 325.23 145.581C324.433 147.366 317.525 149.659 316.462 149.916C315.399 150.172 316.728 144.56 316.728 143.283C316.728 142.308 317.357 142.611 316.602 141.213H326.47Z" fill="#E9D6B8"/>
<path d="M314.667 138.37C314.583 138.895 314.71 139.432 315.021 139.863C315.332 140.294 315.802 140.584 316.327 140.668L325.235 142.095C325.495 142.137 325.761 142.128 326.017 142.068C326.273 142.007 326.515 141.897 326.729 141.743C326.942 141.588 327.123 141.394 327.261 141.169C327.399 140.945 327.492 140.695 327.533 140.435L329.649 127.239C329.732 126.714 329.604 126.178 329.292 125.748C328.98 125.318 328.51 125.029 327.985 124.945L319.082 123.514C318.822 123.472 318.556 123.482 318.299 123.543C318.043 123.604 317.801 123.715 317.587 123.87C317.374 124.024 317.193 124.219 317.055 124.444C316.917 124.669 316.825 124.918 316.784 125.178L314.667 138.37Z" fill="#E9D6B8"/>
<path d="M316.331 127.895C316.331 127.895 315.343 126.422 315.25 125.607C315.318 125.121 315.505 124.659 315.795 124.263C316.084 123.867 316.467 123.549 316.91 123.336C317.991 122.917 318.644 124.119 318.644 124.119C318.644 124.119 316.923 124.744 316.779 125.052C316.634 125.359 316.331 127.895 316.331 127.895Z" fill="#163F59"/>
<path d="M329.602 133.321C329.602 133.321 331.765 128.469 331.756 126.944C331.747 125.42 331.756 124.362 329.961 123.905C327.281 123.22 327.164 123.793 325.971 122.758C324.778 121.724 322.731 119.356 321.943 119.029C320.634 118.479 318.433 118.591 317.939 121.136C317.879 121.612 317.701 122.065 317.42 122.454C317.139 122.842 316.764 123.154 316.331 123.36C316.401 123.607 316.863 123.905 317.66 124.474C319.934 126.11 321.389 126.595 323.356 126.404C325.323 126.213 329.038 125.709 329.225 127.173C329.411 128.637 328.558 132.906 328.67 133.261C328.782 133.615 329.234 133.517 329.602 133.321Z" fill="#194866"/>
<path d="M326.163 136.831C326.136 137.006 326.179 137.185 326.283 137.328C326.387 137.471 326.543 137.567 326.718 137.596L328.643 137.904C328.729 137.918 328.818 137.916 328.903 137.896C328.988 137.876 329.069 137.839 329.14 137.788C329.211 137.737 329.271 137.672 329.317 137.598C329.363 137.523 329.394 137.44 329.407 137.354L329.976 133.834C330.003 133.659 329.96 133.48 329.856 133.336C329.753 133.192 329.596 133.095 329.421 133.065L327.496 132.757C327.321 132.73 327.143 132.774 327 132.877C326.857 132.981 326.76 133.137 326.732 133.312L326.163 136.831Z" fill="#E9D6B8"/>
<path d="M314.691 134.99C314.676 135.076 314.679 135.164 314.699 135.25C314.719 135.335 314.755 135.416 314.806 135.487C314.857 135.558 314.922 135.618 314.997 135.664C315.071 135.71 315.155 135.741 315.241 135.754L317.166 136.062C317.253 136.076 317.342 136.074 317.427 136.053C317.513 136.033 317.594 135.996 317.665 135.945C317.736 135.893 317.796 135.828 317.842 135.753C317.887 135.678 317.918 135.594 317.931 135.507L318.495 131.992C318.523 131.817 318.48 131.637 318.376 131.493C318.272 131.349 318.115 131.252 317.94 131.223L316.019 130.916C315.844 130.889 315.665 130.932 315.521 131.035C315.377 131.139 315.28 131.295 315.25 131.47L314.691 134.99Z" fill="#E9D6B8"/>
<path d="M328.586 134.342C328.586 134.342 327.752 139.535 327.472 141.269C327.221 142.835 326.046 146.168 317.217 144.751C311.978 143.912 312.789 140.09 312.989 138.831C313.143 137.866 314.695 135.158 315.32 134.697L314.975 136.836C315.44 136.267 316.045 135.828 316.731 135.563C317.416 135.299 318.159 135.217 318.886 135.326C322.904 135.969 323.44 138.463 325.216 138.71C326.568 138.892 327.948 136.836 328.586 134.342Z" fill="#194866"/>
<path d="M319.982 138.999L317.231 138.533C317.057 138.505 316.901 138.408 316.797 138.265C316.693 138.122 316.65 137.944 316.677 137.769L316.737 137.382L320.807 138.034L320.746 138.421C320.735 138.51 320.706 138.595 320.661 138.672C320.616 138.75 320.557 138.817 320.485 138.871C320.414 138.925 320.333 138.964 320.246 138.986C320.16 139.008 320.07 139.012 319.982 138.999Z" fill="#E9D6B8"/>
<path d="M269.312 150.191C269.312 150.191 270.635 145.707 269.95 144.597C269.265 143.488 266.505 139.563 266.505 139.563L265.713 138.631C265.713 138.631 264.277 139.004 266.179 141.614C268.081 144.224 266.496 143.479 266.496 143.479L263.956 141.815L260.693 140.034L259.341 139.046C259.341 139.046 258.609 138.421 258.32 138.43C257.481 138.468 257.816 139.143 257.816 139.143L262.776 143.469L257.182 140.817C257.182 140.817 256.413 140.607 256.175 140.971C255.938 141.334 256.175 141.437 256.175 141.437L261.839 146.038L258.814 145.017C258.814 145.017 258.059 144.83 257.807 145.175C257.555 145.52 257.448 145.642 257.448 145.642L268.594 151.296L269.312 150.191Z" fill="#E9D6B8"/>
<path d="M261.965 144.351L257.937 142.728C257.507 142.489 257.03 142.347 256.539 142.313C256.46 142.316 256.382 142.335 256.311 142.368C256.239 142.401 256.174 142.448 256.12 142.506C256.067 142.564 256.025 142.632 255.998 142.706C255.97 142.78 255.958 142.859 255.961 142.938L261.82 146.024L261.965 144.351Z" fill="#E9D6B8"/>
<path d="M54.0258 197.024L55.8065 220.024C55.8065 220.024 62.0155 207.699 62.6821 199.047C63.3487 190.396 53.8533 196.679 54.0258 197.024Z" fill="#E9D6B8"/>
<path d="M12.8934 183.913L24.1882 202.275C24.1882 202.275 7.40692 194.206 8.25997 186.696C9.11302 179.187 12.8934 183.913 12.8934 183.913Z" fill="#E9D6B8"/>
<path d="M41.4831 140.332C41.264 142.957 39.8515 145.232 38.3691 145.339H34.1459C32.6636 145.232 31.2511 142.957 31.032 140.332C30.687 136.007 30.3406 131.679 29.9925 127.35C29.7641 124.754 30.7756 119.547 33.0224 118.027C33.9676 117.358 35.0971 116.999 36.2552 116.999C37.4133 116.999 38.5428 117.358 39.488 118.027C41.7348 119.566 42.751 124.772 42.5226 127.35C42.1745 131.676 41.828 136.003 41.4831 140.332Z" fill="#E9D6B8"/>
<path d="M53.7334 146.918C53.7334 146.918 59.2339 150.536 62.4177 172.51C65.6014 194.484 63.5784 193.645 63.5784 193.645L63.0003 198.656L54.8894 199.49L50.2559 180.574L53.7334 146.918Z" fill="#D0D0D0"/>
<path d="M55.7566 147.193L42.9842 141.427L36.3929 143.399L28.2446 142.467L19.2667 146.359C19.2667 146.359 15.2112 150.256 18.9777 162.772C22.7442 175.288 22.1801 195.957 22.1801 195.957L54.7824 198.027C54.7824 198.027 52.5728 154.139 55.7566 147.193Z" fill="#E2E3E4"/>
<path d="M25.0548 146.918C25.0548 146.918 20.1322 144.122 15.2097 150.256C6.81907 160.684 2.7589 173.619 1.8872 176.127C1.01551 178.635 -0.135821 186.14 3.33697 188.364L6.80974 190.587L14.0537 186.14L12.893 183.912L12.3149 182.513C12.3149 182.513 16.3704 173.61 20.7056 165.546C25.0407 157.481 25.0548 146.918 25.0548 146.918Z" fill="#E2E3E4"/>
<path d="M34.7791 143.115L31.5581 146.635L28.3369 141.992L30.2715 139.13L34.7791 143.115Z" fill="#D0D0D0"/>
<path d="M41.8557 139.404L35.6606 143.399L38.5881 146.913L43.422 141.427L41.8557 139.404Z" fill="#D0D0D0"/>
<path d="M36.8765 114.951V111.949H43.3606C44.4078 111.949 45.4119 112.365 46.1524 113.105C46.8928 113.846 47.3089 114.85 47.3089 115.897V118.899H40.8247C39.7776 118.899 38.7734 118.483 38.033 117.743C37.2925 117.002 36.8765 115.998 36.8765 114.951Z" fill="#163F59"/>
<path d="M30.6626 133.162C30.6638 134.093 31.0348 134.986 31.6938 135.644C32.3528 136.302 33.246 136.672 34.1774 136.672H42.1438C43.0715 136.667 43.9595 136.295 44.6137 135.637C45.268 134.98 45.6353 134.09 45.6353 133.162V117.229C45.6359 116.768 45.5455 116.311 45.3694 115.884C45.1933 115.458 44.9349 115.071 44.6089 114.744C44.2829 114.418 43.8957 114.159 43.4696 113.982C43.0434 113.805 42.5865 113.714 42.1252 113.714H34.1587C33.2265 113.714 32.3326 114.085 31.6734 114.744C31.0143 115.403 30.644 116.297 30.644 117.229L30.6626 133.162Z" fill="#E9D6B8"/>
<path d="M36.6248 111.949C35.9698 111.95 35.3253 112.113 34.7493 112.425C34.1732 112.736 33.6837 113.186 33.3245 113.734H31.968C31.157 113.734 30.3792 114.056 29.8057 114.63C29.2322 115.203 28.9102 115.981 28.9102 116.792V124.353H31.0637V121.281C31.0637 120.71 31.2906 120.162 31.6945 119.758C32.0984 119.354 32.6462 119.127 33.2173 119.127H39.7154C40.7625 119.127 41.7668 118.711 42.5073 117.971C43.2477 117.231 43.6636 116.226 43.6636 115.179V111.949H36.6248Z" fill="#163F59"/>
<path d="M31.7408 126.315C31.7408 125.82 31.5444 125.346 31.1947 124.996C30.845 124.647 30.3708 124.45 29.8762 124.45H29.7225C29.228 124.45 28.7536 124.647 28.4039 124.996C28.0543 125.346 27.8579 125.82 27.8579 126.315V128.59C27.8579 129.084 28.0543 129.558 28.4039 129.908C28.7536 130.258 29.228 130.454 29.7225 130.454H29.8762C30.2396 130.456 30.5956 130.351 30.9004 130.153C31.2051 129.955 31.4455 129.673 31.5917 129.34L31.7408 126.315Z" fill="#E9D6B8"/>
<path d="M33.884 209.806C33.884 209.806 43.7056 244.595 51.5742 257.046C59.4427 269.496 62.1883 253.316 62.1883 253.316L52.3993 195.468L29.5581 195.323C29.5581 195.323 30.1361 196.493 33.884 209.806Z" fill="#163F59"/>
<path d="M44.7363 195.445C44.7363 195.445 38.1776 252.497 37.2126 255.382C34.0289 265.083 26.7477 258.818 25.6243 255.583C24.5009 252.348 22.6269 228.425 23.0045 210.968C23.3821 193.51 23.3728 194.652 23.3728 194.652L44.7363 195.445Z" fill="#194866"/>
<path d="M24.6872 307.502C24.3469 307.912 24.594 308.993 24.594 308.993C24.594 308.993 30.5139 309.65 32.4158 309.203C33.1591 308.958 33.871 308.626 34.5368 308.215C34.6673 308.136 34.9051 307.683 35.0309 307.604C35.2687 307.464 35.3945 307.702 35.595 307.571C35.9156 307.39 36.2197 307.181 36.5039 306.947C37.0213 304.229 36.3315 303.138 36.3315 303.138C36.3315 303.138 31.2878 301.465 30.3461 302.63C28.1226 305.371 25.4284 306.597 24.6872 307.502Z" fill="#161711"/>
<path d="M61.4849 305.054L62.3239 309.469H66.8222C66.8222 309.469 67.0693 308.844 67.4562 308.844C67.7732 308.844 68.1881 309.469 68.6216 309.469H80.0608C80.0608 309.469 80.2659 308.537 80.0188 308.22C79.5899 307.944 79.1169 307.744 78.6204 307.628C76.2897 306.98 69.6518 304.938 68.4957 302.724C67.1113 300.043 61.4849 305.054 61.4849 305.054Z" fill="#161711"/>
<path d="M38.8811 231.054C38.8811 231.054 37.4221 252.697 37.6318 264.15C37.7857 272.778 37.8042 289.322 36.4897 303.423C36.4104 304.285 29.3717 303.632 29.3717 303.632C29.3717 303.632 24.645 249.681 23.8945 240.843C23.144 232.004 33.2593 224.719 38.8811 231.054Z" fill="#194866"/>
<path d="M59.7551 254.991C59.7551 254.991 57.7694 255.424 51.509 255.97C48.6609 256.212 59.853 305.903 59.853 305.903L68.7098 302.081L62.0392 252.031L59.7551 254.991Z" fill="#163F59"/>
<path d="M142.156 255.102C141.992 254.211 141.944 253.302 142.012 252.398C142.646 246.977 142.748 241.43 144.641 231.175C146.505 221.218 150.458 206.441 157.283 189.664C157.945 187.953 170.67 188.914 175.873 190.419C177.006 193.56 177.94 196.769 178.669 200.027C183.144 218.206 185.284 228.699 186.193 237.43C187.125 245.895 186.846 252.617 187.307 257.13C181.387 269.832 159.609 246.902 142.156 255.102Z" fill="#194866"/>
<path d="M153.059 200.409C153.083 200.978 152.672 201.742 152.472 202.53C152.011 204.093 151.438 205.619 150.756 207.099C150.33 208.089 149.962 209.104 149.656 210.138C149.19 208.539 149.987 207.639 150.067 206.875C150.146 206.11 150.206 206.409 149.218 207.29C148.659 207.798 148.612 209.592 148.435 210.744C148.393 211.24 148.233 211.72 147.969 212.142C147.838 211.111 147.813 210.069 147.894 209.033C148.027 207.561 148.333 206.109 148.803 204.707C149.429 203.458 150.136 202.251 150.92 201.095C151.314 200.368 151.558 199.57 151.638 198.748C151.718 197.926 151.632 197.096 151.386 196.307C150.985 195.044 152.966 197.831 153.059 200.409Z" fill="#E9D6B8"/>
<path d="M148.98 204.618C148.98 204.618 147.475 207.135 147.372 207.732C147.302 208.147 147.302 210.161 147.302 210.161C147.656 209.659 147.886 209.081 147.973 208.473C148.02 207.667 148.98 204.618 148.98 204.618Z" fill="#E9D6B8"/>
<path d="M288.715 78.9591L290.795 78.9641L288.137 85.3797C287.356 87.2585 286.078 88.1481 284.301 88.0484L284.311 86.0985C285.151 86.1785 285.76 85.881 286.136 85.2059L283.255 78.9459L285.335 78.9509L287.096 82.9332L288.715 78.9591ZM295.788 81.5761L295.778 83.4481L293.178 83.4418L293.155 88.0697L291.205 88.0651L291.238 81.5651L295.788 81.5761ZM300.521 81.4055C301.379 81.4075 302.11 81.743 302.713 82.4117C303.317 83.0719 303.616 83.8829 303.611 84.8449C303.606 85.8069 303.299 86.6208 302.689 87.2867C302.079 87.9439 301.345 88.2715 300.487 88.2694C299.655 88.2674 299.011 88.0015 298.554 87.4717L298.538 90.6827L296.588 90.678L296.633 81.5781L298.583 81.5828L298.58 82.1938C299.042 81.6662 299.689 81.4035 300.521 81.4055ZM298.99 85.9908C299.284 86.2775 299.655 86.4214 300.106 86.4225C300.557 86.4236 300.926 86.2814 301.213 85.9961C301.509 85.7108 301.659 85.3255 301.661 84.8402C301.663 84.3549 301.518 83.9689 301.225 83.6822C300.94 83.3955 300.573 83.2516 300.122 83.2505C299.671 83.2494 299.298 83.3915 299.002 83.6768C298.714 83.9621 298.57 84.3474 298.567 84.8328C298.565 85.3181 298.706 85.7041 298.99 85.9908ZM310.268 87.3049C309.598 87.962 308.782 88.2893 307.82 88.287C306.858 88.2847 306.045 87.9534 305.38 87.2932C304.716 86.6242 304.387 85.8088 304.392 84.8468C304.396 83.8848 304.734 83.0753 305.405 82.4182C306.075 81.7525 306.892 81.4208 307.854 81.4231C308.816 81.4254 309.629 81.761 310.293 82.43C310.957 83.0902 311.286 83.9014 311.282 84.8634C311.277 85.8253 310.939 86.6392 310.268 87.3049ZM306.765 85.9575C307.05 86.2442 307.404 86.388 307.829 86.3891C308.254 86.3901 308.61 86.2479 308.897 85.9626C309.185 85.6773 309.329 85.3093 309.332 84.8587C309.334 84.408 309.193 84.0393 308.908 83.7526C308.624 83.466 308.269 83.3221 307.844 83.3211C307.42 83.3201 307.064 83.4622 306.776 83.7475C306.489 84.0328 306.344 84.4008 306.342 84.8515C306.339 85.3021 306.481 85.6708 306.765 85.9575ZM316.083 84.8229C316.714 85.1624 317.028 85.6745 317.024 86.3592C317.021 86.9225 316.781 87.3899 316.302 87.7614C315.832 88.1243 315.173 88.3047 314.324 88.3027C312.998 88.2995 312.09 87.7816 311.601 86.7491L313.179 85.8169C313.367 86.346 313.76 86.6113 314.358 86.6128C314.869 86.614 315.126 86.4456 315.128 86.1076C315.129 85.8043 314.926 85.6521 314.519 85.6511L313.609 85.649L313.617 84.011L314.319 84.0127C314.726 84.0136 314.931 83.8668 314.932 83.5721C314.934 83.2601 314.731 83.1037 314.324 83.1027C313.838 83.1015 313.482 83.352 313.254 83.8541L311.685 82.9533C312.219 81.9406 313.088 81.4357 314.293 81.4386C315.056 81.4404 315.661 81.6326 316.11 82.015C316.559 82.3974 316.782 82.8573 316.779 83.3946C316.776 84.0272 316.544 84.5034 316.083 84.8229ZM321.057 83.5869C321.837 83.5888 322.456 83.7982 322.913 84.2153C323.37 84.6324 323.597 85.1833 323.594 85.868C323.59 86.5526 323.358 87.1024 322.896 87.5173C322.435 87.9322 321.814 88.1387 321.034 88.1368L317.992 88.1295L318.025 81.6296L319.975 81.6343L319.965 83.5842L321.057 83.5869ZM324.265 81.6446L326.215 81.6493L326.182 88.1492L324.232 88.1445L324.265 81.6446ZM321.056 86.4469C321.246 86.4473 321.398 86.3957 321.512 86.292C321.634 86.1796 321.695 86.0367 321.696 85.8634C321.697 85.6901 321.637 85.5513 321.516 85.447C321.404 85.334 321.252 85.2773 321.062 85.2769L319.957 85.2742L319.951 86.4442L321.056 86.4469ZM272.416 106.02L270.206 106.015L268.14 103.137L268.126 106.01L266.176 106.005L266.208 99.5049L268.158 99.5096L268.144 102.357L270.108 99.5143L272.383 99.5198L270.001 102.764L272.416 106.02ZM278.307 105.228C277.636 105.885 276.82 106.212 275.858 106.21C274.896 106.208 274.083 105.877 273.419 105.216C272.755 104.547 272.425 103.732 272.43 102.77C272.435 101.808 272.773 100.998 273.443 100.341C274.114 99.6756 274.93 99.3439 275.892 99.3462C276.854 99.3485 277.667 99.6842 278.331 100.353C278.995 101.013 279.325 101.824 279.32 102.786C279.315 103.748 278.978 104.562 278.307 105.228ZM274.804 103.881C275.088 104.167 275.443 104.311 275.868 104.312C276.292 104.313 276.648 104.171 276.936 103.886C277.223 103.6 277.368 103.232 277.37 102.782C277.373 102.331 277.231 101.962 276.947 101.676C276.662 101.389 276.308 101.245 275.883 101.244C275.458 101.243 275.102 101.385 274.815 101.671C274.527 101.956 274.383 102.324 274.38 102.775C274.378 103.225 274.519 103.594 274.804 103.881ZM285.968 99.5525L285.935 106.052L283.985 106.048L284.008 101.42L282.604 101.416L282.594 103.353C282.59 104.341 282.339 105.064 281.843 105.523C281.355 105.981 280.639 106.152 279.695 106.037L279.704 104.217C280.007 104.305 280.237 104.262 280.394 104.089C280.559 103.916 280.643 103.626 280.645 103.219L280.664 99.5397L285.968 99.5525ZM293.051 99.5695L293.019 106.069L291.069 106.065L291.092 101.437L289.688 101.433L289.678 103.37C289.674 104.358 289.423 105.081 288.927 105.54C288.439 105.998 287.723 106.169 286.779 106.054L286.788 104.234C287.091 104.322 287.321 104.279 287.478 104.106C287.643 103.933 287.727 103.643 287.729 103.236L287.747 99.5567L293.051 99.5695ZM296.202 103.607C296.425 104.214 296.943 104.519 297.758 104.521C298.286 104.522 298.703 104.358 299.008 104.03L300.564 104.931C299.918 105.822 298.971 106.266 297.723 106.263C296.631 106.26 295.757 105.933 295.102 105.281C294.455 104.63 294.134 103.81 294.139 102.822C294.144 101.843 294.469 101.029 295.113 100.38C295.767 99.7234 296.6 99.396 297.614 99.3985C298.559 99.4007 299.342 99.732 299.962 100.392C300.592 101.044 300.904 101.859 300.899 102.838C300.898 103.116 300.871 103.376 300.817 103.618L296.202 103.607ZM296.171 102.151L298.966 102.158C298.778 101.473 298.321 101.129 297.593 101.127C296.839 101.126 296.365 101.467 296.171 102.151ZM308.229 106.106L306.019 106.101L303.953 103.223L303.939 106.096L301.989 106.091L302.021 99.5911L303.971 99.5958L303.957 102.443L305.921 99.6005L308.196 99.6059L305.814 102.85L308.229 106.106ZM314.243 99.6205L314.234 101.492L312.297 101.488L312.274 106.116L310.324 106.111L310.347 101.483L308.384 101.478L308.393 99.6064L314.243 99.6205ZM320.367 105.329C319.696 105.986 318.88 106.314 317.918 106.311C316.956 106.309 316.143 105.978 315.479 105.317C314.815 104.649 314.485 103.833 314.49 102.871C314.495 101.909 314.832 101.1 315.503 100.443C316.174 99.7768 316.99 99.4451 317.952 99.4474C318.914 99.4497 319.727 99.7853 320.391 100.454C321.055 101.115 321.385 101.926 321.38 102.888C321.375 103.85 321.037 104.663 320.367 105.329ZM316.863 103.982C317.148 104.268 317.502 104.412 317.927 104.413C318.352 104.414 318.708 104.272 318.995 103.987C319.283 103.702 319.427 103.334 319.43 102.883C319.432 102.432 319.291 102.064 319.006 101.777C318.722 101.49 318.367 101.346 317.942 101.345C317.518 101.344 317.162 101.486 316.874 101.772C316.587 102.057 316.442 102.425 316.44 102.876C316.437 103.326 316.579 103.695 316.863 103.982ZM326.387 99.4677C327.245 99.4698 327.975 99.8052 328.579 100.474C329.182 101.134 329.481 101.945 329.477 102.907C329.472 103.869 329.164 104.683 328.554 105.349C327.945 106.006 327.211 106.334 326.353 106.332C325.521 106.33 324.876 106.064 324.42 105.534L324.403 108.745L322.453 108.74L322.499 99.6403L324.449 99.645L324.446 100.256C324.908 99.7285 325.555 99.4657 326.387 99.4677ZM324.856 104.053C325.149 104.34 325.521 104.484 325.972 104.485C326.422 104.486 326.791 104.344 327.079 104.058C327.375 103.773 327.524 103.388 327.527 102.902C327.529 102.417 327.384 102.031 327.09 101.744C326.806 101.458 326.438 101.314 325.988 101.313C325.537 101.312 325.164 101.454 324.867 101.739C324.58 102.024 324.435 102.41 324.433 102.895C324.43 103.38 324.571 103.766 324.856 104.053ZM336.134 105.367C335.463 106.024 334.647 106.352 333.685 106.349C332.723 106.347 331.91 106.016 331.246 105.355C330.582 104.686 330.252 103.871 330.257 102.909C330.262 101.947 330.6 101.137 331.27 100.48C331.941 99.8147 332.757 99.483 333.719 99.4853C334.681 99.4876 335.494 99.8233 336.158 100.492C336.822 101.152 337.152 101.964 337.147 102.926C337.142 103.888 336.805 104.701 336.134 105.367ZM332.631 104.02C332.915 104.306 333.27 104.45 333.695 104.451C334.119 104.452 334.475 104.31 334.763 104.025C335.05 103.74 335.195 103.372 335.197 102.921C335.2 102.47 335.058 102.102 334.774 101.815C334.489 101.528 334.135 101.384 333.71 101.383C333.285 101.382 332.929 101.524 332.642 101.81C332.354 102.095 332.21 102.463 332.207 102.914C332.205 103.364 332.346 103.733 332.631 104.02ZM343.1 102.862C343.679 103.175 343.967 103.666 343.963 104.333C343.96 104.888 343.763 105.338 343.372 105.684C342.988 106.021 342.446 106.188 341.744 106.187L338.234 106.178L338.266 99.6783L341.516 99.6861C342.218 99.6878 342.759 99.8624 343.139 100.21C343.527 100.549 343.72 100.996 343.717 101.55C343.714 102.122 343.508 102.56 343.1 102.862ZM341.301 101.246L340.079 101.243L340.074 102.153L341.296 102.156C341.677 102.156 341.869 102.01 341.87 101.715C341.872 101.403 341.682 101.246 341.301 101.246ZM341.492 104.574C341.873 104.575 342.065 104.415 342.066 104.094C342.068 103.791 341.878 103.639 341.497 103.638L340.067 103.635L340.062 104.571L341.492 104.574Z" fill="white" fill-opacity="0.9"/>
<path d="M37.8788 16.9198L39.9588 16.927L39.9273 26.027L37.8473 26.0197L37.8598 22.4058L34.9998 22.3959L34.9873 26.0098L32.9073 26.0026L32.9388 16.9027L35.0188 16.9099L35.0068 20.3939L37.8667 20.4038L37.8788 16.9198ZM46.1658 19.5485L48.1158 19.5553L48.0932 26.0553L46.1433 26.0485L46.1454 25.4375C45.6842 25.9646 45.0376 26.2267 44.2056 26.2238C43.3476 26.2208 42.6164 25.8889 42.0121 25.2282C41.4077 24.5587 41.1072 23.743 41.1105 22.781C41.1139 21.819 41.42 21.0098 42.029 20.3532C42.6379 19.688 43.3714 19.3569 44.2294 19.3598C45.0614 19.3627 45.7062 19.6293 46.1637 20.1595L46.1658 19.5485ZM43.4855 23.9463C43.7705 24.2333 44.1427 24.3776 44.602 24.3792C45.0614 24.3807 45.4345 24.239 45.7215 23.954C46.0085 23.669 46.1528 23.2839 46.1545 22.7985C46.1562 22.3132 46.0145 21.927 45.7295 21.64C45.4445 21.3531 45.0724 21.2088 44.613 21.2072C44.1537 21.2056 43.7805 21.3473 43.4935 21.6323C43.2066 21.9173 43.0622 22.3025 43.0605 22.7878C43.0589 23.2731 43.2005 23.6593 43.4855 23.9463ZM54.3843 22.749C54.9639 23.0631 55.2526 23.5537 55.2502 24.2211C55.2483 24.7757 55.0518 25.2257 54.6606 25.571C54.2781 25.9077 53.7358 26.0748 53.0338 26.0724L49.5238 26.0602L49.5464 19.5603L52.7963 19.5715C53.4983 19.574 54.0394 19.7492 54.4195 20.0972C54.8084 20.4365 55.0018 20.8835 54.9999 21.4382C54.9979 22.0102 54.7927 22.4471 54.3843 22.749ZM52.5829 21.1308L51.361 21.1266L51.3578 22.0366L52.5798 22.0408C52.9611 22.0421 53.1523 21.8954 53.1533 21.6008C53.1544 21.2888 52.9643 21.1321 52.5829 21.1308ZM52.7794 24.4595C53.1607 24.4608 53.352 24.3011 53.3531 23.9805C53.3541 23.6771 53.164 23.5248 52.7827 23.5235L51.3527 23.5185L51.3494 24.4545L52.7794 24.4595ZM61.3778 19.6013L61.3553 26.1012L59.4573 26.0947L59.4638 24.2227L59.0608 24.2213L57.7153 26.0886L55.5053 26.081L57.0338 23.9412C56.6444 23.7406 56.3378 23.4535 56.1137 23.08C55.8897 22.7066 55.7784 22.3119 55.7798 21.8959C55.782 21.2806 56.0005 20.744 56.4354 20.2861C56.8704 19.8196 57.4605 19.5877 58.2058 19.5903L61.3778 19.6013ZM58.3689 21.3069C58.1609 21.3061 57.9917 21.3662 57.8613 21.4871C57.7395 21.5993 57.6783 21.7595 57.6776 21.9675C57.6769 22.1668 57.737 22.323 57.858 22.4361C57.9876 22.5492 58.1564 22.6061 58.3644 22.6068L59.4694 22.6107L59.4739 21.3107L58.3689 21.3069ZM66.7538 22.8179C67.3853 23.1581 67.6998 23.6705 67.6975 24.3552C67.6955 24.9185 67.4556 25.3857 66.9776 25.7567C66.5083 26.1191 65.849 26.2988 64.9997 26.2959C63.6737 26.2913 62.7655 25.7725 62.2751 24.7394L63.8513 23.8089C64.0402 24.3382 64.4336 24.6039 65.0316 24.606C65.5429 24.6077 65.7992 24.4396 65.8003 24.1016C65.8014 23.7983 65.5982 23.6459 65.1909 23.6445L64.2809 23.6414L64.2866 22.0034L64.9886 22.0058C65.3959 22.0072 65.6001 21.8606 65.6011 21.5659C65.6022 21.2539 65.3991 21.0972 64.9917 21.0958C64.5064 21.0941 64.1502 21.3442 63.9231 21.8461L62.3533 20.9437C62.8854 19.9315 63.7538 19.4275 64.9585 19.4317C65.7212 19.4343 66.3272 19.6271 66.7765 20.01C67.2259 20.3929 67.4496 20.853 67.4477 21.3903C67.4455 22.023 67.2142 22.4989 66.7538 22.8179ZM72.2688 19.639L74.2188 19.6458L74.1963 26.1457L72.2463 26.139L72.253 24.189C71.7846 24.326 71.3077 24.3937 70.8223 24.392C70.051 24.3894 69.4234 24.1879 68.9394 23.7875C68.4642 23.3785 68.2279 22.7927 68.2305 22.03L68.2388 19.6251L70.1888 19.6318L70.1814 21.7768C70.1796 22.3055 70.5253 22.571 71.2186 22.5734C71.6173 22.5748 71.9642 22.5066 72.2593 22.369L72.2688 19.639ZM80.3277 19.667L81.7577 19.6719L81.7352 26.1719L79.8372 26.1653L79.8485 22.9153L77.0552 26.1557L75.6252 26.1507L75.6478 19.6507L77.5458 19.6573L77.5345 22.9073L80.3277 19.667ZM88.0267 22.8657C88.6063 23.1797 88.8949 23.6703 88.8926 24.3377C88.8907 24.8923 88.6941 25.3423 88.3029 25.6876C87.9204 26.0243 87.3782 26.1914 86.6762 26.189L83.1662 26.1768L83.1887 19.6769L86.4387 19.6881C87.1407 19.6906 87.6818 19.8658 88.0619 20.2138C88.4507 20.5531 88.6442 21.0001 88.6423 21.5548C88.6403 22.1268 88.4351 22.5637 88.0267 22.8657ZM86.2253 21.2474L85.0033 21.2432L85.0002 22.1532L86.2222 22.1574C86.6035 22.1587 86.7947 22.0121 86.7957 21.7174C86.7968 21.4054 86.6067 21.2487 86.2253 21.2474ZM86.4218 24.5761C86.8031 24.5774 86.9943 24.4178 86.9954 24.0971C86.9965 23.7938 86.8064 23.6414 86.425 23.6401L84.995 23.6352L84.9918 24.5712L86.4218 24.5761ZM92.9144 21.6606C93.6944 21.6633 94.3133 21.8734 94.7712 22.291C95.2291 22.7086 95.4568 23.2597 95.4545 23.9444C95.4521 24.6291 95.2205 25.1786 94.7597 25.593C94.299 26.0074 93.6786 26.2133 92.8986 26.2106L89.8566 26.2L89.8791 19.7001L91.8291 19.7068L91.8224 21.6568L92.9144 21.6606ZM96.1191 19.7217L98.0691 19.7284L98.0466 26.2284L96.0966 26.2217L96.1191 19.7217ZM92.9174 24.5206C93.1081 24.5213 93.26 24.4698 93.373 24.3662C93.4947 24.254 93.5559 24.1112 93.5565 23.9378C93.5571 23.7645 93.4969 23.6256 93.3759 23.5212C93.2636 23.4081 93.1122 23.3513 92.9215 23.3506L91.8165 23.3468L91.8125 24.5168L92.9174 24.5206ZM101.23 23.7694C101.453 24.3769 101.972 24.682 102.787 24.6848C103.316 24.6867 103.732 24.5234 104.037 24.1952L105.594 25.0976C104.949 25.988 104.003 26.4311 102.755 26.4267C101.663 26.4229 100.789 26.0949 100.132 25.4426C99.4846 24.7904 99.1624 23.9703 99.1659 22.9823C99.1693 22.0029 99.4927 21.1894 100.136 20.5416C100.789 19.8852 101.622 19.5588 102.636 19.5623C103.58 19.5656 104.364 19.8976 104.985 20.5584C105.616 21.2106 105.929 22.0264 105.926 23.0057C105.925 23.283 105.898 23.5429 105.845 23.7854L101.23 23.7694ZM101.196 22.3133L103.991 22.323C103.803 21.6377 103.345 21.2937 102.617 21.2912C101.863 21.2886 101.389 21.6293 101.196 22.3133ZM36.7433 40.714C37.3748 41.0542 37.6894 41.5666 37.687 42.2513C37.6851 42.8146 37.4451 43.2818 36.9671 43.6528C36.4979 44.0152 35.8386 44.1949 34.9893 44.192C33.6633 44.1874 32.7551 43.6685 32.2646 42.6355L33.8409 41.705C34.0297 42.2343 34.4231 42.5 35.0211 42.5021C35.5325 42.5038 35.7887 42.3357 35.7899 41.9977C35.7909 41.6944 35.5878 41.542 35.1805 41.5406L34.2705 41.5374L34.2761 39.8995L34.9781 39.9019C35.3855 39.9033 35.5896 39.7567 35.5907 39.462C35.5917 39.15 35.3886 38.9933 34.9813 38.9919C34.496 38.9902 34.1398 39.2403 33.9127 39.7422L32.3428 38.8397C32.875 37.8276 33.7434 37.3236 34.9481 37.3278C35.7107 37.3304 36.3167 37.5232 36.7661 37.9061C37.2154 38.289 37.4391 38.7491 37.4373 39.2864C37.4351 39.9191 37.2038 40.3949 36.7433 40.714ZM43.5183 40.7115C44.0979 41.0255 44.3865 41.5162 44.3842 42.1835C44.3823 42.7382 44.1857 43.1882 43.7945 43.5335C43.412 43.8701 42.8698 44.0373 42.1678 44.0348L38.6578 44.0227L38.6803 37.5227L41.9303 37.534C42.6323 37.5364 43.1734 37.7116 43.5535 38.0596C43.9423 38.3989 44.1358 38.846 44.1339 39.4006C44.1319 39.9726 43.9267 40.4096 43.5183 40.7115ZM41.7169 39.0932L40.4949 39.089L40.4918 39.999L41.7138 40.0032C42.0951 40.0046 42.2863 39.8579 42.2873 39.5632C42.2884 39.2512 42.0982 39.0946 41.7169 39.0932ZM41.9134 42.4219C42.2947 42.4233 42.4859 42.2636 42.487 41.9429C42.4881 41.6396 42.2979 41.4873 41.9166 41.4859L40.4866 41.481L40.4834 42.417L41.9134 42.4219ZM50.915 43.2591C50.2453 43.9155 49.4295 44.242 48.4675 44.2387C47.5055 44.2353 46.692 43.9032 46.027 43.2422C45.362 42.5726 45.0311 41.7567 45.0345 40.7947C45.0378 39.8328 45.3743 39.0236 46.0439 38.3672C46.7135 37.7022 47.5293 37.3714 48.4913 37.3747C49.4533 37.378 50.2668 37.7145 50.9318 38.3842C51.5969 39.0452 51.9278 39.8566 51.9244 40.8186C51.9211 41.7806 51.5846 42.5941 50.915 43.2591ZM47.4096 41.908C47.6946 42.195 48.0495 42.3392 48.4741 42.3407C48.8988 42.3422 49.2546 42.2004 49.5416 41.9154C49.8286 41.6304 49.9729 41.2625 49.9744 40.8119C49.976 40.3612 49.8343 39.9924 49.5493 39.7054C49.2643 39.4184 48.9094 39.2742 48.4848 39.2727C48.0601 39.2712 47.7043 39.413 47.4173 39.698C47.1303 39.983 46.986 40.3508 46.9844 40.8015C46.9829 41.2522 47.1246 41.621 47.4096 41.908ZM57.1986 37.5869L59.1486 37.5937L59.1261 44.0936L57.1761 44.0869L57.1842 41.7469L54.9742 41.7392L54.9661 44.0792L53.0161 44.0724L53.0386 37.5725L54.9886 37.5792L54.9805 39.9192L57.1905 39.9269L57.1986 37.5869ZM66.797 44.1202L64.5871 44.1125L62.517 41.2323L62.5071 44.1053L60.5571 44.0986L60.5796 37.5986L62.5296 37.6054L62.5197 40.4524L64.4796 37.6121L66.7546 37.62L64.3773 40.8618L66.797 44.1202ZM72.2166 37.6389L73.6466 37.6439L73.624 44.1439L71.726 44.1373L71.7373 40.8873L68.9441 44.1276L67.5141 44.1227L67.5366 37.6227L69.4346 37.6293L69.4233 40.8793L72.2166 37.6389ZM37.42 55.5184L38.85 55.5234L38.8275 62.0234L36.9295 62.0168L36.9408 58.7668L34.1475 62.0071L32.7175 62.0022L32.74 55.5022L34.638 55.5088L34.6268 58.7588L37.42 55.5184ZM44.2219 58.74C44.8534 59.0802 45.168 59.5927 45.1656 60.2773C45.1636 60.8406 44.9237 61.3078 44.4457 61.6788C43.9765 62.0412 43.3172 62.2209 42.4678 62.218C41.1419 62.2134 40.2336 61.6946 39.7432 60.6615L41.3195 59.731C41.5083 60.2603 41.9017 60.526 42.4997 60.5281C43.011 60.5299 43.2673 60.3617 43.2685 60.0237C43.2695 59.7204 43.0664 59.568 42.659 59.5666L41.749 59.5635L41.7547 57.9255L42.4567 57.9279C42.864 57.9293 43.0682 57.7827 43.0692 57.488C43.0703 57.176 42.8672 57.0193 42.4599 57.0179C41.9745 57.0162 41.6183 57.2663 41.3913 57.7682L39.8214 56.8658C40.3536 55.8536 41.222 55.3496 42.4266 55.3538C43.1893 55.3564 43.7953 55.5492 44.2446 55.9321C44.694 56.315 44.9177 56.7751 44.9159 57.3124C44.9137 57.9451 44.6824 58.421 44.2219 58.74ZM52.5317 62.2529C51.4744 62.2492 50.6305 61.9126 50.0002 61.2431C49.3785 60.5736 49.0694 59.7275 49.073 58.7049C49.0768 57.5955 49.2445 56.7381 49.5759 56.1326C49.9073 55.5271 50.5722 54.979 51.5706 54.4885C51.6835 54.4369 51.8614 54.3508 52.1045 54.2303C52.3563 54.1099 52.5169 54.0324 52.5863 53.998C52.6645 53.9549 52.786 53.8904 52.951 53.8043C53.116 53.7095 53.2246 53.6362 53.2768 53.5844C53.3376 53.5239 53.4159 53.4462 53.5116 53.3512C53.6159 53.2562 53.6942 53.1612 53.7466 53.066C53.8076 52.9622 53.8643 52.8454 53.9168 52.7156L55.5256 53.6442C55.4025 54.1551 55.1497 54.5616 54.7673 54.8636C54.3937 55.1569 53.8293 55.4453 53.0743 55.7287C52.5363 55.9262 52.1456 56.1242 51.9023 56.3226C51.6676 56.5125 51.4978 56.7329 51.393 56.9839C51.8537 56.5781 52.4481 56.3765 53.1761 56.3791C53.8434 56.3814 54.4578 56.6435 55.0194 57.1655C55.5809 57.6787 55.8602 58.3644 55.8572 59.2224C55.8541 60.115 55.5483 60.8463 54.9396 61.4162C54.3397 61.9775 53.537 62.2563 52.5317 62.2529ZM51.5121 60.1173C51.7886 60.3696 52.1261 60.4964 52.5248 60.4978C52.9235 60.4992 53.2532 60.379 53.5141 60.1373C53.7749 59.8955 53.906 59.5883 53.9072 59.2156C53.9086 58.8343 53.7753 58.5218 53.5075 58.2782C53.2397 58.026 52.9021 57.8991 52.4948 57.8977C52.1308 57.8964 51.8097 58.0123 51.5316 58.2454C51.2535 58.4697 51.1138 58.7726 51.1124 59.1539C51.1111 59.5439 51.2443 59.8651 51.5121 60.1173ZM61.5038 55.6019L63.4538 55.6087L63.4313 62.1086L61.4813 62.1019L61.4834 61.4909C61.0222 62.018 60.3756 62.2801 59.5436 62.2772C58.6857 62.2742 57.9545 61.9423 57.3501 61.2816C56.7457 60.6121 56.4452 59.7964 56.4486 58.8344C56.4519 57.8724 56.758 57.0631 57.367 56.4066C57.976 55.7414 58.7094 55.4102 59.5674 55.4132C60.3994 55.4161 61.0442 55.6827 61.5017 56.2129L61.5038 55.6019ZM58.8235 59.9997C59.1085 60.2866 59.4807 60.4309 59.94 60.4325C60.3994 60.4341 60.7725 60.2924 61.0595 60.0074C61.3465 59.7224 61.4908 59.3372 61.4925 58.8519C61.4942 58.3666 61.3526 57.9804 61.0675 57.6934C60.7825 57.4064 60.4104 57.2621 59.951 57.2606C59.4917 57.259 59.1185 57.4007 58.8316 57.6857C58.5446 57.9707 58.4002 58.3558 58.3985 58.8412C58.3969 59.3265 58.5385 59.7127 58.8235 59.9997ZM69.0444 55.6281L70.9943 55.6348L70.9718 62.1348L69.0218 62.128L69.0299 59.788L66.82 59.7804L66.8118 62.1204L64.8619 62.1136L64.8844 55.6136L66.8344 55.6204L66.8263 57.9604L69.0362 57.968L69.0444 55.6281ZM78.6428 62.1614L76.4328 62.1537L74.3628 59.2735L74.3528 62.1465L72.4028 62.1397L72.4254 55.6398L74.3753 55.6465L74.3655 58.4935L76.3253 55.6533L78.6003 55.6612L76.2231 58.903L78.6428 62.1614ZM84.533 61.3758C83.8634 62.0321 83.0476 62.3586 82.0856 62.3553C81.1236 62.352 80.3101 62.0198 79.6451 61.3588C78.98 60.6892 78.6492 59.8734 78.6525 58.9114C78.6559 57.9494 78.9923 57.1402 79.6619 56.4839C80.3316 55.8189 81.1474 55.488 82.1094 55.4913C83.0714 55.4947 83.8849 55.8312 84.5499 56.5008C85.215 57.1618 85.5458 57.9733 85.5425 58.9353C85.5392 59.8973 85.2027 60.7108 84.533 61.3758ZM81.0277 60.0246C81.3127 60.3116 81.6675 60.4558 82.0922 60.4573C82.5169 60.4588 82.8727 60.317 83.1597 60.032C83.4467 59.747 83.5909 59.3792 83.5925 58.9285C83.5941 58.4778 83.4523 58.109 83.1673 57.822C82.8823 57.535 82.5275 57.3908 82.1028 57.3893C81.6782 57.3879 81.3223 57.5296 81.0353 57.8146C80.7484 58.0996 80.6041 58.4675 80.6025 58.9181C80.601 59.3688 80.7427 59.7376 81.0277 60.0246ZM91.4947 58.8779C92.0743 59.1919 92.3629 59.6826 92.3606 60.3499C92.3587 60.9046 92.1621 61.3546 91.7709 61.6999C91.3884 62.0365 90.8462 62.2037 90.1442 62.2012L86.6342 62.1891L86.6567 55.6891L89.9067 55.7004C90.6087 55.7028 91.1498 55.878 91.5299 56.226C91.9187 56.5654 92.1122 57.0124 92.1102 57.567C92.1083 58.139 91.9031 58.576 91.4947 58.8779ZM89.6933 57.2596L88.4713 57.2554L88.4681 58.1654L89.6901 58.1696C90.0715 58.171 90.2626 58.0243 90.2637 57.7296C90.2647 57.4176 90.0746 57.261 89.6933 57.2596ZM89.8898 60.5883C90.2711 60.5897 90.4623 60.43 90.4634 60.1093C90.4645 59.806 90.2743 59.6537 89.893 59.6523L88.463 59.6474L88.4598 60.5834L89.8898 60.5883Z" fill="white"/>
<path d="M189.032 29.1514L189.001 38.2513L186.921 38.2439L186.945 31.146L184.215 31.1363L184.191 38.2342L182.111 38.2268L182.142 29.1269L189.032 29.1514ZM196.068 37.4704C195.398 38.1267 194.582 38.4531 193.62 38.4497C192.658 38.4463 191.845 38.1141 191.18 37.453C190.515 36.7833 190.184 35.9675 190.187 35.0055C190.19 34.0435 190.527 33.2344 191.196 32.5781C191.866 31.9131 192.682 31.5823 193.644 31.5858C194.606 31.5892 195.419 31.9257 196.084 32.5954C196.749 33.2565 197.08 34.068 197.077 35.03C197.074 35.992 196.737 36.8055 196.068 37.4704ZM192.562 36.1189C192.847 36.406 193.202 36.5502 193.627 36.5517C194.052 36.5532 194.407 36.4115 194.694 36.1265C194.981 35.8415 195.126 35.4737 195.127 35.0231C195.129 34.5724 194.987 34.2035 194.702 33.9165C194.417 33.6295 194.062 33.4853 193.637 33.4837C193.213 33.4822 192.857 33.624 192.57 33.909C192.283 34.1939 192.139 34.5618 192.137 35.0124C192.136 35.4631 192.277 35.8319 192.562 36.1189ZM201.288 38.477C200.3 38.4735 199.478 38.1412 198.822 37.4802C198.174 36.8192 197.852 36.0034 197.855 35.0327C197.858 34.0621 198.186 33.2486 198.838 32.5922C199.499 31.9359 200.324 31.6095 201.312 31.613C201.936 31.6152 202.507 31.7689 203.026 32.0741C203.554 32.3793 203.96 32.7838 204.244 33.2874L202.538 34.2694C202.305 33.7832 201.886 33.5391 201.279 33.5369C200.854 33.5354 200.503 33.6771 200.225 33.9622C199.946 34.2385 199.806 34.5977 199.805 35.0397C199.803 35.4817 199.941 35.8462 200.217 36.1331C200.494 36.4115 200.844 36.5514 201.269 36.5529C201.884 36.5551 202.305 36.3139 202.532 35.8294L204.232 36.8104C203.944 37.3207 203.54 37.7266 203.019 38.0281C202.498 38.3296 201.921 38.4792 201.288 38.477ZM210.299 31.8269L210.292 33.6989L208.355 33.692L208.34 38.32L206.39 38.3131L206.405 33.6851L204.442 33.6781L204.449 31.8062L210.299 31.8269ZM216.431 37.5428C215.761 38.1991 214.946 38.5255 213.984 38.5221C213.022 38.5187 212.208 38.1864 211.543 37.5254C210.878 36.8557 210.547 36.0399 210.55 35.0779C210.553 34.1159 210.89 33.3067 211.559 32.6504C212.229 31.9855 213.045 31.6547 214.007 31.6581C214.969 31.6615 215.782 31.9981 216.447 32.6678C217.112 33.3288 217.443 34.1403 217.44 35.1023C217.437 36.0643 217.1 36.8778 216.431 37.5428ZM212.925 36.1913C213.21 36.4783 213.565 36.6226 213.99 36.6241C214.415 36.6256 214.77 36.4839 215.057 36.1989C215.344 35.9139 215.489 35.5461 215.49 35.0954C215.492 34.6447 215.35 34.2759 215.065 33.9889C214.78 33.7019 214.425 33.5576 214 33.5561C213.576 33.5546 213.22 33.6963 212.933 33.9813C212.646 34.2663 212.502 34.6341 212.5 35.0848C212.499 35.5354 212.64 35.9043 212.925 36.1913ZM223.695 31.8745L223.673 38.3745L221.775 38.3678L221.782 36.4958L221.379 36.4943L220.033 38.3616L217.823 38.3537L219.351 36.2141C218.962 36.0134 218.655 35.7263 218.431 35.3529C218.207 34.9794 218.096 34.5847 218.097 34.1687C218.099 33.5533 218.318 33.0168 218.753 32.559C219.188 32.0925 219.778 31.8606 220.523 31.8633L223.695 31.8745ZM220.686 33.5799C220.478 33.5791 220.309 33.6392 220.179 33.7601C220.057 33.8723 219.996 34.0324 219.995 34.2404C219.994 34.4397 220.055 34.596 220.176 34.7091C220.305 34.8222 220.474 34.8791 220.682 34.8799L221.787 34.8838L221.791 33.5838L220.686 33.5799ZM229.29 31.8944L231.24 31.9014L231.218 38.4013L229.268 38.3944L229.276 36.0544L227.066 36.0466L227.058 38.3865L225.108 38.3796L225.13 31.8796L227.08 31.8866L227.072 34.2266L229.282 34.2344L229.29 31.8944ZM236.831 31.9212L238.781 31.9282L238.759 38.4281L236.809 38.4212L236.817 36.0812L234.607 36.0733L234.599 38.4133L232.649 38.4064L232.671 31.9064L234.621 31.9134L234.613 34.2534L236.823 34.2612L236.831 31.9212ZM244.931 31.95L246.881 31.9569L246.859 38.4569L244.909 38.45L244.911 37.839C244.45 38.366 243.804 38.628 242.972 38.6251C242.114 38.622 241.382 38.2901 240.778 37.6293C240.174 36.9598 239.873 36.1441 239.876 35.1821C239.879 34.2201 240.186 33.4108 240.794 32.7543C241.403 32.0891 242.137 31.7581 242.995 31.7611C243.827 31.7641 244.472 32.0307 244.929 32.561L244.931 31.95ZM242.251 36.3475C242.536 36.6345 242.908 36.7789 243.368 36.7805C243.827 36.7821 244.2 36.6404 244.487 36.3555C244.774 36.0705 244.919 35.6853 244.92 35.2C244.922 34.7147 244.78 34.3285 244.495 34.0415C244.21 33.7545 243.838 33.6101 243.379 33.6085C242.919 33.6069 242.546 33.7485 242.259 34.0335C241.972 34.3185 241.828 34.7037 241.826 35.189C241.825 35.6743 241.966 36.0605 242.251 36.3475ZM253.707 31.9812L253.685 38.4812L251.787 38.4744L251.793 36.6024L251.39 36.601L250.045 38.4682L247.835 38.4604L249.363 36.3208C248.974 36.1201 248.667 35.833 248.443 35.4595C248.219 35.086 248.108 34.6913 248.109 34.2753C248.111 33.66 248.329 33.1234 248.764 32.6656C249.199 32.1992 249.789 31.9673 250.535 31.9699L253.707 31.9812ZM250.698 33.6865C250.49 33.6858 250.321 33.7458 250.19 33.8667C250.069 33.9789 250.007 34.1391 250.007 34.3471C250.006 34.5464 250.066 34.7026 250.187 34.8157C250.317 34.9288 250.486 34.9858 250.694 34.9865L251.799 34.9904L251.803 33.6904L250.698 33.6865ZM186.167 49.7413L188.117 49.7482L188.095 56.2482L186.145 56.2413L186.153 53.9013L183.943 53.8934L183.935 56.2334L181.985 56.2265L182.007 49.7265L183.957 49.7335L183.949 52.0734L186.159 52.0813L186.167 49.7413ZM191.276 53.7895C191.5 54.3969 192.019 54.7021 192.833 54.705C193.362 54.7069 193.779 54.5437 194.083 54.2155L195.64 55.118C194.996 56.0084 194.05 56.4514 192.802 56.4469C191.71 56.443 190.835 56.1149 190.179 55.4626C189.531 54.8103 189.209 53.9901 189.212 53.0021C189.215 52.0228 189.539 51.2093 190.182 50.5616C190.835 49.9052 191.668 49.5788 192.682 49.5825C193.626 49.5858 194.41 49.9179 195.031 50.5788C195.662 51.2311 195.975 52.0468 195.972 53.0262C195.971 53.3035 195.944 53.5634 195.891 53.8059L191.276 53.7895ZM191.242 52.3334L194.037 52.3433C193.849 51.6579 193.391 51.314 192.663 51.3114C191.909 51.3087 191.435 51.6494 191.242 52.3334ZM202.849 56.3006L200.613 56.2927L199.409 54.5724L198.195 56.2841L195.959 56.2761L198.297 52.9824L196.059 49.7765L198.295 49.7844L199.42 51.4004L200.557 49.7924L202.793 49.8004L200.533 52.9904L202.849 56.3006ZM208.427 52.9924C209.007 53.3065 209.296 53.7972 209.293 54.4645C209.291 55.0192 209.095 55.4691 208.704 55.8144C208.321 56.1511 207.779 56.3181 207.077 56.3156L203.567 56.3032L203.589 49.8032L206.839 49.8148C207.541 49.8173 208.082 49.9925 208.462 50.3405C208.851 50.6799 209.045 51.1269 209.043 51.6816C209.041 52.2536 208.836 52.6905 208.427 52.9924ZM206.626 51.374L205.404 51.3697L205.401 52.2797L206.623 52.284C207.004 52.2854 207.195 52.1387 207.196 51.844C207.197 51.532 207.007 51.3754 206.626 51.374ZM206.823 54.7027C207.204 54.7041 207.395 54.5444 207.396 54.2238C207.397 53.9204 207.207 53.7681 206.826 53.7667L205.396 53.7617L205.393 54.6977L206.823 54.7027ZM214.998 49.8438L216.948 49.8507L216.926 56.3506L214.976 56.3437L214.979 55.7327C214.517 56.2598 213.871 56.5218 213.039 56.5188C212.181 56.5158 211.45 56.1839 210.845 55.523C210.241 54.8535 209.94 54.0378 209.943 53.0758C209.947 52.1138 210.253 51.3046 210.862 50.6481C211.471 49.9829 212.204 49.6518 213.062 49.6549C213.894 49.6578 214.539 49.9245 214.996 50.4548L214.998 49.8438ZM212.319 54.2413C212.604 54.5283 212.976 54.6726 213.435 54.6742C213.894 54.6759 214.268 54.5342 214.555 54.2492C214.841 53.9642 214.986 53.5791 214.987 53.0937C214.989 52.6084 214.847 52.2222 214.562 51.9352C214.277 51.6482 213.905 51.5039 213.446 51.5022C212.986 51.5006 212.613 51.6423 212.326 51.9273C212.039 52.2123 211.895 52.5974 211.893 53.0827C211.892 53.5681 212.033 53.9542 212.319 54.2413ZM223.644 49.8745L223.638 51.7465L221.701 51.7396L221.685 56.3676L219.735 56.3606L219.751 51.7327L217.788 51.7257L217.794 49.8537L223.644 49.8745ZM230.703 56.3996L228.493 56.3918L226.423 53.5114L226.413 56.3844L224.463 56.3774L224.485 49.8775L226.435 49.8844L226.426 52.7314L228.385 49.8913L230.66 49.8994L228.283 53.141L230.703 56.3996ZM235.768 49.9176L237.718 49.9245L237.696 56.4245L235.746 56.4175L235.748 55.8065C235.287 56.3336 234.64 56.5956 233.808 56.5926C232.95 56.5896 232.219 56.2577 231.615 55.5968C231.01 54.9274 230.71 54.1116 230.713 53.1496C230.716 52.1876 231.022 51.3784 231.631 50.7219C232.24 50.0567 232.973 49.7256 233.831 49.7287C234.663 49.7316 235.308 49.9983 235.766 50.5286L235.768 49.9176ZM233.088 54.3151C233.373 54.6021 233.745 54.7464 234.204 54.748C234.664 54.7497 235.037 54.608 235.324 54.323C235.611 54.038 235.755 53.6529 235.757 53.1675C235.758 52.6822 235.617 52.296 235.332 52.009C235.047 51.722 234.675 51.5777 234.215 51.5761C233.756 51.5744 233.383 51.7161 233.096 52.0011C232.809 52.2861 232.664 52.6712 232.663 53.1565C232.661 53.6419 232.803 54.028 233.088 54.3151ZM187.91 72.4276L188.755 72.4306L188.743 75.9926L186.845 75.9859L186.851 74.2439L183.237 74.231L183.231 75.973L181.333 75.9663L181.345 72.4043L182.151 72.4072C182.5 71.8711 182.676 71.122 182.679 70.16L182.687 67.7291L187.926 67.7477L187.91 72.4276ZM184.192 72.4144L186.012 72.4209L186.022 69.4829L184.579 69.4778L184.577 70.1668C184.574 71.0681 184.446 71.8173 184.192 72.4144ZM191.216 71.7894C191.439 72.3968 191.958 72.702 192.773 72.7049C193.301 72.7068 193.718 72.5436 194.022 72.2154L195.579 73.1179C194.935 74.0083 193.989 74.4513 192.741 74.4468C191.649 74.4429 190.774 74.1148 190.118 73.4625C189.47 72.8102 189.148 71.99 189.151 71.002C189.155 70.0227 189.478 69.2092 190.122 68.5615C190.774 67.9051 191.607 67.5787 192.621 67.5823C193.566 67.5857 194.349 67.9178 194.971 68.5787C195.601 69.2309 195.915 70.0467 195.911 71.0261C195.91 71.3034 195.883 71.5633 195.831 71.8058L191.216 71.7894ZM191.182 70.3333L193.977 70.3432C193.788 69.6578 193.33 69.3139 192.602 69.3113C191.848 69.3086 191.375 69.6493 191.182 70.3333ZM201.188 67.7948L203.138 67.8017L203.116 74.3017L201.166 74.2948L201.174 71.9548L198.964 71.9469L198.956 74.2869L197.006 74.28L197.028 67.78L198.978 67.7869L198.97 70.1269L201.18 70.1348L201.188 67.7948ZM206.298 71.843C206.521 72.4504 207.04 72.7556 207.854 72.7585C208.383 72.7604 208.8 72.5972 209.104 72.269L210.661 73.1715C210.017 74.0619 209.071 74.5048 207.823 74.5004C206.731 74.4965 205.856 74.1684 205.2 73.5161C204.552 72.8638 204.23 72.0436 204.233 71.0556C204.237 70.0763 204.56 69.2628 205.203 68.6151C205.856 67.9587 206.689 67.6323 207.703 67.6359C208.647 67.6393 209.431 67.9714 210.052 68.6323C210.683 69.2845 210.996 70.1003 210.993 71.0797C210.992 71.357 210.965 71.6169 210.913 71.8594L206.298 71.843ZM206.263 70.3868L209.058 70.3968C208.87 69.7114 208.412 69.3675 207.684 69.3649C206.93 69.3622 206.456 69.7029 206.263 70.3868ZM216.66 67.8498L216.654 69.7218L214.054 69.7125L214.038 74.3405L212.088 74.3336L212.11 67.8336L216.66 67.8498Z" fill="white"/>
</svg>
