<svg width="1482" height="319" viewBox="0 0 1482 319" fill="none" xmlns="http://www.w3.org/2000/svg">
<rect width="1482" height="308" rx="10" fill="#163F59"/>
<path d="M10 0.000130311C4.47717 0.000130918 3.12706e-07 4.47728 6.98449e-07 10.0001L2.22805e-05 319C39.0497 237.723 180.447 187.751 548.025 133.452C950.751 73.9616 1102.25 49.182 1195 0L10 0.000130311Z" fill="#175B63" fill-opacity="0.2"/>
<path d="M10 0.000130311C4.47717 0.000130918 3.12706e-07 4.47728 6.98449e-07 10.0001L1.82295e-05 261C39.0497 194.5 180.447 153.614 548.025 109.188C950.751 60.514 1102.25 40.2398 1195 0L10 0.000130311Z" fill="#137F7F" fill-opacity="0.2"/>
<path d="M1472 308C1477.52 308 1482 303.523 1482 298L1482 201C1457.25 228.262 1367.61 245.024 1134.6 263.237C879.306 283.192 783.266 291.503 724.473 308L1472 308Z" fill="#FFCF50" fill-opacity="0.2"/>
<path d="M1472 308C1477.52 308 1482 303.523 1482 298L1482 220C1457.25 242.421 1367.61 256.207 1134.6 271.186C879.306 287.597 783.266 294.433 724.473 308L1472 308Z" fill="#FFCF50"/>
<rect x="267.169" y="131.5" width="329" height="59" rx="29.5" stroke="white" stroke-opacity="0.4"/>
<path d="M298.729 166V155.336H302.215C303.372 155.336 304.241 155.575 304.823 156.054C305.408 156.532 305.701 157.24 305.701 158.178C305.701 158.676 305.56 159.118 305.277 159.503C304.993 159.884 304.608 160.18 304.119 160.39C304.696 160.551 305.15 160.858 305.482 161.312C305.819 161.762 305.987 162.299 305.987 162.924C305.987 163.881 305.677 164.633 305.057 165.18C304.437 165.727 303.56 166 302.427 166H298.729ZM300.135 161.012V164.85H302.457C303.111 164.85 303.626 164.682 304.002 164.345C304.383 164.003 304.573 163.534 304.573 162.938C304.573 161.654 303.875 161.012 302.479 161.012H300.135ZM300.135 159.884H302.259C302.874 159.884 303.365 159.73 303.731 159.423C304.102 159.115 304.288 158.698 304.288 158.17C304.288 157.584 304.117 157.16 303.775 156.896C303.433 156.627 302.913 156.493 302.215 156.493H300.135V159.884ZM312.605 166C312.527 165.844 312.463 165.565 312.414 165.165C311.784 165.819 311.032 166.146 310.158 166.146C309.377 166.146 308.735 165.927 308.232 165.487C307.734 165.043 307.485 164.481 307.485 163.803C307.485 162.978 307.798 162.338 308.423 161.884C309.052 161.425 309.936 161.195 311.074 161.195H312.392V160.573C312.392 160.099 312.251 159.723 311.967 159.445C311.684 159.162 311.267 159.02 310.715 159.02C310.232 159.02 309.826 159.142 309.499 159.386C309.172 159.63 309.008 159.926 309.008 160.272H307.646C307.646 159.877 307.785 159.496 308.064 159.13C308.347 158.759 308.728 158.466 309.206 158.251C309.69 158.036 310.219 157.929 310.796 157.929C311.709 157.929 312.424 158.158 312.942 158.617C313.459 159.071 313.728 159.699 313.747 160.5V164.147C313.747 164.875 313.84 165.453 314.026 165.883V166H312.605ZM310.356 164.967C310.781 164.967 311.184 164.857 311.565 164.638C311.945 164.418 312.221 164.132 312.392 163.781V162.155H311.33C309.67 162.155 308.84 162.641 308.84 163.612C308.84 164.037 308.982 164.369 309.265 164.608C309.548 164.848 309.912 164.967 310.356 164.967ZM317.201 158.075V164.894H320.101V158.075H321.456V164.894H324.349V158.075H325.711V166H315.838V158.075H317.201ZM330.989 166.146C329.915 166.146 329.04 165.795 328.367 165.092C327.693 164.384 327.356 163.439 327.356 162.257V162.008C327.356 161.222 327.505 160.521 327.803 159.906C328.105 159.286 328.525 158.803 329.062 158.456C329.604 158.104 330.19 157.929 330.82 157.929C331.851 157.929 332.651 158.268 333.223 158.947C333.794 159.625 334.08 160.597 334.08 161.862V162.426H328.711C328.73 163.207 328.957 163.839 329.392 164.323C329.831 164.801 330.388 165.041 331.062 165.041C331.54 165.041 331.946 164.943 332.278 164.748C332.61 164.552 332.9 164.293 333.149 163.971L333.977 164.616C333.313 165.636 332.317 166.146 330.989 166.146ZM330.82 159.042C330.273 159.042 329.814 159.242 329.443 159.643C329.072 160.038 328.843 160.595 328.755 161.312H332.725V161.21C332.685 160.521 332.5 159.989 332.168 159.613C331.836 159.232 331.387 159.042 330.82 159.042ZM344.202 158.075H345.557V166H344.202V160.221L340.547 166H339.192V158.075H340.547V163.861L344.202 158.075ZM352.145 164.206L354.84 158.075H356.532V166H355.177V160.236L352.614 166H351.676L349.062 160.111V166H347.707V158.075H349.465L352.145 164.206ZM364.622 158.075V166H363.26V162.917H361.216L359.349 166H357.884L359.876 162.711C359.368 162.526 358.978 162.24 358.704 161.854C358.436 161.464 358.301 161.01 358.301 160.492C358.301 159.77 358.572 159.188 359.114 158.749C359.656 158.305 360.381 158.08 361.29 158.075H364.622ZM359.664 160.507C359.664 160.893 359.795 161.205 360.059 161.444C360.323 161.679 360.672 161.798 361.106 161.803H363.26V159.174H361.312C360.809 159.174 360.408 159.298 360.11 159.547C359.813 159.792 359.664 160.111 359.664 160.507Z" fill="white" fill-opacity="0.6"/>
<rect x="617.831" y="131.5" width="329" height="59" rx="29.5" stroke="white" stroke-opacity="0.4"/>
<path d="M654.597 161.071H649.975V164.85H655.344V166H648.569V155.336H655.271V156.493H649.975V159.921H654.597V161.071ZM659.552 162.023H655.977V160.917H659.552V162.023ZM662.002 158.075L662.038 158.954C662.619 158.271 663.403 157.929 664.389 157.929C665.498 157.929 666.252 158.354 666.653 159.203C666.916 158.822 667.258 158.515 667.678 158.28C668.103 158.046 668.603 157.929 669.179 157.929C670.918 157.929 671.802 158.849 671.831 160.69V166H670.476V160.771C670.476 160.204 670.346 159.782 670.088 159.503C669.829 159.22 669.394 159.079 668.784 159.079C668.281 159.079 667.864 159.23 667.532 159.533C667.2 159.831 667.007 160.233 666.953 160.741V166H665.591V160.807C665.591 159.655 665.027 159.079 663.899 159.079C663.01 159.079 662.402 159.457 662.075 160.214V166H660.72V158.075H662.002ZM678.624 166C678.546 165.844 678.483 165.565 678.434 165.165C677.804 165.819 677.052 166.146 676.178 166.146C675.397 166.146 674.755 165.927 674.252 165.487C673.754 165.043 673.505 164.481 673.505 163.803C673.505 162.978 673.817 162.338 674.442 161.884C675.072 161.425 675.956 161.195 677.093 161.195H678.412V160.573C678.412 160.099 678.27 159.723 677.987 159.445C677.704 159.162 677.286 159.02 676.735 159.02C676.251 159.02 675.846 159.142 675.519 159.386C675.192 159.63 675.028 159.926 675.028 160.272H673.666C673.666 159.877 673.805 159.496 674.083 159.13C674.366 158.759 674.747 158.466 675.226 158.251C675.709 158.036 676.239 157.929 676.815 157.929C677.728 157.929 678.444 158.158 678.961 158.617C679.479 159.071 679.747 159.699 679.767 160.5V164.147C679.767 164.875 679.86 165.453 680.045 165.883V166H678.624ZM676.376 164.967C676.8 164.967 677.203 164.857 677.584 164.638C677.965 164.418 678.241 164.132 678.412 163.781V162.155H677.35C675.69 162.155 674.86 162.641 674.86 163.612C674.86 164.037 675.001 164.369 675.284 164.608C675.568 164.848 675.931 164.967 676.376 164.967ZM683.213 166H681.858V158.075H683.213V166ZM681.748 155.973C681.748 155.753 681.814 155.568 681.946 155.417C682.083 155.265 682.283 155.189 682.546 155.189C682.81 155.189 683.01 155.265 683.147 155.417C683.284 155.568 683.352 155.753 683.352 155.973C683.352 156.193 683.284 156.376 683.147 156.522C683.01 156.669 682.81 156.742 682.546 156.742C682.283 156.742 682.083 156.669 681.946 156.522C681.814 156.376 681.748 156.193 681.748 155.973ZM686.71 166H685.355V154.75H686.71V166Z" fill="white" fill-opacity="0.6"/>
<path d="M291.031 72V93H286.231V76.62H279.931V93H275.131V72H291.031ZM307.333 91.14C305.793 92.66 303.913 93.42 301.693 93.42C299.473 93.42 297.593 92.66 296.053 91.14C294.513 89.6 293.743 87.72 293.743 85.5C293.743 83.28 294.513 81.41 296.053 79.89C297.593 78.35 299.473 77.58 301.693 77.58C303.913 77.58 305.793 78.35 307.333 79.89C308.873 81.41 309.643 83.28 309.643 85.5C309.643 87.72 308.873 89.6 307.333 91.14ZM299.233 88.05C299.893 88.71 300.713 89.04 301.693 89.04C302.673 89.04 303.493 88.71 304.153 88.05C304.813 87.39 305.143 86.54 305.143 85.5C305.143 84.46 304.813 83.61 304.153 82.95C303.493 82.29 302.673 81.96 301.693 81.96C300.713 81.96 299.893 82.29 299.233 82.95C298.573 83.61 298.243 84.46 298.243 85.5C298.243 86.54 298.573 87.39 299.233 88.05ZM325.402 88.8H327.352V97.02H322.972V93H314.632V97.02H310.252V88.8H312.112C312.912 87.56 313.312 85.83 313.312 83.61V78H325.402V88.8ZM316.822 88.8H321.022V82.02H317.692V83.61C317.692 85.69 317.402 87.42 316.822 88.8ZM339.894 78H344.394V93H339.894V91.59C338.834 92.81 337.344 93.42 335.424 93.42C333.444 93.42 331.754 92.66 330.354 91.14C328.954 89.6 328.254 87.72 328.254 85.5C328.254 83.28 328.954 81.41 330.354 79.89C331.754 78.35 333.444 77.58 335.424 77.58C337.344 77.58 338.834 78.19 339.894 79.41V78ZM333.744 88.17C334.404 88.83 335.264 89.16 336.324 89.16C337.384 89.16 338.244 88.83 338.904 88.17C339.564 87.51 339.894 86.62 339.894 85.5C339.894 84.38 339.564 83.49 338.904 82.83C338.244 82.17 337.384 81.84 336.324 81.84C335.264 81.84 334.404 82.17 333.744 82.83C333.084 83.49 332.754 84.38 332.754 85.5C332.754 86.62 333.084 87.51 333.744 88.17ZM350.246 76.23V72.33H359.246V76.23H350.246ZM358.496 78H361.796V93H357.416V85.5L350.996 93H347.696V78H352.076V85.5L358.496 78ZM381.718 85.38C383.178 86.16 383.908 87.34 383.908 88.92C383.908 90.22 383.358 91.3 382.258 92.16C381.178 93 379.658 93.42 377.698 93.42C374.638 93.42 372.538 92.23 371.398 89.85L375.028 87.69C375.468 88.91 376.378 89.52 377.758 89.52C378.938 89.52 379.528 89.13 379.528 88.35C379.528 87.65 379.058 87.3 378.118 87.3H376.018V83.52H377.638C378.578 83.52 379.048 83.18 379.048 82.5C379.048 81.78 378.578 81.42 377.638 81.42C376.518 81.42 375.698 82 375.178 83.16L371.548 81.09C372.768 78.75 374.768 77.58 377.548 77.58C379.308 77.58 380.708 78.02 381.748 78.9C382.788 79.78 383.308 80.84 383.308 82.08C383.308 83.54 382.778 84.64 381.718 85.38ZM397.053 78H401.553V93H397.053V91.59C395.993 92.81 394.503 93.42 392.583 93.42C390.603 93.42 388.913 92.66 387.513 91.14C386.113 89.6 385.413 87.72 385.413 85.5C385.413 83.28 386.113 81.41 387.513 79.89C388.913 78.35 390.603 77.58 392.583 77.58C394.503 77.58 395.993 78.19 397.053 79.41V78ZM390.903 88.17C391.563 88.83 392.423 89.16 393.483 89.16C394.543 89.16 395.403 88.83 396.063 88.17C396.723 87.51 397.053 86.62 397.053 85.5C397.053 84.38 396.723 83.49 396.063 82.83C395.403 82.17 394.543 81.84 393.483 81.84C392.423 81.84 391.563 82.17 390.903 82.83C390.243 83.49 389.913 84.38 389.913 85.5C389.913 86.62 390.243 87.51 390.903 88.17ZM417.304 78V93H412.924V88.68H411.994L408.904 93H403.804L407.314 88.05C406.414 87.59 405.704 86.93 405.184 86.07C404.664 85.21 404.404 84.3 404.404 83.34C404.404 81.92 404.904 80.68 405.904 79.62C406.904 78.54 408.264 78 409.984 78H417.304ZM410.374 81.96C409.894 81.96 409.504 82.1 409.204 82.38C408.924 82.64 408.784 83.01 408.784 83.49C408.784 83.95 408.924 84.31 409.204 84.57C409.504 84.83 409.894 84.96 410.374 84.96H412.924V81.96H410.374ZM431.806 85.32C433.146 86.04 433.816 87.17 433.816 88.71C433.816 89.99 433.366 91.03 432.466 91.83C431.586 92.61 430.336 93 428.716 93H420.616V78H428.116C429.736 78 430.986 78.4 431.866 79.2C432.766 79.98 433.216 81.01 433.216 82.29C433.216 83.61 432.746 84.62 431.806 85.32ZM427.636 81.6H424.816V83.7H427.636C428.516 83.7 428.956 83.36 428.956 82.68C428.956 81.96 428.516 81.6 427.636 81.6ZM428.116 89.28C428.996 89.28 429.436 88.91 429.436 88.17C429.436 87.47 428.996 87.12 428.116 87.12H424.816V89.28H428.116ZM450.455 93H445.355L440.555 86.37V93H436.055V78H440.555V84.57L445.055 78H450.305L444.845 85.5L450.455 93ZM461.56 78H466.36L461.23 92.55C459.63 97.07 456.78 99.22 452.68 99V94.8C453.7 94.8 454.48 94.65 455.02 94.35C455.56 94.05 456 93.51 456.34 92.73L450.46 78H455.26L458.74 87.21L461.56 78ZM489.618 78V93H485.118V82.2H480.018V93H475.518V78H489.618ZM501.89 77.58C503.87 77.58 505.56 78.35 506.96 79.89C508.36 81.41 509.06 83.28 509.06 85.5C509.06 87.72 508.36 89.6 506.96 91.14C505.56 92.66 503.87 93.42 501.89 93.42C499.97 93.42 498.48 92.81 497.42 91.59V99H492.92V78H497.42V79.41C498.48 78.19 499.97 77.58 501.89 77.58ZM498.41 88.17C499.09 88.83 499.95 89.16 500.99 89.16C502.03 89.16 502.88 88.83 503.54 88.17C504.22 87.51 504.56 86.62 504.56 85.5C504.56 84.38 504.22 83.49 503.54 82.83C502.88 82.17 502.03 81.84 500.99 81.84C499.95 81.84 499.09 82.17 498.41 82.83C497.75 83.49 497.42 84.38 497.42 85.5C497.42 86.62 497.75 87.51 498.41 88.17ZM523.476 78V93H519.096V88.68H518.166L515.076 93H509.976L513.486 88.05C512.586 87.59 511.876 86.93 511.356 86.07C510.836 85.21 510.576 84.3 510.576 83.34C510.576 81.92 511.076 80.68 512.076 79.62C513.076 78.54 514.436 78 516.156 78H523.476ZM516.546 81.96C516.066 81.96 515.676 82.1 515.376 82.38C515.096 82.64 514.956 83.01 514.956 83.49C514.956 83.95 515.096 84.31 515.376 84.57C515.676 84.83 516.066 84.96 516.546 84.96H519.096V81.96H516.546ZM542.688 78V93H538.368V85.26L535.008 90.48H534.468L531.108 85.26V93H526.788V78H531.108L534.738 83.67L538.368 78H542.688ZM558.817 91.14C557.277 92.66 555.397 93.42 553.177 93.42C550.957 93.42 549.077 92.66 547.537 91.14C545.997 89.6 545.227 87.72 545.227 85.5C545.227 83.28 545.997 81.41 547.537 79.89C549.077 78.35 550.957 77.58 553.177 77.58C555.397 77.58 557.277 78.35 558.817 79.89C560.357 81.41 561.127 83.28 561.127 85.5C561.127 87.72 560.357 89.6 558.817 91.14ZM550.717 88.05C551.377 88.71 552.197 89.04 553.177 89.04C554.157 89.04 554.977 88.71 555.637 88.05C556.297 87.39 556.627 86.54 556.627 85.5C556.627 84.46 556.297 83.61 555.637 82.95C554.977 82.29 554.157 81.96 553.177 81.96C552.197 81.96 551.377 82.29 550.717 82.95C550.057 83.61 549.727 84.46 549.727 85.5C549.727 86.54 550.057 87.39 550.717 88.05ZM578.372 93.42C576.092 93.42 574.192 92.66 572.672 91.14C571.172 89.62 570.422 87.74 570.422 85.5C570.422 83.26 571.172 81.38 572.672 79.86C574.192 78.34 576.092 77.58 578.372 77.58C579.812 77.58 581.132 77.93 582.332 78.63C583.552 79.33 584.492 80.26 585.152 81.42L581.222 83.7C580.682 82.58 579.712 82.02 578.312 82.02C577.332 82.02 576.522 82.35 575.882 83.01C575.242 83.65 574.922 84.48 574.922 85.5C574.922 86.52 575.242 87.36 575.882 88.02C576.522 88.66 577.332 88.98 578.312 88.98C579.732 88.98 580.702 88.42 581.222 87.3L585.152 89.55C584.492 90.73 583.562 91.67 582.362 92.37C581.162 93.07 579.832 93.42 578.372 93.42ZM590.69 87.3C591.21 88.7 592.41 89.4 594.29 89.4C595.51 89.4 596.47 89.02 597.17 88.26L600.77 90.33C599.29 92.39 597.11 93.42 594.23 93.42C591.71 93.42 589.69 92.67 588.17 91.17C586.67 89.67 585.92 87.78 585.92 85.5C585.92 83.24 586.66 81.36 588.14 79.86C589.64 78.34 591.56 77.58 593.9 77.58C596.08 77.58 597.89 78.34 599.33 79.86C600.79 81.36 601.52 83.24 601.52 85.5C601.52 86.14 601.46 86.74 601.34 87.3H590.69ZM590.6 83.94H597.05C596.61 82.36 595.55 81.57 593.87 81.57C592.13 81.57 591.04 82.36 590.6 83.94ZM606.623 76.23V72.33H615.623V76.23H606.623ZM614.873 78H618.173V93H613.793V85.5L607.373 93H604.073V78H608.453V85.5L614.873 78ZM630.025 78H634.525V93H630.025V88.5C628.945 88.82 627.845 88.98 626.725 88.98C624.945 88.98 623.495 88.52 622.375 87.6C621.275 86.66 620.725 85.31 620.725 83.55V78H625.225V82.95C625.225 84.17 626.025 84.78 627.625 84.78C628.545 84.78 629.345 84.62 630.025 84.3V78ZM648.713 78H653.213V93H648.713V91.59C647.653 92.81 646.163 93.42 644.243 93.42C642.263 93.42 640.573 92.66 639.173 91.14C637.773 89.6 637.073 87.72 637.073 85.5C637.073 83.28 637.773 81.41 639.173 79.89C640.573 78.35 642.263 77.58 644.243 77.58C646.163 77.58 647.653 78.19 648.713 79.41V78ZM642.563 88.17C643.223 88.83 644.083 89.16 645.143 89.16C646.203 89.16 647.063 88.83 647.723 88.17C648.383 87.51 648.713 86.62 648.713 85.5C648.713 84.38 648.383 83.49 647.723 82.83C647.063 82.17 646.203 81.84 645.143 81.84C644.083 81.84 643.223 82.17 642.563 82.83C641.903 83.49 641.573 84.38 641.573 85.5C641.573 86.62 641.903 87.51 642.563 88.17ZM663.714 93.42C661.434 93.42 659.534 92.66 658.014 91.14C656.514 89.62 655.764 87.74 655.764 85.5C655.764 83.26 656.514 81.38 658.014 79.86C659.534 78.34 661.434 77.58 663.714 77.58C665.154 77.58 666.474 77.93 667.674 78.63C668.894 79.33 669.834 80.26 670.494 81.42L666.564 83.7C666.024 82.58 665.054 82.02 663.654 82.02C662.674 82.02 661.864 82.35 661.224 83.01C660.584 83.65 660.264 84.48 660.264 85.5C660.264 86.52 660.584 87.36 661.224 88.02C661.864 88.66 662.674 88.98 663.654 88.98C665.074 88.98 666.044 88.42 666.564 87.3L670.494 89.55C669.834 90.73 668.904 91.67 667.704 92.37C666.504 93.07 665.174 93.42 663.714 93.42Z" fill="white"/>
<rect x="971.331" y="131" width="244" height="60" rx="30" fill="white"/>
<path d="M1046.02 153.9V166.5H1043.14V156.672H1039.36V166.5H1036.48V153.9H1046.02ZM1056.34 165.384C1055.42 166.296 1054.29 166.752 1052.96 166.752C1051.63 166.752 1050.5 166.296 1049.57 165.384C1048.65 164.46 1048.19 163.332 1048.19 162C1048.19 160.668 1048.65 159.546 1049.57 158.634C1050.5 157.71 1051.63 157.248 1052.96 157.248C1054.29 157.248 1055.42 157.71 1056.34 158.634C1057.27 159.546 1057.73 160.668 1057.73 162C1057.73 163.332 1057.27 164.46 1056.34 165.384ZM1051.48 163.53C1051.88 163.926 1052.37 164.124 1052.96 164.124C1053.55 164.124 1054.04 163.926 1054.43 163.53C1054.83 163.134 1055.03 162.624 1055.03 162C1055.03 161.376 1054.83 160.866 1054.43 160.47C1054.04 160.074 1053.55 159.876 1052.96 159.876C1052.37 159.876 1051.88 160.074 1051.48 160.47C1051.09 160.866 1050.89 161.376 1050.89 162C1050.89 162.624 1051.09 163.134 1051.48 163.53ZM1067.72 163.98H1068.89V168.912H1066.27V166.5H1061.26V168.912H1058.63V163.98H1059.75C1060.23 163.236 1060.47 162.198 1060.47 160.866V157.5H1067.72V163.98ZM1062.58 163.98H1065.1V159.912H1063.1V160.866C1063.1 162.114 1062.92 163.152 1062.58 163.98ZM1079.24 157.5V166.5H1076.54V160.02H1073.48V166.5H1070.78V157.5H1079.24ZM1088.24 157.5H1090.22V166.5H1087.59V162L1083.74 166.5H1081.76V157.5H1084.39V162L1088.24 157.5ZM1097.06 166.752C1095.69 166.752 1094.55 166.296 1093.64 165.384C1092.74 164.472 1092.29 163.344 1092.29 162C1092.29 160.656 1092.74 159.528 1093.64 158.616C1094.55 157.704 1095.69 157.248 1097.06 157.248C1097.92 157.248 1098.72 157.458 1099.44 157.878C1100.17 158.298 1100.73 158.856 1101.13 159.552L1098.77 160.92C1098.45 160.248 1097.86 159.912 1097.02 159.912C1096.44 159.912 1095.95 160.11 1095.57 160.506C1095.18 160.89 1094.99 161.388 1094.99 162C1094.99 162.612 1095.18 163.116 1095.57 163.512C1095.95 163.896 1096.44 164.088 1097.02 164.088C1097.88 164.088 1098.46 163.752 1098.77 163.08L1101.13 164.43C1100.73 165.138 1100.17 165.702 1099.45 166.122C1098.73 166.542 1097.94 166.752 1097.06 166.752ZM1109.11 157.5H1111.81V166.5H1109.11V165.654C1108.48 166.386 1107.58 166.752 1106.43 166.752C1105.24 166.752 1104.23 166.296 1103.39 165.384C1102.55 164.46 1102.13 163.332 1102.13 162C1102.13 160.668 1102.55 159.546 1103.39 158.634C1104.23 157.71 1105.24 157.248 1106.43 157.248C1107.58 157.248 1108.48 157.614 1109.11 158.346V157.5ZM1105.42 163.602C1105.82 163.998 1106.33 164.196 1106.97 164.196C1107.61 164.196 1108.12 163.998 1108.52 163.602C1108.91 163.206 1109.11 162.672 1109.11 162C1109.11 161.328 1108.91 160.794 1108.52 160.398C1108.12 160.002 1107.61 159.804 1106.97 159.804C1106.33 159.804 1105.82 160.002 1105.42 160.398C1105.03 160.794 1104.83 161.328 1104.83 162C1104.83 162.672 1105.03 163.206 1105.42 163.602ZM1121.62 157.5V160.092H1118.94V166.5H1116.24V160.092H1113.52V157.5H1121.62ZM1127.54 160.2C1128.62 160.2 1129.48 160.488 1130.11 161.064C1130.75 161.64 1131.07 162.402 1131.07 163.35C1131.07 164.298 1130.75 165.06 1130.11 165.636C1129.48 166.212 1128.62 166.5 1127.54 166.5H1123.33V157.5H1126.03V160.2H1127.54ZM1127.56 164.16C1127.82 164.16 1128.03 164.088 1128.19 163.944C1128.36 163.788 1128.44 163.59 1128.44 163.35C1128.44 163.11 1128.36 162.918 1128.19 162.774C1128.03 162.618 1127.82 162.54 1127.56 162.54H1126.03V164.16H1127.56ZM1137.19 166.752C1135.82 166.752 1134.68 166.296 1133.77 165.384C1132.87 164.472 1132.42 163.344 1132.42 162C1132.42 160.656 1132.87 159.528 1133.77 158.616C1134.68 157.704 1135.82 157.248 1137.19 157.248C1138.05 157.248 1138.84 157.458 1139.56 157.878C1140.3 158.298 1140.86 158.856 1141.26 159.552L1138.9 160.92C1138.57 160.248 1137.99 159.912 1137.15 159.912C1136.56 159.912 1136.08 160.11 1135.69 160.506C1135.31 160.89 1135.12 161.388 1135.12 162C1135.12 162.612 1135.31 163.116 1135.69 163.512C1136.08 163.896 1136.56 164.088 1137.15 164.088C1138 164.088 1138.59 163.752 1138.9 163.08L1141.26 164.43C1140.86 165.138 1140.3 165.702 1139.58 166.122C1138.86 166.542 1138.06 166.752 1137.19 166.752ZM1150.26 157.5V166.5H1147.64V163.908H1147.08L1145.22 166.5H1142.16L1144.27 163.53C1143.73 163.254 1143.3 162.858 1142.99 162.342C1142.68 161.826 1142.52 161.28 1142.52 160.704C1142.52 159.852 1142.82 159.108 1143.42 158.472C1144.02 157.824 1144.84 157.5 1145.87 157.5H1150.26ZM1146.11 159.876C1145.82 159.876 1145.58 159.96 1145.4 160.128C1145.24 160.284 1145.15 160.506 1145.15 160.794C1145.15 161.07 1145.24 161.286 1145.4 161.442C1145.58 161.598 1145.82 161.676 1146.11 161.676H1147.64V159.876H1146.11Z" fill="#163F59"/>
<path d="M301.54 230.067C301.426 231.045 301.064 231.8 300.455 232.333C299.85 232.862 299.043 233.127 298.036 233.127C296.944 233.127 296.068 232.736 295.408 231.953C294.752 231.17 294.424 230.122 294.424 228.811V227.922C294.424 227.063 294.577 226.307 294.881 225.656C295.19 225.004 295.626 224.505 296.189 224.158C296.752 223.806 297.404 223.631 298.144 223.631C299.126 223.631 299.913 223.906 300.505 224.456C301.098 225.002 301.443 225.759 301.54 226.729H300.315C300.209 225.992 299.979 225.459 299.623 225.129C299.272 224.799 298.779 224.634 298.144 224.634C297.366 224.634 296.754 224.922 296.31 225.497C295.87 226.073 295.65 226.891 295.65 227.954V228.849C295.65 229.852 295.859 230.649 296.278 231.242C296.697 231.834 297.283 232.13 298.036 232.13C298.713 232.13 299.232 231.978 299.591 231.673C299.955 231.364 300.197 230.829 300.315 230.067H301.54ZM302.844 229.502C302.844 228.83 302.976 228.224 303.238 227.687C303.505 227.15 303.873 226.735 304.343 226.443C304.816 226.151 305.356 226.005 305.961 226.005C306.896 226.005 307.652 226.329 308.227 226.976C308.807 227.624 309.097 228.485 309.097 229.56V229.642C309.097 230.311 308.968 230.912 308.71 231.445C308.456 231.974 308.09 232.386 307.612 232.683C307.138 232.979 306.592 233.127 305.974 233.127C305.043 233.127 304.288 232.803 303.708 232.156C303.132 231.508 302.844 230.651 302.844 229.585V229.502ZM304.025 229.642C304.025 230.404 304.201 231.015 304.552 231.477C304.907 231.938 305.381 232.168 305.974 232.168C306.571 232.168 307.045 231.936 307.396 231.47C307.747 231 307.923 230.345 307.923 229.502C307.923 228.749 307.743 228.14 307.383 227.674C307.028 227.205 306.554 226.97 305.961 226.97C305.381 226.97 304.914 227.2 304.558 227.662C304.203 228.123 304.025 228.783 304.025 229.642ZM315.137 227.103H311.969V233H310.788V226.132H315.137V227.103ZM321.665 226.132V233H320.484V227.103H318.148L318.009 229.674C317.933 230.854 317.734 231.699 317.412 232.207C317.095 232.714 316.589 232.979 315.895 233H315.425V231.965L315.762 231.94C316.143 231.898 316.416 231.678 316.581 231.28C316.746 230.882 316.851 230.146 316.898 229.071L317.025 226.132H321.665ZM327.921 233C327.853 232.865 327.798 232.623 327.755 232.276C327.21 232.843 326.558 233.127 325.8 233.127C325.123 233.127 324.567 232.937 324.131 232.556C323.699 232.171 323.484 231.684 323.484 231.096C323.484 230.381 323.754 229.826 324.296 229.433C324.842 229.035 325.608 228.836 326.594 228.836H327.736V228.296C327.736 227.886 327.614 227.56 327.368 227.319C327.123 227.073 326.761 226.951 326.283 226.951C325.864 226.951 325.513 227.056 325.229 227.268C324.946 227.48 324.804 227.736 324.804 228.036H323.623C323.623 227.693 323.744 227.363 323.985 227.046C324.23 226.724 324.56 226.47 324.975 226.284C325.394 226.098 325.853 226.005 326.353 226.005C327.144 226.005 327.764 226.204 328.213 226.602C328.661 226.995 328.894 227.539 328.911 228.233V231.394C328.911 232.025 328.991 232.526 329.152 232.898V233H327.921ZM325.972 232.105C326.34 232.105 326.689 232.01 327.019 231.819C327.349 231.629 327.588 231.381 327.736 231.077V229.667H326.816C325.377 229.667 324.658 230.089 324.658 230.931C324.658 231.299 324.781 231.587 325.026 231.794C325.271 232.001 325.587 232.105 325.972 232.105ZM333.636 232.168C334.055 232.168 334.421 232.042 334.735 231.788C335.048 231.534 335.221 231.216 335.255 230.835H336.366C336.345 231.229 336.209 231.604 335.96 231.959C335.71 232.314 335.376 232.598 334.957 232.81C334.542 233.021 334.102 233.127 333.636 233.127C332.701 233.127 331.956 232.816 331.402 232.194C330.852 231.568 330.577 230.713 330.577 229.629V229.433C330.577 228.764 330.7 228.169 330.945 227.649C331.19 227.128 331.542 226.724 331.999 226.437C332.46 226.149 333.004 226.005 333.63 226.005C334.4 226.005 335.039 226.236 335.547 226.697C336.059 227.158 336.332 227.757 336.366 228.493H335.255C335.221 228.049 335.052 227.685 334.747 227.401C334.447 227.114 334.074 226.97 333.63 226.97C333.033 226.97 332.57 227.186 332.24 227.617C331.914 228.045 331.751 228.665 331.751 229.477V229.699C331.751 230.491 331.914 231.1 332.24 231.527C332.566 231.955 333.031 232.168 333.636 232.168ZM342.26 226.132H343.434V233H342.26V227.992L339.092 233H337.918V226.132H339.092V231.146L342.26 226.132ZM348.299 233.127C347.368 233.127 346.611 232.822 346.027 232.213C345.443 231.599 345.151 230.78 345.151 229.756V229.541C345.151 228.859 345.28 228.252 345.538 227.719C345.8 227.181 346.164 226.762 346.63 226.462C347.1 226.157 347.607 226.005 348.153 226.005C349.046 226.005 349.74 226.299 350.235 226.887C350.73 227.475 350.978 228.318 350.978 229.414V229.902H346.325C346.342 230.579 346.539 231.127 346.915 231.546C347.296 231.961 347.779 232.168 348.363 232.168C348.777 232.168 349.129 232.084 349.416 231.915C349.704 231.745 349.956 231.521 350.172 231.242L350.889 231.8C350.314 232.685 349.45 233.127 348.299 233.127ZM348.153 226.97C347.679 226.97 347.282 227.143 346.96 227.49C346.638 227.833 346.439 228.315 346.363 228.938H349.804V228.849C349.77 228.252 349.609 227.791 349.321 227.465C349.033 227.135 348.644 226.97 348.153 226.97ZM361.439 233H360.264V230.067H357.11V233H355.929V226.132H357.11V229.109H360.264V226.132H361.439V233ZM367.701 233C367.633 232.865 367.578 232.623 367.535 232.276C366.99 232.843 366.338 233.127 365.58 233.127C364.903 233.127 364.347 232.937 363.911 232.556C363.479 232.171 363.264 231.684 363.264 231.096C363.264 230.381 363.534 229.826 364.076 229.433C364.622 229.035 365.388 228.836 366.374 228.836H367.516V228.296C367.516 227.886 367.394 227.56 367.148 227.319C366.903 227.073 366.541 226.951 366.063 226.951C365.644 226.951 365.293 227.056 365.009 227.268C364.726 227.48 364.584 227.736 364.584 228.036H363.403C363.403 227.693 363.524 227.363 363.765 227.046C364.01 226.724 364.34 226.47 364.755 226.284C365.174 226.098 365.633 226.005 366.133 226.005C366.924 226.005 367.544 226.204 367.993 226.602C368.441 226.995 368.674 227.539 368.691 228.233V231.394C368.691 232.025 368.771 232.526 368.932 232.898V233H367.701ZM365.752 232.105C366.12 232.105 366.469 232.01 366.799 231.819C367.129 231.629 367.368 231.381 367.516 231.077V229.667H366.596C365.157 229.667 364.438 230.089 364.438 230.931C364.438 231.299 364.561 231.587 364.806 231.794C365.051 232.001 365.367 232.105 365.752 232.105ZM373.705 229.502C373.705 228.83 373.836 228.224 374.099 227.687C374.365 227.15 374.733 226.735 375.203 226.443C375.677 226.151 376.217 226.005 376.822 226.005C377.757 226.005 378.512 226.329 379.088 226.976C379.668 227.624 379.958 228.485 379.958 229.56V229.642C379.958 230.311 379.829 230.912 379.57 231.445C379.316 231.974 378.95 232.386 378.472 232.683C377.998 232.979 377.452 233.127 376.835 233.127C375.904 233.127 375.148 232.803 374.568 232.156C373.993 231.508 373.705 230.651 373.705 229.585V229.502ZM374.886 229.642C374.886 230.404 375.061 231.015 375.413 231.477C375.768 231.938 376.242 232.168 376.835 232.168C377.431 232.168 377.905 231.936 378.256 231.47C378.608 231 378.783 230.345 378.783 229.502C378.783 228.749 378.603 228.14 378.244 227.674C377.888 227.205 377.414 226.97 376.822 226.97C376.242 226.97 375.774 227.2 375.419 227.662C375.064 228.123 374.886 228.783 374.886 229.642ZM384.575 226.525C385.439 226.525 386.128 226.815 386.645 227.395C387.165 227.971 387.425 228.73 387.425 229.674V229.782C387.425 230.429 387.301 231.009 387.051 231.521C386.801 232.029 386.442 232.424 385.972 232.708C385.506 232.987 384.969 233.127 384.36 233.127C383.437 233.127 382.694 232.82 382.132 232.207C381.569 231.589 381.287 230.761 381.287 229.725V229.153C381.287 227.71 381.554 226.563 382.087 225.713C382.625 224.862 383.416 224.344 384.461 224.158C385.054 224.052 385.453 223.923 385.661 223.771C385.868 223.618 385.972 223.409 385.972 223.142H386.937C386.937 223.671 386.816 224.084 386.575 224.38C386.338 224.676 385.957 224.886 385.432 225.008L384.556 225.205C383.858 225.37 383.333 225.649 382.982 226.043C382.635 226.432 382.409 226.953 382.303 227.604C382.925 226.885 383.682 226.525 384.575 226.525ZM384.347 227.49C383.771 227.49 383.314 227.685 382.976 228.074C382.637 228.459 382.468 228.995 382.468 229.68V229.782C382.468 230.518 382.637 231.102 382.976 231.534C383.319 231.961 383.78 232.175 384.36 232.175C384.944 232.175 385.405 231.959 385.743 231.527C386.082 231.096 386.251 230.465 386.251 229.636C386.251 228.988 386.08 228.47 385.737 228.081C385.398 227.687 384.935 227.49 384.347 227.49ZM394.563 229.642C394.563 230.687 394.324 231.529 393.846 232.168C393.368 232.807 392.72 233.127 391.904 233.127C391.07 233.127 390.414 232.862 389.936 232.333V235.641H388.762V226.132H389.834L389.891 226.894C390.37 226.301 391.034 226.005 391.885 226.005C392.71 226.005 393.361 226.316 393.84 226.938C394.322 227.56 394.563 228.425 394.563 229.534V229.642ZM393.389 229.509C393.389 228.734 393.224 228.123 392.894 227.674C392.564 227.226 392.111 227.001 391.535 227.001C390.825 227.001 390.291 227.317 389.936 227.947V231.229C390.287 231.855 390.825 232.168 391.548 232.168C392.111 232.168 392.557 231.946 392.888 231.502C393.222 231.053 393.389 230.389 393.389 229.509ZM400.432 233C400.364 232.865 400.309 232.623 400.267 232.276C399.721 232.843 399.069 233.127 398.311 233.127C397.634 233.127 397.078 232.937 396.642 232.556C396.21 232.171 395.995 231.684 395.995 231.096C395.995 230.381 396.265 229.826 396.807 229.433C397.353 229.035 398.119 228.836 399.105 228.836H400.247V228.296C400.247 227.886 400.125 227.56 399.879 227.319C399.634 227.073 399.272 226.951 398.794 226.951C398.375 226.951 398.024 227.056 397.74 227.268C397.457 227.48 397.315 227.736 397.315 228.036H396.134C396.134 227.693 396.255 227.363 396.496 227.046C396.741 226.724 397.072 226.47 397.486 226.284C397.905 226.098 398.364 226.005 398.864 226.005C399.655 226.005 400.275 226.204 400.724 226.602C401.172 226.995 401.405 227.539 401.422 228.233V231.394C401.422 232.025 401.502 232.526 401.663 232.898V233H400.432ZM398.483 232.105C398.851 232.105 399.2 232.01 399.53 231.819C399.86 231.629 400.099 231.381 400.247 231.077V229.667H399.327C397.888 229.667 397.169 230.089 397.169 230.931C397.169 231.299 397.292 231.587 397.537 231.794C397.782 232.001 398.098 232.105 398.483 232.105ZM406.408 226.525C407.271 226.525 407.961 226.815 408.477 227.395C408.998 227.971 409.258 228.73 409.258 229.674V229.782C409.258 230.429 409.133 231.009 408.883 231.521C408.634 232.029 408.274 232.424 407.804 232.708C407.339 232.987 406.801 233.127 406.192 233.127C405.269 233.127 404.527 232.82 403.964 232.207C403.401 231.589 403.12 230.761 403.12 229.725V229.153C403.12 227.71 403.386 226.563 403.919 225.713C404.457 224.862 405.248 224.344 406.294 224.158C406.886 224.052 407.286 223.923 407.493 223.771C407.701 223.618 407.804 223.409 407.804 223.142H408.769C408.769 223.671 408.648 224.084 408.407 224.38C408.17 224.676 407.789 224.886 407.265 225.008L406.389 225.205C405.69 225.37 405.166 225.649 404.814 226.043C404.467 226.432 404.241 226.953 404.135 227.604C404.757 226.885 405.515 226.525 406.408 226.525ZM406.179 227.49C405.604 227.49 405.147 227.685 404.808 228.074C404.47 228.459 404.3 228.995 404.3 229.68V229.782C404.3 230.518 404.47 231.102 404.808 231.534C405.151 231.961 405.612 232.175 406.192 232.175C406.776 232.175 407.237 231.959 407.576 231.527C407.914 231.096 408.084 230.465 408.084 229.636C408.084 228.988 407.912 228.47 407.569 228.081C407.231 227.687 406.767 227.49 406.179 227.49ZM410.397 229.502C410.397 228.83 410.528 228.224 410.791 227.687C411.057 227.15 411.425 226.735 411.895 226.443C412.369 226.151 412.909 226.005 413.514 226.005C414.449 226.005 415.204 226.329 415.78 226.976C416.36 227.624 416.65 228.485 416.65 229.56V229.642C416.65 230.311 416.521 230.912 416.262 231.445C416.008 231.974 415.642 232.386 415.164 232.683C414.69 232.979 414.144 233.127 413.527 233.127C412.596 233.127 411.84 232.803 411.26 232.156C410.685 231.508 410.397 230.651 410.397 229.585V229.502ZM411.578 229.642C411.578 230.404 411.753 231.015 412.105 231.477C412.46 231.938 412.934 232.168 413.527 232.168C414.123 232.168 414.597 231.936 414.948 231.47C415.3 231 415.475 230.345 415.475 229.502C415.475 228.749 415.295 228.14 414.936 227.674C414.58 227.205 414.106 226.97 413.514 226.97C412.934 226.97 412.466 227.2 412.111 227.662C411.756 228.123 411.578 228.783 411.578 229.642ZM423.216 227.084H420.912V233H419.738V227.084H417.478V226.132H423.216V227.084ZM426.628 230.074H425.771V233H424.59V226.132H425.771V229.039H426.539L428.85 226.132H430.271L427.555 229.433L430.5 233H429.008L426.628 230.074ZM433.886 231.28L435.486 226.132H436.743L433.981 234.06C433.554 235.203 432.875 235.774 431.944 235.774L431.722 235.755L431.284 235.672V234.72L431.601 234.746C431.999 234.746 432.308 234.665 432.528 234.504C432.752 234.344 432.936 234.049 433.08 233.622L433.34 232.924L430.89 226.132H432.172L433.886 231.28ZM446.899 233H445.724V227.103H442.563V233H441.383V226.132H446.899V233ZM451.764 233.127C450.833 233.127 450.076 232.822 449.492 232.213C448.908 231.599 448.616 230.78 448.616 229.756V229.541C448.616 228.859 448.745 228.252 449.003 227.719C449.265 227.181 449.629 226.762 450.095 226.462C450.564 226.157 451.072 226.005 451.618 226.005C452.511 226.005 453.205 226.299 453.7 226.887C454.195 227.475 454.443 228.318 454.443 229.414V229.902H449.79C449.807 230.579 450.004 231.127 450.38 231.546C450.761 231.961 451.244 232.168 451.828 232.168C452.242 232.168 452.593 232.084 452.881 231.915C453.169 231.745 453.421 231.521 453.637 231.242L454.354 231.8C453.778 232.685 452.915 233.127 451.764 233.127ZM451.618 226.97C451.144 226.97 450.746 227.143 450.425 227.49C450.103 227.833 449.904 228.315 449.828 228.938H453.268V228.849C453.235 228.252 453.074 227.791 452.786 227.465C452.498 227.135 452.109 226.97 451.618 226.97ZM461.739 229.642C461.739 230.687 461.5 231.529 461.022 232.168C460.544 232.807 459.896 233.127 459.08 233.127C458.246 233.127 457.59 232.862 457.112 232.333V235.641H455.938V226.132H457.01L457.067 226.894C457.546 226.301 458.21 226.005 459.061 226.005C459.886 226.005 460.537 226.316 461.016 226.938C461.498 227.56 461.739 228.425 461.739 229.534V229.642ZM460.565 229.509C460.565 228.734 460.4 228.123 460.07 227.674C459.74 227.226 459.287 227.001 458.711 227.001C458 227.001 457.467 227.317 457.112 227.947V231.229C457.463 231.855 458 232.168 458.724 232.168C459.287 232.168 459.733 231.946 460.063 231.502C460.398 231.053 460.565 230.389 460.565 229.509ZM466.122 232.168C466.541 232.168 466.907 232.042 467.22 231.788C467.533 231.534 467.707 231.216 467.741 230.835H468.852C468.831 231.229 468.695 231.604 468.445 231.959C468.196 232.314 467.861 232.598 467.443 232.81C467.028 233.021 466.588 233.127 466.122 233.127C465.187 233.127 464.442 232.816 463.888 232.194C463.338 231.568 463.063 230.713 463.063 229.629V229.433C463.063 228.764 463.185 228.169 463.431 227.649C463.676 227.128 464.027 226.724 464.484 226.437C464.946 226.149 465.49 226.005 466.116 226.005C466.886 226.005 467.525 226.236 468.033 226.697C468.545 227.158 468.818 227.757 468.852 228.493H467.741C467.707 228.049 467.538 227.685 467.233 227.401C466.933 227.114 466.56 226.97 466.116 226.97C465.519 226.97 465.056 227.186 464.726 227.617C464.4 228.045 464.237 228.665 464.237 229.477V229.699C464.237 230.491 464.4 231.1 464.726 231.527C465.052 231.955 465.517 232.168 466.122 232.168ZM469.991 229.502C469.991 228.83 470.122 228.224 470.385 227.687C470.651 227.15 471.019 226.735 471.489 226.443C471.963 226.151 472.503 226.005 473.108 226.005C474.043 226.005 474.798 226.329 475.374 226.976C475.954 227.624 476.243 228.485 476.243 229.56V229.642C476.243 230.311 476.114 230.912 475.856 231.445C475.602 231.974 475.236 232.386 474.758 232.683C474.284 232.979 473.738 233.127 473.12 233.127C472.189 233.127 471.434 232.803 470.854 232.156C470.279 231.508 469.991 230.651 469.991 229.585V229.502ZM471.172 229.642C471.172 230.404 471.347 231.015 471.698 231.477C472.054 231.938 472.528 232.168 473.12 232.168C473.717 232.168 474.191 231.936 474.542 231.47C474.893 231 475.069 230.345 475.069 229.502C475.069 228.749 474.889 228.14 474.53 227.674C474.174 227.205 473.7 226.97 473.108 226.97C472.528 226.97 472.06 227.2 471.705 227.662C471.349 228.123 471.172 228.783 471.172 229.642ZM483.457 233H482.283V230.067H479.128V233H477.948V226.132H479.128V229.109H482.283V226.132H483.457V233ZM489.719 233C489.652 232.865 489.597 232.623 489.554 232.276C489.008 232.843 488.357 233.127 487.599 233.127C486.922 233.127 486.366 232.937 485.93 232.556C485.498 232.171 485.282 231.684 485.282 231.096C485.282 230.381 485.553 229.826 486.095 229.433C486.641 229.035 487.407 228.836 488.393 228.836H489.535V228.296C489.535 227.886 489.412 227.56 489.167 227.319C488.922 227.073 488.56 226.951 488.082 226.951C487.663 226.951 487.311 227.056 487.028 227.268C486.744 227.48 486.603 227.736 486.603 228.036H485.422C485.422 227.693 485.542 227.363 485.784 227.046C486.029 226.724 486.359 226.47 486.774 226.284C487.193 226.098 487.652 226.005 488.151 226.005C488.943 226.005 489.563 226.204 490.011 226.602C490.46 226.995 490.693 227.539 490.709 228.233V231.394C490.709 232.025 490.79 232.526 490.951 232.898V233H489.719ZM487.77 232.105C488.139 232.105 488.488 232.01 488.818 231.819C489.148 231.629 489.387 231.381 489.535 231.077V229.667H488.615C487.176 229.667 486.457 230.089 486.457 230.931C486.457 231.299 486.579 231.587 486.825 231.794C487.07 232.001 487.385 232.105 487.77 232.105ZM498.311 226.132V233H497.13V227.103H494.794L494.654 229.674C494.578 230.854 494.379 231.699 494.058 232.207C493.74 232.714 493.235 232.979 492.541 233H492.071V231.965L492.407 231.94C492.788 231.898 493.061 231.678 493.226 231.28C493.391 230.882 493.497 230.146 493.544 229.071L493.671 226.132H498.311ZM501.608 228.5H503.392C504.17 228.508 504.786 228.711 505.239 229.109C505.692 229.507 505.918 230.046 505.918 230.728C505.918 231.413 505.685 231.963 505.22 232.378C504.754 232.793 504.128 233 503.341 233H500.434V226.132H501.608V228.5ZM501.608 229.458V232.042H503.354C503.794 232.042 504.134 231.929 504.376 231.705C504.617 231.477 504.738 231.166 504.738 230.772C504.738 230.391 504.619 230.08 504.382 229.839C504.149 229.593 503.821 229.466 503.398 229.458H501.608ZM513.126 233H511.952V230.067H508.797V233H507.616V226.132H508.797V229.109H511.952V226.132H513.126V233ZM516.43 228.5H518.213C518.992 228.508 519.608 228.711 520.061 229.109C520.513 229.507 520.74 230.046 520.74 230.728C520.74 231.413 520.507 231.963 520.041 232.378C519.576 232.793 518.95 233 518.163 233H515.255V226.132H516.43V228.5ZM523.19 233H522.009V226.132H523.19V233ZM516.43 229.458V232.042H518.175C518.615 232.042 518.956 231.929 519.197 231.705C519.438 231.477 519.559 231.166 519.559 230.772C519.559 230.391 519.441 230.08 519.204 229.839C518.971 229.593 518.643 229.466 518.22 229.458H516.43ZM527.674 228.639L529.198 226.132H530.569L528.322 229.528L530.639 233H529.28L527.693 230.429L526.107 233H524.742L527.059 229.528L524.812 226.132H526.17L527.674 228.639ZM535.247 232.042L535.653 231.54C536.11 230.948 536.37 230.059 536.434 228.874L536.542 226.132H540.966V232.042H541.848V235.019H540.674V233H535.882V235.019H534.707L534.714 232.042H535.247ZM536.637 232.042H539.792V227.217H537.678L537.608 228.855C537.536 230.222 537.213 231.284 536.637 232.042ZM547.52 233C547.452 232.865 547.397 232.623 547.355 232.276C546.809 232.843 546.157 233.127 545.4 233.127C544.723 233.127 544.166 232.937 543.73 232.556C543.299 232.171 543.083 231.684 543.083 231.096C543.083 230.381 543.354 229.826 543.895 229.433C544.441 229.035 545.207 228.836 546.193 228.836H547.336V228.296C547.336 227.886 547.213 227.56 546.968 227.319C546.722 227.073 546.36 226.951 545.882 226.951C545.463 226.951 545.112 227.056 544.829 227.268C544.545 227.48 544.403 227.736 544.403 228.036H543.223C543.223 227.693 543.343 227.363 543.584 227.046C543.83 226.724 544.16 226.47 544.575 226.284C544.994 226.098 545.453 226.005 545.952 226.005C546.743 226.005 547.363 226.204 547.812 226.602C548.261 226.995 548.493 227.539 548.51 228.233V231.394C548.51 232.025 548.591 232.526 548.751 232.898V233H547.52ZM545.571 232.105C545.939 232.105 546.289 232.01 546.619 231.819C546.949 231.629 547.188 231.381 547.336 231.077V229.667H546.415C544.977 229.667 544.257 230.089 544.257 230.931C544.257 231.299 544.38 231.587 544.625 231.794C544.871 232.001 545.186 232.105 545.571 232.105ZM556.092 233H554.918V230.067H551.763V233H550.583V226.132H551.763V229.109H554.918V226.132H556.092V233ZM563.725 233H562.551V230.067H559.396V233H558.216V226.132H559.396V229.109H562.551V226.132H563.725V233ZM567.029 228.5H568.813C569.591 228.508 570.207 228.711 570.66 229.109C571.113 229.507 571.339 230.046 571.339 230.728C571.339 231.413 571.106 231.963 570.641 232.378C570.175 232.793 569.549 233 568.762 233H565.855V226.132H567.029V228.5ZM573.789 233H572.609V226.132H573.789V233ZM567.029 229.458V232.042H568.775C569.215 232.042 569.555 231.929 569.797 231.705C570.038 231.477 570.159 231.166 570.159 230.772C570.159 230.391 570.04 230.08 569.803 229.839C569.57 229.593 569.242 229.466 568.819 229.458H567.029ZM578.274 228.639L579.797 226.132H581.168L578.921 229.528L581.238 233H579.88L578.293 230.429L576.706 233H575.341L577.658 229.528L575.411 226.132H576.769L578.274 228.639Z" fill="white" fill-opacity="0.7"/>
<path d="M440.392 234.27H581.654V234.904H440.392V234.27Z" fill="white" fill-opacity="0.7"/>
<g clip-path="url(#clip0)">
<rect x="266.669" y="219" width="18" height="18" rx="3" fill="#FFAB01"/>
</g>
<path d="M279.167 224L280.669 225.502L274.341 231.83L270.669 228.158L272.171 226.656L274.341 228.826L279.167 224Z" fill="white"/>
<defs>
<clipPath id="clip0">
<rect width="18" height="18" fill="white" transform="translate(266.669 219)"/>
</clipPath>
</defs>
</svg>
