<?xml version="1.0" encoding="UTF-8" standalone="no"?>
<!DOCTYPE svg PUBLIC "-//W3C//DTD SVG 1.1//EN" "http://www.w3.org/Graphics/SVG/1.1/DTD/svg11.dtd">
<svg version="1.1" xmlns="http://www.w3.org/2000/svg" xmlns:xlink="http://www.w3.org/1999/xlink" preserveAspectRatio="xMidYMid meet" viewBox="0 0 1482 319" width="1482" height="319"><defs><path d="M1472 0C1478.67 0 1482 3.33 1482 10C1482 182.8 1482 278.8 1482 298C1482 304.67 1478.67 308 1472 308C594.8 308 107.47 308 10 308C3.33 308 0 304.67 0 298C0 125.2 0 29.2 0 10C0 3.33 3.33 0 10 0C887.2 0 1374.53 0 1472 0Z" id="o1dvUUbhu"></path><path d="M0 10C0 40.9 0 288.1 0 319C39.05 237.72 180.45 187.75 548.03 133.45C950.75 73.96 1102.25 49.18 1195 0C1116 0 721 0 10 0C3.33 2.98 0 6.32 0 10Z" id="d2dXiGpdpR"></path><path d="M0 10C0 35.1 0 235.9 0 261C39.05 194.5 180.45 153.61 548.03 109.19C950.75 60.51 1102.25 40.24 1195 0C1116 0 721 0 10 0C3.33 2.98 0 6.32 0 10Z" id="aOA3Jm54B"></path><path d="M1482 298C1482 288.3 1482 210.7 1482 201C1457.25 228.26 1367.61 245.02 1134.6 263.24C879.31 283.19 783.27 291.5 724.47 308C774.31 308 1023.48 308 1472 308C1478.67 305.02 1482 301.68 1482 298Z" id="c2bjqJT6m3"></path><path d="M1482 298C1482 290.2 1482 227.8 1482 220C1457.25 242.42 1367.61 256.21 1134.6 271.19C879.31 287.6 783.27 294.43 724.47 308C774.31 308 1023.48 308 1472 308C1478.67 305.02 1482 301.68 1482 298Z" id="a2uMymXPX"></path></defs><g><g><g><use xlink:href="#o1dvUUbhu" opacity="1" fill="#163f59" fill-opacity="1"></use><g><use xlink:href="#o1dvUUbhu" opacity="1" fill-opacity="0" stroke="#000000" stroke-width="1" stroke-opacity="0"></use></g></g><g><use xlink:href="#d2dXiGpdpR" opacity="1" fill="#175b63" fill-opacity="0.2"></use><g><use xlink:href="#d2dXiGpdpR" opacity="1" fill-opacity="0" stroke="#000000" stroke-width="1" stroke-opacity="0"></use></g></g><g><use xlink:href="#aOA3Jm54B" opacity="1" fill="#137f7f" fill-opacity="0.2"></use><g><use xlink:href="#aOA3Jm54B" opacity="1" fill-opacity="0" stroke="#000000" stroke-width="1" stroke-opacity="0"></use></g></g><g><use xlink:href="#c2bjqJT6m3" opacity="1" fill="#ffcf50" fill-opacity="0.2"></use><g><use xlink:href="#c2bjqJT6m3" opacity="1" fill-opacity="0" stroke="#000000" stroke-width="1" stroke-opacity="0"></use></g></g><g><use xlink:href="#a2uMymXPX" opacity="1" fill="#ffcf50" fill-opacity="1"></use><g><use xlink:href="#a2uMymXPX" opacity="1" fill-opacity="0" stroke="#000000" stroke-width="1" stroke-opacity="0"></use></g></g></g></g></svg>