<svg width="317" height="83" viewBox="0 0 317 83" fill="none" xmlns="http://www.w3.org/2000/svg">
<g clip-path="url(#clip0)">
<path d="M243.924 51.6393H235.484L227.001 38.4482V51.6393H219.447V22.1384H227.001V34.5288L235.062 22.1384H243.503L234.133 36.4674L243.924 51.6393ZM252.106 27.6592C251.317 28.446 250.375 28.8393 249.278 28.8393C248.181 28.8393 247.225 28.446 246.408 27.6592C245.62 26.8445 245.227 25.8893 245.227 24.7934C245.227 23.6977 245.62 22.7565 246.408 21.9698C247.225 21.1831 248.181 20.7898 249.278 20.7898C250.375 20.7898 251.317 21.1831 252.106 21.9698C252.922 22.7565 253.33 23.6977 253.33 24.7934C253.33 25.8893 252.922 26.8445 252.106 27.6592ZM245.775 51.6393V30.5673H252.78V51.6393H245.775ZM256.82 51.6393V20.8741H263.827V51.6393H256.82ZM267.866 51.6393V20.8741H274.872V51.6393H267.866ZM285.116 43.674C285.819 45.3879 287.395 46.2449 289.843 46.2449C291.362 46.2449 292.642 45.7531 293.683 44.7698L298.747 48.3099C296.666 50.9228 293.641 52.2293 289.674 52.2293C286.1 52.2293 283.231 51.1898 281.064 49.1107C278.926 47.0034 277.857 44.3484 277.857 41.1454C277.857 37.9705 278.912 35.3154 281.022 33.1802C283.132 31.0448 285.819 29.9772 289.083 29.9772C292.235 29.9772 294.837 31.0309 296.89 33.138C298.944 35.2452 299.971 37.8863 299.971 41.0612C299.971 41.9882 299.873 42.8592 299.676 43.674H285.116ZM285.031 38.8275H293.135C292.572 36.8608 291.249 35.8774 289.167 35.8774C287.001 35.8774 285.622 36.8608 285.031 38.8275ZM309.985 34.4867C310.379 33.1099 311.167 32.0423 312.35 31.2837C313.531 30.525 314.853 30.1458 316.316 30.1458V37.9003C314.712 37.6474 313.249 37.9424 311.927 38.7854C310.633 39.6283 309.985 41.005 309.985 42.9154V51.6393H302.98V30.5673H309.985V34.4867Z" fill="#167572"/>
<path d="M16.1365 51.7293C11.691 51.7293 8.00535 50.2683 5.07926 47.3463C2.18144 44.3961 0.732422 40.7297 0.732422 36.3467C0.732422 31.9636 2.18144 28.3112 5.07926 25.3891C8.00535 22.4391 11.691 20.964 16.1365 20.964C18.8094 20.964 21.2852 21.5961 23.5642 22.8605C25.8431 24.1249 27.6297 25.8246 28.9239 27.96L22.3825 31.7108C21.8198 30.6713 20.9757 29.8565 19.8503 29.2665C18.7531 28.6483 17.5151 28.3393 16.1365 28.3393C13.7731 28.3393 11.8599 29.0838 10.3969 30.5729C8.96199 32.034 8.24454 33.9584 8.24454 36.3467C8.24454 38.7349 8.96199 40.6735 10.3969 42.1626C11.8599 43.6236 13.7731 44.354 16.1365 44.354C17.5151 44.354 18.7531 44.0591 19.8503 43.4691C20.9757 42.8509 21.8198 42.008 22.3825 40.9403L28.9239 44.7333C27.6297 46.8968 25.8431 48.6106 23.5642 49.8749C21.3134 51.1112 18.8374 51.7293 16.1365 51.7293ZM38.9154 33.9444C39.3094 32.5678 40.0971 31.5 41.2788 30.7415C42.4605 29.9829 43.7828 29.6036 45.2459 29.6036V37.3581C43.6422 37.1052 42.1792 37.4003 40.8567 38.2432C39.5626 39.086 38.9154 40.4627 38.9154 42.3732V51.0972H31.9098V30.025H38.9154V33.9444ZM53.611 43.1319C54.3143 44.8457 55.8899 45.7026 58.3376 45.7026C59.857 45.7026 61.1371 45.211 62.1781 44.2276L67.2425 47.7678C65.1605 50.3807 62.1359 51.6871 58.1689 51.6871C54.5956 51.6871 51.7258 50.6476 49.5595 48.5684C47.4212 46.4613 46.3521 43.8061 46.3521 40.6033C46.3521 37.4284 47.4071 34.7732 49.5172 32.638C51.6274 30.5026 54.3143 29.435 57.578 29.435C60.7292 29.435 63.3316 30.4886 65.3855 32.5959C67.4394 34.703 68.4664 37.3441 68.4664 40.5189C68.4664 41.4461 68.3679 42.3171 68.1709 43.1319H53.611ZM53.5265 38.2853H61.6295C61.0668 36.3185 59.7444 35.3352 57.6625 35.3352C55.496 35.3352 54.1174 36.3185 53.5265 38.2853ZM86.2901 21.5961H93.2958V51.0972H86.2901V49.1584C84.8552 50.8442 82.8576 51.6871 80.2973 51.6871C77.4838 51.6871 75.1204 50.6336 73.2073 48.5263C71.3221 46.391 70.3796 43.7359 70.3796 40.561C70.3796 37.3862 71.3221 34.7452 73.2073 32.638C75.1204 30.5026 77.4838 29.435 80.2973 29.435C82.8576 29.435 84.8552 30.2779 86.2901 31.9636V21.5961ZM78.6514 43.8904C79.4673 44.7333 80.5365 45.1548 81.8588 45.1548C83.1811 45.1548 84.2503 44.7333 85.0662 43.8904C85.8821 43.0476 86.2901 41.9377 86.2901 40.561C86.2901 39.1843 85.8821 38.0745 85.0662 37.2316C84.2503 36.3888 83.1811 35.9674 81.8588 35.9674C80.5365 35.9674 79.4673 36.3888 78.6514 37.2316C77.8355 38.0745 77.4275 39.1843 77.4275 40.561C77.4275 41.9377 77.8355 43.0476 78.6514 43.8904ZM103.688 27.1171C102.9 27.9038 101.957 28.2972 100.86 28.2972C99.7628 28.2972 98.8061 27.9038 97.9902 27.1171C97.2023 26.3023 96.8085 25.347 96.8085 24.2513C96.8085 23.1556 97.2023 22.2143 97.9902 21.4276C98.8061 20.641 99.7628 20.2476 100.86 20.2476C101.957 20.2476 102.9 20.641 103.688 21.4276C104.503 22.2143 104.911 23.1556 104.911 24.2513C104.911 25.347 104.503 26.3023 103.688 27.1171ZM97.3571 51.0972V30.025H104.363V51.0972H97.3571ZM121.486 36.7259H117.096V42.8368C117.096 43.764 117.434 44.34 118.109 44.5648C118.785 44.7895 119.909 44.8597 121.486 44.7755V51.0972C117.293 51.6029 114.339 51.2236 112.622 49.9592C110.935 48.6669 110.09 46.3489 110.09 43.0055V36.7259H106.925V30.025H110.09V26.232L117.096 24.1249V30.025H121.486V36.7259Z" fill="#1E253A"/>
<path d="M200.712 11.8107L172.602 0.338101C171.898 0.0507816 171.107 0.0506404 170.402 0.338101L142.291 11.8107C141.221 12.2478 140.524 13.2752 140.524 14.4149V28.3614C140.524 47.5649 152.331 64.8389 170.418 72.096C171.113 72.3746 171.891 72.3746 172.586 72.096C190.673 64.8391 202.48 47.565 202.48 28.3614V14.4149C202.48 13.2752 201.782 12.2478 200.712 11.8107Z" fill="#0C6D6A"/>
<path d="M197.922 47.7027H192.011C191.175 40.4589 185.559 34.7144 178.478 33.8585V27.8122C178.478 27.5944 178.304 27.4163 178.091 27.4163H175.19C174.977 27.4163 174.802 27.5944 174.802 27.8122V33.8585C167.722 34.7144 162.105 40.4589 161.268 47.7027H155.359C155.146 47.7027 154.971 47.8809 154.971 48.0986V51.0673C154.971 51.2851 155.146 51.4631 155.359 51.4631H161.268C162.105 58.7069 167.722 64.4514 174.802 65.3074V71.3538C174.802 71.5715 174.977 71.7496 175.19 71.7496H178.091C178.304 71.7496 178.478 71.5715 178.478 71.3538V65.3074C185.559 64.4514 191.175 58.7069 192.011 51.4631H197.922C198.135 51.4631 198.309 51.2851 198.309 51.0673V48.0986C198.309 47.8809 198.135 47.7027 197.922 47.7027ZM176.64 61.6558C170.121 61.6558 164.838 56.2527 164.838 49.5829C164.838 42.9131 170.121 37.51 176.64 37.51C183.16 37.51 188.442 42.9131 188.442 49.5829C188.442 56.2527 183.16 61.6558 176.64 61.6558Z" fill="#F5F5F5"/>
<path d="M176.641 43.6455C175.088 43.6455 173.636 44.2591 172.539 45.3872C171.441 46.5105 170.836 47.9948 170.836 49.583C170.836 51.1713 171.441 52.6557 172.539 53.779C173.636 54.8971 175.093 55.5206 176.641 55.5206C178.188 55.5206 179.644 54.9021 180.742 53.779C181.835 52.6557 182.445 51.1664 182.445 49.583C182.445 47.9997 181.84 46.5105 180.742 45.3872C179.644 44.2591 178.193 43.6455 176.641 43.6455Z" fill="#F5F5F5"/>
<path d="M10.3291 74.0146C10.3291 75.2686 10.1182 76.3643 9.69629 77.3018C9.27441 78.2334 8.67676 78.9453 7.90332 79.4375C7.12988 79.9297 6.22754 80.1758 5.19629 80.1758C4.18848 80.1758 3.29492 79.9297 2.51562 79.4375C1.73633 78.9395 1.12988 78.2334 0.696289 77.3193C0.268555 76.3994 0.0488281 75.3359 0.0371094 74.1289V73.2061C0.0371094 71.9756 0.250977 70.8887 0.678711 69.9453C1.10645 69.002 1.70996 68.2812 2.48926 67.7832C3.27441 67.2793 4.1709 67.0273 5.17871 67.0273C6.2041 67.0273 7.10645 67.2764 7.88574 67.7744C8.6709 68.2666 9.27441 68.9844 9.69629 69.9277C10.1182 70.8652 10.3291 71.958 10.3291 73.2061V74.0146ZM8.65039 73.1885C8.65039 71.6709 8.3457 70.5078 7.73633 69.6992C7.12695 68.8848 6.27441 68.4775 5.17871 68.4775C4.1123 68.4775 3.27148 68.8848 2.65625 69.6992C2.04688 70.5078 1.7334 71.6328 1.71582 73.0742V74.0146C1.71582 75.4854 2.02344 76.6426 2.63867 77.4863C3.25977 78.3242 4.1123 78.7432 5.19629 78.7432C6.28613 78.7432 7.12988 78.3477 7.72754 77.5566C8.3252 76.7598 8.63281 75.6201 8.65039 74.1377V73.1885ZM16.7803 71.0352C17.9756 71.0352 18.9307 71.4365 19.6455 72.2393C20.3662 73.0361 20.7266 74.0879 20.7266 75.3945V75.5439C20.7266 76.4404 20.5537 77.2432 20.208 77.9521C19.8623 78.6553 19.3643 79.2031 18.7139 79.5957C18.0693 79.9824 17.3252 80.1758 16.4814 80.1758C15.2041 80.1758 14.1758 79.751 13.3965 78.9014C12.6172 78.0459 12.2275 76.9004 12.2275 75.4648V74.6738C12.2275 72.6758 12.5967 71.0879 13.335 69.9102C14.0791 68.7324 15.1748 68.0146 16.6221 67.7568C17.4424 67.6104 17.9961 67.4316 18.2832 67.2207C18.5703 67.0098 18.7139 66.7197 18.7139 66.3506H20.0498C20.0498 67.083 19.8828 67.6543 19.5488 68.0645C19.2207 68.4746 18.6934 68.7646 17.9668 68.9346L16.7539 69.207C15.7871 69.4355 15.0605 69.8223 14.5742 70.3672C14.0938 70.9062 13.7803 71.627 13.6338 72.5293C14.4951 71.5332 15.5439 71.0352 16.7803 71.0352ZM16.4639 72.3711C15.667 72.3711 15.0342 72.6406 14.5654 73.1797C14.0967 73.7129 13.8623 74.4541 13.8623 75.4033V75.5439C13.8623 76.5635 14.0967 77.3721 14.5654 77.9697C15.04 78.5615 15.6787 78.8574 16.4814 78.8574C17.29 78.8574 17.9287 78.5586 18.3975 77.9609C18.8662 77.3633 19.1006 76.4902 19.1006 75.3418C19.1006 74.4453 18.8633 73.7275 18.3887 73.1885C17.9199 72.6436 17.2783 72.3711 16.4639 72.3711ZM30.4297 75.3506C30.4297 76.7979 30.0986 77.9639 29.4365 78.8486C28.7744 79.7334 27.8779 80.1758 26.7471 80.1758C25.5928 80.1758 24.6846 79.8096 24.0225 79.0771V83.6562H22.3965V70.4902H23.8818L23.9609 71.5449C24.623 70.7246 25.543 70.3145 26.7207 70.3145C27.8633 70.3145 28.7656 70.7451 29.4277 71.6064C30.0957 72.4678 30.4297 73.666 30.4297 75.2012V75.3506ZM28.8037 75.166C28.8037 74.0938 28.5752 73.2471 28.1182 72.626C27.6611 72.0049 27.0342 71.6943 26.2373 71.6943C25.2529 71.6943 24.5146 72.1309 24.0225 73.0039V77.5479C24.5088 78.415 25.2529 78.8486 26.2549 78.8486C27.0342 78.8486 27.6523 78.541 28.1094 77.9258C28.5723 77.3047 28.8037 76.3848 28.8037 75.166ZM38.375 80C38.2812 79.8125 38.2051 79.4785 38.1465 78.998C37.3906 79.7832 36.4883 80.1758 35.4395 80.1758C34.502 80.1758 33.7314 79.9121 33.1279 79.3848C32.5303 78.8516 32.2314 78.1777 32.2314 77.3633C32.2314 76.373 32.6064 75.6055 33.3564 75.0605C34.1123 74.5098 35.1729 74.2344 36.5381 74.2344H38.1201V73.4873C38.1201 72.9189 37.9502 72.4678 37.6104 72.1338C37.2705 71.7939 36.7695 71.624 36.1074 71.624C35.5273 71.624 35.041 71.7705 34.6484 72.0635C34.2559 72.3564 34.0596 72.7109 34.0596 73.127H32.4248C32.4248 72.6523 32.5918 72.1953 32.9258 71.7559C33.2656 71.3105 33.7227 70.959 34.2969 70.7012C34.877 70.4434 35.5127 70.3145 36.2041 70.3145C37.2998 70.3145 38.1582 70.5898 38.7793 71.1406C39.4004 71.6855 39.7227 72.4385 39.7461 73.3994V77.7764C39.7461 78.6494 39.8574 79.3438 40.0801 79.8594V80H38.375ZM35.6768 78.7607C36.1865 78.7607 36.6699 78.6289 37.127 78.3652C37.584 78.1016 37.915 77.7588 38.1201 77.3369V75.3857H36.8457C34.8535 75.3857 33.8574 75.9688 33.8574 77.1348C33.8574 77.6445 34.0273 78.043 34.3672 78.3301C34.707 78.6172 35.1436 78.7607 35.6768 78.7607ZM47.5244 73.0918C47.5244 72.6465 47.3545 72.2949 47.0146 72.0371C46.6748 71.7734 46.209 71.6416 45.6172 71.6416C45.043 71.6416 44.5625 71.791 44.1758 72.0898C43.7949 72.3887 43.6045 72.7402 43.6045 73.1445H41.9873C41.9873 72.3184 42.333 71.6416 43.0244 71.1143C43.7158 70.5869 44.5801 70.3232 45.6172 70.3232C46.7305 70.3232 47.5977 70.5635 48.2188 71.0439C48.8398 71.5186 49.1504 72.1982 49.1504 73.083C49.1504 73.5107 49.0215 73.9033 48.7637 74.2607C48.5059 74.6182 48.1396 74.9023 47.665 75.1133C48.7725 75.4883 49.3262 76.2266 49.3262 77.3281C49.3262 78.2012 48.9893 78.8926 48.3154 79.4023C47.6416 79.9121 46.7422 80.167 45.6172 80.167C44.5215 80.167 43.6162 79.9004 42.9014 79.3672C42.1924 78.8281 41.8379 78.1016 41.8379 77.1875H43.4551C43.4551 77.6504 43.6602 78.0488 44.0703 78.3828C44.4863 78.7109 45.002 78.875 45.6172 78.875C46.2383 78.875 46.7393 78.7314 47.1201 78.4443C47.501 78.1572 47.6914 77.7852 47.6914 77.3281C47.6914 76.7949 47.5303 76.4141 47.208 76.1855C46.8916 75.9512 46.3965 75.834 45.7227 75.834H44.0967V74.4629H45.8633C46.9707 74.4336 47.5244 73.9766 47.5244 73.0918ZM51.0049 75.1572C51.0049 74.2256 51.1865 73.3877 51.5498 72.6436C51.9189 71.8994 52.4287 71.3252 53.0791 70.9209C53.7354 70.5166 54.4824 70.3145 55.3203 70.3145C56.6152 70.3145 57.6611 70.7627 58.458 71.6592C59.2607 72.5557 59.6621 73.748 59.6621 75.2363V75.3506C59.6621 76.2764 59.4834 77.1084 59.126 77.8467C58.7744 78.5791 58.2676 79.1504 57.6055 79.5605C56.9492 79.9707 56.1934 80.1758 55.3379 80.1758C54.0488 80.1758 53.0029 79.7275 52.2002 78.8311C51.4033 77.9346 51.0049 76.748 51.0049 75.2715V75.1572ZM52.6396 75.3506C52.6396 76.4053 52.8828 77.252 53.3691 77.8906C53.8613 78.5293 54.5176 78.8486 55.3379 78.8486C56.1641 78.8486 56.8203 78.5264 57.3066 77.8818C57.793 77.2314 58.0361 76.3232 58.0361 75.1572C58.0361 74.1143 57.7871 73.2705 57.2891 72.626C56.7969 71.9756 56.1406 71.6504 55.3203 71.6504C54.5176 71.6504 53.8701 71.9697 53.3779 72.6084C52.8857 73.2471 52.6396 74.1611 52.6396 75.3506ZM61.8506 80V70.4902H65.5596C66.8252 70.4902 67.7949 70.7129 68.4688 71.1582C69.1484 71.5977 69.4883 72.2451 69.4883 73.1006C69.4883 73.54 69.3564 73.9385 69.0928 74.2959C68.8291 74.6475 68.4395 74.917 67.9238 75.1045C68.498 75.2393 68.958 75.5029 69.3037 75.8955C69.6553 76.2881 69.8311 76.7568 69.8311 77.3018C69.8311 78.1748 69.5088 78.8428 68.8643 79.3057C68.2256 79.7686 67.3203 80 66.1484 80H61.8506ZM63.4766 75.8252V78.6904H66.166C66.8457 78.6904 67.3525 78.5645 67.6865 78.3125C68.0264 78.0605 68.1963 77.7061 68.1963 77.249C68.1963 76.2998 67.499 75.8252 66.1045 75.8252H63.4766ZM63.4766 74.5244H65.5771C67.1006 74.5244 67.8623 74.0791 67.8623 73.1885C67.8623 72.2979 67.1416 71.8379 65.7002 71.8086H63.4766V74.5244ZM77.8555 80C77.7617 79.8125 77.6855 79.4785 77.627 78.998C76.8711 79.7832 75.9688 80.1758 74.9199 80.1758C73.9824 80.1758 73.2119 79.9121 72.6084 79.3848C72.0107 78.8516 71.7119 78.1777 71.7119 77.3633C71.7119 76.373 72.0869 75.6055 72.8369 75.0605C73.5928 74.5098 74.6533 74.2344 76.0186 74.2344H77.6006V73.4873C77.6006 72.9189 77.4307 72.4678 77.0908 72.1338C76.751 71.7939 76.25 71.624 75.5879 71.624C75.0078 71.624 74.5215 71.7705 74.1289 72.0635C73.7363 72.3564 73.54 72.7109 73.54 73.127H71.9053C71.9053 72.6523 72.0723 72.1953 72.4062 71.7559C72.7461 71.3105 73.2031 70.959 73.7773 70.7012C74.3574 70.4434 74.9932 70.3145 75.6846 70.3145C76.7803 70.3145 77.6387 70.5898 78.2598 71.1406C78.8809 71.6855 79.2031 72.4385 79.2266 73.3994V77.7764C79.2266 78.6494 79.3379 79.3438 79.5605 79.8594V80H77.8555ZM75.1572 78.7607C75.667 78.7607 76.1504 78.6289 76.6074 78.3652C77.0645 78.1016 77.3955 77.7588 77.6006 77.3369V75.3857H76.3262C74.334 75.3857 73.3379 75.9688 73.3379 77.1348C73.3379 77.6445 73.5078 78.043 73.8477 78.3301C74.1875 78.6172 74.624 78.7607 75.1572 78.7607ZM88.7012 71.8086H85.5107V80H83.8848V71.8086H80.7559V70.4902H88.7012V71.8086ZM93.5264 80.1758C92.2373 80.1758 91.1885 79.7539 90.3799 78.9102C89.5713 78.0605 89.167 76.9268 89.167 75.5088V75.21C89.167 74.2666 89.3457 73.4258 89.7031 72.6875C90.0664 71.9434 90.5703 71.3633 91.2148 70.9473C91.8652 70.5254 92.5684 70.3145 93.3242 70.3145C94.5605 70.3145 95.5215 70.7217 96.207 71.5361C96.8926 72.3506 97.2354 73.5166 97.2354 75.0342V75.7109H90.793C90.8164 76.6484 91.0889 77.4072 91.6104 77.9873C92.1377 78.5615 92.8057 78.8486 93.6143 78.8486C94.1885 78.8486 94.6748 78.7314 95.0732 78.4971C95.4717 78.2627 95.8203 77.9521 96.1191 77.5654L97.1123 78.3389C96.3154 79.5635 95.1201 80.1758 93.5264 80.1758ZM93.3242 71.6504C92.668 71.6504 92.1172 71.8906 91.6719 72.3711C91.2266 72.8457 90.9512 73.5137 90.8457 74.375H95.6094V74.252C95.5625 73.4258 95.3398 72.7871 94.9414 72.3359C94.543 71.8789 94.0039 71.6504 93.3242 71.6504ZM106.921 70.4902V80H105.286V71.835H102.052L101.858 75.3945C101.753 77.0293 101.478 78.1982 101.032 78.9014C100.593 79.6045 99.8926 79.9707 98.9316 80H98.2812V78.5674L98.7471 78.5322C99.2744 78.4736 99.6523 78.1689 99.8809 77.6182C100.109 77.0674 100.256 76.0479 100.32 74.5596L100.496 70.4902H106.921ZM111.307 73.7686H113.776C114.854 73.7803 115.707 74.0615 116.334 74.6123C116.961 75.1631 117.274 75.9102 117.274 76.8535C117.274 77.8027 116.952 78.5645 116.308 79.1387C115.663 79.7129 114.796 80 113.706 80H109.681V70.4902H111.307V73.7686ZM111.307 75.0957V78.6729H113.724C114.333 78.6729 114.805 78.5176 115.139 78.207C115.473 77.8906 115.64 77.46 115.64 76.915C115.64 76.3877 115.476 75.957 115.147 75.623C114.825 75.2832 114.371 75.1074 113.785 75.0957H111.307ZM127.074 80H125.448V75.9395H121.08V80H119.445V70.4902H121.08V74.6123H125.448V70.4902H127.074V80ZM135.564 80C135.471 79.8125 135.395 79.4785 135.336 78.998C134.58 79.7832 133.678 80.1758 132.629 80.1758C131.691 80.1758 130.921 79.9121 130.317 79.3848C129.72 78.8516 129.421 78.1777 129.421 77.3633C129.421 76.373 129.796 75.6055 130.546 75.0605C131.302 74.5098 132.362 74.2344 133.728 74.2344H135.31V73.4873C135.31 72.9189 135.14 72.4678 134.8 72.1338C134.46 71.7939 133.959 71.624 133.297 71.624C132.717 71.624 132.23 71.7705 131.838 72.0635C131.445 72.3564 131.249 72.7109 131.249 73.127H129.614C129.614 72.6523 129.781 72.1953 130.115 71.7559C130.455 71.3105 130.912 70.959 131.486 70.7012C132.066 70.4434 132.702 70.3145 133.394 70.3145C134.489 70.3145 135.348 70.5898 135.969 71.1406C136.59 71.6855 136.912 72.4385 136.936 73.3994V77.7764C136.936 78.6494 137.047 79.3438 137.27 79.8594V80H135.564ZM132.866 78.7607C133.376 78.7607 133.859 78.6289 134.316 78.3652C134.773 78.1016 135.104 77.7588 135.31 77.3369V75.3857H134.035C132.043 75.3857 131.047 75.9688 131.047 77.1348C131.047 77.6445 131.217 78.043 131.557 78.3301C131.896 78.6172 132.333 78.7607 132.866 78.7607ZM146.753 70.4902V80H145.118V76.2998H142.666L140.425 80H138.667L141.058 76.0537C140.448 75.8311 139.979 75.4883 139.651 75.0254C139.329 74.5566 139.168 74.0117 139.168 73.3906C139.168 72.5234 139.493 71.8262 140.144 71.2988C140.794 70.7656 141.664 70.4961 142.754 70.4902H146.753ZM140.803 73.4082C140.803 73.8711 140.961 74.2461 141.277 74.5332C141.594 74.8145 142.013 74.958 142.534 74.9639H145.118V71.8086H142.78C142.177 71.8086 141.696 71.958 141.339 72.2568C140.981 72.5498 140.803 72.9336 140.803 73.4082ZM201.79 80H200.164V71.835H195.787V80H194.152V70.4902H201.79V80ZM212.196 70.4902V80H210.562V71.835H207.327L207.134 75.3945C207.028 77.0293 206.753 78.1982 206.308 78.9014C205.868 79.6045 205.168 79.9707 204.207 80H203.557V78.5674L204.022 78.5322C204.55 78.4736 204.928 78.1689 205.156 77.6182C205.385 77.0674 205.531 76.0479 205.596 74.5596L205.771 70.4902H212.196ZM220.678 80C220.584 79.8125 220.508 79.4785 220.449 78.998C219.693 79.7832 218.791 80.1758 217.742 80.1758C216.805 80.1758 216.034 79.9121 215.431 79.3848C214.833 78.8516 214.534 78.1777 214.534 77.3633C214.534 76.373 214.909 75.6055 215.659 75.0605C216.415 74.5098 217.476 74.2344 218.841 74.2344H220.423V73.4873C220.423 72.9189 220.253 72.4678 219.913 72.1338C219.573 71.7939 219.072 71.624 218.41 71.624C217.83 71.624 217.344 71.7705 216.951 72.0635C216.559 72.3564 216.362 72.7109 216.362 73.127H214.728C214.728 72.6523 214.895 72.1953 215.229 71.7559C215.568 71.3105 216.025 70.959 216.6 70.7012C217.18 70.4434 217.815 70.3145 218.507 70.3145C219.603 70.3145 220.461 70.5898 221.082 71.1406C221.703 71.6855 222.025 72.4385 222.049 73.3994V77.7764C222.049 78.6494 222.16 79.3438 222.383 79.8594V80H220.678ZM217.979 78.7607C218.489 78.7607 218.973 78.6289 219.43 78.3652C219.887 78.1016 220.218 77.7588 220.423 77.3369V75.3857H219.148C217.156 75.3857 216.16 75.9688 216.16 77.1348C216.16 77.6445 216.33 78.043 216.67 78.3301C217.01 78.6172 217.446 78.7607 217.979 78.7607ZM231.523 71.8086H228.333V80H226.707V71.8086H223.578V70.4902H231.523V71.8086ZM232.051 75.4209C232.051 73.833 232.358 72.585 232.974 71.6768C233.589 70.7686 234.433 70.3145 235.505 70.3145C236.003 70.3145 236.439 70.3994 236.814 70.5693V66.5H238.44V70.6221C238.851 70.417 239.331 70.3145 239.882 70.3145C240.96 70.3145 241.807 70.7686 242.422 71.6768C243.037 72.585 243.345 73.8945 243.345 75.6055C243.345 77.0059 243.037 78.1191 242.422 78.9453C241.812 79.7715 240.972 80.1846 239.899 80.1846C239.331 80.1846 238.845 80.0908 238.44 79.9033V83.6562H236.814V79.9297C236.428 80.0996 235.985 80.1846 235.487 80.1846C234.421 80.1846 233.58 79.7715 232.965 78.9453C232.355 78.1191 232.051 76.9883 232.051 75.5527V75.4209ZM241.719 75.4209C241.719 74.2256 241.514 73.2998 241.104 72.6436C240.693 71.9814 240.128 71.6504 239.407 71.6504C239.038 71.6504 238.716 71.709 238.44 71.8262V78.708C238.704 78.8076 239.032 78.8574 239.425 78.8574C240.151 78.8574 240.714 78.5762 241.112 78.0137C241.517 77.4512 241.719 76.5869 241.719 75.4209ZM233.677 75.6055C233.677 76.6719 233.867 77.4805 234.248 78.0312C234.629 78.582 235.177 78.8574 235.892 78.8574C236.231 78.8574 236.539 78.8047 236.814 78.6992V71.7998C236.568 71.7002 236.267 71.6504 235.909 71.6504C235.194 71.6504 234.644 71.9697 234.257 72.6084C233.87 73.2471 233.677 74.2461 233.677 75.6055ZM245.032 75.1572C245.032 74.2256 245.214 73.3877 245.577 72.6436C245.946 71.8994 246.456 71.3252 247.106 70.9209C247.763 70.5166 248.51 70.3145 249.348 70.3145C250.643 70.3145 251.688 70.7627 252.485 71.6592C253.288 72.5557 253.689 73.748 253.689 75.2363V75.3506C253.689 76.2764 253.511 77.1084 253.153 77.8467C252.802 78.5791 252.295 79.1504 251.633 79.5605C250.977 79.9707 250.221 80.1758 249.365 80.1758C248.076 80.1758 247.03 79.7275 246.228 78.8311C245.431 77.9346 245.032 76.748 245.032 75.2715V75.1572ZM246.667 75.3506C246.667 76.4053 246.91 77.252 247.396 77.8906C247.889 78.5293 248.545 78.8486 249.365 78.8486C250.191 78.8486 250.848 78.5264 251.334 77.8818C251.82 77.2314 252.063 76.3232 252.063 75.1572C252.063 74.1143 251.814 73.2705 251.316 72.626C250.824 71.9756 250.168 71.6504 249.348 71.6504C248.545 71.6504 247.897 71.9697 247.405 72.6084C246.913 73.2471 246.667 74.1611 246.667 75.3506ZM263.762 75.3506C263.762 76.7979 263.431 77.9639 262.769 78.8486C262.106 79.7334 261.21 80.1758 260.079 80.1758C258.925 80.1758 258.017 79.8096 257.354 79.0771V83.6562H255.729V70.4902H257.214L257.293 71.5449C257.955 70.7246 258.875 70.3145 260.053 70.3145C261.195 70.3145 262.098 70.7451 262.76 71.6064C263.428 72.4678 263.762 73.666 263.762 75.2012V75.3506ZM262.136 75.166C262.136 74.0938 261.907 73.2471 261.45 72.626C260.993 72.0049 260.366 71.6943 259.569 71.6943C258.585 71.6943 257.847 72.1309 257.354 73.0039V77.5479C257.841 78.415 258.585 78.8486 259.587 78.8486C260.366 78.8486 260.984 78.541 261.441 77.9258C261.904 77.3047 262.136 76.3848 262.136 75.166ZM271.312 77.8467L274.546 70.4902H276.576V80H274.95V73.083L271.874 80H270.749L267.611 72.9336V80H265.985V70.4902H268.095L271.312 77.8467ZM285.066 80C284.973 79.8125 284.896 79.4785 284.838 78.998C284.082 79.7832 283.18 80.1758 282.131 80.1758C281.193 80.1758 280.423 79.9121 279.819 79.3848C279.222 78.8516 278.923 78.1777 278.923 77.3633C278.923 76.373 279.298 75.6055 280.048 75.0605C280.804 74.5098 281.864 74.2344 283.229 74.2344H284.812V73.4873C284.812 72.9189 284.642 72.4678 284.302 72.1338C283.962 71.7939 283.461 71.624 282.799 71.624C282.219 71.624 281.732 71.7705 281.34 72.0635C280.947 72.3564 280.751 72.7109 280.751 73.127H279.116C279.116 72.6523 279.283 72.1953 279.617 71.7559C279.957 71.3105 280.414 70.959 280.988 70.7012C281.568 70.4434 282.204 70.3145 282.896 70.3145C283.991 70.3145 284.85 70.5898 285.471 71.1406C286.092 71.6855 286.414 72.4385 286.438 73.3994V77.7764C286.438 78.6494 286.549 79.3438 286.771 79.8594V80H285.066ZM282.368 78.7607C282.878 78.7607 283.361 78.6289 283.818 78.3652C284.275 78.1016 284.606 77.7588 284.812 77.3369V75.3857H283.537C281.545 75.3857 280.549 75.9688 280.549 77.1348C280.549 77.6445 280.719 78.043 281.059 78.3301C281.398 78.6172 281.835 78.7607 282.368 78.7607Z" fill="#666D79" fill-opacity="0.6"/>
</g>
<defs>
<clipPath id="clip0">
<rect width="317" height="83" fill="white"/>
</clipPath>
</defs>
</svg>
