<svg width="275" height="63" viewBox="0 0 275 63" fill="none" xmlns="http://www.w3.org/2000/svg">
<path d="M211.878 43.2046H204.891L197.869 32.2698V43.2046H191.615V18.7499H197.869V29.0209L204.541 18.7499H211.528L203.773 30.6279L211.878 43.2046ZM218.65 23.3264C217.998 23.9785 217.218 24.3046 216.31 24.3046C215.401 24.3046 214.609 23.9785 213.934 23.3264C213.282 22.651 212.956 21.8591 212.956 20.9508C212.956 20.0425 213.282 19.2623 213.934 18.6101C214.609 17.958 215.401 17.632 216.31 17.632C217.218 17.632 217.998 17.958 218.65 18.6101C219.326 19.2623 219.663 20.0425 219.663 20.9508C219.663 21.8591 219.326 22.651 218.65 23.3264ZM213.41 43.2046V25.7369H219.209V43.2046H213.41ZM222.553 43.2046V17.7018H228.352V43.2046H222.553ZM231.696 43.2046V17.7018H237.496V43.2046H231.696ZM245.976 36.6018C246.558 38.0225 247.862 38.7329 249.889 38.7329C251.146 38.7329 252.206 38.3253 253.068 37.5101L257.26 40.4447C255.537 42.6107 253.033 43.6937 249.749 43.6937C246.791 43.6937 244.416 42.8319 242.622 41.1085C240.852 39.3617 239.967 37.1608 239.967 34.5057C239.967 31.8739 240.84 29.673 242.587 27.9029C244.334 26.1329 246.558 25.2479 249.26 25.2479C251.868 25.2479 254.023 26.1212 255.723 27.868C257.423 29.6148 258.273 31.804 258.273 34.4358C258.273 35.2044 258.192 35.9264 258.029 36.6018H245.976ZM245.906 32.5843H252.614C252.148 30.9539 251.053 30.1388 249.33 30.1388C247.536 30.1388 246.395 30.9539 245.906 32.5843ZM266.563 28.9859C266.889 27.8447 267.541 26.9597 268.519 26.3308C269.498 25.702 270.592 25.3876 271.803 25.3876V31.8157C270.476 31.6061 269.265 31.8506 268.17 32.5493C267.099 33.248 266.563 34.3893 266.563 35.973V43.2046H260.764V25.7369H266.563V28.9859Z" fill="#167572"/>
<path d="M23.3162 43.2792C19.6363 43.2792 16.5853 42.0681 14.1631 39.6459C11.7642 37.2004 10.5648 34.161 10.5648 30.5278C10.5648 26.8945 11.7642 23.8668 14.1631 21.4446C16.5853 18.9991 19.6363 17.7764 23.3162 17.7764C25.5287 17.7764 27.5783 18.3004 29.4648 19.3485C31.3513 20.3965 32.8302 21.8056 33.9016 23.5757L28.4866 26.6849C28.0208 25.8232 27.3221 25.1477 26.3905 24.6586C25.4822 24.1463 24.4574 23.8901 23.3162 23.8901C21.3598 23.8901 19.7761 24.5073 18.565 25.7416C17.3772 26.9527 16.7833 28.5481 16.7833 30.5278C16.7833 32.5074 17.3772 34.1145 18.565 35.3488C19.7761 36.5599 21.3598 37.1655 23.3162 37.1655C24.4574 37.1655 25.4822 36.9209 26.3905 36.4318C27.3221 35.9195 28.0208 35.2207 28.4866 34.3357L33.9016 37.4799C32.8302 39.2732 31.3513 40.6939 29.4648 41.742C27.6016 42.7668 25.552 43.2792 23.3162 43.2792ZM42.1725 28.5365C42.4986 27.3952 43.1507 26.5102 44.1289 25.8814C45.1071 25.2525 46.2017 24.9381 47.4128 24.9381V31.3662C46.0852 31.1566 44.8742 31.4012 43.7795 32.0999C42.7082 32.7986 42.1725 33.9398 42.1725 35.5235V42.7551H36.3732V25.2875H42.1725V28.5365ZM54.3373 36.1524C54.9196 37.5731 56.2239 38.2834 58.2501 38.2834C59.5078 38.2834 60.5675 37.8758 61.4292 37.0607L65.6214 39.9952C63.898 42.1612 61.3943 43.2442 58.1104 43.2442C55.1525 43.2442 52.7769 42.3825 50.9836 40.659C49.2135 38.9122 48.3285 36.7113 48.3285 34.0562C48.3285 31.4244 49.2019 29.2235 50.9486 27.4535C52.6954 25.6834 54.9196 24.7984 57.6213 24.7984C60.2298 24.7984 62.3841 25.6718 64.0843 27.4185C65.7845 29.1653 66.6346 31.3546 66.6346 33.9864C66.6346 34.7549 66.5531 35.4769 66.39 36.1524H54.3373ZM54.2675 32.1348H60.975C60.5092 30.5045 59.4146 29.6893 57.6911 29.6893C55.8978 29.6893 54.7566 30.5045 54.2675 32.1348ZM81.389 18.3004H87.1883V42.7551H81.389V41.1481C80.2012 42.5455 78.5476 43.2442 76.4282 43.2442C74.0992 43.2442 72.1428 42.3708 70.5591 40.6241C68.9986 38.854 68.2184 36.6531 68.2184 34.0213C68.2184 31.3895 68.9986 29.2002 70.5591 27.4535C72.1428 25.6834 74.0992 24.7984 76.4282 24.7984C78.5476 24.7984 80.2012 25.4971 81.389 26.8945V18.3004ZM75.0657 36.7812C75.7411 37.4799 76.6262 37.8293 77.7208 37.8293C78.8154 37.8293 79.7005 37.4799 80.3759 36.7812C81.0513 36.0825 81.389 35.1625 81.389 34.0213C81.389 32.8801 81.0513 31.9601 80.3759 31.2614C79.7005 30.5627 78.8154 30.2134 77.7208 30.2134C76.6262 30.2134 75.7411 30.5627 75.0657 31.2614C74.3903 31.9601 74.0526 32.8801 74.0526 34.0213C74.0526 35.1625 74.3903 36.0825 75.0657 36.7812ZM95.7905 22.8769C95.1384 23.5291 94.3582 23.8551 93.4499 23.8551C92.5415 23.8551 91.7497 23.5291 91.0743 22.8769C90.4221 22.2015 90.0961 21.4097 90.0961 20.5013C90.0961 19.593 90.4221 18.8128 91.0743 18.1607C91.7497 17.5086 92.5415 17.1825 93.4499 17.1825C94.3582 17.1825 95.1384 17.5086 95.7905 18.1607C96.4659 18.8128 96.8036 19.593 96.8036 20.5013C96.8036 21.4097 96.4659 22.2015 95.7905 22.8769ZM90.5502 42.7551V25.2875H96.3495V42.7551H90.5502ZM110.523 30.8422H106.89V35.9078C106.89 36.6764 107.17 37.1538 107.729 37.3402C108.288 37.5265 109.219 37.5847 110.523 37.5148V42.7551C107.053 43.1744 104.608 42.8599 103.187 41.8119C101.79 40.7405 101.091 38.8191 101.091 36.0476V30.8422H98.4707V25.2875H101.091V22.1433L106.89 20.3965V25.2875H110.523V30.8422Z" fill="#1E253A"/>
<path d="M175.279 10.1889L152.01 0.678674C151.427 0.440501 150.771 0.440384 150.189 0.678674L126.919 10.1889C126.033 10.5512 125.455 11.4029 125.455 12.3475V23.9085C125.455 39.8272 135.23 54.1465 150.202 60.1622C150.777 60.3932 151.421 60.3932 151.996 60.1622C166.968 54.1466 176.743 39.8273 176.743 23.9085V12.3475C176.743 11.4029 176.165 10.5512 175.279 10.1889Z" fill="#0C6D6A"/>
<path d="M172.97 39.9414H168.077C167.384 33.9367 162.736 29.1748 156.874 28.4652V23.4531C156.874 23.2727 156.73 23.125 156.554 23.125H154.151C153.975 23.125 153.831 23.2727 153.831 23.4531V28.4652C147.969 29.1748 143.321 33.9367 142.628 39.9414H137.735C137.559 39.9414 137.415 40.0891 137.415 40.2695V42.7305C137.415 42.9109 137.559 43.0586 137.735 43.0586H142.628C143.321 49.0633 147.969 53.8252 153.831 54.5348V59.5469C153.831 59.7273 153.975 59.875 154.151 59.875H156.554C156.73 59.875 156.874 59.7273 156.874 59.5469V54.5348C162.736 53.8252 167.384 49.0633 168.077 43.0586H172.97C173.146 43.0586 173.29 42.9109 173.29 42.7305V40.2695C173.29 40.0891 173.146 39.9414 172.97 39.9414ZM155.353 51.5078C149.955 51.5078 145.583 47.0289 145.583 41.5C145.583 35.9711 149.955 31.4922 155.353 31.4922C160.75 31.4922 165.122 35.9711 165.122 41.5C165.122 47.0289 160.75 51.5078 155.353 51.5078Z" fill="#F5F5F5"/>
<path d="M155.353 36.5781C154.067 36.5781 152.866 37.0867 151.957 38.0219C151.048 38.9529 150.548 40.1834 150.548 41.5C150.548 42.8166 151.048 44.0471 151.957 44.9781C152.866 45.9051 154.071 46.4219 155.353 46.4219C156.634 46.4219 157.839 45.9092 158.748 44.9781C159.653 44.0471 160.157 42.8125 160.157 41.5C160.157 40.1875 159.657 38.9529 158.748 38.0219C157.839 37.0867 156.638 36.5781 155.353 36.5781Z" fill="#F5F5F5"/>
</svg>
