<svg width="190" height="289" viewBox="0 0 190 289" fill="none" xmlns="http://www.w3.org/2000/svg">
<mask id="mask0" mask-type="alpha" maskUnits="userSpaceOnUse" x="0" y="0" width="322" height="316">
<rect width="321.815" height="315.616" fill="#C4C4C4"/>
</mask>
<g mask="url(#mask0)">
<path d="M158.364 155.883L151.913 149.473C151.629 149.19 150.969 148.969 150.431 148.969H121.165C120.627 148.969 119.968 149.191 119.683 149.473L113.233 155.883C112.395 156.736 112.16 157.227 112.16 159.759C112.16 162.291 116.656 158.717 116.699 157.669C116.71 157.409 116.501 157.168 116.183 156.953H155.414C155.095 157.168 154.887 157.409 154.897 157.669C154.941 158.717 159.436 162.291 159.436 159.759C159.436 157.227 159.202 156.736 158.364 155.883Z" fill="#1B4E6F" fill-opacity="0.2"/>
<path d="M199.487 175.546C199.487 177.948 196.549 175.133 196.549 175.133C196.549 175.133 195.854 173.806 195.521 172.922H158.162C157.539 172.922 156.541 172.406 155.932 171.772L151.851 167.439C151.243 166.805 151.257 166.289 151.894 166.289H192.076C192.713 166.289 193.697 166.805 194.305 167.439L198.402 171.772C198.981 172.454 199.487 173.246 199.487 175.546Z" fill="#1B4E6F" fill-opacity="0.2"/>
<path d="M72.1089 175.546C72.1089 177.948 75.0473 175.133 75.0473 175.133C75.0473 175.133 75.742 173.806 76.075 172.922H113.435C114.057 172.922 115.056 172.406 115.664 171.772L119.746 167.439C120.354 166.805 120.339 166.289 119.702 166.289H79.5201C78.8832 166.289 77.8989 166.805 77.291 167.439L73.1947 171.772C72.6155 172.454 72.1089 173.246 72.1089 175.546Z" fill="#1B4E6F" fill-opacity="0.2"/>
<path d="M196.593 216.157H159.923C158.324 216.157 157.028 214.837 157.028 213.209V175.868C157.028 174.24 158.324 172.92 159.923 172.92H196.593C198.192 172.92 199.488 174.24 199.488 175.868V213.209C199.488 214.837 198.192 216.157 196.593 216.157Z" fill="#194866" fill-opacity="0.7"/>
<path d="M111.674 216.157H75.0039C73.405 216.157 72.1089 214.837 72.1089 213.209V175.868C72.1089 174.24 73.405 172.92 75.0039 172.92H111.674C113.272 172.92 114.569 174.24 114.569 175.868V213.209C114.569 214.837 113.272 216.157 111.674 216.157Z" fill="#194866" fill-opacity="0.7"/>
<path d="M156.545 219.351H115.051C113.452 219.351 112.156 218.031 112.156 216.403V159.9C112.156 158.272 113.452 156.952 115.051 156.952H156.545C158.144 156.952 159.44 158.272 159.44 159.9V216.403C159.44 218.031 158.144 219.351 156.545 219.351Z" fill="#194866"/>
<path d="M133.823 23.389C139.575 23.389 144.238 18.6405 144.238 12.7829C144.238 6.92528 139.575 2.17676 133.823 2.17676C128.071 2.17676 123.408 6.92528 123.408 12.7829C123.408 18.6405 128.071 23.389 133.823 23.389Z" fill="#FFCF50"/>
<path d="M133.884 21.4958C138.611 21.4958 142.443 17.5937 142.443 12.7801C142.443 7.96659 138.611 4.06445 133.884 4.06445C129.157 4.06445 125.325 7.96659 125.325 12.7801C125.325 17.5937 129.157 21.4958 133.884 21.4958Z" fill="#FFAB01"/>
<path d="M125.58 146.333C125.58 146.333 125.888 148.411 125.378 149.135C124.868 149.86 130.732 149.384 130.732 149.384C130.732 149.384 128.802 146.43 129.408 145.008C130.013 143.586 125.58 146.333 125.58 146.333Z" fill="#E9D6B8"/>
<path d="M119.728 154.305L131.053 152.4C131.676 151.057 131.406 149.804 130.44 148.621C128.597 149.065 126.83 149.176 125.197 148.694C123.921 150.186 121.873 151.53 119.485 152.81C118.729 153.292 118.965 153.793 119.728 154.305Z" fill="#2A425B"/>
<rect width="11.5028" height="0.501115" transform="matrix(0.986141 -0.165908 0.160149 0.987093 119.72 154.306)" fill="#A8CFEF"/>
<path d="M125.093 87.1172L124.848 89.4767L123.294 104.331L122.225 114.59L124.914 146.382L125.721 146.475L129.619 146.928L129.995 146.974L130.807 118.151L138.458 95.1522L138.864 93.9227L138.986 93.561L135.515 91.9542L132.393 90.4985L125.093 87.1172Z" fill="#0C6D6A"/>
<path d="M146.302 146.336C146.302 146.336 145.994 148.414 146.504 149.138C147.013 149.863 141.15 149.387 141.15 149.387C141.15 149.387 143.08 146.433 142.474 145.011C141.868 143.589 146.302 146.336 146.302 146.336Z" fill="#E9D6B8"/>
<path d="M152.153 154.308L140.828 152.403C140.204 151.06 140.475 149.807 141.441 148.624C143.283 149.068 145.051 149.179 146.683 148.697C147.96 150.189 150.008 151.533 152.396 152.813C153.151 153.295 152.916 153.796 152.153 154.308Z" fill="#2A425B"/>
<rect width="11.5028" height="0.501115" transform="matrix(-0.986141 -0.165908 0.160149 -0.987093 152.072 154.812)" fill="#A8CFEF"/>
<path d="M146.789 87.1191L147.034 89.4787L148.588 104.332L149.658 114.592L146.968 146.384L146.161 146.477L142.263 146.93L141.887 146.976L141.075 118.153L133.424 95.1542L133.018 93.9247L132.896 93.563L136.366 91.9562L139.489 90.5005L146.789 87.1191Z" fill="#0C6D6A"/>
<path d="M148.357 89.1842C148.437 89.5113 147.888 89.8519 146.911 90.179C145.319 90.7241 141.774 91.3327 138.75 91.7551C136.475 92.0823 134.026 92.3413 131.791 92.5182C131.189 92.559 130.6 92.5865 130.038 92.6273C130.038 92.6273 130.024 92.6138 130.011 92.6273C127.201 92.7637 124.22 92.6387 123.363 92.2978C123.096 92.1887 122.975 92.066 122.988 91.9026C123.893 72.0886 125.301 75.7443 121.205 62.9494C120.541 60.8776 121.324 54.7656 121.579 53.1574C121.619 52.9121 126.103 51.0249 128.284 49.9209C130.6 48.7082 133.975 50.0424 136.786 49.2656C137.803 48.9792 144.042 49.1453 144.711 50.3716C145.848 52.4568 146.606 58.6428 146.713 60.5508C146.766 61.5867 146.793 62.6223 146.793 63.6717C146.793 64.2986 146.78 64.9255 146.766 65.5524C146.766 65.5524 146.766 65.5659 146.766 65.5797C146.726 67.5966 146.606 67.6471 146.472 69.6505C146.004 77.0507 147.266 83.6985 148.357 89.1842Z" fill="#79CCCA"/>
<path d="M128.902 50.4925C130.352 52.8045 138.859 50.7266 137.249 48.5375C135.921 47.8237 135.043 46.0386 134.207 44.1572L128.59 44.5495C129.57 46.6743 130.147 48.5965 128.902 50.4925Z" fill="#DFCAA8"/>
<path d="M130.028 45.7532C129.696 46.5948 135.296 47.276 135.531 46.8615C137.067 45.8271 137.205 37.8516 136.164 35.1506L127.055 34.8105L125.677 41.3773L130.028 45.7532Z" fill="#E9D6B8"/>
<path d="M139.737 23.6014L146.251 41.2536L145.098 45.4602C146.644 45.699 149.343 45.9926 151.283 47.2268C151.726 45.5021 151.802 43.8402 151.638 42.2278C151.516 39.7797 146.415 30.3341 143.175 23.3916L139.737 23.6014Z" fill="#E9D6B8"/>
<path d="M142.116 53.7165C144.781 54.7735 143.446 60.0209 146.617 60.0767C147.18 57.3152 151.466 47.8344 152.062 45.5136C150.121 44.2791 146.805 43.8511 145.259 43.6123C144.028 46.8153 141.916 52.3227 142.116 53.7165Z" fill="#79CCCA"/>
<path d="M140.528 24.4799C139.239 24.1848 137.956 23.2258 137.271 21.6654C137.161 20.9411 137.386 20.9308 137.99 21.0317C138.492 21.2412 138.343 21.2221 138.811 21.6519C138.896 20.7636 138.652 19.7388 138.485 18.5891C138.471 17.9643 140.479 18.4181 141.041 18.6281C141.894 19.0377 142.592 19.1477 143.117 20.2361C143.467 21.7296 143.514 23.1237 143.117 24.3714L140.528 24.4799Z" fill="#E9D6B8"/>
<path d="M127.692 23.8758L121.178 41.528L122.33 45.7346C120.784 45.9734 118.086 46.267 116.145 47.5012C115.702 45.7765 115.626 44.1146 115.791 42.5023C115.912 40.0541 121.014 30.6088 124.253 23.666L127.692 23.8758Z" fill="#E9D6B8"/>
<path d="M125.312 53.9948C122.647 55.0518 124.116 61.216 120.945 61.2718C120.382 58.5103 115.962 48.1128 115.366 45.7919C117.307 44.5574 120.623 44.1294 122.17 43.8906C123.399 47.0936 125.511 52.601 125.312 53.9948Z" fill="#79CCCA"/>
<path d="M126.9 24.7563C128.189 24.4612 129.471 23.5022 130.157 21.9417C130.267 21.2174 130.042 21.2072 129.437 21.3081C128.936 21.5175 129.085 21.4985 128.617 21.9283C128.532 21.0399 128.776 20.0152 128.943 18.8655C128.957 18.2406 126.949 18.6945 126.387 18.9045C125.534 19.3141 124.836 19.4241 124.311 20.5125C123.961 22.006 123.914 23.4001 124.311 24.6478L126.9 24.7563Z" fill="#E9D6B8"/>
<path d="M129.907 38.9549C129.907 38.9549 135.451 39.2453 137.331 36.8497C139.212 34.454 138.152 31.9466 136.027 32.1209C133.903 32.2954 134.008 34.1266 131.702 33.109C129.395 32.091 125.072 35.6137 125.18 38.1531C125.401 43.3569 127.573 46.0121 129.257 46.1518C130.252 46.2342 130.379 44.0084 129.171 43.3243C128.272 42.8153 127.945 40.99 128.761 40.978C129.94 40.9604 129.465 42.8138 129.976 41.7633C130.349 40.9958 129.907 38.9549 129.907 38.9549Z" fill="#393768"/>
<path d="M130.107 40.7061C130.98 43.3405 132.671 44.4016 134.515 45.6126C134.794 45.3146 135.188 45.1365 135.667 45.0455C135.979 45.1057 136.195 45.2585 136.263 45.554C136.293 46.2384 135.883 47.0358 135.275 47.5048C134.219 47.509 132.082 46.8943 131.519 45.9582L129.708 42.0558L130.107 40.7061Z" fill="#393768"/>
<path opacity="0.05" d="M146.976 66.2514C146.976 66.2514 146.899 66.2256 146.747 66.2256C146.76 66.0056 146.772 65.7984 146.772 65.5781L146.976 66.2514Z" fill="black"/>
<path d="M58.747 226.496C68.2713 225.166 121.883 231.203 111.322 244.826C100.761 258.448 53.5021 270.806 58.8163 256.804C64.1306 242.801 4.32616 250.726 11.3269 238.499C18.3276 226.273 58.747 226.496 58.747 226.496Z" fill="#E8EFEF"/>
<path d="M85.5687 228.418C85.6112 230.142 85.6537 231.868 85.6962 233.595C85.7278 234.914 84.0113 236.284 80.4838 237.436C72.8622 239.926 59.6761 240.46 51.0288 238.628C46.3845 237.645 43.9948 236.182 43.9568 234.651L43.8293 229.471C43.8672 231.008 46.257 232.468 50.9013 233.448C59.5486 235.28 72.7347 234.746 80.3563 232.259C83.8838 231.107 85.6032 229.737 85.5687 228.418Z" fill="#FFAB01"/>
<path d="M78.497 224.439C87.1443 226.27 87.9782 229.769 80.3565 232.26C72.7348 234.75 59.5488 235.281 50.9015 233.449C42.2542 231.618 41.4233 228.122 49.0419 225.631C56.6606 223.14 69.8496 222.61 78.497 224.439ZM53.2743 232.678C60.4348 234.192 71.3683 233.749 77.6717 231.69C83.9752 229.631 83.2936 226.73 76.1301 225.216C68.9666 223.702 58.0361 224.142 51.7327 226.204C45.4292 228.266 46.1108 231.164 53.2743 232.678Z" fill="#FFCF50"/>
<path d="M45.7969 231.753L45.7326 236.826C46.931 237.515 48.6856 238.134 51.0303 238.629C53.5837 239.145 56.171 239.469 58.7711 239.597L58.8366 234.429C56.1717 234.305 53.5197 233.977 50.9029 233.449C48.6785 232.98 46.9747 232.398 45.7969 231.753Z" fill="#F9AF38"/>
<path d="M87.8919 222.825L88.0164 228.005C88.051 229.323 86.3345 230.693 82.807 231.845C75.1853 234.336 61.9992 234.869 53.3489 233.038C48.7077 232.055 46.318 230.591 46.28 229.06L46.1525 223.88C46.1904 225.417 48.5802 226.875 53.2244 227.858C61.8718 229.689 75.0579 229.156 82.6795 226.665C86.207 225.516 87.9234 224.147 87.8919 222.825Z" fill="#FFAB01"/>
<path d="M80.818 218.847C89.4654 220.678 90.2993 224.177 82.6776 226.665C75.056 229.152 61.8698 229.689 53.2225 227.857C44.5752 226.026 43.7413 222.53 51.363 220.039C58.9846 217.549 72.1827 217.018 80.818 218.847ZM55.5893 227.086C62.7527 228.603 73.6833 228.16 79.9898 226.098C86.2962 224.036 85.6117 221.138 78.4482 219.624C71.2847 218.11 60.3542 218.55 54.0537 220.612C47.7533 222.675 48.4288 225.572 55.5893 227.086Z" fill="#FFCF50"/>
<path d="M78.449 219.621C85.6124 221.138 86.3001 224.027 79.9906 226.095C73.681 228.164 62.7566 228.601 55.5901 227.084C48.4236 225.567 47.7389 222.678 54.0545 220.61C60.3701 218.542 71.2885 218.107 78.449 219.621Z" fill="#FFAB01"/>
<path d="M48.1177 226.163L48.0534 231.236C49.2367 231.925 51.0034 232.544 53.3481 233.039C55.9026 233.555 58.4908 233.879 61.0919 234.007L61.1574 228.842C58.4925 228.715 55.8406 228.387 53.2237 227.859C50.9993 227.39 49.2955 226.809 48.1177 226.163Z" fill="#F9AF38"/>
<path d="M86.1717 216.066L86.2962 221.243C86.3307 222.565 84.6143 223.931 81.0838 225.083C73.4651 227.574 60.2791 228.107 51.6317 226.279C46.9875 225.296 44.5947 223.829 44.5598 222.298L44.4323 217.122C44.4702 218.659 46.86 220.116 51.5042 221.099C60.1516 222.927 73.3376 222.394 80.9593 219.906C84.4868 218.754 86.2033 217.385 86.1717 216.066Z" fill="#FFAB01"/>
<path d="M79.1003 212.087C87.7476 213.919 88.5814 217.418 80.9598 219.908C73.3381 222.399 60.1521 222.929 51.5047 221.101C42.8573 219.272 42.0235 215.77 49.6452 213.28C57.2669 210.789 70.4589 210.259 79.1003 212.087ZM53.8715 220.327C61.035 221.841 71.9655 221.4 78.272 219.338C84.5785 217.276 83.8939 214.378 76.7304 212.864C69.5669 211.35 58.6364 211.79 52.3329 213.853C46.0295 215.915 46.711 218.813 53.8715 220.327Z" fill="#FFCF50"/>
<path d="M80.2235 194.554C88.6006 196.589 89.4021 200.506 82.0107 203.31C74.6193 206.114 61.8388 206.735 53.4616 204.704C45.0844 202.673 44.283 198.753 51.6744 195.948C59.0658 193.144 71.8521 192.524 80.2235 194.554ZM55.7569 203.832C62.6966 205.514 73.2909 204.999 79.4069 202.677C85.5228 200.355 84.8649 197.111 77.9252 195.43C70.9855 193.748 60.3912 194.263 54.2781 196.585C48.1651 198.907 48.8201 202.151 55.7569 203.832Z" fill="#FFCF50"/>
<path d="M76.7298 212.86C83.8932 214.377 84.5809 217.265 78.2713 219.334C71.9618 221.402 61.0374 221.836 53.8708 220.322C46.7043 218.808 46.0197 215.916 52.3323 213.848C58.6449 211.78 69.5693 211.346 76.7298 212.86Z" fill="#FFAB01"/>
<path d="M46.3989 219.403L46.3347 224.473C47.518 225.162 49.2877 225.781 51.6324 226.279C54.1863 226.792 56.7733 227.116 59.3732 227.248L59.4387 222.079C56.7739 221.953 54.122 221.626 51.5049 221.099C49.2806 220.627 47.5767 220.058 46.3989 219.403Z" fill="#F9AF38"/>
<path d="M85.8514 206.151C85.8939 207.879 85.9364 209.605 85.9789 211.331C86.0104 212.65 84.294 214.019 80.7665 215.171C73.1449 217.659 59.9588 218.192 51.3114 216.364C46.6672 215.381 44.2774 213.917 44.2395 212.386L44.112 207.206C44.1499 208.744 46.5397 210.201 51.1839 211.184C59.8313 213.015 73.0174 212.479 80.639 209.991C84.1665 208.839 85.886 207.47 85.8514 206.151Z" fill="#FFAB01"/>
<path d="M78.7792 202.172C87.4266 204.001 88.2604 207.503 80.6388 209.991C73.0171 212.478 59.831 213.015 51.1837 211.183C42.5364 209.351 41.7055 205.853 49.3241 203.365C56.9428 200.878 70.1319 200.341 78.7792 202.172ZM53.5565 210.409C60.717 211.926 71.6506 211.483 77.954 209.421C84.2574 207.358 83.5759 204.461 76.4124 202.947C69.2489 201.433 58.3184 201.873 52.015 203.932C45.7116 205.991 46.393 208.895 53.5566 210.406" fill="#FFCF50"/>
<path d="M46.0781 209.487L46.0138 214.56C47.2123 215.246 48.9669 215.865 51.3116 216.363C53.8652 216.878 56.4524 217.201 59.0524 217.332L59.1179 212.163C56.4531 212.037 53.8012 211.71 51.1841 211.183C48.9598 210.711 47.256 210.133 46.0781 209.487Z" fill="#F9AF38"/>
<path d="M88.1729 200.56L88.2974 205.74C88.332 207.059 86.6155 208.429 83.088 209.581C75.4664 212.068 62.2803 212.602 53.6299 210.773C48.9887 209.79 46.599 208.324 46.5611 206.796L46.4247 201.603C46.4625 203.14 48.8523 204.598 53.4966 205.581C62.1439 207.412 75.33 206.879 82.9517 204.388C86.488 203.249 88.2045 201.879 88.1729 200.56Z" fill="#FFAB01"/>
<path d="M81.1022 196.584C89.7496 198.412 90.5834 201.914 82.9618 204.402C75.3402 206.889 62.154 207.426 53.5067 205.594C44.8594 203.763 44.0255 200.264 51.6471 197.776C59.2688 195.289 72.467 194.752 81.1022 196.584ZM55.8735 204.82C63.037 206.337 73.9675 205.894 80.2739 203.835C86.5804 201.776 85.8959 198.872 78.7323 197.361C71.5688 195.85 60.6383 196.287 54.3379 198.349C48.0375 200.412 48.713 203.309 55.8735 204.823" fill="#FFCF50"/>
<path d="M48.4004 203.898L48.3361 208.971C49.5194 209.66 51.2862 210.276 53.6308 210.774C56.1855 211.289 58.7737 211.612 61.3747 211.743L61.4402 206.575C58.7753 206.449 56.1234 206.121 53.5064 205.594C51.2821 205.126 49.5783 204.544 48.4004 203.898Z" fill="#F9AF38"/>
<path d="M86.4544 193.8L86.5788 198.98C86.6134 200.299 84.897 201.669 81.3665 202.821C73.7478 205.311 60.5618 205.842 51.9144 204.013C47.2702 203.03 44.8774 201.567 44.8425 200.036L44.715 194.856C44.7529 196.393 47.1427 197.85 51.7869 198.833C60.4343 200.665 73.6203 200.131 81.242 197.641C84.7695 196.489 86.4859 195.122 86.4544 193.8Z" fill="#FFAB01"/>
<path d="M79.3825 189.82C88.0298 191.651 88.8637 195.15 81.242 197.638C73.6204 200.125 60.4343 200.662 51.787 198.83C43.1397 196.999 42.3058 193.5 49.9274 191.012C57.5491 188.525 70.7412 187.991 79.3825 189.82ZM54.1537 198.059C61.3172 199.573 72.2478 199.13 78.5542 197.071C84.8607 195.012 84.1761 192.111 77.0126 190.597C69.8491 189.083 58.9186 189.523 52.6152 191.585C46.3117 193.647 46.9933 196.545 54.1537 198.059Z" fill="#FFCF50"/>
<path d="M77.0129 190.595C84.1764 192.112 84.8641 195.001 78.5545 197.069C72.245 199.138 61.3206 199.572 54.154 198.058C46.9875 196.544 46.3029 193.652 52.6155 191.584C58.928 189.516 69.8525 189.078 77.0129 190.595Z" fill="#FFAB01"/>
<path d="M46.6807 197.136L46.6162 202.221C47.7996 202.91 49.5693 203.529 51.914 204.024C54.4676 204.538 57.0548 204.862 59.6548 204.992L59.7204 199.812C57.0555 199.687 54.4035 199.36 51.7866 198.832C49.5623 198.363 47.8585 197.781 46.6807 197.136Z" fill="#F9AF38"/>
<path d="M24.6275 98.8173C25.9591 98.2697 27.2907 97.722 28.6223 97.1743C29.6394 96.7546 31.2174 97.7329 33.1643 100.238C37.3702 105.649 41.7105 116.135 42.861 123.662C43.4777 127.703 43.0484 130.069 41.8693 130.555L37.8744 132.198C39.0603 131.711 39.4836 129.348 38.8662 125.305C37.7164 117.78 33.3753 107.292 29.1694 101.881C27.2225 99.3759 25.6392 98.4018 24.6275 98.8173Z" fill="#FFAB01"/>
<path d="M23.6373 105.709C22.4875 98.1832 24.9629 96.4622 29.171 101.88C33.3791 107.297 37.7179 117.779 38.8678 125.304C40.0176 132.83 37.5421 134.551 33.334 129.133C29.126 123.716 24.7859 113.237 23.6373 105.709ZM37.5581 123.614C36.6057 117.381 33.0079 108.69 29.5248 104.207C26.0418 99.724 23.9881 101.147 24.9405 107.38C25.8928 113.614 29.4907 122.305 32.9738 126.788C36.4568 131.271 38.5112 129.85 37.5588 123.616" fill="#FFCF50"/>
<path d="M24.944 107.393C23.9916 101.16 26.044 99.7399 29.5283 104.22C33.0126 108.7 36.6078 117.39 37.5616 123.627C38.5154 129.865 36.4616 131.281 32.9765 126.799C29.4915 122.317 25.8956 113.625 24.944 107.393Z" fill="#FFAB01"/>
<path d="M33.4802 126.609C29.9951 122.127 26.4007 113.439 25.4469 107.201C24.972 104.098 25.2419 102.189 26.063 101.606C24.8621 101.718 24.3823 103.718 24.9421 107.387C25.8938 113.618 29.4924 122.311 32.9754 126.794C34.7256 129.044 36.1139 129.806 36.9416 129.216C36.1029 129.296 34.9128 128.454 33.4802 126.609Z" fill="#FBA319"/>
<path d="M146.472 176.205L136.439 172.035C136.188 171.931 135.906 171.931 135.654 172.035L125.621 176.205C125.239 176.364 124.99 176.738 124.99 177.152V182.221C124.99 189.201 129.204 195.479 135.66 198.117C135.908 198.218 136.185 198.218 136.434 198.117C142.889 195.479 147.104 189.201 147.104 182.221V177.152C147.104 176.738 146.854 176.364 146.472 176.205Z" fill="#5B7C91"/>
<path d="M145.478 189.251H143.368C143.069 186.618 141.065 184.531 138.537 184.219V182.022C138.537 181.943 138.475 181.878 138.399 181.878H137.364C137.288 181.878 137.225 181.943 137.225 182.022V184.219C134.698 184.531 132.694 186.618 132.395 189.251H130.285C130.209 189.251 130.147 189.316 130.147 189.395V190.474C130.147 190.553 130.209 190.618 130.285 190.618H132.395C132.694 193.251 134.698 195.339 137.225 195.65V197.848C137.225 197.927 137.288 197.992 137.364 197.992H138.399C138.475 197.992 138.537 197.927 138.537 197.848V195.65C141.065 195.339 143.069 193.251 143.368 190.618H145.478C145.554 190.618 145.616 190.553 145.616 190.474V189.395C145.616 189.316 145.554 189.251 145.478 189.251ZM137.882 194.323C135.554 194.323 133.669 192.359 133.669 189.935C133.669 187.511 135.554 185.547 137.882 185.547C140.209 185.547 142.094 187.511 142.094 189.935C142.094 192.359 140.209 194.323 137.882 194.323Z" fill="#F5F5F5"/>
<path d="M137.881 187.776C137.327 187.776 136.809 187.999 136.417 188.409C136.025 188.818 135.809 189.357 135.809 189.934C135.809 190.512 136.025 191.051 136.417 191.46C136.809 191.866 137.329 192.093 137.881 192.093C138.433 192.093 138.953 191.868 139.345 191.46C139.735 191.051 139.953 190.51 139.953 189.934C139.953 189.359 139.737 188.818 139.345 188.409C138.953 187.999 138.435 187.776 137.881 187.776Z" fill="#F5F5F5"/>
</g>
</svg>
