<svg width="657" height="624" viewBox="0 0 657 624" fill="none" xmlns="http://www.w3.org/2000/svg">
<path d="M424.426 419.451L406.51 401.968C405.72 401.197 403.888 400.592 402.394 400.592H321.108C319.614 400.592 317.782 401.197 316.992 401.968L299.076 419.451C296.748 421.778 296.096 423.117 296.096 430.023C296.096 436.929 308.583 427.181 308.704 424.322C308.734 423.613 308.154 422.956 307.269 422.369H416.232C415.347 422.956 414.768 423.613 414.798 424.322C414.919 427.181 427.405 436.929 427.405 430.023C427.405 423.117 426.754 421.778 424.426 419.451Z" fill="#1B4E6F" fill-opacity="0.2"/>
<path d="M538.647 473.079C538.647 479.632 530.485 471.953 530.485 471.953C530.485 471.953 528.556 468.335 527.631 465.923H423.866C422.137 465.923 419.363 464.516 417.674 462.787L406.337 450.968C404.648 449.239 404.688 447.832 406.457 447.832H518.063C519.832 447.832 522.565 449.239 524.254 450.968L535.631 462.787C537.24 464.646 538.647 466.807 538.647 473.079Z" fill="#1B4E6F" fill-opacity="0.2"/>
<path d="M184.855 473.079C184.855 479.632 193.017 471.953 193.017 471.953C193.017 471.953 194.946 468.335 195.871 465.923H299.637C301.365 465.923 304.139 464.516 305.828 462.787L317.166 450.968C318.854 449.239 318.814 447.832 317.045 447.832H205.44C203.671 447.832 200.937 449.239 199.249 450.968L187.871 462.787C186.262 464.646 184.855 466.807 184.855 473.079Z" fill="#1B4E6F" fill-opacity="0.2"/>
<path d="M530.606 583.853H428.757C424.316 583.853 420.716 580.253 420.716 575.812V473.964C420.716 469.523 424.316 465.923 428.757 465.923H530.606C535.047 465.923 538.647 469.523 538.647 473.964V575.813C538.647 580.253 535.047 583.853 530.606 583.853Z" fill="#194866" fill-opacity="0.7"/>
<path d="M294.745 583.853H192.896C188.455 583.853 184.855 580.253 184.855 575.812V473.964C184.855 469.523 188.455 465.923 192.896 465.923H294.745C299.186 465.923 302.786 469.523 302.786 473.964V575.813C302.786 580.253 299.186 583.853 294.745 583.853Z" fill="#194866" fill-opacity="0.7"/>
<path d="M419.376 592.564H304.126C299.685 592.564 296.085 588.964 296.085 584.523V430.41C296.085 425.969 299.685 422.369 304.126 422.369H419.376C423.817 422.369 427.417 425.969 427.417 430.41V584.523C427.416 588.964 423.816 592.564 419.376 592.564Z" fill="#194866"/>
<path d="M356.263 58.0693C372.24 58.0693 385.192 45.1175 385.192 29.1407C385.192 13.1639 372.24 0.212158 356.263 0.212158C340.286 0.212158 327.335 13.1639 327.335 29.1407C327.335 45.1175 340.286 58.0693 356.263 58.0693Z" fill="#FFCF50"/>
<path d="M356.434 52.913C369.563 52.913 380.206 42.2698 380.206 29.1407C380.206 16.0116 369.563 5.36841 356.434 5.36841C343.305 5.36841 332.661 16.0116 332.661 29.1407C332.661 42.2698 343.305 52.913 356.434 52.913Z" fill="#FFAB01"/>
<path d="M333.369 393.403C333.369 393.403 334.224 399.069 332.808 401.045C331.393 403.022 347.678 401.725 347.678 401.725C347.678 401.725 342.318 393.667 344 389.789C345.682 385.909 333.369 393.403 333.369 393.403Z" fill="#E9D6B8"/>
<path d="M317.116 415.147L348.572 409.949C350.303 406.286 349.551 402.869 346.869 399.643C341.751 400.853 336.842 401.156 332.308 399.843C328.761 403.911 323.073 407.577 316.441 411.067C314.343 412.382 314.996 413.75 317.116 415.147Z" fill="#2A425B"/>
<rect x="317.093" y="415.145" width="31.9332" height="1.36746" transform="rotate(-9.38131 317.093 415.145)" fill="#F5F5F5"/>
<path d="M332.015 231.893L331.336 238.329L327.02 278.843L324.049 306.827L331.519 393.541L333.76 393.793L344.588 395.029L345.631 395.154L347.886 316.54L369.138 253.809L370.264 250.455L370.604 249.469L360.964 245.086L352.29 241.116L332.015 231.893Z" fill="#0C6D6A"/>
<path d="M390.924 393.403C390.924 393.403 390.069 399.069 391.484 401.046C392.9 403.022 376.615 401.725 376.615 401.725C376.615 401.725 381.974 393.667 380.292 389.789C378.61 385.91 390.924 393.403 390.924 393.403Z" fill="#E9D6B8"/>
<path d="M407.178 415.147L375.721 409.949C373.991 406.287 374.742 402.869 377.424 399.643C382.543 400.853 387.451 401.157 391.985 399.843C395.531 403.911 401.22 407.577 407.852 411.068C409.95 412.382 409.297 413.751 407.178 415.147Z" fill="#2A425B"/>
<rect x="406.954" y="416.52" width="31.9332" height="1.36746" transform="rotate(-170.619 406.954 416.52)" fill="#F5F5F5"/>
<path d="M392.277 231.892L392.956 238.328L397.273 278.842L400.244 306.827L392.772 393.54L390.532 393.792L379.705 395.029L378.661 395.153L376.406 316.539L355.154 253.808L354.027 250.455L353.687 249.468L363.328 245.086L372.002 241.115L392.277 231.892Z" fill="#0C6D6A"/>
<path d="M396.631 237.525C396.854 238.417 395.33 239.346 392.617 240.238C388.193 241.725 378.348 243.385 369.948 244.537C363.629 245.43 356.827 246.136 350.619 246.619C348.947 246.73 347.311 246.805 345.75 246.916C345.75 246.916 345.713 246.879 345.676 246.916C337.87 247.288 329.591 246.947 327.212 246.017C326.469 245.72 326.134 245.385 326.171 244.94C328.684 190.896 332.595 200.867 321.217 165.969C319.374 160.318 321.548 143.647 322.255 139.261C322.366 138.592 334.822 133.444 340.881 130.433C347.311 127.125 356.686 130.764 364.492 128.646C367.317 127.865 384.646 128.317 386.505 131.662C389.664 137.35 391.768 154.222 392.065 159.426C392.214 162.252 392.288 165.076 392.288 167.939C392.288 169.649 392.251 171.359 392.214 173.069C392.214 173.069 392.214 173.105 392.214 173.143C392.102 178.644 391.767 178.782 391.396 184.246C390.095 204.43 393.601 222.563 396.631 237.525Z" fill="#79CCCA"/>
<path d="M342.594 131.996C346.621 138.303 370.248 132.635 365.777 126.664C362.087 124.717 359.651 119.848 357.328 114.717L341.728 115.787C344.447 121.582 346.052 126.825 342.594 131.996Z" fill="#DFCAA8"/>
<path d="M345.723 119.068C344.802 121.364 360.355 123.222 361.008 122.091C365.274 119.27 365.657 97.5165 362.766 90.1493L337.464 89.2219L333.639 107.133L345.723 119.068Z" fill="#E9D6B8"/>
<path d="M372.685 58.6415L390.777 106.788L387.576 118.262C391.871 118.913 399.365 119.714 404.755 123.081C405.985 118.377 406.196 113.844 405.74 109.446C405.403 102.768 391.232 77.0054 382.235 58.0693L372.685 58.6415Z" fill="#E9D6B8"/>
<path d="M379.295 140.788C386.699 143.671 382.99 157.984 391.796 158.136C393.361 150.604 405.266 124.745 406.921 118.415C401.531 115.048 392.321 113.88 388.025 113.229C384.608 121.965 378.742 136.987 379.295 140.788Z" fill="#79CCCA"/>
<path d="M374.885 61.0444C371.305 60.2394 367.743 57.6237 365.84 53.3676C365.534 51.3919 366.158 51.3639 367.838 51.6392C369.231 52.2105 368.817 52.1585 370.117 53.3308C370.353 50.9078 369.675 48.1129 369.212 44.977C369.172 43.2726 374.75 44.5105 376.31 45.0834C378.68 46.2004 380.617 46.5005 382.078 49.4691C383.05 53.5428 383.18 57.3452 382.076 60.7483L374.885 61.0444Z" fill="#E9D6B8"/>
<path d="M339.235 59.39L321.143 107.537L324.345 119.011C320.049 119.662 312.555 120.463 307.165 123.829C305.935 119.125 305.725 114.592 306.181 110.194C306.518 103.517 320.688 77.7547 329.685 58.8179L339.235 59.39Z" fill="#E9D6B8"/>
<path d="M332.625 141.538C325.221 144.421 329.301 161.234 320.495 161.386C318.931 153.854 306.655 125.494 305 119.164C310.39 115.797 319.6 114.63 323.896 113.978C327.312 122.715 333.178 137.736 332.625 141.538Z" fill="#79CCCA"/>
<path d="M337.035 61.7932C340.615 60.9882 344.176 58.3725 346.08 54.1163C346.385 52.1407 345.761 52.1127 344.082 52.388C342.689 52.9593 343.102 52.9073 341.802 54.0795C341.566 51.6566 342.244 48.8616 342.708 45.7258C342.748 44.0214 337.169 45.2593 335.609 45.8322C333.239 46.9492 331.302 47.2493 329.842 50.2179C328.87 54.2916 328.739 58.094 329.843 61.4971L337.035 61.7932Z" fill="#E9D6B8"/>
<path d="M345.389 100.524C345.389 100.524 360.788 101.316 366.01 94.782C371.232 88.2478 368.288 81.4087 362.387 81.884C356.486 82.3601 356.78 87.3548 350.373 84.579C343.967 81.8024 331.959 91.4109 332.258 98.3371C332.872 112.531 338.906 119.773 343.584 120.154C346.346 120.379 346.699 114.308 343.343 112.442C340.847 111.053 339.94 106.075 342.205 106.042C345.479 105.994 344.16 111.049 345.58 108.184C346.616 106.091 345.389 100.524 345.389 100.524Z" fill="#393768"/>
<path d="M345.941 105.305C348.365 112.49 353.062 115.384 358.183 118.688C358.957 117.875 360.054 117.389 361.383 117.141C362.249 117.305 362.849 117.722 363.037 118.527C363.121 120.394 361.983 122.569 360.294 123.849C357.36 123.86 351.425 122.183 349.861 119.63L344.83 108.986L345.941 105.305Z" fill="#393768"/>
<path opacity="0.05" d="M392.795 174.977C392.795 174.977 392.583 174.907 392.16 174.907C392.195 174.307 392.23 173.742 392.23 173.141L392.795 174.977Z" fill="black"/>
</svg>
