<?xml version="1.0" encoding="UTF-8" standalone="no"?>
<!DOCTYPE svg PUBLIC "-//W3C//DTD SVG 1.1//EN" "http://www.w3.org/Graphics/SVG/1.1/DTD/svg11.dtd">
<svg version="1.1" xmlns="http://www.w3.org/2000/svg" xmlns:xlink="http://www.w3.org/1999/xlink" preserveAspectRatio="xMidYMid meet" viewBox="0 0 830.4 731.13" width="830.4" height="731.13"><defs><path d="M624.79 703.5C646.73 727.78 753.99 743.28 743.31 718.73C794.16 690.09 830.4 718.73 830.4 688.33C816.02 666.72 738.39 675.76 738.39 675.76C718.04 672.76 632.25 655.6 624.79 703.5Z" id="f3Wn8szGaa"></path><path d="M789.44 693.4C789.28 697.74 783.26 701.9 771.22 704.97C745.22 711.61 700.97 710.68 672.38 702.91C657.04 698.74 649.33 693.44 649.5 688.4C649.57 686.7 650.06 673.06 650.12 671.35C649.93 676.41 657.64 681.69 672.99 685.86C701.58 693.63 745.83 694.55 771.84 687.92C783.88 684.85 789.89 680.67 790.05 676.35C789.84 682.03 789.64 687.72 789.44 693.4Z" id="etyLozyRy"></path><path d="M771.84 687.92C745.81 694.55 701.58 693.63 672.99 685.86C644.41 678.09 642.3 666.41 668.33 659.78C694.36 653.15 738.58 654.06 767.17 661.84C795.75 669.61 797.87 681.29 771.84 687.92ZM681.11 683.8C704.78 690.24 741.46 691 763 685.51C784.54 680.02 782.8 670.34 759.13 663.9C735.45 657.47 698.78 656.7 677.24 662.19C655.7 667.69 657.43 677.37 681.1 683.8" id="dS8BjkX6q"></path><path d="M762.95 685.51C741.42 691.01 704.75 690.24 681.06 683.8C657.37 677.36 655.65 667.69 677.2 662.19C698.74 656.69 735.41 657.46 759.08 663.9C782.75 670.33 784.49 680.01 762.95 685.51Z" id="c2IVdNkNDu"></path><path d="M758.95 666.02C770.74 669.22 777.08 673.22 777.82 677.12C779.37 672.59 773.04 667.69 759.1 663.9C735.44 657.47 698.76 656.7 677.21 662.19C666.4 664.96 661.45 668.77 662.21 672.7C663.28 669.54 668.19 666.57 677.06 664.31C698.6 658.81 735.26 659.58 758.95 666.02Z" id="m2mjbxWllD"></path><path d="M392.06 401.76C391.27 400.99 389.44 400.38 387.94 400.38C379.82 400.38 314.79 400.38 306.66 400.38C305.16 400.38 303.33 400.99 302.54 401.76C300.75 403.5 286.42 417.49 284.63 419.24C282.3 421.57 281.65 422.91 281.65 429.81C281.65 436.72 294.13 426.97 294.25 424.11C294.28 423.4 293.7 422.74 292.82 422.16C303.72 422.16 390.89 422.16 401.78 422.16C400.9 422.74 400.32 423.4 400.35 424.11C400.47 426.97 412.96 436.72 412.96 429.81C412.96 422.91 412.3 421.57 409.98 419.24C406.39 415.74 393.85 403.5 392.06 401.76Z" id="a1prNU77LX"></path><path d="M516.04 471.74C516.04 471.74 514.11 468.12 513.18 465.71C502.8 465.71 419.79 465.71 409.42 465.71C407.69 465.71 404.91 464.3 403.22 462.58C402.09 461.39 393.02 451.94 391.89 450.76C390.2 449.03 390.24 447.62 392.01 447.62C403.17 447.62 492.45 447.62 503.61 447.62C505.38 447.62 508.12 449.03 509.8 450.76C510.94 451.94 520.04 461.39 521.18 462.58C522.79 464.43 524.2 466.6 524.2 472.87C524.2 479.42 517.67 471.97 516.04 471.74Z" id="d16USFJFfk"></path><path d="M178.57 471.74C178.57 471.74 180.5 468.12 181.42 465.71C191.8 465.71 274.81 465.71 285.19 465.71C286.92 465.71 289.69 464.3 291.38 462.58C292.51 461.39 301.58 451.94 302.72 450.76C304.4 449.03 304.36 447.62 302.6 447.62C291.43 447.62 202.15 447.62 190.99 447.62C189.22 447.62 186.49 449.03 184.8 450.76C183.66 451.94 174.56 461.39 173.42 462.58C171.81 464.43 170.41 466.6 170.41 472.87C170.41 479.42 176.93 471.97 178.57 471.74Z" id="c36dNU8f2o"></path><path d="M414.31 583.64C409.87 583.64 406.27 580.04 406.27 575.6C406.27 565.42 406.27 483.94 406.27 473.75C406.27 469.31 409.87 465.71 414.31 465.71C424.49 465.71 505.97 465.71 516.16 465.71C520.6 465.71 524.2 469.31 524.2 473.75C524.2 483.94 524.2 565.42 524.2 575.6C524.2 580.04 520.6 583.64 516.16 583.64C495.79 583.64 424.49 583.64 414.31 583.64Z" id="f3duicORBC"></path><path d="M178.45 583.64C174.01 583.64 170.41 580.04 170.41 575.6C170.41 565.42 170.41 483.94 170.41 473.75C170.41 469.31 174.01 465.71 178.45 465.71C188.63 465.71 270.11 465.71 280.3 465.71C284.74 465.71 288.34 469.31 288.34 473.75C288.34 483.94 288.34 565.42 288.34 575.6C288.34 580.04 284.74 583.64 280.3 583.64C259.93 583.64 188.63 583.64 178.45 583.64Z" id="aW2LEL1rK"></path><path d="M289.68 592.35C285.24 592.35 281.64 588.75 281.64 584.31C281.64 568.9 281.64 445.61 281.64 430.2C281.64 425.76 285.24 422.16 289.68 422.16C301.2 422.16 393.4 422.16 404.93 422.16C409.37 422.16 412.97 425.76 412.97 430.2C412.97 445.61 412.97 568.9 412.97 584.31C412.97 588.75 409.37 592.35 404.93 592.35C381.88 592.35 301.2 592.35 289.68 592.35Z" id="avFqZya2z"></path><path d="M370.74 28.93C370.74 12.95 357.79 0 341.81 0C325.84 0 312.89 12.95 312.89 28.93C312.89 44.91 325.84 57.86 341.81 57.86C357.79 57.86 370.74 44.91 370.74 28.93Z" id="bH4Zhc3sR"></path><path d="M365.76 28.93C365.76 15.8 355.11 5.16 341.98 5.16C328.86 5.16 318.21 15.8 318.21 28.93C318.21 42.06 328.86 52.7 341.98 52.7C355.11 52.7 365.76 42.06 365.76 28.93Z" id="b1lfCoEYfX"></path><path d="M318.36 400.83C316.94 402.81 333.23 401.51 333.23 401.51C333.23 401.51 327.87 393.46 329.55 389.58C331.23 385.7 318.92 393.19 318.92 393.19C318.81 394.72 319.77 398.86 318.36 400.83Z" id="a4hpOfa7E"></path><path d="M334.12 409.74C335.85 406.07 335.1 402.66 332.42 399.43C327.3 400.64 322.39 400.94 317.86 399.63C314.31 403.7 308.62 407.37 301.99 410.86C299.89 412.17 300.55 413.54 302.67 414.94C308.96 413.9 330.98 410.26 334.12 409.74Z" id="a1TrYilxaA"></path><path d="M334.15 409.73C334.15 409.73 334.15 409.73 334.15 409.73C334.28 410.54 334.36 410.99 334.37 411.08C334.37 411.08 334.37 411.08 334.37 411.08C315.47 414.2 304.97 415.94 302.87 416.28C302.87 416.28 302.87 416.28 302.87 416.28C302.73 415.47 302.66 415.02 302.64 414.93C302.64 414.93 302.64 414.93 302.64 414.93C321.55 411.81 332.05 410.07 334.15 409.73Z" id="mbSfPbLHV"></path><path d="M316.89 238.12L312.57 278.63L309.6 306.62L317.07 393.33L319.31 393.58L330.14 394.82L331.18 394.94L333.44 316.33L354.69 253.6L355.81 250.24L356.15 249.26L346.51 244.87L337.84 240.9L317.57 231.68L316.89 238.12Z" id="a2WXB5gyKw"></path><path d="M377.03 400.83C378.45 402.81 362.17 401.51 362.17 401.51C362.17 401.51 367.52 393.46 365.84 389.58C364.16 385.7 376.47 393.19 376.47 393.19C376.59 394.72 375.62 398.86 377.03 400.83Z" id="aAsxpOBzE"></path><path d="M361.27 409.74C359.54 406.08 360.29 402.66 362.97 399.43C368.09 400.64 373 400.95 377.54 399.63C381.08 403.7 386.77 407.37 393.4 410.86C395.5 412.17 394.85 413.54 392.73 414.94C386.44 413.9 364.42 410.26 361.27 409.74Z" id="acDqk5nER"></path><path d="M361 411.1C361 411.1 361 411.1 361 411.1C361.13 410.29 361.21 409.84 361.22 409.75C361.22 409.75 361.22 409.75 361.22 409.75C380.12 412.88 390.63 414.61 392.73 414.96C392.73 414.96 392.73 414.96 392.73 414.96C392.59 415.77 392.52 416.22 392.5 416.31C392.5 416.31 392.5 416.31 392.5 416.31C373.6 413.18 363.1 411.45 361 411.1Z" id="gjwWGwiGC"></path><path d="M378.51 238.12L382.82 278.63L385.79 306.62L378.32 393.33L376.08 393.58L365.26 394.82L364.21 394.94L361.96 316.33L340.7 253.6L339.58 250.24L339.24 249.26L348.88 244.87L357.55 240.9L377.83 231.68L378.51 238.12Z" id="b17ZMkGgnH"></path><path d="M378.17 240.03C373.74 241.51 363.9 243.17 355.5 244.33C349.18 245.22 342.38 245.92 336.17 246.41C334.5 246.52 332.86 246.59 331.3 246.7C331.3 246.7 331.26 246.67 331.23 246.7C323.42 247.08 315.14 246.74 312.76 245.81C312.02 245.51 311.68 245.17 311.72 244.73C314.23 190.68 318.15 200.66 306.77 165.76C304.92 160.11 307.1 143.44 307.81 139.05C307.92 138.38 320.37 133.23 326.43 130.22C332.86 126.91 342.24 130.55 350.04 128.43C352.87 127.65 370.2 128.11 372.06 131.45C375.21 137.14 377.32 154.01 377.62 159.21C377.76 162.04 377.84 164.86 377.84 167.73C377.84 169.44 377.8 171.15 377.76 172.86C377.76 172.86 377.76 172.89 377.76 172.93C377.65 178.43 377.32 178.57 376.95 184.03C375.65 204.22 379.15 222.35 382.18 237.31C382.4 238.21 380.88 239.13 378.17 240.03Z" id="a13GZyTMM"></path><path d="M351.33 126.45C347.64 124.51 345.2 119.64 342.88 114.51C341.32 114.61 328.84 115.47 327.28 115.58C330 121.37 331.6 126.61 328.14 131.78C332.17 138.09 355.8 132.42 351.33 126.45Z" id="a6Ya4Ow0c4"></path><path d="M346.56 121.88C350.82 119.06 351.21 97.3 348.32 89.94C346.63 89.88 338.2 89.57 323.01 89.01L319.19 106.92L331.27 118.86C341.03 121.63 346.12 122.63 346.56 121.88Z" id="a70a64FZ8"></path><path d="M376.33 106.58C374.41 113.46 373.34 117.29 373.13 118.05C377.42 118.7 384.92 119.5 390.31 122.87C391.54 118.17 391.75 113.63 391.29 109.23C390.95 102.56 376.78 76.79 367.79 57.86C367.15 57.9 363.97 58.09 358.24 58.43L376.33 106.58Z" id="cgUWU0B9S"></path><path d="M377.35 157.92C378.91 150.39 390.82 124.53 392.47 118.2C387.08 114.84 377.87 113.67 373.58 113.02C370.16 121.75 364.29 136.77 364.85 140.58C372.25 143.46 368.54 157.77 377.35 157.92Z" id="acKCfIezs"></path><path d="M351.39 53.16C351.08 51.18 351.71 51.15 353.39 51.43C354.78 52 354.37 51.95 355.67 53.12C355.9 50.7 355.23 47.9 354.76 44.77C354.72 43.06 360.3 44.3 361.86 44.87C364.23 45.99 366.17 46.29 367.63 49.26C368.6 53.33 368.73 57.13 367.63 60.54C367.15 60.56 364.75 60.65 360.44 60.83C355.67 58.55 352.66 55.99 351.39 53.16Z" id="a2osAP8avY"></path><path d="M306.69 107.33C308.61 114.21 309.68 118.03 309.9 118.8C305.6 119.45 298.11 120.25 292.72 123.62C291.49 118.91 291.28 114.38 291.73 109.98C292.07 103.31 306.24 77.54 315.24 58.61C315.87 58.64 319.06 58.83 324.79 59.18L306.69 107.33Z" id="a1iT9Aujp8"></path><path d="M306.05 161.17C304.48 153.64 292.21 125.28 290.55 118.95C295.94 115.59 305.15 114.42 309.45 113.77C312.86 122.5 318.73 137.52 318.18 141.33C310.77 144.21 314.85 161.02 306.05 161.17Z" id="bvrA2JG86"></path><path d="M331.63 53.9C331.94 51.93 331.31 51.9 329.63 52.18C328.24 52.75 328.65 52.7 327.35 53.87C327.12 51.45 327.79 48.65 328.26 45.51C328.3 43.81 322.72 45.05 321.16 45.62C318.79 46.74 316.85 47.04 315.39 50.01C314.42 54.08 314.29 57.88 315.39 61.29C315.87 61.3 318.27 61.4 322.59 61.58C327.35 59.3 330.36 56.74 331.63 53.9Z" id="aswbjLuml"></path><path d="M351.56 94.57C356.78 88.04 353.84 81.2 347.94 81.67C342.04 82.15 342.33 87.14 335.92 84.37C329.52 81.59 317.51 91.2 317.81 98.12C318.42 112.32 324.46 119.56 329.13 119.94C331.9 120.17 332.25 114.1 328.89 112.23C326.4 110.84 325.49 105.86 327.76 105.83C331.03 105.78 329.71 110.84 331.13 107.97C332.17 105.88 330.94 100.31 330.94 100.31C335.06 99.16 346.34 101.1 351.56 94.57Z" id="b1xLuAgDyK"></path><path d="M343.73 118.48C344.51 117.66 345.6 117.18 346.93 116.93C347.8 117.09 348.4 117.51 348.59 118.31C348.67 120.18 347.53 122.36 345.84 123.64C342.91 123.65 336.98 121.97 335.41 119.42C335.08 118.71 333.4 115.16 330.38 108.77L331.49 105.09C336.24 111.81 340.32 116.27 343.73 118.48Z" id="a3H1aED5yu"></path><path d="M377.71 174.7C377.75 174.1 377.78 173.53 377.78 172.93C377.82 173.05 378.01 173.66 378.35 174.77C378.2 174.72 377.99 174.7 377.71 174.7Z" id="e1QZ77zFIA"></path><path d="M279.32 661.84C249.99 698.99 118.73 732.7 133.49 694.51C148.25 656.32 -17.86 677.93 1.59 644.58C21.03 611.23 133.29 611.84 133.29 611.84C159.75 608.22 308.65 624.68 279.32 661.84Z" id="d15Xl2Tuf"></path><path d="M208.14 631.2C208.23 634.8 203.46 638.54 193.66 641.68C172.5 648.47 135.87 649.93 111.85 644.93C98.95 642.25 92.32 638.26 92.21 634.08C92.18 632.67 91.89 621.37 91.86 619.95C91.96 624.15 98.6 628.13 111.5 630.8C135.52 635.8 172.14 634.34 193.31 627.56C203.11 624.42 207.88 620.68 207.79 617.08C207.91 621.78 208.02 626.49 208.14 631.2Z" id="aKlJ5A211"></path><path d="M193.31 627.56C172.14 634.35 135.52 635.8 111.5 630.8C87.48 625.81 85.18 616.27 106.34 609.48C127.5 602.69 164.13 601.24 188.15 606.23C212.16 611.22 214.48 620.77 193.31 627.56ZM185.85 626C203.36 620.39 201.47 612.48 181.57 608.35C161.68 604.22 131.32 605.42 113.81 611.04C96.3 616.67 98.19 624.57 118.09 628.7C137.98 632.83 168.35 631.62 185.85 626Z" id="m1TBfuTaMG"></path><path d="M97.14 640.01C100.47 641.89 105.34 643.58 111.86 644.93C118.95 646.34 126.13 647.22 133.36 647.57C133.37 646.16 133.52 634.89 133.54 633.48C126.14 633.14 118.77 632.24 111.5 630.8C105.32 629.52 100.59 627.94 97.32 626.18C97.28 628.94 97.16 638.63 97.14 640.01Z" id="dKqFh4wMC"></path><path d="M214.59 615.96C214.68 619.55 209.91 623.29 200.12 626.43C178.95 633.22 142.32 634.68 118.3 629.68C105.41 627 98.77 623.01 98.66 618.84C98.63 617.42 98.34 606.12 98.31 604.71C98.41 608.9 105.05 612.87 117.95 615.55C141.97 620.55 178.59 619.1 199.76 612.3C209.56 609.17 214.33 605.43 214.24 601.83C214.31 604.65 214.55 614.54 214.59 615.96Z" id="apYmyHvPw"></path><path d="M199.76 612.3C178.59 619.09 141.97 620.55 117.95 615.56C93.93 610.56 91.62 601.02 112.79 594.23C133.95 587.44 170.61 585.99 194.6 590.98C218.61 595.97 220.93 605.52 199.76 612.3ZM192.3 610.76C209.81 605.13 207.91 597.23 188.01 593.1C168.12 588.97 137.76 590.17 120.26 595.79C102.76 601.42 104.64 609.32 124.52 613.45C144.42 617.59 174.78 616.38 192.3 610.76Z" id="avWc9Uuno"></path><path d="M192.3 610.75C174.77 616.39 144.43 617.58 124.52 613.44C104.62 609.31 102.72 601.43 120.26 595.79C137.8 590.14 168.13 588.96 188.01 593.09C207.91 597.23 209.82 605.11 192.3 610.75Z" id="f4sM1NlHs2"></path><path d="M103.59 624.77C106.88 626.65 111.78 628.33 118.3 629.68C125.39 631.09 132.58 631.97 139.81 632.33C139.82 630.92 139.97 619.65 139.99 618.24C132.59 617.89 125.22 616.99 117.95 615.56C111.77 614.28 107.04 612.69 103.77 610.93C103.73 613.7 103.61 623.38 103.59 624.77Z" id="arGPCE2Fy"></path><path d="M209.81 597.51C209.91 601.12 205.14 604.84 195.33 607.99C174.17 614.78 137.55 616.24 113.53 611.25C100.63 608.57 93.98 604.57 93.89 600.39C93.85 598.98 93.57 587.68 93.53 586.27C93.64 590.46 100.28 594.44 113.18 597.12C137.19 602.11 173.82 600.65 194.99 593.87C204.78 590.72 209.55 586.99 209.46 583.39C209.53 586.21 209.77 596.1 209.81 597.51Z" id="b93ZrwQn1"></path><path d="M194.99 593.87C173.82 600.66 137.19 602.11 113.18 597.12C89.16 592.13 86.84 582.58 108.01 575.79C129.18 568.99 165.82 567.55 189.82 572.53C213.84 577.53 216.16 587.07 194.99 593.87ZM187.52 592.31C205.04 586.69 203.14 578.78 183.24 574.65C163.34 570.52 132.98 571.73 115.48 577.35C97.97 582.97 99.86 590.88 119.75 595.01C139.65 599.14 170 597.94 187.52 592.31Z" id="a2hTktPYC8"></path><path d="M197.91 548.6C177.38 556.25 141.88 557.94 118.61 552.4C95.34 546.86 93.12 536.17 113.65 528.52C134.18 520.87 169.69 519.18 192.94 524.72C216.21 530.27 218.43 540.95 197.91 548.6ZM190.67 546.87C207.66 540.54 205.83 531.69 186.56 527.11C167.28 522.52 137.86 523.92 120.88 530.26C103.9 536.59 105.72 545.44 124.99 550.02C144.26 554.61 173.69 553.21 190.67 546.87Z" id="e1c90etUpJ"></path><path d="M187.52 592.3C170 597.95 139.65 599.13 119.75 595C99.84 590.87 97.94 582.98 115.48 577.34C133.01 571.7 163.35 570.52 183.24 574.65C203.14 578.78 205.05 586.66 187.52 592.3Z" id="a3SvUP0QgU"></path><path d="M98.82 606.32C102.1 608.2 107.02 609.89 113.53 611.25C120.62 612.65 127.81 613.53 135.03 613.89C135.05 612.48 135.19 601.2 135.21 599.79C127.81 599.45 120.44 598.56 113.18 597.12C107 595.83 102.27 594.28 98.99 592.49C98.96 595.26 98.83 604.94 98.82 606.32Z" id="e1y68hBTkZ"></path><path d="M208.93 570.48C209.02 574.07 204.25 577.81 194.45 580.95C173.28 587.74 136.66 589.19 112.64 584.2C99.74 581.52 93.1 577.53 93 573.36C92.96 571.94 92.68 560.64 92.64 559.23C92.75 563.42 99.39 567.39 112.29 570.08C136.3 575.07 172.93 573.61 194.1 566.82C203.89 563.68 208.67 559.94 208.57 556.35C208.69 561.06 208.81 565.77 208.93 570.48Z" id="dR90FCSag"></path><path d="M194.09 566.82C172.93 573.61 136.3 575.07 112.28 570.08C88.27 565.08 85.96 555.54 107.12 548.75C128.28 541.97 164.91 540.5 188.93 545.5C212.95 550.49 215.26 560.04 194.09 566.82ZM118.87 567.96C138.76 572.1 169.13 570.89 186.64 565.27C204.15 559.64 202.25 551.74 182.36 547.61C162.46 543.48 132.1 544.68 114.59 550.3C97.09 555.91 98.98 563.83 118.87 567.96" id="a5YvBHB3C"></path><path d="M97.92 579.29C101.25 581.16 106.13 582.85 112.64 584.2C119.73 585.61 126.92 586.49 134.14 586.85C134.16 585.44 134.3 574.16 134.32 572.75C126.92 572.41 119.55 571.51 112.29 570.08C106.11 568.79 101.37 567.21 98.1 565.45C98.07 568.22 97.94 577.9 97.92 579.29Z" id="jZxCVFGoC"></path><path d="M215.37 555.23C215.46 558.83 210.7 562.56 200.9 565.7C179.73 572.49 143.11 573.94 119.08 568.96C106.19 566.28 99.55 562.27 99.45 558.11C99.41 556.69 99.11 545.36 99.07 543.95C99.17 548.14 105.81 552.11 118.71 554.79C142.73 559.79 179.35 558.33 200.52 551.54C210.34 548.43 215.11 544.7 215.02 541.1C215.09 543.92 215.33 553.82 215.37 555.23Z" id="hzu61UEsX"></path><path d="M200.55 551.57C179.38 558.36 142.75 559.82 118.74 554.83C94.72 549.83 92.4 540.29 113.57 533.5C134.74 526.72 171.4 525.26 195.38 530.25C219.4 535.24 221.72 544.79 200.55 551.57ZM125.31 552.72C145.21 556.85 175.57 555.64 193.08 550.03C210.6 544.41 208.7 536.49 188.8 532.37C168.9 528.25 138.54 529.44 121.04 535.07C103.55 540.69 105.42 548.6 125.31 552.72" id="b54DCOCSJ"></path><path d="M104.37 564.04C107.66 565.92 112.57 567.6 119.08 568.96C126.18 570.36 133.37 571.24 140.59 571.6C140.61 570.19 140.75 558.91 140.77 557.5C133.37 557.16 126 556.26 118.74 554.83C112.56 553.55 107.82 551.96 104.55 550.2C104.52 552.97 104.39 562.65 104.37 564.04Z" id="aZhfebxJ"></path><path d="M210.59 536.78C210.69 540.38 205.92 544.12 196.12 547.26C174.96 554.05 138.33 555.5 114.31 550.51C101.42 547.83 94.77 543.84 94.67 539.66C94.64 538.25 94.35 526.95 94.32 525.53C94.42 529.73 101.06 533.7 113.96 536.38C137.98 541.38 174.6 539.92 195.77 533.13C205.57 529.99 210.34 526.26 210.25 522.66C210.32 525.48 210.56 535.37 210.59 536.78Z" id="a9DPTzWiU"></path><path d="M195.77 533.13C174.6 539.92 137.98 541.38 113.96 536.38C89.94 531.39 87.63 521.84 108.8 515.06C129.96 508.27 166.61 506.82 190.61 511.81C214.62 516.8 216.94 526.35 195.77 533.13ZM188.31 531.58C205.82 525.97 203.92 518.06 184.02 513.93C164.13 509.8 133.77 511 116.26 516.62C98.75 522.25 100.65 530.15 120.53 534.28C140.43 538.41 170.79 537.2 188.31 531.58Z" id="e3viF7fmfp"></path><path d="M188.31 531.58C170.78 537.22 140.44 538.4 120.53 534.27C100.63 530.14 98.73 522.26 116.26 516.61C133.79 510.97 164.14 509.78 184.02 513.92C203.92 518.06 205.83 525.93 188.31 531.58Z" id="aiX59fWwU"></path><path d="M99.6 545.63C102.88 547.51 107.8 549.2 114.31 550.54C121.41 551.95 128.59 552.83 135.81 553.19C135.83 551.77 135.98 540.47 135.99 539.06C128.59 538.72 121.23 537.82 113.96 536.38C107.78 535.1 103.05 533.52 99.78 531.76C99.74 534.53 99.62 544.24 99.6 545.63Z" id="aLiFbsDq1"></path><path d="M713.85 542.8C698.78 558.43 640.52 569.16 601.56 554.26C580.51 546.21 545.15 526.46 555.15 512.44C565.15 498.41 672.6 512.44 672.6 512.44C686.15 510.88 728.92 527.17 713.85 542.8Z" id="bi5g513G5"></path><path d="M579.5 522.32C579.44 524.72 582.62 527.21 589.16 529.31C603.29 533.84 627.74 534.81 643.77 531.48C652.38 529.69 656.81 527.02 656.88 524.24C656.9 523.29 657.09 515.75 657.12 514.81C657.05 517.6 652.62 520.26 644.01 522.05C627.97 525.38 603.53 524.41 589.4 519.88C582.86 517.78 579.68 515.29 579.74 512.88C579.69 514.77 579.53 521.37 579.5 522.32Z" id="c2c2tCgCo"></path><path d="M589.4 519.88C603.53 524.41 627.97 525.38 644.01 522.05C660.04 518.71 661.58 512.35 647.45 507.81C633.32 503.28 608.86 502.32 592.85 505.64C576.82 508.98 575.27 515.35 589.4 519.88ZM594.38 518.85C582.69 515.09 583.96 509.81 597.24 507.06C610.52 504.3 630.78 505.1 642.47 508.86C654.15 512.61 652.89 517.89 639.62 520.64C626.34 523.41 606.07 522.6 594.38 518.85Z" id="a8Gvxy3j2u"></path><path d="M594.38 518.84C606.08 522.6 626.33 523.4 639.62 520.64C652.9 517.88 654.17 512.62 642.47 508.85C630.76 505.09 610.52 504.3 597.24 507.05C583.96 509.81 582.68 515.07 594.38 518.84Z" id="aBdaPAorb"></path><path d="M653.59 528.2C651.4 529.45 648.12 530.58 643.77 531.48C639.04 532.42 634.24 533.01 629.42 533.24C629.41 532.3 629.31 524.78 629.3 523.84C634.24 523.61 639.15 523.01 644.01 522.05C648.13 521.2 651.29 520.14 653.47 518.96C653.5 520.81 653.58 527.27 653.59 528.2Z" id="d16eZs6MGC"></path><path d="M582.69 510C582.63 512.41 585.81 514.9 592.36 517C606.48 521.53 630.93 522.5 646.96 519.17C655.57 517.38 660 514.71 660.07 511.93C660.09 510.98 660.28 503.44 660.3 502.5C660.23 505.3 655.8 507.95 647.19 509.74C631.16 513.07 606.72 512.1 592.59 507.57C586.05 505.47 582.86 502.98 582.92 500.58C582.88 502.46 582.71 509.06 582.69 510Z" id="arA0WmZsp"></path><path d="M592.59 507.57C606.72 512.11 631.16 513.07 647.19 509.74C663.22 506.41 664.77 500.04 650.64 495.5C636.51 490.97 612.05 490 596.03 493.33C580 496.67 578.46 503.04 592.59 507.57ZM597.57 506.53C585.88 502.78 587.15 497.5 600.43 494.75C613.71 491.99 633.97 492.79 645.66 496.55C657.34 500.3 656.08 505.58 642.81 508.33C629.52 511.09 609.26 510.29 597.57 506.53Z" id="j10GUyh60M"></path><path d="M590.64 477.36C604.34 482.46 628.03 483.59 643.57 479.89C659.1 476.2 660.58 469.06 646.88 463.95C633.18 458.85 609.47 457.72 593.95 461.42C578.42 465.12 576.93 472.25 590.64 477.36ZM595.46 476.2C584.13 471.98 585.35 466.07 598.21 463.01C611.08 459.95 630.72 460.89 642.05 465.11C653.38 469.34 652.17 475.25 639.31 478.31C626.44 481.37 606.8 480.43 595.46 476.2Z" id="b3a70F4juJ"></path><path d="M597.57 506.53C609.27 510.29 629.52 511.08 642.81 508.33C656.09 505.57 657.36 500.31 645.66 496.54C633.95 492.78 613.7 491.99 600.43 494.74C587.15 497.5 585.87 502.76 597.57 506.53Z" id="eeAIFYYb"></path><path d="M656.78 515.89C654.58 517.14 651.3 518.27 646.96 519.17C642.22 520.11 637.43 520.7 632.61 520.94C632.59 520 632.5 512.47 632.48 511.53C637.42 511.3 642.34 510.7 647.19 509.74C651.32 508.88 654.48 507.85 656.66 506.65C656.68 508.5 656.77 514.96 656.78 515.89Z" id="aXX6WeeCc"></path><path d="M583.28 491.96C583.22 494.36 586.41 496.85 592.94 498.95C607.07 503.48 631.52 504.45 647.55 501.12C656.16 499.33 660.59 496.67 660.66 493.88C660.69 492.94 660.88 485.39 660.9 484.45C660.83 487.25 656.4 489.9 647.79 491.69C631.76 495.03 607.31 494.05 593.18 489.52C586.64 487.42 583.45 484.93 583.52 482.53C583.44 485.67 583.36 488.82 583.28 491.96Z" id="aDs1f8Ncs"></path><path d="M593.18 489.52C607.31 494.05 631.76 495.03 647.79 491.69C663.82 488.36 665.36 481.99 651.24 477.46C637.11 472.93 612.66 471.95 596.63 475.29C580.6 478.62 579.05 484.99 593.18 489.52ZM643.39 490.28C630.11 493.04 609.84 492.24 598.16 488.48C586.47 484.73 587.74 479.45 601.02 476.7C614.3 473.94 634.56 474.74 646.25 478.49C657.93 482.24 656.67 487.53 643.39 490.28" id="a5N16neCt2"></path><path d="M657.37 497.84C655.15 499.09 651.9 500.22 647.55 501.12C642.82 502.06 638.02 502.65 633.2 502.88C633.19 501.94 633.09 494.42 633.08 493.48C638.02 493.25 642.94 492.65 647.79 491.69C651.91 490.83 655.07 489.78 657.25 488.6C657.28 490.45 657.36 496.92 657.37 497.84Z" id="g3YhHJP2xz"></path><path d="M578.98 481.78C578.92 484.18 582.1 486.67 588.64 488.77C602.77 493.3 627.21 494.27 643.25 490.94C651.86 489.15 656.29 486.48 656.36 483.7C656.38 482.76 656.58 475.19 656.61 474.25C656.54 477.05 652.11 479.7 643.5 481.49C627.47 484.83 603.02 483.85 588.89 479.32C582.34 477.24 579.15 474.75 579.21 472.35C579.17 474.24 579 480.84 578.98 481.78Z" id="a1thZscJjq"></path><path d="M588.88 479.34C603.01 483.87 627.45 484.85 643.48 481.51C659.51 478.18 661.06 471.81 646.93 467.28C632.8 462.75 608.33 461.77 592.32 465.11C576.29 468.44 574.75 474.81 588.88 479.34ZM639.1 480.1C625.81 482.87 605.55 482.06 593.86 478.31C582.17 474.56 583.44 469.27 596.72 466.52C610 463.77 630.26 464.57 641.94 468.32C653.62 472.08 652.37 477.35 639.1 480.11" id="c8t3QNTqp"></path><path d="M653.07 487.66C650.87 488.92 647.6 490.04 643.25 490.94C638.52 491.88 633.72 492.47 628.9 492.71C628.88 491.77 628.79 484.24 628.77 483.3C633.71 483.07 638.63 482.47 643.48 481.51C647.61 480.66 650.77 479.6 652.95 478.42C652.97 480.27 653.06 486.74 653.07 487.66Z" id="c2h4b7mbdQ"></path><path d="M582.17 469.47C582.1 471.87 585.29 474.36 591.83 476.46C605.96 481 630.4 481.96 646.43 478.63C655.04 476.84 659.48 474.18 659.54 471.39C659.57 470.45 659.76 462.9 659.78 461.96C659.71 464.76 655.28 467.41 646.67 469.2C630.64 472.54 606.19 471.57 592.06 467.03C585.52 464.93 582.34 462.45 582.4 460.04C582.35 461.92 582.19 468.53 582.17 469.47Z" id="g89YUcTVI"></path><path d="M592.06 467.03C606.19 471.56 630.64 472.54 646.67 469.2C662.7 465.87 664.25 459.5 650.12 454.97C635.99 450.44 611.53 449.47 595.51 452.8C579.48 456.13 577.93 462.5 592.06 467.03ZM597.05 466C585.35 462.25 586.62 456.97 599.9 454.21C613.18 451.46 633.45 452.26 645.13 456.01C656.82 459.77 655.56 465.04 642.28 467.8C629 470.56 608.74 469.75 597.05 466Z" id="aOaVFEFEL"></path><path d="M597.05 465.99C608.74 469.76 629 470.55 642.28 467.79C655.57 465.04 656.84 459.77 645.13 456.01C633.43 452.24 613.18 451.45 599.9 454.21C586.62 456.97 585.35 462.23 597.05 465.99Z" id="eXHmB069k"></path><path d="M656.26 475.37C654.06 476.63 650.78 477.75 646.43 478.66C641.7 479.59 636.9 480.18 632.08 480.42C632.07 479.47 631.97 471.93 631.96 470.99C636.9 470.76 641.82 470.16 646.67 469.2C650.79 468.35 653.95 467.29 656.14 466.11C656.16 467.97 656.24 474.45 656.26 475.37Z" id="a33oyDVYjf"></path><path d="M49.63 259.11C52.45 257.96 56.83 260.63 62.24 267.46C73.92 282.22 85.98 310.83 89.17 331.36C90.89 342.38 89.69 348.83 86.42 350.16C85.31 350.6 76.43 354.19 75.32 354.64C78.62 353.31 79.79 346.86 78.08 335.84C74.88 315.31 62.83 286.71 51.15 271.95C45.74 265.11 41.34 262.46 38.53 263.59C42.23 262.1 45.93 260.6 49.63 259.11Z" id="d2JlUVO4LL"></path><path d="M51.15 271.95C62.84 286.72 74.89 315.31 78.08 335.84C81.27 356.36 74.4 361.06 62.71 346.28C51.02 331.5 38.97 302.92 35.78 282.39C32.58 261.86 39.46 257.17 51.15 271.95ZM74.44 331.23C71.8 314.23 61.8 290.52 52.13 278.29C42.46 266.07 36.75 269.95 39.4 286.95C42.04 303.95 52.04 327.66 61.71 339.88C71.38 352.11 77.09 348.23 74.44 331.23" id="e1TtZ7MELi"></path><path d="M52.14 278.33C61.82 290.55 71.8 314.25 74.45 331.26C77.1 348.27 71.4 352.14 61.72 339.91C52.04 327.69 42.05 303.98 39.41 286.98C36.76 269.98 42.46 266.11 52.14 278.33Z" id="g35E93Jjx4"></path><path d="M40.8 286.46C39.49 278 40.23 272.79 42.52 271.2C39.18 271.5 37.85 276.96 39.4 286.97C42.05 303.96 52.04 327.67 61.71 339.9C66.58 346.04 70.43 348.12 72.73 346.51C70.4 346.72 67.1 344.43 63.12 339.39C53.44 327.17 43.45 303.47 40.8 286.46Z" id="b41e4kKfOm"></path></defs><g><g><g><use xlink:href="#f3Wn8szGaa" opacity="1" fill="#e8efef" fill-opacity="1"></use><g><use xlink:href="#f3Wn8szGaa" opacity="1" fill-opacity="0" stroke="#000000" stroke-width="1" stroke-opacity="0"></use></g></g><g><use xlink:href="#etyLozyRy" opacity="1" fill="#ffab01" fill-opacity="1"></use><g><use xlink:href="#etyLozyRy" opacity="1" fill-opacity="0" stroke="#000000" stroke-width="1" stroke-opacity="0"></use></g></g><g><use xlink:href="#dS8BjkX6q" opacity="1" fill="#ffcf50" fill-opacity="1"></use><g><use xlink:href="#dS8BjkX6q" opacity="1" fill-opacity="0" stroke="#000000" stroke-width="1" stroke-opacity="0"></use></g></g><g><use xlink:href="#c2IVdNkNDu" opacity="1" fill="#ffab01" fill-opacity="1"></use><g><use xlink:href="#c2IVdNkNDu" opacity="1" fill-opacity="0" stroke="#000000" stroke-width="1" stroke-opacity="0"></use></g></g><g><use xlink:href="#m2mjbxWllD" opacity="1" fill="#fba319" fill-opacity="1"></use><g><use xlink:href="#m2mjbxWllD" opacity="1" fill-opacity="0" stroke="#000000" stroke-width="1" stroke-opacity="0"></use></g></g><g><use xlink:href="#a1prNU77LX" opacity="1" fill="#1b4e6f" fill-opacity="0.2"></use><g><use xlink:href="#a1prNU77LX" opacity="1" fill-opacity="0" stroke="#000000" stroke-width="1" stroke-opacity="0"></use></g></g><g><use xlink:href="#d16USFJFfk" opacity="1" fill="#1b4e6f" fill-opacity="0.2"></use><g><use xlink:href="#d16USFJFfk" opacity="1" fill-opacity="0" stroke="#000000" stroke-width="1" stroke-opacity="0"></use></g></g><g><use xlink:href="#c36dNU8f2o" opacity="1" fill="#1b4e6f" fill-opacity="0.2"></use><g><use xlink:href="#c36dNU8f2o" opacity="1" fill-opacity="0" stroke="#000000" stroke-width="1" stroke-opacity="0"></use></g></g><g><use xlink:href="#f3duicORBC" opacity="1" fill="#194866" fill-opacity="0.7"></use><g><use xlink:href="#f3duicORBC" opacity="1" fill-opacity="0" stroke="#000000" stroke-width="1" stroke-opacity="0"></use></g></g><g><use xlink:href="#aW2LEL1rK" opacity="1" fill="#194866" fill-opacity="0.7"></use><g><use xlink:href="#aW2LEL1rK" opacity="1" fill-opacity="0" stroke="#000000" stroke-width="1" stroke-opacity="0"></use></g></g><g><use xlink:href="#avFqZya2z" opacity="1" fill="#194866" fill-opacity="1"></use><g><use xlink:href="#avFqZya2z" opacity="1" fill-opacity="0" stroke="#000000" stroke-width="1" stroke-opacity="0"></use></g></g><g><use xlink:href="#bH4Zhc3sR" opacity="1" fill="#ffcf50" fill-opacity="1"></use><g><use xlink:href="#bH4Zhc3sR" opacity="1" fill-opacity="0" stroke="#000000" stroke-width="1" stroke-opacity="0"></use></g></g><g><use xlink:href="#b1lfCoEYfX" opacity="1" fill="#ffab01" fill-opacity="1"></use><g><use xlink:href="#b1lfCoEYfX" opacity="1" fill-opacity="0" stroke="#000000" stroke-width="1" stroke-opacity="0"></use></g></g><g><use xlink:href="#a4hpOfa7E" opacity="1" fill="#e9d6b8" fill-opacity="1"></use><g><use xlink:href="#a4hpOfa7E" opacity="1" fill-opacity="0" stroke="#000000" stroke-width="1" stroke-opacity="0"></use></g></g><g><use xlink:href="#a1TrYilxaA" opacity="1" fill="#2a425b" fill-opacity="1"></use><g><use xlink:href="#a1TrYilxaA" opacity="1" fill-opacity="0" stroke="#000000" stroke-width="1" stroke-opacity="0"></use></g></g><g><use xlink:href="#mbSfPbLHV" opacity="1" fill="#f5f5f5" fill-opacity="1"></use><g><use xlink:href="#mbSfPbLHV" opacity="1" fill-opacity="0" stroke="#000000" stroke-width="1" stroke-opacity="0"></use></g></g><g><use xlink:href="#a2WXB5gyKw" opacity="1" fill="#0c6d6a" fill-opacity="1"></use><g><use xlink:href="#a2WXB5gyKw" opacity="1" fill-opacity="0" stroke="#000000" stroke-width="1" stroke-opacity="0"></use></g></g><g><use xlink:href="#aAsxpOBzE" opacity="1" fill="#e9d6b8" fill-opacity="1"></use><g><use xlink:href="#aAsxpOBzE" opacity="1" fill-opacity="0" stroke="#000000" stroke-width="1" stroke-opacity="0"></use></g></g><g><use xlink:href="#acDqk5nER" opacity="1" fill="#2a425b" fill-opacity="1"></use><g><use xlink:href="#acDqk5nER" opacity="1" fill-opacity="0" stroke="#000000" stroke-width="1" stroke-opacity="0"></use></g></g><g><use xlink:href="#gjwWGwiGC" opacity="1" fill="#f5f5f5" fill-opacity="1"></use><g><use xlink:href="#gjwWGwiGC" opacity="1" fill-opacity="0" stroke="#000000" stroke-width="1" stroke-opacity="0"></use></g></g><g><use xlink:href="#b17ZMkGgnH" opacity="1" fill="#0c6d6a" fill-opacity="1"></use><g><use xlink:href="#b17ZMkGgnH" opacity="1" fill-opacity="0" stroke="#000000" stroke-width="1" stroke-opacity="0"></use></g></g><g><use xlink:href="#a13GZyTMM" opacity="1" fill="#79ccca" fill-opacity="1"></use><g><use xlink:href="#a13GZyTMM" opacity="1" fill-opacity="0" stroke="#000000" stroke-width="1" stroke-opacity="0"></use></g></g><g><use xlink:href="#a6Ya4Ow0c4" opacity="1" fill="#dfcaa8" fill-opacity="1"></use><g><use xlink:href="#a6Ya4Ow0c4" opacity="1" fill-opacity="0" stroke="#000000" stroke-width="1" stroke-opacity="0"></use></g></g><g><use xlink:href="#a70a64FZ8" opacity="1" fill="#e9d6b8" fill-opacity="1"></use><g><use xlink:href="#a70a64FZ8" opacity="1" fill-opacity="0" stroke="#000000" stroke-width="1" stroke-opacity="0"></use></g></g><g><use xlink:href="#cgUWU0B9S" opacity="1" fill="#e9d6b8" fill-opacity="1"></use><g><use xlink:href="#cgUWU0B9S" opacity="1" fill-opacity="0" stroke="#000000" stroke-width="1" stroke-opacity="0"></use></g></g><g><use xlink:href="#acKCfIezs" opacity="1" fill="#79ccca" fill-opacity="1"></use><g><use xlink:href="#acKCfIezs" opacity="1" fill-opacity="0" stroke="#000000" stroke-width="1" stroke-opacity="0"></use></g></g><g><use xlink:href="#a2osAP8avY" opacity="1" fill="#e9d6b8" fill-opacity="1"></use><g><use xlink:href="#a2osAP8avY" opacity="1" fill-opacity="0" stroke="#000000" stroke-width="1" stroke-opacity="0"></use></g></g><g><use xlink:href="#a1iT9Aujp8" opacity="1" fill="#e9d6b8" fill-opacity="1"></use><g><use xlink:href="#a1iT9Aujp8" opacity="1" fill-opacity="0" stroke="#000000" stroke-width="1" stroke-opacity="0"></use></g></g><g><use xlink:href="#bvrA2JG86" opacity="1" fill="#79ccca" fill-opacity="1"></use><g><use xlink:href="#bvrA2JG86" opacity="1" fill-opacity="0" stroke="#000000" stroke-width="1" stroke-opacity="0"></use></g></g><g><use xlink:href="#aswbjLuml" opacity="1" fill="#e9d6b8" fill-opacity="1"></use><g><use xlink:href="#aswbjLuml" opacity="1" fill-opacity="0" stroke="#000000" stroke-width="1" stroke-opacity="0"></use></g></g><g><use xlink:href="#b1xLuAgDyK" opacity="1" fill="#393768" fill-opacity="1"></use><g><use xlink:href="#b1xLuAgDyK" opacity="1" fill-opacity="0" stroke="#000000" stroke-width="1" stroke-opacity="0"></use></g></g><g><use xlink:href="#a3H1aED5yu" opacity="1" fill="#393768" fill-opacity="1"></use><g><use xlink:href="#a3H1aED5yu" opacity="1" fill-opacity="0" stroke="#000000" stroke-width="1" stroke-opacity="0"></use></g></g><g><use xlink:href="#e1QZ77zFIA" opacity="1" fill="#000000" fill-opacity="1"></use><g><use xlink:href="#e1QZ77zFIA" opacity="1" fill-opacity="0" stroke="#000000" stroke-width="1" stroke-opacity="0"></use></g></g><g><use xlink:href="#d15Xl2Tuf" opacity="1" fill="#e8efef" fill-opacity="1"></use><g><use xlink:href="#d15Xl2Tuf" opacity="1" fill-opacity="0" stroke="#000000" stroke-width="1" stroke-opacity="0"></use></g></g><g><use xlink:href="#aKlJ5A211" opacity="1" fill="#ffab01" fill-opacity="1"></use><g><use xlink:href="#aKlJ5A211" opacity="1" fill-opacity="0" stroke="#000000" stroke-width="1" stroke-opacity="0"></use></g></g><g><use xlink:href="#m1TBfuTaMG" opacity="1" fill="#ffcf50" fill-opacity="1"></use><g><use xlink:href="#m1TBfuTaMG" opacity="1" fill-opacity="0" stroke="#000000" stroke-width="1" stroke-opacity="0"></use></g></g><g><use xlink:href="#dKqFh4wMC" opacity="1" fill="#f9af38" fill-opacity="1"></use><g><use xlink:href="#dKqFh4wMC" opacity="1" fill-opacity="0" stroke="#000000" stroke-width="1" stroke-opacity="0"></use></g></g><g><use xlink:href="#apYmyHvPw" opacity="1" fill="#ffab01" fill-opacity="1"></use><g><use xlink:href="#apYmyHvPw" opacity="1" fill-opacity="0" stroke="#000000" stroke-width="1" stroke-opacity="0"></use></g></g><g><use xlink:href="#avWc9Uuno" opacity="1" fill="#ffcf50" fill-opacity="1"></use><g><use xlink:href="#avWc9Uuno" opacity="1" fill-opacity="0" stroke="#000000" stroke-width="1" stroke-opacity="0"></use></g></g><g><use xlink:href="#f4sM1NlHs2" opacity="1" fill="#ffab01" fill-opacity="1"></use><g><use xlink:href="#f4sM1NlHs2" opacity="1" fill-opacity="0" stroke="#000000" stroke-width="1" stroke-opacity="0"></use></g></g><g><use xlink:href="#arGPCE2Fy" opacity="1" fill="#f9af38" fill-opacity="1"></use><g><use xlink:href="#arGPCE2Fy" opacity="1" fill-opacity="0" stroke="#000000" stroke-width="1" stroke-opacity="0"></use></g></g><g><use xlink:href="#b93ZrwQn1" opacity="1" fill="#ffab01" fill-opacity="1"></use><g><use xlink:href="#b93ZrwQn1" opacity="1" fill-opacity="0" stroke="#000000" stroke-width="1" stroke-opacity="0"></use></g></g><g><use xlink:href="#a2hTktPYC8" opacity="1" fill="#ffcf50" fill-opacity="1"></use><g><use xlink:href="#a2hTktPYC8" opacity="1" fill-opacity="0" stroke="#000000" stroke-width="1" stroke-opacity="0"></use></g></g><g><use xlink:href="#e1c90etUpJ" opacity="1" fill="#ffcf50" fill-opacity="1"></use><g><use xlink:href="#e1c90etUpJ" opacity="1" fill-opacity="0" stroke="#000000" stroke-width="1" stroke-opacity="0"></use></g></g><g><use xlink:href="#a3SvUP0QgU" opacity="1" fill="#ffab01" fill-opacity="1"></use><g><use xlink:href="#a3SvUP0QgU" opacity="1" fill-opacity="0" stroke="#000000" stroke-width="1" stroke-opacity="0"></use></g></g><g><use xlink:href="#e1y68hBTkZ" opacity="1" fill="#f9af38" fill-opacity="1"></use><g><use xlink:href="#e1y68hBTkZ" opacity="1" fill-opacity="0" stroke="#000000" stroke-width="1" stroke-opacity="0"></use></g></g><g><use xlink:href="#dR90FCSag" opacity="1" fill="#ffab01" fill-opacity="1"></use><g><use xlink:href="#dR90FCSag" opacity="1" fill-opacity="0" stroke="#000000" stroke-width="1" stroke-opacity="0"></use></g></g><g><use xlink:href="#a5YvBHB3C" opacity="1" fill="#ffcf50" fill-opacity="1"></use><g><use xlink:href="#a5YvBHB3C" opacity="1" fill-opacity="0" stroke="#000000" stroke-width="1" stroke-opacity="0"></use></g></g><g><use xlink:href="#jZxCVFGoC" opacity="1" fill="#f9af38" fill-opacity="1"></use><g><use xlink:href="#jZxCVFGoC" opacity="1" fill-opacity="0" stroke="#000000" stroke-width="1" stroke-opacity="0"></use></g></g><g><use xlink:href="#hzu61UEsX" opacity="1" fill="#ffab01" fill-opacity="1"></use><g><use xlink:href="#hzu61UEsX" opacity="1" fill-opacity="0" stroke="#000000" stroke-width="1" stroke-opacity="0"></use></g></g><g><use xlink:href="#b54DCOCSJ" opacity="1" fill="#ffcf50" fill-opacity="1"></use><g><use xlink:href="#b54DCOCSJ" opacity="1" fill-opacity="0" stroke="#000000" stroke-width="1" stroke-opacity="0"></use></g></g><g><use xlink:href="#aZhfebxJ" opacity="1" fill="#f9af38" fill-opacity="1"></use><g><use xlink:href="#aZhfebxJ" opacity="1" fill-opacity="0" stroke="#000000" stroke-width="1" stroke-opacity="0"></use></g></g><g><use xlink:href="#a9DPTzWiU" opacity="1" fill="#ffab01" fill-opacity="1"></use><g><use xlink:href="#a9DPTzWiU" opacity="1" fill-opacity="0" stroke="#000000" stroke-width="1" stroke-opacity="0"></use></g></g><g><use xlink:href="#e3viF7fmfp" opacity="1" fill="#ffcf50" fill-opacity="1"></use><g><use xlink:href="#e3viF7fmfp" opacity="1" fill-opacity="0" stroke="#000000" stroke-width="1" stroke-opacity="0"></use></g></g><g><use xlink:href="#aiX59fWwU" opacity="1" fill="#ffab01" fill-opacity="1"></use><g><use xlink:href="#aiX59fWwU" opacity="1" fill-opacity="0" stroke="#000000" stroke-width="1" stroke-opacity="0"></use></g></g><g><use xlink:href="#aLiFbsDq1" opacity="1" fill="#f9af38" fill-opacity="1"></use><g><use xlink:href="#aLiFbsDq1" opacity="1" fill-opacity="0" stroke="#000000" stroke-width="1" stroke-opacity="0"></use></g></g><g><use xlink:href="#bi5g513G5" opacity="1" fill="#e8efef" fill-opacity="1"></use><g><use xlink:href="#bi5g513G5" opacity="1" fill-opacity="0" stroke="#000000" stroke-width="1" stroke-opacity="0"></use></g></g><g><use xlink:href="#c2c2tCgCo" opacity="1" fill="#ffab01" fill-opacity="1"></use><g><use xlink:href="#c2c2tCgCo" opacity="1" fill-opacity="0" stroke="#000000" stroke-width="1" stroke-opacity="0"></use></g></g><g><use xlink:href="#a8Gvxy3j2u" opacity="1" fill="#ffcf50" fill-opacity="1"></use><g><use xlink:href="#a8Gvxy3j2u" opacity="1" fill-opacity="0" stroke="#000000" stroke-width="1" stroke-opacity="0"></use></g></g><g><use xlink:href="#aBdaPAorb" opacity="1" fill="#ffab01" fill-opacity="1"></use><g><use xlink:href="#aBdaPAorb" opacity="1" fill-opacity="0" stroke="#000000" stroke-width="1" stroke-opacity="0"></use></g></g><g><use xlink:href="#d16eZs6MGC" opacity="1" fill="#f9af38" fill-opacity="1"></use><g><use xlink:href="#d16eZs6MGC" opacity="1" fill-opacity="0" stroke="#000000" stroke-width="1" stroke-opacity="0"></use></g></g><g><use xlink:href="#arA0WmZsp" opacity="1" fill="#ffab01" fill-opacity="1"></use><g><use xlink:href="#arA0WmZsp" opacity="1" fill-opacity="0" stroke="#000000" stroke-width="1" stroke-opacity="0"></use></g></g><g><use xlink:href="#j10GUyh60M" opacity="1" fill="#ffcf50" fill-opacity="1"></use><g><use xlink:href="#j10GUyh60M" opacity="1" fill-opacity="0" stroke="#000000" stroke-width="1" stroke-opacity="0"></use></g></g><g><use xlink:href="#b3a70F4juJ" opacity="1" fill="#ffcf50" fill-opacity="1"></use><g><use xlink:href="#b3a70F4juJ" opacity="1" fill-opacity="0" stroke="#000000" stroke-width="1" stroke-opacity="0"></use></g></g><g><use xlink:href="#eeAIFYYb" opacity="1" fill="#ffab01" fill-opacity="1"></use><g><use xlink:href="#eeAIFYYb" opacity="1" fill-opacity="0" stroke="#000000" stroke-width="1" stroke-opacity="0"></use></g></g><g><use xlink:href="#aXX6WeeCc" opacity="1" fill="#f9af38" fill-opacity="1"></use><g><use xlink:href="#aXX6WeeCc" opacity="1" fill-opacity="0" stroke="#000000" stroke-width="1" stroke-opacity="0"></use></g></g><g><use xlink:href="#aDs1f8Ncs" opacity="1" fill="#ffab01" fill-opacity="1"></use><g><use xlink:href="#aDs1f8Ncs" opacity="1" fill-opacity="0" stroke="#000000" stroke-width="1" stroke-opacity="0"></use></g></g><g><use xlink:href="#a5N16neCt2" opacity="1" fill="#ffcf50" fill-opacity="1"></use><g><use xlink:href="#a5N16neCt2" opacity="1" fill-opacity="0" stroke="#000000" stroke-width="1" stroke-opacity="0"></use></g></g><g><use xlink:href="#g3YhHJP2xz" opacity="1" fill="#f9af38" fill-opacity="1"></use><g><use xlink:href="#g3YhHJP2xz" opacity="1" fill-opacity="0" stroke="#000000" stroke-width="1" stroke-opacity="0"></use></g></g><g><use xlink:href="#a1thZscJjq" opacity="1" fill="#ffab01" fill-opacity="1"></use><g><use xlink:href="#a1thZscJjq" opacity="1" fill-opacity="0" stroke="#000000" stroke-width="1" stroke-opacity="0"></use></g></g><g><use xlink:href="#c8t3QNTqp" opacity="1" fill="#ffcf50" fill-opacity="1"></use><g><use xlink:href="#c8t3QNTqp" opacity="1" fill-opacity="0" stroke="#000000" stroke-width="1" stroke-opacity="0"></use></g></g><g><use xlink:href="#c2h4b7mbdQ" opacity="1" fill="#f9af38" fill-opacity="1"></use><g><use xlink:href="#c2h4b7mbdQ" opacity="1" fill-opacity="0" stroke="#000000" stroke-width="1" stroke-opacity="0"></use></g></g><g><use xlink:href="#g89YUcTVI" opacity="1" fill="#ffab01" fill-opacity="1"></use><g><use xlink:href="#g89YUcTVI" opacity="1" fill-opacity="0" stroke="#000000" stroke-width="1" stroke-opacity="0"></use></g></g><g><use xlink:href="#aOaVFEFEL" opacity="1" fill="#ffcf50" fill-opacity="1"></use><g><use xlink:href="#aOaVFEFEL" opacity="1" fill-opacity="0" stroke="#000000" stroke-width="1" stroke-opacity="0"></use></g></g><g><use xlink:href="#eXHmB069k" opacity="1" fill="#ffab01" fill-opacity="1"></use><g><use xlink:href="#eXHmB069k" opacity="1" fill-opacity="0" stroke="#000000" stroke-width="1" stroke-opacity="0"></use></g></g><g><use xlink:href="#a33oyDVYjf" opacity="1" fill="#f9af38" fill-opacity="1"></use><g><use xlink:href="#a33oyDVYjf" opacity="1" fill-opacity="0" stroke="#000000" stroke-width="1" stroke-opacity="0"></use></g></g><g><use xlink:href="#d2JlUVO4LL" opacity="1" fill="#ffab01" fill-opacity="1"></use><g><use xlink:href="#d2JlUVO4LL" opacity="1" fill-opacity="0" stroke="#000000" stroke-width="1" stroke-opacity="0"></use></g></g><g><use xlink:href="#e1TtZ7MELi" opacity="1" fill="#ffcf50" fill-opacity="1"></use><g><use xlink:href="#e1TtZ7MELi" opacity="1" fill-opacity="0" stroke="#000000" stroke-width="1" stroke-opacity="0"></use></g></g><g><use xlink:href="#g35E93Jjx4" opacity="1" fill="#ffab01" fill-opacity="1"></use><g><use xlink:href="#g35E93Jjx4" opacity="1" fill-opacity="0" stroke="#000000" stroke-width="1" stroke-opacity="0"></use></g></g><g><use xlink:href="#b41e4kKfOm" opacity="1" fill="#fba319" fill-opacity="1"></use><g><use xlink:href="#b41e4kKfOm" opacity="1" fill-opacity="0" stroke="#000000" stroke-width="1" stroke-opacity="0"></use></g></g></g></g></svg>