<svg width="50" height="50" viewBox="0 0 50 50" fill="none" xmlns="http://www.w3.org/2000/svg">
<path fill-rule="evenodd" clip-rule="evenodd" d="M28.75 15H21.25C17.7988 15 15 17.7859 15 21.2212V28.6866C15 32.122 17.7988 34.9078 21.25 34.9078H28.75C32.2013 34.9078 35 32.122 35 28.6866V21.2212C35 17.7859 32.2013 15 28.75 15ZM33.125 28.6866C33.125 31.088 31.1625 33.0415 28.75 33.0415H21.25C18.8375 33.0415 16.875 31.088 16.875 28.6866V21.2212C16.875 18.8198 18.8375 16.8664 21.25 16.8664H28.75C31.1625 16.8664 33.125 18.8198 33.125 21.2212V28.6866ZM25 19.977C22.2387 19.977 20 22.2054 20 24.9539C20 27.7025 22.2387 29.9309 25 29.9309C27.7613 29.9309 30 27.7025 30 24.9539C30 22.2054 27.7613 19.977 25 19.977ZM25 28.0645C23.2775 28.0645 21.875 26.6685 21.875 24.9539C21.875 23.2381 23.2775 21.8433 25 21.8433C26.7225 21.8433 28.125 23.2381 28.125 24.9539C28.125 26.6685 26.7225 28.0645 25 28.0645ZM31.0414 19.6037C31.0414 19.97 30.7431 20.2669 30.3751 20.2669C30.0072 20.2669 29.7089 19.97 29.7089 19.6037C29.7089 19.2374 30.0072 18.9405 30.3751 18.9405C30.7431 18.9405 31.0414 19.2374 31.0414 19.6037Z" fill="#1E253A"/>
<circle cx="25" cy="25" r="24.5" stroke="#1E253A" stroke-opacity="0.1"/>
</svg>
