<svg width="203" height="308" viewBox="0 0 203 308" fill="none" xmlns="http://www.w3.org/2000/svg">
<path d="M182.791 242.431C152.143 239.961 -20.1277 249.383 14.0786 273.071C48.2848 296.76 200.466 318.947 183.123 294.7C165.779 270.452 358.216 285.224 335.482 264.008C312.749 242.792 182.791 242.431 182.791 242.431Z" fill="white"/>
<path d="M0.319595 125.955L41.6417 139.469L33.3459 146.307L69.1008 183.322L100.442 156.709L216.453 248.958L216.453 258.253L216.453 275.811L100.75 183.123L67.7069 211.179L17.591 159.293H17.5894L8.63676 166.673L0.319595 125.955Z" fill="#1B404E"/>
<path d="M81.9948 134.097C81.9433 133.988 81.8778 133.886 81.7999 133.793C81.743 133.725 81.68 133.662 81.6116 133.605L81.3266 133.32L81.2512 133.373C79.7951 132.669 76.7864 133.415 73.7448 135.38C70.0678 137.755 67.706 141.025 68.3873 142.761L68.2841 142.838L68.692 143.241L68.7526 143.301L68.764 143.312C68.8711 143.408 68.99 143.489 69.1178 143.555C70.5559 144.3 73.5958 143.555 76.6717 141.572C80.4159 139.156 82.8039 135.808 81.9948 134.097Z" fill="#FFA412"/>
<path d="M73.3074 134.946C77.0533 132.528 80.7467 131.954 81.5574 133.665C82.3682 135.375 79.9867 138.723 76.2409 141.142C72.495 143.56 68.8 144.135 67.9909 142.423C67.1818 140.711 69.56 137.364 73.3074 134.946Z" fill="#FFB93E"/>
<path d="M76.0328 140.659C77.6002 139.643 78.9515 138.419 79.8376 137.212C80.7433 135.978 81.0562 134.896 80.7187 134.167C80.6255 133.977 80.4904 133.81 80.3235 133.679C80.1565 133.548 79.962 133.455 79.754 133.407C78.3717 133.014 75.923 133.767 73.5153 135.327C71.9462 136.342 70.595 137.565 69.7105 138.772C68.8048 140.008 68.4919 141.09 68.8293 141.817C68.9219 142.007 69.0565 142.174 69.2232 142.306C69.3899 142.438 69.5844 142.531 69.7924 142.578C70.0593 142.65 70.3349 142.684 70.6114 142.68C72.038 142.679 74.0493 141.942 76.0328 140.659ZM79.6787 133.668C79.8481 133.706 80.0069 133.78 80.1435 133.886C80.2801 133.992 80.391 134.127 80.4681 134.28C80.7581 134.907 80.4469 135.916 79.6148 137.053C78.7484 138.234 77.4233 139.434 75.8821 140.432C73.9625 141.675 71.9659 142.408 70.6081 142.408C70.3587 142.412 70.1099 142.381 69.8694 142.316C69.6999 142.279 69.5409 142.205 69.404 142.099C69.2672 141.994 69.1559 141.859 69.0783 141.705C68.7884 141.079 69.0996 140.068 69.9333 138.932C70.7981 137.752 72.1248 136.551 73.6644 135.553C75.5856 134.31 77.5806 133.577 78.9384 133.577C79.1881 133.573 79.4373 133.603 79.6787 133.666V133.668Z" fill="#FFA412"/>
<path d="M59.3672 47.1761C59.3303 47.099 59.2841 47.0267 59.2296 46.9606C59.189 46.9124 59.1441 46.8679 59.0953 46.8278L58.8939 46.6253L58.8398 46.6626C57.8063 46.1621 55.6705 46.6934 53.5101 48.088C50.8994 49.7741 49.2238 52.0953 49.707 53.3279L49.6333 53.3814L49.9232 53.668L49.9674 53.7102L49.9756 53.7183C50.0516 53.7867 50.1364 53.845 50.2278 53.8916C51.2482 54.4212 53.4069 53.8916 55.5902 52.484C58.2534 50.7622 59.9421 48.3909 59.3672 47.1761Z" fill="#FFA412"/>
<path d="M53.2006 47.7791C55.8589 46.0621 58.4811 45.6555 59.0577 46.8704C59.6342 48.0852 57.9423 50.4614 55.2905 52.1783C52.6388 53.8953 50.0083 54.3018 49.4334 53.0886C48.8585 51.8754 50.5406 49.4976 53.2006 47.7791Z" fill="#FFB93E"/>
<path d="M55.1351 51.8329C56.174 51.1812 57.0883 50.3532 57.8359 49.387C58.4796 48.5091 58.7024 47.7413 58.4616 47.2246C58.3957 47.09 58.3002 46.9716 58.182 46.8783C58.0638 46.7849 57.926 46.719 57.7786 46.6853C56.7959 46.405 55.0581 46.9412 53.3482 48.0475C52.3092 48.6997 51.3949 49.5282 50.6473 50.4949C50.0036 51.3712 49.7808 52.139 50.0216 52.6557C50.0874 52.7906 50.1829 52.9092 50.301 53.0028C50.4192 53.0964 50.5572 53.1627 50.7046 53.1967C50.8958 53.2475 51.0931 53.272 51.291 53.2696C52.2983 53.2696 53.7183 52.7464 55.1351 51.8329ZM57.7246 46.8748C57.8447 46.9013 57.9573 46.9541 58.0542 47.0292C58.1512 47.1043 58.2299 47.1998 58.2847 47.3089C58.4911 47.7527 58.27 48.4702 57.6787 49.2769C56.9439 50.2227 56.047 51.0335 55.0286 51.6725C53.6659 52.5553 52.2442 53.0752 51.2844 53.0752C51.107 53.0778 50.93 53.056 50.7587 53.0104C50.6385 52.9839 50.5259 52.9311 50.429 52.856C50.3321 52.7809 50.2533 52.6854 50.1985 52.5763C49.9921 52.1309 50.2132 51.4133 50.8045 50.6083C51.5385 49.661 52.4356 48.8489 53.4546 48.2094C54.8173 47.3267 56.239 46.8051 57.1988 46.8051C57.3765 46.8033 57.5536 46.8267 57.7246 46.8748Z" fill="#FFA412"/>
<path d="M49.8205 116.079C49.8575 115.999 49.9054 115.924 49.963 115.857C50.0047 115.807 50.0507 115.761 50.1006 115.72L50.3086 115.512L50.3627 115.551C51.4273 115.036 53.6253 115.582 55.8496 117.009C58.5357 118.745 60.2604 121.133 59.7641 122.403L59.8395 122.458L59.5397 122.753C59.5264 122.768 59.5122 122.782 59.4971 122.796H59.4873C59.4095 122.867 59.3225 122.927 59.2285 122.974C58.177 123.519 55.9528 122.974 53.7089 121.525C50.967 119.775 49.2292 117.334 49.8205 116.079Z" fill="#FFA412"/>
<path d="M56.1747 116.699C53.4362 114.932 50.7386 114.513 50.1457 115.763C49.5527 117.014 51.2922 119.459 54.0307 121.227C56.7693 122.994 59.4669 123.413 60.0582 122.163C60.6495 120.912 58.9051 118.468 56.1747 116.699Z" fill="#FFB93E"/>
<path d="M58.1405 122.356C58.3441 122.358 58.547 122.333 58.7433 122.279C58.8949 122.245 59.0367 122.177 59.1583 122.081C59.28 121.986 59.3782 121.864 59.4459 121.725C59.6933 121.193 59.464 120.402 58.8022 119.5C58.0314 118.505 57.0888 117.652 56.0178 116.981C54.2587 115.847 52.4685 115.292 51.4579 115.578C51.3062 115.613 51.1642 115.681 51.0424 115.778C50.9206 115.874 50.8219 115.995 50.7536 116.134C50.508 116.667 50.7356 117.457 51.3974 118.36C52.1687 119.354 53.1113 120.207 54.1818 120.878C55.6264 121.811 57.0956 122.356 58.1405 122.356ZM52.0591 115.703C53.0516 115.703 54.5159 116.238 55.913 117.146C56.958 117.805 57.8783 118.639 58.6319 119.612C59.2412 120.441 59.4689 121.18 59.2559 121.636C59.1997 121.749 59.1188 121.848 59.019 121.925C58.9193 122.003 58.8032 122.057 58.6794 122.085C58.5031 122.131 58.3213 122.153 58.1389 122.151C57.1463 122.151 55.6821 121.615 54.2849 120.707C53.236 120.049 52.3128 119.213 51.5579 118.238C50.9486 117.407 50.7209 116.67 50.9338 116.212C50.9902 116.1 51.0712 116.001 51.171 115.924C51.2707 115.846 51.3867 115.792 51.5104 115.765C51.6871 115.718 51.8696 115.695 52.0525 115.698L52.0591 115.703Z" fill="#FFA412"/>
<path d="M80.8319 67.5448C80.809 67.4968 80.7804 67.4517 80.7468 67.4104C80.7205 67.3803 80.692 67.3522 80.6616 67.3261L80.5355 67.1998L80.5027 67.2241C79.8476 66.9115 78.5176 67.2435 77.1664 68.1166C75.5285 69.171 74.4819 70.6256 74.7849 71.3966L74.7374 71.4306L74.9192 71.6104L74.9471 71.6363C74.9964 71.6797 75.0515 71.7162 75.1108 71.7448C75.7496 72.0688 77.1009 71.7448 78.4685 70.8637C80.1342 69.793 81.1923 68.3061 80.8319 67.5448Z" fill="#FFA412"/>
<path d="M76.9758 67.9223C78.6399 66.8468 80.2826 66.5925 80.643 67.3521C81.0033 68.1118 79.9452 69.602 78.2795 70.6759C76.6138 71.7498 74.9727 72.0073 74.6123 71.246C74.252 70.4848 75.3052 68.9978 76.9758 67.9223Z" fill="#FFB93E"/>
<path d="M78.1833 70.4604C78.8333 70.0523 79.4054 69.5342 79.8736 68.9297C80.2765 68.3806 80.4157 67.8995 80.265 67.5756C80.2236 67.4913 80.1638 67.4173 80.0898 67.3587C80.0159 67.3002 79.9297 67.2586 79.8375 67.2371C79.2217 67.0621 78.1341 67.399 77.063 68.0907C76.4128 68.4992 75.8406 69.0179 75.3727 69.623C74.9698 70.1721 74.8305 70.6531 74.9812 70.9755C75.022 71.0602 75.0816 71.1347 75.1556 71.1933C75.2297 71.2519 75.3162 71.2932 75.4087 71.314C75.5283 71.3459 75.6518 71.3612 75.7756 71.3593C76.4062 71.3593 77.3037 71.0322 78.1833 70.4604ZM79.8031 67.3537C79.8784 67.3703 79.949 67.4033 80.0096 67.4504C80.0703 67.4975 80.1195 67.5574 80.1536 67.6258C80.283 67.9044 80.1454 68.3531 79.7753 68.8584C79.3176 69.4512 78.7582 69.96 78.1227 70.3616C77.2693 70.9139 76.3816 71.2411 75.7772 71.2395C75.6667 71.2412 75.5564 71.2276 75.4497 71.199C75.3741 71.1825 75.3033 71.1495 75.2424 71.1025C75.1814 71.0554 75.1319 70.9954 75.0975 70.9269C74.9698 70.6499 75.1073 70.1996 75.4775 69.6959C75.9368 69.1022 76.4985 68.5933 77.1367 68.1927C77.99 67.6404 78.8777 67.3148 79.4805 67.3148C79.5893 67.3131 79.6979 67.3262 79.8031 67.3537Z" fill="#FFA412"/>
<path d="M118.752 264.598V267.4C118.754 267.62 118.832 267.833 118.975 268.003C119.135 268.192 119.347 268.332 119.586 268.406C119.663 268.432 119.742 268.451 119.823 268.463C119.899 268.474 119.976 268.479 120.052 268.479H173.803C174.496 268.479 175.066 268.024 175.102 267.455C175.102 267.437 175.102 267.418 175.102 267.4V264.598C175.102 264.579 175.102 264.561 175.102 264.541C175.066 263.973 174.496 263.518 173.803 263.518H120.052C119.976 263.518 119.899 263.524 119.823 263.535C119.742 263.546 119.663 263.565 119.586 263.59C119.347 263.664 119.135 263.804 118.975 263.994C118.832 264.164 118.754 264.377 118.752 264.598Z" fill="#FFCF50"/>
<path d="M145.146 268.479H173.939C174.227 268.486 174.508 268.384 174.723 268.194C174.938 268.004 175.072 267.74 175.098 267.456C175.098 267.438 175.098 267.418 175.098 267.4V264.598C175.098 264.579 175.098 264.561 175.098 264.542C175.072 264.257 174.938 263.993 174.723 263.803C174.508 263.613 174.227 263.511 173.939 263.518H148.682C148.144 265.538 146.889 267.299 145.146 268.479Z" fill="#FFA412"/>
<path d="M124.499 259.635V262.437C124.501 262.658 124.579 262.871 124.722 263.04C124.882 263.23 125.094 263.371 125.333 263.445C125.41 263.47 125.49 263.488 125.57 263.5C125.646 263.512 125.723 263.518 125.8 263.518H179.548C180.241 263.518 180.813 263.061 180.847 262.492C180.847 262.475 180.847 262.457 180.847 262.437V259.635C180.847 259.617 180.847 259.598 180.847 259.58C180.813 259.011 180.241 258.555 179.548 258.555H125.8H125.696H125.652H125.605H125.57C125.49 258.566 125.41 258.585 125.333 258.61L125.298 258.621L125.266 258.634L125.2 258.66L125.162 258.676L125.13 258.692L125.067 258.725C125.045 258.738 125.023 258.752 125.002 258.767C124.984 258.777 124.967 258.788 124.951 258.801L124.918 258.825C124.886 258.851 124.855 258.878 124.825 258.906C124.815 258.914 124.806 258.922 124.799 258.932L124.773 258.958C124.756 258.976 124.74 258.994 124.725 259.013C124.577 259.187 124.497 259.408 124.499 259.635Z" fill="#FFCF50"/>
<path d="M150.892 263.518H179.688C179.976 263.525 180.257 263.423 180.472 263.232C180.688 263.042 180.822 262.777 180.847 262.493C180.847 262.475 180.847 262.457 180.847 262.438V259.635C180.847 259.618 180.847 259.598 180.847 259.58C180.822 259.296 180.688 259.031 180.472 258.841C180.257 258.65 179.976 258.548 179.688 258.555H154.43C154.418 258.596 154.407 258.636 154.394 258.678C153.84 260.649 152.6 262.364 150.892 263.518Z" fill="#FFA412"/>
<path d="M121.722 254.795V257.606C121.723 257.826 121.802 258.039 121.944 258.208C122.105 258.398 122.317 258.539 122.555 258.613C122.633 258.638 122.712 258.657 122.793 258.668C122.869 258.68 122.945 258.686 123.022 258.686H176.772C176.979 258.686 177.183 258.644 177.372 258.563C177.553 258.493 177.712 258.377 177.834 258.228C177.956 258.078 178.036 257.899 178.066 257.709V257.661C178.066 257.643 178.066 257.624 178.066 257.606V254.804C178.066 254.786 178.066 254.766 178.066 254.748C178.03 254.18 177.46 253.723 176.768 253.723H123.017C122.94 253.723 122.864 253.729 122.788 253.741C122.707 253.753 122.628 253.771 122.55 253.796C122.312 253.871 122.1 254.011 121.94 254.201C121.8 254.369 121.724 254.578 121.722 254.795Z" fill="#FFCF50"/>
<path d="M148.116 258.678H176.912C177.097 258.678 177.28 258.636 177.446 258.554C177.614 258.476 177.759 258.357 177.868 258.207C177.977 258.058 178.045 257.884 178.066 257.701V257.652C178.066 257.634 178.066 257.615 178.066 257.597V254.795C178.066 254.777 178.066 254.758 178.066 254.74C178.041 254.455 177.907 254.191 177.692 254C177.476 253.81 177.196 253.708 176.907 253.715H151.647C151.127 255.664 149.94 257.374 148.288 258.554L148.116 258.678Z" fill="#FFA412"/>
<path d="M120.434 249.831V252.633C120.436 252.854 120.514 253.067 120.657 253.237C120.817 253.427 121.029 253.567 121.268 253.641C121.345 253.666 121.424 253.685 121.505 253.697C121.581 253.708 121.658 253.713 121.734 253.714H175.485C176.178 253.714 176.748 253.258 176.784 252.69C176.784 252.671 176.784 252.653 176.784 252.633V249.831C176.784 249.813 176.784 249.794 176.784 249.776C176.751 249.25 176.26 248.82 175.637 248.759C175.586 248.759 175.536 248.759 175.483 248.759H121.733C121.656 248.758 121.579 248.764 121.504 248.775C121.423 248.787 121.344 248.806 121.266 248.83C121.027 248.905 120.815 249.045 120.655 249.235C120.515 249.403 120.437 249.613 120.434 249.831Z" fill="#FFCF50"/>
<path d="M146.828 253.718H175.624C175.913 253.725 176.193 253.623 176.408 253.433C176.624 253.243 176.758 252.979 176.784 252.695C176.784 252.675 176.784 252.657 176.784 252.638V249.831C176.784 249.813 176.784 249.794 176.784 249.776C176.761 249.515 176.646 249.27 176.459 249.084C176.273 248.898 176.026 248.783 175.762 248.759C175.716 248.756 175.67 248.756 175.624 248.759H150.365C149.826 250.778 148.571 252.539 146.828 253.718Z" fill="#FFA412"/>
<path d="M124.386 244.878V247.681C124.388 247.902 124.467 248.114 124.609 248.284C124.768 248.474 124.981 248.615 125.22 248.687C125.297 248.713 125.377 248.732 125.457 248.744L125.533 248.754H125.575H179.435C180.128 248.754 180.7 248.299 180.734 247.73C180.734 247.711 180.734 247.693 180.734 247.675V244.871C180.734 244.853 180.734 244.836 180.734 244.816C180.735 244.801 180.735 244.786 180.734 244.771C180.683 244.314 180.284 243.937 179.752 243.825H179.712C179.619 243.807 179.525 243.798 179.431 243.799H125.687H125.57H125.518H125.457C125.377 243.811 125.297 243.83 125.22 243.856C124.981 243.928 124.768 244.068 124.609 244.259C124.463 244.433 124.384 244.652 124.386 244.878Z" fill="#FFCF50"/>
<path d="M150.781 248.76H179.575C179.863 248.767 180.144 248.666 180.359 248.475C180.575 248.285 180.709 248.021 180.734 247.736C180.734 247.717 180.734 247.699 180.734 247.681V244.878C180.734 244.86 180.734 244.842 180.734 244.823C180.735 244.807 180.735 244.792 180.734 244.777C180.705 244.545 180.602 244.327 180.44 244.156C180.278 243.985 180.066 243.869 179.833 243.825L179.784 243.815C179.716 243.804 179.647 243.798 179.578 243.799H154.317C154.314 243.81 154.31 243.822 154.305 243.833C153.764 245.834 152.518 247.579 150.792 248.754L150.781 248.76Z" fill="#FFA412"/>
<path d="M124.499 239.951V242.753C124.501 242.973 124.58 243.186 124.722 243.355C124.882 243.546 125.094 243.686 125.333 243.76C125.393 243.78 125.455 243.795 125.518 243.806L125.569 243.815C125.645 243.826 125.721 243.832 125.798 243.831H179.548C179.603 243.835 179.658 243.835 179.712 243.831C179.733 243.831 179.755 243.831 179.776 243.822C180.361 243.734 180.811 243.32 180.842 242.816C180.842 242.798 180.842 242.779 180.842 242.761V239.951C180.842 239.931 180.842 239.913 180.842 239.894C180.808 239.325 180.236 238.87 179.543 238.87H125.795H125.692H125.647H125.6H125.565C125.485 238.881 125.405 238.899 125.328 238.925L125.294 238.937L125.261 238.948L125.195 238.974L125.125 239.008L125.063 239.04L124.997 239.081L124.946 239.115L124.914 239.139C124.881 239.164 124.849 239.191 124.82 239.22C124.811 239.227 124.802 239.235 124.794 239.244L124.768 239.27L124.72 239.325C124.574 239.501 124.496 239.723 124.499 239.951Z" fill="#FFCF50"/>
<path d="M150.892 243.838H179.756C179.781 243.839 179.805 243.839 179.83 243.838C180.093 243.814 180.34 243.699 180.526 243.513C180.712 243.327 180.826 243.083 180.847 242.822C180.847 242.804 180.847 242.785 180.847 242.767V239.95C180.847 239.931 180.847 239.913 180.847 239.894C180.822 239.609 180.688 239.345 180.472 239.155C180.257 238.965 179.976 238.863 179.688 238.87H154.43C154.418 238.91 154.407 238.951 154.394 238.991C153.846 240.942 152.626 242.642 150.944 243.797L150.892 243.838Z" fill="#FFA412"/>
<path d="M121.722 235.112V237.914C121.724 238.134 121.802 238.347 121.944 238.517C122.105 238.707 122.317 238.847 122.555 238.92C122.633 238.946 122.712 238.965 122.793 238.977C122.869 238.988 122.945 238.993 123.022 238.993H176.772C176.979 238.994 177.183 238.952 177.372 238.871C177.553 238.801 177.712 238.686 177.834 238.536C177.956 238.386 178.036 238.208 178.066 238.018V237.969C178.066 237.951 178.066 237.932 178.066 237.914V235.112C178.066 235.093 178.066 235.075 178.066 235.055C178.03 234.487 177.46 234.032 176.768 234.032H123.017C122.94 234.032 122.864 234.038 122.788 234.05C122.707 234.06 122.628 234.079 122.55 234.105C122.312 234.178 122.1 234.318 121.94 234.508C121.799 234.679 121.722 234.892 121.722 235.112Z" fill="#FFCF50"/>
<path d="M148.116 238.993H176.912C177.097 238.994 177.28 238.952 177.446 238.871C177.614 238.793 177.759 238.673 177.868 238.524C177.977 238.375 178.045 238.2 178.066 238.018V237.969C178.066 237.951 178.066 237.932 178.066 237.914V235.112C178.066 235.093 178.066 235.075 178.066 235.055C178.041 234.771 177.907 234.507 177.691 234.317C177.476 234.127 177.195 234.025 176.907 234.032H151.647C151.127 235.98 149.94 237.691 148.288 238.871L148.116 238.993Z" fill="#FFA412"/>
<path d="M117.33 230.149V232.951C117.332 233.171 117.41 233.384 117.553 233.554C117.713 233.744 117.924 233.884 118.162 233.959C118.24 233.984 118.32 234.002 118.401 234.014C118.477 234.025 118.554 234.031 118.631 234.032H172.379C173.072 234.032 173.644 233.575 173.678 233.006C173.678 232.988 173.678 232.971 173.678 232.951V230.149C173.678 230.131 173.678 230.112 173.678 230.094C173.645 229.567 173.156 229.138 172.532 229.077C172.481 229.077 172.43 229.077 172.378 229.077H118.629C118.552 229.077 118.476 229.083 118.4 229.094C118.319 229.106 118.239 229.125 118.161 229.15C117.922 229.224 117.711 229.364 117.551 229.554C117.411 229.722 117.333 229.932 117.33 230.149Z" fill="#FFCF50"/>
<path d="M143.723 234.032H172.519C172.807 234.039 173.088 233.937 173.304 233.746C173.519 233.556 173.653 233.291 173.678 233.007C173.678 232.989 173.678 232.971 173.678 232.952V230.149C173.678 230.132 173.678 230.112 173.678 230.094C173.656 229.833 173.542 229.587 173.355 229.401C173.168 229.215 172.92 229.1 172.656 229.077C172.61 229.075 172.564 229.075 172.519 229.077H147.259C146.72 231.095 145.465 232.854 143.723 234.032Z" fill="#FFA412"/>
<path d="M124.386 225.194V227.997C124.388 228.217 124.467 228.43 124.609 228.599C124.768 228.791 124.981 228.931 125.22 229.004C125.297 229.03 125.377 229.048 125.458 229.059C125.482 229.064 125.508 229.067 125.533 229.069C125.553 229.069 125.574 229.069 125.593 229.069H179.436C180.128 229.069 180.7 228.612 180.734 228.044C180.734 228.026 180.734 228.008 180.734 227.988V225.186C180.734 225.168 180.734 225.149 180.734 225.131C180.7 224.563 180.128 224.106 179.436 224.106H125.687H125.618C125.563 224.107 125.508 224.112 125.454 224.121C125.374 224.132 125.294 224.15 125.217 224.176C125.177 224.189 125.14 224.203 125.104 224.218L125.037 224.248C125.014 224.258 124.992 224.27 124.971 224.283H124.96L124.901 224.318C124.856 224.347 124.812 224.378 124.771 224.412C124.759 224.422 124.746 224.433 124.735 224.444L124.712 224.466C124.699 224.478 124.686 224.492 124.675 224.506C124.657 224.525 124.639 224.543 124.622 224.564C124.469 224.739 124.385 224.963 124.386 225.194Z" fill="#FFCF50"/>
<path d="M150.781 229.077H179.575C179.864 229.084 180.144 228.982 180.36 228.791C180.575 228.601 180.709 228.336 180.734 228.052C180.734 228.034 180.734 228.016 180.734 227.997V225.194C180.734 225.177 180.734 225.157 180.734 225.139C180.709 224.855 180.575 224.59 180.36 224.4C180.144 224.209 179.864 224.107 179.575 224.114H154.317C154.306 224.153 154.296 224.19 154.283 224.229C153.732 226.198 152.496 227.912 150.792 229.069L150.781 229.077Z" fill="#FFA412"/>
<path d="M120.434 220.351V223.153C120.436 223.374 120.515 223.587 120.657 223.757C120.817 223.947 121.029 224.087 121.268 224.161C121.345 224.187 121.425 224.205 121.506 224.216C121.581 224.227 121.658 224.233 121.735 224.234H175.485C175.684 224.235 175.882 224.196 176.065 224.119C176.251 224.051 176.416 223.935 176.542 223.783C176.668 223.63 176.75 223.448 176.781 223.254C176.78 223.239 176.78 223.225 176.781 223.21C176.781 223.191 176.781 223.173 176.781 223.153V220.351C176.781 220.333 176.781 220.314 176.781 220.296C176.748 219.77 176.257 219.34 175.634 219.279C175.583 219.279 175.533 219.279 175.48 219.279H121.73C121.653 219.278 121.577 219.284 121.501 219.295C121.42 219.307 121.341 219.326 121.263 219.35C121.025 219.425 120.813 219.565 120.652 219.755C120.513 219.923 120.436 220.134 120.434 220.351Z" fill="#FFCF50"/>
<path d="M146.829 224.229H175.624C175.804 224.23 175.98 224.191 176.142 224.114C176.315 224.037 176.465 223.916 176.577 223.765C176.689 223.613 176.759 223.436 176.781 223.249C176.78 223.235 176.78 223.22 176.781 223.205C176.781 223.186 176.781 223.168 176.781 223.149V220.351C176.781 220.334 176.781 220.314 176.781 220.296C176.758 220.035 176.643 219.79 176.456 219.604C176.27 219.418 176.023 219.303 175.759 219.279C175.713 219.277 175.667 219.277 175.621 219.279H150.362C149.841 221.23 148.651 222.941 146.994 224.119L146.829 224.229Z" fill="#FFA412"/>
<path d="M118.752 215.391V218.195C118.754 218.415 118.833 218.628 118.975 218.798C119.135 218.988 119.347 219.128 119.586 219.201C119.663 219.227 119.742 219.246 119.823 219.258L119.899 219.268H119.941H173.803C174.496 219.268 175.066 218.812 175.102 218.244C175.102 218.224 175.102 218.207 175.102 218.189V215.385C175.102 215.367 175.102 215.349 175.102 215.33C175.066 214.761 174.496 214.306 173.803 214.306H120.052C119.976 214.306 119.899 214.311 119.823 214.322C119.742 214.334 119.663 214.353 119.586 214.379C119.347 214.453 119.135 214.593 118.975 214.782C118.831 214.954 118.752 215.169 118.752 215.391Z" fill="#FFCF50"/>
<path d="M145.146 219.274H173.939C174.227 219.281 174.508 219.179 174.723 218.989C174.938 218.799 175.072 218.535 175.098 218.25C175.098 218.231 175.098 218.213 175.098 218.195V215.392C175.098 215.374 175.098 215.356 175.098 215.337C175.072 215.052 174.938 214.788 174.723 214.598C174.508 214.408 174.227 214.306 173.939 214.313H148.682C148.146 216.329 146.895 218.087 145.158 219.268L145.146 219.274Z" fill="#FFA412"/>
<path d="M121.478 210.182V213.35C121.48 213.6 121.559 213.841 121.702 214.034C121.862 214.248 122.075 214.407 122.314 214.49C122.466 214.543 122.625 214.571 122.784 214.572H176.761C177.457 214.572 178.031 214.057 178.065 213.415C178.065 213.393 178.065 213.372 178.065 213.35V210.182C178.065 210.162 178.065 210.142 178.065 210.12C178.031 209.477 177.457 208.962 176.761 208.962H122.784C122.707 208.962 122.63 208.968 122.554 208.981C122.473 208.995 122.392 209.016 122.314 209.045C122.075 209.127 121.862 209.286 121.702 209.501C121.559 209.692 121.48 209.933 121.478 210.182Z" fill="#FFCF50"/>
<path d="M147.94 214.227H176.736C177.025 214.234 177.305 214.132 177.521 213.942C177.736 213.752 177.87 213.488 177.896 213.203C177.896 213.184 177.896 213.166 177.896 213.146V210.344C177.896 210.326 177.896 210.309 177.896 210.289C177.87 210.005 177.736 209.74 177.521 209.55C177.305 209.36 177.025 209.258 176.736 209.266H151.476C150.939 211.286 149.684 213.047 147.94 214.227Z" fill="#FFA412"/>
<path d="M127.293 205.383V208.185C127.295 208.406 127.374 208.619 127.518 208.788C127.677 208.978 127.889 209.118 128.127 209.193C128.205 209.218 128.284 209.236 128.365 209.248C128.441 209.259 128.517 209.265 128.594 209.266H182.344C183.037 209.266 183.607 208.809 183.643 208.24C183.643 208.223 183.643 208.203 183.643 208.185V205.383C183.643 205.364 183.643 205.346 183.643 205.326C183.607 204.759 183.037 204.303 182.344 204.303H128.594H128.492H128.448H128.399H128.365C128.284 204.314 128.204 204.332 128.127 204.358L128.093 204.369L128.06 204.38L127.994 204.408L127.958 204.424L127.924 204.44L127.863 204.473L127.796 204.513L127.746 204.547L127.713 204.572C127.68 204.597 127.648 204.624 127.618 204.653L127.592 204.677L127.567 204.704C127.551 204.722 127.534 204.74 127.519 204.759C127.37 204.933 127.29 205.155 127.293 205.383Z" fill="#FFCF50"/>
<path d="M153.688 209.266H182.483C182.772 209.273 183.053 209.171 183.268 208.98C183.484 208.79 183.618 208.525 183.643 208.241C183.643 208.223 183.643 208.203 183.643 208.186V205.383C183.643 205.364 183.643 205.346 183.643 205.327C183.617 205.042 183.483 204.778 183.268 204.588C183.052 204.398 182.772 204.296 182.483 204.303H157.224L157.19 204.426C156.635 206.397 155.395 208.111 153.688 209.266Z" fill="#FFA412"/>
<path d="M124.518 200.543V203.343C124.519 203.564 124.598 203.777 124.74 203.946C124.9 204.136 125.112 204.277 125.351 204.351C125.429 204.376 125.508 204.395 125.589 204.406C125.665 204.418 125.741 204.424 125.818 204.424H179.567C179.773 204.424 179.977 204.382 180.166 204.301C180.347 204.231 180.507 204.115 180.629 203.966C180.751 203.816 180.832 203.637 180.862 203.447C180.862 203.431 180.862 203.415 180.862 203.399C180.862 203.382 180.862 203.361 180.862 203.343V200.541C180.862 200.522 180.862 200.504 180.862 200.485C180.828 199.918 180.256 199.461 179.563 199.461H125.818C125.741 199.461 125.665 199.467 125.589 199.479C125.508 199.489 125.428 199.508 125.351 199.534C125.112 199.606 124.9 199.747 124.74 199.937C124.598 200.108 124.519 200.322 124.518 200.543Z" fill="#FFCF50"/>
<path d="M150.912 204.426H179.706C179.892 204.426 180.075 204.384 180.242 204.303C180.41 204.225 180.555 204.105 180.664 203.956C180.772 203.806 180.841 203.632 180.862 203.449C180.862 203.433 180.862 203.417 180.862 203.401C180.862 203.385 180.862 203.364 180.862 203.346V200.544C180.862 200.524 180.862 200.506 180.862 200.487C180.837 200.203 180.702 199.939 180.487 199.748C180.272 199.558 179.991 199.456 179.703 199.463H154.448C153.927 201.412 152.74 203.123 151.087 204.303L150.912 204.426Z" fill="#FFA412"/>
<path d="M123.23 195.581V198.383C123.232 198.603 123.31 198.816 123.453 198.985C123.612 199.176 123.825 199.317 124.064 199.39C124.141 199.415 124.221 199.434 124.301 199.445C124.377 199.457 124.454 199.463 124.531 199.463H178.279C178.972 199.463 179.544 199.006 179.578 198.438C179.578 198.42 179.578 198.402 179.578 198.383V195.581C179.578 195.563 179.578 195.543 179.578 195.526C179.547 194.999 179.056 194.57 178.432 194.508C178.381 194.508 178.33 194.508 178.278 194.508H124.529C124.452 194.508 124.376 194.514 124.3 194.526C124.219 194.538 124.14 194.556 124.062 194.581C123.823 194.655 123.611 194.796 123.451 194.986C123.311 195.153 123.233 195.363 123.23 195.581Z" fill="#FFCF50"/>
<path d="M149.623 199.457H178.418C178.707 199.464 178.988 199.361 179.203 199.171C179.419 198.981 179.553 198.716 179.578 198.431C179.578 198.414 179.578 198.396 179.578 198.376V195.574C179.578 195.556 179.578 195.537 179.578 195.519C179.556 195.258 179.442 195.012 179.255 194.826C179.068 194.64 178.82 194.525 178.556 194.502C178.51 194.499 178.464 194.499 178.418 194.502H153.159C152.619 196.519 151.364 198.278 149.623 199.457Z" fill="#FFA412"/>
<path d="M127.182 190.626V193.428C127.184 193.649 127.263 193.862 127.405 194.032C127.564 194.222 127.776 194.362 128.014 194.435C128.092 194.461 128.172 194.48 128.253 194.49C128.278 194.495 128.303 194.499 128.329 194.5H128.371H182.231C182.924 194.5 183.496 194.043 183.53 193.476C183.53 193.457 183.53 193.439 183.53 193.42V190.618C183.53 190.6 183.53 190.58 183.53 190.562C183.531 190.547 183.531 190.532 183.53 190.517C183.478 190.06 183.078 189.683 182.547 189.571H182.508C182.415 189.555 182.321 189.547 182.226 189.547H128.476H128.36H128.309L128.25 189.555C128.169 189.567 128.089 189.586 128.011 189.61C127.773 189.684 127.561 189.825 127.402 190.015C127.259 190.187 127.181 190.403 127.182 190.626Z" fill="#FFCF50"/>
<path d="M153.575 194.508H182.37C182.659 194.515 182.94 194.413 183.155 194.223C183.37 194.033 183.504 193.769 183.53 193.485C183.53 193.465 183.53 193.447 183.53 193.428V190.626C183.53 190.608 183.53 190.588 183.53 190.571C183.531 190.555 183.531 190.54 183.53 190.525C183.501 190.293 183.398 190.076 183.236 189.905C183.074 189.734 182.862 189.617 182.629 189.573L182.58 189.563C182.512 189.552 182.443 189.547 182.374 189.547H157.114L157.105 189.581C156.564 191.583 155.317 193.327 153.59 194.5L153.575 194.508Z" fill="#FFA412"/>
<path d="M127.294 185.698V188.502C127.295 188.722 127.375 188.935 127.518 189.104C127.677 189.295 127.889 189.435 128.127 189.508C128.188 189.527 128.25 189.543 128.312 189.555L128.363 189.564C128.439 189.576 128.516 189.581 128.592 189.581H182.344C182.399 189.58 182.454 189.577 182.508 189.571H182.572C183.155 189.483 183.607 189.067 183.638 188.565C183.638 188.546 183.638 188.528 183.638 188.51V185.706C183.638 185.688 183.638 185.671 183.638 185.651C183.602 185.083 183.032 184.627 182.339 184.627H128.589C128.555 184.627 128.52 184.627 128.488 184.627H128.443H128.394H128.36C128.279 184.64 128.2 184.659 128.122 184.684L128.088 184.695L128.055 184.707L127.99 184.733L127.919 184.767L127.859 184.799C127.836 184.812 127.813 184.825 127.791 184.84L127.741 184.874C127.729 184.881 127.718 184.889 127.708 184.898C127.674 184.922 127.642 184.949 127.613 184.979L127.587 185.003L127.562 185.029L127.515 185.084C127.37 185.257 127.292 185.474 127.294 185.698Z" fill="#FFCF50"/>
<path d="M153.688 189.576H182.552H182.626C182.889 189.551 183.135 189.436 183.321 189.25C183.507 189.065 183.621 188.82 183.643 188.56C183.643 188.541 183.643 188.523 183.643 188.505V185.701C183.643 185.683 183.643 185.666 183.643 185.646C183.618 185.362 183.484 185.097 183.268 184.907C183.053 184.717 182.772 184.615 182.483 184.622H157.224L157.19 184.744C156.641 186.694 155.421 188.394 153.74 189.55L153.688 189.576Z" fill="#FFA412"/>
<path d="M124.518 180.858V183.66C124.519 183.881 124.598 184.094 124.74 184.264C124.9 184.455 125.112 184.595 125.351 184.668C125.428 184.694 125.508 184.712 125.589 184.723C125.665 184.735 125.741 184.741 125.818 184.741H179.567C179.773 184.742 179.977 184.7 180.166 184.619C180.347 184.549 180.507 184.433 180.629 184.284C180.751 184.134 180.831 183.955 180.862 183.766C180.862 183.749 180.862 183.733 180.862 183.717C180.862 183.701 180.862 183.68 180.862 183.66V180.858C180.862 180.84 180.862 180.822 180.862 180.803C180.828 180.234 180.256 179.779 179.563 179.779H125.818C125.741 179.779 125.665 179.784 125.589 179.796C125.508 179.808 125.429 179.826 125.351 179.852C125.112 179.925 124.9 180.065 124.74 180.256C124.598 180.425 124.519 180.638 124.518 180.858Z" fill="#FFCF50"/>
<path d="M150.912 184.74H179.706C179.892 184.741 180.075 184.699 180.242 184.619C180.41 184.54 180.555 184.421 180.663 184.272C180.772 184.122 180.84 183.948 180.862 183.765C180.862 183.749 180.862 183.733 180.862 183.717C180.862 183.701 180.862 183.68 180.862 183.66V180.858C180.862 180.84 180.862 180.822 180.862 180.803C180.837 180.518 180.703 180.254 180.487 180.064C180.272 179.874 179.991 179.772 179.703 179.779H154.448C153.927 181.728 152.74 183.439 151.087 184.619L150.912 184.74Z" fill="#FFA412"/>
<path d="M120.124 175.897V178.699C120.126 178.919 120.205 179.132 120.347 179.301C120.508 179.491 120.72 179.632 120.958 179.706C121.036 179.731 121.115 179.749 121.196 179.761C121.271 179.773 121.348 179.779 121.425 179.779H175.175C175.868 179.779 176.438 179.322 176.474 178.754C176.474 178.736 176.474 178.716 176.474 178.699V175.897C176.474 175.877 176.474 175.859 176.474 175.841C176.441 175.315 175.95 174.886 175.328 174.824C175.277 174.821 175.226 174.821 175.175 174.824H121.425C121.348 174.824 121.271 174.83 121.196 174.842C121.115 174.853 121.035 174.871 120.958 174.897C120.719 174.971 120.507 175.111 120.347 175.302C120.206 175.469 120.128 175.679 120.124 175.897Z" fill="#FFCF50"/>
<path d="M146.519 179.779H175.315C175.603 179.784 175.882 179.681 176.097 179.491C176.312 179.301 176.447 179.038 176.474 178.754C176.474 178.736 176.474 178.717 176.474 178.699V175.897C176.474 175.878 176.474 175.86 176.474 175.842C176.452 175.581 176.337 175.335 176.15 175.149C175.963 174.963 175.716 174.848 175.452 174.825C175.406 174.821 175.36 174.821 175.315 174.825H150.055C149.515 176.842 148.26 178.601 146.519 179.779Z" fill="#FFA412"/>
<path d="M27.6434 264.448V267.25C27.6451 267.471 27.7244 267.684 27.8677 267.854C28.0846 268.103 28.3855 268.266 28.7146 268.312C28.7909 268.325 28.8681 268.331 28.9455 268.33H82.6942C83.3493 268.33 83.8865 267.93 83.9815 267.412C83.9883 267.377 83.9927 267.342 83.9946 267.306V264.391C83.9928 264.356 83.9884 264.32 83.9815 264.286C83.8865 263.767 83.3428 263.367 82.6942 263.367H28.9455C28.8682 263.368 28.7911 263.373 28.7146 263.383C28.634 263.395 28.5545 263.413 28.477 263.438C28.2384 263.513 28.0267 263.654 27.8677 263.845C27.7246 264.014 27.6453 264.227 27.6434 264.448Z" fill="#FFCF50"/>
<path d="M54.0457 268.33H82.8397C83.0885 268.335 83.332 268.259 83.5335 268.115C83.735 267.97 83.8836 267.765 83.9568 267.53C83.9704 267.491 83.9808 267.452 83.9879 267.412C83.9947 267.377 83.999 267.342 84.001 267.306V264.391C83.9991 264.355 83.9948 264.32 83.9879 264.286C83.9808 264.246 83.9704 264.207 83.9568 264.169C83.8853 263.932 83.7375 263.725 83.5359 263.578C83.3342 263.432 83.0897 263.355 82.8397 263.359H57.5803C57.0446 265.382 55.7898 267.147 54.0457 268.33Z" fill="#FFAB01"/>
<path d="M33.3922 259.486V262.288C33.393 262.508 33.4712 262.721 33.6133 262.891C33.7725 263.082 33.9849 263.223 34.2242 263.296C34.3023 263.321 34.3823 263.34 34.4633 263.353L34.5763 263.364C34.614 263.364 34.6534 263.364 34.691 263.364H88.4414C89.0965 263.364 89.6338 262.962 89.7288 262.444C89.735 262.41 89.7388 262.375 89.7402 262.34C89.7402 262.321 89.7402 262.301 89.7402 262.283V259.481C89.7402 259.462 89.7402 259.444 89.7402 259.426C89.7389 259.391 89.7351 259.356 89.7288 259.321C89.6338 258.801 89.09 258.401 88.4414 258.401H34.691H34.5878H34.5518H34.5026H34.4699C34.3887 258.412 34.3087 258.431 34.2308 258.456L34.1964 258.467L34.1636 258.479L34.139 258.49L34.0981 258.506L34.0621 258.522H34.0506L34.0277 258.534C34.0064 258.543 33.9883 258.555 33.9671 258.566C33.9134 258.597 33.8619 258.632 33.8131 258.67C33.791 258.685 33.7702 258.703 33.7509 258.722C33.7039 258.763 33.6601 258.808 33.6198 258.856C33.4691 259.032 33.3882 259.256 33.3922 259.486Z" fill="#FFCF50"/>
<path d="M59.7782 263.369H88.5721C88.8214 263.374 89.0654 263.298 89.2673 263.153C89.4692 263.009 89.6178 262.803 89.6908 262.567C89.7037 262.528 89.7141 262.489 89.7219 262.449C89.7282 262.415 89.732 262.38 89.7334 262.345C89.7334 262.326 89.7334 262.306 89.7334 262.289V259.486C89.7334 259.467 89.7334 259.449 89.7334 259.431C89.7321 259.396 89.7283 259.361 89.7219 259.326C89.7141 259.287 89.7037 259.248 89.6908 259.209C89.6193 258.972 89.4713 258.765 89.2693 258.618C89.0673 258.472 88.8224 258.395 88.5721 258.4H63.316C63.3029 258.44 63.293 258.482 63.2799 258.523C63.0223 259.414 62.6279 260.262 62.1105 261.035C61.4942 261.956 60.7019 262.749 59.7782 263.369Z" fill="#FFAB01"/>
<path d="M30.6143 254.646V257.444C30.6151 257.664 30.6933 257.877 30.8355 258.046C31.0544 258.295 31.3558 258.458 31.6855 258.506C31.7614 258.518 31.838 258.524 31.9148 258.524H85.6569C85.8633 258.525 86.0675 258.483 86.2564 258.401C86.4374 258.331 86.5967 258.215 86.7186 258.065C86.8404 257.916 86.9205 257.737 86.9509 257.547C86.9526 257.531 86.9526 257.515 86.9509 257.499C86.9509 257.481 86.9509 257.461 86.9509 257.444V254.641C86.9509 254.624 86.9509 254.604 86.9509 254.585C86.9495 254.55 86.9456 254.515 86.9394 254.481C86.8444 253.963 86.3006 253.561 85.652 253.561H31.9034C31.8266 253.561 31.75 253.567 31.674 253.577C31.593 253.59 31.5131 253.609 31.4349 253.634C31.1963 253.708 30.9844 253.849 30.824 254.039C30.6849 254.211 30.6108 254.426 30.6143 254.646Z" fill="#FFCF50"/>
<path d="M57.0069 258.529H85.8042C85.9894 258.529 86.1722 258.487 86.3381 258.406C86.5062 258.327 86.6513 258.208 86.7596 258.058C86.868 257.909 86.936 257.735 86.9572 257.552C86.9589 257.536 86.9589 257.52 86.9572 257.504C86.9572 257.486 86.9572 257.466 86.9572 257.448V254.646C86.9572 254.628 86.9572 254.609 86.9572 254.59C86.9558 254.555 86.952 254.52 86.9458 254.486C86.9379 254.446 86.9275 254.406 86.9147 254.368C86.8433 254.131 86.6958 253.924 86.4944 253.778C86.2931 253.631 86.049 253.554 85.7992 253.558H60.5381C60.3539 254.233 60.0923 254.885 59.7585 255.501C59.1354 256.652 58.2533 257.645 57.1805 258.404L57.0069 258.529Z" fill="#FFAB01"/>
<path d="M29.3269 249.685V252.487C29.3278 252.707 29.4066 252.92 29.5496 253.088C29.5876 253.135 29.6293 253.178 29.6741 253.218C29.8155 253.344 29.9832 253.439 30.1654 253.495C30.2436 253.519 30.3236 253.537 30.4046 253.55L30.5176 253.563H30.6339H84.376C85.0311 253.563 85.5684 253.163 85.6633 252.644C85.6697 252.61 85.6735 252.574 85.6748 252.539C85.6748 252.52 85.6748 252.5 85.6748 252.484V249.682C85.6748 249.662 85.6748 249.643 85.6748 249.625C85.6732 249.593 85.67 249.56 85.665 249.528C85.5815 249.042 85.113 248.668 84.5299 248.608C84.4792 248.608 84.4284 248.608 84.376 248.608H30.6241C30.4651 248.609 30.3072 248.633 30.1556 248.681C29.9171 248.754 29.7054 248.894 29.5463 249.084C29.4047 249.253 29.3271 249.466 29.3269 249.685Z" fill="#FFCF50"/>
<path d="M33.2774 244.728V247.531C33.2801 247.751 33.3587 247.964 33.5001 248.135C33.6607 248.324 33.8727 248.464 34.1111 248.538C34.1883 248.564 34.2678 248.582 34.3486 248.593L34.4239 248.604H34.4354H34.5091H88.3281C88.9833 248.604 89.5205 248.204 89.6155 247.686C89.6217 247.651 89.6256 247.616 89.627 247.581V244.665C89.6261 244.65 89.6261 244.635 89.627 244.62C89.5745 244.161 89.1749 243.786 88.6442 243.675C88.6319 243.672 88.6193 243.668 88.6066 243.666C88.5135 243.65 88.4193 243.642 88.3248 243.641H34.5762H34.4599C34.443 243.64 34.4261 243.64 34.4092 243.641H34.3469C34.2663 243.653 34.1869 243.672 34.1094 243.697C33.8707 243.772 33.6587 243.913 33.4985 244.103C33.352 244.279 33.2736 244.501 33.2774 244.728Z" fill="#FFCF50"/>
<path d="M59.6718 248.611H88.4673C88.7161 248.615 88.9596 248.54 89.1611 248.395C89.3626 248.251 89.5112 248.046 89.5844 247.811C89.5972 247.772 89.6076 247.732 89.6155 247.692C89.6217 247.658 89.6256 247.622 89.627 247.587V244.672C89.6261 244.657 89.6261 244.641 89.627 244.626C89.5974 244.394 89.4941 244.176 89.332 244.005C89.1699 243.834 88.9573 243.718 88.7245 243.674L88.6754 243.664C88.6077 243.653 88.5392 243.648 88.4706 243.648H63.2112L63.2014 243.684C62.6595 245.685 61.4131 247.429 59.6865 248.603L59.6718 248.611Z" fill="#FFA412"/>
<path d="M33.3923 239.803V242.605C33.3937 242.825 33.4718 243.038 33.6134 243.208C33.7738 243.398 33.9858 243.538 34.2243 243.613C34.2833 243.631 34.3472 243.647 34.4111 243.66H34.4618C34.5372 243.671 34.6133 243.677 34.6895 243.678H88.4414C88.4962 243.678 88.551 243.674 88.6052 243.666C88.6259 243.668 88.6467 243.668 88.6675 243.666C89.2145 243.584 89.6502 243.214 89.7255 242.753C89.7304 242.722 89.7337 242.691 89.7354 242.66C89.7354 242.641 89.7354 242.625 89.7354 242.605V239.803C89.7354 239.784 89.7354 239.766 89.7354 239.746C89.734 239.712 89.7302 239.677 89.7239 239.643C89.6289 239.123 89.0851 238.723 88.4365 238.723H34.6862H34.583H34.5404H34.4913H34.4585C34.3774 238.734 34.2974 238.753 34.2194 238.778L34.185 238.787C34.1747 238.793 34.1637 238.797 34.1523 238.8L34.1277 238.81L34.0867 238.826L34.0573 238.841C33.9676 238.882 33.883 238.933 33.805 238.993L33.7428 239.045C33.7232 239.063 33.7035 239.081 33.6855 239.1L33.6609 239.126C33.6429 239.142 33.6282 239.162 33.6118 239.179C33.4659 239.355 33.3881 239.576 33.3923 239.803Z" fill="#FFCF50"/>
<path d="M59.7784 243.685H88.6478H88.7215C88.9687 243.662 89.2013 243.559 89.3836 243.392C89.5659 243.226 89.6877 243.004 89.7304 242.762C89.7353 242.732 89.7386 242.701 89.7402 242.67C89.7402 242.65 89.7402 242.634 89.7402 242.615V239.813C89.7402 239.793 89.7402 239.775 89.7402 239.756C89.7389 239.721 89.7351 239.686 89.7288 239.652C89.7209 239.612 89.7105 239.573 89.6976 239.534C89.6247 239.298 89.476 239.092 89.2741 238.948C89.0723 238.803 88.8282 238.727 88.579 238.732H63.3228C63.3097 238.771 63.2999 238.813 63.2868 238.854C62.7378 240.804 61.5172 242.504 59.8358 243.66L59.7784 243.685Z" fill="#FFA412"/>
<path d="M30.6143 234.963V237.765C30.6154 237.985 30.6935 238.198 30.8354 238.368C30.9958 238.558 31.2078 238.698 31.4464 238.773C31.5242 238.798 31.6042 238.816 31.6855 238.826C31.7228 238.833 31.7605 238.838 31.7985 238.841H31.9148H85.6569C85.863 238.841 86.0671 238.8 86.2564 238.719C86.4375 238.649 86.5969 238.533 86.7187 238.383C86.8405 238.233 86.9205 238.054 86.9508 237.864C86.9526 237.848 86.9526 237.832 86.9508 237.815C86.9508 237.799 86.9508 237.78 86.9508 237.762V234.96C86.9508 234.94 86.9508 234.921 86.9508 234.905C86.9495 234.869 86.9457 234.834 86.9393 234.799C86.8443 234.279 86.3006 233.879 85.652 233.879H31.9033C31.7444 233.88 31.5864 233.905 31.4349 233.952C31.1972 234.028 30.9856 234.167 30.824 234.356C30.6852 234.528 30.6111 234.743 30.6143 234.963Z" fill="#FFCF50"/>
<path d="M57.0068 238.844H85.8041C85.9891 238.844 86.1718 238.803 86.3381 238.723C86.5062 238.644 86.6512 238.524 86.7596 238.374C86.8679 238.225 86.9359 238.05 86.9572 237.867C86.9589 237.851 86.9589 237.835 86.9572 237.819C86.9572 237.803 86.9572 237.783 86.9572 237.765V234.963C86.9572 234.944 86.9572 234.924 86.9572 234.908C86.9559 234.873 86.952 234.838 86.9457 234.803C86.9379 234.763 86.9275 234.723 86.9146 234.685C86.8433 234.448 86.6957 234.241 86.4944 234.094C86.293 233.948 86.0489 233.871 85.7992 233.875H60.538C60.0194 235.824 58.8326 237.534 57.1804 238.714L57.0068 238.844Z" fill="#FFAB01"/>
<path d="M26.2216 230V232.802C26.2233 233.023 26.3019 233.236 26.4443 233.405C26.464 233.428 26.482 233.45 26.5033 233.471C26.6549 233.628 26.8442 233.745 27.0536 233.81C27.1311 233.835 27.2105 233.853 27.2911 233.865C27.3675 233.877 27.4447 233.883 27.522 233.883H81.2708C81.926 233.883 82.4632 233.483 82.5582 232.963C82.5659 232.929 82.5703 232.894 82.5713 232.859C82.5713 232.84 82.5713 232.822 82.5713 232.802V230C82.5713 229.981 82.5713 229.965 82.5713 229.945C82.5369 229.419 82.0472 228.989 81.4248 228.926C81.374 228.926 81.3216 228.926 81.261 228.926H27.5122C27.4349 228.926 27.3576 228.932 27.2813 228.944C27.2006 228.955 27.121 228.974 27.0438 228.999C26.8344 229.064 26.6451 229.181 26.4935 229.338C26.4722 229.359 26.4541 229.381 26.4345 229.403C26.2973 229.572 26.2223 229.783 26.2216 230Z" fill="#FFCF50"/>
<path d="M52.6161 233.883H81.4117C81.6614 233.887 81.9055 233.809 82.1068 233.663C82.3082 233.517 82.4557 233.31 82.5271 233.073C82.5407 233.035 82.5511 232.995 82.5582 232.955C82.5659 232.921 82.5703 232.886 82.5713 232.851C82.5713 232.832 82.5713 232.814 82.5713 232.794V229.992C82.5713 229.973 82.5713 229.957 82.5713 229.937C82.5678 229.888 82.5601 229.839 82.5484 229.791C82.4946 229.561 82.3695 229.353 82.1903 229.196C82.0112 229.04 81.787 228.943 81.5493 228.918C81.5034 228.916 81.4575 228.916 81.4117 228.918H56.1507C55.6139 230.939 54.3592 232.702 52.6161 233.883Z" fill="#FFAB01"/>
<path d="M33.2774 225.048V227.85C33.2798 228.07 33.3585 228.282 33.5001 228.451C33.6597 228.642 33.872 228.783 34.111 228.856C34.1887 228.881 34.268 228.9 34.3485 228.913L34.4239 228.921H34.4615H88.3281C88.9833 228.921 89.5205 228.521 89.6155 228.002C89.6218 227.968 89.6257 227.933 89.627 227.899V224.983C89.6256 224.948 89.6217 224.913 89.6155 224.878C89.5205 224.36 88.9767 223.959 88.3281 223.959H34.5008H34.4419L34.3485 223.969C34.2679 223.981 34.1884 224 34.111 224.026L34.0193 224.058L33.9997 224.068C33.8083 224.146 33.6395 224.271 33.5083 224.429C33.3599 224.602 33.2781 224.821 33.2774 225.048Z" fill="#FFCF50"/>
<path d="M59.6719 228.926H88.4675C88.7168 228.931 88.9611 228.856 89.1632 228.711C89.3654 228.567 89.5145 228.361 89.5878 228.126C89.6007 228.087 89.611 228.047 89.6189 228.007C89.6252 227.973 89.6291 227.939 89.6304 227.904V224.988C89.629 224.953 89.6251 224.918 89.6189 224.883C89.611 224.843 89.6007 224.803 89.5878 224.765C89.5146 224.53 89.366 224.324 89.1645 224.18C88.963 224.036 88.7195 223.96 88.4708 223.965H63.2114L63.1786 224.08C62.6264 226.048 61.3899 227.761 59.6866 228.918L59.6719 228.926Z" fill="#FFAB01"/>
<path d="M29.327 220.197V223.001C29.328 223.221 29.4068 223.434 29.5497 223.602C29.7087 223.793 29.9204 223.934 30.159 224.007C30.2372 224.032 30.3171 224.051 30.3982 224.064C30.4741 224.075 30.5507 224.081 30.6275 224.082H84.3762C84.5758 224.082 84.7735 224.043 84.9576 223.967C85.1317 223.9 85.2868 223.793 85.4096 223.654C85.5323 223.515 85.6189 223.349 85.6619 223.17C85.6669 223.147 85.6702 223.123 85.6718 223.1C85.6726 223.085 85.6726 223.071 85.6718 223.056C85.6718 223.037 85.6718 223.017 85.6718 223.001V220.197C85.6718 220.179 85.6718 220.162 85.6718 220.142C85.6702 220.11 85.6669 220.077 85.6619 220.045C85.5784 219.559 85.11 219.183 84.5269 219.125C84.4761 219.125 84.4253 219.125 84.3729 219.125H30.6242C30.5767 219.125 30.5276 219.125 30.4784 219.125L30.3949 219.135C30.3137 219.147 30.2337 219.166 30.1557 219.191C29.9176 219.265 29.706 219.405 29.5464 219.595C29.4044 219.764 29.3268 219.977 29.327 220.197Z" fill="#FFB93E"/>
<path d="M27.6431 215.244V218.047C27.6457 218.267 27.7249 218.48 27.8675 218.649C27.9045 218.695 27.9456 218.738 27.9903 218.777C28.132 218.904 28.2996 218.998 28.4817 219.054C28.559 219.079 28.6385 219.097 28.7192 219.108C28.7441 219.113 28.7692 219.117 28.7946 219.119H28.8273C28.8666 219.119 28.9076 219.119 28.9501 219.119H82.694C82.7415 219.121 82.789 219.121 82.8365 219.119C83.4228 219.064 83.8929 218.687 83.983 218.205C83.9899 218.171 83.9942 218.136 83.9961 218.1V215.185C83.9942 215.149 83.9899 215.114 83.983 215.079C83.888 214.559 83.3442 214.159 82.6956 214.159H28.9469C28.8695 214.159 28.7923 214.165 28.7159 214.177C28.3869 214.223 28.0859 214.386 27.8691 214.635C27.7244 214.806 27.6445 215.022 27.6431 215.244Z" fill="#FFCF50"/>
<path d="M54.0457 219.125H82.8397C82.8817 219.127 82.9238 219.127 82.9658 219.125C83.2139 219.104 83.4484 219.004 83.633 218.839C83.8177 218.674 83.9424 218.453 83.9879 218.211C83.9948 218.176 83.9991 218.141 84.001 218.106V215.19C83.9963 215.114 83.9814 215.039 83.9568 214.967C83.8853 214.73 83.7375 214.522 83.5359 214.376C83.3342 214.23 83.0897 214.153 82.8397 214.157H57.5803C57.0434 216.173 55.7927 217.931 54.0555 219.112L54.0457 219.125Z" fill="#FFAB01"/>
<path d="M89.7858 268.493C74.9788 268.493 62.9754 256.622 62.9754 241.979C62.9754 227.336 74.9788 215.465 89.7858 215.465C104.593 215.465 116.596 227.336 116.596 241.979C116.596 256.622 104.593 268.493 89.7858 268.493Z" fill="#E2810E"/>
<path opacity="0.5" d="M58.3486 246.131C58.3486 246.964 58.3803 247.788 58.4436 248.604C58.4884 249.162 58.5462 249.714 58.6172 250.263C58.7611 251.372 58.9656 252.472 59.2298 253.559C59.3854 254.207 59.5574 254.855 59.7637 255.503C60.0709 256.488 60.4285 257.457 60.8349 258.406C60.8513 258.446 60.8693 258.488 60.889 258.529C61.2591 259.389 61.6702 260.229 62.1174 261.041C62.5645 261.852 63.0313 262.619 63.5374 263.368C63.5685 263.417 63.6029 263.464 63.6357 263.513C63.8322 263.804 64.037 264.089 64.2466 264.371C65.2969 265.798 66.4809 267.123 67.7828 268.33H82.8333C83.0821 268.334 83.3256 268.259 83.5271 268.114C83.7286 267.97 83.8771 267.765 83.9503 267.53C83.9639 267.491 83.9744 267.452 83.9814 267.411C83.9882 267.377 83.9926 267.341 83.9945 267.306V264.391C83.9927 264.355 83.9883 264.32 83.9814 264.285C83.9744 264.246 83.9639 264.207 83.9503 264.169C83.8789 263.932 83.7311 263.724 83.5294 263.578C83.3278 263.432 83.0833 263.355 82.8333 263.359H88.579C88.8282 263.364 89.0723 263.288 89.2741 263.143C89.476 262.999 89.6247 262.793 89.6976 262.557C89.7105 262.518 89.7209 262.479 89.7288 262.439C89.735 262.404 89.7388 262.37 89.7402 262.335C89.7402 262.316 89.7402 262.296 89.7402 262.278V259.476C89.7402 259.457 89.7402 259.439 89.7402 259.421C89.7389 259.386 89.7351 259.351 89.7288 259.316C89.7209 259.276 89.7105 259.237 89.6976 259.199C89.6262 258.962 89.4781 258.754 89.2761 258.608C89.0741 258.462 88.8293 258.385 88.579 258.389H86.3384C86.5065 258.311 86.6515 258.191 86.7599 258.042C86.8682 257.893 86.9362 257.718 86.9575 257.536C86.9592 257.52 86.9592 257.503 86.9575 257.487C86.9575 257.469 86.9575 257.45 86.9575 257.432V254.63C86.9575 254.612 86.9575 254.593 86.9575 254.573C86.9561 254.538 86.9522 254.504 86.946 254.47C86.9381 254.429 86.9278 254.39 86.9149 254.351C86.8436 254.115 86.696 253.907 86.4947 253.761C86.2933 253.615 86.0492 253.538 85.7995 253.541H84.5105C84.7602 253.545 85.0043 253.468 85.2057 253.322C85.407 253.175 85.5545 252.968 85.6259 252.732C85.6385 252.693 85.6489 252.654 85.657 252.615C85.6633 252.58 85.6671 252.545 85.6684 252.51C85.6684 252.49 85.6684 252.471 85.6684 252.455V249.652C85.6684 249.633 85.6684 249.613 85.6684 249.596C85.6669 249.563 85.6636 249.531 85.6586 249.498C85.6131 249.258 85.4899 249.038 85.3074 248.872C85.125 248.706 84.893 248.603 84.6464 248.578H88.461C88.7098 248.583 88.9533 248.507 89.1548 248.363C89.3563 248.219 89.5049 248.013 89.5781 247.778C89.5909 247.74 89.6013 247.7 89.6092 247.66C89.6154 247.625 89.6193 247.59 89.6207 247.555V244.639C89.6198 244.624 89.6198 244.609 89.6207 244.594C89.4946 244.589 89.3708 244.559 89.2564 244.507C89.142 244.454 89.0394 244.379 88.9545 244.287C88.8697 244.195 88.8042 244.087 88.762 243.969C88.7199 243.852 88.7018 243.727 88.7088 243.602C88.7159 243.478 88.748 243.356 88.8032 243.244C88.8584 243.132 88.9357 243.031 89.0305 242.949C89.1253 242.867 89.2357 242.804 89.3553 242.764C89.4749 242.725 89.6013 242.709 89.7271 242.718C89.732 242.688 89.7353 242.657 89.737 242.626C89.737 242.606 89.737 242.59 89.737 242.571V239.769C89.737 239.749 89.737 239.731 89.737 239.712C89.7357 239.677 89.7318 239.642 89.7255 239.608C89.7176 239.568 89.7072 239.529 89.6944 239.49C89.6214 239.254 89.4727 239.048 89.2709 238.904C89.069 238.759 88.8249 238.683 88.5757 238.688H86.3351C86.5032 238.609 86.6483 238.489 86.7566 238.34C86.8649 238.19 86.9329 238.016 86.9542 237.833C86.956 237.817 86.956 237.8 86.9542 237.784C86.9542 237.768 86.9542 237.749 86.9542 237.731V234.929C86.9542 234.909 86.9542 234.89 86.9542 234.874C86.9529 234.838 86.9491 234.803 86.9427 234.768C86.9349 234.728 86.9245 234.689 86.9116 234.65C86.8403 234.413 86.6927 234.206 86.4914 234.06C86.2901 233.914 86.046 233.837 85.7962 233.84H81.4034C81.6532 233.844 81.8973 233.767 82.0986 233.62C82.2999 233.474 82.4475 233.267 82.5188 233.03C82.5324 232.992 82.5428 232.952 82.5499 232.912C82.5576 232.878 82.562 232.843 82.563 232.808C82.563 232.789 82.563 232.771 82.563 232.752V229.95C82.563 229.93 82.563 229.914 82.563 229.895C82.5595 229.845 82.5519 229.797 82.5401 229.749C82.4864 229.518 82.3612 229.31 82.1821 229.154C82.0029 228.997 81.7788 228.9 81.541 228.876H88.4594C88.7038 228.886 88.9451 228.819 89.1482 228.684C89.3512 228.549 89.5053 228.353 89.5879 228.126C89.6008 228.087 89.6112 228.047 89.619 228.007C89.6253 227.973 89.6292 227.939 89.6305 227.904V224.988C89.6291 224.953 89.6253 224.918 89.619 224.883C89.6112 224.843 89.6008 224.803 89.5879 224.765C89.5147 224.53 89.3662 224.324 89.1647 224.18C88.9632 224.036 88.7196 223.96 88.4709 223.965H85.0313C85.1933 223.892 85.335 223.781 85.4445 223.642C85.554 223.504 85.628 223.341 85.6603 223.168C85.6652 223.145 85.6685 223.121 85.6701 223.098C85.6709 223.083 85.6709 223.069 85.6701 223.054C85.6701 223.035 85.6701 223.015 85.6701 222.999V220.195C85.6701 220.178 85.6701 220.16 85.6701 220.14C85.6685 220.108 85.6652 220.075 85.6603 220.043C85.6148 219.802 85.4915 219.582 85.3091 219.416C85.1266 219.251 84.8947 219.148 84.6481 219.123C84.6028 219.121 84.5574 219.121 84.5121 219.123H82.9545C83.2026 219.103 83.437 219.002 83.6217 218.837C83.8064 218.672 83.931 218.452 83.9765 218.21C83.9834 218.175 83.9878 218.14 83.9896 218.104V217.014C80.907 217.156 77.8788 217.871 75.0632 219.12H75.0484C72.3565 220.319 69.8867 221.955 67.7419 223.961L67.6157 224.076C66.5719 225.06 65.605 226.121 64.7232 227.249C64.5136 227.517 64.3121 227.786 64.1123 228.059C63.9125 228.333 63.7078 228.626 63.5129 228.915C63.277 229.266 63.0461 229.626 62.8233 229.99C62.6006 230.355 62.4089 230.68 62.2124 231.036C61.6987 231.956 61.2351 232.902 60.8234 233.871C60.1547 235.438 59.6189 237.056 59.2216 238.711C59.2118 238.75 59.2036 238.792 59.1921 238.832C59.1495 239.007 59.1119 239.184 59.0726 239.36C58.7791 240.702 58.5745 242.061 58.46 243.429C58.46 243.499 58.4485 243.569 58.4436 243.638C58.4436 243.651 58.4436 243.661 58.4436 243.674C58.3803 244.488 58.3486 245.307 58.3486 246.131Z" fill="#E2810E"/>
<path d="M92.125 268.493C77.318 268.493 65.3145 256.622 65.3145 241.979C65.3145 227.336 77.318 215.465 92.125 215.465C106.932 215.465 118.936 227.336 118.936 241.979C118.936 256.622 106.932 268.493 92.125 268.493Z" fill="#FFCF50"/>
<path d="M92.1247 266.448C97.7763 266.447 103.253 264.508 107.621 260.961C111.989 257.415 114.978 252.48 116.08 246.998C117.182 241.516 116.327 235.826 113.663 230.898C110.998 225.969 106.687 222.106 101.466 219.968C96.2439 217.83 90.4341 217.548 85.026 219.171C79.6179 220.794 74.9461 224.222 71.8067 228.869C68.6672 233.516 67.2543 239.097 67.8086 244.659C68.3629 250.221 70.8502 255.421 74.8467 259.373C77.1102 261.624 79.8029 263.408 82.7688 264.623C85.7346 265.837 88.9147 266.457 92.1247 266.448ZM92.1247 219.575C104.79 219.575 115.094 229.765 115.094 242.291C115.094 254.816 104.79 265.008 92.1247 265.008C79.459 265.008 69.1534 254.816 69.1534 242.291C69.1534 229.765 79.459 219.575 92.1247 219.575Z" fill="#FFAB01"/>
<path d="M41.5112 185.569C41.5112 185.569 44.3594 189.534 46.9702 189.589C49.5809 189.644 53.5544 187.75 53.5544 187.75C53.5544 187.75 55.9506 182.467 54.3242 180.4C54.3242 180.4 52.6945 179.692 50.9895 180.941C50.6623 181.184 50.3658 181.465 50.1067 181.778C49.7534 182.214 49.2757 182.534 48.7358 182.697C46.8719 183.257 44.6608 181.939 43.8336 183.212C43.4284 183.832 42.9446 184.399 42.394 184.898C42.1195 185.146 41.8241 185.37 41.5112 185.569Z" fill="#EEEEEE"/>
<path d="M78.6138 214.158C78.6138 214.158 68.5457 190.036 50.4259 189.576C50.4259 189.576 33.7015 191.415 32.7712 214.158H78.6138Z" fill="#EEEEEE"/>
<path d="M55.4182 190.326C55.4182 190.326 48.1559 191.923 45.9185 190.983C45.9185 190.983 45.5795 187.98 48.6374 188.401C50.7323 188.69 52.095 187.695 52.8959 187.292C54.0293 186.72 55.7196 189.069 55.4182 190.326Z" fill="#0C6D6A"/>
<path d="M49.098 185.798C49.5632 186.143 50.9897 180.939 50.9897 180.939C50.6625 181.182 50.3661 181.463 50.1069 181.776C49.7537 182.212 49.276 182.532 48.7361 182.695C48.7311 182.849 48.6411 185.463 49.098 185.798Z" fill="#AABDC6"/>
<path d="M42.3937 184.898C42.4953 184.958 45.8545 186.947 46.3099 186.947C46.7652 186.947 43.8334 183.211 43.8334 183.211C43.4282 183.832 42.9444 184.399 42.3937 184.898Z" fill="#AABDC6"/>
<path d="M68.8065 207.432C68.9933 207.27 61.6834 196.787 59.6688 196.711C57.6542 196.635 53.132 199.008 49.8579 199.314C46.5838 199.62 43.4079 198.701 42.7888 200.61C42.1697 202.518 40.4663 209.311 41.5113 210.398C42.5562 211.485 64.7872 210.827 68.8065 207.432Z" fill="#0C6D6A"/>
<path d="M140.169 152.116C140.169 152.116 142.421 155.251 144.486 155.295C146.552 155.339 149.691 153.837 149.691 153.837C149.691 153.837 151.587 149.66 150.301 148.026C149.861 147.87 149.388 147.828 148.926 147.903C148.465 147.977 148.031 148.167 147.664 148.453C147.405 148.646 147.171 148.868 146.966 149.116C146.687 149.46 146.309 149.713 145.882 149.841C144.408 150.285 142.66 149.242 142.007 150.248C141.684 150.74 141.299 151.189 140.86 151.583C140.645 151.779 140.414 151.958 140.169 152.116Z" fill="#FFEDDC"/>
<path d="M169.528 174.732C169.528 174.732 161.569 155.658 147.241 155.295C147.241 155.295 134.015 156.753 133.282 174.732H169.528Z" fill="#F3F8FD"/>
<path d="M151.172 155.885C151.172 155.885 145.43 157.148 143.658 156.406C143.658 156.406 143.391 154.032 145.808 154.364C147.464 154.592 148.542 153.805 149.177 153.486C150.066 153.026 151.405 154.884 151.172 155.885Z" fill="#DB6A1D"/>
<path d="M146.169 152.297C146.536 152.569 147.664 148.456 147.664 148.456C147.406 148.649 147.171 148.871 146.966 149.119C146.687 149.463 146.309 149.716 145.882 149.844C145.879 149.964 145.812 152.031 146.169 152.297Z" fill="#E5C1A1"/>
<path d="M140.867 151.586C140.949 151.633 143.604 153.206 143.964 153.206C144.324 153.206 141.999 150.251 141.999 150.251C141.681 150.743 141.3 151.191 140.867 151.586Z" fill="#E5C1A1"/>
<path d="M161.753 169.403C161.9 169.279 156.12 160.981 154.528 160.926C152.936 160.87 149.359 162.743 146.769 162.984C144.18 163.226 141.669 162.498 141.179 164.014C140.689 165.53 139.343 170.895 140.169 171.754C140.994 172.612 158.573 172.082 161.753 169.403Z" fill="#137F7F"/>
<path d="M192.15 153.387C192.15 153.387 192.597 151.207 187.524 144.499C186.43 143.053 183.092 137.604 183.092 137.604C181.772 137.28 177.664 139.446 176.58 140.105L176.236 140.317C176.236 140.317 174.479 147.856 178.215 147C178.331 146.973 178.447 146.952 178.563 146.932C182.177 146.377 185.664 149.921 187.244 152.172C188.279 153.635 191.463 153.455 192.15 153.387Z" fill="#233862"/>
<path d="M165.374 138.738C165.374 138.738 165.821 136.56 160.747 129.852C159.653 128.404 156.315 122.955 156.315 122.955C154.996 122.631 150.887 124.798 149.804 125.456C149.586 125.589 149.46 125.67 149.46 125.67C149.46 125.67 147.703 133.207 151.437 132.351C151.555 132.324 151.671 132.303 151.788 132.285C155.391 131.728 158.886 135.273 160.468 137.523C161.503 138.986 164.687 138.798 165.374 138.738Z" fill="#233862"/>
<path d="M108.222 101.426C109.26 97.0174 120.799 83.2689 126.71 86.4533C132.621 89.6378 129.552 106.93 123.394 127.325C123.299 127.637 123.204 127.945 123.105 128.253C135.524 126.236 150.304 125.626 150.304 125.626L151.86 132.722C140.67 135.78 118.939 146.407 109.814 150.983C106.328 152.546 102.234 152.546 101.4 149.514C98.6092 139.363 108.222 101.426 108.222 101.426Z" fill="#137F7F"/>
<path d="M130.256 164.955C130.256 164.955 156.67 153.168 172.776 148.405C174.772 147.817 176.605 147.337 178.213 146.997L176.52 140.167C176.52 140.167 174.941 140.139 172.381 140.142C162.352 140.17 137.242 140.725 132.754 145.593C127.125 151.709 130.256 164.955 130.256 164.955Z" fill="#FFB27D"/>
<path d="M110.297 3.38596C109.429 5.36207 108.736 7.95207 109.324 9.31752C109.989 10.866 109.806 11.9869 109.806 11.9869L111.226 12.3303L112.923 12.7385C112.923 12.7385 113.013 12.5959 113.149 12.3497C113.285 12.1035 113.465 11.7585 113.64 11.3552C113.676 11.1242 113.767 10.9051 113.907 10.7167C114.047 10.5283 114.231 10.3761 114.443 10.2732C115.165 9.93627 115.917 9.07294 116.062 8.23876C116.208 7.40459 117.066 5.84962 116.821 5.68602C116.226 5.28918 115.335 7.71072 114.811 7.81763C114.336 7.91643 114.185 7.58438 114.156 7.51959V7.50663C113.337 5.52729 114.854 0.541664 113.648 0.256586C113.203 0.154542 110.666 2.54531 110.297 3.38596Z" fill="#E9D6B8"/>
<path d="M201.701 43.2528C200.227 44.8353 198.109 46.5102 196.608 46.5312C194.907 46.5539 193.944 47.1791 193.944 47.1791L193.053 46.034L191.99 44.6636C191.99 44.6636 192.086 44.5243 192.258 44.3024C192.43 44.0805 193.632 43.0795 193.654 42.2891C193.675 41.4986 194.165 40.4636 194.879 40.0003C195.593 39.5371 196.681 38.1279 196.934 38.2834C197.542 38.6592 195.663 40.4458 195.775 40.9625C195.876 41.4306 196.245 41.4338 196.315 41.4306H196.328C198.492 41.3755 202.495 37.9821 203.239 38.9605C203.515 39.3184 202.33 42.579 201.701 43.2528Z" fill="#E9D6B8"/>
<path d="M137.795 104.718C144.311 106.389 142.676 114.137 141.703 135.401C141.592 137.806 141.366 140.131 141.048 142.346C150.597 140.45 165.277 140.165 172.384 140.145C172.384 140.145 173.563 142.737 173.513 144.817C173.404 149.234 171.123 152.154 171.123 152.154C155.018 156.918 130.259 164.95 130.259 164.95V164.931C128.608 165.355 127.054 164.539 125.819 162.2C120.894 152.872 112.467 90.7992 112.467 90.7992C112.385 86.28 131.281 103.048 137.795 104.718Z" fill="#198D8D"/>
<path d="M148.432 57.0662C148.432 57.0662 146.139 51.3241 150.594 43.1362L144.262 44.5276L139.959 45.4719C139.337 46.8234 138.79 48.2077 138.321 49.6185C138.075 50.328 137.175 53.1739 136.899 54.0534C135.388 54.1166 137.568 56.3826 140.667 56.8281C144.129 57.3205 148.432 57.0662 148.432 57.0662Z" fill="#E9D6B8"/>
<path d="M139.959 45.4673C139.336 46.8188 138.79 48.203 138.321 49.6139C142.016 50.7056 148.608 47.1518 148.608 47.1518C147.121 45.8074 145.647 44.9732 144.265 44.5229L139.959 45.4673Z" fill="#DFCAA8"/>
<path d="M137.116 43.3261C137.116 43.3261 144.452 51.3504 149.434 46.7552C154.417 42.1599 158.719 40.1012 154.246 34.7835C149.773 29.4659 146.946 30.2385 144.91 31.3723C142.874 32.5062 135.335 41.12 137.116 43.3261Z" fill="#E9D6B8"/>
<path d="M149.846 46.2579C149.846 46.2579 149.094 45.4335 150.173 44.3628C151.253 43.2921 152.499 41.7453 151.297 41.2707C150.095 40.7961 149.43 41.5266 149.39 40.7637C149.351 40.0008 150.864 38.1041 148.08 35.7036C145.296 33.3031 143.322 33.376 142.447 31.7368C141.573 30.0976 143.117 28.0291 143.117 28.0291C143.117 28.0291 142.922 29.048 143.317 29.7299C143.317 29.7299 143.509 24.937 147.774 24.8949C152.039 24.8528 153.593 28.2964 155.023 29.5631C158.174 32.3588 160.154 34.2345 159.509 37.2342C158.864 40.234 153.629 45.8546 149.846 46.2579Z" fill="#233862"/>
<path d="M141.7 41.6544L138.978 39.1211C138.978 39.1211 137.871 40.8008 138.65 41.5297C139.43 42.2586 141.7 41.6544 141.7 41.6544Z" fill="white"/>
<path d="M105.162 26.4775C106.325 19.3506 109.829 11.5272 109.829 11.5272L113.645 11.3555C113.645 11.3555 113.221 21.0028 113.317 27.7491C113.362 30.9886 114.791 33.922 115.185 34.4403C116.369 36.0082 133.819 52.6172 134.402 53.1453L134.417 53.1598C136.274 53.4725 136.068 56.4885 137.976 56.9954C141.156 57.8377 146.439 56.3022 149.266 57.3372C149.266 57.3372 171.922 57.3631 175.37 55.7304C178.818 54.0977 192.263 44.2949 192.263 44.2949L194.74 47.1651C194.74 47.1651 185.512 64.733 178.197 67.898C174.215 69.6198 165.469 71.6899 158.325 73.2206C156.938 73.5197 155.657 74.1781 154.612 75.1281C153.567 76.0782 152.797 77.2858 152.379 78.6273C145.664 100.062 149.041 118.137 149.041 118.137C149.041 118.137 142.599 118.849 134.58 116.646C124.154 113.783 116.537 109.144 116.537 109.144C113.599 105.621 115.335 92.703 115.335 92.703C115.335 92.703 113.308 94.8687 112.628 98.4888C112.136 101.095 111.874 102.538 111.712 103.453C111.677 103.651 111.592 103.836 111.464 103.992C111.336 104.148 111.17 104.269 110.982 104.343C110.793 104.418 110.589 104.443 110.388 104.418C110.186 104.392 109.995 104.316 109.832 104.197C108.325 103.094 106.175 101.375 105.503 100.115C103.156 95.7093 108.376 77.7624 115.586 65.2481C116.219 64.151 116.541 62.905 116.517 61.6418C116.493 60.3787 116.125 59.1454 115.45 58.0726C111.015 51.0363 104.196 39.8778 104.113 37.6377C104.073 36.4196 104.492 30.5723 105.162 26.4775Z" fill="#79CCCA"/>
<path d="M138.468 58.6133C138.468 58.6133 132.385 67.1494 136.845 75.3972C141.305 83.6451 158.829 82.508 162.068 92.8113L160.103 99.2271L152.775 95.3057C152.775 95.3057 152.162 89.7337 144.956 87.3138C130.88 82.589 127.491 74.4254 130.446 67.1219C132.942 60.949 136.557 57.9751 136.557 57.9751L138.468 58.6133Z" fill="#FFCF50"/>
<path d="M147.865 53.9175L140.811 56.2224L140.464 57.5441L149.261 57.3384C149.261 57.3384 148.794 55.338 147.865 53.9175Z" fill="#FFCF50"/>
<path d="M137.544 52L137.309 55.6072C137.309 55.6072 136.385 56.3539 136.396 56.2551C136.408 56.1563 134.413 53.1614 134.413 53.1614C135.422 52.6895 136.47 52.301 137.544 52Z" fill="#FFCF50"/>
<path d="M140.81 56.2227L137.207 55.0208C137.13 54.995 137.048 54.9865 136.967 54.9959C136.886 55.0054 136.808 55.0326 136.739 55.0756C136.67 55.1186 136.611 55.1762 136.568 55.2444C136.524 55.3125 136.496 55.3894 136.486 55.4695L136.19 57.8603C136.175 57.9843 136.203 58.1097 136.27 58.2155C136.337 58.3213 136.439 58.4012 136.558 58.4418L138.142 58.9715C138.227 58.9997 138.317 59.0071 138.406 58.993C138.494 58.9789 138.577 58.9437 138.648 58.8905L140.958 57.1703C141.038 57.1114 141.1 57.0321 141.138 56.9409C141.176 56.8497 141.187 56.7501 141.172 56.6526C141.157 56.5552 141.115 56.4638 141.052 56.388C140.988 56.3123 140.905 56.2551 140.81 56.2227Z" fill="#F9BB41"/>
<path d="M113.828 10.8516L114.146 13.8465C114.146 13.8465 110.323 13.9048 110.323 13.8465C110.323 13.7882 110.207 12.3612 110.207 12.3612L109.57 14.0182L108.151 13.5598L109.776 10.8516C109.776 10.8516 111.391 11.608 113.828 10.8516Z" fill="#2A425B"/>
<path d="M192.258 44.2964L194.75 47.165L194.017 49.964L193.004 49.2772L193.503 47.1731L191.759 48.5888L189.5 45.6392L192.258 44.2964Z" fill="#2A425B"/>
<path d="M192.8 46.9281C192.8 46.8829 192.787 46.8388 192.761 46.8012C192.736 46.7636 192.7 46.7344 192.658 46.7171C192.616 46.6998 192.569 46.6953 192.524 46.7041C192.479 46.7129 192.438 46.7347 192.406 46.7666C192.374 46.7985 192.352 46.8392 192.343 46.8835C192.334 46.9278 192.339 46.9738 192.356 47.0155C192.373 47.0572 192.403 47.0929 192.441 47.118C192.479 47.1431 192.524 47.1565 192.569 47.1565C192.63 47.1561 192.689 47.1319 192.732 47.0891C192.775 47.0464 192.8 46.9885 192.8 46.9281Z" fill="#EBF3FA"/>
<path d="M111.024 12.7385C111.024 12.7026 111.014 12.6674 110.993 12.6376C110.973 12.6077 110.944 12.5845 110.911 12.5708C110.877 12.5571 110.84 12.5536 110.805 12.5607C110.769 12.5679 110.736 12.5853 110.711 12.6108C110.685 12.6364 110.668 12.6688 110.661 12.7041C110.654 12.7394 110.658 12.776 110.672 12.8091C110.686 12.8422 110.71 12.8704 110.74 12.8902C110.771 12.9099 110.806 12.9203 110.843 12.9199C110.891 12.9195 110.937 12.9002 110.971 12.8662C111.005 12.8323 111.024 12.7864 111.024 12.7385Z" fill="#EBF3FA"/>
<path d="M117.035 82.4723C117.035 82.3762 117.006 82.2822 116.952 82.2023C116.898 82.1224 116.822 82.0601 116.732 82.0233C116.642 81.9865 116.543 81.9769 116.448 81.9957C116.353 82.0144 116.265 82.0607 116.196 82.1287C116.128 82.1966 116.081 82.2832 116.062 82.3775C116.043 82.4717 116.053 82.5694 116.09 82.6582C116.127 82.747 116.19 82.8229 116.271 82.8763C116.352 82.9297 116.447 82.9582 116.544 82.9582C116.674 82.9582 116.799 82.907 116.891 82.8159C116.983 82.7247 117.035 82.6011 117.035 82.4723Z" fill="#EBF3FA"/>
<path d="M120.947 74.4107C120.947 74.3146 120.918 74.2207 120.864 74.1408C120.81 74.0609 120.733 73.9986 120.643 73.9618C120.554 73.925 120.455 73.9154 120.359 73.9341C120.264 73.9529 120.177 73.9992 120.108 74.0671C120.039 74.1351 119.992 74.2217 119.973 74.3159C119.954 74.4102 119.964 74.5079 120.001 74.5967C120.039 74.6855 120.102 74.7614 120.182 74.8148C120.263 74.8682 120.358 74.8967 120.455 74.8967C120.586 74.8967 120.711 74.8455 120.803 74.7543C120.895 74.6632 120.947 74.5396 120.947 74.4107Z" fill="#EBF3FA"/>
<path d="M126.333 68.3209C126.333 68.2248 126.305 68.1308 126.251 68.0509C126.197 67.971 126.12 67.9087 126.03 67.8719C125.94 67.8352 125.842 67.8255 125.746 67.8443C125.651 67.863 125.563 67.9093 125.495 67.9773C125.426 68.0452 125.379 68.1318 125.36 68.2261C125.341 68.3204 125.351 68.418 125.388 68.5068C125.425 68.5956 125.488 68.6715 125.569 68.7249C125.65 68.7783 125.745 68.8068 125.842 68.8068C125.972 68.8068 126.097 68.7556 126.19 68.6645C126.282 68.5734 126.333 68.4498 126.333 68.3209Z" fill="#EBF3FA"/>
</svg>
