<svg width="144" height="286" viewBox="0 0 144 286" fill="none" xmlns="http://www.w3.org/2000/svg">
<path d="M1.48535 229.299V216.502H5.66895C7.05762 216.502 8.10059 216.789 8.79785 217.363C9.50098 217.938 9.85254 218.787 9.85254 219.912C9.85254 220.51 9.68262 221.04 9.34277 221.503C9.00293 221.96 8.54004 222.314 7.9541 222.566C8.64551 222.76 9.19043 223.129 9.58887 223.674C9.99316 224.213 10.1953 224.857 10.1953 225.607C10.1953 226.756 9.82324 227.658 9.0791 228.314C8.33496 228.971 7.2832 229.299 5.92383 229.299H1.48535ZM3.17285 223.313V227.919H5.95898C6.74414 227.919 7.3623 227.717 7.81348 227.312C8.27051 226.902 8.49902 226.34 8.49902 225.625C8.49902 224.084 7.66113 223.313 5.98535 223.313H3.17285ZM3.17285 221.96H5.72168C6.45996 221.96 7.04883 221.775 7.48828 221.406C7.93359 221.037 8.15625 220.536 8.15625 219.903C8.15625 219.2 7.95117 218.69 7.54102 218.374C7.13086 218.052 6.50684 217.891 5.66895 217.891H3.17285V221.96ZM16.2598 228.147C16.8398 228.147 17.3467 227.972 17.7803 227.62C18.2139 227.269 18.4541 226.829 18.501 226.302H20.0391C20.0098 226.847 19.8223 227.365 19.4766 227.857C19.1309 228.35 18.668 228.742 18.0879 229.035C17.5137 229.328 16.9043 229.475 16.2598 229.475C14.9648 229.475 13.9336 229.044 13.166 228.183C12.4043 227.315 12.0234 226.132 12.0234 224.632V224.359C12.0234 223.434 12.1934 222.61 12.5332 221.89C12.873 221.169 13.3594 220.609 13.9922 220.211C14.6309 219.812 15.3838 219.613 16.251 219.613C17.3174 219.613 18.2021 219.933 18.9053 220.571C19.6143 221.21 19.9922 222.039 20.0391 223.059H18.501C18.4541 222.443 18.2197 221.939 17.7979 221.547C17.3818 221.148 16.8662 220.949 16.251 220.949C15.4248 220.949 14.7832 221.248 14.3262 221.846C13.875 222.438 13.6494 223.296 13.6494 224.421V224.729C13.6494 225.824 13.875 226.668 14.3262 227.26C14.7773 227.852 15.4219 228.147 16.2598 228.147ZM25.8135 229.475C24.5244 229.475 23.4756 229.053 22.667 228.209C21.8584 227.359 21.4541 226.226 21.4541 224.808V224.509C21.4541 223.565 21.6328 222.725 21.9902 221.986C22.3535 221.242 22.8574 220.662 23.502 220.246C24.1523 219.824 24.8555 219.613 25.6113 219.613C26.8477 219.613 27.8086 220.021 28.4941 220.835C29.1797 221.649 29.5225 222.815 29.5225 224.333V225.01H23.0801C23.1035 225.947 23.376 226.706 23.8975 227.286C24.4248 227.86 25.0928 228.147 25.9014 228.147C26.4756 228.147 26.9619 228.03 27.3604 227.796C27.7588 227.562 28.1074 227.251 28.4062 226.864L29.3994 227.638C28.6025 228.862 27.4072 229.475 25.8135 229.475ZM25.6113 220.949C24.9551 220.949 24.4043 221.189 23.959 221.67C23.5137 222.145 23.2383 222.812 23.1328 223.674H27.8965V223.551C27.8496 222.725 27.627 222.086 27.2285 221.635C26.8301 221.178 26.291 220.949 25.6113 220.949ZM43.6553 229.299H42.0293V221.134H37.6523V229.299H36.0176V219.789H43.6553V229.299ZM45.835 224.456C45.835 223.524 46.0166 222.687 46.3799 221.942C46.749 221.198 47.2588 220.624 47.9092 220.22C48.5654 219.815 49.3125 219.613 50.1504 219.613C51.4453 219.613 52.4912 220.062 53.2881 220.958C54.0908 221.854 54.4922 223.047 54.4922 224.535V224.649C54.4922 225.575 54.3135 226.407 53.9561 227.146C53.6045 227.878 53.0977 228.449 52.4355 228.859C51.7793 229.27 51.0234 229.475 50.168 229.475C48.8789 229.475 47.833 229.026 47.0303 228.13C46.2334 227.233 45.835 226.047 45.835 224.57V224.456ZM47.4697 224.649C47.4697 225.704 47.7129 226.551 48.1992 227.189C48.6914 227.828 49.3477 228.147 50.168 228.147C50.9941 228.147 51.6504 227.825 52.1367 227.181C52.623 226.53 52.8662 225.622 52.8662 224.456C52.8662 223.413 52.6172 222.569 52.1191 221.925C51.627 221.274 50.9707 220.949 50.1504 220.949C49.3477 220.949 48.7002 221.269 48.208 221.907C47.7158 222.546 47.4697 223.46 47.4697 224.649ZM60.7061 220.334C61.9014 220.334 62.8564 220.735 63.5713 221.538C64.292 222.335 64.6523 223.387 64.6523 224.693V224.843C64.6523 225.739 64.4795 226.542 64.1338 227.251C63.7881 227.954 63.29 228.502 62.6396 228.895C61.9951 229.281 61.251 229.475 60.4072 229.475C59.1299 229.475 58.1016 229.05 57.3223 228.2C56.543 227.345 56.1533 226.199 56.1533 224.764V223.973C56.1533 221.975 56.5225 220.387 57.2607 219.209C58.0049 218.031 59.1006 217.313 60.5479 217.056C61.3682 216.909 61.9219 216.73 62.209 216.52C62.4961 216.309 62.6396 216.019 62.6396 215.649H63.9756C63.9756 216.382 63.8086 216.953 63.4746 217.363C63.1465 217.773 62.6191 218.063 61.8926 218.233L60.6797 218.506C59.7129 218.734 58.9863 219.121 58.5 219.666C58.0195 220.205 57.7061 220.926 57.5596 221.828C58.4209 220.832 59.4697 220.334 60.7061 220.334ZM60.3896 221.67C59.5928 221.67 58.96 221.939 58.4912 222.479C58.0225 223.012 57.7881 223.753 57.7881 224.702V224.843C57.7881 225.862 58.0225 226.671 58.4912 227.269C58.9658 227.86 59.6045 228.156 60.4072 228.156C61.2158 228.156 61.8545 227.857 62.3232 227.26C62.792 226.662 63.0264 225.789 63.0264 224.641C63.0264 223.744 62.7891 223.026 62.3145 222.487C61.8457 221.942 61.2041 221.67 60.3896 221.67ZM70.4268 229.475C69.1377 229.475 68.0889 229.053 67.2803 228.209C66.4717 227.359 66.0674 226.226 66.0674 224.808V224.509C66.0674 223.565 66.2461 222.725 66.6035 221.986C66.9668 221.242 67.4707 220.662 68.1152 220.246C68.7656 219.824 69.4688 219.613 70.2246 219.613C71.4609 219.613 72.4219 220.021 73.1074 220.835C73.793 221.649 74.1357 222.815 74.1357 224.333V225.01H67.6934C67.7168 225.947 67.9893 226.706 68.5107 227.286C69.0381 227.86 69.7061 228.147 70.5146 228.147C71.0889 228.147 71.5752 228.03 71.9736 227.796C72.3721 227.562 72.7207 227.251 73.0195 226.864L74.0127 227.638C73.2158 228.862 72.0205 229.475 70.4268 229.475ZM70.2246 220.949C69.5684 220.949 69.0176 221.189 68.5723 221.67C68.127 222.145 67.8516 222.812 67.7461 223.674H72.5098V223.551C72.4629 222.725 72.2402 222.086 71.8418 221.635C71.4434 221.178 70.9043 220.949 70.2246 220.949ZM75.9463 227.972L76.5088 227.277C77.1416 226.457 77.502 225.227 77.5898 223.586L77.7393 219.789H83.8652V227.972H85.0869V232.094H83.4609V229.299H76.8252V232.094H75.1992L75.208 227.972H75.9463ZM77.8711 227.972H82.2393V221.292H79.3125L79.2158 223.56C79.1162 225.452 78.668 226.923 77.8711 227.972ZM93.041 219.789H94.667V229.299H93.041V222.364L88.6553 229.299H87.0293V219.789H88.6553V226.732L93.041 219.789ZM104.344 221.107H101.153V229.299H99.5273V221.107H96.3984V219.789H104.344V221.107ZM109.169 229.475C107.88 229.475 106.831 229.053 106.022 228.209C105.214 227.359 104.81 226.226 104.81 224.808V224.509C104.81 223.565 104.988 222.725 105.346 221.986C105.709 221.242 106.213 220.662 106.857 220.246C107.508 219.824 108.211 219.613 108.967 219.613C110.203 219.613 111.164 220.021 111.85 220.835C112.535 221.649 112.878 222.815 112.878 224.333V225.01H106.436C106.459 225.947 106.731 226.706 107.253 227.286C107.78 227.86 108.448 228.147 109.257 228.147C109.831 228.147 110.317 228.03 110.716 227.796C111.114 227.562 111.463 227.251 111.762 226.864L112.755 227.638C111.958 228.862 110.763 229.475 109.169 229.475ZM108.967 220.949C108.311 220.949 107.76 221.189 107.314 221.67C106.869 222.145 106.594 222.812 106.488 223.674H111.252V223.551C111.205 222.725 110.982 222.086 110.584 221.635C110.186 221.178 109.646 220.949 108.967 220.949ZM122.563 219.789V229.299H120.929V221.134H117.694L117.501 224.693C117.396 226.328 117.12 227.497 116.675 228.2C116.235 228.903 115.535 229.27 114.574 229.299H113.924V227.866L114.39 227.831C114.917 227.772 115.295 227.468 115.523 226.917C115.752 226.366 115.898 225.347 115.963 223.858L116.139 219.789H122.563ZM131.326 219.789H132.952V229.299H131.326V222.364L126.94 229.299H125.314V219.789H126.94V226.732L131.326 219.789ZM1.37988 254.299V244.789H5.08887C6.35449 244.789 7.32422 245.012 7.99805 245.457C8.67773 245.896 9.01758 246.544 9.01758 247.399C9.01758 247.839 8.88574 248.237 8.62207 248.595C8.3584 248.946 7.96875 249.216 7.45312 249.403C8.02734 249.538 8.4873 249.802 8.83301 250.194C9.18457 250.587 9.36035 251.056 9.36035 251.601C9.36035 252.474 9.03809 253.142 8.39355 253.604C7.75488 254.067 6.84961 254.299 5.67773 254.299H1.37988ZM3.00586 250.124V252.989H5.69531C6.375 252.989 6.88184 252.863 7.21582 252.611C7.55566 252.359 7.72559 252.005 7.72559 251.548C7.72559 250.599 7.02832 250.124 5.63379 250.124H3.00586ZM3.00586 248.823H5.10645C6.62988 248.823 7.3916 248.378 7.3916 247.487C7.3916 246.597 6.6709 246.137 5.22949 246.107H3.00586V248.823ZM13.2891 248.067H15.7588C16.8369 248.079 17.6895 248.36 18.3164 248.911C18.9434 249.462 19.2568 250.209 19.2568 251.152C19.2568 252.102 18.9346 252.863 18.29 253.438C17.6455 254.012 16.7783 254.299 15.6885 254.299H11.6631V244.789H13.2891V248.067ZM22.6494 254.299H21.0146V244.789H22.6494V254.299ZM13.2891 249.395V252.972H15.7061C16.3154 252.972 16.7871 252.816 17.1211 252.506C17.4551 252.189 17.6221 251.759 17.6221 251.214C17.6221 250.687 17.458 250.256 17.1299 249.922C16.8076 249.582 16.3535 249.406 15.7676 249.395H13.2891ZM29.6631 245.334C30.8584 245.334 31.8135 245.735 32.5283 246.538C33.249 247.335 33.6094 248.387 33.6094 249.693V249.843C33.6094 250.739 33.4365 251.542 33.0908 252.251C32.7451 252.954 32.2471 253.502 31.5967 253.895C30.9521 254.281 30.208 254.475 29.3643 254.475C28.0869 254.475 27.0586 254.05 26.2793 253.2C25.5 252.345 25.1104 251.199 25.1104 249.764V248.973C25.1104 246.975 25.4795 245.387 26.2178 244.209C26.9619 243.031 28.0576 242.313 29.5049 242.056C30.3252 241.909 30.8789 241.73 31.166 241.52C31.4531 241.309 31.5967 241.019 31.5967 240.649H32.9326C32.9326 241.382 32.7656 241.953 32.4316 242.363C32.1035 242.773 31.5762 243.063 30.8496 243.233L29.6367 243.506C28.6699 243.734 27.9434 244.121 27.457 244.666C26.9766 245.205 26.6631 245.926 26.5166 246.828C27.3779 245.832 28.4268 245.334 29.6631 245.334ZM29.3467 246.67C28.5498 246.67 27.917 246.939 27.4482 247.479C26.9795 248.012 26.7451 248.753 26.7451 249.702V249.843C26.7451 250.862 26.9795 251.671 27.4482 252.269C27.9229 252.86 28.5615 253.156 29.3643 253.156C30.1729 253.156 30.8115 252.857 31.2803 252.26C31.749 251.662 31.9834 250.789 31.9834 249.641C31.9834 248.744 31.7461 248.026 31.2715 247.487C30.8027 246.942 30.1611 246.67 29.3467 246.67ZM41.4316 244.789H43.0576V254.299H41.4316V247.364L37.0459 254.299H35.4199V244.789H37.0459V251.732L41.4316 244.789ZM53.7012 249.649C53.7012 251.097 53.3701 252.263 52.708 253.147C52.0459 254.032 51.1494 254.475 50.0186 254.475C48.8643 254.475 47.9561 254.108 47.2939 253.376V257.955H45.668V244.789H47.1533L47.2324 245.844C47.8945 245.023 48.8145 244.613 49.9922 244.613C51.1348 244.613 52.0371 245.044 52.6992 245.905C53.3672 246.767 53.7012 247.965 53.7012 249.5V249.649ZM52.0752 249.465C52.0752 248.393 51.8467 247.546 51.3896 246.925C50.9326 246.304 50.3057 245.993 49.5088 245.993C48.5244 245.993 47.7861 246.43 47.2939 247.303V251.847C47.7803 252.714 48.5244 253.147 49.5264 253.147C50.3057 253.147 50.9238 252.84 51.3809 252.225C51.8438 251.604 52.0752 250.684 52.0752 249.465ZM61.6465 254.299C61.5527 254.111 61.4766 253.777 61.418 253.297C60.6621 254.082 59.7598 254.475 58.7109 254.475C57.7734 254.475 57.0029 254.211 56.3994 253.684C55.8018 253.15 55.5029 252.477 55.5029 251.662C55.5029 250.672 55.8779 249.904 56.6279 249.359C57.3838 248.809 58.4443 248.533 59.8096 248.533H61.3916V247.786C61.3916 247.218 61.2217 246.767 60.8818 246.433C60.542 246.093 60.041 245.923 59.3789 245.923C58.7988 245.923 58.3125 246.069 57.9199 246.362C57.5273 246.655 57.3311 247.01 57.3311 247.426H55.6963C55.6963 246.951 55.8633 246.494 56.1973 246.055C56.5371 245.609 56.9941 245.258 57.5684 245C58.1484 244.742 58.7842 244.613 59.4756 244.613C60.5713 244.613 61.4297 244.889 62.0508 245.439C62.6719 245.984 62.9941 246.737 63.0176 247.698V252.075C63.0176 252.948 63.1289 253.643 63.3516 254.158V254.299H61.6465ZM58.9482 253.06C59.458 253.06 59.9414 252.928 60.3984 252.664C60.8555 252.4 61.1865 252.058 61.3916 251.636V249.685H60.1172C58.125 249.685 57.1289 250.268 57.1289 251.434C57.1289 251.943 57.2988 252.342 57.6387 252.629C57.9785 252.916 58.415 253.06 58.9482 253.06ZM67.3418 248.823H69.627C69.75 247.558 70.1982 246.541 70.9717 245.773C71.751 245 72.7324 244.613 73.916 244.613C75.1582 244.613 76.1748 245.032 76.9658 245.87C77.7568 246.708 78.1846 247.798 78.249 249.14L78.2578 249.649C78.2578 250.575 78.0762 251.41 77.7129 252.154C77.3496 252.898 76.8398 253.473 76.1836 253.877C75.5273 254.275 74.7773 254.475 73.9336 254.475C72.709 254.475 71.707 254.076 70.9277 253.279C70.1484 252.477 69.7119 251.437 69.6182 250.159H67.3418V254.299H65.7158V244.789H67.3418V248.823ZM71.2266 249.649C71.2266 250.704 71.4697 251.551 71.9561 252.189C72.4482 252.828 73.1074 253.147 73.9336 253.147C74.7598 253.147 75.4131 252.822 75.8936 252.172C76.3799 251.521 76.623 250.616 76.623 249.456C76.623 248.419 76.377 247.575 75.8848 246.925C75.3926 246.274 74.7363 245.949 73.916 245.949C73.1074 245.949 72.457 246.269 71.9648 246.907C71.4727 247.546 71.2266 248.46 71.2266 249.649ZM87.3281 246.107H84.1377V254.299H82.5117V246.107H79.3828V244.789H87.3281V246.107ZM92.0215 253.147C92.6016 253.147 93.1084 252.972 93.542 252.62C93.9756 252.269 94.2158 251.829 94.2627 251.302H95.8008C95.7715 251.847 95.584 252.365 95.2383 252.857C94.8926 253.35 94.4297 253.742 93.8496 254.035C93.2754 254.328 92.666 254.475 92.0215 254.475C90.7266 254.475 89.6953 254.044 88.9277 253.183C88.166 252.315 87.7852 251.132 87.7852 249.632V249.359C87.7852 248.434 87.9551 247.61 88.2949 246.89C88.6348 246.169 89.1211 245.609 89.7539 245.211C90.3926 244.812 91.1455 244.613 92.0127 244.613C93.0791 244.613 93.9639 244.933 94.667 245.571C95.376 246.21 95.7539 247.039 95.8008 248.059H94.2627C94.2158 247.443 93.9814 246.939 93.5596 246.547C93.1436 246.148 92.6279 245.949 92.0127 245.949C91.1865 245.949 90.5449 246.248 90.0879 246.846C89.6367 247.438 89.4111 248.296 89.4111 249.421V249.729C89.4111 250.824 89.6367 251.668 90.0879 252.26C90.5391 252.852 91.1836 253.147 92.0215 253.147ZM104.897 244.789V254.299H103.263V250.599H100.811L98.5693 254.299H96.8115L99.2021 250.353C98.5928 250.13 98.124 249.787 97.7959 249.324C97.4736 248.855 97.3125 248.311 97.3125 247.689C97.3125 246.822 97.6377 246.125 98.2881 245.598C98.9385 245.064 99.8086 244.795 100.898 244.789H104.897ZM98.9473 247.707C98.9473 248.17 99.1055 248.545 99.4219 248.832C99.7383 249.113 100.157 249.257 100.679 249.263H103.263V246.107H100.925C100.321 246.107 99.8408 246.257 99.4834 246.556C99.126 246.849 98.9473 247.232 98.9473 247.707ZM7.38281 269.789H9.00879V279.299H7.38281V272.364L2.99707 279.299H1.37109V269.789H2.99707V276.732L7.38281 269.789ZM16.8486 272.391C16.8486 271.945 16.6787 271.594 16.3389 271.336C15.999 271.072 15.5332 270.94 14.9414 270.94C14.3672 270.94 13.8867 271.09 13.5 271.389C13.1191 271.688 12.9287 272.039 12.9287 272.443H11.3115C11.3115 271.617 11.6572 270.94 12.3486 270.413C13.04 269.886 13.9043 269.622 14.9414 269.622C16.0547 269.622 16.9219 269.862 17.543 270.343C18.1641 270.817 18.4746 271.497 18.4746 272.382C18.4746 272.81 18.3457 273.202 18.0879 273.56C17.8301 273.917 17.4639 274.201 16.9893 274.412C18.0967 274.787 18.6504 275.525 18.6504 276.627C18.6504 277.5 18.3135 278.191 17.6396 278.701C16.9658 279.211 16.0664 279.466 14.9414 279.466C13.8457 279.466 12.9404 279.199 12.2256 278.666C11.5166 278.127 11.1621 277.4 11.1621 276.486H12.7793C12.7793 276.949 12.9844 277.348 13.3945 277.682C13.8105 278.01 14.3262 278.174 14.9414 278.174C15.5625 278.174 16.0635 278.03 16.4443 277.743C16.8252 277.456 17.0156 277.084 17.0156 276.627C17.0156 276.094 16.8545 275.713 16.5322 275.484C16.2158 275.25 15.7207 275.133 15.0469 275.133H13.4209V273.762H15.1875C16.2949 273.732 16.8486 273.275 16.8486 272.391ZM33.0029 279.299H31.377V271.134H27V279.299H25.3652V269.789H33.0029V279.299ZM35.1826 274.456C35.1826 273.524 35.3643 272.687 35.7275 271.942C36.0967 271.198 36.6064 270.624 37.2568 270.22C37.9131 269.815 38.6602 269.613 39.498 269.613C40.793 269.613 41.8389 270.062 42.6357 270.958C43.4385 271.854 43.8398 273.047 43.8398 274.535V274.649C43.8398 275.575 43.6611 276.407 43.3037 277.146C42.9521 277.878 42.4453 278.449 41.7832 278.859C41.127 279.27 40.3711 279.475 39.5156 279.475C38.2266 279.475 37.1807 279.026 36.3779 278.13C35.5811 277.233 35.1826 276.047 35.1826 274.57V274.456ZM36.8174 274.649C36.8174 275.704 37.0605 276.551 37.5469 277.189C38.0391 277.828 38.6953 278.147 39.5156 278.147C40.3418 278.147 40.998 277.825 41.4844 277.181C41.9707 276.53 42.2139 275.622 42.2139 274.456C42.2139 273.413 41.9648 272.569 41.4668 271.925C40.9746 271.274 40.3184 270.949 39.498 270.949C38.6953 270.949 38.0479 271.269 37.5557 271.907C37.0635 272.546 36.8174 273.46 36.8174 274.649ZM45.167 277.972L45.7295 277.277C46.3623 276.457 46.7227 275.227 46.8105 273.586L46.96 269.789H53.0859V277.972H54.3076V282.094H52.6816V279.299H46.0459V282.094H44.4199L44.4287 277.972H45.167ZM47.0918 277.972H51.46V271.292H48.5332L48.4365 273.56C48.3369 275.452 47.8887 276.923 47.0918 277.972ZM63.8877 279.299H62.2617V271.134H57.8848V279.299H56.25V269.789H63.8877V279.299ZM72.6504 269.789H74.2764V279.299H72.6504V272.364L68.2646 279.299H66.6387V269.789H68.2646V276.732L72.6504 269.789ZM80.7012 278.147C81.2812 278.147 81.7881 277.972 82.2217 277.62C82.6553 277.269 82.8955 276.829 82.9424 276.302H84.4805C84.4512 276.847 84.2637 277.365 83.918 277.857C83.5723 278.35 83.1094 278.742 82.5293 279.035C81.9551 279.328 81.3457 279.475 80.7012 279.475C79.4062 279.475 78.375 279.044 77.6074 278.183C76.8457 277.315 76.4648 276.132 76.4648 274.632V274.359C76.4648 273.434 76.6348 272.61 76.9746 271.89C77.3145 271.169 77.8008 270.609 78.4336 270.211C79.0723 269.812 79.8252 269.613 80.6924 269.613C81.7588 269.613 82.6436 269.933 83.3467 270.571C84.0557 271.21 84.4336 272.039 84.4805 273.059H82.9424C82.8955 272.443 82.6611 271.939 82.2393 271.547C81.8232 271.148 81.3076 270.949 80.6924 270.949C79.8662 270.949 79.2246 271.248 78.7676 271.846C78.3164 272.438 78.0908 273.296 78.0908 274.421V274.729C78.0908 275.824 78.3164 276.668 78.7676 277.26C79.2188 277.852 79.8633 278.147 80.7012 278.147ZM93.4893 279.299H91.8545V275.854C91.1396 276.041 90.4072 276.135 89.6572 276.135C88.4678 276.135 87.5596 275.83 86.9326 275.221C86.3115 274.611 85.9951 273.744 85.9834 272.619V269.78H87.6094V272.672C87.6387 274.09 88.3213 274.799 89.6572 274.799C90.4072 274.799 91.1396 274.705 91.8545 274.518V269.789H93.4893V279.299ZM102.252 269.789H103.878V279.299H102.252V272.364L97.8662 279.299H96.2402V269.789H97.8662V276.732L102.252 269.789ZM109.45 275.247H108.264V279.299H106.629V269.789H108.264V273.814H109.327L112.526 269.789H114.495L110.733 274.359L114.812 279.299H112.746L109.45 275.247ZM115.585 274.456C115.585 273.524 115.767 272.687 116.13 271.942C116.499 271.198 117.009 270.624 117.659 270.22C118.315 269.815 119.062 269.613 119.9 269.613C121.195 269.613 122.241 270.062 123.038 270.958C123.841 271.854 124.242 273.047 124.242 274.535V274.649C124.242 275.575 124.063 276.407 123.706 277.146C123.354 277.878 122.848 278.449 122.186 278.859C121.529 279.27 120.773 279.475 119.918 279.475C118.629 279.475 117.583 279.026 116.78 278.13C115.983 277.233 115.585 276.047 115.585 274.57V274.456ZM117.22 274.649C117.22 275.704 117.463 276.551 117.949 277.189C118.441 277.828 119.098 278.147 119.918 278.147C120.744 278.147 121.4 277.825 121.887 277.181C122.373 276.53 122.616 275.622 122.616 274.456C122.616 273.413 122.367 272.569 121.869 271.925C121.377 271.274 120.721 270.949 119.9 270.949C119.098 270.949 118.45 271.269 117.958 271.907C117.466 272.546 117.22 273.46 117.22 274.649ZM126.431 279.299V269.789H130.14C131.405 269.789 132.375 270.012 133.049 270.457C133.729 270.896 134.068 271.544 134.068 272.399C134.068 272.839 133.937 273.237 133.673 273.595C133.409 273.946 133.02 274.216 132.504 274.403C133.078 274.538 133.538 274.802 133.884 275.194C134.235 275.587 134.411 276.056 134.411 276.601C134.411 277.474 134.089 278.142 133.444 278.604C132.806 279.067 131.9 279.299 130.729 279.299H126.431ZM128.057 275.124V277.989H130.746C131.426 277.989 131.933 277.863 132.267 277.611C132.606 277.359 132.776 277.005 132.776 276.548C132.776 275.599 132.079 275.124 130.685 275.124H128.057ZM128.057 273.823H130.157C131.681 273.823 132.442 273.378 132.442 272.487C132.442 271.597 131.722 271.137 130.28 271.107H128.057V273.823Z" fill="#1B404E"/>
<rect y="47.2988" width="140" height="140" rx="25" fill="#1B404E"/>
<path d="M102.719 107.839C103.785 111.227 104.363 114.831 104.363 118.57C104.363 138.252 88.4084 154.207 68.7269 154.207C49.0455 154.207 33.0906 138.252 33.0906 118.57C33.0906 98.8887 49.0455 82.9338 68.7269 82.9338C72.2193 82.9338 75.592 83.4378 78.7789 84.372" stroke="white" stroke-width="3" stroke-linecap="round" stroke-linejoin="round"/>
<path d="M83.7469 115.795C83.9124 116.696 83.9989 117.623 83.9989 118.572C83.9989 127.005 77.1619 133.845 68.7262 133.845C60.2931 133.845 53.4535 127.005 53.4535 118.572C53.4535 110.136 60.2931 103.299 68.7262 103.299C69.5764 103.299 70.4088 103.368 71.2208 103.5" stroke="white" stroke-width="3" stroke-linecap="round" stroke-linejoin="round"/>
<path d="M68.7266 118.57L104.363 82.9341" stroke="#FFCF50" stroke-width="3" stroke-linecap="round" stroke-linejoin="round"/>
<path fill-rule="evenodd" clip-rule="evenodd" d="M96.7272 90.5715V80.3896L86.5454 90.5715V100.753H96.7272L106.909 90.5715H96.7272Z" stroke="#FFCF50" stroke-width="3" stroke-linecap="round" stroke-linejoin="round"/>
<path d="M70.2 48.0488C67.7 51.3488 64.2167 52.9988 59.75 52.9988C55.2833 52.9988 51.7833 51.3488 49.25 48.0488C46.75 44.7155 45.5 40.2988 45.5 34.7988C45.5 29.2988 46.75 24.8988 49.25 21.5988C51.7833 18.2655 55.2833 16.5988 59.75 16.5988C64.2167 16.5988 67.7 18.2655 70.2 21.5988C72.7333 24.8988 74 29.2988 74 34.7988C74 40.2988 72.7333 44.7155 70.2 48.0488ZM53.5 34.7988C53.5 41.7322 55.5833 45.1988 59.75 45.1988C63.9167 45.1988 66 41.7322 66 34.7988C66 27.8655 63.9167 24.3988 59.75 24.3988C55.5833 24.3988 53.5 27.8655 53.5 34.7988ZM84.1676 17.2988L91.1676 17.2988L91.1676 52.2988L83.1676 52.2988L83.1676 25.7488L76.9676 27.4488L75.0176 20.5988L84.1676 17.2988Z" fill="#1B404E"/>
</svg>
