<svg width="831" height="360" viewBox="0 0 831 360" fill="none" xmlns="http://www.w3.org/2000/svg">
<path d="M677.485 230.299V217.502H681.669C683.058 217.502 684.101 217.789 684.798 218.363C685.501 218.938 685.853 219.787 685.853 220.912C685.853 221.51 685.683 222.04 685.343 222.503C685.003 222.96 684.54 223.314 683.954 223.566C684.646 223.76 685.19 224.129 685.589 224.674C685.993 225.213 686.195 225.857 686.195 226.607C686.195 227.756 685.823 228.658 685.079 229.314C684.335 229.971 683.283 230.299 681.924 230.299H677.485ZM679.173 224.313V228.919H681.959C682.744 228.919 683.362 228.717 683.813 228.312C684.271 227.902 684.499 227.34 684.499 226.625C684.499 225.084 683.661 224.313 681.985 224.313H679.173ZM679.173 222.96H681.722C682.46 222.96 683.049 222.775 683.488 222.406C683.934 222.037 684.156 221.536 684.156 220.903C684.156 220.2 683.951 219.69 683.541 219.374C683.131 219.052 682.507 218.891 681.669 218.891H679.173V222.96ZM692.26 229.147C692.84 229.147 693.347 228.972 693.78 228.62C694.214 228.269 694.454 227.829 694.501 227.302H696.039C696.01 227.847 695.822 228.365 695.477 228.857C695.131 229.35 694.668 229.742 694.088 230.035C693.514 230.328 692.904 230.475 692.26 230.475C690.965 230.475 689.934 230.044 689.166 229.183C688.404 228.315 688.023 227.132 688.023 225.632V225.359C688.023 224.434 688.193 223.61 688.533 222.89C688.873 222.169 689.359 221.609 689.992 221.211C690.631 220.812 691.384 220.613 692.251 220.613C693.317 220.613 694.202 220.933 694.905 221.571C695.614 222.21 695.992 223.039 696.039 224.059H694.501C694.454 223.443 694.22 222.939 693.798 222.547C693.382 222.148 692.866 221.949 692.251 221.949C691.425 221.949 690.783 222.248 690.326 222.846C689.875 223.438 689.649 224.296 689.649 225.421V225.729C689.649 226.824 689.875 227.668 690.326 228.26C690.777 228.852 691.422 229.147 692.26 229.147ZM701.813 230.475C700.524 230.475 699.476 230.053 698.667 229.209C697.858 228.359 697.454 227.226 697.454 225.808V225.509C697.454 224.565 697.633 223.725 697.99 222.986C698.354 222.242 698.857 221.662 699.502 221.246C700.152 220.824 700.855 220.613 701.611 220.613C702.848 220.613 703.809 221.021 704.494 221.835C705.18 222.649 705.522 223.815 705.522 225.333V226.01H699.08C699.104 226.947 699.376 227.706 699.897 228.286C700.425 228.86 701.093 229.147 701.901 229.147C702.476 229.147 702.962 229.03 703.36 228.796C703.759 228.562 704.107 228.251 704.406 227.864L705.399 228.638C704.603 229.862 703.407 230.475 701.813 230.475ZM701.611 221.949C700.955 221.949 700.404 222.189 699.959 222.67C699.514 223.145 699.238 223.812 699.133 224.674H703.896V224.551C703.85 223.725 703.627 223.086 703.229 222.635C702.83 222.178 702.291 221.949 701.611 221.949ZM717.106 223.391C717.106 222.945 716.937 222.594 716.597 222.336C716.257 222.072 715.791 221.94 715.199 221.94C714.625 221.94 714.145 222.09 713.758 222.389C713.377 222.688 713.187 223.039 713.187 223.443H711.569C711.569 222.617 711.915 221.94 712.606 221.413C713.298 220.886 714.162 220.622 715.199 220.622C716.312 220.622 717.18 220.862 717.801 221.343C718.422 221.817 718.732 222.497 718.732 223.382C718.732 223.81 718.604 224.202 718.346 224.56C718.088 224.917 717.722 225.201 717.247 225.412C718.354 225.787 718.908 226.525 718.908 227.627C718.908 228.5 718.571 229.191 717.897 229.701C717.224 230.211 716.324 230.466 715.199 230.466C714.104 230.466 713.198 230.199 712.483 229.666C711.774 229.127 711.42 228.4 711.42 227.486H713.037C713.037 227.949 713.242 228.348 713.652 228.682C714.068 229.01 714.584 229.174 715.199 229.174C715.82 229.174 716.321 229.03 716.702 228.743C717.083 228.456 717.273 228.084 717.273 227.627C717.273 227.094 717.112 226.713 716.79 226.484C716.474 226.25 715.979 226.133 715.305 226.133H713.679V224.762H715.445C716.553 224.732 717.106 224.275 717.106 223.391ZM726.889 230.299C726.795 230.111 726.719 229.777 726.66 229.297C725.904 230.082 725.002 230.475 723.953 230.475C723.016 230.475 722.245 230.211 721.642 229.684C721.044 229.15 720.745 228.477 720.745 227.662C720.745 226.672 721.12 225.904 721.87 225.359C722.626 224.809 723.687 224.533 725.052 224.533H726.634V223.786C726.634 223.218 726.464 222.767 726.124 222.433C725.784 222.093 725.283 221.923 724.621 221.923C724.041 221.923 723.555 222.069 723.162 222.362C722.77 222.655 722.573 223.01 722.573 223.426H720.938C720.938 222.951 721.105 222.494 721.439 222.055C721.779 221.609 722.236 221.258 722.811 221C723.391 220.742 724.026 220.613 724.718 220.613C725.813 220.613 726.672 220.889 727.293 221.439C727.914 221.984 728.236 222.737 728.26 223.698V228.075C728.26 228.948 728.371 229.643 728.594 230.158V230.299H726.889ZM724.19 229.06C724.7 229.06 725.184 228.928 725.641 228.664C726.098 228.4 726.429 228.058 726.634 227.636V225.685H725.359C723.367 225.685 722.371 226.268 722.371 227.434C722.371 227.943 722.541 228.342 722.881 228.629C723.221 228.916 723.657 229.06 724.19 229.06ZM738.587 230.299H736.961V222.134H732.584V230.299H730.949V220.789H738.587V230.299ZM747.35 220.789H748.976V230.299H747.35V223.364L742.964 230.299H741.338V220.789H742.964V227.732L747.35 220.789ZM755.4 229.147C755.98 229.147 756.487 228.972 756.921 228.62C757.354 228.269 757.595 227.829 757.642 227.302H759.18C759.15 227.847 758.963 228.365 758.617 228.857C758.271 229.35 757.809 229.742 757.229 230.035C756.654 230.328 756.045 230.475 755.4 230.475C754.105 230.475 753.074 230.044 752.307 229.183C751.545 228.315 751.164 227.132 751.164 225.632V225.359C751.164 224.434 751.334 223.61 751.674 222.89C752.014 222.169 752.5 221.609 753.133 221.211C753.771 220.812 754.524 220.613 755.392 220.613C756.458 220.613 757.343 220.933 758.046 221.571C758.755 222.21 759.133 223.039 759.18 224.059H757.642C757.595 223.443 757.36 222.939 756.938 222.547C756.522 222.148 756.007 221.949 755.392 221.949C754.565 221.949 753.924 222.248 753.467 222.846C753.016 223.438 752.79 224.296 752.79 225.421V225.729C752.79 226.824 753.016 227.668 753.467 228.26C753.918 228.852 754.562 229.147 755.4 229.147ZM767.16 220.789H768.786V230.299H767.16V223.364L762.774 230.299H761.148V220.789H762.774V227.732L767.16 220.789ZM683.383 245.789H685.009V255.299H683.383V248.364L678.997 255.299H677.371V245.789H678.997V252.732L683.383 245.789ZM699.862 255.299H698.236V247.134H693.859V255.299H692.225V245.789H699.862V255.299ZM702.042 250.456C702.042 249.524 702.224 248.687 702.587 247.942C702.956 247.198 703.466 246.624 704.116 246.22C704.772 245.815 705.52 245.613 706.357 245.613C707.652 245.613 708.698 246.062 709.495 246.958C710.298 247.854 710.699 249.047 710.699 250.535V250.649C710.699 251.575 710.521 252.407 710.163 253.146C709.812 253.878 709.305 254.449 708.643 254.859C707.986 255.27 707.23 255.475 706.375 255.475C705.086 255.475 704.04 255.026 703.237 254.13C702.44 253.233 702.042 252.047 702.042 250.57V250.456ZM703.677 250.649C703.677 251.704 703.92 252.551 704.406 253.189C704.898 253.828 705.555 254.147 706.375 254.147C707.201 254.147 707.857 253.825 708.344 253.181C708.83 252.53 709.073 251.622 709.073 250.456C709.073 249.413 708.824 248.569 708.326 247.925C707.834 247.274 707.178 246.949 706.357 246.949C705.555 246.949 704.907 247.269 704.415 247.907C703.923 248.546 703.677 249.46 703.677 250.649ZM712.026 253.972L712.589 253.277C713.222 252.457 713.582 251.227 713.67 249.586L713.819 245.789H719.945V253.972H721.167V258.094H719.541V255.299H712.905V258.094H711.279L711.288 253.972H712.026ZM713.951 253.972H718.319V247.292H715.393L715.296 249.56C715.196 251.452 714.748 252.923 713.951 253.972ZM729.859 247.107H726.669V255.299H725.043V247.107H721.914V245.789H729.859V247.107ZM731.591 255.299V245.789H735.3C736.565 245.789 737.535 246.012 738.209 246.457C738.889 246.896 739.229 247.544 739.229 248.399C739.229 248.839 739.097 249.237 738.833 249.595C738.569 249.946 738.18 250.216 737.664 250.403C738.238 250.538 738.698 250.802 739.044 251.194C739.396 251.587 739.571 252.056 739.571 252.601C739.571 253.474 739.249 254.142 738.604 254.604C737.966 255.067 737.061 255.299 735.889 255.299H731.591ZM733.217 251.124V253.989H735.906C736.586 253.989 737.093 253.863 737.427 253.611C737.767 253.359 737.937 253.005 737.937 252.548C737.937 251.599 737.239 251.124 735.845 251.124H733.217ZM733.217 249.823H735.317C736.841 249.823 737.603 249.378 737.603 248.487C737.603 247.597 736.882 247.137 735.44 247.107H733.217V249.823ZM745.671 255.475C744.382 255.475 743.333 255.053 742.524 254.209C741.716 253.359 741.312 252.226 741.312 250.808V250.509C741.312 249.565 741.49 248.725 741.848 247.986C742.211 247.242 742.715 246.662 743.359 246.246C744.01 245.824 744.713 245.613 745.469 245.613C746.705 245.613 747.666 246.021 748.352 246.835C749.037 247.649 749.38 248.815 749.38 250.333V251.01H742.938C742.961 251.947 743.233 252.706 743.755 253.286C744.282 253.86 744.95 254.147 745.759 254.147C746.333 254.147 746.819 254.03 747.218 253.796C747.616 253.562 747.965 253.251 748.264 252.864L749.257 253.638C748.46 254.862 747.265 255.475 745.671 255.475ZM745.469 246.949C744.812 246.949 744.262 247.189 743.816 247.67C743.371 248.145 743.096 248.812 742.99 249.674H747.754V249.551C747.707 248.725 747.484 248.086 747.086 247.635C746.688 247.178 746.148 246.949 745.469 246.949ZM759.303 250.649C759.303 252.097 758.972 253.263 758.31 254.147C757.647 255.032 756.751 255.475 755.62 255.475C754.466 255.475 753.558 255.108 752.896 254.376V258.955H751.27V245.789H752.755L752.834 246.844C753.496 246.023 754.416 245.613 755.594 245.613C756.736 245.613 757.639 246.044 758.301 246.905C758.969 247.767 759.303 248.965 759.303 250.5V250.649ZM757.677 250.465C757.677 249.393 757.448 248.546 756.991 247.925C756.534 247.304 755.907 246.993 755.11 246.993C754.126 246.993 753.388 247.43 752.896 248.303V252.847C753.382 253.714 754.126 254.147 755.128 254.147C755.907 254.147 756.525 253.84 756.982 253.225C757.445 252.604 757.677 251.684 757.677 250.465ZM768.821 251.168H767.679V255.299H766.053V251.168H764.91L762.247 255.299H760.19L763.592 250.377L760.516 245.789H762.484L764.937 249.727H766.053V245.789H767.679V249.727H768.786L771.256 245.789H773.225L770.14 250.386L773.541 255.299H771.484L768.821 251.168ZM774.938 253.972L775.501 253.277C776.134 252.457 776.494 251.227 776.582 249.586L776.731 245.789H782.857V253.972H784.079V258.094H782.453V255.299H775.817V258.094H774.191L774.2 253.972H774.938ZM776.863 253.972H781.231V247.292H778.305L778.208 249.56C778.108 251.452 777.66 252.923 776.863 253.972ZM789.827 255.475C788.538 255.475 787.489 255.053 786.681 254.209C785.872 253.359 785.468 252.226 785.468 250.808V250.509C785.468 249.565 785.646 248.725 786.004 247.986C786.367 247.242 786.871 246.662 787.516 246.246C788.166 245.824 788.869 245.613 789.625 245.613C790.861 245.613 791.822 246.021 792.508 246.835C793.193 247.649 793.536 248.815 793.536 250.333V251.01H787.094C787.117 251.947 787.39 252.706 787.911 253.286C788.438 253.86 789.106 254.147 789.915 254.147C790.489 254.147 790.976 254.03 791.374 253.796C791.772 253.562 792.121 253.251 792.42 252.864L793.413 253.638C792.616 254.862 791.421 255.475 789.827 255.475ZM789.625 246.949C788.969 246.949 788.418 247.189 787.973 247.67C787.527 248.145 787.252 248.812 787.146 249.674H791.91V249.551C791.863 248.725 791.641 248.086 791.242 247.635C790.844 247.178 790.305 246.949 789.625 246.949ZM803.195 255.299H801.569V251.238H797.201V255.299H795.566V245.789H797.201V249.911H801.569V245.789H803.195V255.299ZM811.967 245.789H813.593V255.299H811.967V248.364L807.581 255.299H805.955V245.789H807.581V252.732L811.967 245.789ZM823.472 245.789V255.299H821.837V251.599H819.385L817.144 255.299H815.386L817.776 251.353C817.167 251.13 816.698 250.787 816.37 250.324C816.048 249.855 815.887 249.311 815.887 248.689C815.887 247.822 816.212 247.125 816.862 246.598C817.513 246.064 818.383 245.795 819.473 245.789H823.472ZM817.521 248.707C817.521 249.17 817.68 249.545 817.996 249.832C818.312 250.113 818.731 250.257 819.253 250.263H821.837V247.107H819.499C818.896 247.107 818.415 247.257 818.058 247.556C817.7 247.849 817.521 248.232 817.521 248.707ZM676.8 275.456C676.8 274.524 676.981 273.687 677.345 272.942C677.714 272.198 678.224 271.624 678.874 271.22C679.53 270.815 680.277 270.613 681.115 270.613C682.41 270.613 683.456 271.062 684.253 271.958C685.056 272.854 685.457 274.047 685.457 275.535V275.649C685.457 276.575 685.278 277.407 684.921 278.146C684.569 278.878 684.062 279.449 683.4 279.859C682.744 280.27 681.988 280.475 681.133 280.475C679.844 280.475 678.798 280.026 677.995 279.13C677.198 278.233 676.8 277.047 676.8 275.57V275.456ZM678.435 275.649C678.435 276.704 678.678 277.551 679.164 278.189C679.656 278.828 680.312 279.147 681.133 279.147C681.959 279.147 682.615 278.825 683.102 278.181C683.588 277.53 683.831 276.622 683.831 275.456C683.831 274.413 683.582 273.569 683.084 272.925C682.592 272.274 681.936 271.949 681.115 271.949C680.312 271.949 679.665 272.269 679.173 272.907C678.681 273.546 678.435 274.46 678.435 275.649ZM695.274 280.299H693.648V272.134H689.271V280.299H687.637V270.789H695.274V280.299ZM705.681 270.789V280.299H704.046V272.134H700.812L700.618 275.693C700.513 277.328 700.237 278.497 699.792 279.2C699.353 279.903 698.652 280.27 697.691 280.299H697.041V278.866L697.507 278.831C698.034 278.772 698.412 278.468 698.641 277.917C698.869 277.366 699.016 276.347 699.08 274.858L699.256 270.789H705.681ZM714.162 280.299C714.068 280.111 713.992 279.777 713.934 279.297C713.178 280.082 712.275 280.475 711.227 280.475C710.289 280.475 709.519 280.211 708.915 279.684C708.317 279.15 708.019 278.477 708.019 277.662C708.019 276.672 708.394 275.904 709.144 275.359C709.899 274.809 710.96 274.533 712.325 274.533H713.907V273.786C713.907 273.218 713.737 272.767 713.397 272.433C713.058 272.093 712.557 271.923 711.895 271.923C711.314 271.923 710.828 272.069 710.436 272.362C710.043 272.655 709.847 273.01 709.847 273.426H708.212C708.212 272.951 708.379 272.494 708.713 272.055C709.053 271.609 709.51 271.258 710.084 271C710.664 270.742 711.3 270.613 711.991 270.613C713.087 270.613 713.945 270.889 714.566 271.439C715.188 271.984 715.51 272.737 715.533 273.698V278.075C715.533 278.948 715.645 279.643 715.867 280.158V280.299H714.162ZM711.464 279.06C711.974 279.06 712.457 278.928 712.914 278.664C713.371 278.4 713.702 278.058 713.907 277.636V275.685H712.633C710.641 275.685 709.645 276.268 709.645 277.434C709.645 277.943 709.814 278.342 710.154 278.629C710.494 278.916 710.931 279.06 711.464 279.06ZM725.008 272.107H721.817V280.299H720.191V272.107H717.062V270.789H725.008V272.107ZM730.976 278.972L731.538 278.277C732.171 277.457 732.531 276.227 732.619 274.586L732.769 270.789H738.895V278.972H740.116V283.094H738.49V280.299H731.854V283.094H730.229L730.237 278.972H730.976ZM732.9 278.972H737.269V272.292H734.342L734.245 274.56C734.146 276.452 733.697 277.923 732.9 278.972ZM741.487 275.456C741.487 274.524 741.669 273.687 742.032 272.942C742.401 272.198 742.911 271.624 743.562 271.22C744.218 270.815 744.965 270.613 745.803 270.613C747.098 270.613 748.144 271.062 748.94 271.958C749.743 272.854 750.145 274.047 750.145 275.535V275.649C750.145 276.575 749.966 277.407 749.608 278.146C749.257 278.878 748.75 279.449 748.088 279.859C747.432 280.27 746.676 280.475 745.82 280.475C744.531 280.475 743.485 280.026 742.683 279.13C741.886 278.233 741.487 277.047 741.487 275.57V275.456ZM743.122 275.649C743.122 276.704 743.365 277.551 743.852 278.189C744.344 278.828 745 279.147 745.82 279.147C746.646 279.147 747.303 278.825 747.789 278.181C748.275 277.53 748.519 276.622 748.519 275.456C748.519 274.413 748.27 273.569 747.771 272.925C747.279 272.274 746.623 271.949 745.803 271.949C745 271.949 744.353 272.269 743.86 272.907C743.368 273.546 743.122 274.46 743.122 275.649ZM755.998 279.147C756.578 279.147 757.085 278.972 757.519 278.62C757.952 278.269 758.192 277.829 758.239 277.302H759.777C759.748 277.847 759.561 278.365 759.215 278.857C758.869 279.35 758.406 279.742 757.826 280.035C757.252 280.328 756.643 280.475 755.998 280.475C754.703 280.475 753.672 280.044 752.904 279.183C752.143 278.315 751.762 277.132 751.762 275.632V275.359C751.762 274.434 751.932 273.61 752.271 272.89C752.611 272.169 753.098 271.609 753.73 271.211C754.369 270.812 755.122 270.613 755.989 270.613C757.056 270.613 757.94 270.933 758.644 271.571C759.353 272.21 759.73 273.039 759.777 274.059H758.239C758.192 273.443 757.958 272.939 757.536 272.547C757.12 272.148 756.604 271.949 755.989 271.949C755.163 271.949 754.521 272.248 754.064 272.846C753.613 273.438 753.388 274.296 753.388 275.421V275.729C753.388 276.824 753.613 277.668 754.064 278.26C754.516 278.852 755.16 279.147 755.998 279.147ZM768.672 272.107H765.481V280.299H763.855V272.107H760.727V270.789H768.672V272.107ZM773.471 277.917L775.686 270.789H777.426L773.603 281.767C773.011 283.349 772.07 284.14 770.781 284.14L770.474 284.113L769.867 283.999V282.681L770.307 282.716C770.857 282.716 771.285 282.604 771.59 282.382C771.9 282.159 772.155 281.752 772.354 281.16L772.715 280.193L769.322 270.789H771.098L773.471 277.917ZM786.663 280.299H785.037V272.134H780.66V280.299H779.025V270.789H786.663V280.299ZM797.043 280.299H795.417V276.238H791.049V280.299H789.414V270.789H791.049V274.911H795.417V270.789H797.043V280.299ZM801.438 274.067H803.907C804.985 274.079 805.838 274.36 806.465 274.911C807.092 275.462 807.405 276.209 807.405 277.152C807.405 278.102 807.083 278.863 806.438 279.438C805.794 280.012 804.927 280.299 803.837 280.299H799.812V270.789H801.438V274.067ZM810.798 280.299H809.163V270.789H810.798V280.299ZM801.438 275.395V278.972H803.854C804.464 278.972 804.936 278.816 805.27 278.506C805.604 278.189 805.771 277.759 805.771 277.214C805.771 276.687 805.606 276.256 805.278 275.922C804.956 275.582 804.502 275.406 803.916 275.395H801.438Z" fill="#1B404E"/>
<rect x="676" y="48.2988" width="140" height="140" rx="25" fill="#1B404E"/>
<path fill-rule="evenodd" clip-rule="evenodd" d="M754.909 157.753H716.727V86.4807H772.727V139.935L754.909 157.753Z" stroke="white" stroke-width="3" stroke-linecap="round" stroke-linejoin="round"/>
<path fill-rule="evenodd" clip-rule="evenodd" d="M790.546 122.117L786.728 132.299L782.909 122.117V90.2989C782.909 88.1913 784.62 86.4807 786.728 86.4807C788.835 86.4807 790.546 88.1913 790.546 90.2989V122.117Z" stroke="white" stroke-width="3" stroke-linecap="round" stroke-linejoin="round"/>
<path d="M782.909 97.1546H790.546" stroke="white" stroke-width="3" stroke-linecap="round" stroke-linejoin="round"/>
<path fill-rule="evenodd" clip-rule="evenodd" d="M754.909 139.935H772.728L754.909 157.753V139.935Z" stroke="white" stroke-width="3" stroke-linecap="round" stroke-linejoin="round"/>
<path d="M726.909 99.208H762.546" stroke="#FFCF50" stroke-width="3" stroke-linecap="round" stroke-linejoin="round"/>
<path d="M726.909 111.935H762.546" stroke="#FFCF50" stroke-width="3" stroke-linecap="round" stroke-linejoin="round"/>
<path d="M726.909 124.662H762.546" stroke="#FFCF50" stroke-width="3" stroke-linecap="round" stroke-linejoin="round"/>
<path d="M741.2 48.0488C738.7 51.3488 735.217 52.9988 730.75 52.9988C726.283 52.9988 722.783 51.3488 720.25 48.0488C717.75 44.7155 716.5 40.2988 716.5 34.7988C716.5 29.2988 717.75 24.8988 720.25 21.5988C722.783 18.2655 726.283 16.5988 730.75 16.5988C735.217 16.5988 738.7 18.2655 741.2 21.5988C743.733 24.8988 745 29.2988 745 34.7988C745 40.2988 743.733 44.7155 741.2 48.0488ZM724.5 34.7988C724.5 41.7322 726.583 45.1988 730.75 45.1988C734.917 45.1988 737 41.7322 737 34.7988C737 27.8655 734.917 24.3988 730.75 24.3988C726.583 24.3988 724.5 27.8655 724.5 34.7988ZM763.53 31.4988C765.764 32.2655 767.564 33.5155 768.93 35.2488C770.297 36.9488 770.98 38.9655 770.98 41.2988C770.98 44.9655 769.747 47.8322 767.28 49.8988C764.814 51.9655 761.797 52.9988 758.23 52.9988C755.464 52.9988 752.98 52.3655 750.78 51.0988C748.614 49.8322 747.014 47.9655 745.98 45.4988L752.88 41.4988C753.747 43.9655 755.53 45.1988 758.23 45.1988C759.797 45.1988 760.98 44.8322 761.78 44.0988C762.58 43.3655 762.98 42.4322 762.98 41.2988C762.98 40.1655 762.58 39.2322 761.78 38.4988C760.98 37.7655 759.797 37.3988 758.23 37.3988L756.58 37.3988L753.53 32.8488L759.88 24.7988L747.08 24.7988L747.08 17.2988L769.58 17.2988L769.58 23.7988L763.53 31.4988Z" fill="#1B404E"/>
<path d="M337.554 271.502H339.241V284.299H337.554V274.438L331.252 284.299H329.556V271.502H331.252V281.363L337.554 271.502ZM345.877 283.147C346.457 283.147 346.964 282.972 347.397 282.62C347.831 282.269 348.071 281.829 348.118 281.302H349.656C349.627 281.847 349.439 282.365 349.094 282.857C348.748 283.35 348.285 283.742 347.705 284.035C347.131 284.328 346.521 284.475 345.877 284.475C344.582 284.475 343.551 284.044 342.783 283.183C342.021 282.315 341.641 281.132 341.641 279.632V279.359C341.641 278.434 341.811 277.61 342.15 276.89C342.49 276.169 342.977 275.609 343.609 275.211C344.248 274.812 345.001 274.613 345.868 274.613C346.935 274.613 347.819 274.933 348.522 275.571C349.231 276.21 349.609 277.039 349.656 278.059H348.118C348.071 277.443 347.837 276.939 347.415 276.547C346.999 276.148 346.483 275.949 345.868 275.949C345.042 275.949 344.4 276.248 343.943 276.846C343.492 277.438 343.267 278.296 343.267 279.421V279.729C343.267 280.824 343.492 281.668 343.943 282.26C344.395 282.852 345.039 283.147 345.877 283.147ZM359.263 284.299H357.637V276.134H353.26V284.299H351.625V274.789H359.263V284.299ZM361.442 279.456C361.442 278.524 361.624 277.687 361.987 276.942C362.356 276.198 362.866 275.624 363.517 275.22C364.173 274.815 364.92 274.613 365.758 274.613C367.053 274.613 368.099 275.062 368.896 275.958C369.698 276.854 370.1 278.047 370.1 279.535V279.649C370.1 280.575 369.921 281.407 369.563 282.146C369.212 282.878 368.705 283.449 368.043 283.859C367.387 284.27 366.631 284.475 365.775 284.475C364.486 284.475 363.44 284.026 362.638 283.13C361.841 282.233 361.442 281.047 361.442 279.57V279.456ZM363.077 279.649C363.077 280.704 363.32 281.551 363.807 282.189C364.299 282.828 364.955 283.147 365.775 283.147C366.602 283.147 367.258 282.825 367.744 282.181C368.23 281.53 368.474 280.622 368.474 279.456C368.474 278.413 368.225 277.569 367.727 276.925C367.234 276.274 366.578 275.949 365.758 275.949C364.955 275.949 364.308 276.269 363.815 276.907C363.323 277.546 363.077 278.46 363.077 279.649ZM379.794 274.789V284.299H378.159V276.134H374.925L374.731 279.693C374.626 281.328 374.351 282.497 373.905 283.2C373.466 283.903 372.766 284.27 371.805 284.299H371.154V282.866L371.62 282.831C372.147 282.772 372.525 282.468 372.754 281.917C372.982 281.366 373.129 280.347 373.193 278.858L373.369 274.789H379.794ZM384.18 278.067H386.649C387.728 278.079 388.58 278.36 389.207 278.911C389.834 279.462 390.147 280.209 390.147 281.152C390.147 282.102 389.825 282.863 389.181 283.438C388.536 284.012 387.669 284.299 386.579 284.299H382.554V274.789H384.18V278.067ZM384.18 279.395V282.972H386.597C387.206 282.972 387.678 282.816 388.012 282.506C388.346 282.189 388.513 281.759 388.513 281.214C388.513 280.687 388.349 280.256 388.021 279.922C387.698 279.582 387.244 279.406 386.658 279.395H384.18ZM397.407 277.391C397.407 276.945 397.237 276.594 396.897 276.336C396.558 276.072 396.092 275.94 395.5 275.94C394.926 275.94 394.445 276.09 394.059 276.389C393.678 276.688 393.487 277.039 393.487 277.443H391.87C391.87 276.617 392.216 275.94 392.907 275.413C393.599 274.886 394.463 274.622 395.5 274.622C396.613 274.622 397.48 274.862 398.102 275.343C398.723 275.817 399.033 276.497 399.033 277.382C399.033 277.81 398.904 278.202 398.646 278.56C398.389 278.917 398.022 279.201 397.548 279.412C398.655 279.787 399.209 280.525 399.209 281.627C399.209 282.5 398.872 283.191 398.198 283.701C397.524 284.211 396.625 284.466 395.5 284.466C394.404 284.466 393.499 284.199 392.784 283.666C392.075 283.127 391.721 282.4 391.721 281.486H393.338C393.338 281.949 393.543 282.348 393.953 282.682C394.369 283.01 394.885 283.174 395.5 283.174C396.121 283.174 396.622 283.03 397.003 282.743C397.384 282.456 397.574 282.084 397.574 281.627C397.574 281.094 397.413 280.713 397.091 280.484C396.774 280.25 396.279 280.133 395.605 280.133H393.979V278.762H395.746C396.854 278.732 397.407 278.275 397.407 277.391ZM404.43 281.917L406.645 274.789H408.385L404.562 285.767C403.97 287.349 403.029 288.14 401.74 288.14L401.433 288.113L400.826 287.999V286.681L401.266 286.716C401.816 286.716 402.244 286.604 402.549 286.382C402.859 286.159 403.114 285.752 403.313 285.16L403.674 284.193L400.281 274.789H402.057L404.43 281.917ZM413.667 284.475C412.378 284.475 411.329 284.053 410.521 283.209C409.712 282.359 409.308 281.226 409.308 279.808V279.509C409.308 278.565 409.486 277.725 409.844 276.986C410.207 276.242 410.711 275.662 411.355 275.246C412.006 274.824 412.709 274.613 413.465 274.613C414.701 274.613 415.662 275.021 416.348 275.835C417.033 276.649 417.376 277.815 417.376 279.333V280.01H410.934C410.957 280.947 411.229 281.706 411.751 282.286C412.278 282.86 412.946 283.147 413.755 283.147C414.329 283.147 414.815 283.03 415.214 282.796C415.612 282.562 415.961 282.251 416.26 281.864L417.253 282.638C416.456 283.862 415.261 284.475 413.667 284.475ZM413.465 275.949C412.809 275.949 412.258 276.189 411.812 276.67C411.367 277.145 411.092 277.812 410.986 278.674H415.75V278.551C415.703 277.725 415.48 277.086 415.082 276.635C414.684 276.178 414.145 275.949 413.465 275.949ZM424.741 282.146L427.976 274.789H430.006V284.299H428.38V277.382L425.304 284.299H424.179L421.041 277.232V284.299H419.415V274.789H421.524L424.741 282.146ZM337.009 309.299H335.383V301.134H331.006V309.299H329.371V299.789H337.009V309.299ZM347.652 304.649C347.652 306.097 347.321 307.263 346.659 308.147C345.997 309.032 345.101 309.475 343.97 309.475C342.815 309.475 341.907 309.108 341.245 308.376V312.955H339.619V299.789H341.104L341.184 300.844C341.846 300.023 342.766 299.613 343.943 299.613C345.086 299.613 345.988 300.044 346.65 300.905C347.318 301.767 347.652 302.965 347.652 304.5V304.649ZM346.026 304.465C346.026 303.393 345.798 302.546 345.341 301.925C344.884 301.304 344.257 300.993 343.46 300.993C342.476 300.993 341.737 301.43 341.245 302.303V306.847C341.731 307.714 342.476 308.147 343.478 308.147C344.257 308.147 344.875 307.84 345.332 307.225C345.795 306.604 346.026 305.684 346.026 304.465ZM349.296 304.456C349.296 303.524 349.478 302.687 349.841 301.942C350.21 301.198 350.72 300.624 351.37 300.22C352.026 299.815 352.773 299.613 353.611 299.613C354.906 299.613 355.952 300.062 356.749 300.958C357.552 301.854 357.953 303.047 357.953 304.535V304.649C357.953 305.575 357.774 306.407 357.417 307.146C357.065 307.878 356.559 308.449 355.896 308.859C355.24 309.27 354.484 309.475 353.629 309.475C352.34 309.475 351.294 309.026 350.491 308.13C349.694 307.233 349.296 306.047 349.296 304.57V304.456ZM350.931 304.649C350.931 305.704 351.174 306.551 351.66 307.189C352.152 307.828 352.809 308.147 353.629 308.147C354.455 308.147 355.111 307.825 355.598 307.181C356.084 306.53 356.327 305.622 356.327 304.456C356.327 303.413 356.078 302.569 355.58 301.925C355.088 301.274 354.432 300.949 353.611 300.949C352.809 300.949 352.161 301.269 351.669 301.907C351.177 302.546 350.931 303.46 350.931 304.649ZM360.142 309.299V299.789H363.851C365.116 299.789 366.086 300.012 366.76 300.457C367.439 300.896 367.779 301.544 367.779 302.399C367.779 302.839 367.647 303.237 367.384 303.595C367.12 303.946 366.73 304.216 366.215 304.403C366.789 304.538 367.249 304.802 367.595 305.194C367.946 305.587 368.122 306.056 368.122 306.601C368.122 307.474 367.8 308.142 367.155 308.604C366.517 309.067 365.611 309.299 364.439 309.299H360.142ZM361.768 305.124V307.989H364.457C365.137 307.989 365.644 307.863 365.978 307.611C366.317 307.359 366.487 307.005 366.487 306.548C366.487 305.599 365.79 305.124 364.396 305.124H361.768ZM361.768 303.823H363.868C365.392 303.823 366.153 303.378 366.153 302.487C366.153 301.597 365.433 301.137 363.991 301.107H361.768V303.823ZM374.222 309.475C372.933 309.475 371.884 309.053 371.075 308.209C370.267 307.359 369.862 306.226 369.862 304.808V304.509C369.862 303.565 370.041 302.725 370.398 301.986C370.762 301.242 371.266 300.662 371.91 300.246C372.561 299.824 373.264 299.613 374.02 299.613C375.256 299.613 376.217 300.021 376.902 300.835C377.588 301.649 377.931 302.815 377.931 304.333V305.01H371.488C371.512 305.947 371.784 306.706 372.306 307.286C372.833 307.86 373.501 308.147 374.31 308.147C374.884 308.147 375.37 308.03 375.769 307.796C376.167 307.562 376.516 307.251 376.814 306.864L377.808 307.638C377.011 308.862 375.815 309.475 374.222 309.475ZM374.02 300.949C373.363 300.949 372.812 301.189 372.367 301.67C371.922 302.145 371.646 302.812 371.541 303.674H376.305V303.551C376.258 302.725 376.035 302.086 375.637 301.635C375.238 301.178 374.699 300.949 374.02 300.949ZM387.854 304.649C387.854 306.097 387.522 307.263 386.86 308.147C386.198 309.032 385.302 309.475 384.171 309.475C383.017 309.475 382.108 309.108 381.446 308.376V312.955H379.82V299.789H381.306L381.385 300.844C382.047 300.023 382.967 299.613 384.145 299.613C385.287 299.613 386.189 300.044 386.852 300.905C387.52 301.767 387.854 302.965 387.854 304.5V304.649ZM386.228 304.465C386.228 303.393 385.999 302.546 385.542 301.925C385.085 301.304 384.458 300.993 383.661 300.993C382.677 300.993 381.938 301.43 381.446 302.303V306.847C381.933 307.714 382.677 308.147 383.679 308.147C384.458 308.147 385.076 307.84 385.533 307.225C385.996 306.604 386.228 305.684 386.228 304.465ZM393.874 309.475C392.585 309.475 391.536 309.053 390.728 308.209C389.919 307.359 389.515 306.226 389.515 304.808V304.509C389.515 303.565 389.693 302.725 390.051 301.986C390.414 301.242 390.918 300.662 391.562 300.246C392.213 299.824 392.916 299.613 393.672 299.613C394.908 299.613 395.869 300.021 396.555 300.835C397.24 301.649 397.583 302.815 397.583 304.333V305.01H391.141C391.164 305.947 391.437 306.706 391.958 307.286C392.485 307.86 393.153 308.147 393.962 308.147C394.536 308.147 395.022 308.03 395.421 307.796C395.819 307.562 396.168 307.251 396.467 306.864L397.46 307.638C396.663 308.862 395.468 309.475 393.874 309.475ZM393.672 300.949C393.016 300.949 392.465 301.189 392.02 301.67C391.574 302.145 391.299 302.812 391.193 303.674H395.957V303.551C395.91 302.725 395.688 302.086 395.289 301.635C394.891 301.178 394.352 300.949 393.672 300.949ZM407.242 309.299H405.616V305.238H401.248V309.299H399.613V299.789H401.248V303.911H405.616V299.789H407.242V309.299ZM417.631 309.299H416.005V305.238H411.637V309.299H410.002V299.789H411.637V303.911H416.005V299.789H417.631V309.299ZM422.025 303.067H424.495C425.573 303.079 426.426 303.36 427.053 303.911C427.68 304.462 427.993 305.209 427.993 306.152C427.993 307.102 427.671 307.863 427.026 308.438C426.382 309.012 425.515 309.299 424.425 309.299H420.399V299.789H422.025V303.067ZM431.386 309.299H429.751V299.789H431.386V309.299ZM422.025 304.395V307.972H424.442C425.052 307.972 425.523 307.816 425.857 307.506C426.191 307.189 426.358 306.759 426.358 306.214C426.358 305.687 426.194 305.256 425.866 304.922C425.544 304.582 425.09 304.406 424.504 304.395H422.025ZM440.377 299.789H442.003V309.299H440.377V302.364L435.991 309.299H434.365V299.789H435.991V306.732L440.377 299.789ZM440.816 296.326C440.816 297.035 440.573 297.606 440.087 298.04C439.606 298.468 438.974 298.682 438.188 298.682C437.403 298.682 436.768 298.465 436.281 298.031C435.795 297.598 435.552 297.029 435.552 296.326H436.879C436.879 296.736 436.99 297.059 437.213 297.293C437.436 297.521 437.761 297.636 438.188 297.636C438.599 297.636 438.918 297.521 439.146 297.293C439.381 297.064 439.498 296.742 439.498 296.326H440.816ZM335.374 326.134H330.988V334.299H329.354V324.789H335.374V326.134ZM340.56 334.475C339.271 334.475 338.222 334.053 337.413 333.209C336.604 332.359 336.2 331.226 336.2 329.808V329.509C336.2 328.565 336.379 327.725 336.736 326.986C337.1 326.242 337.604 325.662 338.248 325.246C338.898 324.824 339.602 324.613 340.357 324.613C341.594 324.613 342.555 325.021 343.24 325.835C343.926 326.649 344.269 327.815 344.269 329.333V330.01H337.826C337.85 330.947 338.122 331.706 338.644 332.286C339.171 332.86 339.839 333.147 340.647 333.147C341.222 333.147 341.708 333.03 342.106 332.796C342.505 332.562 342.854 332.251 343.152 331.864L344.146 332.638C343.349 333.862 342.153 334.475 340.56 334.475ZM340.357 325.949C339.701 325.949 339.15 326.189 338.705 326.67C338.26 327.145 337.984 327.812 337.879 328.674H342.643V328.551C342.596 327.725 342.373 327.086 341.975 326.635C341.576 326.178 341.037 325.949 340.357 325.949ZM353.928 334.299H352.302V330.238H347.934V334.299H346.299V324.789H347.934V328.911H352.302V324.789H353.928V334.299ZM360.493 334.475C359.204 334.475 358.155 334.053 357.347 333.209C356.538 332.359 356.134 331.226 356.134 329.808V329.509C356.134 328.565 356.312 327.725 356.67 326.986C357.033 326.242 357.537 325.662 358.182 325.246C358.832 324.824 359.535 324.613 360.291 324.613C361.527 324.613 362.488 325.021 363.174 325.835C363.859 326.649 364.202 327.815 364.202 329.333V330.01H357.76C357.783 330.947 358.056 331.706 358.577 332.286C359.104 332.86 359.772 333.147 360.581 333.147C361.155 333.147 361.642 333.03 362.04 332.796C362.438 332.562 362.787 332.251 363.086 331.864L364.079 332.638C363.282 333.862 362.087 334.475 360.493 334.475ZM360.291 325.949C359.635 325.949 359.084 326.189 358.639 326.67C358.193 327.145 357.918 327.812 357.812 328.674H362.576V328.551C362.529 327.725 362.307 327.086 361.908 326.635C361.51 326.178 360.971 325.949 360.291 325.949ZM374.125 329.649C374.125 331.097 373.794 332.263 373.132 333.147C372.47 334.032 371.573 334.475 370.442 334.475C369.288 334.475 368.38 334.108 367.718 333.376V337.955H366.092V324.789H367.577L367.656 325.844C368.318 325.023 369.238 324.613 370.416 324.613C371.559 324.613 372.461 325.044 373.123 325.905C373.791 326.767 374.125 327.965 374.125 329.5V329.649ZM372.499 329.465C372.499 328.393 372.271 327.546 371.813 326.925C371.356 326.304 370.729 325.993 369.933 325.993C368.948 325.993 368.21 326.43 367.718 327.303V331.847C368.204 332.714 368.948 333.147 369.95 333.147C370.729 333.147 371.348 332.84 371.805 332.225C372.268 331.604 372.499 330.684 372.499 329.465ZM382.07 334.299C381.977 334.111 381.9 333.777 381.842 333.297C381.086 334.082 380.184 334.475 379.135 334.475C378.197 334.475 377.427 334.211 376.823 333.684C376.226 333.15 375.927 332.477 375.927 331.662C375.927 330.672 376.302 329.904 377.052 329.359C377.808 328.809 378.868 328.533 380.233 328.533H381.815V327.786C381.815 327.218 381.646 326.767 381.306 326.433C380.966 326.093 380.465 325.923 379.803 325.923C379.223 325.923 378.736 326.069 378.344 326.362C377.951 326.655 377.755 327.01 377.755 327.426H376.12C376.12 326.951 376.287 326.494 376.621 326.055C376.961 325.609 377.418 325.258 377.992 325C378.572 324.742 379.208 324.613 379.899 324.613C380.995 324.613 381.854 324.889 382.475 325.439C383.096 325.984 383.418 326.737 383.441 327.698V332.075C383.441 332.948 383.553 333.643 383.775 334.158V334.299H382.07ZM379.372 333.06C379.882 333.06 380.365 332.928 380.822 332.664C381.279 332.4 381.61 332.058 381.815 331.636V329.685H380.541C378.549 329.685 377.553 330.268 377.553 331.434C377.553 331.943 377.723 332.342 378.062 332.629C378.402 332.916 378.839 333.06 379.372 333.06ZM392.916 326.107H389.726V334.299H388.1V326.107H384.971V324.789H392.916V326.107ZM393.698 329.456C393.698 328.524 393.88 327.687 394.243 326.942C394.612 326.198 395.122 325.624 395.772 325.22C396.429 324.815 397.176 324.613 398.014 324.613C399.309 324.613 400.354 325.062 401.151 325.958C401.954 326.854 402.355 328.047 402.355 329.535V329.649C402.355 330.575 402.177 331.407 401.819 332.146C401.468 332.878 400.961 333.449 400.299 333.859C399.643 334.27 398.887 334.475 398.031 334.475C396.742 334.475 395.696 334.026 394.894 333.13C394.097 332.233 393.698 331.047 393.698 329.57V329.456ZM395.333 329.649C395.333 330.704 395.576 331.551 396.062 332.189C396.555 332.828 397.211 333.147 398.031 333.147C398.857 333.147 399.514 332.825 400 332.181C400.486 331.53 400.729 330.622 400.729 329.456C400.729 328.413 400.48 327.569 399.982 326.925C399.49 326.274 398.834 325.949 398.014 325.949C397.211 325.949 396.563 326.269 396.071 326.907C395.579 327.546 395.333 328.46 395.333 329.649ZM412.428 329.649C412.428 331.097 412.097 332.263 411.435 333.147C410.772 334.032 409.876 334.475 408.745 334.475C407.591 334.475 406.683 334.108 406.021 333.376V337.955H404.395V324.789H405.88L405.959 325.844C406.621 325.023 407.541 324.613 408.719 324.613C409.861 324.613 410.764 325.044 411.426 325.905C412.094 326.767 412.428 327.965 412.428 329.5V329.649ZM410.802 329.465C410.802 328.393 410.573 327.546 410.116 326.925C409.659 326.304 409.032 325.993 408.235 325.993C407.251 325.993 406.513 326.43 406.021 327.303V331.847C406.507 332.714 407.251 333.147 408.253 333.147C409.032 333.147 409.65 332.84 410.107 332.225C410.57 331.604 410.802 330.684 410.802 329.465ZM422.781 333.147C423.361 333.147 423.868 332.972 424.302 332.62C424.735 332.269 424.976 331.829 425.022 331.302H426.561C426.531 331.847 426.344 332.365 425.998 332.857C425.652 333.35 425.189 333.742 424.609 334.035C424.035 334.328 423.426 334.475 422.781 334.475C421.486 334.475 420.455 334.044 419.688 333.183C418.926 332.315 418.545 331.132 418.545 329.632V329.359C418.545 328.434 418.715 327.61 419.055 326.89C419.395 326.169 419.881 325.609 420.514 325.211C421.152 324.812 421.905 324.613 422.772 324.613C423.839 324.613 424.724 324.933 425.427 325.571C426.136 326.21 426.514 327.039 426.561 328.059H425.022C424.976 327.443 424.741 326.939 424.319 326.547C423.903 326.148 423.388 325.949 422.772 325.949C421.946 325.949 421.305 326.248 420.848 326.846C420.396 327.438 420.171 328.296 420.171 329.421V329.729C420.171 330.824 420.396 331.668 420.848 332.26C421.299 332.852 421.943 333.147 422.781 333.147ZM436.185 324.789V334.299H434.55V326.134H431.315L431.122 329.693C431.017 331.328 430.741 332.497 430.296 333.2C429.856 333.903 429.156 334.27 428.195 334.299H427.545V332.866L428.011 332.831C428.538 332.772 428.916 332.468 429.145 331.917C429.373 331.366 429.52 330.347 429.584 328.858L429.76 324.789H436.185ZM441.906 331.917L444.121 324.789H445.861L442.038 335.767C441.446 337.349 440.506 338.14 439.217 338.14L438.909 338.113L438.303 337.999V336.681L438.742 336.716C439.293 336.716 439.721 336.604 440.025 336.382C440.336 336.159 440.591 335.752 440.79 335.16L441.15 334.193L437.758 324.789H439.533L441.906 331.917ZM454.501 334.299H452.866V330.854C452.151 331.041 451.419 331.135 450.669 331.135C449.479 331.135 448.571 330.83 447.944 330.221C447.323 329.611 447.007 328.744 446.995 327.619V324.78H448.621V327.672C448.65 329.09 449.333 329.799 450.669 329.799C451.419 329.799 452.151 329.705 452.866 329.518V324.789H454.501V334.299ZM462.982 334.299C462.889 334.111 462.812 333.777 462.754 333.297C461.998 334.082 461.096 334.475 460.047 334.475C459.109 334.475 458.339 334.211 457.735 333.684C457.138 333.15 456.839 332.477 456.839 331.662C456.839 330.672 457.214 329.904 457.964 329.359C458.72 328.809 459.78 328.533 461.146 328.533H462.728V327.786C462.728 327.218 462.558 326.767 462.218 326.433C461.878 326.093 461.377 325.923 460.715 325.923C460.135 325.923 459.648 326.069 459.256 326.362C458.863 326.655 458.667 327.01 458.667 327.426H457.032C457.032 326.951 457.199 326.494 457.533 326.055C457.873 325.609 458.33 325.258 458.904 325C459.484 324.742 460.12 324.613 460.812 324.613C461.907 324.613 462.766 324.889 463.387 325.439C464.008 325.984 464.33 326.737 464.354 327.698V332.075C464.354 332.948 464.465 333.643 464.688 334.158V334.299H462.982ZM460.284 333.06C460.794 333.06 461.277 332.928 461.734 332.664C462.191 332.4 462.522 332.058 462.728 331.636V329.685H461.453C459.461 329.685 458.465 330.268 458.465 331.434C458.465 331.943 458.635 332.342 458.975 332.629C459.314 332.916 459.751 333.06 460.284 333.06ZM473.055 324.789H474.681V334.299H473.055V327.364L468.669 334.299H467.043V324.789H468.669V331.732L473.055 324.789ZM473.494 321.326C473.494 322.035 473.251 322.606 472.765 323.04C472.284 323.468 471.651 323.682 470.866 323.682C470.081 323.682 469.445 323.465 468.959 323.031C468.473 322.598 468.229 322.029 468.229 321.326H469.557C469.557 321.736 469.668 322.059 469.891 322.293C470.113 322.521 470.438 322.636 470.866 322.636C471.276 322.636 471.596 322.521 471.824 322.293C472.059 322.064 472.176 321.742 472.176 321.326H473.494ZM485.061 334.299H483.435V330.238H479.066V334.299H477.432V324.789H479.066V328.911H483.435V324.789H485.061V334.299ZM489.455 328.067H491.925C493.003 328.079 493.855 328.36 494.482 328.911C495.109 329.462 495.423 330.209 495.423 331.152C495.423 332.102 495.101 332.863 494.456 333.438C493.812 334.012 492.944 334.299 491.854 334.299H487.829V324.789H489.455V328.067ZM498.815 334.299H497.181V324.789H498.815V334.299ZM489.455 329.395V332.972H491.872C492.481 332.972 492.953 332.816 493.287 332.506C493.621 332.189 493.788 331.759 493.788 331.214C493.788 330.687 493.624 330.256 493.296 329.922C492.974 329.582 492.52 329.406 491.934 329.395H489.455ZM504.845 328.261L506.954 324.789H508.853L505.741 329.491L508.949 334.299H507.068L504.871 330.739L502.674 334.299H500.784L503.992 329.491L500.881 324.789H502.762L504.845 328.261ZM336.411 359.299H334.776V355.854C334.062 356.041 333.329 356.135 332.579 356.135C331.39 356.135 330.481 355.83 329.854 355.221C329.233 354.611 328.917 353.744 328.905 352.619V349.78H330.531V352.672C330.561 354.09 331.243 354.799 332.579 354.799C333.329 354.799 334.062 354.705 334.776 354.518V349.789H336.411V359.299ZM345.174 349.789H346.8V359.299H345.174V352.364L340.788 359.299H339.162V349.789H340.788V356.732L345.174 349.789ZM353.225 358.147C353.805 358.147 354.312 357.972 354.745 357.62C355.179 357.269 355.419 356.829 355.466 356.302H357.004C356.975 356.847 356.787 357.365 356.441 357.857C356.096 358.35 355.633 358.742 355.053 359.035C354.479 359.328 353.869 359.475 353.225 359.475C351.93 359.475 350.898 359.044 350.131 358.183C349.369 357.315 348.988 356.132 348.988 354.632V354.359C348.988 353.434 349.158 352.61 349.498 351.89C349.838 351.169 350.324 350.609 350.957 350.211C351.596 349.812 352.349 349.613 353.216 349.613C354.282 349.613 355.167 349.933 355.87 350.571C356.579 351.21 356.957 352.039 357.004 353.059H355.466C355.419 352.443 355.185 351.939 354.763 351.547C354.347 351.148 353.831 350.949 353.216 350.949C352.39 350.949 351.748 351.248 351.291 351.846C350.84 352.438 350.614 353.296 350.614 354.421V354.729C350.614 355.824 350.84 356.668 351.291 357.26C351.742 357.852 352.387 358.147 353.225 358.147ZM362.778 359.475C361.489 359.475 360.44 359.053 359.632 358.209C358.823 357.359 358.419 356.226 358.419 354.808V354.509C358.419 353.565 358.598 352.725 358.955 351.986C359.318 351.242 359.822 350.662 360.467 350.246C361.117 349.824 361.82 349.613 362.576 349.613C363.812 349.613 364.773 350.021 365.459 350.835C366.145 351.649 366.487 352.815 366.487 354.333V355.01H360.045C360.068 355.947 360.341 356.706 360.862 357.286C361.39 357.86 362.058 358.147 362.866 358.147C363.44 358.147 363.927 358.03 364.325 357.796C364.724 357.562 365.072 357.251 365.371 356.864L366.364 357.638C365.567 358.862 364.372 359.475 362.778 359.475ZM362.576 350.949C361.92 350.949 361.369 351.189 360.924 351.67C360.479 352.145 360.203 352.812 360.098 353.674H364.861V353.551C364.814 352.725 364.592 352.086 364.193 351.635C363.795 351.178 363.256 350.949 362.576 350.949ZM376.173 349.789V359.299H374.538V351.134H371.304L371.11 354.693C371.005 356.328 370.729 357.497 370.284 358.2C369.845 358.903 369.145 359.27 368.184 359.299H367.533V357.866L367.999 357.831C368.526 357.772 368.904 357.468 369.133 356.917C369.361 356.366 369.508 355.347 369.572 353.858L369.748 349.789H376.173Z" fill="#1B404E"/>
<rect x="329" y="102.299" width="140" height="140" rx="25" fill="#1B404E"/>
<path fill-rule="evenodd" clip-rule="evenodd" d="M360.818 207.935H435.938V172.299V136.662H360.818V207.935Z" stroke="white" stroke-width="3" stroke-linecap="round" stroke-linejoin="round"/>
<path d="M373.545 200.299V193.935C373.545 187.61 378.674 182.481 385 182.481C391.325 182.481 396.454 177.352 396.454 171.026V162.117" stroke="#FFCF50" stroke-width="3" stroke-linecap="round" stroke-linejoin="round"/>
<path d="M388.818 169.754L396.454 162.117L404.091 169.754" stroke="#FFCF50" stroke-width="3" stroke-linecap="round" stroke-linejoin="round"/>
<path fill-rule="evenodd" clip-rule="evenodd" d="M401.545 149.39C401.545 152.2 399.265 154.481 396.454 154.481C393.644 154.481 391.364 152.2 391.364 149.39C391.364 146.58 393.644 144.299 396.454 144.299C399.265 144.299 401.545 146.58 401.545 149.39Z" stroke="#FFCF50" stroke-width="3" stroke-linecap="round" stroke-linejoin="round"/>
<path d="M391.364 190.117L401.545 200.299" stroke="white" stroke-width="3" stroke-linecap="round" stroke-linejoin="round"/>
<path d="M415.916 176.117L426.098 186.299" stroke="white" stroke-width="3" stroke-linecap="round" stroke-linejoin="round"/>
<path d="M415.916 148.317L426.098 158.499" stroke="white" stroke-width="3" stroke-linecap="round" stroke-linejoin="round"/>
<path d="M401.545 190.117L391.364 200.299" stroke="white" stroke-width="3" stroke-linecap="round" stroke-linejoin="round"/>
<path d="M426.098 176.117L415.916 186.299" stroke="white" stroke-width="3" stroke-linecap="round" stroke-linejoin="round"/>
<path d="M426.098 148.317L415.916 158.499" stroke="white" stroke-width="3" stroke-linecap="round" stroke-linejoin="round"/>
<path d="M371 164.662L381.182 174.844" stroke="white" stroke-width="3" stroke-linecap="round" stroke-linejoin="round"/>
<path d="M381.182 164.662L371 174.844" stroke="white" stroke-width="3" stroke-linecap="round" stroke-linejoin="round"/>
<path d="M395.2 103.049C392.7 106.349 389.217 107.999 384.75 107.999C380.283 107.999 376.783 106.349 374.25 103.049C371.75 99.7155 370.5 95.2988 370.5 89.7988C370.5 84.2988 371.75 79.8988 374.25 76.5988C376.783 73.2655 380.283 71.5988 384.75 71.5988C389.217 71.5988 392.7 73.2655 395.2 76.5988C397.733 79.8988 399 84.2988 399 89.7988C399 95.2988 397.733 99.7155 395.2 103.049ZM378.5 89.7988C378.5 96.7322 380.583 100.199 384.75 100.199C388.917 100.199 391 96.7322 391 89.7988C391 82.8655 388.917 79.3988 384.75 79.3988C380.583 79.3988 378.5 82.8655 378.5 89.7988ZM400.618 107.299L400.618 101.499L412.368 89.2988C414.734 86.8655 415.918 84.7988 415.918 83.0988C415.918 81.9988 415.584 81.1155 414.918 80.4488C414.251 79.7488 413.334 79.3988 412.168 79.3988C409.834 79.3988 408.118 80.6655 407.018 83.1988L400.268 79.2488C401.334 76.7488 402.934 74.8488 405.068 73.5488C407.201 72.2488 409.534 71.5988 412.068 71.5988C415.334 71.5988 418.118 72.6155 420.418 74.6488C422.751 76.6488 423.918 79.3488 423.918 82.7488C423.918 86.4488 422.101 90.1155 418.468 93.7488L412.668 99.5988L424.418 99.5988L424.418 107.299L400.618 107.299Z" fill="#1B404E"/>
<path d="M1.48535 250.299V237.502H5.66895C7.05762 237.502 8.10059 237.789 8.79785 238.363C9.50098 238.938 9.85254 239.787 9.85254 240.912C9.85254 241.51 9.68262 242.04 9.34277 242.503C9.00293 242.96 8.54004 243.314 7.9541 243.566C8.64551 243.76 9.19043 244.129 9.58887 244.674C9.99316 245.213 10.1953 245.857 10.1953 246.607C10.1953 247.756 9.82324 248.658 9.0791 249.314C8.33496 249.971 7.2832 250.299 5.92383 250.299H1.48535ZM3.17285 244.313V248.919H5.95898C6.74414 248.919 7.3623 248.717 7.81348 248.312C8.27051 247.902 8.49902 247.34 8.49902 246.625C8.49902 245.084 7.66113 244.313 5.98535 244.313H3.17285ZM3.17285 242.96H5.72168C6.45996 242.96 7.04883 242.775 7.48828 242.406C7.93359 242.037 8.15625 241.536 8.15625 240.903C8.15625 240.2 7.95117 239.69 7.54102 239.374C7.13086 239.052 6.50684 238.891 5.66895 238.891H3.17285V242.96ZM16.2598 249.147C16.8398 249.147 17.3467 248.972 17.7803 248.62C18.2139 248.269 18.4541 247.829 18.501 247.302H20.0391C20.0098 247.847 19.8223 248.365 19.4766 248.857C19.1309 249.35 18.668 249.742 18.0879 250.035C17.5137 250.328 16.9043 250.475 16.2598 250.475C14.9648 250.475 13.9336 250.044 13.166 249.183C12.4043 248.315 12.0234 247.132 12.0234 245.632V245.359C12.0234 244.434 12.1934 243.61 12.5332 242.89C12.873 242.169 13.3594 241.609 13.9922 241.211C14.6309 240.812 15.3838 240.613 16.251 240.613C17.3174 240.613 18.2021 240.933 18.9053 241.571C19.6143 242.21 19.9922 243.039 20.0391 244.059H18.501C18.4541 243.443 18.2197 242.939 17.7979 242.547C17.3818 242.148 16.8662 241.949 16.251 241.949C15.4248 241.949 14.7832 242.248 14.3262 242.846C13.875 243.438 13.6494 244.296 13.6494 245.421V245.729C13.6494 246.824 13.875 247.668 14.3262 248.26C14.7773 248.852 15.4219 249.147 16.2598 249.147ZM25.8135 250.475C24.5244 250.475 23.4756 250.053 22.667 249.209C21.8584 248.359 21.4541 247.226 21.4541 245.808V245.509C21.4541 244.565 21.6328 243.725 21.9902 242.986C22.3535 242.242 22.8574 241.662 23.502 241.246C24.1523 240.824 24.8555 240.613 25.6113 240.613C26.8477 240.613 27.8086 241.021 28.4941 241.835C29.1797 242.649 29.5225 243.815 29.5225 245.333V246.01H23.0801C23.1035 246.947 23.376 247.706 23.8975 248.286C24.4248 248.86 25.0928 249.147 25.9014 249.147C26.4756 249.147 26.9619 249.03 27.3604 248.796C27.7588 248.562 28.1074 248.251 28.4062 247.864L29.3994 248.638C28.6025 249.862 27.4072 250.475 25.8135 250.475ZM25.6113 241.949C24.9551 241.949 24.4043 242.189 23.959 242.67C23.5137 243.145 23.2383 243.812 23.1328 244.674H27.8965V244.551C27.8496 243.725 27.627 243.086 27.2285 242.635C26.8301 242.178 26.291 241.949 25.6113 241.949ZM43.6553 250.299H42.0293V242.134H37.6523V250.299H36.0176V240.789H43.6553V250.299ZM45.835 245.456C45.835 244.524 46.0166 243.687 46.3799 242.942C46.749 242.198 47.2588 241.624 47.9092 241.22C48.5654 240.815 49.3125 240.613 50.1504 240.613C51.4453 240.613 52.4912 241.062 53.2881 241.958C54.0908 242.854 54.4922 244.047 54.4922 245.535V245.649C54.4922 246.575 54.3135 247.407 53.9561 248.146C53.6045 248.878 53.0977 249.449 52.4355 249.859C51.7793 250.27 51.0234 250.475 50.168 250.475C48.8789 250.475 47.833 250.026 47.0303 249.13C46.2334 248.233 45.835 247.047 45.835 245.57V245.456ZM47.4697 245.649C47.4697 246.704 47.7129 247.551 48.1992 248.189C48.6914 248.828 49.3477 249.147 50.168 249.147C50.9941 249.147 51.6504 248.825 52.1367 248.181C52.623 247.53 52.8662 246.622 52.8662 245.456C52.8662 244.413 52.6172 243.569 52.1191 242.925C51.627 242.274 50.9707 241.949 50.1504 241.949C49.3477 241.949 48.7002 242.269 48.208 242.907C47.7158 243.546 47.4697 244.46 47.4697 245.649ZM60.7061 241.334C61.9014 241.334 62.8564 241.735 63.5713 242.538C64.292 243.335 64.6523 244.387 64.6523 245.693V245.843C64.6523 246.739 64.4795 247.542 64.1338 248.251C63.7881 248.954 63.29 249.502 62.6396 249.895C61.9951 250.281 61.251 250.475 60.4072 250.475C59.1299 250.475 58.1016 250.05 57.3223 249.2C56.543 248.345 56.1533 247.199 56.1533 245.764V244.973C56.1533 242.975 56.5225 241.387 57.2607 240.209C58.0049 239.031 59.1006 238.313 60.5479 238.056C61.3682 237.909 61.9219 237.73 62.209 237.52C62.4961 237.309 62.6396 237.019 62.6396 236.649H63.9756C63.9756 237.382 63.8086 237.953 63.4746 238.363C63.1465 238.773 62.6191 239.063 61.8926 239.233L60.6797 239.506C59.7129 239.734 58.9863 240.121 58.5 240.666C58.0195 241.205 57.7061 241.926 57.5596 242.828C58.4209 241.832 59.4697 241.334 60.7061 241.334ZM60.3896 242.67C59.5928 242.67 58.96 242.939 58.4912 243.479C58.0225 244.012 57.7881 244.753 57.7881 245.702V245.843C57.7881 246.862 58.0225 247.671 58.4912 248.269C58.9658 248.86 59.6045 249.156 60.4072 249.156C61.2158 249.156 61.8545 248.857 62.3232 248.26C62.792 247.662 63.0264 246.789 63.0264 245.641C63.0264 244.744 62.7891 244.026 62.3145 243.487C61.8457 242.942 61.2041 242.67 60.3896 242.67ZM70.4268 250.475C69.1377 250.475 68.0889 250.053 67.2803 249.209C66.4717 248.359 66.0674 247.226 66.0674 245.808V245.509C66.0674 244.565 66.2461 243.725 66.6035 242.986C66.9668 242.242 67.4707 241.662 68.1152 241.246C68.7656 240.824 69.4688 240.613 70.2246 240.613C71.4609 240.613 72.4219 241.021 73.1074 241.835C73.793 242.649 74.1357 243.815 74.1357 245.333V246.01H67.6934C67.7168 246.947 67.9893 247.706 68.5107 248.286C69.0381 248.86 69.7061 249.147 70.5146 249.147C71.0889 249.147 71.5752 249.03 71.9736 248.796C72.3721 248.562 72.7207 248.251 73.0195 247.864L74.0127 248.638C73.2158 249.862 72.0205 250.475 70.4268 250.475ZM70.2246 241.949C69.5684 241.949 69.0176 242.189 68.5723 242.67C68.127 243.145 67.8516 243.812 67.7461 244.674H72.5098V244.551C72.4629 243.725 72.2402 243.086 71.8418 242.635C71.4434 242.178 70.9043 241.949 70.2246 241.949ZM75.9463 248.972L76.5088 248.277C77.1416 247.457 77.502 246.227 77.5898 244.586L77.7393 240.789H83.8652V248.972H85.0869V253.094H83.4609V250.299H76.8252V253.094H75.1992L75.208 248.972H75.9463ZM77.8711 248.972H82.2393V242.292H79.3125L79.2158 244.56C79.1162 246.452 78.668 247.923 77.8711 248.972ZM93.041 240.789H94.667V250.299H93.041V243.364L88.6553 250.299H87.0293V240.789H88.6553V247.732L93.041 240.789ZM104.344 242.107H101.153V250.299H99.5273V242.107H96.3984V240.789H104.344V242.107ZM109.169 250.475C107.88 250.475 106.831 250.053 106.022 249.209C105.214 248.359 104.81 247.226 104.81 245.808V245.509C104.81 244.565 104.988 243.725 105.346 242.986C105.709 242.242 106.213 241.662 106.857 241.246C107.508 240.824 108.211 240.613 108.967 240.613C110.203 240.613 111.164 241.021 111.85 241.835C112.535 242.649 112.878 243.815 112.878 245.333V246.01H106.436C106.459 246.947 106.731 247.706 107.253 248.286C107.78 248.86 108.448 249.147 109.257 249.147C109.831 249.147 110.317 249.03 110.716 248.796C111.114 248.562 111.463 248.251 111.762 247.864L112.755 248.638C111.958 249.862 110.763 250.475 109.169 250.475ZM108.967 241.949C108.311 241.949 107.76 242.189 107.314 242.67C106.869 243.145 106.594 243.812 106.488 244.674H111.252V244.551C111.205 243.725 110.982 243.086 110.584 242.635C110.186 242.178 109.646 241.949 108.967 241.949ZM122.563 240.789V250.299H120.929V242.134H117.694L117.501 245.693C117.396 247.328 117.12 248.497 116.675 249.2C116.235 249.903 115.535 250.27 114.574 250.299H113.924V248.866L114.39 248.831C114.917 248.772 115.295 248.468 115.523 247.917C115.752 247.366 115.898 246.347 115.963 244.858L116.139 240.789H122.563ZM131.326 240.789H132.952V250.299H131.326V243.364L126.94 250.299H125.314V240.789H126.94V247.732L131.326 240.789ZM1.37988 275.299V265.789H5.08887C6.35449 265.789 7.32422 266.012 7.99805 266.457C8.67773 266.896 9.01758 267.544 9.01758 268.399C9.01758 268.839 8.88574 269.237 8.62207 269.595C8.3584 269.946 7.96875 270.216 7.45312 270.403C8.02734 270.538 8.4873 270.802 8.83301 271.194C9.18457 271.587 9.36035 272.056 9.36035 272.601C9.36035 273.474 9.03809 274.142 8.39355 274.604C7.75488 275.067 6.84961 275.299 5.67773 275.299H1.37988ZM3.00586 271.124V273.989H5.69531C6.375 273.989 6.88184 273.863 7.21582 273.611C7.55566 273.359 7.72559 273.005 7.72559 272.548C7.72559 271.599 7.02832 271.124 5.63379 271.124H3.00586ZM3.00586 269.823H5.10645C6.62988 269.823 7.3916 269.378 7.3916 268.487C7.3916 267.597 6.6709 267.137 5.22949 267.107H3.00586V269.823ZM13.2891 269.067H15.7588C16.8369 269.079 17.6895 269.36 18.3164 269.911C18.9434 270.462 19.2568 271.209 19.2568 272.152C19.2568 273.102 18.9346 273.863 18.29 274.438C17.6455 275.012 16.7783 275.299 15.6885 275.299H11.6631V265.789H13.2891V269.067ZM22.6494 275.299H21.0146V265.789H22.6494V275.299ZM13.2891 270.395V273.972H15.7061C16.3154 273.972 16.7871 273.816 17.1211 273.506C17.4551 273.189 17.6221 272.759 17.6221 272.214C17.6221 271.687 17.458 271.256 17.1299 270.922C16.8076 270.582 16.3535 270.406 15.7676 270.395H13.2891ZM29.6631 266.334C30.8584 266.334 31.8135 266.735 32.5283 267.538C33.249 268.335 33.6094 269.387 33.6094 270.693V270.843C33.6094 271.739 33.4365 272.542 33.0908 273.251C32.7451 273.954 32.2471 274.502 31.5967 274.895C30.9521 275.281 30.208 275.475 29.3643 275.475C28.0869 275.475 27.0586 275.05 26.2793 274.2C25.5 273.345 25.1104 272.199 25.1104 270.764V269.973C25.1104 267.975 25.4795 266.387 26.2178 265.209C26.9619 264.031 28.0576 263.313 29.5049 263.056C30.3252 262.909 30.8789 262.73 31.166 262.52C31.4531 262.309 31.5967 262.019 31.5967 261.649H32.9326C32.9326 262.382 32.7656 262.953 32.4316 263.363C32.1035 263.773 31.5762 264.063 30.8496 264.233L29.6367 264.506C28.6699 264.734 27.9434 265.121 27.457 265.666C26.9766 266.205 26.6631 266.926 26.5166 267.828C27.3779 266.832 28.4268 266.334 29.6631 266.334ZM29.3467 267.67C28.5498 267.67 27.917 267.939 27.4482 268.479C26.9795 269.012 26.7451 269.753 26.7451 270.702V270.843C26.7451 271.862 26.9795 272.671 27.4482 273.269C27.9229 273.86 28.5615 274.156 29.3643 274.156C30.1729 274.156 30.8115 273.857 31.2803 273.26C31.749 272.662 31.9834 271.789 31.9834 270.641C31.9834 269.744 31.7461 269.026 31.2715 268.487C30.8027 267.942 30.1611 267.67 29.3467 267.67ZM41.4316 265.789H43.0576V275.299H41.4316V268.364L37.0459 275.299H35.4199V265.789H37.0459V272.732L41.4316 265.789ZM53.7012 270.649C53.7012 272.097 53.3701 273.263 52.708 274.147C52.0459 275.032 51.1494 275.475 50.0186 275.475C48.8643 275.475 47.9561 275.108 47.2939 274.376V278.955H45.668V265.789H47.1533L47.2324 266.844C47.8945 266.023 48.8145 265.613 49.9922 265.613C51.1348 265.613 52.0371 266.044 52.6992 266.905C53.3672 267.767 53.7012 268.965 53.7012 270.5V270.649ZM52.0752 270.465C52.0752 269.393 51.8467 268.546 51.3896 267.925C50.9326 267.304 50.3057 266.993 49.5088 266.993C48.5244 266.993 47.7861 267.43 47.2939 268.303V272.847C47.7803 273.714 48.5244 274.147 49.5264 274.147C50.3057 274.147 50.9238 273.84 51.3809 273.225C51.8438 272.604 52.0752 271.684 52.0752 270.465ZM61.6465 275.299C61.5527 275.111 61.4766 274.777 61.418 274.297C60.6621 275.082 59.7598 275.475 58.7109 275.475C57.7734 275.475 57.0029 275.211 56.3994 274.684C55.8018 274.15 55.5029 273.477 55.5029 272.662C55.5029 271.672 55.8779 270.904 56.6279 270.359C57.3838 269.809 58.4443 269.533 59.8096 269.533H61.3916V268.786C61.3916 268.218 61.2217 267.767 60.8818 267.433C60.542 267.093 60.041 266.923 59.3789 266.923C58.7988 266.923 58.3125 267.069 57.9199 267.362C57.5273 267.655 57.3311 268.01 57.3311 268.426H55.6963C55.6963 267.951 55.8633 267.494 56.1973 267.055C56.5371 266.609 56.9941 266.258 57.5684 266C58.1484 265.742 58.7842 265.613 59.4756 265.613C60.5713 265.613 61.4297 265.889 62.0508 266.439C62.6719 266.984 62.9941 267.737 63.0176 268.698V273.075C63.0176 273.948 63.1289 274.643 63.3516 275.158V275.299H61.6465ZM58.9482 274.06C59.458 274.06 59.9414 273.928 60.3984 273.664C60.8555 273.4 61.1865 273.058 61.3916 272.636V270.685H60.1172C58.125 270.685 57.1289 271.268 57.1289 272.434C57.1289 272.943 57.2988 273.342 57.6387 273.629C57.9785 273.916 58.415 274.06 58.9482 274.06ZM67.3418 269.823H69.627C69.75 268.558 70.1982 267.541 70.9717 266.773C71.751 266 72.7324 265.613 73.916 265.613C75.1582 265.613 76.1748 266.032 76.9658 266.87C77.7568 267.708 78.1846 268.798 78.249 270.14L78.2578 270.649C78.2578 271.575 78.0762 272.41 77.7129 273.154C77.3496 273.898 76.8398 274.473 76.1836 274.877C75.5273 275.275 74.7773 275.475 73.9336 275.475C72.709 275.475 71.707 275.076 70.9277 274.279C70.1484 273.477 69.7119 272.437 69.6182 271.159H67.3418V275.299H65.7158V265.789H67.3418V269.823ZM71.2266 270.649C71.2266 271.704 71.4697 272.551 71.9561 273.189C72.4482 273.828 73.1074 274.147 73.9336 274.147C74.7598 274.147 75.4131 273.822 75.8936 273.172C76.3799 272.521 76.623 271.616 76.623 270.456C76.623 269.419 76.377 268.575 75.8848 267.925C75.3926 267.274 74.7363 266.949 73.916 266.949C73.1074 266.949 72.457 267.269 71.9648 267.907C71.4727 268.546 71.2266 269.46 71.2266 270.649ZM87.3281 267.107H84.1377V275.299H82.5117V267.107H79.3828V265.789H87.3281V267.107ZM92.0215 274.147C92.6016 274.147 93.1084 273.972 93.542 273.62C93.9756 273.269 94.2158 272.829 94.2627 272.302H95.8008C95.7715 272.847 95.584 273.365 95.2383 273.857C94.8926 274.35 94.4297 274.742 93.8496 275.035C93.2754 275.328 92.666 275.475 92.0215 275.475C90.7266 275.475 89.6953 275.044 88.9277 274.183C88.166 273.315 87.7852 272.132 87.7852 270.632V270.359C87.7852 269.434 87.9551 268.61 88.2949 267.89C88.6348 267.169 89.1211 266.609 89.7539 266.211C90.3926 265.812 91.1455 265.613 92.0127 265.613C93.0791 265.613 93.9639 265.933 94.667 266.571C95.376 267.21 95.7539 268.039 95.8008 269.059H94.2627C94.2158 268.443 93.9814 267.939 93.5596 267.547C93.1436 267.148 92.6279 266.949 92.0127 266.949C91.1865 266.949 90.5449 267.248 90.0879 267.846C89.6367 268.438 89.4111 269.296 89.4111 270.421V270.729C89.4111 271.824 89.6367 272.668 90.0879 273.26C90.5391 273.852 91.1836 274.147 92.0215 274.147ZM104.897 265.789V275.299H103.263V271.599H100.811L98.5693 275.299H96.8115L99.2021 271.353C98.5928 271.13 98.124 270.787 97.7959 270.324C97.4736 269.855 97.3125 269.311 97.3125 268.689C97.3125 267.822 97.6377 267.125 98.2881 266.598C98.9385 266.064 99.8086 265.795 100.898 265.789H104.897ZM98.9473 268.707C98.9473 269.17 99.1055 269.545 99.4219 269.832C99.7383 270.113 100.157 270.257 100.679 270.263H103.263V267.107H100.925C100.321 267.107 99.8408 267.257 99.4834 267.556C99.126 267.849 98.9473 268.232 98.9473 268.707ZM7.38281 290.789H9.00879V300.299H7.38281V293.364L2.99707 300.299H1.37109V290.789H2.99707V297.732L7.38281 290.789ZM16.8486 293.391C16.8486 292.945 16.6787 292.594 16.3389 292.336C15.999 292.072 15.5332 291.94 14.9414 291.94C14.3672 291.94 13.8867 292.09 13.5 292.389C13.1191 292.688 12.9287 293.039 12.9287 293.443H11.3115C11.3115 292.617 11.6572 291.94 12.3486 291.413C13.04 290.886 13.9043 290.622 14.9414 290.622C16.0547 290.622 16.9219 290.862 17.543 291.343C18.1641 291.817 18.4746 292.497 18.4746 293.382C18.4746 293.81 18.3457 294.202 18.0879 294.56C17.8301 294.917 17.4639 295.201 16.9893 295.412C18.0967 295.787 18.6504 296.525 18.6504 297.627C18.6504 298.5 18.3135 299.191 17.6396 299.701C16.9658 300.211 16.0664 300.466 14.9414 300.466C13.8457 300.466 12.9404 300.199 12.2256 299.666C11.5166 299.127 11.1621 298.4 11.1621 297.486H12.7793C12.7793 297.949 12.9844 298.348 13.3945 298.682C13.8105 299.01 14.3262 299.174 14.9414 299.174C15.5625 299.174 16.0635 299.03 16.4443 298.743C16.8252 298.456 17.0156 298.084 17.0156 297.627C17.0156 297.094 16.8545 296.713 16.5322 296.484C16.2158 296.25 15.7207 296.133 15.0469 296.133H13.4209V294.762H15.1875C16.2949 294.732 16.8486 294.275 16.8486 293.391ZM33.0029 300.299H31.377V292.134H27V300.299H25.3652V290.789H33.0029V300.299ZM35.1826 295.456C35.1826 294.524 35.3643 293.687 35.7275 292.942C36.0967 292.198 36.6064 291.624 37.2568 291.22C37.9131 290.815 38.6602 290.613 39.498 290.613C40.793 290.613 41.8389 291.062 42.6357 291.958C43.4385 292.854 43.8398 294.047 43.8398 295.535V295.649C43.8398 296.575 43.6611 297.407 43.3037 298.146C42.9521 298.878 42.4453 299.449 41.7832 299.859C41.127 300.27 40.3711 300.475 39.5156 300.475C38.2266 300.475 37.1807 300.026 36.3779 299.13C35.5811 298.233 35.1826 297.047 35.1826 295.57V295.456ZM36.8174 295.649C36.8174 296.704 37.0605 297.551 37.5469 298.189C38.0391 298.828 38.6953 299.147 39.5156 299.147C40.3418 299.147 40.998 298.825 41.4844 298.181C41.9707 297.53 42.2139 296.622 42.2139 295.456C42.2139 294.413 41.9648 293.569 41.4668 292.925C40.9746 292.274 40.3184 291.949 39.498 291.949C38.6953 291.949 38.0479 292.269 37.5557 292.907C37.0635 293.546 36.8174 294.46 36.8174 295.649ZM45.167 298.972L45.7295 298.277C46.3623 297.457 46.7227 296.227 46.8105 294.586L46.96 290.789H53.0859V298.972H54.3076V303.094H52.6816V300.299H46.0459V303.094H44.4199L44.4287 298.972H45.167ZM47.0918 298.972H51.46V292.292H48.5332L48.4365 294.56C48.3369 296.452 47.8887 297.923 47.0918 298.972ZM63.8877 300.299H62.2617V292.134H57.8848V300.299H56.25V290.789H63.8877V300.299ZM72.6504 290.789H74.2764V300.299H72.6504V293.364L68.2646 300.299H66.6387V290.789H68.2646V297.732L72.6504 290.789ZM80.7012 299.147C81.2812 299.147 81.7881 298.972 82.2217 298.62C82.6553 298.269 82.8955 297.829 82.9424 297.302H84.4805C84.4512 297.847 84.2637 298.365 83.918 298.857C83.5723 299.35 83.1094 299.742 82.5293 300.035C81.9551 300.328 81.3457 300.475 80.7012 300.475C79.4062 300.475 78.375 300.044 77.6074 299.183C76.8457 298.315 76.4648 297.132 76.4648 295.632V295.359C76.4648 294.434 76.6348 293.61 76.9746 292.89C77.3145 292.169 77.8008 291.609 78.4336 291.211C79.0723 290.812 79.8252 290.613 80.6924 290.613C81.7588 290.613 82.6436 290.933 83.3467 291.571C84.0557 292.21 84.4336 293.039 84.4805 294.059H82.9424C82.8955 293.443 82.6611 292.939 82.2393 292.547C81.8232 292.148 81.3076 291.949 80.6924 291.949C79.8662 291.949 79.2246 292.248 78.7676 292.846C78.3164 293.438 78.0908 294.296 78.0908 295.421V295.729C78.0908 296.824 78.3164 297.668 78.7676 298.26C79.2188 298.852 79.8633 299.147 80.7012 299.147ZM93.4893 300.299H91.8545V296.854C91.1396 297.041 90.4072 297.135 89.6572 297.135C88.4678 297.135 87.5596 296.83 86.9326 296.221C86.3115 295.611 85.9951 294.744 85.9834 293.619V290.78H87.6094V293.672C87.6387 295.09 88.3213 295.799 89.6572 295.799C90.4072 295.799 91.1396 295.705 91.8545 295.518V290.789H93.4893V300.299ZM102.252 290.789H103.878V300.299H102.252V293.364L97.8662 300.299H96.2402V290.789H97.8662V297.732L102.252 290.789ZM109.45 296.247H108.264V300.299H106.629V290.789H108.264V294.814H109.327L112.526 290.789H114.495L110.733 295.359L114.812 300.299H112.746L109.45 296.247ZM115.585 295.456C115.585 294.524 115.767 293.687 116.13 292.942C116.499 292.198 117.009 291.624 117.659 291.22C118.315 290.815 119.062 290.613 119.9 290.613C121.195 290.613 122.241 291.062 123.038 291.958C123.841 292.854 124.242 294.047 124.242 295.535V295.649C124.242 296.575 124.063 297.407 123.706 298.146C123.354 298.878 122.848 299.449 122.186 299.859C121.529 300.27 120.773 300.475 119.918 300.475C118.629 300.475 117.583 300.026 116.78 299.13C115.983 298.233 115.585 297.047 115.585 295.57V295.456ZM117.22 295.649C117.22 296.704 117.463 297.551 117.949 298.189C118.441 298.828 119.098 299.147 119.918 299.147C120.744 299.147 121.4 298.825 121.887 298.181C122.373 297.53 122.616 296.622 122.616 295.456C122.616 294.413 122.367 293.569 121.869 292.925C121.377 292.274 120.721 291.949 119.9 291.949C119.098 291.949 118.45 292.269 117.958 292.907C117.466 293.546 117.22 294.46 117.22 295.649ZM126.431 300.299V290.789H130.14C131.405 290.789 132.375 291.012 133.049 291.457C133.729 291.896 134.068 292.544 134.068 293.399C134.068 293.839 133.937 294.237 133.673 294.595C133.409 294.946 133.02 295.216 132.504 295.403C133.078 295.538 133.538 295.802 133.884 296.194C134.235 296.587 134.411 297.056 134.411 297.601C134.411 298.474 134.089 299.142 133.444 299.604C132.806 300.067 131.9 300.299 130.729 300.299H126.431ZM128.057 296.124V298.989H130.746C131.426 298.989 131.933 298.863 132.267 298.611C132.606 298.359 132.776 298.005 132.776 297.548C132.776 296.599 132.079 296.124 130.685 296.124H128.057ZM128.057 294.823H130.157C131.681 294.823 132.442 294.378 132.442 293.487C132.442 292.597 131.722 292.137 130.28 292.107H128.057V294.823Z" fill="#1B404E"/>
<rect y="68.2988" width="140" height="140" rx="25" fill="#1B404E"/>
<path d="M102.719 128.839C103.785 132.227 104.363 135.831 104.363 139.57C104.363 159.252 88.4084 175.207 68.7269 175.207C49.0455 175.207 33.0906 159.252 33.0906 139.57C33.0906 119.889 49.0455 103.934 68.7269 103.934C72.2193 103.934 75.592 104.438 78.7789 105.372" stroke="white" stroke-width="3" stroke-linecap="round" stroke-linejoin="round"/>
<path d="M83.7469 136.795C83.9124 137.696 83.9989 138.623 83.9989 139.572C83.9989 148.005 77.1619 154.845 68.7262 154.845C60.2931 154.845 53.4535 148.005 53.4535 139.572C53.4535 131.136 60.2931 124.299 68.7262 124.299C69.5764 124.299 70.4088 124.368 71.2208 124.5" stroke="white" stroke-width="3" stroke-linecap="round" stroke-linejoin="round"/>
<path d="M68.7266 139.57L104.363 103.934" stroke="#FFCF50" stroke-width="3" stroke-linecap="round" stroke-linejoin="round"/>
<path fill-rule="evenodd" clip-rule="evenodd" d="M96.7272 111.571V101.39L86.5454 111.571V121.753H96.7272L106.909 111.571H96.7272Z" stroke="#FFCF50" stroke-width="3" stroke-linecap="round" stroke-linejoin="round"/>
<path d="M70.2 69.0488C67.7 72.3488 64.2167 73.9988 59.75 73.9988C55.2833 73.9988 51.7833 72.3488 49.25 69.0488C46.75 65.7155 45.5 61.2988 45.5 55.7988C45.5 50.2988 46.75 45.8988 49.25 42.5988C51.7833 39.2655 55.2833 37.5988 59.75 37.5988C64.2167 37.5988 67.7 39.2655 70.2 42.5988C72.7333 45.8988 74 50.2988 74 55.7988C74 61.2988 72.7333 65.7155 70.2 69.0488ZM53.5 55.7988C53.5 62.7322 55.5833 66.1988 59.75 66.1988C63.9167 66.1988 66 62.7322 66 55.7988C66 48.8655 63.9167 45.3988 59.75 45.3988C55.5833 45.3988 53.5 48.8655 53.5 55.7988ZM84.1676 38.2988L91.1676 38.2988L91.1676 73.2988L83.1676 73.2988L83.1676 46.7488L76.9676 48.4488L75.0176 41.5988L84.1676 38.2988Z" fill="#1B404E"/>
<path d="M138.997 131.799V131.799C194.764 181.368 272.593 197.732 343.599 174.82L385.5 161.299" stroke="#1B404E" stroke-opacity="0.1" stroke-width="3" stroke-dasharray="3 3"/>
<path d="M453.5 152.799L489.361 126.396C549.525 82.0987 631.224 81.0543 692.5 123.799V123.799" stroke="#1B404E" stroke-opacity="0.1" stroke-width="3" stroke-dasharray="3 3"/>
</svg>
