<svg width="155" height="287" viewBox="0 0 155 287" fill="none" xmlns="http://www.w3.org/2000/svg">
<path d="M1.48535 230.299V217.502H5.66895C7.05762 217.502 8.10059 217.789 8.79785 218.363C9.50098 218.938 9.85254 219.787 9.85254 220.912C9.85254 221.51 9.68262 222.04 9.34277 222.503C9.00293 222.96 8.54004 223.314 7.9541 223.566C8.64551 223.76 9.19043 224.129 9.58887 224.674C9.99316 225.213 10.1953 225.857 10.1953 226.607C10.1953 227.756 9.82324 228.658 9.0791 229.314C8.33496 229.971 7.2832 230.299 5.92383 230.299H1.48535ZM3.17285 224.313V228.919H5.95898C6.74414 228.919 7.3623 228.717 7.81348 228.312C8.27051 227.902 8.49902 227.34 8.49902 226.625C8.49902 225.084 7.66113 224.313 5.98535 224.313H3.17285ZM3.17285 222.96H5.72168C6.45996 222.96 7.04883 222.775 7.48828 222.406C7.93359 222.037 8.15625 221.536 8.15625 220.903C8.15625 220.2 7.95117 219.69 7.54102 219.374C7.13086 219.052 6.50684 218.891 5.66895 218.891H3.17285V222.96ZM16.2598 229.147C16.8398 229.147 17.3467 228.972 17.7803 228.62C18.2139 228.269 18.4541 227.829 18.501 227.302H20.0391C20.0098 227.847 19.8223 228.365 19.4766 228.857C19.1309 229.35 18.668 229.742 18.0879 230.035C17.5137 230.328 16.9043 230.475 16.2598 230.475C14.9648 230.475 13.9336 230.044 13.166 229.183C12.4043 228.315 12.0234 227.132 12.0234 225.632V225.359C12.0234 224.434 12.1934 223.61 12.5332 222.89C12.873 222.169 13.3594 221.609 13.9922 221.211C14.6309 220.812 15.3838 220.613 16.251 220.613C17.3174 220.613 18.2021 220.933 18.9053 221.571C19.6143 222.21 19.9922 223.039 20.0391 224.059H18.501C18.4541 223.443 18.2197 222.939 17.7979 222.547C17.3818 222.148 16.8662 221.949 16.251 221.949C15.4248 221.949 14.7832 222.248 14.3262 222.846C13.875 223.438 13.6494 224.296 13.6494 225.421V225.729C13.6494 226.824 13.875 227.668 14.3262 228.26C14.7773 228.852 15.4219 229.147 16.2598 229.147ZM25.8135 230.475C24.5244 230.475 23.4756 230.053 22.667 229.209C21.8584 228.359 21.4541 227.226 21.4541 225.808V225.509C21.4541 224.565 21.6328 223.725 21.9902 222.986C22.3535 222.242 22.8574 221.662 23.502 221.246C24.1523 220.824 24.8555 220.613 25.6113 220.613C26.8477 220.613 27.8086 221.021 28.4941 221.835C29.1797 222.649 29.5225 223.815 29.5225 225.333V226.01H23.0801C23.1035 226.947 23.376 227.706 23.8975 228.286C24.4248 228.86 25.0928 229.147 25.9014 229.147C26.4756 229.147 26.9619 229.03 27.3604 228.796C27.7588 228.562 28.1074 228.251 28.4062 227.864L29.3994 228.638C28.6025 229.862 27.4072 230.475 25.8135 230.475ZM25.6113 221.949C24.9551 221.949 24.4043 222.189 23.959 222.67C23.5137 223.145 23.2383 223.812 23.1328 224.674H27.8965V224.551C27.8496 223.725 27.627 223.086 27.2285 222.635C26.8301 222.178 26.291 221.949 25.6113 221.949ZM41.1064 223.391C41.1064 222.945 40.9365 222.594 40.5967 222.336C40.2568 222.072 39.791 221.94 39.1992 221.94C38.625 221.94 38.1445 222.09 37.7578 222.389C37.377 222.688 37.1865 223.039 37.1865 223.443H35.5693C35.5693 222.617 35.915 221.94 36.6064 221.413C37.2979 220.886 38.1621 220.622 39.1992 220.622C40.3125 220.622 41.1797 220.862 41.8008 221.343C42.4219 221.817 42.7324 222.497 42.7324 223.382C42.7324 223.81 42.6035 224.202 42.3457 224.56C42.0879 224.917 41.7217 225.201 41.2471 225.412C42.3545 225.787 42.9082 226.525 42.9082 227.627C42.9082 228.5 42.5713 229.191 41.8975 229.701C41.2236 230.211 40.3242 230.466 39.1992 230.466C38.1035 230.466 37.1982 230.199 36.4834 229.666C35.7744 229.127 35.4199 228.4 35.4199 227.486H37.0371C37.0371 227.949 37.2422 228.348 37.6523 228.682C38.0684 229.01 38.584 229.174 39.1992 229.174C39.8203 229.174 40.3213 229.03 40.7021 228.743C41.083 228.456 41.2734 228.084 41.2734 227.627C41.2734 227.094 41.1123 226.713 40.79 226.484C40.4736 226.25 39.9785 226.133 39.3047 226.133H37.6787V224.762H39.4453C40.5527 224.732 41.1064 224.275 41.1064 223.391ZM50.8887 230.299C50.7949 230.111 50.7188 229.777 50.6602 229.297C49.9043 230.082 49.002 230.475 47.9531 230.475C47.0156 230.475 46.2451 230.211 45.6416 229.684C45.0439 229.15 44.7451 228.477 44.7451 227.662C44.7451 226.672 45.1201 225.904 45.8701 225.359C46.626 224.809 47.6865 224.533 49.0518 224.533H50.6338V223.786C50.6338 223.218 50.4639 222.767 50.124 222.433C49.7842 222.093 49.2832 221.923 48.6211 221.923C48.041 221.923 47.5547 222.069 47.1621 222.362C46.7695 222.655 46.5732 223.01 46.5732 223.426H44.9385C44.9385 222.951 45.1055 222.494 45.4395 222.055C45.7793 221.609 46.2363 221.258 46.8105 221C47.3906 220.742 48.0264 220.613 48.7178 220.613C49.8135 220.613 50.6719 220.889 51.293 221.439C51.9141 221.984 52.2363 222.737 52.2598 223.698V228.075C52.2598 228.948 52.3711 229.643 52.5938 230.158V230.299H50.8887ZM48.1904 229.06C48.7002 229.06 49.1836 228.928 49.6406 228.664C50.0977 228.4 50.4287 228.058 50.6338 227.636V225.685H49.3594C47.3672 225.685 46.3711 226.268 46.3711 227.434C46.3711 227.943 46.541 228.342 46.8809 228.629C47.2207 228.916 47.6572 229.06 48.1904 229.06ZM62.5869 230.299H60.9609V222.134H56.584V230.299H54.9492V220.789H62.5869V230.299ZM71.3496 220.789H72.9756V230.299H71.3496V223.364L66.9639 230.299H65.3379V220.789H66.9639V227.732L71.3496 220.789ZM79.4004 229.147C79.9805 229.147 80.4873 228.972 80.9209 228.62C81.3545 228.269 81.5947 227.829 81.6416 227.302H83.1797C83.1504 227.847 82.9629 228.365 82.6172 228.857C82.2715 229.35 81.8086 229.742 81.2285 230.035C80.6543 230.328 80.0449 230.475 79.4004 230.475C78.1055 230.475 77.0742 230.044 76.3066 229.183C75.5449 228.315 75.1641 227.132 75.1641 225.632V225.359C75.1641 224.434 75.334 223.61 75.6738 222.89C76.0137 222.169 76.5 221.609 77.1328 221.211C77.7715 220.812 78.5244 220.613 79.3916 220.613C80.458 220.613 81.3428 220.933 82.0459 221.571C82.7549 222.21 83.1328 223.039 83.1797 224.059H81.6416C81.5947 223.443 81.3604 222.939 80.9385 222.547C80.5225 222.148 80.0068 221.949 79.3916 221.949C78.5654 221.949 77.9238 222.248 77.4668 222.846C77.0156 223.438 76.79 224.296 76.79 225.421V225.729C76.79 226.824 77.0156 227.668 77.4668 228.26C77.918 228.852 78.5625 229.147 79.4004 229.147ZM91.1602 220.789H92.7861V230.299H91.1602V223.364L86.7744 230.299H85.1484V220.789H86.7744V227.732L91.1602 220.789ZM7.38281 245.789H9.00879V255.299H7.38281V248.364L2.99707 255.299H1.37109V245.789H2.99707V252.732L7.38281 245.789ZM23.8623 255.299H22.2363V247.134H17.8594V255.299H16.2246V245.789H23.8623V255.299ZM26.042 250.456C26.042 249.524 26.2236 248.687 26.5869 247.942C26.9561 247.198 27.4658 246.624 28.1162 246.22C28.7725 245.815 29.5195 245.613 30.3574 245.613C31.6523 245.613 32.6982 246.062 33.4951 246.958C34.2979 247.854 34.6992 249.047 34.6992 250.535V250.649C34.6992 251.575 34.5205 252.407 34.1631 253.146C33.8115 253.878 33.3047 254.449 32.6426 254.859C31.9863 255.27 31.2305 255.475 30.375 255.475C29.0859 255.475 28.04 255.026 27.2373 254.13C26.4404 253.233 26.042 252.047 26.042 250.57V250.456ZM27.6768 250.649C27.6768 251.704 27.9199 252.551 28.4062 253.189C28.8984 253.828 29.5547 254.147 30.375 254.147C31.2012 254.147 31.8574 253.825 32.3438 253.181C32.8301 252.53 33.0732 251.622 33.0732 250.456C33.0732 249.413 32.8242 248.569 32.3262 247.925C31.834 247.274 31.1777 246.949 30.3574 246.949C29.5547 246.949 28.9072 247.269 28.415 247.907C27.9229 248.546 27.6768 249.46 27.6768 250.649ZM36.0264 253.972L36.5889 253.277C37.2217 252.457 37.582 251.227 37.6699 249.586L37.8193 245.789H43.9453V253.972H45.167V258.094H43.541V255.299H36.9053V258.094H35.2793L35.2881 253.972H36.0264ZM37.9512 253.972H42.3193V247.292H39.3926L39.2959 249.56C39.1963 251.452 38.748 252.923 37.9512 253.972ZM53.8594 247.107H50.6689V255.299H49.043V247.107H45.9141V245.789H53.8594V247.107ZM55.5908 255.299V245.789H59.2998C60.5654 245.789 61.5352 246.012 62.209 246.457C62.8887 246.896 63.2285 247.544 63.2285 248.399C63.2285 248.839 63.0967 249.237 62.833 249.595C62.5693 249.946 62.1797 250.216 61.6641 250.403C62.2383 250.538 62.6982 250.802 63.0439 251.194C63.3955 251.587 63.5713 252.056 63.5713 252.601C63.5713 253.474 63.249 254.142 62.6045 254.604C61.9658 255.067 61.0605 255.299 59.8887 255.299H55.5908ZM57.2168 251.124V253.989H59.9062C60.5859 253.989 61.0928 253.863 61.4268 253.611C61.7666 253.359 61.9365 253.005 61.9365 252.548C61.9365 251.599 61.2393 251.124 59.8447 251.124H57.2168ZM57.2168 249.823H59.3174C60.8408 249.823 61.6025 249.378 61.6025 248.487C61.6025 247.597 60.8818 247.137 59.4404 247.107H57.2168V249.823ZM69.6709 255.475C68.3818 255.475 67.333 255.053 66.5244 254.209C65.7158 253.359 65.3115 252.226 65.3115 250.808V250.509C65.3115 249.565 65.4902 248.725 65.8477 247.986C66.2109 247.242 66.7148 246.662 67.3594 246.246C68.0098 245.824 68.7129 245.613 69.4688 245.613C70.7051 245.613 71.666 246.021 72.3516 246.835C73.0371 247.649 73.3799 248.815 73.3799 250.333V251.01H66.9375C66.9609 251.947 67.2334 252.706 67.7549 253.286C68.2822 253.86 68.9502 254.147 69.7588 254.147C70.333 254.147 70.8193 254.03 71.2178 253.796C71.6162 253.562 71.9648 253.251 72.2637 252.864L73.2568 253.638C72.46 254.862 71.2646 255.475 69.6709 255.475ZM69.4688 246.949C68.8125 246.949 68.2617 247.189 67.8164 247.67C67.3711 248.145 67.0957 248.812 66.9902 249.674H71.7539V249.551C71.707 248.725 71.4844 248.086 71.0859 247.635C70.6875 247.178 70.1484 246.949 69.4688 246.949ZM83.3027 250.649C83.3027 252.097 82.9717 253.263 82.3096 254.147C81.6475 255.032 80.751 255.475 79.6201 255.475C78.4658 255.475 77.5576 255.108 76.8955 254.376V258.955H75.2695V245.789H76.7549L76.834 246.844C77.4961 246.023 78.416 245.613 79.5938 245.613C80.7363 245.613 81.6387 246.044 82.3008 246.905C82.9688 247.767 83.3027 248.965 83.3027 250.5V250.649ZM81.6768 250.465C81.6768 249.393 81.4482 248.546 80.9912 247.925C80.5342 247.304 79.9072 246.993 79.1104 246.993C78.126 246.993 77.3877 247.43 76.8955 248.303V252.847C77.3818 253.714 78.126 254.147 79.1279 254.147C79.9072 254.147 80.5254 253.84 80.9824 253.225C81.4453 252.604 81.6768 251.684 81.6768 250.465ZM92.8213 251.168H91.6787V255.299H90.0527V251.168H88.9102L86.2471 255.299H84.1904L87.5918 250.377L84.5156 245.789H86.4844L88.9365 249.727H90.0527V245.789H91.6787V249.727H92.7861L95.2559 245.789H97.2246L94.1396 250.386L97.541 255.299H95.4844L92.8213 251.168ZM98.9385 253.972L99.501 253.277C100.134 252.457 100.494 251.227 100.582 249.586L100.731 245.789H106.857V253.972H108.079V258.094H106.453V255.299H99.8174V258.094H98.1914L98.2002 253.972H98.9385ZM100.863 253.972H105.231V247.292H102.305L102.208 249.56C102.108 251.452 101.66 252.923 100.863 253.972ZM113.827 255.475C112.538 255.475 111.489 255.053 110.681 254.209C109.872 253.359 109.468 252.226 109.468 250.808V250.509C109.468 249.565 109.646 248.725 110.004 247.986C110.367 247.242 110.871 246.662 111.516 246.246C112.166 245.824 112.869 245.613 113.625 245.613C114.861 245.613 115.822 246.021 116.508 246.835C117.193 247.649 117.536 248.815 117.536 250.333V251.01H111.094C111.117 251.947 111.39 252.706 111.911 253.286C112.438 253.86 113.106 254.147 113.915 254.147C114.489 254.147 114.976 254.03 115.374 253.796C115.772 253.562 116.121 253.251 116.42 252.864L117.413 253.638C116.616 254.862 115.421 255.475 113.827 255.475ZM113.625 246.949C112.969 246.949 112.418 247.189 111.973 247.67C111.527 248.145 111.252 248.812 111.146 249.674H115.91V249.551C115.863 248.725 115.641 248.086 115.242 247.635C114.844 247.178 114.305 246.949 113.625 246.949ZM127.195 255.299H125.569V251.238H121.201V255.299H119.566V245.789H121.201V249.911H125.569V245.789H127.195V255.299ZM135.967 245.789H137.593V255.299H135.967V248.364L131.581 255.299H129.955V245.789H131.581V252.732L135.967 245.789ZM147.472 245.789V255.299H145.837V251.599H143.385L141.144 255.299H139.386L141.776 251.353C141.167 251.13 140.698 250.787 140.37 250.324C140.048 249.855 139.887 249.311 139.887 248.689C139.887 247.822 140.212 247.125 140.862 246.598C141.513 246.064 142.383 245.795 143.473 245.789H147.472ZM141.521 248.707C141.521 249.17 141.68 249.545 141.996 249.832C142.312 250.113 142.731 250.257 143.253 250.263H145.837V247.107H143.499C142.896 247.107 142.415 247.257 142.058 247.556C141.7 247.849 141.521 248.232 141.521 248.707ZM0.799805 275.456C0.799805 274.524 0.981445 273.687 1.34473 272.942C1.71387 272.198 2.22363 271.624 2.87402 271.22C3.53027 270.815 4.27734 270.613 5.11523 270.613C6.41016 270.613 7.45605 271.062 8.25293 271.958C9.05566 272.854 9.45703 274.047 9.45703 275.535V275.649C9.45703 276.575 9.27832 277.407 8.9209 278.146C8.56934 278.878 8.0625 279.449 7.40039 279.859C6.74414 280.27 5.98828 280.475 5.13281 280.475C3.84375 280.475 2.79785 280.026 1.99512 279.13C1.19824 278.233 0.799805 277.047 0.799805 275.57V275.456ZM2.43457 275.649C2.43457 276.704 2.67773 277.551 3.16406 278.189C3.65625 278.828 4.3125 279.147 5.13281 279.147C5.95898 279.147 6.61523 278.825 7.10156 278.181C7.58789 277.53 7.83105 276.622 7.83105 275.456C7.83105 274.413 7.58203 273.569 7.08398 272.925C6.5918 272.274 5.93555 271.949 5.11523 271.949C4.3125 271.949 3.66504 272.269 3.17285 272.907C2.68066 273.546 2.43457 274.46 2.43457 275.649ZM19.2744 280.299H17.6484V272.134H13.2715V280.299H11.6367V270.789H19.2744V280.299ZM29.6807 270.789V280.299H28.0459V272.134H24.8115L24.6182 275.693C24.5127 277.328 24.2373 278.497 23.792 279.2C23.3525 279.903 22.6523 280.27 21.6914 280.299H21.041V278.866L21.5068 278.831C22.0342 278.772 22.4121 278.468 22.6406 277.917C22.8691 277.366 23.0156 276.347 23.0801 274.858L23.2559 270.789H29.6807ZM38.1621 280.299C38.0684 280.111 37.9922 279.777 37.9336 279.297C37.1777 280.082 36.2754 280.475 35.2266 280.475C34.2891 280.475 33.5186 280.211 32.915 279.684C32.3174 279.15 32.0186 278.477 32.0186 277.662C32.0186 276.672 32.3936 275.904 33.1436 275.359C33.8994 274.809 34.96 274.533 36.3252 274.533H37.9072V273.786C37.9072 273.218 37.7373 272.767 37.3975 272.433C37.0576 272.093 36.5566 271.923 35.8945 271.923C35.3145 271.923 34.8281 272.069 34.4355 272.362C34.043 272.655 33.8467 273.01 33.8467 273.426H32.2119C32.2119 272.951 32.3789 272.494 32.7129 272.055C33.0527 271.609 33.5098 271.258 34.084 271C34.6641 270.742 35.2998 270.613 35.9912 270.613C37.0869 270.613 37.9453 270.889 38.5664 271.439C39.1875 271.984 39.5098 272.737 39.5332 273.698V278.075C39.5332 278.948 39.6445 279.643 39.8672 280.158V280.299H38.1621ZM35.4639 279.06C35.9736 279.06 36.457 278.928 36.9141 278.664C37.3711 278.4 37.7021 278.058 37.9072 277.636V275.685H36.6328C34.6406 275.685 33.6445 276.268 33.6445 277.434C33.6445 277.943 33.8145 278.342 34.1543 278.629C34.4941 278.916 34.9307 279.06 35.4639 279.06ZM49.0078 272.107H45.8174V280.299H44.1914V272.107H41.0625V270.789H49.0078V272.107ZM54.9756 278.972L55.5381 278.277C56.1709 277.457 56.5312 276.227 56.6191 274.586L56.7686 270.789H62.8945V278.972H64.1162V283.094H62.4902V280.299H55.8545V283.094H54.2285L54.2373 278.972H54.9756ZM56.9004 278.972H61.2686V272.292H58.3418L58.2451 274.56C58.1455 276.452 57.6973 277.923 56.9004 278.972ZM65.4873 275.456C65.4873 274.524 65.6689 273.687 66.0322 272.942C66.4014 272.198 66.9111 271.624 67.5615 271.22C68.2178 270.815 68.9648 270.613 69.8027 270.613C71.0977 270.613 72.1436 271.062 72.9404 271.958C73.7432 272.854 74.1445 274.047 74.1445 275.535V275.649C74.1445 276.575 73.9658 277.407 73.6084 278.146C73.2568 278.878 72.75 279.449 72.0879 279.859C71.4316 280.27 70.6758 280.475 69.8203 280.475C68.5312 280.475 67.4854 280.026 66.6826 279.13C65.8857 278.233 65.4873 277.047 65.4873 275.57V275.456ZM67.1221 275.649C67.1221 276.704 67.3652 277.551 67.8516 278.189C68.3438 278.828 69 279.147 69.8203 279.147C70.6465 279.147 71.3027 278.825 71.7891 278.181C72.2754 277.53 72.5186 276.622 72.5186 275.456C72.5186 274.413 72.2695 273.569 71.7715 272.925C71.2793 272.274 70.623 271.949 69.8027 271.949C69 271.949 68.3525 272.269 67.8604 272.907C67.3682 273.546 67.1221 274.46 67.1221 275.649ZM79.998 279.147C80.5781 279.147 81.085 278.972 81.5186 278.62C81.9521 278.269 82.1924 277.829 82.2393 277.302H83.7773C83.748 277.847 83.5605 278.365 83.2148 278.857C82.8691 279.35 82.4062 279.742 81.8262 280.035C81.252 280.328 80.6426 280.475 79.998 280.475C78.7031 280.475 77.6719 280.044 76.9043 279.183C76.1426 278.315 75.7617 277.132 75.7617 275.632V275.359C75.7617 274.434 75.9316 273.61 76.2715 272.89C76.6113 272.169 77.0977 271.609 77.7305 271.211C78.3691 270.812 79.1221 270.613 79.9893 270.613C81.0557 270.613 81.9404 270.933 82.6436 271.571C83.3525 272.21 83.7305 273.039 83.7773 274.059H82.2393C82.1924 273.443 81.958 272.939 81.5361 272.547C81.1201 272.148 80.6045 271.949 79.9893 271.949C79.1631 271.949 78.5215 272.248 78.0645 272.846C77.6133 273.438 77.3877 274.296 77.3877 275.421V275.729C77.3877 276.824 77.6133 277.668 78.0645 278.26C78.5156 278.852 79.1602 279.147 79.998 279.147ZM92.6719 272.107H89.4814V280.299H87.8555V272.107H84.7266V270.789H92.6719V272.107ZM97.4707 277.917L99.6855 270.789H101.426L97.6025 281.767C97.0107 283.349 96.0703 284.14 94.7812 284.14L94.4736 284.113L93.8672 283.999V282.681L94.3066 282.716C94.8574 282.716 95.2852 282.604 95.5898 282.382C95.9004 282.159 96.1553 281.752 96.3545 281.16L96.7148 280.193L93.3223 270.789H95.0977L97.4707 277.917ZM110.663 280.299H109.037V272.134H104.66V280.299H103.025V270.789H110.663V280.299ZM121.043 280.299H119.417V276.238H115.049V280.299H113.414V270.789H115.049V274.911H119.417V270.789H121.043V280.299ZM125.438 274.067H127.907C128.985 274.079 129.838 274.36 130.465 274.911C131.092 275.462 131.405 276.209 131.405 277.152C131.405 278.102 131.083 278.863 130.438 279.438C129.794 280.012 128.927 280.299 127.837 280.299H123.812V270.789H125.438V274.067ZM134.798 280.299H133.163V270.789H134.798V280.299ZM125.438 275.395V278.972H127.854C128.464 278.972 128.936 278.816 129.27 278.506C129.604 278.189 129.771 277.759 129.771 277.214C129.771 276.687 129.606 276.256 129.278 275.922C128.956 275.582 128.502 275.406 127.916 275.395H125.438Z" fill="#1B404E"/>
<rect y="48.2988" width="140" height="140" rx="25" fill="#1B404E"/>
<path fill-rule="evenodd" clip-rule="evenodd" d="M78.9091 157.753H40.7273V86.4807H96.7273V139.935L78.9091 157.753Z" stroke="white" stroke-width="3" stroke-linecap="round" stroke-linejoin="round"/>
<path fill-rule="evenodd" clip-rule="evenodd" d="M114.546 122.117L110.728 132.299L106.909 122.117V90.2989C106.909 88.1913 108.62 86.4807 110.728 86.4807C112.835 86.4807 114.546 88.1913 114.546 90.2989V122.117Z" stroke="white" stroke-width="3" stroke-linecap="round" stroke-linejoin="round"/>
<path d="M106.909 97.1546H114.546" stroke="white" stroke-width="3" stroke-linecap="round" stroke-linejoin="round"/>
<path fill-rule="evenodd" clip-rule="evenodd" d="M78.9094 139.935H96.7276L78.9094 157.753V139.935Z" stroke="white" stroke-width="3" stroke-linecap="round" stroke-linejoin="round"/>
<path d="M50.9094 99.208H86.5458" stroke="#FFCF50" stroke-width="3" stroke-linecap="round" stroke-linejoin="round"/>
<path d="M50.9094 111.935H86.5458" stroke="#FFCF50" stroke-width="3" stroke-linecap="round" stroke-linejoin="round"/>
<path d="M50.9094 124.662H86.5458" stroke="#FFCF50" stroke-width="3" stroke-linecap="round" stroke-linejoin="round"/>
<path d="M65.2 48.0488C62.7 51.3488 59.2167 52.9988 54.75 52.9988C50.2833 52.9988 46.7833 51.3488 44.25 48.0488C41.75 44.7155 40.5 40.2988 40.5 34.7988C40.5 29.2988 41.75 24.8988 44.25 21.5988C46.7833 18.2655 50.2833 16.5988 54.75 16.5988C59.2167 16.5988 62.7 18.2655 65.2 21.5988C67.7333 24.8988 69 29.2988 69 34.7988C69 40.2988 67.7333 44.7155 65.2 48.0488ZM48.5 34.7988C48.5 41.7322 50.5833 45.1988 54.75 45.1988C58.9167 45.1988 61 41.7322 61 34.7988C61 27.8655 58.9167 24.3988 54.75 24.3988C50.5833 24.3988 48.5 27.8655 48.5 34.7988ZM87.5305 31.4988C89.7638 32.2655 91.5638 33.5155 92.9305 35.2488C94.2971 36.9488 94.9805 38.9655 94.9805 41.2988C94.9805 44.9655 93.7471 47.8322 91.2805 49.8988C88.8138 51.9655 85.7971 52.9988 82.2305 52.9988C79.4638 52.9988 76.9805 52.3655 74.7805 51.0988C72.6138 49.8322 71.0138 47.9655 69.9805 45.4988L76.8805 41.4988C77.7471 43.9655 79.5305 45.1988 82.2305 45.1988C83.7971 45.1988 84.9805 44.8322 85.7805 44.0988C86.5805 43.3655 86.9805 42.4322 86.9805 41.2988C86.9805 40.1655 86.5805 39.2322 85.7805 38.4988C84.9805 37.7655 83.7971 37.3988 82.2305 37.3988L80.5805 37.3988L77.5305 32.8488L83.8805 24.7988L71.0805 24.7988L71.0805 17.2988L93.5805 17.2988L93.5805 23.7988L87.5305 31.4988Z" fill="#1B404E"/>
</svg>
