<svg width="196" height="305" viewBox="0 0 196 305" fill="none" xmlns="http://www.w3.org/2000/svg">
<path d="M9.55371 216.502H11.2412V229.299H9.55371V219.438L3.25195 229.299H1.55566V216.502H3.25195V226.363L9.55371 216.502ZM17.877 228.147C18.457 228.147 18.9639 227.972 19.3975 227.62C19.8311 227.269 20.0713 226.829 20.1182 226.302H21.6562C21.627 226.847 21.4395 227.365 21.0938 227.857C20.748 228.35 20.2852 228.742 19.7051 229.035C19.1309 229.328 18.5215 229.475 17.877 229.475C16.582 229.475 15.5508 229.044 14.7832 228.183C14.0215 227.315 13.6406 226.132 13.6406 224.632V224.359C13.6406 223.434 13.8105 222.61 14.1504 221.89C14.4902 221.169 14.9766 220.609 15.6094 220.211C16.248 219.812 17.001 219.613 17.8682 219.613C18.9346 219.613 19.8193 219.933 20.5225 220.571C21.2314 221.21 21.6094 222.039 21.6562 223.059H20.1182C20.0713 222.443 19.8369 221.939 19.415 221.547C18.999 221.148 18.4834 220.949 17.8682 220.949C17.042 220.949 16.4004 221.248 15.9434 221.846C15.4922 222.438 15.2666 223.296 15.2666 224.421V224.729C15.2666 225.824 15.4922 226.668 15.9434 227.26C16.3945 227.852 17.0391 228.147 17.877 228.147ZM31.2627 229.299H29.6367V221.134H25.2598V229.299H23.625V219.789H31.2627V229.299ZM33.4424 224.456C33.4424 223.524 33.624 222.687 33.9873 221.942C34.3564 221.198 34.8662 220.624 35.5166 220.22C36.1729 219.815 36.9199 219.613 37.7578 219.613C39.0527 219.613 40.0986 220.062 40.8955 220.958C41.6982 221.854 42.0996 223.047 42.0996 224.535V224.649C42.0996 225.575 41.9209 226.407 41.5635 227.146C41.2119 227.878 40.7051 228.449 40.043 228.859C39.3867 229.27 38.6309 229.475 37.7754 229.475C36.4863 229.475 35.4404 229.026 34.6377 228.13C33.8408 227.233 33.4424 226.047 33.4424 224.57V224.456ZM35.0771 224.649C35.0771 225.704 35.3203 226.551 35.8066 227.189C36.2988 227.828 36.9551 228.147 37.7754 228.147C38.6016 228.147 39.2578 227.825 39.7441 227.181C40.2305 226.53 40.4736 225.622 40.4736 224.456C40.4736 223.413 40.2246 222.569 39.7266 221.925C39.2344 221.274 38.5781 220.949 37.7578 220.949C36.9551 220.949 36.3076 221.269 35.8154 221.907C35.3232 222.546 35.0771 223.46 35.0771 224.649ZM51.7939 219.789V229.299H50.1592V221.134H46.9248L46.7314 224.693C46.626 226.328 46.3506 227.497 45.9053 228.2C45.4658 228.903 44.7656 229.27 43.8047 229.299H43.1543V227.866L43.6201 227.831C44.1475 227.772 44.5254 227.468 44.7539 226.917C44.9824 226.366 45.1289 225.347 45.1934 223.858L45.3691 219.789H51.7939ZM56.1797 223.067H58.6494C59.7275 223.079 60.5801 223.36 61.207 223.911C61.834 224.462 62.1475 225.209 62.1475 226.152C62.1475 227.102 61.8252 227.863 61.1807 228.438C60.5361 229.012 59.6689 229.299 58.5791 229.299H54.5537V219.789H56.1797V223.067ZM56.1797 224.395V227.972H58.5967C59.2061 227.972 59.6777 227.816 60.0117 227.506C60.3457 227.189 60.5127 226.759 60.5127 226.214C60.5127 225.687 60.3486 225.256 60.0205 224.922C59.6982 224.582 59.2441 224.406 58.6582 224.395H56.1797ZM69.4072 222.391C69.4072 221.945 69.2373 221.594 68.8975 221.336C68.5576 221.072 68.0918 220.94 67.5 220.94C66.9258 220.94 66.4453 221.09 66.0586 221.389C65.6777 221.688 65.4873 222.039 65.4873 222.443H63.8701C63.8701 221.617 64.2158 220.94 64.9072 220.413C65.5986 219.886 66.4629 219.622 67.5 219.622C68.6133 219.622 69.4805 219.862 70.1016 220.343C70.7227 220.817 71.0332 221.497 71.0332 222.382C71.0332 222.81 70.9043 223.202 70.6465 223.56C70.3887 223.917 70.0225 224.201 69.5479 224.412C70.6553 224.787 71.209 225.525 71.209 226.627C71.209 227.5 70.8721 228.191 70.1982 228.701C69.5244 229.211 68.625 229.466 67.5 229.466C66.4043 229.466 65.499 229.199 64.7842 228.666C64.0752 228.127 63.7207 227.4 63.7207 226.486H65.3379C65.3379 226.949 65.543 227.348 65.9531 227.682C66.3691 228.01 66.8848 228.174 67.5 228.174C68.1211 228.174 68.6221 228.03 69.0029 227.743C69.3838 227.456 69.5742 227.084 69.5742 226.627C69.5742 226.094 69.4131 225.713 69.0908 225.484C68.7744 225.25 68.2793 225.133 67.6055 225.133H65.9795V223.762H67.7461C68.8535 223.732 69.4072 223.275 69.4072 222.391ZM76.4297 226.917L78.6445 219.789H80.3848L76.5615 230.767C75.9697 232.349 75.0293 233.14 73.7402 233.14L73.4326 233.113L72.8262 232.999V231.681L73.2656 231.716C73.8164 231.716 74.2441 231.604 74.5488 231.382C74.8594 231.159 75.1143 230.752 75.3135 230.16L75.6738 229.193L72.2812 219.789H74.0566L76.4297 226.917ZM85.667 229.475C84.3779 229.475 83.3291 229.053 82.5205 228.209C81.7119 227.359 81.3076 226.226 81.3076 224.808V224.509C81.3076 223.565 81.4863 222.725 81.8438 221.986C82.207 221.242 82.7109 220.662 83.3555 220.246C84.0059 219.824 84.709 219.613 85.4648 219.613C86.7012 219.613 87.6621 220.021 88.3477 220.835C89.0332 221.649 89.376 222.815 89.376 224.333V225.01H82.9336C82.957 225.947 83.2295 226.706 83.751 227.286C84.2783 227.86 84.9463 228.147 85.7549 228.147C86.3291 228.147 86.8154 228.03 87.2139 227.796C87.6123 227.562 87.9609 227.251 88.2598 226.864L89.2529 227.638C88.4561 228.862 87.2607 229.475 85.667 229.475ZM85.4648 220.949C84.8086 220.949 84.2578 221.189 83.8125 221.67C83.3672 222.145 83.0918 222.812 82.9863 223.674H87.75V223.551C87.7031 222.725 87.4805 222.086 87.082 221.635C86.6836 221.178 86.1445 220.949 85.4648 220.949ZM96.7412 227.146L99.9756 219.789H102.006V229.299H100.38V222.382L97.3037 229.299H96.1787L93.041 222.232V229.299H91.415V219.789H93.5244L96.7412 227.146ZM9.00879 254.299H7.38281V246.134H3.00586V254.299H1.37109V244.789H9.00879V254.299ZM19.6523 249.649C19.6523 251.097 19.3213 252.263 18.6592 253.147C17.9971 254.032 17.1006 254.475 15.9697 254.475C14.8154 254.475 13.9072 254.108 13.2451 253.376V257.955H11.6191V244.789H13.1045L13.1836 245.844C13.8457 245.023 14.7656 244.613 15.9434 244.613C17.0859 244.613 17.9883 245.044 18.6504 245.905C19.3184 246.767 19.6523 247.965 19.6523 249.5V249.649ZM18.0264 249.465C18.0264 248.393 17.7979 247.546 17.3408 246.925C16.8838 246.304 16.2568 245.993 15.46 245.993C14.4756 245.993 13.7373 246.43 13.2451 247.303V251.847C13.7314 252.714 14.4756 253.147 15.4775 253.147C16.2568 253.147 16.875 252.84 17.332 252.225C17.7949 251.604 18.0264 250.684 18.0264 249.465ZM21.2959 249.456C21.2959 248.524 21.4775 247.687 21.8408 246.942C22.21 246.198 22.7197 245.624 23.3701 245.22C24.0264 244.815 24.7734 244.613 25.6113 244.613C26.9062 244.613 27.9521 245.062 28.749 245.958C29.5518 246.854 29.9531 248.047 29.9531 249.535V249.649C29.9531 250.575 29.7744 251.407 29.417 252.146C29.0654 252.878 28.5586 253.449 27.8965 253.859C27.2402 254.27 26.4844 254.475 25.6289 254.475C24.3398 254.475 23.2939 254.026 22.4912 253.13C21.6943 252.233 21.2959 251.047 21.2959 249.57V249.456ZM22.9307 249.649C22.9307 250.704 23.1738 251.551 23.6602 252.189C24.1523 252.828 24.8086 253.147 25.6289 253.147C26.4551 253.147 27.1113 252.825 27.5977 252.181C28.084 251.53 28.3271 250.622 28.3271 249.456C28.3271 248.413 28.0781 247.569 27.5801 246.925C27.0879 246.274 26.4316 245.949 25.6113 245.949C24.8086 245.949 24.1611 246.269 23.6689 246.907C23.1768 247.546 22.9307 248.46 22.9307 249.649ZM32.1416 254.299V244.789H35.8506C37.1162 244.789 38.0859 245.012 38.7598 245.457C39.4395 245.896 39.7793 246.544 39.7793 247.399C39.7793 247.839 39.6475 248.237 39.3838 248.595C39.1201 248.946 38.7305 249.216 38.2148 249.403C38.7891 249.538 39.249 249.802 39.5947 250.194C39.9463 250.587 40.1221 251.056 40.1221 251.601C40.1221 252.474 39.7998 253.142 39.1553 253.604C38.5166 254.067 37.6113 254.299 36.4395 254.299H32.1416ZM33.7676 250.124V252.989H36.457C37.1367 252.989 37.6436 252.863 37.9775 252.611C38.3174 252.359 38.4873 252.005 38.4873 251.548C38.4873 250.599 37.79 250.124 36.3955 250.124H33.7676ZM33.7676 248.823H35.8682C37.3916 248.823 38.1533 248.378 38.1533 247.487C38.1533 246.597 37.4326 246.137 35.9912 246.107H33.7676V248.823ZM46.2217 254.475C44.9326 254.475 43.8838 254.053 43.0752 253.209C42.2666 252.359 41.8623 251.226 41.8623 249.808V249.509C41.8623 248.565 42.041 247.725 42.3984 246.986C42.7617 246.242 43.2656 245.662 43.9102 245.246C44.5605 244.824 45.2637 244.613 46.0195 244.613C47.2559 244.613 48.2168 245.021 48.9023 245.835C49.5879 246.649 49.9307 247.815 49.9307 249.333V250.01H43.4883C43.5117 250.947 43.7842 251.706 44.3057 252.286C44.833 252.86 45.501 253.147 46.3096 253.147C46.8838 253.147 47.3701 253.03 47.7686 252.796C48.167 252.562 48.5156 252.251 48.8145 251.864L49.8076 252.638C49.0107 253.862 47.8154 254.475 46.2217 254.475ZM46.0195 245.949C45.3633 245.949 44.8125 246.189 44.3672 246.67C43.9219 247.145 43.6465 247.812 43.541 248.674H48.3047V248.551C48.2578 247.725 48.0352 247.086 47.6367 246.635C47.2383 246.178 46.6992 245.949 46.0195 245.949ZM59.8535 249.649C59.8535 251.097 59.5225 252.263 58.8604 253.147C58.1982 254.032 57.3018 254.475 56.1709 254.475C55.0166 254.475 54.1084 254.108 53.4463 253.376V257.955H51.8203V244.789H53.3057L53.3848 245.844C54.0469 245.023 54.9668 244.613 56.1445 244.613C57.2871 244.613 58.1895 245.044 58.8516 245.905C59.5195 246.767 59.8535 247.965 59.8535 249.5V249.649ZM58.2275 249.465C58.2275 248.393 57.999 247.546 57.542 246.925C57.085 246.304 56.458 245.993 55.6611 245.993C54.6768 245.993 53.9385 246.43 53.4463 247.303V251.847C53.9326 252.714 54.6768 253.147 55.6787 253.147C56.458 253.147 57.0762 252.84 57.5332 252.225C57.9961 251.604 58.2275 250.684 58.2275 249.465ZM65.874 254.475C64.585 254.475 63.5361 254.053 62.7275 253.209C61.9189 252.359 61.5146 251.226 61.5146 249.808V249.509C61.5146 248.565 61.6934 247.725 62.0508 246.986C62.4141 246.242 62.918 245.662 63.5625 245.246C64.2129 244.824 64.916 244.613 65.6719 244.613C66.9082 244.613 67.8691 245.021 68.5547 245.835C69.2402 246.649 69.583 247.815 69.583 249.333V250.01H63.1406C63.1641 250.947 63.4365 251.706 63.958 252.286C64.4854 252.86 65.1533 253.147 65.9619 253.147C66.5361 253.147 67.0225 253.03 67.4209 252.796C67.8193 252.562 68.168 252.251 68.4668 251.864L69.46 252.638C68.6631 253.862 67.4678 254.475 65.874 254.475ZM65.6719 245.949C65.0156 245.949 64.4648 246.189 64.0195 246.67C63.5742 247.145 63.2988 247.812 63.1934 248.674H67.957V248.551C67.9102 247.725 67.6875 247.086 67.2891 246.635C66.8906 246.178 66.3516 245.949 65.6719 245.949ZM79.2422 254.299H77.6162V250.238H73.248V254.299H71.6133V244.789H73.248V248.911H77.6162V244.789H79.2422V254.299ZM89.6309 254.299H88.0049V250.238H83.6367V254.299H82.002V244.789H83.6367V248.911H88.0049V244.789H89.6309V254.299ZM94.0254 248.067H96.4951C97.5732 248.079 98.4258 248.36 99.0527 248.911C99.6797 249.462 99.9932 250.209 99.9932 251.152C99.9932 252.102 99.6709 252.863 99.0264 253.438C98.3818 254.012 97.5146 254.299 96.4248 254.299H92.3994V244.789H94.0254V248.067ZM103.386 254.299H101.751V244.789H103.386V254.299ZM94.0254 249.395V252.972H96.4424C97.0518 252.972 97.5234 252.816 97.8574 252.506C98.1914 252.189 98.3584 251.759 98.3584 251.214C98.3584 250.687 98.1943 250.256 97.8662 249.922C97.5439 249.582 97.0898 249.406 96.5039 249.395H94.0254ZM112.377 244.789H114.003V254.299H112.377V247.364L107.991 254.299H106.365V244.789H107.991V251.732L112.377 244.789ZM112.816 241.326C112.816 242.035 112.573 242.606 112.087 243.04C111.606 243.468 110.974 243.682 110.188 243.682C109.403 243.682 108.768 243.465 108.281 243.031C107.795 242.598 107.552 242.029 107.552 241.326H108.879C108.879 241.736 108.99 242.059 109.213 242.293C109.436 242.521 109.761 242.636 110.188 242.636C110.599 242.636 110.918 242.521 111.146 242.293C111.381 242.064 111.498 241.742 111.498 241.326H112.816ZM7.37402 271.134H2.98828V279.299H1.35352V269.789H7.37402V271.134ZM12.5596 279.475C11.2705 279.475 10.2217 279.053 9.41309 278.209C8.60449 277.359 8.2002 276.226 8.2002 274.808V274.509C8.2002 273.565 8.37891 272.725 8.73633 271.986C9.09961 271.242 9.60352 270.662 10.248 270.246C10.8984 269.824 11.6016 269.613 12.3574 269.613C13.5938 269.613 14.5547 270.021 15.2402 270.835C15.9258 271.649 16.2686 272.815 16.2686 274.333V275.01H9.82617C9.84961 275.947 10.1221 276.706 10.6436 277.286C11.1709 277.86 11.8389 278.147 12.6475 278.147C13.2217 278.147 13.708 278.03 14.1064 277.796C14.5049 277.562 14.8535 277.251 15.1523 276.864L16.1455 277.638C15.3486 278.862 14.1533 279.475 12.5596 279.475ZM12.3574 270.949C11.7012 270.949 11.1504 271.189 10.7051 271.67C10.2598 272.145 9.98438 272.812 9.87891 273.674H14.6426V273.551C14.5957 272.725 14.373 272.086 13.9746 271.635C13.5762 271.178 13.0371 270.949 12.3574 270.949ZM25.9277 279.299H24.3018V275.238H19.9336V279.299H18.2988V269.789H19.9336V273.911H24.3018V269.789H25.9277V279.299ZM32.4932 279.475C31.2041 279.475 30.1553 279.053 29.3467 278.209C28.5381 277.359 28.1338 276.226 28.1338 274.808V274.509C28.1338 273.565 28.3125 272.725 28.6699 271.986C29.0332 271.242 29.5371 270.662 30.1816 270.246C30.832 269.824 31.5352 269.613 32.291 269.613C33.5273 269.613 34.4883 270.021 35.1738 270.835C35.8594 271.649 36.2021 272.815 36.2021 274.333V275.01H29.7598C29.7832 275.947 30.0557 276.706 30.5771 277.286C31.1045 277.86 31.7725 278.147 32.5811 278.147C33.1553 278.147 33.6416 278.03 34.04 277.796C34.4385 277.562 34.7871 277.251 35.0859 276.864L36.0791 277.638C35.2822 278.862 34.0869 279.475 32.4932 279.475ZM32.291 270.949C31.6348 270.949 31.084 271.189 30.6387 271.67C30.1934 272.145 29.918 272.812 29.8125 273.674H34.5762V273.551C34.5293 272.725 34.3066 272.086 33.9082 271.635C33.5098 271.178 32.9707 270.949 32.291 270.949ZM46.125 274.649C46.125 276.097 45.7939 277.263 45.1318 278.147C44.4697 279.032 43.5732 279.475 42.4424 279.475C41.2881 279.475 40.3799 279.108 39.7178 278.376V282.955H38.0918V269.789H39.5771L39.6562 270.844C40.3184 270.023 41.2383 269.613 42.416 269.613C43.5586 269.613 44.4609 270.044 45.123 270.905C45.791 271.767 46.125 272.965 46.125 274.5V274.649ZM44.499 274.465C44.499 273.393 44.2705 272.546 43.8135 271.925C43.3564 271.304 42.7295 270.993 41.9326 270.993C40.9482 270.993 40.21 271.43 39.7178 272.303V276.847C40.2041 277.714 40.9482 278.147 41.9502 278.147C42.7295 278.147 43.3477 277.84 43.8047 277.225C44.2676 276.604 44.499 275.684 44.499 274.465ZM54.0703 279.299C53.9766 279.111 53.9004 278.777 53.8418 278.297C53.0859 279.082 52.1836 279.475 51.1348 279.475C50.1973 279.475 49.4268 279.211 48.8232 278.684C48.2256 278.15 47.9268 277.477 47.9268 276.662C47.9268 275.672 48.3018 274.904 49.0518 274.359C49.8076 273.809 50.8682 273.533 52.2334 273.533H53.8154V272.786C53.8154 272.218 53.6455 271.767 53.3057 271.433C52.9658 271.093 52.4648 270.923 51.8027 270.923C51.2227 270.923 50.7363 271.069 50.3438 271.362C49.9512 271.655 49.7549 272.01 49.7549 272.426H48.1201C48.1201 271.951 48.2871 271.494 48.6211 271.055C48.9609 270.609 49.418 270.258 49.9922 270C50.5723 269.742 51.208 269.613 51.8994 269.613C52.9951 269.613 53.8535 269.889 54.4746 270.439C55.0957 270.984 55.418 271.737 55.4414 272.698V277.075C55.4414 277.948 55.5527 278.643 55.7754 279.158V279.299H54.0703ZM51.3721 278.06C51.8818 278.06 52.3652 277.928 52.8223 277.664C53.2793 277.4 53.6104 277.058 53.8154 276.636V274.685H52.541C50.5488 274.685 49.5527 275.268 49.5527 276.434C49.5527 276.943 49.7227 277.342 50.0625 277.629C50.4023 277.916 50.8389 278.06 51.3721 278.06ZM64.916 271.107H61.7256V279.299H60.0996V271.107H56.9707V269.789H64.916V271.107ZM65.6982 274.456C65.6982 273.524 65.8799 272.687 66.2432 271.942C66.6123 271.198 67.1221 270.624 67.7725 270.22C68.4287 269.815 69.1758 269.613 70.0137 269.613C71.3086 269.613 72.3545 270.062 73.1514 270.958C73.9541 271.854 74.3555 273.047 74.3555 274.535V274.649C74.3555 275.575 74.1768 276.407 73.8193 277.146C73.4678 277.878 72.9609 278.449 72.2988 278.859C71.6426 279.27 70.8867 279.475 70.0312 279.475C68.7422 279.475 67.6963 279.026 66.8936 278.13C66.0967 277.233 65.6982 276.047 65.6982 274.57V274.456ZM67.333 274.649C67.333 275.704 67.5762 276.551 68.0625 277.189C68.5547 277.828 69.2109 278.147 70.0312 278.147C70.8574 278.147 71.5137 277.825 72 277.181C72.4863 276.53 72.7295 275.622 72.7295 274.456C72.7295 273.413 72.4805 272.569 71.9824 271.925C71.4902 271.274 70.834 270.949 70.0137 270.949C69.2109 270.949 68.5635 271.269 68.0713 271.907C67.5791 272.546 67.333 273.46 67.333 274.649ZM84.4277 274.649C84.4277 276.097 84.0967 277.263 83.4346 278.147C82.7725 279.032 81.876 279.475 80.7451 279.475C79.5908 279.475 78.6826 279.108 78.0205 278.376V282.955H76.3945V269.789H77.8799L77.959 270.844C78.6211 270.023 79.541 269.613 80.7188 269.613C81.8613 269.613 82.7637 270.044 83.4258 270.905C84.0938 271.767 84.4277 272.965 84.4277 274.5V274.649ZM82.8018 274.465C82.8018 273.393 82.5732 272.546 82.1162 271.925C81.6592 271.304 81.0322 270.993 80.2354 270.993C79.251 270.993 78.5127 271.43 78.0205 272.303V276.847C78.5068 277.714 79.251 278.147 80.2529 278.147C81.0322 278.147 81.6504 277.84 82.1074 277.225C82.5703 276.604 82.8018 275.684 82.8018 274.465ZM94.7812 278.147C95.3613 278.147 95.8682 277.972 96.3018 277.62C96.7354 277.269 96.9756 276.829 97.0225 276.302H98.5605C98.5312 276.847 98.3438 277.365 97.998 277.857C97.6523 278.35 97.1895 278.742 96.6094 279.035C96.0352 279.328 95.4258 279.475 94.7812 279.475C93.4863 279.475 92.4551 279.044 91.6875 278.183C90.9258 277.315 90.5449 276.132 90.5449 274.632V274.359C90.5449 273.434 90.7148 272.61 91.0547 271.89C91.3945 271.169 91.8809 270.609 92.5137 270.211C93.1523 269.812 93.9053 269.613 94.7725 269.613C95.8389 269.613 96.7236 269.933 97.4268 270.571C98.1357 271.21 98.5137 272.039 98.5605 273.059H97.0225C96.9756 272.443 96.7412 271.939 96.3193 271.547C95.9033 271.148 95.3877 270.949 94.7725 270.949C93.9463 270.949 93.3047 271.248 92.8477 271.846C92.3965 272.438 92.1709 273.296 92.1709 274.421V274.729C92.1709 275.824 92.3965 276.668 92.8477 277.26C93.2988 277.852 93.9434 278.147 94.7812 278.147ZM108.185 269.789V279.299H106.55V271.134H103.315L103.122 274.693C103.017 276.328 102.741 277.497 102.296 278.2C101.856 278.903 101.156 279.27 100.195 279.299H99.5449V277.866L100.011 277.831C100.538 277.772 100.916 277.468 101.145 276.917C101.373 276.366 101.52 275.347 101.584 273.858L101.76 269.789H108.185ZM113.906 276.917L116.121 269.789H117.861L114.038 280.767C113.446 282.349 112.506 283.14 111.217 283.14L110.909 283.113L110.303 282.999V281.681L110.742 281.716C111.293 281.716 111.721 281.604 112.025 281.382C112.336 281.159 112.591 280.752 112.79 280.16L113.15 279.193L109.758 269.789H111.533L113.906 276.917ZM126.501 279.299H124.866V275.854C124.151 276.041 123.419 276.135 122.669 276.135C121.479 276.135 120.571 275.83 119.944 275.221C119.323 274.611 119.007 273.744 118.995 272.619V269.78H120.621V272.672C120.65 274.09 121.333 274.799 122.669 274.799C123.419 274.799 124.151 274.705 124.866 274.518V269.789H126.501V279.299ZM134.982 279.299C134.889 279.111 134.812 278.777 134.754 278.297C133.998 279.082 133.096 279.475 132.047 279.475C131.109 279.475 130.339 279.211 129.735 278.684C129.138 278.15 128.839 277.477 128.839 276.662C128.839 275.672 129.214 274.904 129.964 274.359C130.72 273.809 131.78 273.533 133.146 273.533H134.728V272.786C134.728 272.218 134.558 271.767 134.218 271.433C133.878 271.093 133.377 270.923 132.715 270.923C132.135 270.923 131.648 271.069 131.256 271.362C130.863 271.655 130.667 272.01 130.667 272.426H129.032C129.032 271.951 129.199 271.494 129.533 271.055C129.873 270.609 130.33 270.258 130.904 270C131.484 269.742 132.12 269.613 132.812 269.613C133.907 269.613 134.766 269.889 135.387 270.439C136.008 270.984 136.33 271.737 136.354 272.698V277.075C136.354 277.948 136.465 278.643 136.688 279.158V279.299H134.982ZM132.284 278.06C132.794 278.06 133.277 277.928 133.734 277.664C134.191 277.4 134.522 277.058 134.728 276.636V274.685H133.453C131.461 274.685 130.465 275.268 130.465 276.434C130.465 276.943 130.635 277.342 130.975 277.629C131.314 277.916 131.751 278.06 132.284 278.06ZM145.055 269.789H146.681V279.299H145.055V272.364L140.669 279.299H139.043V269.789H140.669V276.732L145.055 269.789ZM145.494 266.326C145.494 267.035 145.251 267.606 144.765 268.04C144.284 268.468 143.651 268.682 142.866 268.682C142.081 268.682 141.445 268.465 140.959 268.031C140.473 267.598 140.229 267.029 140.229 266.326H141.557C141.557 266.736 141.668 267.059 141.891 267.293C142.113 267.521 142.438 267.636 142.866 267.636C143.276 267.636 143.596 267.521 143.824 267.293C144.059 267.064 144.176 266.742 144.176 266.326H145.494ZM157.061 279.299H155.435V275.238H151.066V279.299H149.432V269.789H151.066V273.911H155.435V269.789H157.061V279.299ZM161.455 273.067H163.925C165.003 273.079 165.855 273.36 166.482 273.911C167.109 274.462 167.423 275.209 167.423 276.152C167.423 277.102 167.101 277.863 166.456 278.438C165.812 279.012 164.944 279.299 163.854 279.299H159.829V269.789H161.455V273.067ZM170.815 279.299H169.181V269.789H170.815V279.299ZM161.455 274.395V277.972H163.872C164.481 277.972 164.953 277.816 165.287 277.506C165.621 277.189 165.788 276.759 165.788 276.214C165.788 275.687 165.624 275.256 165.296 274.922C164.974 274.582 164.52 274.406 163.934 274.395H161.455ZM176.845 273.261L178.954 269.789H180.853L177.741 274.491L180.949 279.299H179.068L176.871 275.739L174.674 279.299H172.784L175.992 274.491L172.881 269.789H174.762L176.845 273.261ZM8.41113 304.299H6.77637V300.854C6.06152 301.041 5.3291 301.135 4.5791 301.135C3.38965 301.135 2.48145 300.83 1.85449 300.221C1.2334 299.611 0.916992 298.744 0.905273 297.619V294.78H2.53125V297.672C2.56055 299.09 3.24316 299.799 4.5791 299.799C5.3291 299.799 6.06152 299.705 6.77637 299.518V294.789H8.41113V304.299ZM17.1738 294.789H18.7998V304.299H17.1738V297.364L12.7881 304.299H11.1621V294.789H12.7881V301.732L17.1738 294.789ZM25.2246 303.147C25.8047 303.147 26.3115 302.972 26.7451 302.62C27.1787 302.269 27.4189 301.829 27.4658 301.302H29.0039C28.9746 301.847 28.7871 302.365 28.4414 302.857C28.0957 303.35 27.6328 303.742 27.0527 304.035C26.4785 304.328 25.8691 304.475 25.2246 304.475C23.9297 304.475 22.8984 304.044 22.1309 303.183C21.3691 302.315 20.9883 301.132 20.9883 299.632V299.359C20.9883 298.434 21.1582 297.61 21.498 296.89C21.8379 296.169 22.3242 295.609 22.957 295.211C23.5957 294.812 24.3486 294.613 25.2158 294.613C26.2822 294.613 27.167 294.933 27.8701 295.571C28.5791 296.21 28.957 297.039 29.0039 298.059H27.4658C27.4189 297.443 27.1846 296.939 26.7627 296.547C26.3467 296.148 25.8311 295.949 25.2158 295.949C24.3896 295.949 23.748 296.248 23.291 296.846C22.8398 297.438 22.6143 298.296 22.6143 299.421V299.729C22.6143 300.824 22.8398 301.668 23.291 302.26C23.7422 302.852 24.3867 303.147 25.2246 303.147ZM34.7783 304.475C33.4893 304.475 32.4404 304.053 31.6318 303.209C30.8232 302.359 30.4189 301.226 30.4189 299.808V299.509C30.4189 298.565 30.5977 297.725 30.9551 296.986C31.3184 296.242 31.8223 295.662 32.4668 295.246C33.1172 294.824 33.8203 294.613 34.5762 294.613C35.8125 294.613 36.7734 295.021 37.459 295.835C38.1445 296.649 38.4873 297.815 38.4873 299.333V300.01H32.0449C32.0684 300.947 32.3408 301.706 32.8623 302.286C33.3896 302.86 34.0576 303.147 34.8662 303.147C35.4404 303.147 35.9268 303.03 36.3252 302.796C36.7236 302.562 37.0723 302.251 37.3711 301.864L38.3643 302.638C37.5674 303.862 36.3721 304.475 34.7783 304.475ZM34.5762 295.949C33.9199 295.949 33.3691 296.189 32.9238 296.67C32.4785 297.145 32.2031 297.812 32.0977 298.674H36.8613V298.551C36.8145 297.725 36.5918 297.086 36.1934 296.635C35.7949 296.178 35.2559 295.949 34.5762 295.949ZM48.1729 294.789V304.299H46.5381V296.134H43.3037L43.1104 299.693C43.0049 301.328 42.7295 302.497 42.2842 303.2C41.8447 303.903 41.1445 304.27 40.1836 304.299H39.5332V302.866L39.999 302.831C40.5264 302.772 40.9043 302.468 41.1328 301.917C41.3613 301.366 41.5078 300.347 41.5723 298.858L41.748 294.789H48.1729Z" fill="#1B404E"/>
<rect x="1" y="47.2988" width="140" height="140" rx="25" fill="#1B404E"/>
<path fill-rule="evenodd" clip-rule="evenodd" d="M32.8179 152.935H107.938V117.299V81.6624H32.8179V152.935Z" stroke="white" stroke-width="3" stroke-linecap="round" stroke-linejoin="round"/>
<path d="M45.5452 145.299V138.935C45.5452 132.61 50.6743 127.481 56.9997 127.481C63.3252 127.481 68.4543 122.352 68.4543 116.026V107.117" stroke="#FFCF50" stroke-width="3" stroke-linecap="round" stroke-linejoin="round"/>
<path d="M60.8179 114.754L68.4542 107.117L76.0906 114.754" stroke="#FFCF50" stroke-width="3" stroke-linecap="round" stroke-linejoin="round"/>
<path fill-rule="evenodd" clip-rule="evenodd" d="M73.5453 94.3897C73.5453 97.1999 71.2646 99.4806 68.4544 99.4806C65.6443 99.4806 63.3635 97.1999 63.3635 94.3897C63.3635 91.5796 65.6443 89.2988 68.4544 89.2988C71.2646 89.2988 73.5453 91.5796 73.5453 94.3897Z" stroke="#FFCF50" stroke-width="3" stroke-linecap="round" stroke-linejoin="round"/>
<path d="M63.3635 135.117L73.5453 145.299" stroke="white" stroke-width="3" stroke-linecap="round" stroke-linejoin="round"/>
<path d="M87.9163 121.117L98.0981 131.299" stroke="white" stroke-width="3" stroke-linecap="round" stroke-linejoin="round"/>
<path d="M87.9163 93.3171L98.0981 103.499" stroke="white" stroke-width="3" stroke-linecap="round" stroke-linejoin="round"/>
<path d="M73.5453 135.117L63.3635 145.299" stroke="white" stroke-width="3" stroke-linecap="round" stroke-linejoin="round"/>
<path d="M98.0981 121.117L87.9163 131.299" stroke="white" stroke-width="3" stroke-linecap="round" stroke-linejoin="round"/>
<path d="M98.0981 93.3171L87.9163 103.499" stroke="white" stroke-width="3" stroke-linecap="round" stroke-linejoin="round"/>
<path d="M43 109.662L53.1818 119.844" stroke="white" stroke-width="3" stroke-linecap="round" stroke-linejoin="round"/>
<path d="M53.1818 109.662L43 119.844" stroke="white" stroke-width="3" stroke-linecap="round" stroke-linejoin="round"/>
<path d="M67.2 48.0488C64.7 51.3488 61.2167 52.9988 56.75 52.9988C52.2833 52.9988 48.7833 51.3488 46.25 48.0488C43.75 44.7155 42.5 40.2988 42.5 34.7988C42.5 29.2988 43.75 24.8988 46.25 21.5988C48.7833 18.2655 52.2833 16.5988 56.75 16.5988C61.2167 16.5988 64.7 18.2655 67.2 21.5988C69.7333 24.8988 71 29.2988 71 34.7988C71 40.2988 69.7333 44.7155 67.2 48.0488ZM50.5 34.7988C50.5 41.7322 52.5833 45.1988 56.75 45.1988C60.9167 45.1988 63 41.7322 63 34.7988C63 27.8655 60.9167 24.3988 56.75 24.3988C52.5833 24.3988 50.5 27.8655 50.5 34.7988ZM72.6176 52.2988L72.6176 46.4988L84.3676 34.2988C86.7342 31.8655 87.9176 29.7988 87.9176 28.0988C87.9176 26.9988 87.5842 26.1155 86.9176 25.4488C86.2509 24.7488 85.3342 24.3988 84.1676 24.3988C81.8342 24.3988 80.1176 25.6655 79.0176 28.1988L72.2676 24.2488C73.3342 21.7488 74.9342 19.8488 77.0676 18.5488C79.2009 17.2488 81.5342 16.5988 84.0676 16.5988C87.3342 16.5988 90.1176 17.6155 92.4176 19.6488C94.7509 21.6488 95.9176 24.3488 95.9176 27.7488C95.9176 31.4488 94.1009 35.1155 90.4676 38.7488L84.6676 44.5988L96.4176 44.5988L96.4176 52.2988L72.6176 52.2988Z" fill="#1B404E"/>
</svg>
