<svg width="737" height="678" viewBox="0 0 737 678" fill="none" xmlns="http://www.w3.org/2000/svg">
<path d="M399.028 533.936C332.141 528.496 -43.8238 549.251 30.8284 601.434C105.481 653.618 437.602 702.494 399.752 649.08C361.902 595.664 781.878 628.206 732.264 581.468C682.65 534.731 399.028 533.936 399.028 533.936Z" fill="white"/>
<path d="M0.80127 277.352L90.9832 307.121L72.8782 322.186L150.91 403.726L219.309 345.101L492.339 568.414L489.937 568.454H421.921L219.981 403.287L147.868 465.091L38.4947 350.792H38.4911L18.9528 367.049L0.80127 277.352Z" fill="#1B404E"/>
<path d="M438.243 456.667L457.31 582.981L626.247 557.64H626.251L697.429 546.965L678.366 420.657L545.455 440.588L438.243 456.667Z" fill="#F4F4F4"/>
<path d="M454.071 468.919L468.866 567.145L684.569 534.719L669.777 436.493L454.071 468.919ZM470.045 554.642L458.888 480.565C458.708 479.369 458.766 478.15 459.057 476.977C459.349 475.803 459.869 474.699 460.588 473.727C461.307 472.754 462.211 471.933 463.248 471.309C464.285 470.686 465.434 470.273 466.631 470.093L657.953 441.331C660.414 440.962 662.92 441.583 664.922 443.06C666.924 444.536 668.257 446.746 668.628 449.204L679.739 522.993C680.108 525.433 679.491 527.918 678.025 529.904C676.559 531.889 674.364 533.211 671.923 533.58L480.478 562.358C479.286 562.537 478.07 562.479 476.9 562.188C475.73 561.897 474.629 561.378 473.66 560.661C472.691 559.945 471.873 559.044 471.253 558.011C470.632 556.978 470.222 555.834 470.045 554.642Z" fill="#79CCCA"/>
<path d="M573.368 528.245C578.688 527.459 583.652 525.14 587.631 521.583C591.61 518.026 594.426 513.389 595.723 508.26C597.02 503.13 596.739 497.738 594.916 492.766C593.094 487.793 589.811 483.463 585.483 480.323C581.156 477.183 575.977 475.374 570.603 475.124C565.229 474.875 559.9 476.197 555.29 478.923C550.681 481.648 546.997 485.656 544.706 490.438C542.415 495.219 541.618 500.561 542.417 505.788C542.948 509.259 544.169 512.594 546.012 515.601C547.854 518.609 550.282 521.23 553.156 523.316C556.031 525.401 559.295 526.91 562.763 527.756C566.231 528.601 569.835 528.768 573.368 528.245Z" fill="#79CCCA"/>
<path d="M439.232 464.045L536.221 540.42L638.503 411.704L638.506 411.701L681.601 357.467L584.613 281.098L504.142 382.361L439.232 464.045Z" fill="#F4F4F4"/>
<path d="M459.018 462.335L533.88 521.615L663.795 357.216L588.935 297.924L459.018 462.335ZM526.5 512.06L470.042 467.353C468.202 465.896 467.015 463.767 466.743 461.434C466.47 459.101 467.135 456.755 468.59 454.913L583.821 309.071C585.303 307.2 587.466 305.994 589.836 305.717C592.205 305.441 594.588 306.116 596.461 307.596L652.702 352.136C654.558 353.609 655.754 355.758 656.028 358.112C656.303 360.466 655.633 362.833 654.167 364.694L538.865 510.615C538.148 511.524 537.26 512.281 536.25 512.845C535.241 513.41 534.13 513.769 532.982 513.903C531.833 514.037 530.67 513.944 529.557 513.627C528.445 513.311 527.406 512.778 526.5 512.06Z" fill="#79CCCA"/>
<path d="M549.002 432.047C536.538 425.21 531.987 409.582 538.836 397.141C545.685 384.699 561.341 380.156 573.805 386.993C586.269 393.83 590.82 409.458 583.971 421.899C577.122 434.341 561.466 438.884 549.002 432.047Z" fill="#79CCCA"/>
<path d="M179.049 295.29C178.937 295.049 178.794 294.823 178.624 294.619C178.499 294.469 178.362 294.33 178.213 294.205L177.591 293.577L177.426 293.695C174.248 292.142 167.682 293.787 161.044 298.115C153.019 303.346 147.865 310.551 149.352 314.376L149.127 314.543L150.017 315.432L150.149 315.564L150.174 315.589C150.408 315.799 150.667 315.979 150.946 316.124C154.085 317.765 160.719 316.124 167.432 311.757C175.603 306.433 180.815 299.057 179.049 295.29Z" fill="#FFA412"/>
<path d="M160.09 297.159C168.265 291.832 176.325 290.569 178.095 294.337C179.864 298.105 174.667 305.48 166.492 310.807C158.317 316.135 150.253 317.401 148.487 313.63C146.721 309.858 151.911 302.486 160.09 297.159Z" fill="#FFB93E"/>
<path d="M166.038 309.744C169.458 307.507 172.407 304.809 174.341 302.151C176.318 299.432 177.001 297.049 176.264 295.443C176.061 295.025 175.766 294.657 175.402 294.368C175.037 294.078 174.613 293.874 174.159 293.769C171.142 292.902 165.798 294.562 160.544 297.998C157.119 300.235 154.17 302.929 152.24 305.587C150.263 308.31 149.58 310.693 150.317 312.295C150.519 312.714 150.813 313.083 151.176 313.373C151.54 313.663 151.965 313.868 152.419 313.972C153.001 314.13 153.603 314.205 154.206 314.197C157.319 314.194 161.709 312.57 166.038 309.744ZM173.995 294.344C174.364 294.426 174.711 294.59 175.009 294.824C175.307 295.057 175.549 295.354 175.718 295.693C176.35 297.074 175.671 299.296 173.855 301.801C171.964 304.403 169.072 307.047 165.709 309.245C161.519 311.981 157.162 313.598 154.199 313.598C153.654 313.607 153.112 313.538 152.587 313.394C152.217 313.313 151.87 313.149 151.571 312.917C151.272 312.684 151.029 312.388 150.86 312.049C150.227 310.668 150.907 308.442 152.726 305.94C154.613 303.339 157.509 300.695 160.869 298.497C165.062 295.757 169.416 294.144 172.379 294.144C172.924 294.134 173.468 294.2 173.995 294.34V294.344Z" fill="#FFA412"/>
<path d="M129.667 103.811C129.586 103.641 129.485 103.482 129.366 103.337C129.278 103.23 129.18 103.132 129.073 103.044L128.634 102.598L128.516 102.68C126.26 101.577 121.599 102.748 116.884 105.82C111.186 109.534 107.529 114.648 108.584 117.363L108.423 117.481L109.056 118.112L109.152 118.205L109.17 118.223C109.336 118.374 109.521 118.502 109.721 118.605C111.948 119.772 116.659 118.605 121.424 115.504C127.236 111.711 130.921 106.487 129.667 103.811Z" fill="#FFA412"/>
<path d="M116.209 105.139C122.01 101.356 127.733 100.461 128.992 103.137C130.25 105.813 126.557 111.048 120.77 114.83C114.983 118.612 109.242 119.508 107.987 116.835C106.733 114.163 110.404 108.924 116.209 105.139Z" fill="#FFB93E"/>
<path d="M120.43 114.07C122.698 112.634 124.693 110.81 126.325 108.682C127.73 106.748 128.216 105.057 127.69 103.918C127.547 103.622 127.338 103.361 127.08 103.155C126.822 102.95 126.521 102.804 126.2 102.73C124.055 102.113 120.262 103.294 116.531 105.731C114.263 107.168 112.268 108.993 110.636 111.122C109.231 113.053 108.745 114.744 109.271 115.882C109.414 116.18 109.623 116.441 109.881 116.647C110.139 116.853 110.44 116.999 110.761 117.074C111.179 117.186 111.609 117.24 112.041 117.235C114.239 117.235 117.338 116.082 120.43 114.07ZM126.082 103.148C126.344 103.206 126.59 103.322 126.801 103.488C127.013 103.653 127.185 103.864 127.304 104.104C127.755 105.082 127.272 106.662 125.982 108.439C124.378 110.523 122.421 112.309 120.198 113.717C117.224 115.661 114.121 116.807 112.027 116.807C111.639 116.812 111.253 116.764 110.879 116.664C110.617 116.605 110.371 116.489 110.16 116.324C109.948 116.158 109.776 115.948 109.657 115.708C109.206 114.726 109.689 113.146 110.979 111.372C112.581 109.285 114.539 107.496 116.763 106.088C119.737 104.143 122.84 102.994 124.934 102.994C125.322 102.99 125.709 103.042 126.082 103.148Z" fill="#FFA412"/>
<path d="M108.831 255.597C108.912 255.421 109.017 255.256 109.142 255.108C109.233 254.999 109.334 254.897 109.442 254.805L109.896 254.348L110.014 254.434C112.338 253.299 117.135 254.502 121.989 257.645C127.851 261.47 131.615 266.73 130.532 269.527L130.697 269.649L130.043 270.298C130.013 270.332 129.982 270.364 129.95 270.394H129.928C129.758 270.55 129.568 270.682 129.363 270.787C127.068 271.986 122.214 270.787 117.317 267.593C111.333 263.74 107.541 258.362 108.831 255.597Z" fill="#FFA412"/>
<path d="M122.7 256.964C116.724 253.071 110.836 252.147 109.542 254.901C108.248 257.656 112.044 263.044 118.021 266.937C123.998 270.83 129.885 271.754 131.175 268.999C132.466 266.245 128.659 260.86 122.7 256.964Z" fill="#FFB93E"/>
<path d="M126.989 269.424C127.434 269.43 127.876 269.374 128.305 269.256C128.636 269.18 128.945 269.031 129.211 268.82C129.476 268.609 129.691 268.341 129.838 268.036C130.378 266.862 129.878 265.12 128.434 263.133C126.751 260.941 124.694 259.062 122.357 257.585C118.518 255.087 114.611 253.863 112.405 254.495C112.074 254.572 111.764 254.722 111.498 254.933C111.232 255.145 111.017 255.413 110.868 255.718C110.332 256.892 110.829 258.634 112.273 260.621C113.957 262.812 116.014 264.691 118.35 266.17C121.502 268.225 124.709 269.424 126.989 269.424ZM113.717 254.769C115.883 254.769 119.079 255.947 122.128 257.949C124.409 259.399 126.417 261.237 128.062 263.379C129.391 265.206 129.888 266.833 129.424 267.839C129.301 268.087 129.124 268.305 128.907 268.476C128.689 268.647 128.436 268.767 128.165 268.828C127.781 268.929 127.384 268.979 126.986 268.974C124.82 268.974 121.624 267.793 118.575 265.791C116.286 264.343 114.271 262.502 112.623 260.353C111.294 258.523 110.797 256.899 111.261 255.89C111.385 255.642 111.561 255.426 111.779 255.255C111.997 255.085 112.25 254.965 112.52 254.905C112.905 254.801 113.304 254.752 113.703 254.759L113.717 254.769Z" fill="#FFA412"/>
<path d="M176.511 148.681C176.461 148.575 176.399 148.476 176.325 148.385C176.268 148.319 176.206 148.257 176.139 148.199L175.864 147.921L175.793 147.975C174.363 147.286 171.46 148.017 168.511 149.941C164.937 152.263 162.653 155.468 163.314 157.166L163.21 157.241L163.607 157.637L163.668 157.694C163.776 157.79 163.896 157.87 164.025 157.933C165.419 158.647 168.368 157.933 171.353 155.992C174.988 153.634 177.298 150.358 176.511 148.681Z" fill="#FFA412"/>
<path d="M168.097 149.512C171.728 147.143 175.314 146.583 176.1 148.256C176.886 149.93 174.577 153.212 170.942 155.578C167.307 157.944 163.725 158.511 162.939 156.834C162.152 155.157 164.451 151.881 168.097 149.512Z" fill="#FFB93E"/>
<path d="M170.731 155.104C172.149 154.205 173.398 153.063 174.42 151.732C175.299 150.522 175.603 149.462 175.274 148.749C175.184 148.563 175.053 148.4 174.892 148.271C174.73 148.142 174.542 148.05 174.341 148.003C172.997 147.618 170.624 148.36 168.286 149.883C166.867 150.783 165.618 151.926 164.597 153.259C163.718 154.468 163.414 155.528 163.743 156.238C163.832 156.425 163.962 156.589 164.123 156.718C164.285 156.847 164.474 156.938 164.676 156.984C164.937 157.054 165.206 157.088 165.476 157.084C166.853 157.084 168.811 156.363 170.731 155.104ZM174.266 148.26C174.43 148.296 174.584 148.369 174.717 148.473C174.849 148.577 174.957 148.709 175.031 148.859C175.313 149.473 175.013 150.461 174.205 151.575C173.206 152.88 171.986 154.001 170.599 154.886C168.736 156.103 166.799 156.823 165.48 156.82C165.239 156.824 164.998 156.794 164.765 156.731C164.6 156.694 164.446 156.622 164.313 156.518C164.18 156.414 164.072 156.282 163.996 156.131C163.718 155.521 164.018 154.529 164.826 153.419C165.828 152.112 167.054 150.991 168.447 150.108C170.309 148.891 172.246 148.174 173.562 148.174C173.799 148.17 174.036 148.199 174.266 148.26Z" fill="#FFA412"/>
<path d="M448.232 263.044C448.328 262.842 448.448 262.652 448.59 262.48C448.698 262.351 448.818 262.232 448.947 262.123L449.469 261.595L449.609 261.699C452.279 260.393 457.794 261.777 463.374 265.413C470.119 269.809 474.455 275.861 473.201 279.076L473.39 279.218L472.643 279.964L472.532 280.075L472.511 280.096C472.315 280.275 472.096 280.426 471.86 280.546C469.222 281.923 463.639 280.546 458.005 276.874C451.11 272.407 446.745 266.212 448.232 263.044Z" fill="#FFA412"/>
<path d="M464.164 264.614C457.276 260.147 450.52 259.076 449.033 262.241C447.546 265.406 451.914 271.607 458.785 276.085C465.655 280.563 472.429 281.623 473.916 278.458C475.403 275.293 471.034 269.092 464.164 264.614Z" fill="#FFB93E"/>
<path d="M469.097 278.933C469.608 278.939 470.117 278.875 470.609 278.74C470.99 278.653 471.347 278.481 471.652 278.238C471.958 277.994 472.205 277.686 472.375 277.334C472.997 275.986 472.422 273.984 470.759 271.697C469.097 269.41 466.659 267.197 463.782 265.317C459.367 262.43 454.874 261.035 452.343 261.749C451.959 261.834 451.599 262.005 451.289 262.248C450.98 262.492 450.729 262.801 450.556 263.155C449.938 264.503 450.51 266.505 452.172 268.792C453.834 271.079 456.275 273.295 459.149 275.172C462.803 277.566 466.491 278.933 469.097 278.933ZM453.834 262.077C456.336 262.077 459.986 263.433 463.507 265.738C466.334 267.583 468.765 269.806 470.352 271.993C471.878 274.095 472.45 275.964 471.918 277.124C471.778 277.406 471.577 277.655 471.33 277.851C471.083 278.047 470.795 278.186 470.488 278.259C470.045 278.377 469.588 278.434 469.129 278.426C466.627 278.426 462.981 277.07 459.457 274.765C456.633 272.921 454.202 270.698 452.612 268.514C451.085 266.409 450.513 264.539 451.046 263.379C451.188 263.095 451.393 262.846 451.644 262.65C451.895 262.455 452.186 262.317 452.497 262.248C452.932 262.128 453.383 262.071 453.834 262.077Z" fill="#FFA412"/>
<path d="M521.049 177.076C521.105 176.959 521.175 176.849 521.257 176.748C521.317 176.673 521.386 176.605 521.461 176.545L521.764 176.238L521.843 176.295C523.398 175.535 526.611 176.341 529.861 178.461C533.793 181.019 536.295 184.527 535.58 186.414L535.691 186.496L535.255 186.932L535.187 186.996C535.073 187.101 534.946 187.189 534.808 187.26C533.271 188.063 530.025 187.26 526.74 185.119C522.726 182.529 520.188 178.921 521.049 177.076Z" fill="#FFA412"/>
<path d="M530.329 177.993C526.329 175.385 522.383 174.782 521.518 176.612C520.653 178.443 523.194 182.064 527.194 184.673C531.194 187.281 535.14 187.884 536.005 186.054C536.87 184.223 534.329 180.602 530.329 177.993Z" fill="#FFB93E"/>
<path d="M533.199 186.328C533.498 186.333 533.795 186.295 534.082 186.218C534.304 186.166 534.512 186.065 534.69 185.923C534.868 185.781 535.012 185.602 535.112 185.397C535.469 184.612 535.137 183.449 534.168 182.114C533.043 180.649 531.668 179.391 530.108 178.4C527.534 176.719 524.917 175.902 523.441 176.33C523.22 176.383 523.013 176.483 522.835 176.625C522.658 176.767 522.514 176.947 522.415 177.151C522.058 177.936 522.387 179.103 523.355 180.434C524.48 181.9 525.854 183.156 527.416 184.145C529.536 185.533 531.684 186.328 533.199 186.328ZM524.313 176.516C525.764 176.516 527.888 177.305 529.947 178.657C531.478 179.628 532.827 180.86 533.932 182.296C534.822 183.524 535.155 184.612 534.844 185.287C534.762 185.453 534.644 185.599 534.498 185.713C534.352 185.827 534.181 185.907 534 185.947C533.743 186.017 533.477 186.051 533.21 186.047C531.759 186.047 529.636 185.254 527.577 183.906C526.044 182.936 524.695 181.704 523.591 180.266C522.701 179.042 522.369 177.95 522.68 177.276C522.763 177.111 522.882 176.966 523.028 176.852C523.174 176.738 523.343 176.657 523.523 176.616C523.781 176.547 524.047 176.514 524.313 176.516Z" fill="#FFA412"/>
<path d="M455.321 202.014C455.25 201.864 455.161 201.722 455.056 201.593C454.977 201.5 454.891 201.413 454.799 201.333L454.409 200.94L454.309 201.015C452.322 200.045 448.233 201.076 444.068 203.781C439.064 207.049 435.847 211.548 436.758 213.943L436.619 214.046L437.177 214.603L437.259 214.685C437.404 214.817 437.567 214.93 437.741 215.02C439.704 216.048 443.85 215.02 448.047 212.291C453.18 208.979 456.425 204.369 455.321 202.014Z" fill="#FFA412"/>
<path d="M443.471 203.184C448.579 199.852 453.619 199.063 454.724 201.4C455.828 203.738 452.579 208.365 447.471 211.695C442.363 215.024 437.323 215.816 436.219 213.479C435.114 211.141 438.36 206.514 443.471 203.184Z" fill="#FFB93E"/>
<path d="M447.189 211.045C449.185 209.78 450.942 208.174 452.379 206.3C453.616 204.601 454.041 203.11 453.58 202.107C453.453 201.846 453.269 201.616 453.042 201.435C452.814 201.254 452.548 201.126 452.265 201.061C450.381 200.519 447.039 201.557 443.754 203.705C441.759 204.97 440.002 206.575 438.564 208.448C437.33 210.15 436.901 211.641 437.363 212.644C437.49 212.905 437.674 213.135 437.901 213.316C438.129 213.497 438.394 213.624 438.678 213.689C439.044 213.789 439.421 213.837 439.8 213.832C441.738 213.832 444.483 212.815 447.189 211.045ZM452.161 201.411C452.391 201.463 452.607 201.566 452.792 201.712C452.978 201.857 453.129 202.042 453.233 202.253C453.63 203.117 453.205 204.508 452.068 206.071C450.657 207.903 448.934 209.473 446.978 210.71C444.358 212.422 441.616 213.432 439.783 213.429C439.442 213.435 439.103 213.393 438.775 213.304C438.544 213.252 438.329 213.149 438.143 213.003C437.958 212.858 437.807 212.673 437.702 212.462C437.309 211.598 437.731 210.207 438.867 208.644C440.279 206.811 442.004 205.241 443.961 204.005C446.578 202.292 449.302 201.283 451.153 201.283C451.494 201.281 451.833 201.328 452.161 201.422V201.411Z" fill="#FFA412"/>
<path d="M259.269 582.769V588.942C259.272 589.427 259.444 589.896 259.755 590.269C260.104 590.687 260.567 590.996 261.088 591.158C261.257 591.215 261.43 591.256 261.607 591.283C261.772 591.307 261.939 591.319 262.107 591.318H379.412C380.924 591.318 382.168 590.316 382.247 589.063C382.247 589.024 382.247 588.981 382.247 588.942V582.769C382.247 582.726 382.247 582.687 382.247 582.644C382.168 581.392 380.924 580.389 379.412 580.389H262.107C261.939 580.39 261.772 580.403 261.607 580.428C261.43 580.452 261.257 580.493 261.088 580.55C260.567 580.712 260.104 581.02 259.755 581.438C259.444 581.813 259.273 582.283 259.269 582.769Z" fill="#FFCF50"/>
<path d="M316.872 591.318H379.709C380.339 591.333 380.951 591.109 381.421 590.69C381.891 590.271 382.184 589.69 382.24 589.063C382.24 589.024 382.24 588.981 382.24 588.942V582.769C382.24 582.726 382.24 582.687 382.24 582.644C382.184 582.018 381.891 581.436 381.421 581.017C380.951 580.598 380.339 580.374 379.709 580.389H324.59C323.414 584.838 320.675 588.717 316.872 591.318Z" fill="#FFA412"/>
<path d="M271.812 571.836V578.009C271.815 578.495 271.987 578.964 272.298 579.337C272.647 579.756 273.11 580.066 273.631 580.229C273.8 580.284 273.973 580.325 274.149 580.35C274.315 580.376 274.482 580.389 274.65 580.389H391.952C393.464 580.389 394.711 579.383 394.786 578.131C394.786 578.091 394.786 578.052 394.786 578.009V571.836C394.786 571.797 394.786 571.754 394.786 571.715C394.711 570.463 393.464 569.456 391.952 569.456H274.65H274.425H274.328H274.224H274.149C273.973 569.482 273.8 569.522 273.631 569.578L273.556 569.603L273.485 569.631L273.342 569.688L273.259 569.724L273.188 569.76L273.052 569.831C273.002 569.86 272.955 569.892 272.909 569.924C272.87 569.945 272.833 569.97 272.798 569.999L272.727 570.052C272.656 570.108 272.588 570.168 272.523 570.231C272.501 570.247 272.482 570.266 272.466 570.288L272.409 570.345C272.373 570.384 272.337 570.423 272.305 570.466C271.982 570.849 271.807 571.335 271.812 571.836Z" fill="#FFCF50"/>
<path d="M329.412 580.389H392.256C392.886 580.404 393.499 580.179 393.969 579.76C394.439 579.34 394.731 578.758 394.786 578.13C394.786 578.091 394.786 578.052 394.786 578.009V571.836C394.786 571.797 394.786 571.754 394.786 571.715C394.731 571.088 394.439 570.505 393.969 570.086C393.499 569.666 392.886 569.441 392.256 569.456H337.133C337.108 569.545 337.083 569.635 337.054 569.727C335.847 574.07 333.14 577.847 329.412 580.389Z" fill="#FFA412"/>
<path d="M265.749 561.175V567.365C265.752 567.851 265.924 568.32 266.235 568.693C266.585 569.111 267.048 569.421 267.569 569.585C267.738 569.64 267.911 569.68 268.087 569.706C268.252 569.732 268.42 569.745 268.587 569.745H385.893C386.343 569.745 386.788 569.653 387.201 569.474C387.596 569.32 387.944 569.065 388.21 568.735C388.475 568.405 388.65 568.012 388.717 567.594V567.487C388.717 567.447 388.717 567.405 388.717 567.365V561.192C388.717 561.153 388.717 561.11 388.717 561.071C388.638 559.819 387.394 558.812 385.882 558.812H268.577C268.409 558.813 268.242 558.826 268.076 558.852C267.9 558.877 267.727 558.918 267.558 558.973C267.037 559.137 266.575 559.447 266.225 559.865C265.921 560.235 265.753 560.697 265.749 561.175Z" fill="#FFCF50"/>
<path d="M323.353 569.727H386.197C386.601 569.728 387 569.635 387.362 569.456C387.729 569.284 388.046 569.02 388.283 568.691C388.52 568.362 388.67 567.978 388.717 567.576V567.469C388.717 567.43 388.717 567.387 388.717 567.348V561.175C388.717 561.135 388.717 561.093 388.717 561.053C388.661 560.426 388.369 559.844 387.899 559.424C387.429 559.005 386.816 558.78 386.186 558.795H331.059C329.924 563.088 327.334 566.856 323.728 569.456L323.353 569.727Z" fill="#FFA412"/>
<path d="M262.939 550.238V556.411C262.943 556.897 263.115 557.367 263.426 557.742C263.775 558.16 264.238 558.468 264.759 558.63C264.928 558.687 265.101 558.729 265.277 558.755C265.443 558.778 265.61 558.79 265.778 558.791H383.083C384.595 558.791 385.839 557.788 385.918 556.536C385.918 556.493 385.918 556.454 385.918 556.411V550.238C385.918 550.199 385.918 550.156 385.918 550.117C385.846 548.957 384.774 548.012 383.416 547.876C383.305 547.876 383.194 547.876 383.08 547.876H265.774C265.607 547.875 265.439 547.887 265.274 547.912C265.098 547.939 264.925 547.979 264.755 548.033C264.235 548.197 263.772 548.507 263.422 548.925C263.116 549.295 262.945 549.758 262.939 550.238Z" fill="#FFCF50"/>
<path d="M320.543 558.802H383.387C384.017 558.817 384.629 558.592 385.099 558.174C385.569 557.755 385.862 557.173 385.918 556.547C385.918 556.504 385.918 556.465 385.918 556.422V550.238C385.918 550.199 385.918 550.156 385.918 550.117C385.868 549.542 385.618 549.002 385.21 548.592C384.802 548.183 384.263 547.929 383.687 547.876C383.587 547.871 383.487 547.871 383.387 547.876H328.26C327.085 552.325 324.346 556.203 320.543 558.802Z" fill="#FFA412"/>
<path d="M271.565 539.327V545.503C271.569 545.988 271.741 546.457 272.051 546.83C272.399 547.25 272.863 547.559 273.385 547.719C273.553 547.775 273.727 547.817 273.903 547.844L274.067 547.865H274.16H391.705C393.217 547.865 394.465 546.862 394.54 545.61C394.54 545.567 394.54 545.528 394.54 545.489V539.312C394.54 539.273 394.54 539.234 394.54 539.191C394.541 539.158 394.541 539.124 394.54 539.091C394.429 538.085 393.557 537.254 392.395 537.007H392.309C392.107 536.968 391.901 536.949 391.694 536.95H274.403H274.149H274.035H273.903C273.727 536.977 273.553 537.018 273.385 537.075C272.863 537.235 272.399 537.544 272.051 537.964C271.733 538.346 271.561 538.829 271.565 539.327Z" fill="#FFCF50"/>
<path d="M329.169 547.879H392.009C392.639 547.895 393.252 547.671 393.722 547.252C394.192 546.833 394.484 546.251 394.54 545.624C394.54 545.582 394.54 545.542 394.54 545.503V539.327C394.54 539.287 394.54 539.248 394.54 539.205C394.541 539.172 394.541 539.139 394.54 539.105C394.476 538.593 394.251 538.114 393.898 537.738C393.545 537.361 393.081 537.105 392.574 537.007L392.466 536.986C392.318 536.961 392.167 536.949 392.016 536.95H336.886C336.879 536.976 336.871 537.001 336.861 537.025C335.68 541.434 332.961 545.278 329.194 547.865L329.169 547.879Z" fill="#FFA412"/>
<path d="M271.812 528.472V534.645C271.815 535.13 271.987 535.599 272.298 535.972C272.647 536.392 273.11 536.702 273.631 536.864C273.763 536.907 273.898 536.941 274.035 536.964L274.146 536.986C274.311 537.01 274.479 537.022 274.646 537.021H391.952C392.071 537.028 392.19 537.028 392.309 537.021C392.355 537.021 392.402 537.021 392.448 537C393.724 536.807 394.707 535.894 394.775 534.784C394.775 534.745 394.775 534.702 394.775 534.663V528.472C394.775 528.429 394.775 528.39 394.775 528.347C394.7 527.095 393.453 526.092 391.941 526.092H274.639H274.414H274.317H274.214H274.139C273.962 526.116 273.789 526.156 273.62 526.213L273.545 526.238L273.474 526.263L273.331 526.32L273.177 526.395L273.041 526.467L272.898 526.556L272.787 526.631L272.716 526.684C272.644 526.739 272.576 526.799 272.512 526.863C272.491 526.879 272.472 526.897 272.455 526.916L272.398 526.973L272.294 527.095C271.974 527.482 271.803 527.97 271.812 528.472Z" fill="#FFCF50"/>
<path d="M329.412 537.036H392.406C392.459 537.039 392.513 537.039 392.567 537.036C393.141 536.983 393.679 536.73 394.085 536.321C394.491 535.912 394.739 535.373 394.786 534.799C394.786 534.759 394.786 534.717 394.786 534.677V528.472C394.786 528.43 394.786 528.39 394.786 528.347C394.731 527.721 394.439 527.139 393.968 526.72C393.498 526.301 392.886 526.076 392.256 526.092H337.133C337.108 526.182 337.083 526.271 337.054 526.36C335.858 530.657 333.196 534.402 329.526 536.947L329.412 537.036Z" fill="#FFA412"/>
<path d="M265.749 517.814V523.987C265.753 524.472 265.925 524.941 266.235 525.314C266.585 525.732 267.048 526.041 267.569 526.203C267.738 526.259 267.911 526.301 268.087 526.328C268.253 526.352 268.42 526.364 268.587 526.363H385.893C386.343 526.365 386.788 526.274 387.201 526.096C387.596 525.942 387.944 525.687 388.21 525.357C388.475 525.027 388.65 524.634 388.717 524.215V524.108C388.717 524.069 388.717 524.026 388.717 523.987V517.814C388.717 517.771 388.717 517.732 388.717 517.689C388.638 516.437 387.394 515.434 385.882 515.434H268.577C268.409 515.435 268.242 515.448 268.076 515.474C267.9 515.497 267.726 515.538 267.558 515.595C267.037 515.757 266.574 516.065 266.225 516.483C265.918 516.859 265.75 517.329 265.749 517.814Z" fill="#FFCF50"/>
<path d="M323.353 526.363H386.197C386.6 526.365 386.999 526.273 387.362 526.096C387.729 525.923 388.046 525.66 388.283 525.331C388.52 525.002 388.67 524.618 388.717 524.215V524.108C388.717 524.069 388.717 524.026 388.717 523.987V517.814C388.717 517.771 388.717 517.732 388.717 517.689C388.66 517.063 388.368 516.481 387.898 516.063C387.428 515.644 386.816 515.419 386.186 515.434H331.059C329.924 519.728 327.334 523.495 323.728 526.096L323.353 526.363Z" fill="#FFA412"/>
<path d="M256.166 506.881V513.054C256.169 513.54 256.341 514.009 256.652 514.382C257 514.8 257.462 515.11 257.982 515.274C258.152 515.329 258.327 515.369 258.504 515.395C258.669 515.421 258.837 515.434 259.004 515.434H376.306C377.818 515.434 379.066 514.428 379.141 513.176C379.141 513.136 379.141 513.097 379.141 513.054V506.881C379.141 506.842 379.141 506.799 379.141 506.76C379.069 505.6 378 504.655 376.638 504.519C376.528 504.519 376.417 504.519 376.302 504.519H259.001C258.833 504.52 258.666 504.533 258.5 504.559C258.323 504.584 258.149 504.625 257.978 504.68C257.458 504.844 256.997 505.153 256.649 505.572C256.343 505.941 256.172 506.403 256.166 506.881Z" fill="#FFCF50"/>
<path d="M313.766 515.434H376.61C377.24 515.449 377.853 515.224 378.323 514.805C378.793 514.385 379.085 513.803 379.141 513.176C379.141 513.136 379.141 513.097 379.141 513.054V506.881C379.141 506.842 379.141 506.799 379.141 506.76C379.093 506.184 378.843 505.643 378.435 505.233C378.027 504.823 377.487 504.57 376.91 504.519C376.81 504.514 376.71 504.514 376.61 504.519H321.483C320.306 508.964 317.567 512.838 313.766 515.434Z" fill="#FFA412"/>
<path d="M271.565 495.966V502.139C271.568 502.624 271.74 503.093 272.051 503.466C272.398 503.888 272.862 504.198 273.384 504.358C273.553 504.415 273.726 504.456 273.903 504.48C273.957 504.49 274.012 504.497 274.067 504.501C274.11 504.501 274.156 504.501 274.199 504.501H391.705C393.217 504.501 394.464 503.495 394.54 502.242C394.54 502.203 394.54 502.164 394.54 502.121V495.948C394.54 495.909 394.54 495.866 394.54 495.827C394.464 494.575 393.217 493.568 391.705 493.568H274.403H274.253C274.133 493.571 274.014 493.582 273.895 493.6C273.719 493.626 273.546 493.666 273.377 493.722C273.291 493.75 273.209 493.782 273.13 493.815L272.984 493.882C272.934 493.904 272.887 493.929 272.841 493.957H272.816L272.687 494.036C272.589 494.099 272.494 494.168 272.405 494.243C272.377 494.265 272.351 494.288 272.326 494.314L272.276 494.36C272.247 494.388 272.219 494.418 272.194 494.45C272.155 494.492 272.115 494.532 272.08 494.578C271.745 494.963 271.561 495.456 271.565 495.966Z" fill="#FFCF50"/>
<path d="M329.169 504.519H392.009C392.639 504.534 393.252 504.309 393.722 503.89C394.192 503.47 394.484 502.888 394.54 502.261C394.54 502.221 394.54 502.182 394.54 502.139V495.966C394.54 495.927 394.54 495.884 394.54 495.845C394.484 495.218 394.192 494.635 393.722 494.216C393.252 493.796 392.639 493.571 392.009 493.586H336.886C336.861 493.672 336.84 493.754 336.811 493.84C335.609 498.178 332.911 501.954 329.194 504.501L329.169 504.519Z" fill="#FFA412"/>
<path d="M262.94 485.298V491.47C262.943 491.957 263.115 492.427 263.426 492.801C263.775 493.219 264.238 493.528 264.759 493.69C264.928 493.747 265.101 493.788 265.277 493.811C265.443 493.837 265.61 493.85 265.778 493.85H383.083C383.518 493.853 383.949 493.767 384.349 493.597C384.756 493.447 385.115 493.192 385.39 492.857C385.664 492.522 385.844 492.119 385.911 491.692C385.909 491.66 385.909 491.627 385.911 491.595C385.911 491.553 385.911 491.513 385.911 491.47V485.298C385.911 485.258 385.911 485.216 385.911 485.176C385.839 484.017 384.767 483.071 383.408 482.936C383.298 482.936 383.187 482.936 383.072 482.936H265.767C265.6 482.935 265.432 482.947 265.267 482.971C265.091 482.998 264.918 483.039 264.748 483.093C264.228 483.257 263.765 483.566 263.415 483.985C263.111 484.355 262.944 484.819 262.94 485.298Z" fill="#FFCF50"/>
<path d="M320.543 493.84H383.387C383.778 493.842 384.164 493.755 384.517 493.587C384.894 493.416 385.221 493.151 385.465 492.817C385.709 492.483 385.863 492.092 385.911 491.681C385.909 491.649 385.909 491.617 385.911 491.585C385.911 491.542 385.911 491.503 385.911 491.46V485.298C385.911 485.259 385.911 485.216 385.911 485.176C385.861 484.601 385.611 484.062 385.203 483.652C384.795 483.242 384.256 482.989 383.68 482.936C383.58 482.93 383.48 482.93 383.38 482.936H328.253C327.117 487.233 324.519 491.002 320.904 493.597L320.543 493.84Z" fill="#FFA412"/>
<path d="M259.269 474.372V480.548C259.273 481.033 259.445 481.502 259.755 481.876C260.104 482.294 260.567 482.602 261.088 482.764C261.257 482.821 261.43 482.862 261.607 482.889L261.771 482.91H261.864H379.412C380.924 482.91 382.168 481.908 382.247 480.655C382.247 480.612 382.247 480.573 382.247 480.534V474.357C382.247 474.318 382.247 474.279 382.247 474.236C382.168 472.984 380.924 471.981 379.412 471.981H262.107C261.939 471.98 261.772 471.992 261.607 472.017C261.43 472.043 261.257 472.085 261.088 472.142C260.567 472.303 260.104 472.612 259.755 473.03C259.442 473.407 259.27 473.882 259.269 474.372Z" fill="#FFCF50"/>
<path d="M316.872 482.925H379.709C380.339 482.94 380.951 482.715 381.421 482.296C381.891 481.878 382.184 481.296 382.24 480.669C382.24 480.627 382.24 480.587 382.24 480.548V474.372C382.24 474.332 382.24 474.293 382.24 474.25C382.184 473.624 381.891 473.042 381.421 472.624C380.951 472.205 380.339 471.98 379.709 471.995H324.59C323.418 476.436 320.688 480.309 316.897 482.91L316.872 482.925Z" fill="#FFA412"/>
<path d="M265.219 462.895V469.875C265.223 470.424 265.395 470.956 265.707 471.379C266.056 471.853 266.52 472.202 267.043 472.384C267.375 472.502 267.721 472.563 268.069 472.566H385.869C387.387 472.566 388.64 471.432 388.715 470.016C388.715 469.967 388.715 469.923 388.715 469.875V462.895C388.715 462.851 388.715 462.806 388.715 462.758C388.64 461.342 387.387 460.208 385.869 460.208H268.069C267.901 460.207 267.733 460.221 267.567 460.249C267.389 460.279 267.213 460.326 267.043 460.39C266.52 460.572 266.056 460.921 265.707 461.394C265.395 461.816 265.223 462.347 265.219 462.895Z" fill="#FFCF50"/>
<path d="M322.97 471.806H385.814C386.444 471.822 387.057 471.598 387.527 471.179C387.997 470.76 388.29 470.178 388.345 469.551C388.345 469.508 388.345 469.469 388.345 469.426V463.253C388.345 463.214 388.345 463.175 388.345 463.132C388.29 462.505 387.997 461.923 387.527 461.504C387.057 461.085 386.444 460.861 385.814 460.877H330.688C329.515 465.327 326.775 469.207 322.97 471.806Z" fill="#FFA412"/>
<path d="M277.91 452.324V458.497C277.912 458.983 278.086 459.453 278.4 459.824C278.748 460.243 279.209 460.553 279.729 460.716C279.898 460.771 280.072 460.812 280.248 460.838C280.413 460.863 280.58 460.876 280.748 460.877H398.053C399.565 460.877 400.809 459.871 400.888 458.618C400.888 458.579 400.888 458.536 400.888 458.497V452.324C400.888 452.281 400.888 452.242 400.888 452.199C400.809 450.95 399.565 449.944 398.053 449.944H280.748H280.526H280.43H280.323H280.248C280.071 449.968 279.898 450.009 279.729 450.065L279.654 450.09L279.583 450.115L279.44 450.176L279.361 450.212L279.286 450.247L279.154 450.319L279.007 450.408L278.896 450.483L278.825 450.536C278.753 450.592 278.683 450.652 278.618 450.715L278.56 450.768L278.507 450.829C278.471 450.868 278.435 450.907 278.403 450.95C278.078 451.334 277.902 451.822 277.91 452.324Z" fill="#FFCF50"/>
<path d="M335.513 460.877H398.357C398.988 460.892 399.6 460.667 400.07 460.247C400.54 459.828 400.833 459.245 400.888 458.618C400.888 458.579 400.888 458.536 400.888 458.497V452.324C400.888 452.281 400.888 452.242 400.888 452.199C400.832 451.573 400.539 450.991 400.069 450.572C399.599 450.153 398.987 449.929 398.357 449.944H343.231L343.156 450.215C341.944 454.556 339.238 458.331 335.513 460.877Z" fill="#FFA412"/>
<path d="M271.851 441.663V447.832C271.854 448.317 272.026 448.786 272.337 449.159C272.686 449.579 273.149 449.889 273.671 450.051C273.839 450.107 274.013 450.147 274.189 450.173C274.354 450.198 274.522 450.212 274.689 450.212H391.991C392.441 450.213 392.887 450.121 393.299 449.941C393.695 449.787 394.043 449.532 394.31 449.202C394.576 448.872 394.752 448.479 394.819 448.06C394.819 448.025 394.819 447.989 394.819 447.953C394.819 447.918 394.819 447.871 394.819 447.832V441.659C394.819 441.616 394.819 441.577 394.819 441.534C394.744 440.285 393.496 439.279 391.984 439.279H274.689C274.522 439.279 274.354 439.293 274.189 439.318C274.013 439.342 273.839 439.382 273.671 439.44C273.149 439.6 272.685 439.908 272.337 440.328C272.026 440.704 271.854 441.175 271.851 441.663Z" fill="#FFCF50"/>
<path d="M329.455 450.215H392.295C392.7 450.215 393.1 450.122 393.464 449.944C393.831 449.772 394.148 449.508 394.385 449.179C394.622 448.85 394.772 448.466 394.819 448.064C394.819 448.028 394.819 447.992 394.819 447.957C394.819 447.921 394.819 447.875 394.819 447.835V441.662C394.819 441.62 394.819 441.58 394.819 441.538C394.763 440.911 394.47 440.329 394 439.911C393.53 439.492 392.918 439.267 392.288 439.282H337.172C336.036 443.576 333.444 447.344 329.837 449.944L329.455 450.215Z" fill="#FFA412"/>
<path d="M269.041 430.73V436.903C269.045 437.388 269.216 437.857 269.528 438.23C269.876 438.651 270.339 438.961 270.861 439.122C271.03 439.178 271.203 439.218 271.379 439.243C271.545 439.269 271.712 439.282 271.88 439.283H389.181C390.694 439.283 391.941 438.276 392.016 437.024C392.016 436.985 392.016 436.946 392.016 436.903V430.73C392.016 430.691 392.016 430.648 392.016 430.608C391.948 429.449 390.876 428.503 389.514 428.368C389.403 428.368 389.292 428.368 389.178 428.368H271.876C271.709 428.368 271.541 428.381 271.376 428.407C271.2 428.432 271.026 428.473 270.857 428.528C270.336 428.691 269.873 429.001 269.524 429.42C269.218 429.789 269.048 430.251 269.041 430.73Z" fill="#FFCF50"/>
<path d="M326.641 439.268H389.485C390.116 439.283 390.728 439.058 391.198 438.639C391.668 438.219 391.961 437.637 392.016 437.01C392.016 436.97 392.016 436.931 392.016 436.888V430.715C392.016 430.676 392.016 430.633 392.016 430.594C391.969 430.018 391.719 429.477 391.311 429.067C390.903 428.657 390.362 428.404 389.786 428.353C389.686 428.348 389.585 428.348 389.485 428.353H334.359C333.181 432.798 330.442 436.672 326.641 439.268Z" fill="#FFA412"/>
<path d="M277.667 419.815V425.988C277.671 426.474 277.842 426.944 278.153 427.318C278.501 427.737 278.963 428.046 279.483 428.207C279.652 428.264 279.827 428.305 280.005 428.328C280.059 428.339 280.114 428.346 280.169 428.35H280.262H397.807C399.319 428.35 400.566 427.343 400.641 426.095C400.641 426.052 400.641 426.013 400.641 425.97V419.797C400.641 419.758 400.641 419.715 400.641 419.675C400.643 419.642 400.643 419.609 400.641 419.576C400.527 418.569 399.655 417.738 398.497 417.492H398.411C398.208 417.456 398.002 417.438 397.796 417.438H280.491H280.237H280.126L279.998 417.456C279.821 417.483 279.646 417.524 279.476 417.577C278.956 417.741 278.494 418.051 278.146 418.469C277.834 418.848 277.664 419.324 277.667 419.815Z" fill="#FFCF50"/>
<path d="M335.267 428.368H398.111C398.74 428.383 399.352 428.158 399.823 427.739C400.293 427.32 400.585 426.739 400.641 426.112C400.641 426.07 400.641 426.03 400.641 425.988V419.815C400.641 419.775 400.641 419.733 400.641 419.693C400.643 419.66 400.643 419.627 400.641 419.593C400.577 419.082 400.352 418.603 399.999 418.226C399.646 417.849 399.183 417.594 398.675 417.495L398.568 417.474C398.419 417.449 398.269 417.437 398.118 417.438H342.991L342.97 417.513C341.789 421.923 339.069 425.766 335.299 428.35L335.267 428.368Z" fill="#FFA412"/>
<path d="M277.91 408.96V415.137C277.914 415.623 278.087 416.092 278.4 416.464C278.747 416.883 279.209 417.192 279.73 417.353C279.862 417.396 279.997 417.43 280.133 417.456L280.244 417.478C280.41 417.502 280.577 417.514 280.745 417.513H398.054C398.173 417.513 398.292 417.506 398.411 417.492H398.55C399.823 417.299 400.81 416.382 400.877 415.276C400.877 415.233 400.877 415.194 400.877 415.155V408.978C400.877 408.939 400.877 408.9 400.877 408.857C400.799 407.604 399.555 406.602 398.043 406.602H280.738C280.662 406.602 280.587 406.602 280.516 406.602H280.419H280.312H280.237C280.061 406.629 279.888 406.67 279.719 406.727L279.644 406.752L279.572 406.777L279.429 406.834L279.276 406.909L279.143 406.98C279.093 407.009 279.043 407.037 278.997 407.069L278.886 407.144C278.861 407.16 278.837 407.178 278.814 407.198C278.741 407.251 278.671 407.311 278.607 407.376L278.55 407.43L278.496 407.487L278.393 407.608C278.077 407.988 277.906 408.467 277.91 408.96Z" fill="#FFCF50"/>
<path d="M335.513 417.502H398.507H398.668C399.242 417.448 399.779 417.195 400.185 416.786C400.59 416.377 400.839 415.839 400.888 415.265C400.888 415.222 400.888 415.183 400.888 415.144V408.967C400.888 408.928 400.888 408.889 400.888 408.846C400.833 408.219 400.54 407.637 400.07 407.218C399.6 406.799 398.987 406.575 398.357 406.591H343.231L343.156 406.859C341.958 411.155 339.295 414.899 335.628 417.445L335.513 417.502Z" fill="#FFA412"/>
<path d="M271.851 398.299V404.472C271.855 404.958 272.027 405.428 272.337 405.803C272.685 406.222 273.149 406.531 273.671 406.691C273.839 406.748 274.013 406.789 274.189 406.812C274.354 406.84 274.522 406.853 274.689 406.852H391.991C392.441 406.854 392.887 406.763 393.299 406.584C393.695 406.43 394.043 406.175 394.309 405.845C394.576 405.516 394.751 405.122 394.819 404.704C394.819 404.668 394.819 404.632 394.819 404.597C394.819 404.561 394.819 404.515 394.819 404.472V398.299C394.819 398.26 394.819 398.22 394.819 398.177C394.744 396.925 393.496 395.922 391.984 395.922H274.689C274.522 395.922 274.354 395.934 274.189 395.958C274.013 395.985 273.839 396.026 273.671 396.083C273.149 396.243 272.685 396.552 272.337 396.971C272.027 397.345 271.855 397.814 271.851 398.299Z" fill="#FFCF50"/>
<path d="M329.455 406.851H392.295C392.7 406.852 393.1 406.761 393.464 406.584C393.831 406.411 394.148 406.147 394.385 405.818C394.622 405.489 394.771 405.106 394.819 404.703C394.819 404.668 394.819 404.632 394.819 404.596C394.819 404.561 394.819 404.514 394.819 404.471V398.299C394.819 398.259 394.819 398.22 394.819 398.177C394.763 397.55 394.471 396.968 394.001 396.549C393.53 396.13 392.918 395.906 392.288 395.922H337.172C336.036 400.216 333.444 403.983 329.837 406.584L329.455 406.851Z" fill="#FFA412"/>
<path d="M262.264 387.369V393.542C262.267 394.027 262.439 394.497 262.75 394.869C263.1 395.288 263.563 395.597 264.083 395.761C264.253 395.815 264.426 395.856 264.602 395.883C264.767 395.909 264.935 395.922 265.102 395.922H382.408C383.92 395.922 385.164 394.916 385.242 393.663C385.242 393.624 385.242 393.581 385.242 393.542V387.369C385.242 387.326 385.242 387.287 385.242 387.248C385.171 386.088 384.098 385.143 382.74 385.007C382.629 385 382.518 385 382.408 385.007H265.102C264.935 385.007 264.767 385.021 264.602 385.046C264.425 385.07 264.252 385.111 264.083 385.168C263.562 385.329 263.098 385.639 262.75 386.06C262.443 386.428 262.271 386.89 262.264 387.369Z" fill="#FFCF50"/>
<path d="M319.868 395.922H382.711C383.34 395.932 383.95 395.705 384.419 395.287C384.888 394.868 385.182 394.289 385.242 393.663C385.242 393.624 385.242 393.581 385.242 393.542V387.369C385.242 387.327 385.242 387.287 385.242 387.248C385.193 386.672 384.943 386.132 384.535 385.723C384.127 385.313 383.588 385.06 383.012 385.007C382.912 385 382.811 385 382.711 385.007H327.585C326.407 389.452 323.668 393.325 319.868 395.922Z" fill="#FFA412"/>
<path d="M60.4316 582.437V588.61C60.4355 589.097 60.6086 589.567 60.9213 589.941C61.3945 590.49 62.0512 590.849 62.7694 590.951C62.936 590.978 63.1046 590.991 63.2734 590.99H180.575C182.005 590.99 183.177 590.109 183.385 588.967C183.4 588.89 183.409 588.813 183.413 588.735V582.312C183.409 582.234 183.4 582.157 183.385 582.08C183.177 580.938 181.991 580.057 180.575 580.057H63.2734C63.1048 580.058 62.9365 580.07 62.7694 580.093C62.5935 580.118 62.42 580.159 62.251 580.214C61.7302 580.378 61.2682 580.689 60.9213 581.11C60.6088 581.482 60.4357 581.951 60.4316 582.437Z" fill="#FFCF50"/>
<path d="M118.053 590.99H180.893C181.436 591 181.968 590.834 182.408 590.516C182.847 590.198 183.172 589.745 183.331 589.227C183.361 589.143 183.384 589.055 183.399 588.967C183.414 588.89 183.423 588.813 183.428 588.735V582.312C183.424 582.234 183.414 582.157 183.399 582.08C183.384 581.993 183.361 581.907 183.331 581.823C183.175 581.301 182.853 580.845 182.413 580.522C181.973 580.2 181.439 580.031 180.893 580.039H125.767C124.598 584.497 121.859 588.384 118.053 590.99Z" fill="#FFAB01"/>
<path d="M72.9781 571.508V577.681C72.9799 578.166 73.1505 578.635 73.4607 579.008C73.8082 579.429 74.2717 579.739 74.794 579.9C74.9645 579.955 75.1389 579.997 75.3158 580.025L75.5625 580.05C75.6447 580.05 75.7305 580.05 75.8128 580.05H193.118C194.548 580.05 195.721 579.165 195.928 578.023C195.941 577.948 195.95 577.872 195.953 577.795C195.953 577.752 195.953 577.709 195.953 577.67V571.497C195.953 571.454 195.953 571.415 195.953 571.376C195.95 571.298 195.942 571.221 195.928 571.144C195.721 569.998 194.534 569.117 193.118 569.117H75.8128H75.5875H75.5089H75.4016H75.3302C75.153 569.142 74.9784 569.183 74.8083 569.238L74.7332 569.263L74.6618 569.288L74.6081 569.313L74.5187 569.349L74.4401 569.385H74.4151L74.3651 569.41C74.3186 569.431 74.2792 569.456 74.2328 569.481C74.1156 569.549 74.0033 569.626 73.8968 569.709C73.8485 569.744 73.8031 569.782 73.761 569.824C73.6585 569.915 73.5629 570.014 73.475 570.12C73.1461 570.507 72.9694 571 72.9781 571.508Z" fill="#FFCF50"/>
<path d="M130.564 580.061H193.404C193.948 580.071 194.481 579.905 194.921 579.586C195.362 579.267 195.686 578.814 195.846 578.294C195.874 578.209 195.896 578.122 195.913 578.034C195.927 577.959 195.935 577.882 195.938 577.806C195.938 577.763 195.938 577.72 195.938 577.681V571.508C195.938 571.465 195.938 571.426 195.938 571.387C195.936 571.309 195.927 571.231 195.913 571.155C195.896 571.068 195.874 570.982 195.846 570.898C195.69 570.375 195.366 569.918 194.926 569.596C194.485 569.273 193.95 569.104 193.404 569.114H138.285C138.256 569.203 138.235 569.296 138.206 569.385C137.644 571.349 136.783 573.215 135.654 574.919C134.309 576.947 132.58 578.694 130.564 580.061Z" fill="#FFAB01"/>
<path d="M66.9162 560.846V567.008C66.918 567.493 67.0886 567.962 67.3988 568.336C67.8766 568.883 68.5344 569.242 69.2539 569.349C69.4195 569.375 69.5867 569.388 69.7543 569.388H187.042C187.492 569.39 187.938 569.298 188.35 569.117C188.745 568.963 189.093 568.708 189.359 568.378C189.625 568.048 189.8 567.655 189.866 567.237C189.87 567.201 189.87 567.165 189.866 567.13C189.866 567.09 189.866 567.048 189.866 567.008V560.835C189.866 560.796 189.866 560.753 189.866 560.711C189.863 560.634 189.854 560.558 189.841 560.482C189.634 559.34 188.447 558.456 187.031 558.456H69.7294C69.5619 558.456 69.3947 558.468 69.2289 558.491C69.052 558.52 68.8776 558.561 68.707 558.616C68.1864 558.78 67.7237 559.09 67.3737 559.508C67.0702 559.888 66.9084 560.361 66.9162 560.846Z" fill="#FFCF50"/>
<path d="M124.516 569.399H187.363C187.768 569.401 188.167 569.308 188.529 569.128C188.896 568.955 189.212 568.692 189.449 568.363C189.685 568.034 189.833 567.65 189.88 567.248C189.883 567.212 189.883 567.176 189.88 567.141C189.88 567.101 189.88 567.059 189.88 567.019V560.846C189.88 560.807 189.88 560.764 189.88 560.721C189.877 560.645 189.868 560.569 189.855 560.493C189.838 560.405 189.815 560.318 189.787 560.233C189.631 559.711 189.309 559.255 188.87 558.933C188.43 558.611 187.898 558.441 187.353 558.449H132.222C131.82 559.936 131.249 561.372 130.521 562.73C129.161 565.264 127.236 567.452 124.895 569.125L124.516 569.399Z" fill="#FFAB01"/>
<path d="M64.1066 549.917V556.09C64.1088 556.574 64.2807 557.043 64.5927 557.414C64.6758 557.516 64.7666 557.611 64.8644 557.699C65.1731 557.978 65.5391 558.186 65.9367 558.309C66.1074 558.363 66.2819 558.403 66.4586 558.43L66.7053 558.459H66.9591H184.246C185.676 558.459 186.849 557.578 187.056 556.436C187.07 556.359 187.078 556.282 187.081 556.204C187.081 556.161 187.081 556.118 187.081 556.083V549.91C187.081 549.867 187.081 549.824 187.081 549.785C187.078 549.713 187.07 549.642 187.06 549.571C186.877 548.5 185.855 547.676 184.582 547.544C184.472 547.544 184.361 547.544 184.246 547.544H66.9376C66.5907 547.546 66.246 547.6 65.9153 547.705C65.3949 547.865 64.9327 548.174 64.5856 548.593C64.2764 548.965 64.1071 549.433 64.1066 549.917Z" fill="#FFCF50"/>
<path d="M72.7282 538.998V545.171C72.7342 545.657 72.9057 546.126 73.2144 546.502C73.5648 546.919 74.0274 547.227 74.5476 547.39C74.7162 547.447 74.8897 547.488 75.0659 547.512L75.2303 547.537H75.2554H75.4162H192.872C194.302 547.537 195.474 546.655 195.681 545.514C195.695 545.437 195.703 545.36 195.706 545.282V538.859C195.705 538.826 195.705 538.792 195.706 538.759C195.592 537.749 194.72 536.922 193.562 536.679C193.535 536.67 193.507 536.663 193.479 536.658C193.276 536.623 193.071 536.605 192.865 536.604H75.5628H75.309C75.2721 536.6 75.2351 536.6 75.1982 536.604H75.0624C74.8864 536.63 74.7131 536.67 74.5441 536.725C74.023 536.89 73.5603 537.201 73.2108 537.621C72.8911 538.008 72.72 538.496 72.7282 538.998Z" fill="#FFCF50"/>
<path d="M130.332 547.551H193.176C193.718 547.561 194.25 547.395 194.69 547.077C195.129 546.759 195.454 546.307 195.613 545.788C195.641 545.703 195.664 545.616 195.681 545.528C195.695 545.451 195.703 545.374 195.706 545.296V538.874C195.705 538.84 195.705 538.807 195.706 538.774C195.642 538.261 195.416 537.782 195.063 537.405C194.709 537.029 194.245 536.773 193.737 536.676L193.63 536.654C193.482 536.63 193.332 536.618 193.183 536.618H138.056L138.035 536.697C136.852 541.106 134.132 544.948 130.364 547.533L130.332 547.551Z" fill="#FFA412"/>
<path d="M72.9786 528.148V534.321C72.9815 534.805 73.152 535.274 73.4612 535.648C73.8112 536.066 74.2738 536.376 74.7945 536.54C74.9231 536.579 75.0626 536.615 75.202 536.644H75.3128C75.4773 536.668 75.6433 536.681 75.8097 536.683H193.118C193.238 536.683 193.358 536.675 193.476 536.658C193.521 536.661 193.567 536.661 193.612 536.658C194.806 536.476 195.756 535.662 195.921 534.645C195.932 534.578 195.939 534.51 195.942 534.442C195.942 534.399 195.942 534.364 195.942 534.321V528.148C195.942 528.105 195.942 528.066 195.942 528.023C195.94 527.946 195.931 527.87 195.917 527.795C195.71 526.649 194.523 525.768 193.108 525.768H75.8025H75.5773H75.4843H75.3772H75.3056C75.1284 525.793 74.9538 525.834 74.7837 525.889L74.7087 525.911C74.6862 525.923 74.6622 525.933 74.6372 525.939L74.5835 525.96L74.4942 525.996L74.4299 526.028C74.2342 526.119 74.0495 526.231 73.8794 526.364L73.7436 526.478C73.7007 526.517 73.6577 526.556 73.6184 526.599L73.5648 526.656C73.5255 526.692 73.4933 526.735 73.4576 526.774C73.1392 527.16 72.9693 527.648 72.9786 528.148Z" fill="#FFCF50"/>
<path d="M130.564 536.701H193.569H193.729C194.269 536.649 194.777 536.422 195.175 536.055C195.572 535.687 195.838 535.2 195.931 534.667C195.942 534.599 195.949 534.531 195.953 534.463C195.953 534.42 195.953 534.385 195.953 534.342V528.169C195.953 528.126 195.953 528.087 195.953 528.044C195.95 527.968 195.942 527.891 195.928 527.816C195.911 527.728 195.888 527.641 195.86 527.555C195.701 527.036 195.376 526.583 194.936 526.264C194.495 525.945 193.962 525.778 193.418 525.789H138.299C138.27 525.875 138.249 525.967 138.22 526.057C137.022 530.354 134.359 534.098 130.689 536.643L130.564 536.701Z" fill="#FFA412"/>
<path d="M66.9159 517.486V523.659C66.9182 524.144 67.0888 524.613 67.3985 524.986C67.7485 525.405 68.2111 525.714 68.7317 525.878C68.9016 525.934 69.0763 525.973 69.2536 525.996C69.3351 526.012 69.4174 526.023 69.5002 526.028H69.754H187.042C187.492 526.03 187.937 525.939 188.35 525.761C188.745 525.606 189.093 525.35 189.359 525.02C189.625 524.689 189.799 524.295 189.866 523.877C189.869 523.841 189.869 523.805 189.866 523.769C189.866 523.734 189.866 523.691 189.866 523.652V517.479C189.866 517.436 189.866 517.393 189.866 517.358C189.863 517.28 189.854 517.202 189.84 517.126C189.633 515.98 188.446 515.099 187.031 515.099H69.7291C69.3821 515.101 69.0375 515.155 68.7067 515.259C68.188 515.426 67.7262 515.734 67.3734 516.148C67.0707 516.528 66.909 517.001 66.9159 517.486Z" fill="#FFCF50"/>
<path d="M124.516 526.035H187.363C187.767 526.036 188.166 525.944 188.529 525.768C188.895 525.594 189.212 525.33 189.448 525C189.685 524.671 189.833 524.286 189.88 523.884C189.884 523.848 189.884 523.812 189.88 523.777C189.88 523.741 189.88 523.698 189.88 523.659V517.486C189.88 517.443 189.88 517.4 189.88 517.365C189.877 517.287 189.868 517.209 189.855 517.133C189.838 517.045 189.815 516.958 189.787 516.872C189.631 516.351 189.309 515.894 188.87 515.572C188.43 515.25 187.898 515.08 187.352 515.088H132.222C131.09 519.382 128.5 523.15 124.894 525.75L124.516 526.035Z" fill="#FFAB01"/>
<path d="M57.3289 506.553V512.726C57.3325 513.211 57.5043 513.68 57.8149 514.053C57.8578 514.103 57.8972 514.153 57.9437 514.199C58.2746 514.545 58.6877 514.802 59.1447 514.945C59.3138 515 59.4871 515.04 59.663 515.066C59.8297 515.092 59.9983 515.105 60.167 515.106H177.469C178.899 515.106 180.071 514.224 180.279 513.079C180.295 513.004 180.305 512.928 180.307 512.851C180.307 512.808 180.307 512.769 180.307 512.726V506.553C180.307 506.51 180.307 506.475 180.307 506.432C180.232 505.272 179.163 504.326 177.805 504.187C177.694 504.187 177.58 504.187 177.448 504.187H60.1455C59.9767 504.186 59.8082 504.199 59.6416 504.227C59.4654 504.251 59.2918 504.291 59.1232 504.348C58.6662 504.491 58.2531 504.748 57.9222 505.094C57.8757 505.14 57.8364 505.19 57.7935 505.236C57.4941 505.61 57.3304 506.074 57.3289 506.553Z" fill="#FFCF50"/>
<path d="M114.932 515.106H177.776C178.321 515.114 178.854 514.944 179.294 514.622C179.733 514.3 180.055 513.843 180.211 513.322C180.24 513.237 180.263 513.15 180.279 513.061C180.295 512.986 180.305 512.91 180.307 512.833C180.307 512.79 180.307 512.751 180.307 512.708V506.535C180.307 506.492 180.307 506.457 180.307 506.414C180.299 506.306 180.283 506.198 180.257 506.093C180.14 505.585 179.867 505.127 179.476 504.782C179.085 504.437 178.596 504.223 178.077 504.17C177.977 504.164 177.876 504.164 177.776 504.17H122.646C121.475 508.622 118.737 512.504 114.932 515.106Z" fill="#FFAB01"/>
<path d="M72.7281 495.645V501.818C72.7335 502.302 72.9052 502.769 73.2143 503.142C73.5625 503.562 74.0258 503.872 74.5476 504.034C74.717 504.089 74.8902 504.13 75.0659 504.159L75.2303 504.177H75.3125H192.872C194.302 504.177 195.474 503.295 195.681 502.154C195.695 502.078 195.703 502.002 195.706 501.925V495.503C195.703 495.425 195.695 495.347 195.681 495.271C195.474 494.129 194.287 493.248 192.872 493.248H75.3983H75.2697L75.0659 493.269C74.8899 493.296 74.7165 493.338 74.5476 493.394L74.3474 493.465L74.3046 493.487C73.8868 493.659 73.5185 493.933 73.2322 494.282C72.9083 494.663 72.7297 495.146 72.7281 495.645Z" fill="#FFCF50"/>
<path d="M130.332 504.187H193.175C193.72 504.199 194.253 504.033 194.694 503.715C195.135 503.397 195.46 502.944 195.62 502.425C195.649 502.339 195.671 502.252 195.688 502.164C195.702 502.089 195.711 502.012 195.713 501.936V495.513C195.71 495.435 195.702 495.358 195.688 495.281C195.671 495.193 195.649 495.106 195.62 495.021C195.461 494.503 195.137 494.05 194.697 493.732C194.257 493.414 193.726 493.248 193.183 493.258H138.056L137.985 493.511C136.78 497.848 134.081 501.622 130.364 504.169L130.332 504.187Z" fill="#FFAB01"/>
<path d="M64.1063 484.958V491.135C64.1085 491.619 64.2804 492.088 64.5924 492.459C64.9393 492.879 65.4014 493.189 65.9221 493.351C66.0927 493.405 66.2672 493.447 66.4441 493.476C66.6098 493.5 66.777 493.513 66.9445 493.515H184.246C184.682 493.516 185.114 493.43 185.515 493.262C185.895 493.116 186.234 492.88 186.502 492.574C186.77 492.268 186.959 491.901 187.052 491.506C187.063 491.455 187.07 491.404 187.074 491.353C187.076 491.32 187.076 491.288 187.074 491.256C187.074 491.213 187.074 491.171 187.074 491.135V484.958C187.074 484.919 187.074 484.88 187.074 484.837C187.07 484.765 187.063 484.694 187.052 484.623C186.87 483.552 185.848 482.725 184.575 482.596C184.464 482.596 184.354 482.596 184.239 482.596H66.9373C66.8337 482.596 66.7265 482.596 66.6192 482.596L66.4369 482.618C66.2598 482.644 66.0851 482.686 65.915 482.742C65.3952 482.904 64.9334 483.213 64.5853 483.631C64.2753 484.004 64.1059 484.474 64.1063 484.958Z" fill="#FFB93E"/>
<path d="M60.4315 474.047V480.22C60.4371 480.706 60.61 481.175 60.9212 481.548C61.002 481.649 61.0918 481.744 61.1893 481.83C61.4984 482.108 61.8643 482.316 62.2616 482.44C62.4303 482.495 62.6039 482.535 62.78 482.557C62.8343 482.569 62.8892 482.577 62.9444 482.582H63.0159C63.1017 482.582 63.191 482.582 63.284 482.582H180.575C180.679 482.588 180.783 482.588 180.886 482.582C182.166 482.461 183.192 481.63 183.388 480.57C183.403 480.493 183.413 480.416 183.417 480.338V473.915C183.413 473.837 183.403 473.76 183.388 473.683C183.181 472.538 181.994 471.657 180.579 471.657H63.2768C63.108 471.655 62.9394 471.668 62.7729 471.696C62.0547 471.798 61.398 472.157 60.9248 472.706C60.6089 473.082 60.4345 473.556 60.4315 474.047Z" fill="#FFCF50"/>
<path d="M118.053 482.597H180.893C180.985 482.602 181.077 482.602 181.169 482.597C181.71 482.552 182.222 482.33 182.625 481.967C183.028 481.603 183.3 481.117 183.399 480.584C183.414 480.508 183.424 480.43 183.428 480.352V473.929C183.417 473.762 183.385 473.596 183.331 473.437C183.175 472.915 182.853 472.458 182.413 472.136C181.973 471.814 181.439 471.644 180.893 471.653H125.767C124.595 476.094 121.866 479.967 118.074 482.568L118.053 482.597Z" fill="#FFAB01"/>
<path d="M430.239 582.441V588.614C430.243 589.099 430.415 589.567 430.725 589.941C431.073 590.361 431.536 590.669 432.058 590.829C432.227 590.886 432.4 590.928 432.576 590.954C432.742 590.979 432.909 590.991 433.077 590.99H550.379C551.894 590.99 553.138 589.987 553.217 588.735V582.312C553.138 581.06 551.894 580.057 550.379 580.057H433.077C432.909 580.058 432.742 580.07 432.576 580.093C432.4 580.119 432.227 580.161 432.058 580.218C431.536 580.378 431.073 580.687 430.725 581.106C430.413 581.482 430.242 581.953 430.239 582.441Z" fill="#FFCF50"/>
<path d="M487.842 590.99H550.686C551.316 591.005 551.928 590.781 552.398 590.362C552.868 589.943 553.161 589.361 553.217 588.735V582.312C553.161 581.686 552.868 581.104 552.398 580.685C551.928 580.267 551.316 580.042 550.686 580.057H495.56C494.385 584.508 491.645 588.388 487.842 590.99Z" fill="#FFAB01"/>
<path d="M442.782 571.508V577.681C442.785 578.166 442.957 578.635 443.268 579.008C443.616 579.427 444.078 579.736 444.597 579.9C444.768 579.955 444.942 579.996 445.119 580.021C445.285 580.047 445.452 580.06 445.62 580.061H562.922C564.434 580.061 565.681 579.055 565.756 577.802C565.756 577.763 565.756 577.72 565.756 577.681V571.508C565.756 571.469 565.756 571.426 565.756 571.386C565.681 570.134 564.434 569.128 562.922 569.128H445.62H445.395H445.298C445.264 569.124 445.229 569.124 445.194 569.128H445.119C444.942 569.153 444.768 569.194 444.597 569.249L444.526 569.274L444.454 569.303L444.311 569.36L444.229 569.395L444.158 569.431L444.022 569.502L443.875 569.595L443.768 569.67L443.697 569.724C443.625 569.781 443.554 569.841 443.489 569.902C443.425 569.963 443.45 569.938 443.432 569.959L443.379 570.016C443.343 570.056 443.307 570.095 443.275 570.138C442.952 570.521 442.777 571.007 442.782 571.508Z" fill="#FFCF50"/>
<path d="M500.382 580.061H563.225C563.856 580.076 564.468 579.851 564.938 579.431C565.408 579.012 565.701 578.429 565.756 577.802C565.756 577.763 565.756 577.72 565.756 577.681V571.508C565.756 571.469 565.756 571.426 565.756 571.387C565.701 570.76 565.408 570.177 564.938 569.757C564.468 569.338 563.856 569.113 563.225 569.128H508.103C508.077 569.217 508.052 569.306 508.024 569.399C506.815 573.741 504.108 577.517 500.382 580.061Z" fill="#FFAB01"/>
<path d="M436.719 560.846V567.008C436.722 567.494 436.894 567.963 437.205 568.336C437.555 568.754 438.018 569.064 438.538 569.228C438.707 569.283 438.881 569.324 439.057 569.349C439.222 569.375 439.39 569.388 439.557 569.388H556.863C557.313 569.388 557.758 569.296 558.171 569.117C558.566 568.963 558.914 568.708 559.18 568.378C559.445 568.048 559.62 567.655 559.687 567.237V567.13C559.687 567.09 559.687 567.048 559.687 567.008V560.835C559.687 560.793 559.687 560.753 559.687 560.714C559.608 559.462 558.364 558.456 556.852 558.456H439.547C439.379 558.456 439.212 558.469 439.046 558.495C438.87 558.52 438.697 558.561 438.528 558.616C438.007 558.78 437.544 559.09 437.194 559.508C436.885 559.885 436.717 560.359 436.719 560.846Z" fill="#FFCF50"/>
<path d="M494.323 569.399H557.166C557.571 569.399 557.969 569.306 558.332 569.128C558.699 568.955 559.016 568.692 559.253 568.363C559.49 568.034 559.639 567.65 559.687 567.247V567.14C559.687 567.101 559.687 567.058 559.687 567.019V560.846C559.687 560.803 559.687 560.764 559.687 560.725C559.626 560.1 559.333 559.52 558.864 559.102C558.395 558.683 557.785 558.456 557.156 558.466H502.029C500.895 562.76 498.304 566.528 494.698 569.128L494.323 569.399Z" fill="#FFAB01"/>
<path d="M433.91 549.913V556.086C433.913 556.573 434.085 557.043 434.396 557.417C434.744 557.836 435.208 558.145 435.729 558.306C435.897 558.363 436.071 558.403 436.247 558.427C436.413 558.453 436.58 558.466 436.748 558.466H554.05C555.565 558.466 556.809 557.464 556.888 556.211V549.788C556.816 548.629 555.744 547.683 554.386 547.548C554.274 547.542 554.161 547.542 554.05 547.548H436.748C436.58 547.548 436.413 547.561 436.247 547.587C436.071 547.613 435.898 547.655 435.729 547.712C435.208 547.873 434.744 548.181 434.396 548.6C434.088 548.97 433.916 549.433 433.91 549.913Z" fill="#FFCF50"/>
<path d="M491.513 558.466H554.357C554.987 558.481 555.599 558.257 556.069 557.838C556.539 557.419 556.832 556.837 556.888 556.211V549.789C556.838 549.213 556.587 548.673 556.179 548.263C555.77 547.853 555.23 547.6 554.654 547.548C554.555 547.542 554.456 547.542 554.357 547.548H499.231C498.053 551.993 495.314 555.868 491.513 558.466Z" fill="#FFAB01"/>
<path d="M442.535 538.998V545.175C442.539 545.66 442.711 546.129 443.021 546.502C443.368 546.921 443.83 547.23 444.351 547.391C444.521 547.447 444.695 547.489 444.873 547.516L445.037 547.533H445.13H562.675C564.187 547.533 565.434 546.531 565.509 545.278C565.509 545.236 565.509 545.196 565.509 545.157V538.998C565.509 538.959 565.509 538.92 565.509 538.877C565.511 538.844 565.511 538.81 565.509 538.777C565.395 537.771 564.523 536.94 563.383 536.693H563.297C563.094 536.654 562.888 536.635 562.682 536.636H445.373H445.119H445.005H444.873C444.695 536.663 444.521 536.705 444.351 536.761C443.83 536.922 443.368 537.231 443.021 537.65C442.706 538.029 442.534 538.506 442.535 538.998Z" fill="#FFCF50"/>
<path d="M500.135 547.551H562.979C563.609 547.567 564.221 547.343 564.691 546.924C565.162 546.505 565.454 545.923 565.509 545.296C565.509 545.253 565.509 545.214 565.509 545.175V538.999C565.509 538.959 565.509 538.92 565.509 538.877C565.511 538.844 565.511 538.811 565.509 538.777C565.446 538.265 565.221 537.786 564.868 537.409C564.515 537.033 564.051 536.777 563.543 536.679L563.436 536.658C563.287 536.633 563.137 536.621 562.986 536.622H507.859C507.854 536.648 507.847 536.673 507.838 536.697C506.657 541.107 503.937 544.95 500.167 547.534C500.158 547.542 500.147 547.549 500.135 547.551Z" fill="#FFAB01"/>
<path d="M442.781 528.148V534.32C442.785 534.806 442.957 535.275 443.267 535.648C443.615 536.067 444.077 536.375 444.597 536.536C444.73 536.582 444.866 536.616 445.005 536.64L445.119 536.661C445.285 536.686 445.452 536.698 445.619 536.697H562.921C563.04 536.704 563.16 536.704 563.279 536.697L563.418 536.675C564.694 536.483 565.677 535.569 565.745 534.46C565.745 534.42 565.745 534.378 565.745 534.338V528.165C565.745 528.123 565.745 528.083 565.745 528.041C565.67 526.788 564.423 525.785 562.911 525.785H445.609H445.384H445.287H445.183H445.108C444.931 525.809 444.756 525.85 444.586 525.907L444.515 525.932L444.443 525.957L444.3 526.014L444.147 526.089L444.011 526.16L443.864 526.249L443.757 526.324L443.686 526.378C443.612 526.432 443.543 526.492 443.478 526.556L443.421 526.61L443.368 526.667L443.264 526.788C442.948 527.171 442.777 527.652 442.781 528.148Z" fill="#FFCF50"/>
<path d="M500.382 536.697H563.375C563.429 536.701 563.483 536.701 563.536 536.697C564.111 536.644 564.648 536.391 565.054 535.982C565.46 535.573 565.709 535.034 565.756 534.46C565.756 534.42 565.756 534.378 565.756 534.338V528.165C565.756 528.123 565.756 528.083 565.756 528.041C565.701 527.414 565.408 526.832 564.938 526.413C564.468 525.994 563.855 525.769 563.225 525.785H508.103C508.077 525.875 508.052 525.964 508.024 526.053C506.828 530.35 504.165 534.095 500.496 536.64L500.382 536.697Z" fill="#FFAB01"/>
<path d="M436.719 517.486V523.659C436.723 524.144 436.895 524.612 437.205 524.986C437.555 525.404 438.018 525.712 438.538 525.874C438.707 525.931 438.881 525.973 439.057 525.999C439.222 526.024 439.39 526.036 439.557 526.035H556.863C557.313 526.036 557.758 525.945 558.171 525.767C558.566 525.613 558.914 525.359 559.18 525.029C559.445 524.699 559.62 524.305 559.687 523.887V523.78C559.687 523.737 559.687 523.698 559.687 523.659V517.486C559.687 517.443 559.687 517.404 559.687 517.361C559.608 516.108 558.364 515.106 556.852 515.106H439.547C439.379 515.105 439.212 515.117 439.046 515.141C438.87 515.168 438.697 515.21 438.528 515.266C438.007 515.428 437.544 515.737 437.194 516.155C436.888 516.531 436.72 517.001 436.719 517.486Z" fill="#FFCF50"/>
<path d="M494.323 526.035H557.166C557.57 526.036 557.969 525.944 558.332 525.768C558.699 525.595 559.016 525.332 559.253 525.003C559.49 524.674 559.639 524.29 559.687 523.887V523.78C559.687 523.737 559.687 523.698 559.687 523.659V517.486C559.687 517.443 559.687 517.404 559.687 517.361C559.63 516.735 559.338 516.153 558.868 515.734C558.398 515.316 557.786 515.091 557.156 515.106H502.029C500.894 519.399 498.303 523.167 494.698 525.768L494.323 526.035Z" fill="#FFAB01"/>
<path d="M427.132 506.553V512.726C427.135 513.212 427.308 513.682 427.622 514.053C427.97 514.472 428.432 514.782 428.952 514.945C429.121 515 429.294 515.041 429.47 515.067C429.636 515.092 429.803 515.105 429.97 515.106H547.276C548.788 515.106 550.032 514.1 550.11 512.847C550.11 512.808 550.11 512.765 550.11 512.726V506.553C550.11 506.514 550.11 506.471 550.11 506.432C550.039 505.272 548.967 504.327 547.608 504.191C547.497 504.191 547.383 504.191 547.272 504.191H429.967C429.799 504.192 429.632 504.205 429.466 504.23C429.29 504.256 429.117 504.297 428.948 504.352C428.428 504.515 427.967 504.825 427.618 505.244C427.31 505.611 427.138 506.074 427.132 506.553Z" fill="#FFCF50"/>
<path d="M484.736 515.106H547.58C548.21 515.121 548.823 514.896 549.293 514.476C549.763 514.057 550.055 513.474 550.11 512.847C550.11 512.808 550.11 512.765 550.11 512.726V506.553C550.11 506.514 550.11 506.471 550.11 506.432C550.062 505.856 549.812 505.315 549.404 504.906C548.996 504.496 548.456 504.243 547.88 504.191C547.78 504.185 547.68 504.185 547.58 504.191H492.453C491.274 508.635 488.536 512.508 484.736 515.106Z" fill="#FFAB01"/>
<path d="M442.535 495.645V501.818C442.538 502.303 442.71 502.773 443.021 503.145C443.368 503.565 443.83 503.875 444.351 504.037C444.521 504.093 444.696 504.133 444.873 504.159C444.927 504.17 444.982 504.177 445.037 504.18C445.08 504.18 445.123 504.18 445.169 504.18H562.675C564.187 504.18 565.434 503.174 565.51 501.922C565.51 501.882 565.51 501.843 565.51 501.8V495.645C565.51 495.606 565.51 495.563 565.51 495.524C565.434 494.271 564.187 493.265 562.675 493.265H445.223C445.101 493.265 444.987 493.265 444.866 493.301C444.688 493.327 444.514 493.367 444.344 493.422L444.101 493.515L443.954 493.583L443.811 493.658H443.79L443.661 493.736C443.562 493.799 443.468 493.868 443.379 493.943C443.351 493.965 443.324 493.989 443.3 494.014L443.25 494.061L443.164 494.15C443.125 494.193 443.089 494.232 443.053 494.279C442.722 494.657 442.538 495.142 442.535 495.645Z" fill="#FFCF50"/>
<path d="M500.135 504.209H562.979C563.609 504.224 564.222 503.999 564.692 503.579C565.162 503.16 565.454 502.577 565.51 501.95C565.51 501.911 565.51 501.872 565.51 501.829V495.645C565.51 495.606 565.51 495.563 565.51 495.524C565.454 494.897 565.162 494.314 564.692 493.895C564.222 493.475 563.609 493.25 562.979 493.265H507.852C507.831 493.351 507.81 493.433 507.781 493.519C506.579 497.854 503.885 501.627 500.171 504.173C500.167 504.181 500.163 504.189 500.157 504.195C500.15 504.201 500.143 504.206 500.135 504.209Z" fill="#FFAB01"/>
<path d="M433.91 484.959V491.132C433.913 491.618 434.085 492.088 434.396 492.463C434.745 492.881 435.208 493.19 435.729 493.351C435.897 493.408 436.071 493.449 436.247 493.472C436.413 493.498 436.58 493.511 436.748 493.512H554.049C554.485 493.514 554.917 493.428 555.318 493.258C555.725 493.108 556.083 492.852 556.357 492.517C556.631 492.182 556.811 491.78 556.877 491.353V491.256V484.834C556.805 483.674 555.733 482.728 554.375 482.593C554.263 482.587 554.151 482.587 554.039 482.593H436.737C436.569 482.593 436.402 482.606 436.237 482.632C436.061 482.659 435.888 482.7 435.718 482.753C435.198 482.918 434.735 483.227 434.385 483.645C434.081 484.016 433.913 484.48 433.91 484.959Z" fill="#FFCF50"/>
<path d="M491.513 493.504H554.357C554.748 493.506 555.134 493.419 555.486 493.251C555.864 493.081 556.191 492.816 556.435 492.482C556.678 492.148 556.831 491.756 556.877 491.346V491.249V484.826C556.827 484.251 556.576 483.71 556.168 483.301C555.759 482.891 555.22 482.638 554.643 482.586C554.544 482.58 554.445 482.58 554.346 482.586H499.22C498.083 486.883 495.485 490.652 491.871 493.247L491.513 493.504Z" fill="#FFAB01"/>
<path d="M430.239 474.044V480.22C430.243 480.706 430.415 481.174 430.725 481.548C431.073 481.967 431.536 482.276 432.058 482.436C432.227 482.493 432.4 482.535 432.576 482.561L432.741 482.579H432.834H550.379C551.894 482.579 553.138 481.576 553.217 480.324V473.901C553.138 472.649 551.894 471.646 550.379 471.646H433.077C432.909 471.645 432.742 471.657 432.576 471.682C432.4 471.708 432.227 471.75 432.058 471.807C431.536 471.967 431.073 472.276 430.725 472.695C430.41 473.074 430.238 473.551 430.239 474.044Z" fill="#FFCF50"/>
<path d="M487.842 482.596H550.686C551.316 482.612 551.928 482.387 552.398 481.968C552.868 481.549 553.161 480.968 553.217 480.341V473.919C553.161 473.292 552.868 472.711 552.398 472.292C551.928 471.873 551.316 471.648 550.686 471.664H495.56C494.386 476.103 491.657 479.974 487.867 482.575L487.842 482.596Z" fill="#FFAB01"/>
<path d="M196.053 591.347C163.738 591.347 137.542 565.197 137.542 532.939C137.542 500.682 163.738 474.532 196.053 474.532C228.368 474.532 254.564 500.682 254.564 532.939C254.564 565.197 228.368 591.347 196.053 591.347Z" fill="#E2810E"/>
<path opacity="0.5" d="M127.443 542.089C127.443 543.923 127.513 545.739 127.651 547.537C127.748 548.765 127.875 549.982 128.03 551.191C128.344 553.634 128.79 556.058 129.366 558.452C129.706 559.879 130.081 561.307 130.532 562.734C131.202 564.903 131.982 567.037 132.87 569.128C132.905 569.217 132.945 569.31 132.988 569.399C133.795 571.294 134.693 573.146 135.668 574.933C136.644 576.721 137.663 578.409 138.768 580.061C138.835 580.168 138.911 580.271 138.982 580.378C139.411 581.021 139.858 581.649 140.315 582.27C142.607 585.412 145.191 588.332 148.033 590.99H180.879C181.422 591 181.953 590.834 182.393 590.516C182.833 590.198 183.157 589.746 183.317 589.227C183.347 589.143 183.369 589.056 183.385 588.967C183.4 588.89 183.409 588.813 183.413 588.735V582.312C183.409 582.234 183.4 582.157 183.385 582.08C183.369 581.993 183.347 581.907 183.317 581.824C183.161 581.301 182.838 580.845 182.398 580.522C181.958 580.2 181.425 580.031 180.879 580.039H193.419C193.962 580.05 194.495 579.883 194.936 579.565C195.376 579.246 195.701 578.793 195.86 578.273C195.888 578.188 195.911 578.101 195.928 578.013C195.941 577.937 195.95 577.861 195.953 577.784C195.953 577.742 195.953 577.699 195.953 577.659V571.487C195.953 571.444 195.953 571.404 195.953 571.365C195.95 571.287 195.942 571.21 195.928 571.133C195.911 571.046 195.888 570.961 195.86 570.876C195.704 570.354 195.381 569.896 194.94 569.574C194.499 569.252 193.965 569.083 193.419 569.092H188.529C188.895 568.92 189.212 568.656 189.449 568.327C189.685 567.998 189.833 567.614 189.88 567.212C189.883 567.176 189.883 567.14 189.88 567.105C189.88 567.066 189.88 567.023 189.88 566.984V560.811C189.88 560.771 189.88 560.729 189.88 560.686C189.877 560.609 189.868 560.533 189.855 560.457C189.838 560.369 189.815 560.282 189.787 560.197C189.631 559.675 189.309 559.219 188.87 558.897C188.43 558.575 187.898 558.405 187.353 558.413H184.539C185.084 558.421 185.617 558.251 186.057 557.929C186.496 557.607 186.818 557.15 186.974 556.629C187.001 556.545 187.024 556.459 187.042 556.372C187.055 556.295 187.064 556.218 187.067 556.14C187.067 556.097 187.067 556.054 187.067 556.019V549.846C187.067 549.803 187.067 549.76 187.067 549.721C187.063 549.649 187.056 549.578 187.045 549.507C186.946 548.976 186.677 548.492 186.279 548.126C185.88 547.761 185.374 547.534 184.836 547.48H193.161C193.704 547.49 194.236 547.324 194.675 547.006C195.115 546.688 195.439 546.235 195.599 545.717C195.627 545.632 195.65 545.545 195.667 545.457C195.681 545.38 195.689 545.303 195.692 545.225V538.802C195.69 538.769 195.69 538.736 195.692 538.702C195.417 538.692 195.147 538.627 194.897 538.511C194.647 538.395 194.423 538.23 194.238 538.027C194.053 537.824 193.91 537.585 193.818 537.326C193.726 537.067 193.687 536.793 193.702 536.518C193.717 536.244 193.787 535.975 193.908 535.728C194.028 535.481 194.197 535.261 194.404 535.079C194.611 534.898 194.852 534.76 195.113 534.672C195.374 534.585 195.65 534.55 195.924 534.57C195.935 534.503 195.942 534.435 195.946 534.367C195.946 534.324 195.946 534.289 195.946 534.246V528.073C195.946 528.03 195.946 527.991 195.946 527.948C195.943 527.871 195.934 527.795 195.921 527.72C195.904 527.631 195.881 527.544 195.853 527.459C195.694 526.94 195.369 526.486 194.929 526.168C194.488 525.849 193.955 525.682 193.411 525.693H188.521C188.888 525.519 189.205 525.255 189.441 524.925C189.678 524.596 189.826 524.212 189.873 523.809C189.876 523.773 189.876 523.737 189.873 523.702C189.873 523.666 189.873 523.623 189.873 523.584V517.411C189.873 517.368 189.873 517.325 189.873 517.29C189.87 517.212 189.861 517.134 189.848 517.058C189.83 516.97 189.808 516.883 189.78 516.797C189.624 516.276 189.302 515.819 188.863 515.497C188.423 515.175 187.89 515.005 187.345 515.013H177.759C178.304 515.021 178.836 514.851 179.276 514.529C179.715 514.207 180.037 513.751 180.193 513.229C180.222 513.144 180.245 513.057 180.261 512.969C180.277 512.894 180.287 512.817 180.289 512.74C180.289 512.698 180.289 512.658 180.289 512.616V506.443C180.289 506.4 180.289 506.364 180.289 506.321C180.282 506.213 180.265 506.106 180.239 506C180.122 505.493 179.849 505.034 179.458 504.69C179.067 504.345 178.578 504.131 178.059 504.077H193.158C193.691 504.1 194.218 503.952 194.661 503.655C195.104 503.357 195.44 502.926 195.62 502.425C195.649 502.34 195.671 502.253 195.688 502.164C195.702 502.089 195.711 502.013 195.713 501.936V495.513C195.71 495.436 195.702 495.358 195.688 495.281C195.671 495.193 195.649 495.106 195.62 495.021C195.461 494.503 195.137 494.051 194.697 493.733C194.257 493.415 193.726 493.248 193.183 493.258H185.676C186.03 493.098 186.339 492.854 186.578 492.548C186.817 492.243 186.978 491.884 187.049 491.503C187.06 491.452 187.067 491.401 187.07 491.349C187.072 491.317 187.072 491.285 187.07 491.253C187.07 491.21 187.07 491.167 187.07 491.132V484.955C187.07 484.916 187.07 484.877 187.07 484.834C187.067 484.762 187.06 484.691 187.049 484.62C186.949 484.089 186.68 483.605 186.282 483.239C185.884 482.874 185.378 482.647 184.84 482.593C184.741 482.588 184.642 482.588 184.543 482.593H181.144C181.685 482.548 182.197 482.327 182.6 481.963C183.003 481.6 183.275 481.114 183.374 480.581C183.389 480.504 183.399 480.427 183.403 480.349V477.947C176.675 478.26 170.066 479.834 163.921 482.586H163.889C158.014 485.226 152.624 488.832 147.943 493.251L147.668 493.504C145.39 495.672 143.28 498.009 141.355 500.494C140.898 501.083 140.458 501.676 140.022 502.279C139.586 502.882 139.139 503.527 138.714 504.163C138.199 504.937 137.695 505.729 137.209 506.532C136.723 507.335 136.305 508.052 135.876 508.837C134.755 510.863 133.743 512.947 132.844 515.081C131.385 518.532 130.216 522.098 129.349 525.743C129.327 525.828 129.309 525.921 129.284 526.01C129.191 526.396 129.109 526.785 129.023 527.174C128.383 530.129 127.936 533.123 127.686 536.137C127.686 536.29 127.661 536.444 127.651 536.597C127.651 536.626 127.651 536.647 127.651 536.676C127.513 538.469 127.443 540.274 127.443 542.089Z" fill="#E2810E"/>
<path d="M201.157 591.347C168.842 591.347 142.646 565.197 142.646 532.939C142.646 500.682 168.842 474.532 201.157 474.532C233.472 474.532 259.669 500.682 259.669 532.939C259.669 565.197 233.472 591.347 201.157 591.347Z" fill="#FFCF50"/>
<path d="M201.157 586.844C213.491 586.841 225.443 582.57 234.976 574.757C244.509 566.945 251.034 556.075 253.438 543.999C255.842 531.923 253.978 519.388 248.162 508.531C242.346 497.673 232.939 489.164 221.543 484.454C210.147 479.744 197.467 479.123 185.665 482.699C173.862 486.274 163.666 493.824 156.815 504.061C149.963 514.299 146.88 526.592 148.089 538.845C149.299 551.097 154.727 562.552 163.449 571.258C168.389 576.217 174.266 580.147 180.739 582.823C187.211 585.498 194.152 586.865 201.157 586.844ZM201.157 483.588C228.799 483.588 251.286 506.036 251.286 533.628C251.286 561.221 228.799 583.672 201.157 583.672C173.515 583.672 151.024 561.221 151.024 533.628C151.024 506.036 173.515 483.588 201.157 483.588Z" fill="#FFAB01"/>
<path d="M441.704 452.329C415.879 426.55 415.879 384.754 441.704 358.975C467.529 333.196 509.4 333.196 535.225 358.975C561.05 384.754 561.05 426.55 535.225 452.329C509.4 478.108 467.529 478.108 441.704 452.329Z" fill="#E2810E"/>
<path d="M447.475 452.33C421.65 426.551 421.65 384.755 447.475 358.976C473.3 333.197 515.17 333.197 540.995 358.976C566.82 384.755 566.82 426.551 540.995 452.33C515.17 478.109 473.3 478.109 447.475 452.33Z" fill="#FFCF50"/>
<path d="M494.233 466.579C508.173 466.579 521.681 461.754 532.457 452.927C543.232 444.099 550.608 431.815 553.328 418.168C556.047 404.52 553.942 390.354 547.371 378.082C540.8 365.81 530.169 356.192 517.291 350.867C504.412 345.542 490.082 344.84 476.743 348.879C463.403 352.918 451.88 361.449 444.135 373.019C436.391 384.589 432.905 398.481 434.271 412.329C435.637 426.177 441.772 439.124 451.628 448.963C457.211 454.565 463.851 459.006 471.164 462.03C478.477 465.053 486.318 466.6 494.233 466.579ZM494.233 349.879C525.475 349.879 550.89 375.248 550.89 406.434C550.89 437.62 525.475 462.989 494.233 462.989C462.992 462.989 437.573 437.62 437.573 406.434C437.573 375.248 462.995 349.879 494.233 349.879Z" fill="#FFAB01"/>
<path d="M90.6972 408.675C90.6972 408.675 96.9133 417.41 102.611 417.531C108.309 417.652 116.981 413.481 116.981 413.481C116.981 413.481 122.21 401.842 118.661 397.289C118.661 397.289 115.104 395.73 111.383 398.481C110.669 399.016 110.022 399.635 109.456 400.325C108.685 401.284 107.643 401.99 106.464 402.348C102.397 403.583 97.571 400.679 95.7658 403.483C94.8815 404.85 93.8257 406.098 92.6239 407.198C92.0248 407.744 91.3802 408.238 90.6972 408.675Z" fill="#EEEEEE"/>
<path d="M171.671 471.653C171.671 471.653 149.699 418.516 110.154 417.502C110.154 417.502 73.654 421.552 71.6237 471.653H171.671Z" fill="#EEEEEE"/>
<path d="M121.049 419.155C121.049 419.155 105.199 422.673 100.316 420.603C100.316 420.603 99.5766 413.988 106.25 414.916C110.822 415.551 113.796 413.36 115.544 412.472C118.018 411.212 121.706 416.386 121.049 419.155Z" fill="#0C6D6A"/>
<path d="M107.255 409.182C108.27 409.942 111.383 398.477 111.383 398.477C110.669 399.012 110.022 399.632 109.456 400.322C108.685 401.281 107.643 401.986 106.465 402.345C106.454 402.684 106.257 408.443 107.255 409.182Z" fill="#AABDC6"/>
<path d="M92.6238 407.198C92.8455 407.33 100.177 411.711 101.171 411.711C102.164 411.711 95.7658 403.483 95.7658 403.483C94.8814 404.85 93.8256 406.098 92.6238 407.198Z" fill="#AABDC6"/>
<path d="M150.267 456.838C150.674 456.481 134.721 433.388 130.324 433.22C125.928 433.053 116.058 438.28 108.913 438.954C101.768 439.629 94.8365 437.605 93.4854 441.809C92.1342 446.012 88.4167 460.977 90.6972 463.371C92.9778 465.765 141.495 464.317 150.267 456.838Z" fill="#0C6D6A"/>
<path d="M306.009 334.982C306.009 334.982 310.924 341.89 315.432 341.986C319.939 342.082 326.792 338.775 326.792 338.775C326.792 338.775 330.927 329.572 328.121 325.972C327.161 325.63 326.129 325.536 325.122 325.701C324.115 325.866 323.167 326.283 322.366 326.914C321.802 327.338 321.291 327.828 320.843 328.374C320.234 329.132 319.409 329.689 318.477 329.972C315.26 330.95 311.446 328.652 310.02 330.868C309.316 331.951 308.475 332.94 307.518 333.808C307.049 334.241 306.544 334.633 306.009 334.982Z" fill="#FFEDDC"/>
<path d="M370.083 384.804C370.083 384.804 352.714 342.785 321.444 341.986C321.444 341.986 292.58 345.197 290.978 384.804H370.083Z" fill="#F3F8FD"/>
<path d="M330.023 343.285C330.023 343.285 317.491 346.068 313.623 344.434C313.623 344.434 313.04 339.203 318.316 339.934C321.93 340.437 324.282 338.703 325.669 338C327.61 336.987 330.53 341.08 330.023 343.285Z" fill="#DB6A1D"/>
<path d="M319.103 335.381C319.903 335.981 322.366 326.921 322.366 326.921C321.802 327.345 321.291 327.835 320.843 328.381C320.234 329.139 319.409 329.696 318.477 329.979C318.47 330.243 318.323 334.796 319.103 335.381Z" fill="#E5C1A1"/>
<path d="M307.532 333.815C307.711 333.918 313.505 337.383 314.291 337.383C315.078 337.383 310.002 330.875 310.002 330.875C309.309 331.957 308.478 332.945 307.532 333.815Z" fill="#E5C1A1"/>
<path d="M353.115 373.065C353.436 372.79 340.822 354.51 337.347 354.389C333.873 354.268 326.066 358.392 320.415 358.924C314.763 359.456 309.284 357.854 308.215 361.193C307.146 364.533 304.208 376.351 306.009 378.242C307.811 380.133 346.176 378.966 353.115 373.065Z" fill="#137F7F"/>
<path d="M419.454 337.783C419.454 337.783 420.43 332.98 409.359 318.204C406.972 315.018 399.687 303.014 399.687 303.014C396.806 302.301 387.841 307.071 385.474 308.524L384.724 308.991C384.724 308.991 380.888 325.597 389.042 323.713C389.296 323.653 389.549 323.606 389.803 323.563C397.689 322.34 405.299 330.147 408.748 335.106C411.007 338.329 417.956 337.932 419.454 337.783Z" fill="#233862"/>
<path d="M361.018 305.512C361.018 305.512 361.993 300.713 350.92 285.937C348.532 282.747 341.247 270.744 341.247 270.744C338.369 270.03 329.401 274.805 327.038 276.253C326.563 276.546 326.288 276.724 326.288 276.724C326.288 276.724 322.452 293.327 330.602 291.443C330.859 291.382 331.113 291.336 331.367 291.297C339.231 290.069 346.859 297.88 350.312 302.836C352.571 306.058 359.52 305.644 361.018 305.512Z" fill="#233862"/>
<path d="M236.288 223.32C238.554 213.607 263.737 183.321 276.637 190.336C289.538 197.351 282.839 235.444 269.399 280.371C269.192 281.06 268.984 281.738 268.77 282.416C295.872 277.973 328.128 276.628 328.128 276.628L331.524 292.26C307.103 298.997 259.676 322.408 239.762 332.488C232.156 335.931 223.22 335.931 221.4 329.251C215.309 306.89 236.288 223.32 236.288 223.32Z" fill="#137F7F"/>
<path d="M284.376 363.266C284.376 363.266 342.023 337.301 377.171 326.807C381.528 325.512 385.528 324.456 389.038 323.706L385.342 308.659C385.342 308.659 381.896 308.599 376.309 308.606C354.423 308.666 299.621 309.89 289.827 320.613C277.542 334.086 284.376 363.266 284.376 363.266Z" fill="#FFB27D"/>
<path d="M240.817 7.34598C238.922 11.6991 237.41 17.4046 238.694 20.4126C240.145 23.8238 239.745 26.2929 239.745 26.2929L242.844 27.0494L246.547 27.9485C246.547 27.9485 246.744 27.6345 247.04 27.0922C247.337 26.5498 247.73 25.7898 248.113 24.9013C248.19 24.3925 248.39 23.9099 248.695 23.4948C249 23.0798 249.401 22.7446 249.864 22.5178C251.44 21.7756 253.081 19.8738 253.399 18.0362C253.717 16.1986 255.59 12.7732 255.054 12.4128C253.757 11.5386 251.812 16.873 250.668 17.1085C249.632 17.3261 249.303 16.5947 249.239 16.4519V16.4234C247.451 12.0631 250.761 1.08029 248.13 0.452292C247.158 0.227498 241.621 5.4941 240.817 7.34598Z" fill="#E9D6B8"/>
<path d="M440.297 95.1692C437.08 98.6553 432.458 102.345 429.184 102.391C425.47 102.441 423.368 103.818 423.368 103.818L421.424 101.296L419.104 98.2771C419.104 98.2771 419.315 97.9702 419.69 97.4813C420.065 96.9925 422.689 94.7874 422.736 93.0461C422.782 91.3049 423.851 89.0248 425.409 88.0043C426.968 86.9838 429.341 83.8795 429.895 84.2221C431.222 85.0499 427.121 88.9856 427.365 90.1238C427.586 91.155 428.39 91.1621 428.544 91.155H428.573C433.295 91.0337 442.031 83.5584 443.654 85.7136C444.258 86.5021 441.67 93.6848 440.297 95.1692Z" fill="#E9D6B8"/>
<path d="M300.83 230.57C315.049 234.252 311.482 251.319 309.358 298.162C309.115 303.461 308.622 308.581 307.929 313.462C328.768 309.284 360.807 308.656 376.317 308.613C376.317 308.613 378.89 314.322 378.779 318.904C378.544 328.634 373.564 335.067 373.564 335.067C338.416 345.561 284.383 363.256 284.383 363.256V363.213C280.78 364.148 277.388 362.349 274.693 357.197C263.944 336.648 245.553 199.909 245.553 199.909C245.374 189.954 286.614 226.891 300.83 230.57Z" fill="#198D8D"/>
<path d="M324.043 125.599C324.043 125.599 319.038 112.949 328.761 94.9124L314.942 97.9774L305.552 100.058C304.193 103.035 303 106.084 301.977 109.192C301.441 110.755 299.475 117.024 298.874 118.962C295.575 119.101 300.333 124.093 307.096 125.074C314.652 126.159 324.043 125.599 324.043 125.599Z" fill="#E9D6B8"/>
<path d="M305.552 100.047C304.194 103.024 303 106.073 301.977 109.181C310.041 111.586 324.429 103.758 324.429 103.758C321.183 100.796 317.966 98.9585 314.949 97.9666L305.552 100.047Z" fill="#DFCAA8"/>
<path d="M299.346 95.3297C299.346 95.3297 315.357 113.006 326.23 102.883C337.104 92.7606 346.494 88.2255 336.732 76.5112C326.97 64.7969 320.801 66.4989 316.357 68.9966C311.914 71.4943 295.461 90.4698 299.346 95.3297Z" fill="#E9D6B8"/>
<path d="M327.128 101.788C327.128 101.788 325.487 99.9719 327.843 97.6134C330.198 95.2548 332.918 91.8472 330.295 90.8018C327.671 89.7563 326.22 91.3655 326.134 89.6849C326.048 88.0043 329.351 83.826 323.274 78.538C317.198 73.25 312.89 73.4105 310.981 69.7996C309.073 66.1886 312.443 61.632 312.443 61.632C312.443 61.632 312.018 63.8764 312.88 65.3786C312.88 65.3786 313.298 54.8204 322.606 54.7277C331.914 54.6349 335.306 62.2208 338.427 65.0111C345.304 71.1697 349.626 75.3017 348.217 81.9099C346.809 88.5181 335.385 100.9 327.128 101.788Z" fill="#233862"/>
<path d="M309.352 91.6473L303.411 86.0667C303.411 86.0667 300.994 89.7669 302.696 91.3725C304.397 92.9782 309.352 91.6473 309.352 91.6473Z" fill="white"/>
<path d="M229.611 58.2137C232.149 42.5138 239.794 25.2796 239.794 25.2796L248.123 24.9014C248.123 24.9014 247.197 46.1533 247.408 61.0147C247.505 68.1511 250.625 74.613 251.483 75.7548C254.068 79.2088 292.151 115.797 293.423 116.96L293.455 116.992C297.509 117.681 297.059 124.325 301.223 125.441C308.165 127.297 319.692 123.914 325.862 126.194C325.862 126.194 375.309 126.251 382.833 122.655C390.357 119.058 419.701 97.4635 419.701 97.4635L425.105 103.786C425.105 103.786 404.967 142.487 389.003 149.459C380.313 153.252 361.225 157.812 345.633 161.184C342.607 161.843 339.81 163.293 337.53 165.386C335.25 167.479 333.568 170.139 332.657 173.094C318.002 220.312 325.372 260.129 325.372 260.129C325.372 260.129 311.314 261.699 293.813 256.846C271.057 250.538 254.436 240.318 254.436 240.318C248.023 232.558 251.812 204.102 251.812 204.102C251.812 204.102 247.387 208.872 245.903 216.847C244.831 222.588 244.259 225.767 243.905 227.783C243.829 228.219 243.642 228.627 243.363 228.97C243.084 229.313 242.721 229.579 242.31 229.743C241.899 229.907 241.453 229.964 241.014 229.908C240.575 229.851 240.158 229.684 239.802 229.421C236.513 226.991 231.82 223.205 230.354 220.429C225.232 210.724 236.624 171.189 252.359 143.621C253.742 141.204 254.444 138.46 254.392 135.677C254.34 132.894 253.535 130.178 252.062 127.814C242.382 112.314 227.502 87.7331 227.319 82.7983C227.234 80.1151 228.149 67.234 229.611 58.2137Z" fill="#79CCCA"/>
<path d="M302.299 129.006C302.299 129.006 289.023 147.81 298.756 165.979C308.49 184.148 346.734 181.643 353.804 204.341L349.515 218.474L333.522 209.836C333.522 209.836 332.185 197.561 316.457 192.23C285.738 181.822 278.342 163.838 284.791 147.75C290.238 134.151 298.127 127.6 298.127 127.6L302.299 129.006Z" fill="#FFCF50"/>
<path d="M322.806 118.662L307.41 123.739L306.653 126.651L325.851 126.198C325.851 126.198 324.833 121.791 322.806 118.662Z" fill="#FFCF50"/>
<path d="M300.283 114.437L299.768 122.384C299.768 122.384 297.752 124.028 297.777 123.811C297.802 123.593 293.448 116.996 293.448 116.996C295.652 115.956 297.938 115.1 300.283 114.437Z" fill="#FFCF50"/>
<path d="M307.411 123.739L299.547 121.092C299.378 121.035 299.199 121.016 299.022 121.037C298.845 121.058 298.675 121.118 298.525 121.212C298.374 121.307 298.246 121.434 298.151 121.584C298.056 121.734 297.995 121.904 297.974 122.08L297.327 127.347C297.294 127.62 297.356 127.896 297.502 128.129C297.649 128.362 297.871 128.538 298.131 128.628L301.588 129.794C301.772 129.857 301.97 129.873 302.162 129.842C302.355 129.811 302.537 129.733 302.692 129.616L307.732 125.827C307.907 125.697 308.042 125.522 308.125 125.321C308.207 125.12 308.234 124.901 308.2 124.686C308.167 124.472 308.076 124.27 307.937 124.103C307.798 123.937 307.616 123.811 307.411 123.739Z" fill="#F9BB41"/>
<path d="M248.523 23.7915L249.217 30.389C249.217 30.389 240.874 30.5175 240.874 30.389C240.874 30.2606 240.62 27.117 240.62 27.117L239.23 30.7673L236.134 29.7575L239.68 23.7915C239.68 23.7915 243.205 25.4578 248.523 23.7915Z" fill="#2A425B"/>
<path d="M419.69 97.4668L425.127 103.786L423.529 109.952L421.316 108.439L422.407 103.804L418.6 106.922L413.671 100.425L419.69 97.4668Z" fill="#2A425B"/>
<path d="M420.873 103.265C420.873 103.166 420.844 103.069 420.788 102.986C420.733 102.903 420.654 102.839 420.562 102.801C420.47 102.762 420.369 102.752 420.271 102.772C420.173 102.791 420.083 102.839 420.013 102.91C419.942 102.98 419.894 103.07 419.875 103.167C419.855 103.265 419.866 103.366 419.904 103.458C419.942 103.55 420.006 103.628 420.089 103.684C420.172 103.739 420.27 103.768 420.369 103.768C420.503 103.767 420.63 103.714 420.725 103.62C420.819 103.526 420.872 103.398 420.873 103.265Z" fill="#EBF3FA"/>
<path d="M242.404 27.9484C242.404 27.8693 242.381 27.7918 242.337 27.7261C242.292 27.6603 242.23 27.609 242.156 27.5789C242.083 27.5488 242.002 27.5411 241.925 27.5568C241.847 27.5725 241.775 27.6109 241.72 27.6671C241.664 27.7234 241.626 27.7949 241.611 27.8727C241.596 27.9504 241.604 28.0309 241.635 28.1039C241.666 28.1768 241.718 28.239 241.784 28.2825C241.85 28.3259 241.928 28.3488 242.008 28.3481C242.113 28.3471 242.214 28.3046 242.288 28.2298C242.363 28.1549 242.404 28.0538 242.404 27.9484Z" fill="#EBF3FA"/>
<path d="M255.522 181.565C255.522 181.353 255.46 181.146 255.342 180.97C255.224 180.794 255.056 180.657 254.861 180.576C254.665 180.495 254.449 180.474 254.241 180.515C254.033 180.557 253.842 180.658 253.692 180.808C253.542 180.958 253.44 181.149 253.398 181.356C253.357 181.564 253.378 181.779 253.459 181.975C253.541 182.17 253.678 182.338 253.854 182.455C254.031 182.573 254.238 182.636 254.45 182.636C254.735 182.636 255.007 182.523 255.208 182.322C255.409 182.121 255.522 181.849 255.522 181.565Z" fill="#EBF3FA"/>
<path d="M264.059 163.806C264.059 163.595 263.996 163.388 263.878 163.212C263.76 163.036 263.593 162.898 263.397 162.817C263.201 162.736 262.985 162.715 262.777 162.756C262.569 162.798 262.378 162.9 262.228 163.049C262.078 163.199 261.976 163.39 261.934 163.597C261.893 163.805 261.914 164.02 261.995 164.216C262.076 164.412 262.214 164.579 262.39 164.696C262.567 164.814 262.774 164.877 262.986 164.877C263.271 164.877 263.543 164.764 263.744 164.563C263.946 164.362 264.059 164.09 264.059 163.806Z" fill="#EBF3FA"/>
<path d="M275.815 150.39C275.815 150.178 275.752 149.971 275.634 149.795C275.517 149.619 275.349 149.482 275.153 149.401C274.957 149.32 274.742 149.299 274.534 149.34C274.326 149.381 274.135 149.483 273.985 149.633C273.835 149.783 273.732 149.974 273.691 150.181C273.65 150.389 273.671 150.604 273.752 150.8C273.833 150.995 273.971 151.162 274.147 151.28C274.323 151.398 274.531 151.46 274.743 151.46C275.027 151.46 275.3 151.348 275.501 151.147C275.702 150.946 275.815 150.674 275.815 150.39Z" fill="#EBF3FA"/>
</svg>
