<svg width="1920" height="946" viewBox="0 0 1920 946" fill="none" xmlns="http://www.w3.org/2000/svg">
<path d="M0 0H1923V840.846L1465.76 828.308C1300.68 823.781 1135.56 836 972.951 864.778C669.717 918.442 359.072 914.305 57.3746 852.584L0 840.846V0Z" fill="#F5F5F5"/>
<path d="M1940.74 0V618C1899.08 460.541 1771.13 418.014 1379.02 312.821C949.426 197.57 764.934 95.2805 666 0H1940.74Z" fill="#FBFBFB"/>
<path d="M1940.74 0V512C1818.46 408.948 1610.15 353.482 1453.24 306.506C1226.95 238.758 1139.37 215.624 988.44 148.542C895.252 107.129 813.363 53.8903 756.44 0.014015L1940.74 0Z" fill="white"/>
</svg>
