<svg width="360" height="794" viewBox="0 0 360 794" fill="none" xmlns="http://www.w3.org/2000/svg">
<mask id="mask0" mask-type="alpha" maskUnits="userSpaceOnUse" x="0" y="0" width="360" height="794">
<rect width="360" height="794" fill="#C4C4C4"/>
</mask>
<g mask="url(#mask0)">
<path d="M-293.958 -483.186H665.181V703.586L436.167 695.693C355.613 692.917 275.156 703.513 198.067 727.05C42.1934 774.641 -125.129 768.654 -277.202 710.044L-293.958 703.586V-483.186Z" fill="#F5F5F5"/>
<path d="M672.278 -73.8662V798.662C651.471 576.352 587.56 516.31 391.707 367.792C177.125 205.074 84.9727 60.6564 35.5557 -73.8662H672.278Z" fill="#FBFBFB"/>
<path d="M672.278 -73.8662V646.513C611.355 501.52 507.562 423.479 429.378 357.385C316.63 262.064 272.994 229.515 197.79 135.13C151.358 76.8633 110.557 1.95695 82.1943 -73.8465L672.278 -73.8662Z" fill="white"/>
</g>
</svg>
