<svg width="74" height="86" viewBox="0 0 74 86" fill="none" xmlns="http://www.w3.org/2000/svg">
<path d="M71.0274 13.7932L37.8552 0.254362C37.0241 -0.084704 36.0903 -0.0848706 35.2592 0.254362L2.08565 13.7932C0.822575 14.309 0 15.5215 0 16.8663V33.3246C0 55.9866 13.9338 76.3718 35.2778 84.9358C36.0975 85.2646 37.0155 85.2646 37.8367 84.9358C59.1807 76.3719 73.1144 55.9868 73.1144 33.3246V16.8663C73.1144 15.5215 72.2904 14.309 71.0274 13.7932Z" fill="#5B7C91"/>
<path d="M67.7356 56.1493H60.7602C59.7737 47.6009 53.1461 40.8218 44.7892 39.8117V32.6765C44.7892 32.4195 44.584 32.2092 44.3331 32.2092H40.9088C40.6579 32.2092 40.4512 32.4195 40.4512 32.6765V39.8117C32.0957 40.8218 25.4681 47.6009 24.4802 56.1493H17.5062C17.2553 56.1493 17.0486 56.3595 17.0486 56.6165V60.1199C17.0486 60.3768 17.2553 60.5869 17.5062 60.5869H24.4802C25.4681 69.1353 32.0957 75.9144 40.4512 76.9246V84.0599C40.4512 84.3168 40.6579 84.527 40.9088 84.527H44.3331C44.584 84.527 44.7892 84.3168 44.7892 84.0599V76.9246C53.1461 75.9144 59.7737 69.1353 60.7602 60.5869H67.7356C67.9865 60.5869 68.1918 60.3768 68.1918 60.1199V56.6165C68.1918 56.3595 67.9865 56.1493 67.7356 56.1493ZM42.6209 72.6153C34.927 72.6153 28.6928 66.2391 28.6928 58.3681C28.6928 50.4971 34.927 44.1209 42.6209 44.1209C50.3149 44.1209 56.5476 50.4971 56.5476 58.3681C56.5476 66.2391 50.3149 72.6153 42.6209 72.6153Z" fill="#F5F5F5"/>
<path d="M42.6212 51.3615C40.7893 51.3615 39.0757 52.0855 37.7813 53.4169C36.4854 54.7424 35.7712 56.494 35.7712 58.3683C35.7712 60.2426 36.4854 61.9944 37.7813 63.3199C39.0757 64.6395 40.795 65.3752 42.6212 65.3752C44.4474 65.3752 46.1652 64.6453 47.4611 63.3199C48.7513 61.9944 49.4712 60.2368 49.4712 58.3683C49.4712 56.4998 48.757 54.7424 47.4611 53.4169C46.1652 52.0855 44.4531 51.3615 42.6212 51.3615Z" fill="#F5F5F5"/>
</svg>
