<svg width="101" height="101" viewBox="0 0 101 101" fill="none" xmlns="http://www.w3.org/2000/svg">
<path d="M90.9803 17.1095L52.1718 1.24843C51.1996 0.851206 50.1068 0.851012 49.1348 1.24843L10.3263 17.1095C8.84825 17.7137 7.88477 19.1342 7.88477 20.7097V39.9911C7.88477 66.5402 24.1861 90.4218 49.1568 100.455C50.1159 100.84 51.1905 100.84 52.1498 100.455C77.1201 90.422 93.4219 66.5404 93.4219 39.9911V20.7097C93.4219 19.1342 92.4586 17.7137 90.9803 17.1095Z" fill="#0C6D6A"/>
<path d="M87.1292 66.7304H78.9691C77.8139 56.7158 70.0611 48.7739 60.2849 47.5905V39.2313C60.2849 38.9303 60.0445 38.6841 59.7507 38.6841H55.7441C55.4503 38.6841 55.2099 38.9303 55.2099 39.2313V47.5905C45.4337 48.7739 37.6809 56.7158 36.5257 66.7304H28.3655C28.0717 66.7304 27.8313 66.9767 27.8313 67.2777V71.382C27.8313 71.683 28.0717 71.9292 28.3655 71.9292H36.5257C37.6809 81.9438 45.4337 89.8857 55.2099 91.0692V99.4283C55.2099 99.7293 55.4503 99.9756 55.7441 99.9756H59.7507C60.0445 99.9756 60.2849 99.7293 60.2849 99.4283V91.0692C70.0611 89.8857 77.8139 81.9438 78.9691 71.9292H87.1292C87.4231 71.9292 87.6635 71.683 87.6635 71.382V67.2777C87.6635 66.9767 87.4231 66.7304 87.1292 66.7304ZM57.7474 86.0208C48.7458 86.0208 41.4538 78.5509 41.4538 69.3298C41.4538 60.1087 48.7458 52.6388 57.7474 52.6388C66.7489 52.6388 74.041 60.1087 74.041 69.3298C74.041 78.5509 66.7489 86.0208 57.7474 86.0208Z" fill="#F5F5F5"/>
<path d="M57.7474 61.1211C55.6038 61.1211 53.6005 61.9693 52.0847 63.529C50.5688 65.0818 49.7341 67.134 49.7341 69.3298C49.7341 71.5256 50.5688 73.5778 52.0847 75.1306C53.6005 76.6766 55.6105 77.5385 57.7474 77.5385C59.8842 77.5385 61.8942 76.6834 63.41 75.1306C64.9192 73.5778 65.7606 71.5188 65.7606 69.3298C65.7606 67.1408 64.9259 65.0818 63.41 63.529C61.8942 61.9693 59.8909 61.1211 57.7474 61.1211Z" fill="#F5F5F5"/>
</svg>
