<svg width="304" height="380" viewBox="0 0 304 380" fill="none" xmlns="http://www.w3.org/2000/svg">
<path d="M157.397 1.13471L295.323 61.5317C300.577 63.8325 304 69.2416 304 75.2407V148.662C304 249.758 246.063 340.696 157.319 378.9C153.909 380.367 150.09 380.367 146.681 378.9C57.9352 340.695 0 249.757 0 148.662V75.2407C0 69.2416 3.42422 63.8325 8.67737 61.5317L146.603 1.13471C150.058 -0.378609 153.942 -0.377866 157.397 1.13471Z" fill="#0C5E6D"/>
<path d="M157.196 1.59272L295.122 61.9898M157.196 1.59272L295.122 61.9898M157.196 1.59272C153.869 0.136088 150.13 0.135431 146.804 1.59269L146.603 1.13478L146.804 1.59272L8.87797 61.9897M157.196 1.59272L8.87797 61.9897M295.122 61.9898C300.183 64.2062 303.5 69.4283 303.5 75.2407V148.662C303.5 249.57 245.671 340.32 157.121 378.44C153.838 379.853 150.162 379.853 146.879 378.44C58.3272 340.32 0.5 249.57 0.5 148.662V75.2407C0.5 69.4284 3.81728 64.2063 8.87793 61.9898C8.87794 61.9898 8.87796 61.9897 8.87797 61.9897M295.122 61.9898L8.87797 61.9897" stroke="white" stroke-opacity="0.2"/>
<path d="M63.3178 87H60.0418L56.0098 81.168V87H53.1298V74.4H56.0098V79.872L59.8618 74.4H63.1378L58.8898 80.538L63.3178 87ZM69.6894 77.748C70.8774 77.748 71.8914 78.21 72.7314 79.134C73.5714 80.046 73.9914 81.168 73.9914 82.5C73.9914 83.832 73.5714 84.96 72.7314 85.884C71.8914 86.796 70.8774 87.252 69.6894 87.252C68.5374 87.252 67.6434 86.886 67.0074 86.154V90.6H64.3074V78H67.0074V78.846C67.6434 78.114 68.5374 77.748 69.6894 77.748ZM67.6014 84.102C68.0094 84.498 68.5254 84.696 69.1494 84.696C69.7734 84.696 70.2834 84.498 70.6794 84.102C71.0874 83.706 71.2914 83.172 71.2914 82.5C71.2914 81.828 71.0874 81.294 70.6794 80.898C70.2834 80.502 69.7734 80.304 69.1494 80.304C68.5254 80.304 68.0094 80.502 67.6014 80.898C67.2054 81.294 67.0074 81.828 67.0074 82.5C67.0074 83.172 67.2054 83.706 67.6014 84.102ZM77.9342 83.58C78.2462 84.42 78.9662 84.84 80.0942 84.84C80.8262 84.84 81.4022 84.612 81.8222 84.156L83.9822 85.398C83.0942 86.634 81.7862 87.252 80.0582 87.252C78.5462 87.252 77.3342 86.802 76.4222 85.902C75.5222 85.002 75.0722 83.868 75.0722 82.5C75.0722 81.144 75.5162 80.016 76.4042 79.116C77.3042 78.204 78.4562 77.748 79.8602 77.748C81.1682 77.748 82.2542 78.204 83.1182 79.116C83.9942 80.016 84.4322 81.144 84.4322 82.5C84.4322 82.884 84.3962 83.244 84.3242 83.58H77.9342ZM77.8802 81.564H81.7502C81.4862 80.616 80.8502 80.142 79.8422 80.142C78.7982 80.142 78.1442 80.616 77.8802 81.564ZM93.8921 84.48H95.0621V89.412H92.4341V87H87.4301V89.412H84.8021V84.48H85.9181C86.3981 83.736 86.6381 82.698 86.6381 81.366V78H93.8921V84.48ZM88.7441 84.48H91.2641V80.412H89.2661V81.366C89.2661 82.614 89.0921 83.652 88.7441 84.48ZM102.885 78H104.865V87H102.237V82.5L98.385 87H96.405V78H99.033V82.5L102.885 78ZM114.136 78V80.592H111.454V87H108.754V80.592H106.036V78H114.136ZM125.58 87H122.304L118.272 81.168V87H115.392V74.4H118.272V79.872L122.124 74.4H125.4L121.152 80.538L125.58 87ZM133.049 78H135.029V87H132.401V82.5L128.549 87H126.569V78H129.197V82.5L133.049 78ZM144.841 78V87H142.141V80.592H140.197V83.274C140.197 84.642 139.855 85.644 139.171 86.28C138.499 86.916 137.509 87.156 136.201 87V84.48C136.621 84.6 136.939 84.54 137.155 84.3C137.383 84.06 137.497 83.658 137.497 83.094V78H144.841ZM154.649 78V87H151.949V80.592H150.005V83.274C150.005 84.642 149.663 85.644 148.979 86.28C148.307 86.916 147.317 87.156 146.009 87V84.48C146.429 84.6 146.747 84.54 146.963 84.3C147.191 84.06 147.305 83.658 147.305 83.094V78H154.649ZM159.04 83.58C159.352 84.42 160.072 84.84 161.2 84.84C161.932 84.84 162.508 84.612 162.928 84.156L165.088 85.398C164.2 86.634 162.892 87.252 161.164 87.252C159.652 87.252 158.44 86.802 157.528 85.902C156.628 85.002 156.178 83.868 156.178 82.5C156.178 81.144 156.622 80.016 157.51 79.116C158.41 78.204 159.562 77.748 160.966 77.748C162.274 77.748 163.36 78.204 164.224 79.116C165.1 80.016 165.538 81.144 165.538 82.5C165.538 82.884 165.502 83.244 165.43 83.58H159.04ZM158.986 81.564H162.856C162.592 80.616 161.956 80.142 160.948 80.142C159.904 80.142 159.25 80.616 158.986 81.564ZM172.451 77.748C173.639 77.748 174.653 78.21 175.493 79.134C176.333 80.046 176.753 81.168 176.753 82.5C176.753 83.832 176.333 84.96 175.493 85.884C174.653 86.796 173.639 87.252 172.451 87.252C171.299 87.252 170.405 86.886 169.769 86.154V90.6H167.069V78H169.769V78.846C170.405 78.114 171.299 77.748 172.451 77.748ZM170.363 84.102C170.771 84.498 171.287 84.696 171.911 84.696C172.535 84.696 173.045 84.498 173.441 84.102C173.849 83.706 174.053 83.172 174.053 82.5C174.053 81.828 173.849 81.294 173.441 80.898C173.045 80.502 172.535 80.304 171.911 80.304C171.287 80.304 170.771 80.502 170.363 80.898C169.967 81.294 169.769 81.828 169.769 82.5C169.769 83.172 169.967 83.706 170.363 84.102ZM191.244 78V87H188.544V80.52H185.484V87H182.784V78H191.244ZM198.607 77.748C199.795 77.748 200.809 78.21 201.649 79.134C202.489 80.046 202.909 81.168 202.909 82.5C202.909 83.832 202.489 84.96 201.649 85.884C200.809 86.796 199.795 87.252 198.607 87.252C197.455 87.252 196.561 86.886 195.925 86.154V90.6H193.225V78H195.925V78.846C196.561 78.114 197.455 77.748 198.607 77.748ZM196.519 84.102C196.927 84.498 197.443 84.696 198.067 84.696C198.691 84.696 199.201 84.498 199.597 84.102C200.005 83.706 200.209 83.172 200.209 82.5C200.209 81.828 200.005 81.294 199.597 80.898C199.201 80.502 198.691 80.304 198.067 80.304C197.443 80.304 196.927 80.502 196.519 80.898C196.123 81.294 195.925 81.828 195.925 82.5C195.925 83.172 196.123 83.706 196.519 84.102ZM210.92 78H212.9V87H210.272V82.5L206.42 87H204.44V78H207.068V82.5L210.92 78ZM220.354 82.428C221.23 82.896 221.668 83.604 221.668 84.552C221.668 85.332 221.338 85.98 220.678 86.496C220.03 87 219.118 87.252 217.942 87.252C216.106 87.252 214.846 86.538 214.162 85.11L216.34 83.814C216.604 84.546 217.15 84.912 217.978 84.912C218.686 84.912 219.04 84.678 219.04 84.21C219.04 83.79 218.758 83.58 218.194 83.58H216.934V81.312H217.906C218.47 81.312 218.752 81.108 218.752 80.7C218.752 80.268 218.47 80.052 217.906 80.052C217.234 80.052 216.742 80.4 216.43 81.096L214.252 79.854C214.984 78.45 216.184 77.748 217.852 77.748C218.908 77.748 219.748 78.012 220.372 78.54C220.996 79.068 221.308 79.704 221.308 80.448C221.308 81.324 220.99 81.984 220.354 82.428ZM229.734 82.392C230.538 82.824 230.94 83.502 230.94 84.426C230.94 85.194 230.67 85.818 230.13 86.298C229.602 86.766 228.852 87 227.88 87H223.02V78H227.52C228.492 78 229.242 78.24 229.77 78.72C230.31 79.188 230.58 79.806 230.58 80.574C230.58 81.366 230.298 81.972 229.734 82.392ZM227.232 80.16H225.54V81.42H227.232C227.76 81.42 228.024 81.216 228.024 80.808C228.024 80.376 227.76 80.16 227.232 80.16ZM227.52 84.768C228.048 84.768 228.312 84.546 228.312 84.102C228.312 83.682 228.048 83.472 227.52 83.472H225.54V84.768H227.52ZM238.818 78H241.518V87H238.818V86.154C238.182 86.886 237.288 87.252 236.136 87.252C234.948 87.252 233.934 86.796 233.094 85.884C232.254 84.96 231.834 83.832 231.834 82.5C231.834 81.168 232.254 80.046 233.094 79.134C233.934 78.21 234.948 77.748 236.136 77.748C237.288 77.748 238.182 78.114 238.818 78.846V78ZM235.128 84.102C235.524 84.498 236.04 84.696 236.676 84.696C237.312 84.696 237.828 84.498 238.224 84.102C238.62 83.706 238.818 83.172 238.818 82.5C238.818 81.828 238.62 81.294 238.224 80.898C237.828 80.502 237.312 80.304 236.676 80.304C236.04 80.304 235.524 80.502 235.128 80.898C234.732 81.294 234.534 81.828 234.534 82.5C234.534 83.172 234.732 83.706 235.128 84.102ZM249.259 78H251.959V87H249.259V83.76H246.199V87H243.499V78H246.199V81.24H249.259V78ZM51.8612 107.392C52.6652 107.824 53.0672 108.502 53.0672 109.426C53.0672 110.194 52.7972 110.818 52.2572 111.298C51.7292 111.766 50.9792 112 50.0072 112H45.1472V103H49.6472C50.6192 103 51.3692 103.24 51.8972 103.72C52.4372 104.188 52.7072 104.806 52.7072 105.574C52.7072 106.366 52.4252 106.972 51.8612 107.392ZM49.3592 105.16H47.6672V106.42H49.3592C49.8872 106.42 50.1512 106.216 50.1512 105.808C50.1512 105.376 49.8872 105.16 49.3592 105.16ZM49.6472 109.768C50.1752 109.768 50.4392 109.546 50.4392 109.102C50.4392 108.682 50.1752 108.472 49.6472 108.472H47.6672V109.768H49.6472ZM62.1149 110.884C61.1909 111.796 60.0629 112.252 58.7309 112.252C57.3989 112.252 56.2709 111.796 55.3469 110.884C54.4229 109.96 53.9609 108.832 53.9609 107.5C53.9609 106.168 54.4229 105.046 55.3469 104.134C56.2709 103.21 57.3989 102.748 58.7309 102.748C60.0629 102.748 61.1909 103.21 62.1149 104.134C63.0389 105.046 63.5009 106.168 63.5009 107.5C63.5009 108.832 63.0389 109.96 62.1149 110.884ZM57.2549 109.03C57.6509 109.426 58.1429 109.624 58.7309 109.624C59.3189 109.624 59.8109 109.426 60.2069 109.03C60.6029 108.634 60.8009 108.124 60.8009 107.5C60.8009 106.876 60.6029 106.366 60.2069 105.97C59.8109 105.574 59.3189 105.376 58.7309 105.376C58.1429 105.376 57.6509 105.574 57.2549 105.97C56.8589 106.366 56.6609 106.876 56.6609 107.5C56.6609 108.124 56.8589 108.634 57.2549 109.03ZM69.3481 112.252C67.9801 112.252 66.8401 111.796 65.9281 110.884C65.0281 109.972 64.5781 108.844 64.5781 107.5C64.5781 106.156 65.0281 105.028 65.9281 104.116C66.8401 103.204 67.9801 102.748 69.3481 102.748C70.2121 102.748 71.0041 102.958 71.7241 103.378C72.4561 103.798 73.0201 104.356 73.4161 105.052L71.0581 106.42C70.7341 105.748 70.1521 105.412 69.3121 105.412C68.7241 105.412 68.2381 105.61 67.8541 106.006C67.4701 106.39 67.2781 106.888 67.2781 107.5C67.2781 108.112 67.4701 108.616 67.8541 109.012C68.2381 109.396 68.7241 109.588 69.3121 109.588C70.1641 109.588 70.7461 109.252 71.0581 108.58L73.4161 109.93C73.0201 110.638 72.4621 111.202 71.7421 111.622C71.0221 112.042 70.2241 112.252 69.3481 112.252ZM83.0506 103V112H80.3506V105.52H77.2906V112H74.5906V103H83.0506ZM92.736 110.884C91.812 111.796 90.684 112.252 89.352 112.252C88.02 112.252 86.892 111.796 85.968 110.884C85.044 109.96 84.582 108.832 84.582 107.5C84.582 106.168 85.044 105.046 85.968 104.134C86.892 103.21 88.02 102.748 89.352 102.748C90.684 102.748 91.812 103.21 92.736 104.134C93.66 105.046 94.122 106.168 94.122 107.5C94.122 108.832 93.66 109.96 92.736 110.884ZM87.876 109.03C88.272 109.426 88.764 109.624 89.352 109.624C89.94 109.624 90.432 109.426 90.828 109.03C91.224 108.634 91.422 108.124 91.422 107.5C91.422 106.876 91.224 106.366 90.828 105.97C90.432 105.574 89.94 105.376 89.352 105.376C88.764 105.376 88.272 105.574 87.876 105.97C87.48 106.366 87.282 106.876 87.282 107.5C87.282 108.124 87.48 108.634 87.876 109.03ZM103.303 103V112H100.603V105.592H98.6594V108.274C98.6594 109.642 98.3174 110.644 97.6334 111.28C96.9614 111.916 95.9714 112.156 94.6634 112V109.48C95.0834 109.6 95.4014 109.54 95.6174 109.3C95.8454 109.06 95.9594 108.658 95.9594 108.094V103H103.303ZM111.042 103H113.742V112H111.042V108.76H107.982V112H105.282V103H107.982V106.24H111.042V103ZM122.203 103H124.183V112H121.555V107.5L117.703 112H115.723V103H118.351V107.5L122.203 103ZM133.455 103V105.592H130.773V112H128.073V105.592H125.355V103H133.455ZM138.832 105.7C139.912 105.7 140.77 105.988 141.406 106.564C142.042 107.14 142.36 107.902 142.36 108.85C142.36 109.798 142.042 110.56 141.406 111.136C140.77 111.712 139.912 112 138.832 112H134.62V103H137.32V105.7H138.832ZM138.85 109.66C139.114 109.66 139.324 109.588 139.48 109.444C139.648 109.288 139.732 109.09 139.732 108.85C139.732 108.61 139.648 108.418 139.48 108.274C139.324 108.118 139.114 108.04 138.85 108.04H137.32V109.66H138.85ZM151.556 102.748C152.936 102.748 154.076 103.186 154.976 104.062C155.876 104.938 156.326 106.084 156.326 107.5C156.326 108.916 155.876 110.062 154.976 110.938C154.076 111.814 152.936 112.252 151.556 112.252C150.644 112.252 149.822 112.042 149.09 111.622C148.358 111.202 147.794 110.638 147.398 109.93L149.684 108.634C150.008 109.33 150.644 109.678 151.592 109.678C152.348 109.678 152.924 109.354 153.32 108.706H150.818V106.294H153.32C152.924 105.646 152.348 105.322 151.592 105.322C150.668 105.322 150.032 105.67 149.684 106.366L147.398 105.052C147.794 104.344 148.358 103.786 149.09 103.378C149.822 102.958 150.644 102.748 151.556 102.748ZM164.797 103V105.592H162.115V112H159.415V105.592H156.697V103H164.797ZM172.442 103H174.422V112H171.794V107.5L167.942 112H165.962V103H168.59V107.5L172.442 103ZM189.363 103V112H186.663V105.52H183.603V112H180.903V103H189.363ZM196.726 102.748C197.914 102.748 198.928 103.21 199.768 104.134C200.608 105.046 201.028 106.168 201.028 107.5C201.028 108.832 200.608 109.96 199.768 110.884C198.928 111.796 197.914 112.252 196.726 112.252C195.574 112.252 194.68 111.886 194.044 111.154V115.6H191.344V103H194.044V103.846C194.68 103.114 195.574 102.748 196.726 102.748ZM194.638 109.102C195.046 109.498 195.562 109.696 196.186 109.696C196.81 109.696 197.32 109.498 197.716 109.102C198.124 108.706 198.328 108.172 198.328 107.5C198.328 106.828 198.124 106.294 197.716 105.898C197.32 105.502 196.81 105.304 196.186 105.304C195.562 105.304 195.046 105.502 194.638 105.898C194.242 106.294 194.044 106.828 194.044 107.5C194.044 108.172 194.242 108.706 194.638 109.102ZM210.263 110.884C209.339 111.796 208.211 112.252 206.879 112.252C205.547 112.252 204.419 111.796 203.495 110.884C202.571 109.96 202.109 108.832 202.109 107.5C202.109 106.168 202.571 105.046 203.495 104.134C204.419 103.21 205.547 102.748 206.879 102.748C208.211 102.748 209.339 103.21 210.263 104.134C211.187 105.046 211.649 106.168 211.649 107.5C211.649 108.832 211.187 109.96 210.263 110.884ZM205.403 109.03C205.799 109.426 206.291 109.624 206.879 109.624C207.467 109.624 207.959 109.426 208.355 109.03C208.751 108.634 208.949 108.124 208.949 107.5C208.949 106.876 208.751 106.366 208.355 105.97C207.959 105.574 207.467 105.376 206.879 105.376C206.291 105.376 205.799 105.574 205.403 105.97C205.007 106.366 204.809 106.876 204.809 107.5C204.809 108.124 205.007 108.634 205.403 109.03ZM217.533 112.252C216.069 112.252 214.899 111.79 214.023 110.866C213.159 109.942 212.727 108.772 212.727 107.356C212.727 105.82 212.955 104.632 213.411 103.792C213.867 102.952 214.785 102.19 216.165 101.506C216.321 101.434 216.567 101.314 216.903 101.146C217.251 100.978 217.473 100.87 217.569 100.822C217.677 100.762 217.845 100.672 218.073 100.552C218.301 100.42 218.451 100.318 218.523 100.246C218.607 100.162 218.715 100.054 218.847 99.922C218.991 99.79 219.099 99.658 219.171 99.526C219.255 99.382 219.333 99.22 219.405 99.04L221.637 100.318C221.469 101.026 221.121 101.59 220.593 102.01C220.077 102.418 219.297 102.82 218.253 103.216C217.509 103.492 216.969 103.768 216.633 104.044C216.309 104.308 216.075 104.614 215.931 104.962C216.567 104.398 217.389 104.116 218.397 104.116C219.321 104.116 220.173 104.476 220.953 105.196C221.733 105.904 222.123 106.852 222.123 108.04C222.123 109.276 221.703 110.29 220.863 111.082C220.035 111.862 218.925 112.252 217.533 112.252ZM216.111 109.3C216.495 109.648 216.963 109.822 217.515 109.822C218.067 109.822 218.523 109.654 218.883 109.318C219.243 108.982 219.423 108.556 219.423 108.04C219.423 107.512 219.237 107.08 218.865 106.744C218.493 106.396 218.025 106.222 217.461 106.222C216.957 106.222 216.513 106.384 216.129 106.708C215.745 107.02 215.553 107.44 215.553 107.968C215.553 108.508 215.739 108.952 216.111 109.3ZM225.801 108.58C226.113 109.42 226.833 109.84 227.961 109.84C228.693 109.84 229.269 109.612 229.689 109.156L231.849 110.398C230.961 111.634 229.653 112.252 227.925 112.252C226.413 112.252 225.201 111.802 224.289 110.902C223.389 110.002 222.939 108.868 222.939 107.5C222.939 106.144 223.383 105.016 224.271 104.116C225.171 103.204 226.323 102.748 227.727 102.748C229.035 102.748 230.121 103.204 230.985 104.116C231.861 105.016 232.299 106.144 232.299 107.5C232.299 107.884 232.263 108.244 232.191 108.58H225.801ZM225.747 106.564H229.617C229.353 105.616 228.717 105.142 227.709 105.142C226.665 105.142 226.011 105.616 225.747 106.564ZM241.309 103V112H238.609V105.592H236.665V108.274C236.665 109.642 236.323 110.644 235.639 111.28C234.967 111.916 233.977 112.156 232.669 112V109.48C233.089 109.6 233.407 109.54 233.623 109.3C233.851 109.06 233.965 108.658 233.965 108.094V103H241.309ZM247.5 105.7C248.58 105.7 249.438 105.988 250.074 106.564C250.71 107.14 251.028 107.902 251.028 108.85C251.028 109.798 250.71 110.56 250.074 111.136C249.438 111.712 248.58 112 247.5 112H243.288V103H245.988V105.7H247.5ZM251.928 103H254.628V112H251.928V103ZM247.518 109.66C247.782 109.66 247.992 109.588 248.148 109.444C248.316 109.288 248.4 109.09 248.4 108.85C248.4 108.61 248.316 108.418 248.148 108.274C247.992 108.118 247.782 108.04 247.518 108.04H245.988V109.66H247.518ZM260.032 109.21L258.592 114.52H256.432L257.152 109.21H260.032ZM23.3271 128H26.0271V137H23.3271V133.76H20.2671V137H17.5671V128H20.2671V131.24H23.3271V128ZM34.5426 128H37.2426V137H34.5426V136.154C33.9066 136.886 33.0126 137.252 31.8606 137.252C30.6726 137.252 29.6586 136.796 28.8186 135.884C27.9786 134.96 27.5586 133.832 27.5586 132.5C27.5586 131.168 27.9786 130.046 28.8186 129.134C29.6586 128.21 30.6726 127.748 31.8606 127.748C33.0126 127.748 33.9066 128.114 34.5426 128.846V128ZM30.8526 134.102C31.2486 134.498 31.7646 134.696 32.4006 134.696C33.0366 134.696 33.5526 134.498 33.9486 134.102C34.3446 133.706 34.5426 133.172 34.5426 132.5C34.5426 131.828 34.3446 131.294 33.9486 130.898C33.5526 130.502 33.0366 130.304 32.4006 130.304C31.7646 130.304 31.2486 130.502 30.8526 130.898C30.4566 131.294 30.2586 131.828 30.2586 132.5C30.2586 133.172 30.4566 133.706 30.8526 134.102ZM44.8934 128H47.7734L44.6954 136.73C43.7354 139.442 42.0254 140.732 39.5654 140.6V138.08C40.1774 138.08 40.6454 137.99 40.9694 137.81C41.2934 137.63 41.5574 137.306 41.7614 136.838L38.2334 128H41.1134L43.2014 133.526L44.8934 128ZM53.8983 128H56.5983V137H53.8983V134.3C53.2503 134.492 52.5903 134.588 51.9183 134.588C50.8503 134.588 49.9803 134.312 49.3083 133.76C48.6483 133.196 48.3183 132.386 48.3183 131.33V128H51.0183V130.97C51.0183 131.702 51.4983 132.068 52.4583 132.068C53.0103 132.068 53.4903 131.972 53.8983 131.78V128ZM65.0569 128H67.0369V137H64.4089V132.5L60.5569 137H58.5769V128H61.2049V132.5L65.0569 128ZM76.3083 128V130.592H73.6263V137H70.9263V130.592H68.2083V128H76.3083ZM81.6854 130.7C82.7654 130.7 83.6234 130.988 84.2594 131.564C84.8954 132.14 85.2134 132.902 85.2134 133.85C85.2134 134.798 84.8954 135.56 84.2594 136.136C83.6234 136.712 82.7654 137 81.6854 137H77.4734V128H80.1734V130.7H81.6854ZM81.7034 134.66C81.9674 134.66 82.1774 134.588 82.3334 134.444C82.5014 134.288 82.5854 134.09 82.5854 133.85C82.5854 133.61 82.5014 133.418 82.3334 133.274C82.1774 133.118 81.9674 133.04 81.7034 133.04H80.1734V134.66H81.7034ZM98.8913 128V137H96.1913V130.592H94.2473V133.274C94.2473 134.642 93.9053 135.644 93.2213 136.28C92.5493 136.916 91.5593 137.156 90.2513 137V134.48C90.6713 134.6 90.9893 134.54 91.2053 134.3C91.4333 134.06 91.5473 133.658 91.5473 133.094V128H98.8913ZM109.24 127.748C110.572 127.748 111.7 128.21 112.624 129.134C113.548 130.046 114.01 131.168 114.01 132.5C114.01 133.832 113.548 134.96 112.624 135.884C111.7 136.796 110.572 137.252 109.24 137.252C108.136 137.252 107.17 136.928 106.342 136.28C105.514 135.632 104.968 134.792 104.704 133.76H103.57V137H100.87V128H103.57V131.24H104.704C104.968 130.208 105.514 129.368 106.342 128.72C107.17 128.072 108.136 127.748 109.24 127.748ZM107.746 134.03C108.142 134.426 108.64 134.624 109.24 134.624C109.84 134.624 110.332 134.426 110.716 134.03C111.112 133.634 111.31 133.124 111.31 132.5C111.31 131.876 111.112 131.366 110.716 130.97C110.332 130.574 109.84 130.376 109.24 130.376C108.64 130.376 108.142 130.574 107.746 130.97C107.362 131.366 107.17 131.876 107.17 132.5C107.17 133.124 107.362 133.634 107.746 134.03ZM123.476 134.48H124.646V139.412H122.018V137H117.014V139.412H114.386V134.48H115.502C115.982 133.736 116.222 132.698 116.222 131.366V128H123.476V134.48ZM118.328 134.48H120.848V130.412H118.85V131.366C118.85 132.614 118.676 133.652 118.328 134.48ZM128.049 133.58C128.361 134.42 129.081 134.84 130.209 134.84C130.941 134.84 131.517 134.612 131.937 134.156L134.097 135.398C133.209 136.634 131.901 137.252 130.173 137.252C128.661 137.252 127.449 136.802 126.537 135.902C125.637 135.002 125.187 133.868 125.187 132.5C125.187 131.144 125.631 130.016 126.519 129.116C127.419 128.204 128.571 127.748 129.975 127.748C131.283 127.748 132.369 128.204 133.233 129.116C134.109 130.016 134.547 131.144 134.547 132.5C134.547 132.884 134.511 133.244 134.439 133.58H128.049ZM127.995 131.564H131.865C131.601 130.616 130.965 130.142 129.957 130.142C128.913 130.142 128.259 130.616 127.995 131.564ZM137.609 126.938V124.598H143.009V126.938H137.609ZM142.559 128H144.539V137H141.911V132.5L138.059 137H136.079V128H138.707V132.5L142.559 128ZM163.71 137H160.722L158.274 133.094V137H155.646V133.094L153.198 137H150.21L153.198 132.5L150.39 128H153.378L155.646 131.852V128H158.274V131.852L160.542 128H163.53L160.722 132.5L163.71 137ZM171.352 128H173.332V137H170.704V132.5L166.852 137H164.872V128H167.5V132.5L171.352 128ZM182.603 128V130.592H179.921V137H177.221V130.592H174.503V128H182.603ZM187.98 130.7C189.06 130.7 189.918 130.988 190.554 131.564C191.19 132.14 191.508 132.902 191.508 133.85C191.508 134.798 191.19 135.56 190.554 136.136C189.918 136.712 189.06 137 187.98 137H183.768V128H186.468V130.7H187.98ZM187.998 134.66C188.262 134.66 188.472 134.588 188.628 134.444C188.796 134.288 188.88 134.09 188.88 133.85C188.88 133.61 188.796 133.418 188.628 133.274C188.472 133.118 188.262 133.04 187.998 133.04H186.468V134.66H187.998ZM205.816 128V137H203.116V130.52H200.056V137H197.356V128H205.816ZM215.502 135.884C214.578 136.796 213.45 137.252 212.118 137.252C210.786 137.252 209.658 136.796 208.734 135.884C207.81 134.96 207.348 133.832 207.348 132.5C207.348 131.168 207.81 130.046 208.734 129.134C209.658 128.21 210.786 127.748 212.118 127.748C213.45 127.748 214.578 128.21 215.502 129.134C216.426 130.046 216.888 131.168 216.888 132.5C216.888 133.832 216.426 134.96 215.502 135.884ZM210.642 134.03C211.038 134.426 211.53 134.624 212.118 134.624C212.706 134.624 213.198 134.426 213.594 134.03C213.99 133.634 214.188 133.124 214.188 132.5C214.188 131.876 213.99 131.366 213.594 130.97C213.198 130.574 212.706 130.376 212.118 130.376C211.53 130.376 211.038 130.574 210.642 130.97C210.246 131.366 210.048 131.876 210.048 132.5C210.048 133.124 210.246 133.634 210.642 134.03ZM218.505 132.914V130.322H225.345V132.914H218.505ZM233.175 128H235.875V137H233.175V133.76H230.115V137H227.415V128H230.115V131.24H233.175V128ZM245.56 135.884C244.636 136.796 243.508 137.252 242.176 137.252C240.844 137.252 239.716 136.796 238.792 135.884C237.868 134.96 237.406 133.832 237.406 132.5C237.406 131.168 237.868 130.046 238.792 129.134C239.716 128.21 240.844 127.748 242.176 127.748C243.508 127.748 244.636 128.21 245.56 129.134C246.484 130.046 246.946 131.168 246.946 132.5C246.946 133.832 246.484 134.96 245.56 135.884ZM240.7 134.03C241.096 134.426 241.588 134.624 242.176 134.624C242.764 134.624 243.256 134.426 243.652 134.03C244.048 133.634 244.246 133.124 244.246 132.5C244.246 131.876 244.048 131.366 243.652 130.97C243.256 130.574 242.764 130.376 242.176 130.376C241.588 130.376 241.096 130.574 240.7 130.97C240.304 131.366 240.106 131.876 240.106 132.5C240.106 133.124 240.304 133.634 240.7 134.03ZM255.187 132.392C255.991 132.824 256.393 133.502 256.393 134.426C256.393 135.194 256.123 135.818 255.583 136.298C255.055 136.766 254.305 137 253.333 137H248.473V128H252.973C253.945 128 254.695 128.24 255.223 128.72C255.763 129.188 256.033 129.806 256.033 130.574C256.033 131.366 255.751 131.972 255.187 132.392ZM252.685 130.16H250.993V131.42H252.685C253.213 131.42 253.477 131.216 253.477 130.808C253.477 130.376 253.213 130.16 252.685 130.16ZM252.973 134.768C253.501 134.768 253.765 134.546 253.765 134.102C253.765 133.682 253.501 133.472 252.973 133.472H250.993V134.768H252.973ZM265.441 135.884C264.517 136.796 263.389 137.252 262.057 137.252C260.725 137.252 259.597 136.796 258.673 135.884C257.749 134.96 257.287 133.832 257.287 132.5C257.287 131.168 257.749 130.046 258.673 129.134C259.597 128.21 260.725 127.748 262.057 127.748C263.389 127.748 264.517 128.21 265.441 129.134C266.365 130.046 266.827 131.168 266.827 132.5C266.827 133.832 266.365 134.96 265.441 135.884ZM260.581 134.03C260.977 134.426 261.469 134.624 262.057 134.624C262.645 134.624 263.137 134.426 263.533 134.03C263.929 133.634 264.127 133.124 264.127 132.5C264.127 131.876 263.929 131.366 263.533 130.97C263.137 130.574 262.645 130.376 262.057 130.376C261.469 130.376 260.977 130.574 260.581 130.97C260.185 131.366 259.987 131.876 259.987 132.5C259.987 133.124 260.185 133.634 260.581 134.03ZM277.894 128V137H275.302V132.356L273.286 135.488H272.962L270.946 132.356V137H268.354V128H270.946L273.124 131.402L275.302 128H277.894ZM285.538 128H288.418L285.34 136.73C284.38 139.442 282.67 140.732 280.21 140.6V138.08C280.822 138.08 281.29 137.99 281.614 137.81C281.938 137.63 282.202 137.306 282.406 136.838L278.878 128H281.758L283.846 133.526L285.538 128ZM111.613 153H113.593V162H110.965V157.5L107.113 162H105.133V153H107.761V157.5L111.613 153ZM124.394 162.252C123.026 162.252 121.886 161.796 120.974 160.884C120.074 159.972 119.624 158.844 119.624 157.5C119.624 156.156 120.074 155.028 120.974 154.116C121.886 153.204 123.026 152.748 124.394 152.748C125.258 152.748 126.05 152.958 126.77 153.378C127.502 153.798 128.066 154.356 128.462 155.052L126.104 156.42C125.78 155.748 125.198 155.412 124.358 155.412C123.77 155.412 123.284 155.61 122.9 156.006C122.516 156.39 122.324 156.888 122.324 157.5C122.324 158.112 122.516 158.616 122.9 159.012C123.284 159.396 123.77 159.588 124.358 159.588C125.21 159.588 125.792 159.252 126.104 158.58L128.462 159.93C128.066 160.638 127.508 161.202 126.788 161.622C126.068 162.042 125.27 162.252 124.394 162.252ZM136.35 157.392C137.154 157.824 137.556 158.502 137.556 159.426C137.556 160.194 137.286 160.818 136.746 161.298C136.218 161.766 135.468 162 134.496 162H129.636V153H134.136C135.108 153 135.858 153.24 136.386 153.72C136.926 154.188 137.196 154.806 137.196 155.574C137.196 156.366 136.914 156.972 136.35 157.392ZM133.848 155.16H132.156V156.42H133.848C134.376 156.42 134.64 156.216 134.64 155.808C134.64 155.376 134.376 155.16 133.848 155.16ZM134.136 159.768C134.664 159.768 134.928 159.546 134.928 159.102C134.928 158.682 134.664 158.472 134.136 158.472H132.156V159.768H134.136ZM146.604 160.884C145.68 161.796 144.552 162.252 143.22 162.252C141.888 162.252 140.76 161.796 139.836 160.884C138.912 159.96 138.45 158.832 138.45 157.5C138.45 156.168 138.912 155.046 139.836 154.134C140.76 153.21 141.888 152.748 143.22 152.748C144.552 152.748 145.68 153.21 146.604 154.134C147.528 155.046 147.99 156.168 147.99 157.5C147.99 158.832 147.528 159.96 146.604 160.884ZM141.744 159.03C142.14 159.426 142.632 159.624 143.22 159.624C143.808 159.624 144.3 159.426 144.696 159.03C145.092 158.634 145.29 158.124 145.29 157.5C145.29 156.876 145.092 156.366 144.696 155.97C144.3 155.574 143.808 155.376 143.22 155.376C142.632 155.376 142.14 155.574 141.744 155.97C141.348 156.366 141.15 156.876 141.15 157.5C141.15 158.124 141.348 158.634 141.744 159.03ZM153.873 162.252C152.409 162.252 151.239 161.79 150.363 160.866C149.499 159.942 149.067 158.772 149.067 157.356C149.067 155.82 149.295 154.632 149.751 153.792C150.207 152.952 151.125 152.19 152.505 151.506C152.661 151.434 152.907 151.314 153.243 151.146C153.591 150.978 153.813 150.87 153.909 150.822C154.017 150.762 154.185 150.672 154.413 150.552C154.641 150.42 154.791 150.318 154.863 150.246C154.947 150.162 155.055 150.054 155.187 149.922C155.331 149.79 155.439 149.658 155.511 149.526C155.595 149.382 155.673 149.22 155.745 149.04L157.977 150.318C157.809 151.026 157.461 151.59 156.933 152.01C156.417 152.418 155.637 152.82 154.593 153.216C153.849 153.492 153.309 153.768 152.973 154.044C152.649 154.308 152.415 154.614 152.271 154.962C152.907 154.398 153.729 154.116 154.737 154.116C155.661 154.116 156.513 154.476 157.293 155.196C158.073 155.904 158.463 156.852 158.463 158.04C158.463 159.276 158.043 160.29 157.203 161.082C156.375 161.862 155.265 162.252 153.873 162.252ZM152.451 159.3C152.835 159.648 153.303 159.822 153.855 159.822C154.407 159.822 154.863 159.654 155.223 159.318C155.583 158.982 155.763 158.556 155.763 158.04C155.763 157.512 155.577 157.08 155.205 156.744C154.833 156.396 154.365 156.222 153.801 156.222C153.297 156.222 152.853 156.384 152.469 156.708C152.085 157.02 151.893 157.44 151.893 157.968C151.893 158.508 152.079 158.952 152.451 159.3ZM167.434 160.884C166.51 161.796 165.382 162.252 164.05 162.252C162.718 162.252 161.59 161.796 160.666 160.884C159.742 159.96 159.28 158.832 159.28 157.5C159.28 156.168 159.742 155.046 160.666 154.134C161.59 153.21 162.718 152.748 164.05 152.748C165.382 152.748 166.51 153.21 167.434 154.134C168.358 155.046 168.82 156.168 168.82 157.5C168.82 158.832 168.358 159.96 167.434 160.884ZM162.574 159.03C162.97 159.426 163.462 159.624 164.05 159.624C164.638 159.624 165.13 159.426 165.526 159.03C165.922 158.634 166.12 158.124 166.12 157.5C166.12 156.876 165.922 156.366 165.526 155.97C165.13 155.574 164.638 155.376 164.05 155.376C163.462 155.376 162.97 155.574 162.574 155.97C162.178 156.366 161.98 156.876 161.98 157.5C161.98 158.124 162.178 158.634 162.574 159.03ZM178.276 159.48H179.446V164.412H176.818V162H171.814V164.412H169.186V159.48H170.302C170.782 158.736 171.022 157.698 171.022 156.366V153H178.276V159.48ZM173.128 159.48H175.648V155.412H173.65V156.366C173.65 157.614 173.476 158.652 173.128 159.48ZM186.549 153H189.249V162H186.549V158.76H183.489V162H180.789V153H183.489V156.24H186.549V153ZM198.934 160.884C198.01 161.796 196.882 162.252 195.55 162.252C194.218 162.252 193.09 161.796 192.166 160.884C191.242 159.96 190.78 158.832 190.78 157.5C190.78 156.168 191.242 155.046 192.166 154.134C193.09 153.21 194.218 152.748 195.55 152.748C196.882 152.748 198.01 153.21 198.934 154.134C199.858 155.046 200.32 156.168 200.32 157.5C200.32 158.832 199.858 159.96 198.934 160.884ZM194.074 159.03C194.47 159.426 194.962 159.624 195.55 159.624C196.138 159.624 196.63 159.426 197.026 159.03C197.422 158.634 197.62 158.124 197.62 157.5C197.62 156.876 197.422 156.366 197.026 155.97C196.63 155.574 196.138 155.376 195.55 155.376C194.962 155.376 194.47 155.574 194.074 155.97C193.678 156.366 193.48 156.876 193.48 157.5C193.48 158.124 193.678 158.634 194.074 159.03Z" fill="white"/>
</svg>
