<svg width="463" height="579" viewBox="0 0 463 579" fill="none" xmlns="http://www.w3.org/2000/svg">
<path d="M239.719 1.72877L449.784 93.7454C457.786 97.2507 463 105.492 463 114.631V226.49C463 380.514 374.761 519.061 239.6 577.265C234.408 579.5 228.591 579.5 223.4 577.265C88.2369 519.06 0 380.513 0 226.49V114.631C0 105.492 5.21518 97.2507 13.2159 93.7454L223.281 1.72877C228.542 -0.576822 234.457 -0.575691 239.719 1.72877Z" fill="#0C5E6D"/>
<path d="M223.481 2.18676L223.281 1.72877L223.481 2.18673C228.615 -0.0627732 234.384 -0.0617278 239.519 2.18676L449.584 94.2034C457.393 97.6244 462.5 105.678 462.5 114.631V226.49C462.5 380.326 374.369 518.685 239.403 576.805C234.336 578.987 228.663 578.987 223.597 576.805C88.6289 518.684 0.5 380.325 0.5 226.49V114.631C0.5 105.678 5.60834 97.6244 13.4165 94.2034L223.481 2.18676Z" stroke="white" stroke-opacity="0.2"/>
<path d="M57.7681 157.654H53.7641L48.8361 150.526V157.654H45.3161V142.254H48.8361V148.942L53.5441 142.254H57.5481L52.3561 149.756L57.7681 157.654ZM65.5556 146.346C67.0076 146.346 68.2469 146.91 69.2736 148.04C70.3002 149.154 70.8136 150.526 70.8136 152.154C70.8136 153.782 70.3002 155.16 69.2736 156.29C68.2469 157.404 67.0076 157.962 65.5556 157.962C64.1476 157.962 63.0549 157.514 62.2776 156.62V162.054H58.9776V146.654H62.2776V147.688C63.0549 146.793 64.1476 146.346 65.5556 146.346ZM63.0036 154.112C63.5022 154.596 64.1329 154.838 64.8956 154.838C65.6582 154.838 66.2816 154.596 66.7656 154.112C67.2642 153.628 67.5136 152.975 67.5136 152.154C67.5136 151.332 67.2642 150.68 66.7656 150.196C66.2816 149.712 65.6582 149.47 64.8956 149.47C64.1329 149.47 63.5022 149.712 63.0036 150.196C62.5196 150.68 62.2776 151.332 62.2776 152.154C62.2776 152.975 62.5196 153.628 63.0036 154.112ZM75.6326 153.474C76.0139 154.5 76.8939 155.014 78.2726 155.014C79.1673 155.014 79.8713 154.735 80.3846 154.178L83.0246 155.696C81.9393 157.206 80.3406 157.962 78.2286 157.962C76.3806 157.962 74.8993 157.412 73.7846 156.312C72.6846 155.212 72.1346 153.826 72.1346 152.154C72.1346 150.496 72.6773 149.118 73.7626 148.018C74.8626 146.903 76.2706 146.346 77.9866 146.346C79.5853 146.346 80.9126 146.903 81.9686 148.018C83.0393 149.118 83.5746 150.496 83.5746 152.154C83.5746 152.623 83.5306 153.063 83.4426 153.474H75.6326ZM75.5666 151.01H80.2966C79.9739 149.851 79.1966 149.272 77.9646 149.272C76.6886 149.272 75.8893 149.851 75.5666 151.01ZM95.1366 154.574H96.5666V160.602H93.3546V157.654H87.2386V160.602H84.0266V154.574H85.3906C85.9773 153.664 86.2706 152.396 86.2706 150.768V146.654H95.1366V154.574ZM88.8446 154.574H91.9246V149.602H89.4826V150.768C89.4826 152.293 89.27 153.562 88.8446 154.574ZM106.128 146.654H108.548V157.654H105.336V152.154L100.628 157.654H98.208V146.654H101.42V152.154L106.128 146.654ZM119.88 146.654V149.822H116.602V157.654H113.302V149.822H109.98V146.654H119.88ZM133.866 157.654H129.862L124.934 150.526V157.654H121.414V142.254H124.934V148.942L129.642 142.254H133.646L128.454 149.756L133.866 157.654ZM142.995 146.654H145.415V157.654H142.203V152.154L137.495 157.654H135.075V146.654H138.287V152.154L142.995 146.654ZM157.407 146.654V157.654H154.107V149.822H151.731V153.1C151.731 154.772 151.313 155.996 150.477 156.774C149.656 157.551 148.446 157.844 146.847 157.654V154.574C147.36 154.72 147.749 154.647 148.013 154.354C148.292 154.06 148.431 153.569 148.431 152.88V146.654H157.407ZM169.395 146.654V157.654H166.095V149.822H163.719V153.1C163.719 154.772 163.301 155.996 162.465 156.774C161.644 157.551 160.434 157.844 158.835 157.654V154.574C159.349 154.72 159.737 154.647 160.001 154.354C160.28 154.06 160.419 153.569 160.419 152.88V146.654H169.395ZM174.762 153.474C175.143 154.5 176.023 155.014 177.402 155.014C178.296 155.014 179 154.735 179.514 154.178L182.154 155.696C181.068 157.206 179.47 157.962 177.358 157.962C175.51 157.962 174.028 157.412 172.914 156.312C171.814 155.212 171.264 153.826 171.264 152.154C171.264 150.496 171.806 149.118 172.892 148.018C173.992 146.903 175.4 146.346 177.116 146.346C178.714 146.346 180.042 146.903 181.098 148.018C182.168 149.118 182.704 150.496 182.704 152.154C182.704 152.623 182.66 153.063 182.572 153.474H174.762ZM174.696 151.01H179.426C179.103 149.851 178.326 149.272 177.094 149.272C175.818 149.272 175.018 149.851 174.696 151.01ZM191.153 146.346C192.605 146.346 193.845 146.91 194.871 148.04C195.898 149.154 196.411 150.526 196.411 152.154C196.411 153.782 195.898 155.16 194.871 156.29C193.845 157.404 192.605 157.962 191.153 157.962C189.745 157.962 188.653 157.514 187.875 156.62V162.054H184.575V146.654H187.875V147.688C188.653 146.793 189.745 146.346 191.153 146.346ZM188.601 154.112C189.1 154.596 189.731 154.838 190.493 154.838C191.256 154.838 191.879 154.596 192.363 154.112C192.862 153.628 193.111 152.975 193.111 152.154C193.111 151.332 192.862 150.68 192.363 150.196C191.879 149.712 191.256 149.47 190.493 149.47C189.731 149.47 189.1 149.712 188.601 150.196C188.117 150.68 187.875 151.332 187.875 152.154C187.875 152.975 188.117 153.628 188.601 154.112ZM214.122 146.654V157.654H210.822V149.734H207.082V157.654H203.782V146.654H214.122ZM223.122 146.346C224.574 146.346 225.813 146.91 226.84 148.04C227.867 149.154 228.38 150.526 228.38 152.154C228.38 153.782 227.867 155.16 226.84 156.29C225.813 157.404 224.574 157.962 223.122 157.962C221.714 157.962 220.621 157.514 219.844 156.62V162.054H216.544V146.654H219.844V147.688C220.621 146.793 221.714 146.346 223.122 146.346ZM220.57 154.112C221.069 154.596 221.699 154.838 222.462 154.838C223.225 154.838 223.848 154.596 224.332 154.112C224.831 153.628 225.08 152.975 225.08 152.154C225.08 151.332 224.831 150.68 224.332 150.196C223.848 149.712 223.225 149.47 222.462 149.47C221.699 149.47 221.069 149.712 220.57 150.196C220.086 150.68 219.844 151.332 219.844 152.154C219.844 152.975 220.086 153.628 220.57 154.112ZM238.171 146.654H240.591V157.654H237.379V152.154L232.671 157.654H230.251V146.654H233.463V152.154L238.171 146.654ZM249.701 152.066C250.771 152.638 251.307 153.503 251.307 154.662C251.307 155.615 250.903 156.407 250.097 157.038C249.305 157.654 248.19 157.962 246.753 157.962C244.509 157.962 242.969 157.089 242.133 155.344L244.795 153.76C245.117 154.654 245.785 155.102 246.797 155.102C247.662 155.102 248.095 154.816 248.095 154.244C248.095 153.73 247.75 153.474 247.061 153.474H245.521V150.702H246.709C247.398 150.702 247.743 150.452 247.743 149.954C247.743 149.426 247.398 149.162 246.709 149.162C245.887 149.162 245.286 149.587 244.905 150.438L242.243 148.92C243.137 147.204 244.604 146.346 246.643 146.346C247.933 146.346 248.96 146.668 249.723 147.314C250.485 147.959 250.867 148.736 250.867 149.646C250.867 150.716 250.478 151.523 249.701 152.066ZM261.166 152.022C262.149 152.55 262.64 153.378 262.64 154.508C262.64 155.446 262.31 156.209 261.65 156.796C261.005 157.368 260.088 157.654 258.9 157.654H252.96V146.654H258.46C259.648 146.654 260.565 146.947 261.21 147.534C261.87 148.106 262.2 148.861 262.2 149.8C262.2 150.768 261.855 151.508 261.166 152.022ZM258.108 149.294H256.04V150.834H258.108C258.753 150.834 259.076 150.584 259.076 150.086C259.076 149.558 258.753 149.294 258.108 149.294ZM258.46 154.926C259.105 154.926 259.428 154.654 259.428 154.112C259.428 153.598 259.105 153.342 258.46 153.342H256.04V154.926H258.46ZM272.268 146.654H275.568V157.654H272.268V156.62C271.491 157.514 270.398 157.962 268.99 157.962C267.538 157.962 266.299 157.404 265.272 156.29C264.246 155.16 263.732 153.782 263.732 152.154C263.732 150.526 264.246 149.154 265.272 148.04C266.299 146.91 267.538 146.346 268.99 146.346C270.398 146.346 271.491 146.793 272.268 147.688V146.654ZM267.758 154.112C268.242 154.596 268.873 154.838 269.65 154.838C270.428 154.838 271.058 154.596 271.542 154.112C272.026 153.628 272.268 152.975 272.268 152.154C272.268 151.332 272.026 150.68 271.542 150.196C271.058 149.712 270.428 149.47 269.65 149.47C268.873 149.47 268.242 149.712 267.758 150.196C267.274 150.68 267.032 151.332 267.032 152.154C267.032 152.975 267.274 153.628 267.758 154.112ZM285.029 146.654H288.329V157.654H285.029V153.694H281.289V157.654H277.989V146.654H281.289V150.614H285.029V146.654ZM304.457 152.022C305.44 152.55 305.931 153.378 305.931 154.508C305.931 155.446 305.601 156.209 304.941 156.796C304.296 157.368 303.379 157.654 302.191 157.654H296.251V146.654H301.751C302.939 146.654 303.856 146.947 304.501 147.534C305.161 148.106 305.491 148.861 305.491 149.8C305.491 150.768 305.146 151.508 304.457 152.022ZM301.399 149.294H299.331V150.834H301.399C302.044 150.834 302.367 150.584 302.367 150.086C302.367 149.558 302.044 149.294 301.399 149.294ZM301.751 154.926C302.396 154.926 302.719 154.654 302.719 154.112C302.719 153.598 302.396 153.342 301.751 153.342H299.331V154.926H301.751ZM316.989 156.29C315.86 157.404 314.481 157.962 312.853 157.962C311.225 157.962 309.847 157.404 308.717 156.29C307.588 155.16 307.023 153.782 307.023 152.154C307.023 150.526 307.588 149.154 308.717 148.04C309.847 146.91 311.225 146.346 312.853 146.346C314.481 146.346 315.86 146.91 316.989 148.04C318.119 149.154 318.683 150.526 318.683 152.154C318.683 153.782 318.119 155.16 316.989 156.29ZM311.049 154.024C311.533 154.508 312.135 154.75 312.853 154.75C313.572 154.75 314.173 154.508 314.657 154.024C315.141 153.54 315.383 152.916 315.383 152.154C315.383 151.391 315.141 150.768 314.657 150.284C314.173 149.8 313.572 149.558 312.853 149.558C312.135 149.558 311.533 149.8 311.049 150.284C310.565 150.768 310.323 151.391 310.323 152.154C310.323 152.916 310.565 153.54 311.049 154.024ZM325.83 157.962C324.158 157.962 322.765 157.404 321.65 156.29C320.55 155.175 320 153.796 320 152.154C320 150.511 320.55 149.132 321.65 148.018C322.765 146.903 324.158 146.346 325.83 146.346C326.886 146.346 327.854 146.602 328.734 147.116C329.629 147.629 330.318 148.311 330.802 149.162L327.92 150.834C327.524 150.012 326.813 149.602 325.786 149.602C325.067 149.602 324.473 149.844 324.004 150.328C323.535 150.797 323.3 151.406 323.3 152.154C323.3 152.902 323.535 153.518 324.004 154.002C324.473 154.471 325.067 154.706 325.786 154.706C326.827 154.706 327.539 154.295 327.92 153.474L330.802 155.124C330.318 155.989 329.636 156.678 328.756 157.192C327.876 157.705 326.901 157.962 325.83 157.962ZM342.577 146.654V157.654H339.277V149.734H335.537V157.654H332.237V146.654H342.577ZM354.415 156.29C353.286 157.404 351.907 157.962 350.279 157.962C348.651 157.962 347.272 157.404 346.143 156.29C345.014 155.16 344.449 153.782 344.449 152.154C344.449 150.526 345.014 149.154 346.143 148.04C347.272 146.91 348.651 146.346 350.279 146.346C351.907 146.346 353.286 146.91 354.415 148.04C355.544 149.154 356.109 150.526 356.109 152.154C356.109 153.782 355.544 155.16 354.415 156.29ZM348.475 154.024C348.959 154.508 349.56 154.75 350.279 154.75C350.998 154.75 351.599 154.508 352.083 154.024C352.567 153.54 352.809 152.916 352.809 152.154C352.809 151.391 352.567 150.768 352.083 150.284C351.599 149.8 350.998 149.558 350.279 149.558C349.56 149.558 348.959 149.8 348.475 150.284C347.991 150.768 347.749 151.391 347.749 152.154C347.749 152.916 347.991 153.54 348.475 154.024ZM367.331 146.654V157.654H364.031V149.822H361.655V153.1C361.655 154.772 361.237 155.996 360.401 156.774C359.579 157.551 358.369 157.844 356.771 157.654V154.574C357.284 154.72 357.673 154.647 357.937 154.354C358.215 154.06 358.355 153.569 358.355 152.88V146.654H367.331ZM376.789 146.654H380.089V157.654H376.789V153.694H373.049V157.654H369.749V146.654H373.049V150.614H376.789V146.654ZM390.431 146.654H392.851V157.654H389.639V152.154L384.931 157.654H382.511V146.654H385.723V152.154L390.431 146.654ZM404.183 146.654V149.822H400.905V157.654H397.605V149.822H394.283V146.654H404.183ZM410.754 149.954C412.074 149.954 413.123 150.306 413.9 151.01C414.678 151.714 415.066 152.645 415.066 153.804C415.066 154.962 414.678 155.894 413.9 156.598C413.123 157.302 412.074 157.654 410.754 157.654H405.606V146.654H408.906V149.954H410.754ZM410.776 154.794C411.099 154.794 411.356 154.706 411.546 154.53C411.752 154.339 411.854 154.097 411.854 153.804C411.854 153.51 411.752 153.276 411.546 153.1C411.356 152.909 411.099 152.814 410.776 152.814H408.906V154.794H410.776ZM58.4934 177.346C60.1801 177.346 61.5734 177.881 62.6734 178.952C63.7734 180.022 64.3234 181.423 64.3234 183.154C64.3234 184.884 63.7734 186.285 62.6734 187.356C61.5734 188.426 60.1801 188.962 58.4934 188.962C57.3787 188.962 56.3741 188.705 55.4794 188.192C54.5847 187.678 53.8954 186.989 53.4114 186.124L56.2054 184.54C56.6014 185.39 57.3787 185.816 58.5374 185.816C59.4614 185.816 60.1654 185.42 60.6494 184.628H57.5914V181.68H60.6494C60.1654 180.888 59.4614 180.492 58.5374 180.492C57.4081 180.492 56.6307 180.917 56.2054 181.768L53.4114 180.162C53.8954 179.296 54.5847 178.614 55.4794 178.116C56.3741 177.602 57.3787 177.346 58.4934 177.346ZM74.6766 177.654V180.822H71.3986V188.654H68.0986V180.822H64.7766V177.654H74.6766ZM84.0206 177.654H86.4406V188.654H83.2286V183.154L78.5206 188.654H76.1006V177.654H79.3126V183.154L84.0206 177.654ZM104.702 177.654V188.654H101.402V180.734H97.6623V188.654H94.3623V177.654H104.702ZM113.702 177.346C115.154 177.346 116.393 177.91 117.42 179.04C118.447 180.154 118.96 181.526 118.96 183.154C118.96 184.782 118.447 186.16 117.42 187.29C116.393 188.404 115.154 188.962 113.702 188.962C112.294 188.962 111.201 188.514 110.424 187.62V193.054H107.124V177.654H110.424V178.688C111.201 177.793 112.294 177.346 113.702 177.346ZM111.15 185.112C111.649 185.596 112.279 185.838 113.042 185.838C113.805 185.838 114.428 185.596 114.912 185.112C115.411 184.628 115.66 183.975 115.66 183.154C115.66 182.332 115.411 181.68 114.912 181.196C114.428 180.712 113.805 180.47 113.042 180.47C112.279 180.47 111.649 180.712 111.15 181.196C110.666 181.68 110.424 182.332 110.424 183.154C110.424 183.975 110.666 184.628 111.15 185.112ZM130.247 187.29C129.118 188.404 127.739 188.962 126.111 188.962C124.483 188.962 123.104 188.404 121.975 187.29C120.846 186.16 120.281 184.782 120.281 183.154C120.281 181.526 120.846 180.154 121.975 179.04C123.104 177.91 124.483 177.346 126.111 177.346C127.739 177.346 129.118 177.91 130.247 179.04C131.376 180.154 131.941 181.526 131.941 183.154C131.941 184.782 131.376 186.16 130.247 187.29ZM124.307 185.024C124.791 185.508 125.392 185.75 126.111 185.75C126.83 185.75 127.431 185.508 127.915 185.024C128.399 184.54 128.641 183.916 128.641 183.154C128.641 182.391 128.399 181.768 127.915 181.284C127.431 180.8 126.83 180.558 126.111 180.558C125.392 180.558 124.791 180.8 124.307 181.284C123.823 181.768 123.581 182.391 123.581 183.154C123.581 183.916 123.823 184.54 124.307 185.024ZM139.132 188.962C137.342 188.962 135.912 188.397 134.842 187.268C133.786 186.138 133.258 184.708 133.258 182.978C133.258 181.1 133.536 179.648 134.094 178.622C134.651 177.595 135.773 176.664 137.46 175.828C137.65 175.74 137.951 175.593 138.362 175.388C138.787 175.182 139.058 175.05 139.176 174.992C139.308 174.918 139.513 174.808 139.792 174.662C140.07 174.5 140.254 174.376 140.342 174.288C140.444 174.185 140.576 174.053 140.738 173.892C140.914 173.73 141.046 173.569 141.134 173.408C141.236 173.232 141.332 173.034 141.42 172.814L144.148 174.376C143.942 175.241 143.517 175.93 142.872 176.444C142.241 176.942 141.288 177.434 140.012 177.918C139.102 178.255 138.442 178.592 138.032 178.93C137.636 179.252 137.35 179.626 137.174 180.052C137.951 179.362 138.956 179.018 140.188 179.018C141.317 179.018 142.358 179.458 143.312 180.338C144.265 181.203 144.742 182.362 144.742 183.814C144.742 185.324 144.228 186.564 143.202 187.532C142.19 188.485 140.833 188.962 139.132 188.962ZM137.394 185.354C137.863 185.779 138.435 185.992 139.11 185.992C139.784 185.992 140.342 185.786 140.782 185.376C141.222 184.965 141.442 184.444 141.442 183.814C141.442 183.168 141.214 182.64 140.76 182.23C140.305 181.804 139.733 181.592 139.044 181.592C138.428 181.592 137.885 181.79 137.416 182.186C136.946 182.567 136.712 183.08 136.712 183.726C136.712 184.386 136.939 184.928 137.394 185.354ZM149.238 184.474C149.619 185.5 150.499 186.014 151.878 186.014C152.773 186.014 153.477 185.735 153.99 185.178L156.63 186.696C155.545 188.206 153.946 188.962 151.834 188.962C149.986 188.962 148.505 188.412 147.39 187.312C146.29 186.212 145.74 184.826 145.74 183.154C145.74 181.496 146.283 180.118 147.368 179.018C148.468 177.903 149.876 177.346 151.592 177.346C153.191 177.346 154.518 177.903 155.574 179.018C156.645 180.118 157.18 181.496 157.18 183.154C157.18 183.623 157.136 184.063 157.048 184.474H149.238ZM149.172 182.01H153.902C153.579 180.851 152.802 180.272 151.57 180.272C150.294 180.272 149.495 180.851 149.172 182.01ZM168.192 177.654V188.654H164.892V180.822H162.516V184.1C162.516 185.772 162.098 186.996 161.262 187.774C160.441 188.551 159.231 188.844 157.632 188.654V185.574C158.145 185.72 158.534 185.647 158.798 185.354C159.077 185.06 159.216 184.569 159.216 183.88V177.654H168.192ZM175.758 180.954C177.078 180.954 178.127 181.306 178.904 182.01C179.682 182.714 180.07 183.645 180.07 184.804C180.07 185.962 179.682 186.894 178.904 187.598C178.127 188.302 177.078 188.654 175.758 188.654H170.61V177.654H173.91V180.954H175.758ZM181.17 177.654H184.47V188.654H181.17V177.654ZM175.78 185.794C176.103 185.794 176.36 185.706 176.55 185.53C176.756 185.339 176.858 185.097 176.858 184.804C176.858 184.51 176.756 184.276 176.55 184.1C176.36 183.909 176.103 183.814 175.78 183.814H173.91V185.794H175.78ZM191.076 185.244L189.316 191.734H186.676L187.556 185.244H191.076ZM205.816 177.654H209.116V188.654H205.816V184.694H202.076V188.654H198.776V177.654H202.076V181.614H205.816V177.654ZM219.524 177.654H222.824V188.654H219.524V187.62C218.747 188.514 217.654 188.962 216.246 188.962C214.794 188.962 213.555 188.404 212.528 187.29C211.501 186.16 210.988 184.782 210.988 183.154C210.988 181.526 211.501 180.154 212.528 179.04C213.555 177.91 214.794 177.346 216.246 177.346C217.654 177.346 218.747 177.793 219.524 178.688V177.654ZM215.014 185.112C215.498 185.596 216.129 185.838 216.906 185.838C217.683 185.838 218.314 185.596 218.798 185.112C219.282 184.628 219.524 183.975 219.524 183.154C219.524 182.332 219.282 181.68 218.798 181.196C218.314 180.712 217.683 180.47 216.906 180.47C216.129 180.47 215.498 180.712 215.014 181.196C214.53 181.68 214.288 182.332 214.288 183.154C214.288 183.975 214.53 184.628 215.014 185.112ZM232.175 177.654H235.695L231.933 188.324C230.76 191.638 228.67 193.215 225.663 193.054V189.974C226.411 189.974 226.983 189.864 227.379 189.644C227.775 189.424 228.098 189.028 228.347 188.456L224.035 177.654H227.555L230.107 184.408L232.175 177.654ZM243.181 177.654H246.481V188.654H243.181V185.354C242.389 185.588 241.583 185.706 240.761 185.706C239.456 185.706 238.393 185.368 237.571 184.694C236.765 184.004 236.361 183.014 236.361 181.724V177.654H239.661V181.284C239.661 182.178 240.248 182.626 241.421 182.626C242.096 182.626 242.683 182.508 243.181 182.274V177.654ZM256.819 177.654H259.239V188.654H256.027V183.154L251.319 188.654H248.899V177.654H252.111V183.154L256.819 177.654ZM270.571 177.654V180.822H267.293V188.654H263.993V180.822H260.671V177.654H270.571ZM277.143 180.954C278.463 180.954 279.512 181.306 280.289 182.01C281.066 182.714 281.455 183.645 281.455 184.804C281.455 185.962 281.066 186.894 280.289 187.598C279.512 188.302 278.463 188.654 277.143 188.654H271.995V177.654H275.295V180.954H277.143ZM277.165 185.794C277.488 185.794 277.744 185.706 277.935 185.53C278.14 185.339 278.243 185.097 278.243 184.804C278.243 184.51 278.14 184.276 277.935 184.1C277.744 183.909 277.488 183.814 277.165 183.814H275.295V185.794H277.165ZM298.173 177.654V188.654H294.873V180.822H292.497V184.1C292.497 185.772 292.079 186.996 291.243 187.774C290.421 188.551 289.211 188.844 287.613 188.654V185.574C288.126 185.72 288.515 185.647 288.779 185.354C289.057 185.06 289.197 184.569 289.197 183.88V177.654H298.173ZM310.821 177.346C312.449 177.346 313.828 177.91 314.957 179.04C316.086 180.154 316.651 181.526 316.651 183.154C316.651 184.782 316.086 186.16 314.957 187.29C313.828 188.404 312.449 188.962 310.821 188.962C309.472 188.962 308.291 188.566 307.279 187.774C306.267 186.982 305.6 185.955 305.277 184.694H303.891V188.654H300.591V177.654H303.891V181.614H305.277C305.6 180.352 306.267 179.326 307.279 178.534C308.291 177.742 309.472 177.346 310.821 177.346ZM308.995 185.024C309.479 185.508 310.088 185.75 310.821 185.75C311.554 185.75 312.156 185.508 312.625 185.024C313.109 184.54 313.351 183.916 313.351 183.154C313.351 182.391 313.109 181.768 312.625 181.284C312.156 180.8 311.554 180.558 310.821 180.558C310.088 180.558 309.479 180.8 308.995 181.284C308.526 181.768 308.291 182.391 308.291 183.154C308.291 183.916 308.526 184.54 308.995 185.024ZM328.221 185.574H329.651V191.602H326.439V188.654H320.323V191.602H317.111V185.574H318.475C319.061 184.664 319.355 183.396 319.355 181.768V177.654H328.221V185.574ZM321.929 185.574H325.009V180.602H322.567V181.768C322.567 183.293 322.354 184.562 321.929 185.574ZM333.81 184.474C334.192 185.5 335.072 186.014 336.45 186.014C337.345 186.014 338.049 185.735 338.562 185.178L341.202 186.696C340.117 188.206 338.518 188.962 336.406 188.962C334.558 188.962 333.077 188.412 331.962 187.312C330.862 186.212 330.312 184.826 330.312 183.154C330.312 181.496 330.855 180.118 331.94 179.018C333.04 177.903 334.448 177.346 336.164 177.346C337.763 177.346 339.09 177.903 340.146 179.018C341.217 180.118 341.752 181.496 341.752 183.154C341.752 183.623 341.708 184.063 341.62 184.474H333.81ZM333.744 182.01H338.474C338.152 180.851 337.374 180.272 336.142 180.272C334.866 180.272 334.067 180.851 333.744 182.01ZM345.494 176.356V173.496H352.094V176.356H345.494ZM351.544 177.654H353.964V188.654H350.752V183.154L346.044 188.654H343.624V177.654H346.836V183.154L351.544 177.654ZM377.396 188.654H373.744L370.752 183.88V188.654H367.54V183.88L364.548 188.654H360.896L364.548 183.154L361.116 177.654H364.768L367.54 182.362V177.654H370.752V182.362L373.524 177.654H377.176L373.744 183.154L377.396 188.654ZM386.735 177.654H389.155V188.654H385.943V183.154L381.235 188.654H378.815V177.654H382.027V183.154L386.735 177.654ZM400.487 177.654V180.822H397.209V188.654H393.909V180.822H390.587V177.654H400.487ZM407.059 180.954C408.379 180.954 409.428 181.306 410.205 182.01C410.983 182.714 411.371 183.645 411.371 184.804C411.371 185.962 410.983 186.894 410.205 187.598C409.428 188.302 408.379 188.654 407.059 188.654H401.911V177.654H405.211V180.954H407.059ZM407.081 185.794C407.404 185.794 407.661 185.706 407.851 185.53C408.057 185.339 408.159 185.097 408.159 184.804C408.159 184.51 408.057 184.276 407.851 184.1C407.661 183.909 407.404 183.814 407.081 183.814H405.211V185.794H407.081ZM125.94 208.654V219.654H122.64V211.734H118.9V219.654H115.6V208.654H125.94ZM137.777 218.29C136.648 219.404 135.269 219.962 133.641 219.962C132.013 219.962 130.635 219.404 129.505 218.29C128.376 217.16 127.811 215.782 127.811 214.154C127.811 212.526 128.376 211.154 129.505 210.04C130.635 208.91 132.013 208.346 133.641 208.346C135.269 208.346 136.648 208.91 137.777 210.04C138.907 211.154 139.471 212.526 139.471 214.154C139.471 215.782 138.907 217.16 137.777 218.29ZM131.837 216.024C132.321 216.508 132.923 216.75 133.641 216.75C134.36 216.75 134.961 216.508 135.445 216.024C135.929 215.54 136.171 214.916 136.171 214.154C136.171 213.391 135.929 212.768 135.445 212.284C134.961 211.8 134.36 211.558 133.641 211.558C132.923 211.558 132.321 211.8 131.837 212.284C131.353 212.768 131.111 213.391 131.111 214.154C131.111 214.916 131.353 215.54 131.837 216.024ZM141.448 214.66V211.492H149.808V214.66H141.448ZM159.378 208.654H162.678V219.654H159.378V215.694H155.638V219.654H152.338V208.654H155.638V212.614H159.378V208.654ZM174.516 218.29C173.386 219.404 172.008 219.962 170.38 219.962C168.752 219.962 167.373 219.404 166.244 218.29C165.114 217.16 164.55 215.782 164.55 214.154C164.55 212.526 165.114 211.154 166.244 210.04C167.373 208.91 168.752 208.346 170.38 208.346C172.008 208.346 173.386 208.91 174.516 210.04C175.645 211.154 176.21 212.526 176.21 214.154C176.21 215.782 175.645 217.16 174.516 218.29ZM168.576 216.024C169.06 216.508 169.661 216.75 170.38 216.75C171.098 216.75 171.7 216.508 172.184 216.024C172.668 215.54 172.91 214.916 172.91 214.154C172.91 213.391 172.668 212.768 172.184 212.284C171.7 211.8 171.098 211.558 170.38 211.558C169.661 211.558 169.06 211.8 168.576 212.284C168.092 212.768 167.85 213.391 167.85 214.154C167.85 214.916 168.092 215.54 168.576 216.024ZM186.282 214.022C187.265 214.55 187.756 215.378 187.756 216.508C187.756 217.446 187.426 218.209 186.766 218.796C186.121 219.368 185.204 219.654 184.016 219.654H178.076V208.654H183.576C184.764 208.654 185.681 208.947 186.326 209.534C186.986 210.106 187.316 210.861 187.316 211.8C187.316 212.768 186.972 213.508 186.282 214.022ZM183.224 211.294H181.156V212.834H183.224C183.87 212.834 184.192 212.584 184.192 212.086C184.192 211.558 183.87 211.294 183.224 211.294ZM183.576 216.926C184.222 216.926 184.544 216.654 184.544 216.112C184.544 215.598 184.222 215.342 183.576 215.342H181.156V216.926H183.576ZM198.814 218.29C197.685 219.404 196.306 219.962 194.678 219.962C193.05 219.962 191.672 219.404 190.542 218.29C189.413 217.16 188.848 215.782 188.848 214.154C188.848 212.526 189.413 211.154 190.542 210.04C191.672 208.91 193.05 208.346 194.678 208.346C196.306 208.346 197.685 208.91 198.814 210.04C199.944 211.154 200.508 212.526 200.508 214.154C200.508 215.782 199.944 217.16 198.814 218.29ZM192.874 216.024C193.358 216.508 193.96 216.75 194.678 216.75C195.397 216.75 195.998 216.508 196.482 216.024C196.966 215.54 197.208 214.916 197.208 214.154C197.208 213.391 196.966 212.768 196.482 212.284C195.998 211.8 195.397 211.558 194.678 211.558C193.96 211.558 193.358 211.8 192.874 212.284C192.39 212.768 192.148 213.391 192.148 214.154C192.148 214.916 192.39 215.54 192.874 216.024ZM214.035 208.654V219.654H210.867V213.978L208.403 217.806H208.007L205.543 213.978V219.654H202.375V208.654H205.543L208.205 212.812L210.867 208.654H214.035ZM223.377 208.654H226.897L223.135 219.324C221.962 222.638 219.872 224.215 216.865 224.054V220.974C217.613 220.974 218.185 220.864 218.581 220.644C218.977 220.424 219.3 220.028 219.549 219.456L215.237 208.654H218.757L221.309 215.408L223.377 208.654ZM241.533 208.654H243.953V219.654H240.741V214.154L236.033 219.654H233.613V208.654H236.825V214.154L241.533 208.654ZM257.155 219.962C255.483 219.962 254.09 219.404 252.975 218.29C251.875 217.175 251.325 215.796 251.325 214.154C251.325 212.511 251.875 211.132 252.975 210.018C254.09 208.903 255.483 208.346 257.155 208.346C258.211 208.346 259.179 208.602 260.059 209.116C260.954 209.629 261.643 210.311 262.127 211.162L259.245 212.834C258.849 212.012 258.138 211.602 257.111 211.602C256.392 211.602 255.798 211.844 255.329 212.328C254.86 212.797 254.625 213.406 254.625 214.154C254.625 214.902 254.86 215.518 255.329 216.002C255.798 216.471 256.392 216.706 257.111 216.706C258.152 216.706 258.864 216.295 259.245 215.474L262.127 217.124C261.643 217.989 260.961 218.678 260.081 219.192C259.201 219.705 258.226 219.962 257.155 219.962ZM271.769 214.022C272.751 214.55 273.243 215.378 273.243 216.508C273.243 217.446 272.913 218.209 272.253 218.796C271.607 219.368 270.691 219.654 269.503 219.654H263.563V208.654H269.063C270.251 208.654 271.167 208.947 271.813 209.534C272.473 210.106 272.803 210.861 272.803 211.8C272.803 212.768 272.458 213.508 271.769 214.022ZM268.711 211.294H266.643V212.834H268.711C269.356 212.834 269.679 212.584 269.679 212.086C269.679 211.558 269.356 211.294 268.711 211.294ZM269.063 216.926C269.708 216.926 270.031 216.654 270.031 216.112C270.031 215.598 269.708 215.342 269.063 215.342H266.643V216.926H269.063ZM284.301 218.29C283.171 219.404 281.793 219.962 280.165 219.962C278.537 219.962 277.158 219.404 276.029 218.29C274.899 217.16 274.335 215.782 274.335 214.154C274.335 212.526 274.899 211.154 276.029 210.04C277.158 208.91 278.537 208.346 280.165 208.346C281.793 208.346 283.171 208.91 284.301 210.04C285.43 211.154 285.995 212.526 285.995 214.154C285.995 215.782 285.43 217.16 284.301 218.29ZM278.361 216.024C278.845 216.508 279.446 216.75 280.165 216.75C280.883 216.75 281.485 216.508 281.969 216.024C282.453 215.54 282.695 214.916 282.695 214.154C282.695 213.391 282.453 212.768 281.969 212.284C281.485 211.8 280.883 211.558 280.165 211.558C279.446 211.558 278.845 211.8 278.361 212.284C277.877 212.768 277.635 213.391 277.635 214.154C277.635 214.916 277.877 215.54 278.361 216.024ZM293.185 219.962C291.396 219.962 289.966 219.397 288.895 218.268C287.839 217.138 287.311 215.708 287.311 213.978C287.311 212.1 287.59 210.648 288.147 209.622C288.705 208.595 289.827 207.664 291.513 206.828C291.704 206.74 292.005 206.593 292.415 206.388C292.841 206.182 293.112 206.05 293.229 205.992C293.361 205.918 293.567 205.808 293.845 205.662C294.124 205.5 294.307 205.376 294.395 205.288C294.498 205.185 294.63 205.053 294.791 204.892C294.967 204.73 295.099 204.569 295.187 204.408C295.29 204.232 295.385 204.034 295.473 203.814L298.201 205.376C297.996 206.241 297.571 206.93 296.925 207.444C296.295 207.942 295.341 208.434 294.065 208.918C293.156 209.255 292.496 209.592 292.085 209.93C291.689 210.252 291.403 210.626 291.227 211.052C292.005 210.362 293.009 210.018 294.241 210.018C295.371 210.018 296.412 210.458 297.365 211.338C298.319 212.203 298.795 213.362 298.795 214.814C298.795 216.324 298.282 217.564 297.255 218.532C296.243 219.485 294.887 219.962 293.185 219.962ZM291.447 216.354C291.917 216.779 292.489 216.992 293.163 216.992C293.838 216.992 294.395 216.786 294.835 216.376C295.275 215.965 295.495 215.444 295.495 214.814C295.495 214.168 295.268 213.64 294.813 213.23C294.359 212.804 293.787 212.592 293.097 212.592C292.481 212.592 291.939 212.79 291.469 213.186C291 213.567 290.765 214.08 290.765 214.726C290.765 215.386 290.993 215.928 291.447 216.354ZM309.76 218.29C308.63 219.404 307.252 219.962 305.624 219.962C303.996 219.962 302.617 219.404 301.488 218.29C300.358 217.16 299.794 215.782 299.794 214.154C299.794 212.526 300.358 211.154 301.488 210.04C302.617 208.91 303.996 208.346 305.624 208.346C307.252 208.346 308.63 208.91 309.76 210.04C310.889 211.154 311.454 212.526 311.454 214.154C311.454 215.782 310.889 217.16 309.76 218.29ZM303.82 216.024C304.304 216.508 304.905 216.75 305.624 216.75C306.342 216.75 306.944 216.508 307.428 216.024C307.912 215.54 308.154 214.916 308.154 214.154C308.154 213.391 307.912 212.768 307.428 212.284C306.944 211.8 306.342 211.558 305.624 211.558C304.905 211.558 304.304 211.8 303.82 212.284C303.336 212.768 303.094 213.391 303.094 214.154C303.094 214.916 303.336 215.54 303.82 216.024ZM323.011 216.574H324.441V222.602H321.229V219.654H315.113V222.602H311.901V216.574H313.265C313.851 215.664 314.145 214.396 314.145 212.768V208.654H323.011V216.574ZM316.719 216.574H319.799V211.602H317.357V212.768C317.357 214.293 317.144 215.562 316.719 216.574ZM333.122 208.654H336.422V219.654H333.122V215.694H329.382V219.654H326.082V208.654H329.382V212.614H333.122V208.654ZM348.26 218.29C347.13 219.404 345.752 219.962 344.124 219.962C342.496 219.962 341.117 219.404 339.988 218.29C338.858 217.16 338.294 215.782 338.294 214.154C338.294 212.526 338.858 211.154 339.988 210.04C341.117 208.91 342.496 208.346 344.124 208.346C345.752 208.346 347.13 208.91 348.26 210.04C349.389 211.154 349.954 212.526 349.954 214.154C349.954 215.782 349.389 217.16 348.26 218.29ZM342.32 216.024C342.804 216.508 343.405 216.75 344.124 216.75C344.842 216.75 345.444 216.508 345.928 216.024C346.412 215.54 346.654 214.916 346.654 214.154C346.654 213.391 346.412 212.768 345.928 212.284C345.444 211.8 344.842 211.558 344.124 211.558C343.405 211.558 342.804 211.8 342.32 212.284C341.836 212.768 341.594 213.391 341.594 214.154C341.594 214.916 341.836 215.54 342.32 216.024Z" fill="white"/>
</svg>
