<svg width="1919" height="876" viewBox="0 0 1919 876" fill="none" xmlns="http://www.w3.org/2000/svg">
<path d="M0 0H176H1564H1921V876H1216.23H516.962H0V0Z" fill="white"/>
<path d="M204.817 251.72C220.164 310.034 301.213 387.701 365.846 374.489C541.363 338.612 565.369 277.703 669.812 276.614C774.255 275.526 793.861 202.001 740.103 149.639C646 57.9787 576.98 155.765 510.871 158.575C447.411 161.274 144.581 22.8381 204.817 251.72Z" fill="#E8F4F4"/>
<path d="M85.6952 341.804C88.7283 353.329 104.746 368.679 117.52 366.068C152.208 358.977 156.953 346.939 177.594 346.724C198.236 346.509 202.111 331.978 191.486 321.629C172.888 303.514 159.247 322.84 146.182 323.396C133.64 323.929 73.7905 296.569 85.6952 341.804Z" fill="#E8F4F4"/>
<mask id="mask0" mask-type="alpha" maskUnits="userSpaceOnUse" x="250" y="177" width="455" height="614">
<rect x="250" y="177" width="454.151" height="614" fill="#C4C4C4"/>
</mask>
<g mask="url(#mask0)">
<path d="M549.144 486.966V570.599L645.621 654.222V403.352L549.144 486.966Z" fill="#2D364F"/>
<path d="M549.144 486.966V570.599L645.621 654.222V537.153L568.428 470.243L549.144 486.966Z" fill="#1E253A"/>
<path d="M558.778 654.231C558.778 661.905 555.729 669.265 550.302 674.692C544.876 680.118 537.516 683.167 529.842 683.167H278.998C275.193 683.173 271.425 682.429 267.908 680.977C264.391 679.526 261.195 677.396 258.502 674.709C255.809 672.021 253.672 668.83 252.213 665.316C250.754 661.802 250.002 658.036 250 654.231V403.387C249.997 399.582 250.745 395.814 252.199 392.298C253.654 388.782 255.787 385.587 258.476 382.896C261.166 380.205 264.36 378.07 267.875 376.613C271.39 375.156 275.157 374.407 278.962 374.407H529.806C533.607 374.408 537.371 375.158 540.882 376.613C544.393 378.069 547.584 380.202 550.271 382.891C552.958 385.579 555.089 388.771 556.542 392.283C557.996 395.795 558.743 399.559 558.742 403.361L558.778 654.231Z" fill="#1E253A"/>
<path d="M385.1 480.535V577.03L452.641 528.782L385.1 480.535Z" fill="white"/>
<path d="M454.126 252.356C446.716 246.129 415.067 243.692 407.106 228.481C402.658 220.013 394.404 242.278 396.992 250.959C381.87 298.264 389.351 313.946 402.712 312.959C473.589 307.755 472.69 267.976 454.126 252.356Z" fill="#2A425B"/>
<path d="M390.703 328.294C390.703 328.294 391.406 331.434 376.239 335.295C361.073 339.155 337.857 341.041 337.857 341.041L372.023 328.89C372.023 328.89 385.295 324.861 390.703 328.294Z" fill="#E2C59C"/>
<path d="M350.071 339.128C342.955 341.174 340.882 345.649 338.365 347.57C336.65 348.95 335.022 350.436 333.49 352.018C334.202 348.459 336.488 347.757 337.36 346.431C338.231 345.106 338.08 345.693 335.474 346.227C333.997 346.538 332.191 349.785 330.759 351.769C330.205 352.627 329.447 353.336 328.553 353.832C329.317 351.783 330.279 349.814 331.426 347.953C333.077 345.399 335.024 343.049 337.226 340.952C338.578 339.92 343.319 338.381 346.851 337.848C350.845 337.225 355.23 337.652 350.071 339.128Z" fill="#E2C59C"/>
<path d="M337.645 340.934C337.645 340.934 332.575 343.905 331.819 344.901C331.294 345.595 329.337 349.349 329.337 349.349C330.46 348.808 331.429 347.995 332.157 346.983C333.019 345.524 337.645 340.934 337.645 340.934Z" fill="#E2C59C"/>
<path d="M382.236 323.704C382.236 323.704 396.317 320.564 397.758 329.041C398.567 333.863 395.863 336.398 391.594 337.261C383.65 338.897 374.506 340.312 374.506 340.312L366.883 328.694L382.236 323.704Z" fill="#D4EDFF"/>
<path d="M381.434 316.668L385.366 278.143C385.366 278.143 385.081 268.074 388.71 268.287C393.95 268.581 394.937 277.28 395.399 280.403C396.289 286.763 397.668 289.298 397.561 305.309C397.499 315.192 398.21 326.355 397.561 333.009C397.134 337.607 392.66 332.51 387.999 332.066C379.326 331.238 381.434 316.668 381.434 316.668Z" fill="#69BCB8"/>
<path d="M296.904 424.558L284.042 452.471L266.198 452.862L257.178 451.039L276.588 446.422L286.977 420.519L296.904 424.558Z" fill="#E9D6B8"/>
<path d="M282.075 456.865L279.709 456.313L278.383 453.431L263.982 454.072L252.418 451.91C252.534 451.444 252.807 451.032 253.192 450.745C255.238 449.642 264.24 449.108 264.24 449.108C264.24 449.108 263.288 451.599 264.311 452.133C265.334 452.666 276.444 451.973 279.113 451.599C283.703 450.95 286.069 449.82 285.864 450.398C285.58 451.297 282.075 456.865 282.075 456.865Z" fill="#194866"/>
<path d="M368.145 367.851L326.089 366.721L294.742 435.321L281.773 430.197L312.337 347.65C312.337 347.65 314.765 342.438 327.459 342.438C339.832 342.438 389.725 341.068 395.391 342.651C408.849 346.396 365.85 356.447 368.145 367.851Z" fill="#F99B1C"/>
<path d="M378.455 247.757C380.132 251.201 383.109 253.838 386.731 255.088C390.352 256.337 394.322 256.097 397.766 254.42L398.015 246.663C401.456 244.982 404.089 242.005 405.337 238.384C406.584 234.763 406.344 230.795 404.669 227.352L402.294 222.477C400.614 219.035 397.637 216.399 394.016 215.15C390.396 213.901 386.427 214.14 382.982 215.815L379.735 217.398C376.291 219.077 373.654 222.056 372.404 225.679C371.155 229.302 371.395 233.273 373.073 236.718L378.455 247.757Z" fill="#2A425B"/>
<path d="M374.337 226.133C374.95 227.351 375.652 228.522 376.436 229.638C381.773 237.332 389.965 241.201 395.881 239.28C397.72 242.617 399.987 245.7 402.623 248.451C405.292 251.226 410.807 252.836 410.807 252.836C414.587 258.173 412.443 273.651 398.941 275.234C390.819 276.195 392.483 267.638 395.32 262.301C396.646 259.801 397.918 256.91 397.633 255.505C396.61 250.586 394.804 249.91 391.913 248.238C390.434 247.616 388.843 247.304 387.239 247.319C385.634 247.335 384.05 247.677 382.582 248.326C382.377 248.431 382.152 248.491 381.921 248.5C381.691 248.509 381.461 248.468 381.248 248.38C380.53 247.64 379.93 246.794 379.469 245.871L374.248 235.197C373.564 233.781 373.217 232.227 373.232 230.655C373.248 229.083 373.626 227.535 374.337 226.133Z" fill="#E9D6B8"/>
<path d="M416.713 354.259C416.713 354.259 410.486 355.531 408.832 356.172C406.546 357.061 399.848 355.949 399.848 355.949C399.848 355.949 398.958 322.895 397.375 311.367C395.792 299.839 392.767 296.699 392.794 293.096C392.794 287.332 393.301 285.98 394.315 281.532C395.329 277.085 392.349 271.107 393.372 272.246C394.991 274.078 401.102 276.934 406.813 270.609C407.791 269.506 416.713 354.259 416.713 354.259Z" fill="#137F7F"/>
<path d="M394.83 258.823C394.83 258.823 386.442 267.273 386.771 270.049C387.1 272.824 386.264 284.503 388.177 296.912C390.089 309.321 391.663 312.416 391.975 321.48C392.286 330.545 390.196 332.564 390.952 343.718C391.548 352.436 392.927 360.13 392.927 360.13C394.168 360.42 395.464 360.376 396.682 360.003C397.901 359.629 398.999 358.94 399.865 358.004C402.854 354.766 401.768 324.451 400.674 316.979C399.58 309.507 395.186 289.938 395.444 284.743C395.702 279.549 397.392 267.113 398.308 265.485C400.612 261.385 395.479 259.25 394.83 258.823Z" fill="#79CCCA"/>
<path d="M394.796 258.04C395.072 258.473 395.425 258.853 395.837 259.161C396.717 259.84 397.541 260.59 398.301 261.402C398.301 261.402 396.619 260.593 395.979 262.052C395.353 263.932 394.927 265.873 394.707 267.842C394.707 267.842 391.603 262.719 392.341 261.091C393.684 258.147 394.796 258.04 394.796 258.04Z" fill="#69BCB8"/>
<path d="M338.399 430.651L337.767 450.185L333.791 454.881L323.179 460.983L315.316 459.569L329.184 449.233L330.198 428.729L338.399 430.651Z" fill="#E9D6B8"/>
<path d="M337.173 454.463L333.615 457.007L332.521 456.118L320.708 462.593C320.708 462.593 314.481 465.742 312.702 463.705C312.142 463.047 312.845 460.912 314.846 459.427C315.644 458.809 316.495 458.265 317.39 457.799C317.39 457.799 317.799 459.329 321.339 459.907C322.469 460.103 329.487 455.459 331.898 454.259C336.221 452.097 337.947 449.064 338.125 449.339C338.756 450.131 337.173 454.463 337.173 454.463Z" fill="#194866"/>
<path d="M421.676 327.627L416.605 339.618L407.888 340.694L337.492 345.141C337.492 345.141 331.185 343.185 327.182 353.147C321.472 367.317 328.961 438.221 328.961 438.221L339.386 438.061L345.008 371.204C345.008 371.204 412.665 383.044 432.181 377.057C439.653 374.762 445.372 361.562 444.305 348.228C443.469 337.767 436.495 328.152 436.495 328.152L421.676 327.627Z" fill="#FEC00F"/>
<path d="M412.088 352.809C412.088 352.809 408.824 323.304 406.965 309.33C405.106 295.355 405.524 271.97 405.097 268.572C404.609 265.779 403.877 263.035 402.909 260.371C402.909 260.371 406.307 252.756 410.754 252.997C414.659 253.219 423.074 258.921 429.043 261.34C433.161 263.021 434.914 308.485 435.269 310.975C436.595 319.87 440.989 330.144 443.835 337.216C445.504 341.787 446.841 346.472 447.838 351.235C447.838 351.235 425.324 348.611 412.088 352.809Z" fill="#79CCCA"/>
<path d="M409.918 250.684L406.6 254.42C406.6 254.42 401.974 260.815 403.478 259.917C405.381 258.778 407.578 265.45 407.578 265.45L413.734 252.827L409.918 250.684Z" fill="#69BCB8"/>
<path d="M436.904 322.388C436.904 322.388 442.046 326.044 422.592 328.045C403.138 330.046 374.114 328.605 374.114 328.605L418.589 320.182C418.589 320.182 430.882 317.691 436.904 322.388Z" fill="#E9D6B8"/>
<path d="M389.557 328.33C380.332 329.548 376.943 334.272 373.474 336.051C371.102 337.306 368.814 338.715 366.625 340.267C368.173 336.415 371.143 335.908 372.478 334.556C373.812 333.204 373.501 333.836 370.183 334.032C368.297 334.156 365.433 337.59 363.289 339.547C362.425 340.447 361.357 341.127 360.176 341.53C361.526 339.322 363.096 337.257 364.864 335.366C367.421 332.719 370.267 330.367 373.35 328.356C375.226 327.405 381.355 326.399 385.803 326.355C390.873 326.311 396.201 327.476 389.557 328.33Z" fill="#E9D6B8"/>
<path d="M373.866 328.472C373.866 328.472 367.034 331.016 365.913 332.03C365.131 332.724 362 336.647 362 336.647C363.467 336.217 364.814 335.449 365.931 334.405C367.274 332.911 373.866 328.472 373.866 328.472Z" fill="#E9D6B8"/>
<path d="M425.394 316.873L419.061 274.016C419.061 274.016 420.626 265.183 423.366 262.167C426.613 258.609 429.041 261.34 429.041 261.34C429.041 261.34 440.053 265.583 440.605 299.509C440.961 322.735 443.096 332.288 433.08 333.311C423.74 334.254 406.874 335.09 406.874 335.09L403.316 321.747L425.394 316.873Z" fill="#69BCB8"/>
<path d="M372.567 340.062H311.154V341.326H372.567V340.062Z" fill="#CDD5D7"/>
<path d="M345.471 339.991C345.5 340.434 345.352 340.869 345.061 341.203C344.769 341.537 344.356 341.741 343.914 341.77H312.416C311.527 341.77 310.388 341.148 309.347 338.666L293.781 310.201C293.756 309.962 293.784 309.719 293.865 309.492C293.945 309.265 294.076 309.058 294.246 308.888C294.417 308.717 294.623 308.587 294.85 308.506C295.078 308.426 295.32 308.397 295.56 308.422L327.876 309.392C328.374 309.544 328.824 309.822 329.182 310.199C329.541 310.576 329.796 311.04 329.922 311.544L345.471 339.991Z" fill="#69BCB8"/>
<path d="M341.621 341.326H372.754C371.169 342.022 369.449 342.353 367.719 342.295H315.931C314.202 342.353 312.481 342.022 310.897 341.326H341.621Z" fill="#69BCB8"/>
</g>
</svg>
