<svg width="50" height="50" viewBox="0 0 50 50" fill="none" xmlns="http://www.w3.org/2000/svg">
<path d="M33.8217 29.1129C33.768 29.0233 33.4355 28.3041 31.8353 26.8258C30.1602 25.2779 30.3852 25.5292 32.4029 22.8527C33.6317 21.2226 34.123 20.2271 33.9692 19.8016C33.823 19.3959 32.9192 19.5029 32.9192 19.5029L29.9139 19.5203C29.9139 19.5203 29.6914 19.4905 29.5252 19.5888C29.3639 19.6858 29.2601 19.9098 29.2601 19.9098C29.2601 19.9098 28.7839 21.1716 28.1488 22.2442C26.81 24.5076 26.2737 24.6271 26.0549 24.4865C25.5461 24.1592 25.6736 23.17 25.6736 22.4682C25.6736 20.2744 26.0074 19.3598 25.0223 19.1234C24.6948 19.045 24.4548 18.9927 23.6185 18.984C22.5459 18.9728 21.6371 18.9878 21.1233 19.2379C20.7808 19.4046 20.517 19.7767 20.6783 19.7978C20.877 19.824 21.3271 19.9185 21.5658 20.2421C21.8746 20.6589 21.8634 21.5971 21.8634 21.5971C21.8634 21.5971 22.0409 24.1791 21.4496 24.5002C21.0433 24.7204 20.487 24.2712 19.2932 22.2168C18.6819 21.1653 18.2193 20.0019 18.2193 20.0019C18.2193 20.0019 18.1306 19.7854 17.9718 19.6697C17.7793 19.5291 17.5093 19.4843 17.5093 19.4843L14.6516 19.5017C14.6516 19.5017 14.2228 19.5141 14.0653 19.6995C13.9253 19.865 14.054 20.206 14.054 20.206C14.054 20.206 16.2917 25.416 18.8244 28.0428C21.1483 30.4505 23.786 30.2925 23.786 30.2925H24.9811C24.9811 30.2925 25.3424 30.2527 25.5261 30.0548C25.6961 29.8732 25.6899 29.5322 25.6899 29.5322C25.6899 29.5322 25.6661 27.9357 26.4112 27.7006C27.145 27.4691 28.0876 29.2435 29.0864 29.9267C29.8414 30.4431 30.4152 30.3298 30.4152 30.3298L33.0867 30.2925C33.0867 30.2925 34.4843 30.2067 33.8217 29.1129Z" fill="#1E253A"/>
<circle cx="25" cy="25" r="24.5" stroke="#1E253A" stroke-opacity="0.1"/>
</svg>
