<svg width="39" height="27" viewBox="0 0 39 27" fill="none" xmlns="http://www.w3.org/2000/svg">
<path d="M37.3425 2.6775C36.2846 0.79575 35.1366 0.449625 32.799 0.318C30.4639 0.159563 24.5919 0.09375 19.5049 0.09375C14.4081 0.09375 8.53369 0.159563 6.201 0.315563C3.86831 0.449625 2.71781 0.793312 1.65019 2.6775C0.560625 4.55681 0 7.79381 0 13.4927C0 13.4976 0 13.5 0 13.5C0 13.5049 0 13.5073 0 13.5073V13.5122C0 19.1867 0.560625 22.4481 1.65019 24.3079C2.71781 26.1896 3.86588 26.5309 6.19856 26.6893C8.53369 26.8258 14.4081 26.9062 19.5049 26.9062C24.5919 26.9062 30.4639 26.8258 32.8014 26.6917C35.139 26.5333 36.2871 26.1921 37.3449 24.3103C38.4443 22.4505 39 19.1891 39 13.5146C39 13.5146 39 13.5073 39 13.5024C39 13.5024 39 13.4976 39 13.4951C39 7.79381 38.4442 4.55681 37.3425 2.6775ZM14.625 20.8125V6.1875L26.8125 13.5L14.625 20.8125Z" fill="#1E253A"/>
</svg>
