<svg width="50" height="50" viewBox="0 0 50 50" fill="none" xmlns="http://www.w3.org/2000/svg">
<circle cx="25" cy="25" r="24.5" stroke="#1E253A" stroke-opacity="0.1"/>
<path d="M36.6764 17.6382C36.0056 16.4451 35.2777 16.2256 33.7956 16.1422C32.3151 16.0417 28.5921 16 25.3667 16C22.1352 16 18.4106 16.0417 16.9316 16.1406C15.4526 16.2256 14.7232 16.4435 14.0463 17.6382C13.3555 18.8297 13 20.8821 13 24.4954C13 24.4985 13 24.5 13 24.5C13 24.5031 13 24.5046 13 24.5046V24.5077C13 28.1055 13.3555 30.1734 14.0463 31.3525C14.7232 32.5456 15.4511 32.762 16.9301 32.8625C18.4106 32.949 22.1352 33 25.3667 33C28.5921 33 32.3151 32.949 33.7972 32.864C35.2793 32.7635 36.0072 32.5472 36.6779 31.3541C37.3749 30.1749 37.7273 28.1071 37.7273 24.5093C37.7273 24.5093 37.7273 24.5046 37.7273 24.5015C37.7273 24.5015 37.7273 24.4985 37.7273 24.4969C37.7273 20.8821 37.3749 18.8297 36.6764 17.6382ZM22.2727 29.1364V19.8636L30 24.5L22.2727 29.1364Z" fill="#1E253A"/>
</svg>
